<svg xmlns="http://www.w3.org/2000/svg" viewBox="0 0 400 100" preserveAspectRatio="xMidYMid meet">
<g transform="translate(48.00 27.86) scale(0.1685)" fill="white">
<g id="Layer_2" data-name="Layer 2"><g id="Layer_1-2" data-name="Layer 1"><path d="M1165.07,113.16,1200.2,8.21h18.08l35.13,105h-13.48l-32.88-97.37h4.08l-32.57,97.37ZM1182,88.6V76.43h54.52V88.6Z"></path><path d="M1252,45.16V34.45h52.7V45.16Zm52.7,68a59.1,59.1,0,0,1-13.81,1.13,30.77,30.77,0,0,1-12.14-2.77,17.2,17.2,0,0,1-8.09-7.83,23,23,0,0,1-2.51-9.44q-.18-4.77-.18-10.82V12.58h13V82.84q0,4.81.11,8.24a12.77,12.77,0,0,0,1.49,5.9,10.7,10.7,0,0,0,8.35,5.47,48.49,48.49,0,0,0,13.81-.44Z"></path><path d="M1317.7,113.16V8.21h11.66V66.15h1.45v47Zm56.12,0V73.73a57.35,57.35,0,0,0-1-10.79,28.33,28.33,0,0,0-3.42-9.29,18.22,18.22,0,0,0-6.56-6.52,20.4,20.4,0,0,0-10.39-2.41,23,23,0,0,0-8.85,1.64,17.75,17.75,0,0,0-6.82,5,23.79,23.79,0,0,0-4.41,8.41,40.66,40.66,0,0,0-1.57,11.92l-8.52-2.62q0-11.44,4.12-19.64A29.74,29.74,0,0,1,1338,36.81a34,34,0,0,1,17.6-4.4,31.93,31.93,0,0,1,13,2.4,26.12,26.12,0,0,1,9,6.38,31,31,0,0,1,5.61,8.89,45.39,45.39,0,0,1,2.88,10,58.6,58.6,0,0,1,.84,9.58v43.51Z"></path><path d="M1404.43,113.16V6h13V113.16Z"></path><path d="M1470.47,115.35a38.78,38.78,0,0,1-20.23-5.14,35.31,35.31,0,0,1-13.45-14.36Q1432,86.64,1432,74.31q0-12.9,4.74-22.33A34.82,34.82,0,0,1,1450,37.4a37.69,37.69,0,0,1,19.93-5.14q11.88,0,20.23,5.47a33.22,33.22,0,0,1,12.53,15.59q4.2,10.14,3.61,24.13h-13.12V72.78q-.21-14.49-5.9-21.68t-16.91-7.18q-12,0-18.3,7.73t-6.27,22.15q0,13.94,6.27,21.58t17.86,7.65a25.21,25.21,0,0,0,13.56-3.57,24.36,24.36,0,0,0,9-10.27l12.46,4.29a35.11,35.11,0,0,1-13.81,16.15A38.45,38.45,0,0,1,1470.47,115.35Zm-29.09-37.9V67h58.17V77.45Z"></path><path d="M1510.77,45.16V34.45h52.7V45.16Zm52.7,68a59.14,59.14,0,0,1-13.81,1.13,30.77,30.77,0,0,1-12.14-2.77,17.2,17.2,0,0,1-8.09-7.83,22.81,22.81,0,0,1-2.51-9.44q-.2-4.77-.19-10.82V12.58h13V82.84c0,3.21,0,6,.11,8.24a12.77,12.77,0,0,0,1.49,5.9,10.7,10.7,0,0,0,8.35,5.47,48.49,48.49,0,0,0,13.81-.44Z"></path><path d="M1607.42,115.35a38.78,38.78,0,0,1-20.23-5.14,35.29,35.29,0,0,1-13.44-14.36q-4.82-9.21-4.82-21.54,0-12.9,4.74-22.33A34.82,34.82,0,0,1,1586.9,37.4a37.73,37.73,0,0,1,19.94-5.14q11.88,0,20.22,5.47a33.23,33.23,0,0,1,12.54,15.59q4.19,10.14,3.61,24.13h-13.12V72.78q-.22-14.49-5.91-21.68t-16.91-7.18q-12,0-18.29,7.73t-6.27,22.15q0,13.94,6.27,21.58t17.86,7.65a25.18,25.18,0,0,0,13.55-3.57,24.29,24.29,0,0,0,9-10.27l12.46,4.29a35.11,35.11,0,0,1-13.81,16.15A38.4,38.4,0,0,1,1607.42,115.35Zm-29.08-37.9V67h58.16V77.45Z"></path><path d="M1689.64,115.35q-12,0-20.3-5.36a34.2,34.2,0,0,1-12.72-14.76,51.72,51.72,0,0,1-4.52-21.43,51.14,51.14,0,0,1,4.63-21.68,34.21,34.21,0,0,1,12.86-14.61q8.39-5.25,20.19-5.25,12.46,0,21.47,6.12a29.5,29.5,0,0,1,12.06,16.77L1710.48,59a21.14,21.14,0,0,0-8-10.64,22.19,22.19,0,0,0-12.79-3.79q-8.1,0-13.34,3.75a22.21,22.21,0,0,0-7.8,10.35,42.8,42.8,0,0,0-2.63,15.12Q1666,86.93,1672,95t17.68,8q7.71,0,12.82-3.53a21.65,21.65,0,0,0,7.73-10.24l13.12,3.42q-4.08,11-12.75,16.84T1689.64,115.35Z"></path><path d="M1735.26,113.16V8.21h11.66V66.15h1.46v47Zm56.12,0V73.73a58.2,58.2,0,0,0-1-10.79,28.57,28.57,0,0,0-3.43-9.29,18.14,18.14,0,0,0-6.56-6.52A20.36,20.36,0,0,0,1770,44.72a23.08,23.08,0,0,0-8.86,1.64,17.64,17.64,0,0,0-6.81,5,23.47,23.47,0,0,0-4.41,8.41,40.33,40.33,0,0,0-1.57,11.92l-8.53-2.62q0-11.44,4.12-19.64a29.86,29.86,0,0,1,11.59-12.62,34,34,0,0,1,17.6-4.4,32,32,0,0,1,13,2.4,26.17,26.17,0,0,1,9,6.38,31,31,0,0,1,5.61,8.89,44.88,44.88,0,0,1,2.89,10,59.67,59.67,0,0,1,.83,9.58v43.51Z"></path><path d="M1172.36,252.68v-105h13.12l54.74,82v-82h13.11v105h-13.11l-54.74-82.07v82.07Z"></path><path d="M1304.94,254.86a38.78,38.78,0,0,1-20.23-5.14,35.26,35.26,0,0,1-13.44-14.35,45.92,45.92,0,0,1-4.82-21.54q0-12.9,4.74-22.34a34.94,34.94,0,0,1,13.23-14.58,37.72,37.72,0,0,1,19.93-5.14q11.89,0,20.23,5.47a33.21,33.21,0,0,1,12.54,15.6q4.19,10.13,3.61,24.12h-13.12V212.3q-.22-14.51-5.91-21.69t-16.91-7.18q-12,0-18.29,7.73t-6.27,22.16q0,13.92,6.27,21.57t17.85,7.65a25.21,25.21,0,0,0,13.56-3.57,24.3,24.3,0,0,0,9-10.27l12.46,4.3a35.08,35.08,0,0,1-13.81,16.14A38.34,38.34,0,0,1,1304.94,254.86ZM1275.86,217V206.54H1334V217Z"></path><path d="M1367.84,252.68l-24-78.79,12.9.07,17.57,57.58L1392,174h11.44l17.64,57.58L1438.69,174h12.83l-24.06,78.72h-10.78l-19-59.84-19,59.84Z"></path><path d="M1488.54,254.79q-14.07,0-23.07-6.16a25.65,25.65,0,0,1-11-17.24l13.27-2.11a16.58,16.58,0,0,0,7.36,10.17q5.76,3.75,14.28,3.75,8.1,0,12.69-3.35a10.69,10.69,0,0,0,4.59-9.11,8.91,8.91,0,0,0-1.53-5.43c-1-1.39-3.13-2.69-6.31-3.9s-8-2.68-14.39-4.38a88.5,88.5,0,0,1-16.4-5.75c-4-2-6.83-4.3-8.53-6.93a17.16,17.16,0,0,1-2.55-9.55,20.05,20.05,0,0,1,3.79-12.13,24.32,24.32,0,0,1,10.6-8.06,41.08,41.08,0,0,1,15.86-2.84,42.77,42.77,0,0,1,16,2.84,28.21,28.21,0,0,1,11.41,8.06,22.67,22.67,0,0,1,5.14,12.13l-13.27,2.41a14.36,14.36,0,0,0-6.08-10q-5.15-3.63-13.23-3.86c-5.11-.19-9.25.7-12.43,2.7s-4.78,4.69-4.78,8.09a7.17,7.17,0,0,0,1.79,4.88q1.79,2,6.64,3.86a139.36,139.36,0,0,0,14.1,4.16,79.07,79.07,0,0,1,16.43,5.72q6,3.1,8.57,7.29a19.49,19.49,0,0,1,2.55,10.31q0,11.37-8.38,17.9T1488.54,254.79Z"></path><path d="M516.43,249.85c0,3.9,1.56,13,16,13h49c14.4,0,16-9.05,16-13v-153h-81Z"></path><path d="M729.45,3.12a10.86,10.86,0,0,0-8-3.05H392.55a10.82,10.82,0,0,0-8,3.05c-3.3,3.33-3.27,7.78-3.23,11.7V59.38c0,3.92-.08,8.37,3.24,11.71a10.8,10.8,0,0,0,8,3H721.42a10.81,10.81,0,0,0,8-3c3.28-3.32,3.23-7.69,3.18-11.54V14.65C732.67,10.8,732.72,6.44,729.45,3.12Z"></path><path d="M147.7,40.32,7.62,233.3c-.28.38-.63.83-1,1.33C3.09,239.17-2.24,246,1,252.51c2.86,5.62,10,6.24,15.67,6.24l2.5,0,61.92,0a15.79,15.79,0,0,0,13-6.61L218.27,80.92a15.8,15.8,0,0,1,13.39-6.81H280.3V180.6h81V.07H226.63A96.46,96.46,0,0,0,147.7,40.32Z"></path><path d="M280.3,246.61c0,12.16,12.14,12.16,16.13,12.16h48.71c4,0,16.19,0,16.19-12.16V202.86h-81Z"></path><path d="M837.05,0H752.68V247.1a11.07,11.07,0,0,0,3.11,8.2c3.43,3.43,8.09,3.42,12.18,3.41h51c3.94,0,8.3-.16,11.56-3.41a11.14,11.14,0,0,0,3.11-8.2V82.67l.06.07L960.15,233.46c13.85,16.52,32.57,25.25,54.14,25.25h70.51L894.31,22.56C878.71,3.92,854.56,0,837.05,0Z"></path><path d="M1091.8,1.07C1089,0,1086,0,1083.05,0h-49.8c-3,0-6,0-8.75,1.07-4.34,1.69-6.83,5.55-6.83,10.58V140l81,100.74V11.66C1098.7,6.62,1096.18,2.76,1091.8,1.07Z"></path></g></g>
</g>
</svg>
