<?xml version="1.0" standalone="no"?>
<!DOCTYPE svg PUBLIC "-//W3C//DTD SVG 20010904//EN"
 "http://www.w3.org/TR/2001/REC-SVG-20010904/DTD/svg10.dtd">
<svg version="1.0" xmlns="http://www.w3.org/2000/svg"
 width="100%" height="100%" viewBox="0 0 1154.000000 600.000000"
 preserveAspectRatio="xMidYMid meet">
<metadata>
Created by potrace 1.16, written by Peter Selinger 2001-2019
</metadata>
<g transform="translate(0.000000,600.000000) scale(0.100000,-0.100000)" fill="white" fill-rule="evenodd" stroke="none">
<path d="M8910 5624 c-630 -69 -1182 -404 -1522 -925 -166 -254 -265 -515
-313 -824 -24 -149 -24 -451 -1 -595 93 -577 374 -1041 836 -1381 406 -298
902 -430 1428 -379 174 17 376 63 487 111 11 5 45 18 75 29 74 28 231 108 307
156 150 95 173 114 200 169 l26 53 -20 43 c-11 24 -23 53 -27 64 -3 11 -30 36
-59 56 l-53 36 -54 -31 c-31 -17 -89 -53 -130 -80 -108 -72 -319 -176 -435
-215 -292 -99 -564 -122 -845 -72 -222 40 -496 166 -715 331 -145 108 -344
324 -447 485 -83 128 -189 361 -218 477 -51 201 -53 219 -54 443 -1 254 8 316
80 533 177 532 596 953 1124 1129 175 58 342 84 540 85 161 0 221 -6 365 -39
186 -41 430 -149 610 -268 184 -123 183 -123 283 -13 39 45 72 88 72 97 0 17
-144 164 -196 199 -182 124 -462 241 -695 291 -114 25 -358 51 -454 50 -38 -1
-126 -8 -195 -15z"/>
<path d="M2002 5577 c-12 -12 -53 -99 -92 -192 -39 -94 -75 -179 -80 -190 -15
-35 -57 -134 -140 -335 -44 -107 -96 -231 -115 -275 -19 -44 -64 -152 -100
-240 -36 -88 -70 -169 -75 -180 -14 -32 -54 -127 -140 -335 -45 -107 -96 -231
-115 -275 -19 -44 -64 -152 -100 -240 -37 -88 -72 -173 -80 -190 -7 -16 -34
-79 -58 -140 -25 -60 -89 -213 -142 -340 -53 -126 -123 -295 -156 -375 -33
-80 -66 -158 -74 -175 -7 -16 -25 -59 -40 -95 -14 -36 -32 -78 -40 -95 -7 -16
-32 -83 -56 -148 -40 -111 -42 -121 -28 -145 20 -36 67 -51 162 -51 71 -1 81
2 127 31 55 36 50 28 164 313 31 77 61 149 66 160 13 27 96 233 132 325 15 41
33 84 38 95 5 11 14 32 20 48 l10 27 1026 -2 1026 -3 50 -120 c27 -66 79 -192
115 -280 214 -523 221 -538 253 -567 29 -27 35 -28 129 -28 204 0 223 41 121
265 -21 47 -204 487 -286 690 -25 61 -49 119 -54 130 -5 11 -39 92 -75 180
-36 88 -70 169 -75 180 -10 23 -85 203 -230 555 -55 135 -105 254 -110 265
-14 31 -237 567 -286 690 -25 61 -49 119 -54 130 -5 11 -39 92 -75 180 -36 88
-70 169 -75 180 -5 11 -39 92 -75 180 -36 88 -82 197 -100 242 -19 45 -35 85
-35 90 0 5 -15 26 -34 46 l-34 37 -94 0 c-86 0 -97 -2 -116 -23z m222 -770
c54 -133 113 -278 132 -322 18 -44 74 -181 124 -305 50 -124 95 -234 100 -245
5 -11 30 -72 56 -135 25 -63 75 -185 109 -270 35 -85 79 -195 99 -245 20 -49
41 -99 46 -110 5 -11 30 -72 56 -135 25 -63 48 -121 51 -127 4 -10 -175 -13
-876 -13 -496 0 -881 4 -881 9 0 8 34 94 99 251 18 41 70 167 116 280 75 184
136 333 282 685 25 61 61 148 80 195 18 47 40 99 47 115 7 17 37 89 66 160 29
72 82 198 116 282 35 84 64 157 64 163 0 36 26 -18 114 -233z"/>
<path d="M4113 5568 c-12 -13 -30 -39 -42 -58 l-21 -35 0 -1917 0 -1916 46
-41 47 -41 896 0 c520 0 932 4 981 10 508 59 884 416 984 935 19 97 12 315
-14 415 -58 233 -143 385 -308 552 -78 80 -169 147 -263 194 l-53 27 34 26
c123 93 254 249 320 381 93 184 120 436 71 664 -40 189 -145 378 -283 512 -97
94 -135 122 -248 182 -122 66 -275 108 -435 122 -68 5 -459 10 -906 10 l-786
0 -20 -22z m1823 -348 c138 -35 234 -89 333 -189 107 -108 162 -208 191 -351
24 -116 25 -179 4 -284 -61 -300 -276 -510 -586 -571 -65 -13 -192 -15 -783
-15 l-705 0 0 715 0 715 733 0 c701 0 737 -1 813 -20z m116 -1764 c83 -17 167
-46 206 -73 15 -10 37 -23 49 -30 13 -6 50 -36 83 -65 265 -233 357 -590 230
-898 -80 -194 -213 -336 -393 -421 -126 -59 -125 -59 -1019 -59 l-818 0 0 780
0 780 794 0 c653 0 807 -3 868 -14z"/>
<path d="M10793 5131 c-230 -80 -271 -382 -70 -519 40 -28 66 -36 148 -48 45
-7 133 19 183 54 70 48 126 154 126 237 0 85 -59 193 -134 244 -68 47 -173 60
-253 32z m204 -67 c117 -57 163 -216 94 -328 -35 -56 -101 -105 -157 -115
-130 -25 -248 51 -283 181 -16 56 -4 118 34 184 25 42 92 94 122 94 10 0 25 5
33 11 22 15 98 2 157 -27z"/>
<path d="M10764 4997 c-2 -7 -3 -76 -2 -152 l3 -140 33 -3 32 -3 0 55 c0 56 0
56 30 56 27 0 33 -6 55 -55 21 -49 27 -55 54 -55 36 0 38 8 11 60 -24 48 -25
58 -3 82 9 10 18 38 19 63 2 37 -2 50 -26 75 -27 29 -31 30 -114 30 -62 0 -88
-4 -92 -13z m153 -45 c7 -4 15 -22 19 -38 8 -42 -17 -66 -65 -62 -36 3 -36 3
-39 56 l-3 52 38 0 c21 0 44 -4 50 -8z"/>
<path d="M1603 842 c-38 -12 -114 -83 -134 -126 -22 -49 -25 -152 -5 -200 53
-128 232 -196 360 -135 40 18 95 65 85 71 -2 2 -18 16 -36 32 l-32 28 -28 -20
c-49 -35 -103 -46 -143 -29 -112 48 -139 176 -55 257 33 32 41 35 98 35 49 0
69 -5 94 -23 l33 -23 35 27 c19 14 35 30 35 33 0 12 -42 47 -77 65 -33 16
-183 21 -230 8z"/>
<path d="M2385 831 c-46 -20 -101 -79 -121 -127 -18 -43 -18 -145 0 -188 84
-201 397 -210 497 -14 24 47 26 153 3 206 -20 49 -70 100 -119 123 -56 26
-204 26 -260 0z m205 -89 c39 -19 80 -88 80 -135 0 -30 -30 -96 -53 -115 -7
-6 -33 -19 -57 -27 -57 -20 -109 -5 -155 46 -45 50 -53 97 -29 158 34 80 132
114 214 73z"/>
<path d="M4950 843 c-46 -19 -95 -59 -120 -100 -27 -42 -30 -55 -30 -130 0
-125 38 -185 147 -233 57 -25 164 -27 219 -4 108 45 154 117 154 240 0 71 -3
85 -29 127 -17 25 -49 59 -72 74 -39 26 -51 28 -148 30 -58 1 -113 -1 -121 -4z
m194 -109 c107 -73 79 -233 -47 -274 -33 -10 -45 -9 -84 5 -106 41 -137 170
-60 254 46 49 130 56 191 15z"/>
<path d="M8775 839 c-94 -44 -138 -108 -143 -209 -5 -86 10 -132 61 -187 79
-86 206 -109 311 -57 66 33 83 49 112 106 31 62 34 170 5 227 -22 42 -90 107
-127 121 -32 13 -193 12 -219 -1z m201 -110 c37 -34 54 -72 54 -119 0 -68 -40
-123 -108 -150 -65 -26 -163 38 -178 115 -13 71 24 152 80 176 39 17 124 5
152 -22z"/>
<path d="M3180 600 l0 -240 55 0 55 0 0 65 0 65 53 0 52 -1 40 -64 40 -65 62
0 c35 0 63 2 63 5 0 2 -20 33 -45 68 -46 67 -56 97 -30 97 8 0 27 18 41 40 58
87 25 204 -70 248 -40 19 -63 22 -181 22 l-135 0 0 -240z m275 120 c33 -31 33
-73 0 -105 -21 -22 -33 -25 -95 -25 l-70 0 0 73 c0 41 3 77 8 81 4 4 35 6 69
4 48 -3 68 -9 88 -28z"/>
<path d="M4020 600 l0 -240 55 0 55 0 0 65 0 65 58 0 c110 1 165 24 210 90 30
44 30 121 1 170 -46 75 -88 90 -250 90 l-129 0 0 -240z m265 120 c33 -31 33
-73 0 -105 -21 -21 -33 -25 -89 -25 l-64 0 -4 76 c-2 42 -1 78 2 81 3 3 33 3
67 1 48 -3 68 -9 88 -28z"/>
<path d="M5727 833 c-4 -3 -7 -111 -7 -240 l0 -233 55 0 54 0 3 63 3 62 50 0
c49 0 49 0 93 -62 l43 -63 60 0 c32 0 59 3 59 7 0 3 -21 37 -47 75 l-47 69 31
24 c55 44 77 130 49 196 -36 85 -94 109 -264 109 -71 0 -132 -3 -135 -7z m252
-98 c47 -24 56 -83 19 -122 -19 -20 -31 -23 -95 -23 l-73 0 0 73 c0 41 3 77 7
80 12 13 114 7 142 -8z"/>
<path d="M6692 828 c-5 -7 -27 -51 -48 -98 -20 -47 -64 -143 -96 -214 -32 -71
-58 -136 -58 -143 0 -11 14 -13 56 -11 l56 3 17 45 17 45 114 0 114 0 15 -47
15 -48 64 0 c47 0 63 3 59 13 -3 6 -31 68 -62 137 -31 69 -77 171 -102 228
l-46 102 -52 0 c-30 0 -57 -5 -63 -12z m91 -183 c38 -93 38 -95 -33 -95 -46 0
-60 3 -60 15 0 21 51 145 59 145 4 0 19 -29 34 -65z"/>
<path d="M7310 790 l0 -50 75 0 75 0 0 -190 0 -190 55 0 55 0 0 190 0 190 75
0 75 0 0 50 0 50 -205 0 -205 0 0 -50z"/>
<path d="M8110 835 c0 -3 -1 -110 -1 -237 l0 -233 51 -3 50 -3 0 240 0 241
-50 0 c-27 0 -50 -2 -50 -5z"/>
<path d="M9540 600 l0 -240 50 0 50 0 0 123 c0 67 4 128 9 135 8 14 60 -41
185 -197 49 -59 51 -61 98 -61 l48 0 -2 238 -3 237 -52 3 -53 3 0 -136 c0 -79
-4 -135 -9 -133 -10 3 -162 183 -199 236 -21 29 -28 32 -73 32 l-49 0 0 -240z"/>
</g>
</svg>
