<?xml version="1.0" standalone="no"?>
<!DOCTYPE svg PUBLIC "-//W3C//DTD SVG 20010904//EN"
 "http://www.w3.org/TR/2001/REC-SVG-20010904/DTD/svg10.dtd">
<svg version="1.0" xmlns="http://www.w3.org/2000/svg"
 width="100%" height="100%" viewBox="0 0 2499.000000 700.000000"
 preserveAspectRatio="xMidYMid meet">
<metadata>
Created by potrace 1.16, written by Peter Selinger 2001-2019
</metadata>
<g transform="translate(0.000000,700.000000) scale(0.100000,-0.100000)"
fill="white" stroke="none">
<path d="M12595 6610 c-38 -4 -137 -13 -220 -20 -82 -6 -184 -20 -225 -31 -41
-10 -111 -27 -155 -38 -184 -44 -239 -64 -410 -149 -137 -68 -202 -107 -272
-163 -50 -41 -114 -92 -143 -114 -30 -24 -98 -101 -165 -190 -96 -128 -119
-165 -155 -255 -22 -58 -45 -114 -50 -125 -28 -62 -43 -103 -46 -130 -5 -33
-19 -150 -35 -286 -10 -86 -9 -98 22 -331 6 -46 11 -94 11 -108 0 -24 26 -95
68 -185 10 -22 36 -78 58 -125 21 -47 58 -108 83 -136 24 -28 78 -90 119 -139
58 -68 113 -116 245 -215 94 -69 204 -145 245 -167 41 -22 134 -72 205 -111
72 -39 180 -92 240 -117 61 -26 134 -58 163 -71 29 -13 55 -24 58 -24 3 0 24
-9 47 -19 61 -28 111 -49 207 -87 47 -19 94 -39 105 -44 11 -5 54 -23 95 -39
71 -28 255 -111 440 -199 143 -68 414 -241 513 -327 192 -167 221 -200 326
-365 55 -87 103 -171 105 -186 3 -16 15 -78 27 -139 11 -60 25 -134 30 -163 5
-30 10 -57 11 -60 3 -11 -13 -114 -22 -147 -4 -16 -16 -75 -25 -130 -11 -65
-27 -116 -44 -145 -14 -25 -28 -50 -31 -55 -3 -6 -35 -60 -72 -120 -56 -92
-80 -122 -149 -180 -45 -39 -110 -94 -143 -124 -34 -29 -90 -66 -126 -83 -36
-16 -74 -33 -85 -38 -223 -103 -215 -100 -510 -141 -44 -6 -102 -15 -129 -19
-27 -4 -79 -4 -115 0 -36 5 -120 13 -186 20 -247 23 -286 31 -495 100 -199 66
-211 72 -373 172 -144 89 -185 121 -306 236 -112 106 -161 162 -246 280 -123
172 -242 398 -331 630 l-59 154 -35 -6 c-19 -3 -50 -6 -69 -6 l-34 0 7 -72 c4
-40 14 -208 22 -373 8 -165 19 -376 24 -470 5 -93 9 -183 10 -200 0 -32 -2
-30 120 -97 30 -17 67 -39 82 -49 14 -11 29 -19 32 -19 3 0 35 -18 71 -40 36
-22 67 -40 70 -40 3 0 28 -15 57 -33 29 -18 69 -39 88 -47 19 -7 49 -19 65
-26 138 -59 337 -130 420 -151 55 -13 134 -33 175 -43 175 -46 256 -61 367
-70 65 -5 177 -15 248 -22 205 -20 277 -18 630 22 39 4 124 24 190 43 66 20
154 45 195 57 64 19 308 137 420 203 38 23 214 165 293 237 50 45 69 68 203
249 93 125 207 389 224 516 5 44 16 118 22 165 16 108 16 174 -1 280 -7 47
-15 94 -16 105 -25 180 -22 171 -115 349 -87 167 -93 175 -222 314 -104 111
-156 158 -238 214 -58 39 -140 95 -182 124 -75 51 -468 261 -557 297 -24 10
-62 26 -85 36 -22 11 -106 47 -186 81 -80 34 -163 70 -185 80 -22 10 -125 54
-230 98 -412 174 -793 381 -939 511 -203 180 -230 211 -323 366 -75 127 -91
161 -102 220 -13 75 -25 136 -39 201 -11 50 -8 159 7 237 20 107 32 172 41
230 7 46 26 86 97 204 100 166 125 194 279 314 137 107 110 93 319 172 163 62
177 65 283 77 50 5 134 15 185 20 50 6 121 8 157 5 425 -37 448 -41 669 -112
209 -67 227 -76 454 -217 98 -60 322 -277 375 -362 24 -38 102 -163 173 -279
72 -115 132 -212 135 -214 2 -2 27 3 55 11 l52 14 -2 145 c-1 79 -6 207 -11
284 -5 77 -10 190 -10 251 0 61 -3 138 -6 170 -7 68 16 48 -197 163 -193 105
-484 203 -762 257 -38 8 -90 19 -115 25 -46 10 -144 20 -415 38 -82 6 -177 13
-210 15 -33 3 -91 1 -130 -4z"/>
<path d="M380 6493 l0 -69 84 -38 c80 -36 88 -42 129 -104 24 -37 47 -72 51
-79 6 -11 48 -200 61 -274 25 -141 37 -3896 15 -4523 -11 -281 -12 -291 -39
-365 -16 -42 -41 -110 -56 -151 -15 -41 -29 -82 -32 -90 -4 -8 -13 -35 -22
-60 -15 -42 -22 -48 -104 -88 l-87 -44 0 -69 0 -69 615 0 615 0 0 70 0 70 -83
39 c-74 34 -87 44 -123 97 -55 80 -63 96 -74 151 -5 27 -17 80 -26 118 -27
117 -35 395 -40 1519 l-5 1078 358 -5 c197 -2 399 -10 448 -16 50 -6 132 -16
183 -22 55 -6 127 -23 175 -41 45 -16 127 -45 182 -65 81 -28 115 -47 185
-101 47 -37 107 -83 133 -102 29 -21 92 -94 161 -185 128 -169 243 -378 341
-620 31 -77 63 -153 70 -170 8 -16 44 -104 81 -195 36 -91 74 -184 85 -207 10
-23 19 -44 19 -47 0 -3 11 -29 24 -58 36 -81 79 -182 126 -298 37 -92 106
-254 189 -445 15 -33 42 -86 61 -118 19 -32 40 -66 45 -75 92 -155 111 -180
172 -227 35 -27 90 -71 121 -97 31 -27 64 -48 74 -48 9 0 86 -14 170 -31 208
-42 268 -38 376 24 42 25 95 55 117 67 81 45 105 62 105 75 0 10 -9 11 -37 4
-21 -5 -62 -9 -92 -9 -48 0 -60 5 -110 42 -31 24 -58 45 -61 48 -3 3 -41 32
-85 64 -178 131 -182 135 -219 204 -20 37 -46 85 -59 107 -87 154 -150 286
-256 535 -67 157 -126 293 -131 302 -6 10 -10 23 -10 29 0 6 -6 25 -14 42 -8
18 -25 61 -39 97 -20 53 -119 306 -170 435 -7 16 -56 120 -110 230 -90 182
-160 292 -247 387 -8 9 -35 43 -60 76 -27 36 -75 80 -120 111 -41 28 -120 83
-175 121 -95 66 -110 73 -322 142 -123 40 -220 75 -215 79 4 4 66 21 137 39
283 67 291 70 509 172 170 79 211 106 429 277 65 52 278 317 303 377 9 22 22
53 29 69 99 218 101 226 141 550 6 47 7 126 1 170 -3 22 -10 81 -17 130 -17
138 -26 166 -92 308 -58 125 -68 139 -176 257 -66 71 -137 138 -166 156 -73
44 -226 134 -261 154 -16 9 -70 29 -120 44 -49 15 -144 45 -210 66 -66 22
-167 46 -225 55 -58 8 -136 20 -175 26 -38 6 -90 15 -115 21 -97 22 -424 30
-1362 35 l-978 4 0 -68z m1450 -103 c325 -20 445 -29 498 -40 95 -18 156 -30
212 -40 113 -19 179 -39 340 -100 146 -56 182 -74 307 -159 136 -92 143 -98
186 -171 24 -41 97 -165 161 -275 95 -161 119 -210 126 -255 34 -224 38 -332
20 -458 -6 -42 -16 -111 -22 -152 -7 -49 -27 -112 -58 -185 -27 -60 -56 -129
-65 -151 -19 -47 -6 -36 -235 -219 -96 -77 -205 -165 -243 -197 -37 -32 -79
-60 -95 -64 -15 -3 -54 -14 -87 -24 -323 -98 -366 -102 -1072 -107 l-543 -4 0
1294 0 1294 133 10 c191 14 242 14 437 3z"/>
<path d="M5600 6493 l0 -68 86 -40 c82 -37 89 -43 135 -112 30 -44 53 -92 59
-120 6 -27 19 -91 31 -143 12 -55 23 -157 27 -240 9 -185 9 -4283 0 -4490 l-6
-155 -81 -220 c-45 -121 -84 -221 -88 -223 -5 -1 -42 -17 -83 -35 l-75 -32 -3
-73 -3 -72 2094 0 2094 0 12 133 c27 304 46 548 42 562 -1 5 2 54 8 110 5 55
13 137 16 183 6 92 6 92 -78 105 l-37 6 -91 -182 c-81 -161 -141 -252 -209
-317 -3 -3 -30 -34 -60 -68 -49 -57 -108 -100 -258 -187 -10 -5 -33 -19 -52
-31 -19 -12 -73 -31 -120 -44 -47 -12 -123 -33 -170 -45 -87 -24 -188 -36
-465 -55 -192 -14 -1533 -8 -1610 7 -109 21 -185 95 -212 208 -9 38 -12 384
-13 1413 l0 1362 688 -1 c378 0 755 -4 837 -9 83 -6 202 -13 265 -16 63 -3
138 -13 165 -21 28 -8 103 -30 167 -48 100 -28 125 -39 175 -80 126 -103 130
-108 179 -230 l46 -115 69 0 69 0 0 600 0 600 -69 0 -69 0 -47 -117 -47 -118
-93 -77 -93 -78 -144 -41 c-78 -23 -170 -45 -203 -50 -151 -23 -446 -32 -1142
-36 l-753 -4 0 1306 0 1306 798 -4 c640 -3 826 -7 947 -20 83 -9 184 -19 225
-22 41 -4 89 -13 107 -21 17 -8 34 -14 38 -14 4 0 21 -7 38 -15 18 -8 97 -39
176 -70 138 -54 146 -58 234 -138 224 -203 225 -204 304 -347 16 -29 154 -280
158 -287 1 -3 115 24 119 28 3 4 -7 118 -23 274 -6 55 -18 172 -26 260 -8 88
-19 201 -24 250 -6 50 -13 119 -16 155 -3 36 -8 80 -11 98 l-5 32 -1964 0
-1965 0 0 -67z"/>
<path d="M15360 6490 l0 -70 58 -25 c31 -13 68 -30 82 -37 35 -19 126 -156
133 -204 9 -50 14 -78 27 -139 35 -161 39 -374 39 -2483 1 -2222 -2 -2375 -44
-2492 -13 -36 -48 -132 -78 -214 l-54 -148 -59 -28 c-32 -15 -69 -30 -81 -34
-21 -7 -23 -13 -23 -82 l0 -74 2097 2 c1857 3 2098 5 2098 18 1 23 14 201 25
330 5 63 14 176 20 250 6 74 15 194 21 265 5 72 11 149 13 171 3 40 2 42 -28
47 -17 3 -45 9 -63 12 l-32 7 -94 -188 c-99 -197 -147 -265 -292 -409 -75 -74
-281 -200 -368 -225 -258 -73 -312 -85 -402 -93 -162 -13 -1828 -20 -1889 -7
-118 24 -198 112 -216 236 -6 43 -10 569 -10 1407 l0 1338 813 -4 c782 -4
1072 -14 1147 -37 19 -6 69 -20 110 -31 174 -47 191 -55 285 -138 l90 -78 45
-117 45 -116 68 0 67 0 0 605 0 605 -67 0 -68 0 -44 -113 c-47 -118 -56 -131
-174 -231 -55 -46 -67 -52 -230 -97 -235 -67 -309 -71 -1289 -76 l-798 -4 0
1306 0 1306 803 -4 c652 -3 830 -7 952 -20 83 -9 184 -19 225 -23 41 -4 95
-15 120 -24 25 -10 88 -35 140 -55 52 -20 109 -43 125 -50 17 -7 51 -20 76
-29 30 -12 80 -49 146 -109 55 -51 125 -114 157 -142 44 -39 71 -77 125 -175
38 -69 89 -162 115 -208 25 -45 46 -87 46 -92 0 -6 4 -10 10 -10 23 0 110 22
115 30 2 4 -2 81 -11 171 -20 217 -25 273 -65 644 -5 50 -11 122 -14 160 -3
39 -8 76 -10 83 -3 9 -406 12 -1970 12 l-1965 0 0 -70z"/>
<path d="M20124 6523 c0 -21 -5 -119 -12 -218 -30 -476 -36 -563 -36 -604 l-1
-44 58 -12 c55 -11 59 -10 72 9 7 12 56 94 109 183 88 148 104 169 189 245
111 100 173 150 207 165 14 7 93 35 175 64 147 51 154 52 340 66 105 8 337 17
518 20 l327 5 0 -2549 c0 -1450 -4 -2598 -10 -2663 -8 -103 -36 -271 -57 -341
-5 -14 -30 -59 -56 -100 -47 -71 -51 -75 -130 -110 l-82 -36 -3 -72 -3 -71
621 0 620 0 0 68 0 69 -87 44 c-82 41 -91 49 -135 114 -41 63 -50 86 -73 195
-15 69 -32 193 -38 275 -8 107 -12 869 -12 2660 l0 2510 295 0 c162 0 387 -7
500 -14 203 -14 206 -15 350 -63 80 -28 159 -54 176 -59 36 -11 68 -32 156
-108 152 -130 162 -142 278 -334 100 -167 115 -187 134 -180 12 3 37 9 56 12
l35 6 0 70 c-1 39 -6 153 -13 255 -7 102 -16 264 -22 360 -5 96 -12 185 -15
198 l-5 22 -2213 0 -2212 0 -1 -37z"/>
</g>
</svg>
