<?xml version="1.0" standalone="no"?>
<!DOCTYPE svg PUBLIC "-//W3C//DTD SVG 20010904//EN"
 "http://www.w3.org/TR/2001/REC-SVG-20010904/DTD/svg10.dtd">
<svg version="1.0" xmlns="http://www.w3.org/2000/svg"
 width="100%" height="100%" viewBox="0 0 1478.000000 700.000000"
 preserveAspectRatio="xMidYMid meet">
<metadata>
Created by potrace 1.16, written by Peter Selinger 2001-2019
</metadata>
<g transform="translate(0.000000,700.000000) scale(0.100000,-0.100000)"
fill="white" stroke="none">
<path d="M5367 6704 c-3 -4 15 -32 40 -63 25 -31 50 -66 55 -77 8 -18 -66
-190 -437 -1010 -488 -1079 -479 -1059 -587 -1294 -25 -52 -103 -225 -174
-383 -117 -262 -135 -295 -191 -360 -35 -40 -63 -78 -63 -84 0 -10 39 -13 164
-13 l165 0 -2 48 c-2 49 5 91 27 182 11 44 457 1060 625 1425 20 44 158 353
306 688 148 334 272 607 275 607 3 0 32 -71 64 -157 59 -158 531 -1377 566
-1463 10 -25 52 -130 93 -235 353 -898 333 -842 344 -997 l6 -98 284 0 c157 0
283 4 281 8 -1 4 -32 47 -68 95 -139 187 -129 165 -568 1282 -707 1797 -744
1888 -757 1897 -12 9 -439 11 -448 2z"/>
<path d="M6452 6697 c-9 -10 -6 -21 12 -48 96 -145 197 -408 526 -1374 27 -77
76 -219 110 -315 34 -96 101 -290 149 -430 240 -695 385 -1106 393 -1115 5 -6
13 -4 22 5 7 8 169 483 360 1055 190 572 379 1136 419 1253 l73 212 31 -77
c39 -98 36 -90 313 -813 127 -333 255 -666 284 -740 29 -74 117 -304 196 -510
78 -206 149 -381 156 -389 17 -19 7 -47 223 560 284 801 718 2021 774 2179 55
156 137 318 223 442 30 43 54 84 54 93 0 13 -25 15 -175 15 -198 0 -195 1
-178 -75 9 -41 -6 -90 -401 -1254 -227 -665 -414 -1213 -418 -1216 -3 -4 -12
11 -18 32 -13 37 -257 705 -685 1868 -120 325 -222 602 -227 618 l-10 27 -249
0 c-212 0 -249 -2 -249 -15 0 -8 25 -52 55 -99 31 -47 85 -146 122 -221 l66
-137 -86 -261 c-48 -144 -196 -598 -329 -1009 -134 -411 -245 -748 -248 -748
-5 0 -17 35 -441 1285 -282 834 -309 929 -309 1108 l0 97 -97 1 c-54 0 -173 3
-264 5 -131 4 -168 2 -177 -9z"/>
<path d="M2615 1900 c-218 -35 -351 -96 -484 -224 -71 -70 -91 -96 -136 -186
-44 -88 -55 -122 -69 -208 -22 -143 -20 -202 13 -339 56 -238 187 -406 405
-522 92 -49 108 -53 235 -73 l137 -20 129 41 c72 22 163 56 203 76 41 19 87
35 103 35 35 0 56 34 60 100 4 77 0 110 -15 110 -7 0 -45 -29 -82 -64 -89 -82
-220 -149 -324 -166 -69 -12 -84 -11 -180 10 -93 20 -114 29 -187 78 -136 93
-241 253 -283 432 -35 148 -10 326 67 470 67 127 171 230 288 285 50 23 107
45 128 49 128 24 291 -13 417 -93 45 -28 82 -51 84 -51 2 0 6 7 10 15 5 14
-69 195 -85 206 -11 6 -241 37 -324 43 -33 2 -82 0 -110 -4z"/>
<path d="M5495 1886 c-289 -60 -502 -242 -597 -511 -73 -205 -58 -405 45 -610
116 -233 358 -398 626 -427 83 -9 107 -8 210 13 142 27 234 67 340 148 189
144 308 370 312 592 5 257 -105 488 -305 642 -103 80 -103 80 -223 122 -61 21
-135 38 -195 44 -54 6 -99 11 -100 10 -2 0 -52 -11 -113 -23z m293 -115 c77
-24 104 -39 164 -88 100 -81 171 -193 213 -333 45 -151 50 -226 24 -368 -28
-150 -82 -264 -178 -370 -85 -95 -195 -154 -316 -171 -76 -11 -84 -10 -186 20
-95 28 -113 37 -184 94 -140 115 -234 307 -251 518 -6 74 -3 100 26 218 29
123 37 143 97 239 40 65 79 115 102 131 20 14 63 44 96 67 45 31 78 46 130 56
109 21 161 19 263 -13z"/>
<path d="M13540 1890 c-74 -10 -159 -19 -188 -19 -63 -1 -73 -16 -46 -69 18
-35 19 -72 22 -686 3 -570 1 -654 -13 -688 -8 -22 -13 -44 -10 -49 4 -5 55 -9
114 -9 84 0 111 3 121 15 10 12 10 18 -1 32 -11 13 -15 91 -17 387 -2 323 -1
369 12 356 7 -8 149 -163 315 -343 247 -270 303 -336 312 -370 20 -75 12 -72
166 -75 112 -2 142 0 152 12 15 18 66 -43 -523 615 l-148 166 33 6 c34 6 184
60 219 79 10 5 47 45 83 88 64 77 65 79 77 166 l12 88 -53 107 c-60 119 -60
119 -211 171 -114 39 -245 46 -428 20z m311 -104 c21 -9 59 -45 97 -91 62 -77
62 -78 62 -141 0 -63 0 -63 -71 -156 l-71 -93 -108 -26 c-102 -24 -126 -26
-208 -13 l-32 5 2 242 3 242 55 22 c67 27 216 32 271 9z"/>
<path d="M933 1875 c-3 -9 4 -29 16 -45 11 -16 21 -33 21 -38 0 -7 -295 -635
-591 -1257 -16 -33 -43 -77 -60 -97 -45 -53 -30 -68 65 -68 39 0 76 4 82 8 6
4 11 27 11 52 -1 38 21 92 134 335 l136 290 278 0 278 0 114 -260 c93 -212
117 -275 127 -340 l12 -80 142 -3 c166 -3 164 -5 99 90 -52 78 -77 132 -385
848 l-248 575 -112 3 c-96 2 -113 0 -119 -13z m211 -455 c58 -134 106 -248
106 -252 0 -4 -102 -8 -226 -8 -177 0 -225 3 -221 13 14 36 231 497 233 495 1
-2 50 -113 108 -248z"/>
<path d="M8480 1875 c-10 -12 -8 -22 12 -53 50 -74 70 -127 218 -564 327 -963
323 -953 345 -953 18 0 43 70 210 575 139 419 193 570 199 555 30 -77 213
-561 305 -805 61 -162 115 -302 120 -310 4 -8 17 -15 27 -15 15 0 58 112 259
685 235 667 271 761 321 827 43 57 37 63 -76 63 l-100 0 0 -62 c0 -62 -50
-215 -306 -938 -25 -69 -47 -132 -50 -140 -5 -13 -7 -13 -14 1 -5 9 -47 121
-93 250 -46 129 -137 381 -203 562 l-119 327 -132 0 c-106 0 -133 -3 -133 -14
0 -7 15 -38 33 -68 17 -30 43 -77 55 -104 l24 -50 -57 -180 c-150 -473 -228
-705 -235 -697 -4 4 -78 221 -165 482 -145 436 -158 480 -159 550 l-1 76 -75
6 c-140 12 -197 10 -210 -6z"/>
<path d="M12262 1877 c-9 -10 -5 -22 14 -48 l24 -35 -309 -655 c-173 -365
-323 -671 -341 -692 -50 -60 -40 -72 60 -72 l85 0 5 55 c5 43 35 117 140 343
l134 287 272 0 c205 0 274 -3 282 -12 24 -31 235 -535 239 -572 2 -23 6 -56 9
-73 l5 -33 145 0 c144 0 145 0 139 21 -4 12 -22 41 -41 66 -45 59 -54 79 -359
788 -147 341 -271 626 -277 632 -15 18 -212 18 -226 0z m114 -239 c4 -13 51
-124 105 -247 54 -124 97 -226 95 -228 -2 -2 -104 -2 -228 -1 l-225 3 115 248
c64 136 119 247 123 247 4 0 11 -10 15 -22z"/>
<path d="M3337 1873 c-3 -5 -11 -36 -17 -71 -16 -81 -9 -89 61 -68 37 11 95
16 201 16 l148 0 0 -587 c0 -478 -3 -604 -15 -673 -25 -143 -34 -131 103 -128
l117 3 -3 25 c-1 14 -6 63 -11 110 -5 47 -10 347 -10 668 l-1 582 153 0 c107
0 169 -5 203 -15 70 -21 79 -9 56 75 l-17 65 -482 3 c-265 1 -484 -1 -486 -5z"/>
<path d="M4460 1863 c0 -10 7 -61 15 -113 22 -140 22 -1148 0 -1270 -23 -133
-33 -121 103 -118 110 3 117 4 115 23 -1 11 -6 49 -10 85 -10 77 1 1342 12
1383 l7 27 -121 0 c-109 0 -121 -2 -121 -17z"/>
<path d="M6605 1870 c-8 -13 3 -29 78 -113 l58 -65 -3 -634 c-2 -518 -6 -638
-17 -651 -27 -34 -7 -47 73 -47 41 0 78 5 81 10 4 6 -1 43 -10 83 -13 62 -15
146 -13 589 l3 517 75 -92 c41 -50 194 -238 340 -416 146 -178 340 -417 433
-530 174 -214 203 -244 212 -220 2 8 6 349 9 759 2 410 7 762 11 783 l7 37
-71 0 c-79 0 -80 -1 -61 -71 12 -41 19 -1121 8 -1117 -3 2 -54 62 -113 133
-641 781 -792 969 -806 1007 l-17 43 -135 3 c-89 2 -138 -1 -142 -8z"/>
<path d="M10645 1870 c-3 -5 0 -27 6 -47 10 -28 14 -194 17 -643 3 -513 1
-619 -12 -696 -9 -50 -16 -99 -16 -108 0 -15 33 -16 377 -14 l377 3 35 58 c30
51 32 60 19 73 -12 13 -20 13 -57 -1 -65 -22 -196 -35 -373 -35 l-158 0 0 365
0 365 180 0 c135 0 190 -4 225 -15 25 -9 50 -13 55 -10 12 8 13 152 1 159 -5
3 -26 -2 -47 -11 -31 -13 -80 -18 -226 -21 l-188 -4 0 241 0 241 213 0 c157 0
227 -4 261 -14 78 -24 90 -9 60 77 l-16 47 -363 0 c-229 0 -366 -4 -370 -10z"/>
</g>
</svg>
