<?xml version="1.0" standalone="no"?>
<!DOCTYPE svg PUBLIC "-//W3C//DTD SVG 20010904//EN"
 "http://www.w3.org/TR/2001/REC-SVG-20010904/DTD/svg10.dtd">
<svg version="1.0" xmlns="http://www.w3.org/2000/svg"
 width="100%" height="100%" viewBox="0 0 1387.000000 600.000000"
 preserveAspectRatio="xMidYMid meet">
<metadata>
Created by potrace 1.16, written by Peter Selinger 2001-2019
</metadata>
<g transform="translate(0.000000,600.000000) scale(0.100000,-0.100000)"
fill="white" stroke="none">
<path d="M11645 5220 c-3 -5 -24 -10 -45 -10 -21 0 -42 -4 -45 -10 -3 -5 -21
-10 -40 -10 -19 0 -37 -4 -40 -10 -3 -5 -15 -10 -25 -10 -11 0 -35 -9 -55 -20
-20 -11 -41 -20 -48 -20 -18 0 -67 -24 -67 -32 0 -5 -8 -8 -18 -8 -10 0 -24
-9 -32 -20 -8 -11 -21 -20 -30 -20 -9 0 -22 -9 -30 -20 -8 -11 -20 -20 -28
-20 -7 0 -28 -16 -48 -35 -19 -19 -39 -35 -45 -35 -13 0 -79 -67 -79 -80 0 -7
-18 -29 -40 -50 -22 -21 -40 -45 -40 -52 0 -7 -9 -20 -20 -28 -11 -8 -20 -22
-20 -32 0 -10 -4 -18 -10 -18 -5 0 -10 -6 -10 -13 0 -8 -9 -22 -21 -33 -11
-10 -18 -26 -16 -36 3 -9 -1 -22 -9 -29 -8 -6 -12 -15 -9 -19 3 -4 -2 -13 -10
-20 -9 -7 -13 -21 -10 -31 3 -9 1 -20 -5 -24 -5 -3 -10 -17 -10 -30 0 -13 -4
-27 -10 -30 -5 -3 -10 -21 -10 -40 0 -19 -4 -37 -10 -40 -5 -3 -10 -26 -10
-51 0 -24 -4 -44 -10 -44 -6 0 -10 -38 -10 -94 0 -53 -4 -98 -10 -101 -5 -3
-10 -35 -10 -71 0 -36 4 -64 10 -64 6 0 10 -41 10 -104 0 -59 4 -108 10 -111
6 -3 10 -26 10 -50 0 -24 5 -47 10 -50 6 -3 10 -22 10 -41 0 -19 5 -34 10 -34
6 0 10 -13 10 -30 0 -16 5 -30 11 -30 5 0 9 -8 7 -17 -1 -10 2 -25 7 -33 5 -8
10 -17 10 -20 2 -21 90 -181 110 -200 14 -13 25 -28 25 -34 0 -14 162 -176
176 -176 6 0 23 -13 39 -30 16 -17 33 -30 39 -30 5 0 18 -7 28 -17 21 -19 36
-27 138 -79 41 -21 77 -42 78 -46 2 -4 12 -8 23 -8 10 0 19 -4 19 -10 0 -5 9
-10 20 -10 11 0 20 -4 20 -10 0 -5 9 -10 20 -10 11 0 20 -4 20 -10 0 -5 9 -10
20 -10 11 0 20 -4 20 -10 0 -5 8 -10 19 -10 10 0 53 -18 96 -40 43 -22 85 -40
94 -41 9 0 39 -14 66 -29 28 -16 66 -37 85 -46 19 -10 47 -31 62 -46 14 -15
31 -28 37 -28 16 0 101 -87 101 -103 0 -7 9 -19 20 -27 11 -8 20 -24 20 -37 0
-12 5 -25 10 -28 6 -3 10 -17 10 -30 0 -13 5 -27 10 -30 6 -4 10 -78 10 -190
0 -112 -4 -186 -10 -190 -5 -3 -10 -19 -10 -34 0 -34 -42 -120 -74 -150 -13
-13 -46 -34 -72 -47 -43 -22 -60 -24 -176 -24 -79 0 -128 4 -128 10 0 6 -9 10
-20 10 -11 0 -20 5 -20 10 0 6 -6 10 -12 10 -18 1 -78 57 -78 73 0 7 -9 19
-20 27 -11 8 -20 22 -20 32 0 10 -4 18 -10 18 -5 0 -10 14 -10 30 0 17 -4 30
-10 30 -5 0 -10 20 -10 44 0 25 -4 48 -10 51 -6 4 -10 54 -10 116 0 82 -4 114
-14 125 -12 12 -84 14 -435 14 l-421 0 0 -175 c0 -110 4 -175 10 -175 6 0 10
-27 10 -60 0 -33 4 -60 10 -60 6 0 10 -20 10 -44 0 -25 5 -48 10 -51 6 -3 10
-17 10 -30 0 -13 5 -27 10 -30 6 -3 10 -17 10 -30 0 -13 5 -27 10 -30 6 -3 10
-14 10 -24 0 -10 6 -31 14 -47 7 -16 20 -44 27 -62 8 -17 17 -32 21 -32 5 0 8
-9 8 -20 0 -11 5 -20 10 -20 6 0 10 -8 10 -18 0 -10 9 -24 20 -32 11 -8 20
-21 20 -28 0 -8 14 -27 30 -42 17 -15 30 -33 30 -39 0 -12 96 -103 119 -112 9
-4 27 -19 40 -33 14 -14 29 -26 36 -26 6 0 17 -9 25 -20 8 -11 22 -20 32 -20
10 0 18 -4 18 -10 0 -5 9 -10 20 -10 11 0 20 -4 20 -10 0 -5 9 -10 20 -10 11
0 20 -3 20 -7 0 -11 50 -33 71 -33 10 0 21 -4 24 -10 3 -5 17 -10 30 -10 13 0
27 -5 30 -10 3 -6 21 -10 40 -10 19 0 37 -4 40 -10 3 -5 26 -10 50 -10 24 0
46 -4 50 -10 3 -5 103 -9 245 -9 142 0 242 4 245 9 4 6 30 10 60 10 30 0 57 5
60 10 3 6 22 10 41 10 19 0 34 5 34 10 0 6 14 10 30 10 17 0 30 5 30 10 0 6 8
10 17 10 23 0 198 87 213 106 7 8 18 14 25 14 6 0 20 9 30 20 10 11 23 20 29
20 14 0 178 164 171 171 -2 3 9 18 25 34 17 16 30 34 30 41 0 6 7 17 15 24 18
15 85 150 85 173 0 9 5 17 10 17 6 0 10 9 10 20 0 11 5 20 10 20 6 0 10 18 10
40 0 22 5 40 10 40 6 0 10 14 10 30 0 17 5 30 10 30 6 0 10 20 10 44 0 25 5
48 10 51 6 3 10 39 10 80 0 41 5 77 10 80 6 4 10 72 10 170 0 98 -4 166 -10
170 -5 3 -10 37 -10 75 0 38 -4 72 -10 75 -5 3 -10 26 -10 50 0 24 -4 47 -10
50 -5 3 -10 21 -10 40 0 19 -4 37 -10 40 -5 3 -10 17 -10 31 0 13 -4 24 -10
24 -5 0 -10 14 -10 30 0 17 -4 30 -10 30 -5 0 -10 9 -10 20 0 11 -4 20 -10 20
-5 0 -10 9 -10 20 0 11 -4 20 -10 20 -5 0 -10 9 -10 20 0 11 -4 20 -8 20 -5 0
-14 16 -22 35 -7 19 -26 47 -42 62 -15 15 -28 32 -28 38 0 13 -212 225 -226
225 -6 0 -23 14 -39 30 -16 17 -34 30 -40 30 -7 0 -20 9 -30 20 -10 11 -24 20
-32 20 -7 0 -13 5 -13 10 0 6 -8 10 -18 10 -10 0 -24 9 -32 20 -8 11 -22 20
-32 20 -10 0 -18 5 -18 10 0 6 -9 10 -20 10 -11 0 -20 5 -20 10 0 6 -9 10 -19
10 -11 0 -21 3 -23 8 -4 10 -87 52 -103 52 -7 0 -30 9 -52 19 -71 36 -106 51
-118 51 -15 0 -139 62 -143 73 -2 4 -12 7 -23 7 -10 0 -19 5 -19 10 0 6 -8 10
-18 10 -10 0 -24 9 -32 20 -8 11 -20 20 -28 20 -16 0 -131 120 -132 138 0 6
-4 12 -10 12 -5 0 -10 9 -10 20 0 11 -4 20 -10 20 -5 0 -10 18 -10 40 0 22 -4
40 -10 40 -6 0 -10 51 -10 134 0 79 4 137 10 141 6 3 10 22 10 41 0 19 5 34
10 34 6 0 10 9 10 20 0 11 5 20 10 20 6 0 10 8 10 18 0 24 73 92 99 92 11 0
23 5 26 10 4 6 58 10 130 10 72 0 126 -4 130 -10 3 -5 16 -10 29 -10 37 0 126
-105 126 -149 0 -11 5 -23 10 -26 6 -3 10 -17 10 -31 0 -13 5 -24 10 -24 6 0
10 -28 10 -64 0 -36 5 -68 10 -71 6 -3 10 -44 10 -91 l0 -84 423 2 422 3 3
113 c2 72 -1 112 -8 112 -6 0 -10 29 -10 70 0 40 -4 70 -10 70 -5 0 -10 20
-10 44 0 25 -4 48 -10 51 -5 3 -10 21 -10 40 0 19 -4 37 -10 40 -5 3 -10 22
-10 41 0 19 -4 34 -10 34 -5 0 -10 14 -10 30 0 17 -4 30 -10 30 -5 0 -10 9
-10 20 0 11 -4 20 -10 20 -5 0 -10 8 -10 18 0 20 -38 101 -61 128 -15 18 -33
48 -48 79 -5 11 -25 36 -45 54 -20 19 -36 40 -36 46 0 14 -42 55 -56 55 -6 0
-28 18 -49 40 -21 22 -44 40 -51 40 -6 0 -17 7 -24 15 -7 8 -37 27 -69 42 -31
15 -57 31 -59 35 -2 4 -12 8 -23 8 -10 0 -19 5 -19 10 0 6 -9 10 -20 10 -11 0
-20 5 -20 10 0 6 -13 10 -30 10 -16 0 -30 5 -30 10 0 6 -15 10 -34 10 -19 0
-38 5 -41 10 -3 6 -26 10 -50 10 -24 0 -47 5 -50 10 -4 6 -95 10 -240 10 -145
0 -236 -4 -240 -10z m370 -160 c3 -5 40 -10 81 -10 43 0 74 -4 74 -10 0 -5 15
-10 34 -10 19 0 38 -4 41 -10 3 -5 14 -10 24 -10 10 0 45 -13 77 -29 32 -17
79 -39 104 -50 25 -11 65 -40 90 -65 24 -25 50 -46 57 -46 7 0 13 -7 13 -15 0
-8 18 -31 40 -51 22 -20 40 -41 40 -47 0 -6 7 -18 16 -28 24 -27 124 -231 118
-241 -3 -5 0 -16 7 -25 8 -8 12 -28 11 -44 -2 -16 1 -29 7 -29 6 0 11 -15 11
-34 0 -19 5 -38 10 -41 6 -3 10 -30 10 -60 0 -30 5 -57 10 -60 6 -3 10 -35 10
-71 l0 -64 -260 0 -260 0 0 54 c0 30 -4 58 -10 61 -5 3 -10 26 -10 51 0 24 -4
44 -10 44 -5 0 -10 14 -10 30 0 17 -4 30 -10 30 -5 0 -10 8 -10 18 0 35 -49
116 -107 174 -31 32 -63 58 -70 58 -7 0 -13 5 -13 10 0 6 -13 10 -30 10 -16 0
-30 5 -30 10 0 6 -13 10 -30 10 -16 0 -30 5 -30 10 0 6 -43 10 -109 10 -63 0
-112 -4 -116 -10 -3 -5 -21 -10 -40 -10 -19 0 -37 -4 -40 -10 -3 -5 -15 -10
-26 -10 -10 0 -29 -6 -42 -12 -32 -18 -147 -130 -147 -144 0 -6 -9 -19 -20
-29 -11 -10 -20 -28 -20 -41 0 -13 -4 -26 -10 -29 -5 -3 -10 -17 -10 -30 0
-13 -4 -27 -10 -30 -5 -3 -10 -31 -10 -61 0 -30 -4 -54 -10 -54 -6 0 -10 -36
-10 -89 0 -50 5 -93 10 -96 6 -3 10 -30 10 -60 0 -30 5 -57 10 -60 6 -3 10
-14 10 -25 0 -20 40 -103 53 -108 4 -2 7 -10 7 -17 0 -17 149 -172 182 -191
73 -40 285 -144 294 -144 16 0 64 -24 64 -32 0 -5 9 -8 20 -8 11 0 20 -4 20
-10 0 -5 9 -10 20 -10 11 0 20 -4 20 -10 0 -5 14 -10 30 -10 17 0 30 -4 30
-10 0 -5 9 -10 19 -10 11 0 21 -4 23 -8 2 -4 28 -20 58 -36 107 -55 141 -73
158 -90 10 -9 23 -16 28 -16 6 0 23 -13 39 -30 16 -16 33 -30 39 -30 14 0 216
-202 216 -216 0 -6 7 -17 15 -24 16 -13 75 -130 75 -148 0 -5 6 -15 14 -21 8
-7 12 -20 9 -30 -3 -10 0 -22 6 -25 6 -4 11 -18 11 -32 0 -13 5 -24 10 -24 6
0 10 -22 10 -50 0 -27 5 -50 10 -50 6 0 10 -24 10 -54 0 -30 5 -58 10 -61 6
-4 10 -93 10 -236 0 -146 -4 -229 -10 -229 -6 0 -10 -27 -10 -60 0 -33 -4 -60
-10 -60 -5 0 -10 -15 -10 -34 0 -19 -4 -38 -10 -41 -5 -3 -10 -19 -10 -35 0
-16 -9 -46 -20 -65 -11 -20 -18 -40 -15 -44 6 -10 -41 -105 -60 -121 -8 -7
-15 -19 -15 -26 0 -8 -9 -19 -20 -26 -11 -7 -20 -19 -20 -26 0 -14 -145 -162
-159 -162 -5 0 -15 -7 -22 -16 -7 -9 -22 -20 -34 -25 -11 -6 -42 -23 -70 -38
-27 -16 -58 -30 -67 -30 -10 -1 -33 -10 -53 -21 -20 -11 -49 -20 -65 -20 -16
0 -32 -5 -35 -10 -3 -6 -22 -10 -41 -10 -19 0 -34 -4 -34 -10 0 -6 -31 -10
-74 -10 -41 0 -78 -4 -81 -10 -4 -6 -60 -10 -135 -10 -75 0 -131 4 -135 10 -3
6 -35 10 -70 10 -35 0 -67 4 -70 10 -3 5 -26 10 -51 10 -24 0 -44 5 -44 10 0
6 -13 10 -30 10 -16 0 -30 5 -30 10 0 6 -8 10 -17 10 -10 0 -49 16 -88 36
-105 54 -114 59 -144 88 -15 14 -32 26 -37 26 -13 0 -86 75 -79 81 2 3 -9 18
-25 34 -17 16 -30 34 -30 40 0 7 -8 19 -18 28 -10 9 -24 32 -32 52 -8 19 -17
35 -22 35 -4 0 -8 9 -8 20 0 11 -4 20 -10 20 -5 0 -10 9 -10 20 0 11 -4 20
-10 20 -5 0 -10 14 -10 30 0 17 -4 30 -10 30 -5 0 -10 14 -10 30 0 17 -4 30
-10 30 -5 0 -10 15 -10 34 0 19 -4 38 -10 41 -5 3 -10 26 -10 50 0 24 -4 47
-10 50 -5 3 -10 40 -10 81 0 43 -4 74 -10 74 -5 0 -10 11 -10 25 l0 25 271 0
c314 0 304 3 297 -86 -3 -37 -1 -58 8 -65 8 -7 11 -22 8 -39 -4 -15 -1 -31 5
-34 6 -4 11 -15 11 -25 0 -25 50 -122 66 -128 8 -3 14 -12 14 -19 0 -46 195
-184 261 -184 15 0 31 -4 34 -10 8 -13 225 -13 225 0 0 6 18 10 40 10 22 0 40
5 40 10 0 6 9 10 20 10 11 0 20 3 20 8 0 4 15 13 33 21 49 21 125 100 155 161
14 30 30 57 34 58 4 2 8 21 8 43 0 21 5 39 10 39 6 0 10 23 10 50 0 28 5 50
10 50 6 0 10 62 10 165 0 103 -4 165 -10 165 -5 0 -10 15 -10 34 0 19 -4 38
-10 41 -5 3 -10 17 -10 30 0 13 -4 27 -10 30 -5 3 -10 14 -10 24 0 23 -26 75
-45 91 -8 7 -15 18 -15 24 0 14 -112 126 -126 126 -6 0 -21 12 -35 26 -13 14
-40 33 -59 41 -19 9 -43 23 -52 31 -22 18 -148 82 -163 82 -17 0 -65 24 -65
33 0 4 -9 7 -20 7 -11 0 -20 5 -20 10 0 6 -9 10 -20 10 -11 0 -20 4 -20 9 0 5
-15 12 -32 16 -41 8 -292 131 -309 151 -6 8 -17 14 -24 14 -6 0 -20 9 -30 20
-10 11 -23 20 -30 20 -6 0 -24 13 -40 30 -16 17 -33 30 -39 30 -14 0 -126 112
-126 125 0 7 -11 22 -25 35 -27 25 -115 195 -115 222 0 9 -4 20 -10 23 -5 3
-10 17 -10 31 0 13 -4 24 -10 24 -5 0 -10 23 -10 50 0 28 -4 50 -10 50 -6 0
-10 28 -10 64 0 36 -4 68 -10 71 -6 4 -10 70 -10 166 0 99 4 159 10 159 6 0
10 28 10 64 0 36 5 68 10 71 6 3 10 21 10 40 0 19 5 37 10 40 6 3 10 17 10 31
0 13 5 24 10 24 6 0 10 14 10 30 0 17 5 30 10 30 6 0 10 9 10 20 0 11 5 20 10
20 6 0 10 9 10 20 0 11 5 20 10 20 6 0 10 9 10 20 0 11 5 20 10 20 6 0 10 8
10 18 0 9 9 23 20 30 11 7 20 18 20 25 0 7 16 28 35 47 19 19 35 38 35 44 0
13 51 66 63 66 5 0 26 18 47 40 21 22 46 40 54 40 9 0 16 5 16 10 0 6 9 10 20
10 11 0 20 4 20 10 0 5 11 12 25 16 14 3 25 10 25 15 0 5 11 9 24 9 14 0 28 5
31 10 3 6 15 10 26 10 10 0 19 5 19 10 0 6 11 10 24 10 14 0 28 5 31 10 3 6
26 10 50 10 24 0 47 5 50 10 3 6 35 10 71 10 36 0 64 4 64 10 0 6 48 10 124
10 73 0 127 -4 131 -10z"/>
<path d="M775 5158 c-3 -7 -4 -992 -3 -2188 l3 -2175 699 -3 c460 -1 703 1
710 8 5 5 43 10 83 10 42 0 73 4 73 10 0 6 20 10 44 10 25 0 48 5 51 10 3 6
21 10 40 10 19 0 37 4 40 10 3 5 17 10 30 10 13 0 27 4 30 10 3 5 17 10 31 10
13 0 24 5 24 10 0 6 9 10 20 10 11 0 20 5 20 10 0 6 9 10 20 10 11 0 20 5 20
10 0 6 9 10 20 10 11 0 20 5 20 10 0 6 6 10 14 10 7 0 20 7 27 16 7 9 21 19
30 23 24 8 179 161 179 175 0 6 9 18 20 26 11 8 20 22 20 32 0 10 5 18 10 18
6 0 10 9 10 20 0 11 5 20 10 20 6 0 10 9 10 20 0 11 4 20 10 20 5 0 12 16 16
35 3 19 10 35 15 35 5 0 9 11 9 24 0 14 5 28 10 31 5 3 10 21 10 40 0 19 5 37
10 40 5 3 10 21 10 40 0 19 4 37 10 40 6 3 10 26 10 51 0 24 5 44 10 44 6 0
10 31 10 74 0 41 4 78 10 81 14 8 14 422 0 430 -5 3 -10 44 -10 91 0 49 -4 84
-10 84 -5 0 -10 20 -10 44 0 25 -4 48 -10 51 -5 3 -10 21 -10 40 0 19 -4 37
-10 40 -6 3 -10 15 -10 25 0 11 -9 35 -20 55 -11 19 -19 39 -18 43 5 16 -22
73 -37 78 -8 3 -15 12 -15 20 0 19 -182 201 -206 207 -18 4 -18 4 1 12 26 10
185 166 185 181 0 6 7 18 16 25 14 12 29 39 33 61 1 5 10 24 21 43 11 20 20
44 20 55 0 11 5 20 10 20 6 0 10 14 10 30 0 17 5 30 10 30 6 0 10 15 10 34 0
19 5 38 10 41 6 3 10 26 10 50 0 24 5 47 10 50 6 4 10 100 10 256 0 159 -4
249 -10 249 -5 0 -10 24 -10 54 0 30 -4 58 -10 61 -6 3 -10 26 -10 50 0 24 -4
47 -10 50 -6 3 -10 17 -10 30 0 13 -4 27 -10 30 -5 3 -10 17 -10 30 0 13 -5
27 -10 30 -6 4 -9 12 -8 18 4 16 -34 107 -44 107 -4 0 -8 8 -8 18 0 10 -9 24
-20 32 -11 8 -20 21 -20 28 0 8 -13 27 -30 42 -17 15 -30 33 -30 39 0 16 -67
81 -83 81 -7 0 -24 11 -37 25 -13 14 -28 25 -35 25 -6 0 -17 9 -25 20 -8 11
-22 20 -32 20 -10 0 -18 5 -18 10 0 6 -9 10 -20 10 -11 0 -20 5 -20 10 0 6
-13 10 -30 10 -16 0 -30 3 -30 8 0 10 -50 32 -71 32 -10 0 -21 5 -24 10 -3 6
-21 10 -40 10 -19 0 -37 5 -40 10 -3 6 -26 10 -51 10 -24 0 -44 5 -44 10 0 6
-31 10 -74 10 -41 0 -78 5 -81 10 -10 16 -1424 14 -1430 -2z m1490 -178 c3 -5
30 -10 60 -10 30 0 57 -5 60 -10 4 -6 12 -10 18 -8 25 4 127 -14 127 -23 0 -5
9 -9 20 -9 11 0 20 -4 20 -10 0 -5 8 -10 18 -10 24 0 76 -26 92 -45 7 -8 18
-15 24 -15 7 0 23 -12 37 -26 13 -14 34 -30 47 -35 12 -5 26 -19 31 -31 5 -13
21 -34 35 -47 14 -14 26 -30 26 -36 0 -7 9 -20 20 -30 11 -10 20 -24 20 -32 0
-7 5 -13 10 -13 6 0 10 -9 10 -20 0 -11 5 -20 10 -20 6 0 10 -13 10 -30 0 -16
5 -30 10 -30 6 0 10 -13 10 -30 0 -16 5 -30 10 -30 6 0 10 -15 10 -34 0 -19 5
-38 10 -41 6 -3 10 -26 10 -50 0 -24 5 -47 10 -50 6 -3 10 -46 10 -95 0 -49 5
-92 10 -95 6 -3 10 -46 10 -95 0 -49 -4 -92 -10 -95 -5 -3 -10 -44 -10 -91 0
-49 -4 -84 -10 -84 -5 0 -10 -22 -10 -50 0 -27 -4 -50 -10 -50 -5 0 -10 -11
-10 -24 0 -14 -4 -28 -10 -31 -5 -3 -10 -14 -10 -24 0 -22 -47 -116 -65 -131
-8 -7 -15 -17 -15 -23 0 -15 -121 -137 -136 -137 -6 0 -17 -7 -24 -15 -11 -14
-50 -34 -192 -98 -26 -12 -46 -26 -44 -32 1 -5 20 -19 42 -30 21 -11 41 -23
42 -27 2 -5 17 -8 33 -8 16 0 29 -4 29 -10 0 -5 9 -10 20 -10 11 0 20 -4 20
-10 0 -5 7 -10 16 -10 9 0 24 -8 33 -18 9 -11 21 -21 28 -23 19 -7 153 -140
153 -153 0 -6 9 -18 20 -26 12 -8 20 -26 20 -42 0 -15 5 -28 10 -28 6 0 10 -9
10 -20 0 -11 5 -20 10 -20 6 0 10 -13 10 -30 0 -16 5 -30 10 -30 6 0 10 -20
10 -44 0 -25 5 -48 10 -51 6 -3 10 -30 10 -60 0 -30 5 -57 10 -60 6 -4 10
-107 10 -275 0 -168 -4 -271 -10 -275 -6 -3 -10 -35 -10 -70 0 -35 -4 -67 -10
-70 -6 -3 -10 -22 -10 -41 0 -19 -4 -34 -10 -34 -5 0 -10 -18 -10 -40 0 -22
-4 -40 -10 -40 -5 0 -10 -13 -10 -30 0 -16 -4 -30 -10 -30 -5 0 -10 -9 -10
-19 0 -11 -4 -21 -8 -23 -4 -1 -20 -28 -35 -59 -15 -32 -34 -62 -42 -69 -8 -7
-15 -17 -15 -23 0 -15 -121 -137 -136 -137 -6 0 -17 -7 -24 -15 -17 -21 -141
-80 -162 -77 -9 2 -19 -2 -23 -8 -3 -5 -17 -10 -31 -10 -13 0 -24 -4 -24 -10
0 -5 -15 -10 -34 -10 -19 0 -38 -4 -41 -10 -3 -5 -35 -10 -70 -10 -35 0 -67
-4 -70 -10 -4 -6 -232 -10 -651 -10 l-644 0 0 2010 0 2010 654 0 c426 0 657
-3 661 -10z"/>
<path d="M1510 3912 c0 -436 3 -581 12 -590 15 -15 508 -17 508 -2 0 6 23 10
50 10 28 0 50 5 50 10 0 6 11 10 24 10 14 0 28 5 31 10 3 6 16 10 29 10 13 0
31 9 41 20 10 11 23 20 30 20 14 0 75 62 75 76 0 6 9 19 20 29 11 10 20 24 20
32 0 7 5 13 10 13 6 0 10 14 10 30 0 17 5 30 10 30 6 0 10 14 10 30 0 17 5 30
10 30 6 0 10 35 10 84 0 47 5 88 10 91 6 3 10 28 10 55 0 27 -4 52 -10 55 -5
3 -10 40 -10 81 0 43 -4 74 -10 74 -5 0 -10 18 -10 40 0 22 -4 40 -10 40 -5 0
-10 9 -10 20 0 11 -3 20 -8 20 -4 0 -13 15 -21 33 -17 39 -115 142 -155 162
-16 8 -37 15 -47 15 -10 0 -21 5 -24 10 -3 6 -22 10 -41 10 -19 0 -34 5 -34
10 0 6 -103 10 -290 10 l-290 0 0 -578z m475 418 c3 -5 30 -10 60 -10 30 0 57
-4 60 -10 3 -5 16 -10 29 -10 50 0 146 -138 146 -211 0 -21 5 -41 10 -44 6 -4
10 -60 10 -135 0 -75 -4 -131 -10 -135 -5 -3 -10 -26 -10 -50 0 -24 -4 -47
-10 -50 -5 -3 -10 -14 -10 -24 0 -23 -26 -75 -46 -92 -24 -20 -106 -59 -124
-59 -9 0 -21 -5 -26 -10 -7 -7 -79 -9 -195 -8 l-184 3 -3 415 c-1 228 0 421 3
427 6 16 290 19 300 3z"/>
<path d="M1517 2823 c-4 -3 -7 -309 -7 -680 l0 -673 280 0 c180 0 280 4 280
10 0 6 15 10 34 10 19 0 38 5 41 10 3 6 14 10 24 10 32 0 116 49 159 93 49 50
112 167 112 209 0 15 5 28 10 28 6 0 10 23 10 50 0 28 5 50 10 50 6 0 10 75
10 204 0 126 -4 207 -10 211 -5 3 -10 26 -10 50 0 24 -4 47 -10 50 -5 3 -10
14 -10 24 0 28 -62 143 -92 173 -16 14 -28 33 -28 42 0 9 -6 16 -13 16 -8 0
-24 11 -37 25 -27 29 -75 55 -101 55 -10 0 -21 5 -24 10 -3 6 -17 10 -30 10
-13 0 -27 5 -30 10 -7 11 -557 14 -568 3z m478 -163 c3 -5 26 -10 51 -10 24 0
44 -4 44 -10 0 -5 9 -10 20 -10 11 0 20 -4 20 -10 0 -5 7 -10 15 -10 20 0 95
-76 95 -95 0 -8 5 -15 10 -15 6 0 10 -9 10 -20 0 -11 5 -20 10 -20 6 0 10 -15
10 -34 0 -19 5 -38 10 -41 6 -3 10 -48 10 -101 0 -56 4 -94 10 -94 6 0 10 -18
10 -40 0 -22 -4 -40 -10 -40 -6 0 -10 -41 -10 -104 0 -59 -4 -108 -10 -111 -5
-3 -10 -17 -10 -30 0 -13 -4 -27 -10 -30 -5 -3 -10 -15 -10 -26 0 -24 -17 -55
-50 -92 -39 -44 -97 -65 -188 -69 -24 -1 -45 -5 -48 -10 -3 -4 -70 -8 -150 -8
l-144 0 0 520 0 520 154 0 c93 0 157 -4 161 -10z"/>
<path d="M3553 5155 c-10 -11 -13 -461 -13 -2176 0 -2047 1 -2162 18 -2175 14
-11 282 -13 1493 -14 1417 0 1477 1 1492 18 10 11 17 36 17 60 0 23 5 42 10
42 6 0 10 23 10 50 0 28 5 50 10 50 6 0 10 20 10 44 0 25 5 48 10 51 6 3 10
21 10 40 0 19 4 36 10 40 5 3 8 22 6 43 -2 20 1 43 7 50 6 8 10 32 8 53 -1 23
2 39 8 39 6 0 11 19 11 44 0 25 5 48 10 51 6 3 10 23 10 44 0 21 7 52 16 69
l15 32 420 0 419 0 0 -30 c0 -16 5 -30 10 -30 6 0 10 -20 10 -44 0 -25 5 -48
10 -51 6 -3 10 -26 10 -50 0 -24 5 -47 10 -50 6 -3 10 -22 10 -41 0 -19 5 -34
10 -34 6 0 10 -22 10 -50 0 -27 5 -50 10 -50 6 0 10 -20 10 -44 0 -25 5 -48
10 -51 6 -3 10 -26 10 -50 0 -24 5 -47 10 -50 6 -3 10 -26 10 -51 0 -24 5 -44
10 -44 6 0 10 -16 10 -36 0 -67 -21 -64 494 -64 462 0 498 2 467 33 -6 6 -11
26 -11 43 0 18 -4 36 -10 39 -5 3 -10 21 -10 40 0 19 -4 37 -10 40 -5 3 -10
17 -10 30 0 13 -4 27 -10 30 -5 3 -10 22 -10 41 0 19 -4 34 -10 34 -5 0 -10
18 -10 40 0 22 -4 40 -10 40 -5 0 -10 18 -10 40 0 22 -4 40 -10 40 -5 0 -10
15 -10 34 0 19 -4 38 -10 41 -5 3 -10 21 -10 40 0 19 -4 37 -10 40 -5 3 -10
22 -10 41 0 19 -4 34 -10 34 -5 0 -10 18 -10 40 0 22 -4 40 -10 40 -5 0 -10
15 -10 34 0 19 -4 38 -10 41 -5 3 -10 21 -10 40 0 19 -4 37 -10 40 -5 3 -10
21 -10 40 0 19 -5 37 -11 41 -6 3 -9 19 -5 34 3 18 0 33 -8 39 -8 7 -12 20 -9
30 3 10 0 22 -6 25 -6 4 -11 23 -11 42 0 19 -4 34 -10 34 -5 0 -10 15 -10 34
0 19 -4 38 -10 41 -5 3 -10 21 -10 40 0 19 -4 37 -10 40 -5 3 -10 21 -10 40 0
19 -4 37 -10 40 -5 3 -10 22 -10 41 0 19 -4 34 -10 34 -5 0 -10 18 -10 40 0
22 -4 40 -10 40 -5 0 -10 15 -10 34 0 19 -4 38 -10 41 -5 3 -10 21 -10 40 0
19 -4 37 -10 40 -5 3 -10 21 -10 40 0 19 -4 37 -10 40 -5 3 -10 22 -10 41 0
19 -4 34 -10 34 -5 0 -10 18 -10 40 0 22 -4 40 -10 40 -5 0 -10 15 -10 34 0
19 -4 38 -10 41 -5 3 -10 17 -10 30 0 13 -5 27 -11 31 -6 3 -9 19 -5 34 3 17
0 32 -8 39 -7 6 -11 23 -8 40 2 16 -1 32 -7 35 -6 4 -11 23 -11 42 0 19 -4 34
-10 34 -5 0 -10 18 -10 40 0 22 -4 40 -10 40 -5 0 -10 15 -10 34 0 19 -4 38
-10 41 -5 3 -10 21 -10 40 0 19 -4 37 -10 40 -5 3 -10 21 -10 40 0 19 -4 37
-10 40 -5 3 -10 22 -10 41 0 19 -4 34 -10 34 -5 0 -10 18 -10 40 0 22 -4 40
-10 40 -5 0 -10 15 -10 34 0 19 -4 38 -10 41 -5 3 -10 21 -10 40 0 19 -4 37
-10 40 -5 3 -10 21 -10 40 0 19 -4 37 -10 40 -5 3 -10 17 -10 31 0 13 -4 24
-10 24 -5 0 -10 18 -10 40 0 22 -4 40 -10 40 -5 0 -10 15 -10 34 0 19 -5 38
-11 41 -6 4 -9 19 -7 35 1 15 -3 34 -9 42 -7 8 -10 26 -8 40 3 15 1 30 -5 33
-5 3 -10 21 -10 40 0 19 -4 37 -10 40 -5 3 -10 22 -10 41 0 19 -4 34 -10 34
-5 0 -10 18 -10 40 0 22 -4 40 -10 40 -5 0 -10 15 -10 34 0 19 -4 38 -10 41
-5 3 -10 21 -10 40 0 19 -4 37 -10 40 -5 3 -10 21 -10 40 0 19 -4 37 -10 40
-5 3 -10 22 -10 41 0 19 -4 34 -10 34 -5 0 -10 14 -10 30 0 17 -4 30 -10 30
-5 0 -10 15 -10 34 0 19 -4 38 -10 41 -5 3 -10 21 -10 40 0 19 -4 37 -10 40
-5 3 -10 21 -10 40 0 19 -4 37 -10 40 -5 3 -10 21 -10 39 0 17 -5 37 -12 44
-9 9 -118 12 -429 12 l-418 0 -15 -32 c-9 -17 -16 -44 -16 -60 0 -15 -4 -28
-10 -28 -5 0 -10 -13 -10 -30 0 -16 -5 -30 -11 -30 -7 0 -10 -12 -7 -30 3 -18
-1 -35 -8 -41 -8 -7 -11 -22 -8 -39 4 -15 1 -31 -5 -34 -6 -4 -11 -22 -11 -41
0 -19 -4 -37 -10 -40 -5 -3 -10 -21 -10 -40 0 -19 -4 -37 -10 -40 -5 -3 -10
-22 -10 -41 0 -19 -4 -34 -10 -34 -5 0 -10 -18 -10 -40 0 -22 -4 -40 -10 -40
-5 0 -10 -18 -10 -40 0 -22 -4 -40 -10 -40 -5 0 -10 -15 -10 -34 0 -19 -4 -38
-10 -41 -5 -3 -10 -21 -10 -40 0 -19 -4 -37 -10 -40 -5 -3 -10 -17 -10 -31 0
-13 -4 -24 -10 -24 -5 0 -10 -18 -10 -40 0 -22 -4 -40 -10 -40 -5 0 -10 -18
-10 -40 0 -22 -4 -40 -10 -40 -5 0 -10 -15 -10 -34 0 -19 -4 -38 -10 -41 -5
-3 -10 -21 -10 -40 0 -19 -4 -37 -10 -40 -5 -3 -10 -21 -10 -40 0 -19 -5 -37
-10 -40 -6 -4 -9 -19 -8 -35 1 -15 -4 -35 -11 -44 -7 -9 -10 -23 -7 -32 4 -9
1 -23 -6 -31 -7 -8 -11 -28 -10 -43 1 -16 -2 -31 -8 -35 -5 -3 -10 -21 -10
-40 0 -19 -4 -37 -10 -40 -5 -3 -10 -17 -10 -30 0 -13 -4 -27 -10 -30 -5 -3
-10 -22 -10 -41 0 -19 -4 -34 -10 -34 -5 0 -10 -18 -10 -40 0 -22 -4 -40 -10
-40 -5 0 -10 -18 -10 -40 0 -22 -4 -40 -10 -40 -5 0 -10 -15 -10 -34 0 -19 -4
-38 -10 -41 -5 -3 -10 -21 -10 -40 0 -19 -4 -37 -10 -40 -5 -3 -10 -22 -10
-41 0 -19 -4 -34 -10 -34 -5 0 -10 -18 -10 -40 0 -22 -4 -40 -10 -40 -5 0 -10
-15 -10 -34 0 -19 -4 -38 -10 -41 -5 -3 -10 -17 -10 -30 0 -13 -4 -27 -10 -30
-5 -3 -10 -21 -10 -40 0 -19 -4 -37 -10 -40 -5 -3 -10 -21 -10 -40 0 -19 -5
-37 -11 -41 -6 -3 -9 -19 -5 -34 3 -17 0 -32 -8 -39 -7 -6 -11 -23 -8 -41 3
-18 0 -30 -7 -30 -6 0 -11 -15 -11 -34 0 -19 -4 -38 -10 -41 -5 -3 -10 -21
-10 -40 0 -19 -4 -37 -10 -40 -5 -3 -10 -21 -10 -40 0 -19 -4 -37 -10 -40 -5
-3 -10 -22 -10 -41 0 -19 -4 -34 -10 -34 -5 0 -10 -18 -10 -40 0 -22 -4 -40
-10 -40 -5 0 -10 -13 -10 -30 0 -16 -4 -30 -10 -30 -5 0 -10 -15 -10 -34 0
-19 -4 -38 -10 -41 -5 -3 -10 -21 -10 -40 0 -19 -4 -37 -10 -40 -5 -3 -10 -22
-10 -41 0 -19 -4 -34 -10 -34 -5 0 -10 -18 -10 -40 0 -22 -4 -40 -10 -40 -5 0
-10 -15 -10 -34 0 -19 -4 -38 -10 -41 -6 -3 -10 -21 -10 -40 0 -19 -4 -37 -10
-40 -5 -3 -10 -21 -10 -40 0 -19 -5 -37 -11 -41 -6 -3 -9 -19 -5 -34 3 -17 0
-32 -8 -39 -7 -6 -11 -23 -8 -39 2 -17 -2 -33 -11 -40 -8 -7 -13 -22 -10 -32
3 -11 0 -20 -6 -20 -6 0 -11 -15 -11 -34 0 -19 -4 -38 -10 -41 -6 -3 -10 -21
-10 -40 0 -19 -4 -37 -10 -40 -5 -3 -10 -21 -10 -40 0 -19 -4 -37 -10 -40 -5
-3 -10 -22 -10 -41 0 -19 -4 -34 -10 -34 -5 0 -10 -18 -10 -40 0 -22 -4 -40
-10 -40 -5 0 -10 -18 -10 -40 0 -22 -4 -40 -10 -40 -6 0 -11 144 -12 398 l-3
397 -557 3 -558 2 0 480 0 480 468 0 c442 0 470 1 485 18 15 17 17 60 17 414
0 373 -1 396 -19 412 -10 9 -22 16 -27 15 -5 -1 -215 -1 -467 0 l-457 1 2 433
3 432 558 3 557 2 0 425 0 425 -1012 0 c-862 -1 -1015 -3 -1025 -15z m1865
-412 l-3 -248 -560 -5 -560 -5 0 -605 0 -605 483 -3 482 -2 0 -250 0 -250
-482 -2 -483 -3 0 -645 0 -645 563 -3 562 -2 0 -250 0 -250 -855 0 -855 0 0
2010 0 2010 855 0 855 0 -2 -247z m2032 223 c0 -14 5 -28 10 -31 6 -3 10 -21
10 -40 0 -19 5 -37 10 -40 6 -3 10 -21 10 -40 0 -19 5 -37 10 -40 6 -4 9 -19
8 -35 -1 -15 4 -35 11 -44 7 -9 11 -24 9 -34 -3 -10 1 -27 8 -36 7 -10 10 -24
8 -31 -3 -7 -1 -16 5 -20 6 -3 11 -21 11 -40 0 -19 5 -37 10 -40 6 -3 10 -21
10 -40 0 -19 5 -37 10 -40 6 -3 10 -21 10 -40 0 -19 5 -37 10 -40 6 -3 10 -22
10 -41 0 -19 5 -34 10 -34 6 0 10 -18 10 -40 0 -22 5 -40 10 -40 6 0 10 -15
10 -34 0 -19 5 -38 10 -41 6 -3 10 -21 10 -40 0 -19 5 -37 10 -40 6 -3 10 -22
10 -41 0 -19 5 -34 10 -34 6 0 10 -18 10 -40 0 -22 5 -40 10 -40 6 0 10 -18
10 -40 0 -22 5 -40 10 -40 6 0 10 -15 10 -34 0 -19 5 -38 10 -41 6 -3 10 -21
10 -40 0 -19 5 -37 10 -40 6 -3 10 -17 10 -30 0 -13 5 -27 11 -31 6 -3 9 -19
5 -34 -3 -17 0 -32 8 -39 7 -6 11 -23 8 -41 -3 -18 0 -30 7 -30 6 0 11 -17 11
-40 0 -22 5 -40 10 -40 6 0 10 -15 10 -34 0 -19 5 -38 10 -41 6 -3 10 -21 10
-40 0 -19 5 -37 10 -40 6 -3 10 -21 10 -40 0 -19 5 -37 10 -40 6 -3 10 -22 10
-41 0 -19 5 -34 10 -34 6 0 10 -18 10 -40 0 -22 5 -40 10 -40 6 0 10 -15 10
-34 0 -19 5 -38 10 -41 6 -3 10 -21 10 -40 0 -19 5 -37 10 -40 6 -3 10 -22 10
-41 0 -19 5 -34 10 -34 6 0 10 -13 10 -30 0 -16 5 -30 10 -30 6 0 10 -18 10
-40 0 -22 5 -40 10 -40 6 0 10 -15 10 -34 0 -19 5 -38 10 -41 6 -3 10 -21 10
-40 0 -19 5 -37 11 -41 6 -3 9 -19 5 -34 -3 -17 0 -32 8 -39 7 -6 11 -23 8
-40 -2 -16 1 -32 7 -35 6 -4 11 -23 11 -42 0 -19 5 -34 10 -34 6 0 10 -18 10
-40 0 -22 5 -40 10 -40 6 0 10 -15 10 -34 0 -19 5 -38 10 -41 6 -3 10 -21 10
-40 0 -19 5 -37 10 -40 6 -3 10 -22 10 -41 0 -19 5 -34 10 -34 6 0 10 -18 10
-40 0 -22 5 -40 10 -40 6 0 10 -18 10 -40 0 -22 5 -40 10 -40 6 0 10 -11 10
-24 0 -14 5 -28 10 -31 6 -3 10 -21 10 -40 0 -19 5 -37 10 -40 6 -3 10 -21 10
-40 0 -19 5 -37 10 -40 6 -3 10 -22 10 -41 0 -19 5 -34 10 -34 6 0 10 -18 10
-40 0 -22 5 -40 10 -40 6 0 10 -15 10 -34 0 -19 5 -38 11 -41 6 -4 9 -19 7
-35 -1 -15 3 -34 10 -42 6 -8 9 -25 7 -38 -2 -13 1 -30 7 -38 7 -8 11 -27 10
-42 -2 -16 1 -31 7 -35 6 -3 11 -22 11 -41 0 -19 5 -34 10 -34 6 0 10 -4 10
-10 0 -6 -110 -10 -310 -10 l-310 0 0 44 c0 25 -5 48 -11 51 -6 4 -9 24 -8 45
2 21 -2 44 -9 52 -6 8 -9 26 -7 40 3 15 1 30 -5 33 -5 3 -10 26 -10 50 0 24
-4 47 -10 50 -5 3 -10 26 -10 51 0 24 -4 44 -10 44 -5 0 -10 20 -10 44 0 25
-4 48 -10 51 -5 3 -10 26 -10 50 0 24 -4 47 -10 50 -5 3 -10 22 -10 41 0 19
-4 34 -10 34 -5 0 -10 18 -10 40 l0 40 -560 0 -560 0 0 -24 c0 -14 -4 -28 -10
-31 -5 -3 -10 -26 -10 -50 0 -24 -4 -47 -10 -50 -5 -3 -10 -26 -10 -51 0 -24
-4 -44 -10 -44 -5 0 -10 -18 -10 -40 0 -22 -4 -40 -10 -40 -5 0 -10 -20 -10
-44 0 -25 -4 -48 -10 -51 -5 -3 -10 -26 -10 -51 0 -24 -4 -44 -10 -44 -5 0
-10 -22 -10 -50 0 -27 -4 -50 -10 -50 -5 0 -10 -20 -10 -44 0 -25 -4 -48 -10
-51 -5 -3 -10 -21 -10 -39 0 -17 -5 -37 -12 -44 -9 -9 -92 -12 -310 -12 -253
0 -298 2 -298 14 0 8 5 18 10 21 6 3 10 22 10 41 0 19 5 34 10 34 6 0 10 14
10 30 0 17 5 30 10 30 6 0 10 18 10 40 0 22 5 40 10 40 6 0 10 15 10 34 0 19
5 38 10 41 6 3 10 21 10 40 0 19 5 37 10 40 6 3 10 22 10 41 0 19 5 34 10 34
6 0 10 18 10 40 0 22 5 40 10 40 6 0 10 18 10 40 0 22 5 40 10 40 6 0 10 15
10 34 0 19 5 38 10 41 6 3 10 21 10 40 0 19 5 37 10 40 6 3 10 21 10 40 0 19
5 37 11 40 5 4 8 12 6 18 -2 7 0 21 6 32 6 11 10 32 8 47 -1 16 2 28 8 28 6 0
11 15 11 34 0 19 5 38 10 41 6 3 10 21 10 40 0 19 5 37 10 40 6 3 10 21 10 40
0 19 5 37 10 40 6 3 10 21 10 40 0 19 5 37 10 40 6 3 10 22 10 41 0 19 5 34
10 34 6 0 10 18 10 40 0 22 5 40 10 40 6 0 10 15 10 34 0 19 5 38 10 41 6 3
10 21 10 40 0 19 5 37 10 40 6 3 10 17 10 30 0 13 5 27 10 30 6 3 10 22 10 41
0 19 5 34 10 34 6 0 10 18 10 40 0 22 5 40 10 40 6 0 10 15 10 34 0 19 5 38
10 41 6 3 10 21 10 40 0 19 5 37 11 40 6 4 9 19 7 35 -1 15 3 34 10 42 6 8 9
25 7 38 -2 13 1 30 7 38 7 8 11 27 10 43 -2 16 1 29 7 29 6 0 11 15 11 34 0
19 5 38 10 41 6 3 10 21 10 40 0 19 5 37 10 40 6 3 10 17 10 30 0 13 5 27 10
30 6 3 10 21 10 40 0 19 5 37 10 40 6 3 10 22 10 41 0 19 5 34 10 34 6 0 10
18 10 40 0 22 5 40 10 40 6 0 10 15 10 34 0 19 5 38 10 41 6 3 10 21 10 40 0
19 5 37 10 40 6 3 10 21 10 40 0 19 5 37 10 40 6 3 10 22 10 41 0 19 5 34 10
34 6 0 10 18 10 40 0 22 5 40 10 40 6 0 10 15 10 34 0 19 5 38 11 42 6 3 9 15
6 25 -3 10 1 23 9 30 8 7 12 22 9 37 -2 14 1 32 8 40 6 8 10 27 9 42 -2 16 1
31 7 35 6 3 11 22 11 41 0 19 5 34 10 34 6 0 10 18 10 40 0 22 5 40 10 40 6 0
10 15 10 34 0 19 5 38 10 41 6 3 10 21 10 40 0 19 5 37 10 40 6 3 10 22 10 41
0 19 5 34 10 34 6 0 10 18 10 40 0 22 5 40 10 40 6 0 10 14 10 30 0 17 5 30
10 30 6 0 10 15 10 34 0 19 5 38 10 41 6 3 10 22 10 41 l0 34 310 0 310 0 0
-24z"/>
<path d="M7120 4386 c0 -25 -4 -48 -10 -51 -5 -3 -10 -26 -10 -51 0 -24 -4
-44 -10 -44 -5 0 -10 -22 -10 -50 0 -27 -4 -50 -10 -50 -5 0 -10 -20 -10 -44
0 -25 -4 -48 -10 -51 -5 -3 -10 -26 -10 -50 0 -24 -4 -47 -10 -50 -5 -3 -10
-22 -10 -41 0 -19 -4 -34 -10 -34 -5 0 -10 -22 -10 -50 0 -27 -4 -50 -10 -50
-5 0 -10 -20 -10 -44 0 -25 -4 -48 -10 -51 -5 -3 -10 -26 -10 -50 0 -24 -5
-47 -10 -50 -6 -4 -10 -23 -9 -44 2 -20 -1 -43 -6 -51 -5 -8 -8 -27 -6 -42 1
-16 -2 -28 -8 -28 -6 0 -11 -19 -11 -44 0 -25 -4 -48 -10 -51 -5 -3 -10 -26
-10 -50 0 -24 -4 -47 -10 -50 -5 -3 -10 -26 -10 -51 0 -24 -4 -44 -10 -44 -5
0 -10 -22 -10 -50 0 -27 -4 -50 -10 -50 -5 0 -10 -20 -10 -44 0 -25 -4 -48
-10 -51 -5 -3 -10 -21 -10 -40 0 -19 -4 -37 -10 -40 -5 -3 -10 -26 -10 -51 0
-24 -4 -44 -10 -44 -5 0 -10 -22 -10 -50 0 -27 -4 -50 -10 -50 -5 0 -10 -20
-10 -44 0 -25 -4 -48 -10 -51 -5 -3 -10 -26 -10 -50 0 -24 -4 -47 -10 -50 -5
-3 -10 -26 -10 -51 0 -24 -5 -44 -11 -44 -6 0 -9 -16 -7 -37 l3 -38 443 -3
442 -2 0 49 c0 28 -4 53 -10 56 -5 3 -10 26 -10 50 0 24 -5 47 -11 50 -6 4 -9
22 -8 40 2 18 -2 39 -7 46 -6 8 -10 30 -8 49 1 19 -3 41 -9 48 -6 8 -10 31 -8
52 1 21 -2 41 -8 45 -6 3 -11 26 -11 50 0 24 -4 47 -10 50 -5 3 -10 22 -10 41
0 19 -4 34 -10 34 -5 0 -10 20 -10 44 0 25 -4 48 -10 51 -5 3 -10 26 -10 50 0
24 -4 47 -10 50 -5 3 -10 26 -10 51 0 24 -4 44 -10 44 -5 0 -10 23 -10 50 0
28 -4 50 -10 50 -5 0 -10 15 -10 34 0 19 -4 38 -10 41 -5 3 -10 26 -10 50 0
24 -4 47 -10 50 -5 3 -10 26 -10 51 0 24 -4 44 -10 44 -5 0 -10 23 -10 50 0
28 -4 50 -10 50 -5 0 -10 20 -10 44 0 25 -4 48 -10 51 -5 3 -10 26 -10 50 0
24 -4 47 -10 50 -5 3 -10 21 -10 40 0 19 -4 36 -9 39 -5 4 -8 21 -7 39 1 17
-3 38 -8 45 -5 8 -9 31 -8 52 2 21 -2 41 -8 45 -5 3 -10 26 -10 50 0 24 -4 47
-10 50 -5 3 -10 26 -10 50 0 24 -4 47 -10 50 -5 3 -10 22 -10 41 0 27 -4 34
-20 34 -17 0 -20 -7 -20 -44z m40 -806 c0 -22 5 -40 10 -40 6 0 10 -20 10 -44
0 -25 5 -48 10 -51 6 -3 10 -26 10 -50 0 -24 5 -47 11 -51 7 -4 9 -22 6 -45
-3 -25 0 -42 8 -49 9 -7 12 -25 9 -50 -2 -21 0 -41 6 -45 5 -3 10 -24 10 -45
0 -21 5 -42 10 -45 6 -3 10 -21 10 -40 0 -19 5 -37 10 -40 6 -3 10 -26 10 -50
0 -24 5 -47 10 -50 6 -3 10 -26 10 -51 0 -24 5 -44 10 -44 6 0 10 -22 10 -50
0 -27 5 -50 10 -50 6 0 10 -20 10 -44 0 -25 5 -48 10 -51 6 -3 10 -26 10 -50
0 -24 5 -47 10 -50 6 -3 10 -13 10 -21 0 -12 -39 -14 -250 -14 -230 0 -273 5
-240 25 6 3 10 24 10 45 0 21 5 42 11 45 6 4 9 25 8 46 -2 21 2 44 8 50 6 6 9
27 6 49 -3 22 -1 40 6 44 6 4 11 27 11 52 0 24 5 44 10 44 6 0 10 23 10 50 0
28 5 50 10 50 6 0 10 15 10 34 0 19 5 38 10 41 6 3 10 26 10 50 0 24 5 47 10
50 6 3 10 26 10 51 0 24 5 44 10 44 6 0 10 23 10 50 0 28 5 50 10 50 6 0 10
20 10 44 0 25 5 48 10 51 6 3 10 26 10 50 0 24 5 47 10 50 6 3 10 21 10 39 0
30 15 56 32 56 4 0 8 -18 8 -40z"/>
<path d="M8300 4745 l0 -425 355 0 c277 0 355 -3 355 -12 0 -7 0 -793 0 -1747
0 -1602 1 -1736 16 -1753 16 -17 43 -18 451 -18 363 0 437 2 449 14 12 12 14
265 16 1763 l3 1748 346 3 c277 2 349 5 358 16 8 9 10 131 9 422 l-3 409
-1177 3 -1178 2 0 -425z m2181 -5 l0 -245 -355 -3 -356 -2 0 -1760 0 -1760
-290 0 -290 0 0 1760 0 1760 -367 2 -368 3 -3 248 -2 247 1015 -2 1015 -3 1
-245z"/>
</g>
</svg>
