<?xml version="1.0" standalone="no"?>
<!DOCTYPE svg PUBLIC "-//W3C//DTD SVG 20010904//EN"
 "http://www.w3.org/TR/2001/REC-SVG-20010904/DTD/svg10.dtd">
<svg version="1.0" xmlns="http://www.w3.org/2000/svg"
 width="100%" height="100%" viewBox="0 0 2141.000000 600.000000"
 preserveAspectRatio="xMidYMid meet">
<metadata>
Created by potrace 1.16, written by Peter Selinger 2001-2019
</metadata>
<g transform="translate(0.000000,600.000000) scale(0.100000,-0.100000)"
fill="white" stroke="none">
<path d="M2117 4883 c-4 -3 -7 -21 -7 -39 0 -19 -6 -34 -15 -38 -11 -4 -15
-20 -15 -54 0 -32 -5 -54 -15 -62 -11 -9 -14 -25 -11 -51 3 -26 0 -44 -10 -53
-8 -8 -14 -29 -14 -46 0 -18 -6 -33 -15 -36 -11 -4 -15 -21 -15 -59 0 -38 -4
-55 -15 -59 -11 -4 -15 -20 -15 -55 0 -35 -4 -51 -15 -55 -12 -4 -15 -18 -14
-50 2 -26 -3 -51 -11 -61 -8 -10 -13 -33 -11 -54 1 -24 -3 -42 -13 -50 -9 -8
-16 -29 -16 -48 0 -21 -6 -36 -15 -39 -10 -4 -15 -21 -15 -54 0 -30 -6 -52
-15 -60 -9 -8 -15 -30 -15 -60 0 -34 -5 -50 -15 -54 -12 -4 -15 -16 -10 -51 4
-35 2 -47 -10 -51 -10 -4 -15 -21 -15 -54 0 -30 -6 -52 -15 -60 -8 -7 -15 -28
-15 -47 0 -21 -6 -36 -15 -39 -10 -4 -15 -21 -15 -54 0 -31 -5 -52 -15 -60
-11 -9 -15 -27 -13 -57 1 -29 -3 -47 -12 -53 -9 -6 -13 -24 -11 -54 1 -34 -2
-48 -14 -52 -10 -4 -15 -20 -15 -54 0 -30 -6 -52 -15 -60 -9 -8 -15 -30 -15
-60 0 -33 -5 -50 -15 -54 -9 -3 -15 -18 -15 -39 0 -19 -7 -40 -15 -47 -11 -9
-14 -24 -10 -50 4 -26 1 -41 -10 -50 -10 -8 -15 -30 -15 -62 0 -34 -4 -50 -15
-54 -11 -4 -15 -21 -15 -55 0 -35 -4 -51 -15 -55 -11 -4 -15 -21 -15 -59 0
-38 -4 -54 -15 -59 -10 -4 -15 -16 -13 -38 1 -18 -3 -33 -10 -36 -7 -2 -12
-23 -12 -52 0 -30 -5 -52 -15 -60 -9 -8 -15 -30 -15 -60 0 -33 -5 -50 -15 -54
-11 -4 -15 -20 -15 -56 0 -36 -4 -52 -15 -56 -10 -4 -15 -21 -15 -54 0 -30 -5
-52 -15 -60 -11 -9 -14 -24 -10 -50 4 -27 1 -42 -10 -53 -8 -9 -15 -29 -15
-45 0 -16 -7 -35 -15 -42 -9 -8 -15 -30 -15 -60 0 -33 -5 -50 -15 -54 -11 -4
-15 -20 -15 -55 0 -36 -4 -51 -16 -55 -13 -5 -15 -16 -12 -51 4 -31 1 -48 -8
-56 -8 -7 -14 -31 -14 -59 0 -34 -4 -50 -16 -54 -11 -4 -14 -18 -12 -58 l3
-53 1673 -3 c1481 -2 1673 0 1678 13 5 12 24 15 85 15 62 0 81 3 85 15 4 9 19
15 39 15 18 0 38 7 45 15 7 8 28 15 46 15 19 0 34 5 34 10 0 6 11 10 25 10 14
0 28 7 31 15 4 8 16 15 29 15 13 0 25 7 29 15 3 8 14 15 24 15 10 0 36 18 57
40 21 22 45 40 53 40 18 0 112 94 112 112 0 8 20 34 45 58 25 24 45 52 45 61
0 10 5 21 10 24 6 3 10 14 10 24 0 9 13 28 30 41 16 14 29 35 30 46 0 12 7 24
15 28 9 3 15 18 15 39 0 19 6 40 14 47 8 6 12 18 9 26 -3 7 2 17 11 20 11 4
16 18 16 44 0 24 5 40 15 44 9 3 15 19 15 41 0 22 6 38 15 41 10 4 15 20 15
44 0 25 5 40 15 44 12 4 15 18 14 53 -2 29 2 48 9 51 8 2 12 34 12 98 0 75 3
96 15 100 12 5 15 26 15 99 0 73 -3 94 -15 99 -10 4 -15 20 -15 51 0 28 -6 52
-15 61 -9 9 -13 25 -9 38 4 16 -6 32 -39 67 -25 24 -46 54 -48 64 -3 11 -14
21 -26 23 -13 2 -31 14 -42 28 -10 13 -28 24 -38 24 -11 0 -23 3 -26 7 -10 10
33 53 53 53 9 0 27 11 40 25 13 14 31 25 39 25 21 0 231 210 225 224 -3 7 9
25 26 41 16 16 30 37 30 47 0 10 7 21 15 24 8 4 15 16 15 29 0 13 7 25 15 29
8 3 15 17 15 31 0 14 5 25 10 25 6 0 10 8 10 19 0 10 7 24 15 31 8 7 15 28 15
47 0 21 6 36 15 39 10 4 15 20 15 44 0 24 5 40 15 44 9 3 15 18 15 36 0 17 7
38 15 46 9 9 13 25 9 38 -3 14 1 29 10 39 10 10 16 33 16 62 0 31 5 47 15 51
12 5 15 26 15 99 0 73 3 94 15 99 12 4 15 23 15 81 0 58 -3 77 -15 81 -11 5
-15 22 -15 69 0 43 -5 66 -15 75 -8 7 -15 25 -15 41 0 22 -19 47 -90 119 -51
51 -98 90 -109 90 -10 0 -21 7 -25 15 -3 8 -14 15 -25 15 -11 0 -23 4 -26 10
-3 6 -22 10 -41 10 -22 0 -37 6 -40 15 -5 11 -23 15 -70 15 -48 0 -66 4 -70
15 -5 13 -200 15 -1663 15 -912 0 -1661 -3 -1664 -7z m1993 -977 c0 -18 -7
-39 -15 -46 -9 -8 -15 -30 -15 -60 0 -34 -5 -50 -15 -54 -12 -4 -15 -18 -14
-53 2 -29 -2 -48 -9 -51 -7 -2 -12 -23 -12 -52 0 -30 -5 -52 -15 -60 -8 -7
-15 -27 -15 -44 0 -62 -16 -66 -240 -66 -177 0 -201 2 -207 16 -4 10 1 22 10
29 12 9 17 27 17 63 0 35 4 52 15 56 9 3 15 19 15 41 0 22 6 38 15 41 10 4 15
21 15 54 0 31 5 52 16 61 12 9 15 24 11 51 -3 26 0 43 9 52 8 8 14 24 14 35 0
21 4 21 210 21 l210 0 0 -34z m-311 -1360 c12 -14 5 -46 -10 -46 -5 0 -9 -23
-9 -50 0 -36 -4 -52 -15 -56 -10 -4 -15 -20 -15 -44 0 -24 -5 -40 -15 -44 -11
-4 -15 -20 -15 -56 0 -36 -4 -52 -15 -56 -10 -4 -15 -20 -15 -50 0 -24 -4 -52
-9 -62 -5 -9 -12 -25 -15 -35 -5 -16 -23 -17 -238 -15 l-233 3 -3 33 c-2 22 2
34 12 38 11 4 16 19 16 44 0 24 5 40 15 44 11 4 15 20 15 56 0 36 4 52 15 56
10 4 15 21 15 54 0 29 6 52 14 59 10 8 12 24 9 51 -5 32 -1 44 18 65 l24 25
221 0 c176 0 224 -3 233 -14z"/>
<path d="M6415 4880 c-3 -5 -4 -14 0 -19 3 -5 -2 -16 -10 -24 -9 -10 -15 -34
-15 -62 0 -31 -5 -47 -15 -51 -10 -4 -15 -21 -15 -54 0 -30 -6 -52 -15 -60 -8
-7 -15 -27 -15 -45 0 -20 -6 -35 -15 -39 -11 -4 -15 -20 -15 -54 0 -30 -5 -54
-14 -61 -9 -8 -12 -24 -9 -49 4 -27 1 -42 -11 -51 -11 -9 -16 -30 -16 -63 0
-34 -4 -50 -15 -54 -11 -4 -15 -21 -15 -55 0 -35 -4 -51 -15 -55 -11 -4 -15
-21 -15 -59 0 -39 -4 -54 -16 -59 -12 -4 -14 -14 -9 -36 5 -22 3 -32 -9 -36
-12 -4 -16 -20 -16 -54 0 -30 -6 -52 -15 -60 -9 -8 -15 -30 -15 -60 0 -33 -5
-50 -15 -54 -11 -4 -15 -20 -15 -56 0 -36 -4 -52 -15 -56 -10 -4 -15 -21 -15
-54 0 -29 -6 -52 -15 -60 -9 -8 -12 -22 -8 -41 4 -21 1 -30 -11 -35 -12 -4
-16 -19 -16 -54 0 -30 -6 -52 -15 -60 -9 -8 -15 -30 -15 -60 0 -33 -5 -50 -15
-54 -10 -4 -15 -20 -15 -51 0 -28 -6 -52 -15 -62 -11 -11 -14 -26 -10 -53 4
-26 1 -41 -10 -50 -10 -8 -15 -30 -15 -60 0 -33 -5 -50 -15 -54 -9 -3 -15 -19
-15 -41 0 -22 -6 -38 -15 -41 -11 -4 -15 -21 -15 -59 0 -38 -4 -55 -15 -59
-11 -4 -15 -20 -15 -55 0 -29 -5 -51 -12 -53 -7 -3 -11 -22 -9 -51 1 -35 -2
-49 -14 -53 -11 -5 -15 -21 -15 -59 0 -38 -4 -55 -15 -59 -11 -4 -15 -20 -15
-55 0 -34 -4 -51 -15 -55 -12 -4 -15 -23 -15 -85 0 -59 -4 -80 -14 -84 -22 -8
-22 -390 -1 -411 8 -8 15 -29 15 -46 0 -18 6 -33 15 -36 9 -4 15 -20 15 -43 1
-27 8 -42 30 -61 17 -13 30 -31 30 -40 1 -22 88 -110 109 -110 10 0 28 -13 41
-30 17 -23 31 -30 56 -30 18 0 36 -4 39 -10 3 -5 14 -10 24 -10 10 0 24 -7 31
-15 8 -9 30 -15 60 -15 33 0 50 -5 54 -15 4 -11 23 -15 79 -15 54 0 78 -4 87
-15 11 -13 148 -15 1127 -15 981 0 1114 2 1119 15 5 12 24 15 85 15 62 0 81 3
85 15 4 10 21 15 54 15 30 0 52 6 60 15 7 8 28 15 46 15 19 0 34 5 34 10 0 6
15 10 34 10 18 0 39 7 46 15 7 8 21 15 32 15 10 0 21 7 24 15 4 8 16 15 28 15
11 1 32 14 46 30 13 17 31 30 40 30 9 0 27 11 40 25 13 14 31 25 39 25 21 0
171 151 171 172 0 8 18 32 40 52 22 20 40 44 40 54 0 11 14 29 30 42 18 13 30
32 30 45 0 13 7 25 15 29 8 3 15 14 15 25 0 11 5 23 10 26 6 3 10 15 10 26 0
11 7 22 15 25 8 4 15 17 15 30 0 14 7 27 15 30 10 4 15 20 15 44 0 24 5 40 15
44 9 3 15 18 15 36 0 17 7 38 15 46 9 9 13 25 9 38 -3 14 1 29 10 39 9 8 16
30 16 47 0 18 6 33 15 36 10 4 15 20 15 44 0 24 5 40 15 44 11 4 15 20 15 54
0 33 5 54 16 63 12 9 15 24 11 51 -3 25 0 41 9 49 9 7 14 31 14 61 0 34 4 50
15 54 11 4 15 21 15 55 0 35 4 51 15 55 11 4 15 21 15 59 0 38 4 55 15 59 9 3
15 18 15 36 0 17 6 38 14 46 9 9 12 26 9 52 -4 27 -1 42 11 51 11 9 16 30 16
61 0 33 5 50 15 54 11 4 15 20 15 56 0 36 4 52 15 56 10 4 15 21 15 54 0 31 5
52 16 61 9 8 13 21 10 35 -4 13 0 29 9 38 9 9 15 33 15 61 0 31 5 47 15 51 11
4 15 21 15 59 0 38 4 55 15 59 11 4 15 20 15 55 0 34 4 51 15 55 11 4 15 20
15 54 0 30 5 54 14 61 9 8 12 24 9 49 -4 27 -1 42 11 51 9 8 16 28 16 48 0 21
6 36 15 39 11 4 15 21 15 59 0 38 4 55 15 59 11 4 15 20 15 55 0 35 4 51 15
55 12 4 15 18 14 53 -2 29 2 48 9 51 7 2 12 23 12 52 0 30 5 52 15 60 8 7 15
28 15 47 0 21 6 36 15 39 10 4 15 21 15 54 0 31 5 52 15 60 11 9 15 27 13 59
l-3 46 -900 0 c-892 0 -900 0 -903 -20 -2 -11 -11 -27 -19 -36 -8 -10 -13 -33
-12 -57 2 -25 -3 -45 -13 -55 -9 -10 -14 -26 -11 -41 4 -18 0 -28 -11 -32 -12
-5 -16 -20 -16 -59 0 -38 -4 -55 -15 -59 -11 -4 -15 -20 -15 -55 0 -34 -4 -51
-15 -55 -11 -4 -15 -20 -15 -54 0 -31 -5 -54 -14 -61 -10 -8 -13 -25 -10 -50
3 -26 0 -42 -11 -51 -8 -7 -15 -28 -15 -47 0 -21 -6 -36 -15 -39 -10 -4 -15
-21 -15 -54 0 -30 -6 -52 -15 -60 -9 -8 -15 -30 -15 -60 0 -34 -5 -50 -15 -54
-12 -4 -15 -18 -14 -53 2 -29 -2 -48 -9 -51 -7 -2 -12 -23 -12 -52 0 -30 -5
-52 -15 -60 -8 -7 -15 -28 -15 -47 0 -21 -6 -36 -15 -39 -10 -4 -15 -21 -15
-54 0 -30 -6 -52 -15 -60 -9 -8 -15 -30 -15 -60 0 -33 -5 -50 -15 -54 -11 -4
-13 -16 -9 -50 5 -37 3 -47 -10 -52 -11 -4 -16 -18 -16 -44 0 -24 -5 -40 -15
-44 -11 -4 -15 -20 -15 -55 0 -34 -4 -51 -15 -55 -11 -4 -15 -20 -15 -54 0
-33 -5 -54 -16 -63 -12 -9 -15 -24 -11 -51 3 -25 0 -41 -9 -49 -9 -7 -14 -31
-14 -61 0 -34 -4 -50 -15 -54 -9 -4 -15 -19 -15 -39 0 -18 -7 -38 -15 -45 -9
-8 -15 -30 -15 -60 0 -33 -5 -50 -15 -54 -10 -4 -15 -20 -15 -51 0 -27 -6 -52
-14 -61 -10 -9 -13 -26 -9 -49 4 -25 1 -41 -10 -53 -9 -9 -17 -40 -19 -67 l-3
-50 -226 -3 c-184 -2 -228 0 -238 12 -12 14 -5 46 10 46 5 0 9 23 9 50 0 36 4
52 15 56 11 4 15 21 15 59 0 38 4 55 15 59 9 3 15 18 15 39 0 19 7 40 15 47 9
7 15 29 15 55 0 24 6 48 14 54 9 8 12 25 8 56 -3 35 -1 46 12 51 12 4 16 19
16 55 0 35 4 51 15 55 11 4 15 21 15 59 0 38 4 55 15 59 9 3 15 18 15 36 0 17
7 39 16 48 11 11 15 27 11 53 -3 26 0 42 9 50 8 7 14 30 14 59 0 33 5 50 15
54 11 4 15 20 15 56 0 36 4 52 15 56 10 4 15 21 15 54 0 30 6 52 15 60 8 7 15
27 15 45 0 19 5 35 12 37 7 3 11 21 10 50 -2 30 2 49 13 58 10 8 15 29 15 60
0 33 5 50 15 54 11 4 15 20 15 55 0 34 4 51 15 55 11 4 15 20 15 54 0 33 5 54
16 63 9 8 13 21 10 35 -4 13 0 29 9 38 9 9 15 33 15 61 0 31 5 47 15 51 11 4
15 21 15 59 0 38 4 55 15 59 11 4 15 20 15 55 0 34 4 51 15 55 9 3 15 18 15
39 0 19 6 40 14 46 9 8 12 25 8 56 -3 35 -1 46 12 51 12 4 16 19 16 55 0 33 5
51 16 57 11 6 14 21 12 58 l-3 49 -897 3 c-593 1 -899 -1 -903 -8z"/>
<path d="M10750 4865 c0 -14 -7 -28 -15 -31 -11 -4 -15 -21 -15 -55 0 -35 -4
-51 -15 -55 -11 -4 -15 -21 -15 -59 0 -38 -4 -55 -15 -59 -10 -4 -15 -20 -15
-51 0 -27 -6 -52 -14 -61 -10 -9 -12 -26 -9 -54 4 -31 2 -41 -11 -46 -11 -4
-16 -18 -16 -44 0 -24 -5 -40 -15 -44 -11 -4 -15 -20 -15 -56 0 -36 -4 -52
-15 -56 -10 -4 -15 -21 -15 -54 0 -31 -5 -52 -16 -61 -12 -9 -15 -24 -11 -51
3 -26 0 -43 -9 -52 -8 -9 -14 -34 -14 -61 0 -31 -5 -47 -15 -51 -10 -4 -15
-21 -15 -54 0 -30 -6 -52 -15 -60 -8 -7 -15 -27 -15 -45 0 -20 -6 -35 -15 -39
-11 -4 -15 -20 -15 -54 0 -30 -5 -54 -14 -61 -9 -8 -12 -24 -9 -49 4 -27 1
-42 -11 -51 -11 -9 -16 -30 -16 -63 0 -34 -4 -50 -15 -54 -10 -4 -15 -21 -15
-54 0 -30 -6 -52 -15 -60 -8 -7 -15 -27 -15 -45 0 -21 -6 -35 -16 -39 -13 -5
-15 -15 -10 -52 4 -34 2 -46 -9 -50 -10 -4 -15 -21 -15 -54 0 -30 -6 -52 -15
-60 -9 -8 -15 -30 -15 -60 0 -33 -5 -50 -15 -54 -11 -4 -15 -20 -15 -54 0 -32
-5 -54 -15 -62 -9 -7 -15 -29 -15 -55 0 -25 -6 -48 -15 -55 -9 -8 -12 -22 -8
-41 4 -21 1 -30 -11 -35 -12 -4 -16 -19 -16 -54 0 -30 -6 -52 -15 -60 -9 -8
-15 -30 -15 -60 0 -33 -5 -50 -15 -54 -10 -4 -15 -20 -15 -51 0 -27 -6 -52
-14 -61 -11 -10 -14 -35 -13 -86 1 -48 -3 -73 -11 -76 -9 -3 -12 -55 -12 -197
0 -161 2 -194 15 -199 11 -4 13 -16 9 -50 -5 -37 -3 -47 10 -52 9 -3 16 -17
16 -30 0 -14 7 -27 15 -30 8 -4 15 -16 15 -28 1 -11 14 -32 30 -46 17 -13 30
-31 30 -40 0 -20 31 -50 51 -50 8 0 26 -13 39 -30 14 -16 35 -29 46 -30 12 0
24 -7 28 -15 3 -8 17 -15 31 -15 14 0 25 -4 25 -10 0 -5 8 -10 19 -10 10 0 24
-7 31 -15 8 -9 30 -15 60 -15 33 0 50 -5 54 -15 4 -12 23 -15 85 -15 61 0 80
-3 85 -15 5 -13 138 -15 1119 -15 979 0 1116 2 1127 15 9 11 33 15 87 15 56 0
75 4 79 15 4 10 21 15 54 15 30 0 52 6 60 15 7 8 28 15 46 15 19 0 34 5 34 10
0 6 15 10 34 10 18 0 39 7 46 15 7 8 20 15 30 15 10 0 23 7 30 15 7 8 21 15
32 15 10 0 21 7 24 15 4 8 15 15 25 15 10 0 37 18 59 40 22 22 46 40 54 40 18
0 196 178 196 196 0 8 11 25 25 38 14 13 25 31 25 40 0 9 14 29 30 44 16 16
30 38 30 50 0 11 7 22 15 26 8 3 15 14 15 24 0 11 7 25 15 32 8 7 15 21 15 31
0 11 5 19 10 19 6 0 10 11 10 25 0 14 7 28 15 31 9 4 15 19 15 39 0 18 7 38
15 45 8 7 15 21 15 32 0 10 7 21 15 24 9 4 15 19 15 41 0 19 6 41 14 49 10 9
12 26 9 54 -4 31 -2 41 11 46 11 4 16 18 16 44 0 24 5 40 15 44 11 4 15 20 15
55 0 34 4 51 15 55 11 4 15 20 15 54 0 33 5 54 16 63 12 9 15 24 11 51 -3 26
0 43 9 52 8 8 14 29 14 46 0 18 6 33 15 36 11 4 15 21 15 59 0 38 4 55 15 59
11 4 15 20 15 55 0 34 4 51 15 55 10 4 15 20 15 51 0 27 6 52 14 61 9 9 12 26
9 52 -4 27 -1 42 11 51 9 8 16 28 16 48 0 21 6 36 15 39 10 4 15 21 15 54 0
30 6 52 15 60 9 8 15 30 15 60 0 35 4 50 16 54 13 5 15 15 11 46 -3 28 -1 45
9 54 8 8 14 34 14 59 0 27 6 49 15 57 9 8 15 30 15 60 0 33 5 50 15 54 9 3 15
18 15 39 0 19 7 40 15 47 10 8 15 30 15 60 0 29 5 50 12 52 7 3 11 22 9 51 -1
35 2 49 14 53 11 4 15 20 15 55 0 35 4 51 15 55 11 4 15 21 15 59 0 38 4 55
15 59 9 3 15 18 15 39 0 20 7 40 16 48 12 9 15 24 11 51 -3 25 0 41 9 49 9 7
14 31 14 61 0 34 4 50 15 54 10 4 15 21 15 55 0 33 5 51 16 57 11 6 14 21 12
58 l-3 49 -898 3 c-848 2 -898 1 -903 -15 -3 -10 -10 -27 -16 -38 -6 -11 -10
-39 -9 -63 1 -30 -2 -44 -14 -48 -11 -4 -15 -20 -15 -55 0 -35 -4 -51 -15 -55
-10 -4 -15 -20 -15 -44 0 -24 -5 -40 -15 -44 -10 -4 -15 -20 -15 -51 0 -28 -6
-52 -15 -62 -11 -11 -14 -26 -10 -53 4 -26 1 -41 -10 -50 -10 -8 -15 -30 -15
-62 0 -34 -4 -50 -15 -54 -11 -4 -15 -21 -15 -55 0 -35 -4 -51 -15 -55 -10 -4
-15 -20 -15 -44 0 -24 -5 -40 -15 -44 -11 -4 -15 -20 -15 -55 0 -29 -5 -51
-12 -53 -7 -3 -11 -21 -10 -50 2 -30 -2 -49 -13 -58 -10 -8 -15 -29 -15 -60 0
-33 -5 -50 -15 -54 -11 -4 -15 -20 -15 -55 0 -34 -4 -51 -15 -55 -10 -3 -15
-19 -15 -45 0 -26 -5 -41 -15 -45 -12 -4 -15 -16 -11 -46 3 -27 0 -44 -10 -54
-8 -9 -14 -34 -14 -61 0 -31 -5 -47 -15 -51 -11 -4 -15 -21 -15 -59 0 -38 -4
-55 -15 -59 -11 -4 -15 -20 -15 -55 0 -36 -4 -51 -16 -55 -12 -5 -15 -14 -11
-35 4 -19 1 -33 -8 -41 -10 -8 -15 -31 -15 -62 0 -34 -4 -50 -15 -54 -11 -4
-15 -21 -15 -55 0 -35 -4 -51 -15 -55 -10 -4 -15 -21 -15 -54 0 -30 -6 -52
-15 -60 -9 -8 -15 -30 -15 -60 0 -34 -4 -50 -16 -54 -11 -4 -14 -14 -9 -34 4
-20 1 -33 -10 -42 -10 -8 -15 -29 -15 -60 0 -33 -5 -50 -14 -53 -10 -4 -16
-24 -18 -59 l-3 -53 -230 0 -230 0 -3 24 c-2 15 3 28 13 33 12 7 15 17 10 37
-4 19 -1 32 10 41 10 8 15 29 15 60 0 33 5 50 15 54 11 4 15 20 15 56 0 36 4
52 15 56 10 4 15 21 15 54 0 30 6 52 15 60 10 8 15 30 15 60 0 29 5 50 12 52
7 3 11 18 10 36 -2 22 3 34 13 38 11 5 15 21 15 59 0 38 4 55 15 59 11 4 15
20 15 55 0 34 4 51 15 55 11 4 15 20 15 54 0 32 5 54 15 62 11 9 14 25 11 51
-3 25 0 42 10 50 8 6 14 27 14 46 0 21 6 36 15 39 10 4 15 21 15 54 0 30 6 52
15 60 9 8 15 30 15 60 0 33 5 50 15 54 11 4 15 20 15 55 0 29 5 51 12 53 7 3
11 21 10 50 -2 30 2 49 13 58 8 7 15 28 15 47 0 21 6 36 15 39 10 4 15 21 15
54 0 30 6 52 15 60 9 8 15 30 15 60 0 34 5 50 15 54 12 4 15 16 10 51 -4 35
-2 47 10 51 10 4 15 21 15 54 0 30 6 52 15 60 8 7 15 27 15 45 0 20 6 35 15
39 11 4 15 20 15 54 0 33 5 54 16 63 10 8 14 26 13 50 -2 21 3 44 11 54 8 10
13 35 11 61 -1 32 2 46 14 50 11 5 15 21 15 60 l0 54 -900 0 -900 0 0 -25z"/>
<path d="M15080 4851 c0 -25 -5 -41 -15 -45 -11 -4 -15 -20 -15 -56 0 -36 -4
-52 -15 -56 -10 -4 -15 -21 -15 -54 0 -28 -6 -52 -14 -59 -9 -8 -12 -25 -8
-56 3 -35 1 -46 -12 -51 -12 -4 -16 -19 -16 -55 0 -35 -4 -51 -15 -55 -10 -4
-15 -20 -15 -44 0 -24 -5 -40 -15 -44 -11 -4 -15 -20 -15 -55 0 -36 -4 -51
-16 -55 -13 -5 -15 -16 -12 -51 4 -31 1 -48 -8 -56 -8 -7 -14 -31 -14 -59 0
-33 -5 -50 -15 -54 -11 -4 -15 -20 -15 -56 0 -36 -4 -52 -15 -56 -10 -4 -15
-21 -15 -54 0 -30 -6 -52 -15 -60 -8 -7 -15 -26 -15 -42 0 -16 -6 -36 -14 -44
-9 -9 -12 -26 -9 -52 4 -27 1 -42 -11 -51 -11 -9 -16 -30 -16 -61 0 -33 -5
-50 -15 -54 -11 -4 -15 -20 -15 -55 0 -34 -4 -51 -15 -55 -11 -4 -15 -20 -15
-54 0 -33 -5 -54 -16 -63 -9 -8 -13 -21 -10 -35 4 -13 0 -29 -9 -38 -9 -9 -15
-33 -15 -61 0 -31 -5 -47 -15 -51 -11 -4 -15 -21 -15 -59 0 -38 -4 -55 -15
-59 -11 -4 -15 -20 -15 -55 0 -34 -4 -51 -15 -55 -10 -4 -15 -20 -15 -51 0
-27 -6 -52 -14 -61 -9 -9 -12 -26 -9 -52 4 -27 1 -42 -11 -51 -9 -8 -16 -28
-16 -48 0 -21 -6 -36 -15 -39 -10 -4 -15 -21 -15 -54 0 -30 -6 -52 -15 -60 -9
-8 -15 -30 -15 -60 0 -34 -5 -50 -15 -54 -12 -4 -15 -18 -14 -53 2 -29 -2 -48
-9 -51 -7 -2 -12 -23 -12 -52 0 -30 -5 -52 -15 -60 -8 -7 -15 -28 -15 -47 0
-21 -6 -36 -15 -39 -10 -4 -15 -21 -15 -54 0 -30 -6 -52 -15 -60 -9 -8 -15
-30 -15 -60 0 -32 -5 -50 -14 -53 -10 -4 -12 -18 -9 -51 4 -36 2 -47 -11 -52
-12 -4 -16 -19 -16 -55 0 -35 -4 -51 -15 -55 -10 -4 -15 -20 -15 -44 0 -24 -5
-40 -15 -44 -11 -4 -15 -20 -15 -54 0 -33 -5 -54 -16 -63 -12 -9 -15 -24 -11
-51 3 -25 0 -41 -9 -49 -10 -9 -14 -28 -12 -63 l3 -51 813 -3 c446 -1 812 1
813 5 3 30 9 48 18 51 6 2 11 18 11 37 0 18 7 38 15 45 9 8 15 30 15 60 0 33
5 50 15 54 11 4 15 20 15 56 0 36 4 52 15 56 10 4 15 21 15 53 0 26 5 52 12
59 6 6 11 32 9 57 -1 33 2 47 14 51 11 4 15 20 15 55 0 35 4 51 15 55 10 4 15
21 15 54 0 30 6 52 15 60 9 8 15 30 15 60 0 34 4 50 16 54 11 4 14 14 9 34 -4
20 -1 33 10 42 10 8 15 29 15 60 0 33 5 50 15 54 11 4 15 20 15 56 0 36 4 52
15 56 10 4 15 21 15 54 0 31 5 52 15 60 11 9 15 27 13 58 -1 32 3 47 14 53 12
7 15 19 11 49 -5 32 -1 44 18 64 13 13 27 22 31 20 5 -3 8 -101 8 -218 0 -178
3 -216 15 -226 13 -11 15 -85 15 -556 0 -531 0 -544 20 -564 19 -19 33 -20
493 -20 446 0 473 1 488 18 9 10 19 31 23 45 3 15 11 27 16 27 6 0 10 11 10
24 0 13 7 26 15 30 8 3 15 15 15 26 0 11 7 23 15 26 8 4 15 15 15 26 0 12 11
31 25 44 14 13 25 32 25 44 0 11 7 23 15 26 8 4 15 16 15 29 0 13 7 25 15 29
8 3 15 14 15 24 0 11 7 25 15 32 8 7 15 21 15 31 0 11 5 19 10 19 6 0 10 11
10 25 0 14 7 28 15 31 8 4 15 16 15 28 1 11 14 32 30 46 17 13 30 34 30 46 0
12 7 24 15 28 8 3 15 14 15 25 0 11 5 23 10 26 6 3 10 15 10 26 0 11 7 22 15
25 8 4 15 16 15 29 0 13 7 25 15 29 8 3 15 16 15 30 0 13 7 26 15 30 8 3 15
14 15 24 0 10 11 29 25 42 14 13 25 32 25 42 0 10 7 21 15 24 8 4 15 16 15 29
0 13 7 25 15 29 8 3 15 16 15 30 0 13 7 26 15 30 8 3 15 14 15 25 0 11 5 23
10 26 6 3 10 15 10 26 0 11 7 22 15 25 8 4 15 17 15 30 0 14 7 27 15 30 8 4
15 15 15 26 0 10 12 30 28 45 15 14 26 31 24 38 -1 7 5 18 13 25 8 7 15 20 15
30 0 10 6 23 14 30 8 6 16 21 18 33 4 26 48 38 48 13 0 -8 -4 -18 -10 -21 -5
-3 -10 -26 -10 -49 0 -27 -6 -48 -15 -56 -9 -8 -15 -30 -15 -60 0 -33 -5 -50
-15 -54 -11 -4 -15 -20 -15 -54 0 -33 -5 -54 -16 -63 -12 -9 -15 -24 -11 -51
3 -25 0 -41 -9 -49 -9 -7 -14 -31 -14 -61 0 -34 -4 -50 -15 -54 -11 -4 -15
-21 -15 -55 0 -35 -4 -51 -15 -55 -10 -4 -15 -20 -15 -44 0 -24 -5 -40 -15
-44 -10 -4 -15 -20 -15 -51 0 -27 -6 -52 -14 -61 -9 -9 -12 -26 -9 -52 4 -27
1 -42 -11 -51 -11 -9 -16 -30 -16 -61 0 -33 -5 -50 -15 -54 -11 -4 -15 -20
-15 -56 0 -36 -4 -52 -15 -56 -10 -4 -15 -21 -15 -54 0 -31 -5 -52 -16 -61
-12 -9 -15 -24 -11 -51 3 -26 0 -43 -9 -52 -8 -9 -14 -34 -14 -61 0 -31 -5
-47 -15 -51 -8 -4 -15 -12 -15 -20 0 -12 127 -14 829 -14 917 0 847 -5 835 64
-3 23 0 37 11 46 8 7 15 28 15 47 0 21 6 36 15 39 10 4 15 21 15 54 0 30 6 52
15 60 9 8 15 30 15 60 0 34 5 50 15 54 12 4 15 18 14 52 -2 30 2 48 11 54 9 6
13 24 12 53 -2 30 2 48 13 57 8 7 15 28 15 47 0 21 6 36 15 39 11 4 15 21 15
55 0 35 4 51 15 55 11 4 15 21 15 59 0 38 4 54 15 59 12 4 15 16 11 46 -3 27
0 44 10 54 8 9 14 34 14 61 0 31 5 47 15 51 11 4 15 21 15 59 0 38 4 55 15 59
9 3 15 19 15 41 0 22 6 38 15 41 10 4 15 21 15 54 0 27 5 52 10 55 6 3 10 29
10 56 0 35 4 51 15 55 11 4 15 21 15 55 0 35 4 51 15 55 10 4 15 21 15 54 0
30 6 52 15 60 8 7 15 26 15 42 0 16 6 36 14 44 10 9 13 27 10 53 -3 26 0 42
11 51 10 8 15 30 15 60 0 33 5 50 15 54 11 4 15 20 15 56 0 36 4 52 15 56 10
4 15 21 15 54 0 30 5 52 15 60 9 7 14 26 13 43 -1 17 3 32 10 35 7 2 12 23 12
53 0 35 4 51 15 55 11 4 15 21 15 59 0 38 4 55 15 59 11 4 15 20 15 55 0 34 4
51 15 55 11 4 15 20 15 54 0 31 5 54 14 61 10 8 13 25 10 50 -3 26 0 42 11 51
8 7 15 28 15 47 0 21 6 36 15 39 10 4 15 21 15 54 0 30 6 52 15 60 9 8 15 30
15 60 0 34 5 50 15 54 12 4 15 18 14 53 -2 29 2 48 9 51 7 2 12 23 12 52 0 30
5 52 15 60 8 7 15 28 15 47 0 21 6 36 15 39 10 4 15 21 15 54 0 31 5 52 15 60
11 9 15 27 13 59 l-3 46 -1107 3 c-1089 2 -1108 2 -1108 -17 0 -11 -7 -26 -15
-35 -8 -8 -15 -23 -15 -34 0 -11 -7 -22 -15 -26 -8 -3 -15 -15 -15 -26 0 -11
-7 -23 -15 -26 -8 -4 -15 -16 -15 -29 0 -13 -7 -25 -15 -29 -8 -3 -15 -17 -15
-31 0 -14 -4 -25 -10 -25 -5 0 -10 -11 -10 -24 0 -13 -7 -26 -15 -30 -8 -3
-15 -14 -15 -24 0 -11 -7 -25 -15 -32 -8 -7 -15 -21 -15 -30 0 -10 -11 -27
-25 -38 -14 -11 -25 -29 -25 -41 0 -12 -7 -24 -15 -27 -8 -4 -15 -16 -15 -29
0 -13 -7 -25 -15 -29 -8 -3 -15 -16 -15 -30 0 -13 -7 -26 -15 -30 -8 -3 -15
-14 -15 -24 0 -11 -7 -25 -15 -32 -8 -7 -15 -21 -15 -31 0 -11 -4 -19 -10 -19
-5 0 -10 -11 -10 -25 0 -14 -7 -28 -15 -31 -8 -4 -15 -16 -15 -29 0 -13 -7
-25 -15 -29 -8 -3 -15 -14 -15 -24 0 -11 -7 -25 -15 -32 -8 -7 -15 -21 -15
-31 0 -11 -4 -19 -10 -19 -5 0 -10 -11 -10 -25 0 -14 -7 -28 -15 -31 -8 -4
-15 -16 -15 -29 0 -13 -7 -25 -15 -29 -8 -3 -15 -16 -15 -30 0 -13 -7 -26 -15
-30 -8 -3 -15 -14 -15 -24 0 -11 -7 -25 -15 -32 -8 -7 -15 -21 -15 -31 0 -11
-4 -19 -10 -19 -5 0 -10 -11 -10 -25 0 -14 -7 -28 -15 -31 -8 -4 -15 -16 -15
-29 0 -13 -7 -25 -15 -29 -8 -3 -15 -14 -15 -24 0 -11 -7 -25 -15 -32 -8 -7
-15 -21 -15 -31 0 -11 -4 -19 -10 -19 -5 0 -10 -11 -10 -25 0 -14 -7 -28 -15
-31 -8 -4 -15 -16 -15 -29 0 -13 -7 -25 -15 -29 -8 -3 -15 -17 -15 -31 0 -23
-4 -26 -27 -23 l-28 3 -3 478 c-2 421 -1 478 13 483 13 5 15 49 15 340 l0 334
-1095 0 -1095 0 0 -39z"/>
</g>
</svg>
