

<svg xmlns="http://www.w3.org/2000/svg" viewBox="0 0 600.000000 166.000000" preserveAspectRatio="xMidYMid meet">

<g transform="translate(0.000000,166.000000) scale(0.100000,-0.100000)"
fill="white" >
<path d="M1700 1570 c0 -5 -9 -10 -20 -10 -11 0 -20 -4 -20 -10 0 -5 -9 -10
-20 -10 -11 0 -20 -4 -20 -10 0 -5 -9 -10 -20 -10 -11 0 -20 -4 -20 -10 0 -5
-13 -10 -30 -10 -16 0 -30 -4 -30 -10 0 -5 -18 -10 -40 -10 l-40 0 0 -106 c0
-78 4 -109 14 -120 11 -10 42 -14 120 -14 l106 0 0 -370 0 -370 120 0 c73 0
120 -4 120 -10 0 -15 29 -12 46 4 l14 15 0 535 0 536 -140 0 c-87 0 -140 -4
-140 -10z"/>
<path d="M4160 980 l0 -480 76 0 c78 0 104 11 104 44 0 22 13 20 30 -4 8 -11
22 -20 32 -20 10 0 18 -4 18 -10 0 -5 18 -10 40 -10 22 0 40 -4 40 -10 0 -6
27 -10 60 -10 33 0 60 4 60 10 0 6 18 10 40 10 22 0 40 5 40 10 0 6 7 10 15
10 20 0 125 105 125 125 0 8 5 15 10 15 6 0 10 14 10 30 0 17 5 30 10 30 6 0
10 50 10 130 0 80 -4 130 -10 130 -5 0 -10 14 -10 30 0 17 -4 30 -10 30 -5 0
-10 7 -10 15 0 9 -20 36 -45 60 -24 25 -51 45 -60 45 -8 0 -15 5 -15 10 0 6
-9 10 -20 10 -11 0 -20 5 -20 10 0 6 -47 10 -120 10 -73 0 -120 -4 -120 -10 0
-5 -8 -10 -18 -10 -10 0 -24 -9 -32 -20 -8 -11 -22 -20 -31 -20 -10 0 -19 -6
-22 -12 -2 -8 -8 -9 -13 -4 -5 5 -4 11 4 13 9 4 12 46 12 164 l0 159 -90 0
-90 0 0 -480z m460 70 c0 -5 9 -10 20 -10 13 0 20 -7 20 -18 0 -10 9 -24 20
-32 12 -8 20 -26 20 -42 0 -15 5 -28 10 -28 6 0 10 -30 10 -70 0 -40 -4 -70
-10 -70 -5 0 -10 -9 -10 -20 0 -11 -4 -20 -10 -20 -5 0 -10 -7 -10 -15 0 -26
-66 -85 -95 -85 -14 0 -25 -4 -25 -10 0 -5 -13 -10 -30 -10 -16 0 -30 5 -30
10 0 6 -13 10 -28 10 -16 0 -34 8 -42 20 -8 11 -22 20 -32 20 -11 0 -18 7 -18
20 0 11 -4 20 -10 20 -5 0 -10 9 -10 20 0 11 -4 20 -10 20 -6 0 -10 37 -10 90
0 53 4 90 10 90 6 0 10 7 10 15 0 20 65 85 85 85 8 0 15 5 15 10 0 6 33 10 80
10 47 0 80 -4 80 -10z"/>
<path d="M5000 1384 c0 -98 6 -104 104 -104 l76 0 0 90 0 90 -90 0 -90 0 0
-76z"/>
<path d="M320 1210 c0 -5 -18 -10 -40 -10 -22 0 -40 -4 -40 -10 0 -5 -11 -10
-25 -10 -28 0 -135 -99 -135 -125 0 -8 -4 -15 -10 -15 -5 0 -10 -9 -10 -20 0
-11 -4 -20 -10 -20 -5 0 -10 -18 -10 -40 0 -22 -4 -40 -10 -40 -6 0 -10 -33
-10 -80 0 -47 4 -80 10 -80 6 0 10 -13 10 -30 0 -16 5 -30 10 -30 6 0 10 -13
10 -28 0 -16 8 -34 20 -42 11 -8 20 -20 20 -28 0 -17 25 -42 42 -42 8 0 20 -9
28 -20 8 -11 22 -20 32 -20 10 0 18 -4 18 -10 0 -5 14 -10 30 -10 17 0 30 -4
30 -10 0 -6 40 -10 100 -10 60 0 100 4 100 10 0 6 9 10 20 10 11 0 20 5 20 10
0 6 8 10 18 10 10 0 24 9 32 20 8 11 20 20 28 20 18 0 42 25 42 44 0 9 5 16
10 16 6 0 10 9 10 20 0 11 5 20 10 20 6 0 10 14 10 30 l0 30 -40 0 c-22 0 -40
5 -40 10 0 6 -18 10 -40 10 l-40 0 0 -25 c0 -29 -40 -75 -65 -75 -8 0 -15 -4
-15 -10 0 -6 -29 -10 -68 -10 l-68 0 -14 20 c-8 11 -22 20 -32 20 -11 0 -18 7
-18 20 0 11 -4 20 -10 20 -5 0 -10 9 -10 20 0 11 -4 20 -10 20 -6 0 -10 43
-10 110 0 67 4 110 10 110 6 0 10 7 10 15 0 20 65 85 85 85 8 0 15 5 15 10 0
6 23 10 50 10 28 0 50 -4 50 -10 0 -5 7 -10 15 -10 18 0 65 -44 65 -60 0 -24
30 -40 74 -40 25 0 46 5 46 10 0 6 14 10 30 10 23 0 30 4 30 20 0 11 -4 20
-10 20 -5 0 -10 9 -10 20 0 11 -4 20 -10 20 -5 0 -10 7 -10 15 0 9 -16 31 -35
50 -19 19 -41 35 -50 35 -8 0 -15 5 -15 10 0 6 -9 10 -20 10 -11 0 -20 5 -20
10 0 6 -18 10 -40 10 -22 0 -40 5 -40 10 0 6 -22 10 -50 10 -27 0 -50 -4 -50
-10z"/>
<path d="M1080 1210 c0 -5 -22 -10 -50 -10 -27 0 -50 -4 -50 -10 0 -5 -8 -10
-18 -10 -10 0 -24 -9 -32 -20 -8 -11 -20 -20 -28 -20 -18 0 -62 -46 -62 -65 0
-8 -4 -15 -10 -15 -5 0 -10 -9 -10 -20 0 -11 -4 -20 -10 -20 -5 0 -10 -9 -10
-20 0 -11 -4 -20 -10 -20 -6 0 -10 -53 -10 -140 0 -87 4 -140 10 -140 6 0 10
-9 10 -20 0 -11 5 -20 10 -20 6 0 10 -7 10 -15 0 -20 105 -125 125 -125 8 0
15 -4 15 -10 0 -5 14 -10 30 -10 17 0 30 -4 30 -10 0 -6 40 -10 100 -10 60 0
100 4 100 10 0 6 14 10 30 10 17 0 30 5 30 10 0 6 9 10 20 10 11 0 20 5 20 10
0 6 7 10 15 10 19 0 85 64 85 82 0 8 9 20 20 28 12 8 20 26 20 42 0 15 5 28
10 28 6 0 10 50 10 130 0 80 -4 130 -10 130 -5 0 -10 9 -10 20 0 11 -4 20 -10
20 -5 0 -10 8 -10 18 0 10 -9 24 -20 32 -11 8 -20 20 -20 28 0 17 -25 42 -42
42 -8 0 -20 9 -28 20 -8 11 -22 20 -32 20 -10 0 -18 5 -18 10 0 6 -22 10 -50
10 -27 0 -50 5 -50 10 0 6 -22 10 -50 10 -27 0 -50 -4 -50 -10z m100 -140 c0
-5 9 -10 20 -10 11 0 20 -4 20 -10 0 -5 7 -10 16 -10 20 0 44 -24 44 -44 0 -9
5 -16 10 -16 6 0 10 -13 10 -30 0 -16 5 -30 10 -30 6 0 10 -30 10 -70 0 -40
-4 -70 -10 -70 -5 0 -10 -13 -10 -30 0 -16 -4 -30 -10 -30 -5 0 -10 -7 -10
-15 0 -20 -45 -65 -65 -65 -8 0 -15 -4 -15 -10 0 -6 -30 -10 -70 -10 -40 0
-70 4 -70 10 0 6 -7 10 -15 10 -26 0 -85 66 -85 95 0 14 -4 25 -10 25 -6 0
-10 37 -10 90 0 53 4 90 10 90 6 0 10 9 10 20 0 11 5 20 10 20 6 0 10 7 10 16
0 20 24 44 44 44 9 0 16 5 16 10 0 6 9 10 20 10 11 0 20 5 20 10 0 6 23 10 50
10 28 0 50 -4 50 -10z"/>
<path d="M2440 1210 c0 -5 -22 -10 -50 -10 -27 0 -50 -4 -50 -10 0 -5 -8 -10
-18 -10 -10 0 -24 -9 -32 -20 -8 -11 -20 -20 -28 -20 -17 0 -62 -45 -62 -62 0
-8 -9 -20 -20 -28 -11 -8 -20 -22 -20 -32 0 -10 -4 -18 -10 -18 -5 0 -10 -22
-10 -50 0 -27 -4 -50 -10 -50 -5 0 -10 -22 -10 -50 0 -27 5 -50 10 -50 6 0 10
-22 10 -50 0 -27 5 -50 10 -50 6 0 10 -9 10 -20 0 -11 5 -20 10 -20 6 0 10 -7
10 -15 0 -20 105 -125 125 -125 8 0 15 -4 15 -10 0 -5 14 -10 30 -10 17 0 30
-4 30 -10 0 -6 40 -10 100 -10 60 0 100 4 100 10 0 6 14 10 30 10 17 0 30 5
30 10 0 6 9 10 20 10 11 0 20 5 20 10 0 6 7 10 15 10 20 0 85 65 85 85 0 8 5
15 10 15 6 0 10 9 10 20 0 11 5 20 10 20 6 0 10 14 10 30 0 17 5 30 10 30 6 0
10 43 10 110 0 67 -4 110 -10 110 -5 0 -10 14 -10 30 0 17 -4 30 -10 30 -5 0
-10 7 -10 16 0 9 -13 29 -30 44 -16 15 -30 35 -30 44 0 9 -8 16 -18 16 -10 0
-24 9 -32 20 -8 12 -26 20 -42 20 -15 0 -28 5 -28 10 0 6 -18 10 -40 10 -22 0
-40 5 -40 10 0 6 -22 10 -50 10 -27 0 -50 -4 -50 -10z m100 -140 c0 -5 9 -10
20 -10 11 0 20 -4 20 -10 0 -5 7 -10 16 -10 20 0 44 -24 44 -44 0 -9 5 -16 10
-16 6 0 10 -13 10 -30 0 -16 5 -30 10 -30 6 0 10 -30 10 -70 0 -40 -4 -70 -10
-70 -5 0 -10 -13 -10 -30 0 -16 -4 -30 -10 -30 -5 0 -10 -7 -10 -15 0 -20 -45
-65 -65 -65 -8 0 -15 -4 -15 -10 0 -6 -30 -10 -70 -10 -40 0 -70 4 -70 10 0 6
-7 10 -15 10 -20 0 -85 65 -85 85 0 8 -4 15 -10 15 -6 0 -10 40 -10 100 0 60
4 100 10 100 6 0 10 9 10 20 0 11 5 20 10 20 6 0 10 7 10 15 0 25 46 65 75 65
14 0 25 5 25 10 0 6 23 10 50 10 28 0 50 -4 50 -10z"/>
<path d="M5580 1210 c0 -5 -22 -10 -50 -10 -27 0 -50 -4 -50 -10 0 -5 -7 -10
-15 -10 -20 0 -125 -105 -125 -125 0 -8 -4 -15 -10 -15 -5 0 -10 -9 -10 -20
l0 -20 50 0 c28 0 50 -4 50 -10 0 -5 18 -10 40 -10 l40 0 0 26 c0 29 21 54 44
54 9 0 16 5 16 10 0 6 35 10 85 10 l86 0 24 -25 c19 -18 25 -35 25 -70 l0 -45
-90 0 c-53 0 -90 -4 -90 -10 0 -5 -22 -10 -50 -10 -27 0 -50 -4 -50 -10 0 -5
-13 -10 -30 -10 -16 0 -30 -4 -30 -10 0 -5 -7 -10 -15 -10 -20 0 -85 -65 -85
-85 0 -8 -4 -15 -10 -15 -6 0 -10 -36 -10 -88 l0 -88 20 -14 c11 -8 20 -22 20
-32 0 -11 7 -18 20 -18 11 0 20 -4 20 -10 0 -5 9 -10 20 -10 11 0 20 -4 20
-10 0 -5 18 -10 40 -10 22 0 40 -4 40 -10 0 -5 14 -10 30 -10 17 0 30 5 30 10
0 6 23 10 50 10 28 0 50 5 50 10 0 6 13 10 28 10 16 0 34 8 42 20 20 28 30 25
30 -10 l0 -30 80 0 80 0 0 290 c0 187 -4 290 -10 290 -5 0 -10 7 -10 15 0 20
-45 65 -65 65 -8 0 -15 5 -15 10 0 6 -9 10 -20 10 -11 0 -20 5 -20 10 0 6 -18
10 -40 10 -22 0 -40 5 -40 10 0 6 -30 10 -70 10 -40 0 -70 -4 -70 -10z m200
-440 c0 -27 -4 -50 -10 -50 -5 0 -10 -7 -10 -16 0 -20 -24 -44 -44 -44 -9 0
-16 -4 -16 -10 0 -5 -9 -10 -20 -10 -11 0 -20 -4 -20 -10 0 -6 -28 -10 -65
-10 l-66 0 -24 25 c-16 15 -25 36 -25 55 0 33 38 80 65 80 8 0 15 5 15 10 0 6
18 10 40 10 22 0 40 5 40 10 0 6 30 10 70 10 l70 0 0 -50z"/>
<path d="M2960 850 l0 -350 90 0 90 0 0 230 c0 147 4 230 10 230 6 0 10 7 10
15 0 9 16 31 35 50 l34 35 61 0 c63 0 90 -13 90 -44 0 -9 5 -16 10 -16 6 0 10
-90 10 -250 l0 -250 90 0 90 0 0 50 c0 28 -4 50 -10 50 -6 0 -10 57 -10 150 0
93 4 150 10 150 6 0 10 14 10 30 0 17 5 30 10 30 6 0 10 7 10 15 0 9 16 31 35
50 l34 35 61 0 c63 0 90 -13 90 -44 0 -9 5 -16 10 -16 6 0 10 -90 10 -250 l0
-250 90 0 90 0 0 40 c0 22 -4 40 -10 40 -6 0 -10 90 -10 250 0 160 -4 250 -10
250 -5 0 -10 7 -10 15 0 20 -65 85 -85 85 -8 0 -15 5 -15 10 0 6 -43 10 -110
10 -67 0 -110 -4 -110 -10 0 -5 -7 -10 -16 -10 -8 0 -33 -18 -55 -41 l-39 -41
-39 41 c-22 23 -47 41 -55 41 -9 0 -16 5 -16 10 0 6 -40 10 -100 10 -60 0
-100 -4 -100 -10 0 -5 -9 -10 -20 -10 -11 0 -20 -4 -20 -10 0 -5 -9 -10 -20
-10 -11 0 -20 -4 -20 -10 0 -5 -4 -10 -10 -10 -5 0 -10 7 -10 16 0 33 -26 44
-104 44 l-76 0 0 -350z"/>
<path d="M5000 1110 c0 -53 4 -90 10 -90 6 0 10 -60 10 -160 0 -100 -4 -160
-10 -160 -6 0 -10 -40 -10 -100 l0 -100 90 0 90 0 0 350 0 350 -90 0 -90 0 0
-90z"/>
</g>
</svg>
