<?xml version="1.0" standalone="no"?>
<!DOCTYPE svg PUBLIC "-//W3C//DTD SVG 20010904//EN"
 "http://www.w3.org/TR/2001/REC-SVG-20010904/DTD/svg10.dtd">
<svg version="1.0" xmlns="http://www.w3.org/2000/svg"
 width="2388.000000pt" height="400.000000pt" viewBox="0 0 2388.000000 400.000000"
 preserveAspectRatio="xMidYMid meet">
<metadata>
Created by potrace 1.16, written by Peter Selinger 2001-2019
</metadata>
<g transform="translate(0.000000,400.000000) scale(0.100000,-0.100000)"
fill="white" stroke="none">
<path d="M0 2000 l0 -2000 11940 0 11940 0 0 2000 0 2000 -11940 0 -11940 0 0
-2000z m22498 1863 c-16 -2 -40 -2 -55 0 -16 2 -3 4 27 4 30 0 43 -2 28 -4z
m210 0 c-16 -2 -40 -2 -55 0 -16 2 -3 4 27 4 30 0 43 -2 28 -4z m118 -16 c3
-3 -14 -4 -38 -1 l-43 3 45 -9 c25 -6 55 -8 67 -5 12 3 32 0 45 -5 19 -8 17
-9 -12 -4 -58 11 -29 -3 54 -26 44 -11 86 -18 95 -15 8 3 12 3 8 -1 -5 -6 120
-50 151 -54 2 0 0 6 -4 13 -4 6 -4 9 0 5 4 -3 7 -10 6 -13 -3 -12 84 -65 97
-60 7 2 15 -1 19 -7 4 -7 3 -8 -4 -4 -7 4 -12 5 -12 2 0 -10 70 -47 79 -42 5
4 13 1 17 -5 5 -8 2 -10 -7 -5 -8 4 -5 0 6 -8 11 -9 25 -14 32 -12 7 3 15 0
19 -6 5 -7 2 -8 -7 -4 -8 4 -3 -2 11 -13 27 -23 45 -28 34 -9 -4 7 -3 8 5 4 6
-4 9 -11 6 -16 -5 -9 13 -25 29 -25 5 0 10 -8 12 -17 2 -17 44 -77 44 -64 0 4
5 4 11 0 8 -5 8 -8 0 -13 -8 -5 -4 -14 11 -27 22 -19 23 -19 8 1 -14 19 -14
19 3 6 10 -8 16 -20 13 -27 -3 -7 0 -16 6 -20 7 -5 8 -2 3 7 -8 12 -6 12 9 0
9 -8 15 -20 12 -28 -3 -8 -2 -12 3 -9 5 3 20 -10 35 -28 14 -19 22 -36 17 -38
-5 -2 -2 -25 5 -53 8 -27 17 -65 20 -82 l7 -33 -72 0 c-43 0 -71 4 -71 11 0 5
-4 8 -9 5 -10 -6 -25 24 -16 32 3 3 5 -1 5 -8 0 -7 2 -11 5 -8 6 6 -24 109
-37 125 -5 7 -15 11 -20 10 -6 -1 -13 4 -16 12 -3 10 0 11 9 5 12 -7 12 -5 0
9 -7 9 -17 15 -21 12 -5 -3 -11 -1 -15 5 -3 5 -1 10 6 10 8 0 8 4 -1 15 -7 8
-17 12 -24 8 -6 -3 -8 -3 -4 2 4 4 -4 16 -17 27 -13 10 -22 25 -19 32 3 7 -3
19 -13 27 -17 13 -17 13 -3 -6 14 -19 14 -19 -3 -6 -10 8 -16 20 -13 27 3 7
-10 22 -28 33 -36 23 -51 27 -41 11 10 -16 -1 -11 -16 7 -12 14 -12 16 1 9 8
-4 6 0 -5 8 -11 9 -25 14 -32 12 -7 -3 -15 0 -19 6 -4 7 -3 8 4 4 7 -4 12 -5
12 -3 0 7 -86 57 -97 57 -4 0 -1 -5 7 -11 13 -9 13 -10 0 -6 -8 2 -14 9 -13
15 3 14 -34 35 -47 27 -5 -3 -12 0 -16 6 -5 8 -3 9 6 4 9 -6 11 -4 5 4 -4 8
-19 11 -39 8 -17 -3 -40 -1 -51 4 -15 6 -11 7 15 3 69 -12 22 5 -115 42 -133
36 -301 58 -312 42 -2 -5 -16 -7 -31 -7 l-27 1 30 9 c39 10 -65 3 -205 -16
-58 -7 -134 -16 -169 -20 -70 -7 -157 -38 -154 -54 2 -6 -3 -8 -10 -5 -12 4
-167 -63 -167 -73 0 -2 5 -1 12 3 7 4 8 3 4 -4 -4 -6 -14 -8 -23 -5 -12 5 -14
3 -8 -7 6 -9 4 -11 -4 -5 -7 4 -31 -1 -52 -11 -28 -12 -36 -20 -27 -26 10 -6
8 -8 -4 -8 -10 0 -17 -4 -15 -9 1 -5 -2 -9 -6 -9 -15 0 -68 -55 -64 -67 4 -11
-111 -150 -125 -150 -4 0 -8 -4 -7 -9 0 -5 -4 -12 -9 -15 -5 -3 -12 -24 -15
-46 -5 -28 -4 -34 3 -20 11 26 12 -3 0 -30 -6 -14 -9 -16 -10 -5 -2 15 -13
-26 -44 -170 -19 -89 -20 -110 -1 -55 l14 40 -7 -40 c-11 -65 -5 -197 10 -206
7 -5 13 -14 14 -21 3 -33 5 -39 12 -34 4 2 14 -5 22 -17 12 -20 12 -21 -4 -8
-16 13 -16 12 -5 -12 7 -15 15 -25 18 -22 4 2 13 -6 21 -18 12 -20 12 -21 -4
-8 -16 13 -16 12 -5 -12 7 -15 15 -25 18 -22 4 2 13 -6 21 -18 12 -20 12 -21
-4 -8 -16 13 -16 12 -5 -12 7 -15 15 -25 18 -22 4 2 13 -6 21 -18 12 -21 12
-21 -5 -7 -17 14 -17 14 -1 -18 11 -21 23 -32 31 -28 7 2 19 -3 27 -12 11 -15
11 -16 -2 -7 -9 6 -4 0 10 -13 14 -12 30 -20 37 -18 6 3 17 -3 25 -12 12 -16
11 -16 -7 -2 -19 14 -19 14 -6 -3 8 -10 20 -16 27 -13 7 3 18 -3 26 -12 12
-16 11 -16 -7 -2 -19 14 -19 14 -6 -3 8 -10 20 -16 27 -13 7 3 18 -3 26 -12
12 -16 11 -16 -7 -2 -19 14 -19 14 -6 -3 8 -10 20 -16 27 -13 7 3 16 0 20 -6
4 -7 3 -8 -4 -4 -29 18 -8 -4 27 -28 41 -29 206 -80 229 -71 7 3 11 1 8 -3 -7
-11 90 -35 105 -26 7 4 9 3 6 -3 -4 -6 23 -17 67 -27 93 -22 405 -18 536 7
103 20 312 94 343 122 13 11 16 16 7 10 -13 -9 -13 -8 -2 7 8 9 19 15 25 12 7
-2 28 10 47 27 l35 30 -40 -27 -40 -26 35 30 c19 16 39 28 45 25 7 -2 18 4 26
14 13 17 13 17 -6 3 -18 -14 -19 -14 -7 2 8 9 19 15 25 12 7 -2 28 10 47 27
19 17 26 25 15 18 -18 -13 -19 -12 -7 3 8 9 20 14 27 12 16 -6 34 23 32 51 -1
11 3 19 11 17 13 -2 13 -1 17 36 1 12 6 26 10 30 5 4 5 -2 2 -13 -7 -19 -6
-19 7 -2 8 10 12 26 9 36 -3 10 1 22 8 26 8 6 10 4 5 -6 -4 -8 0 -5 8 6 9 11
14 25 11 33 -3 8 0 10 7 6 8 -5 9 -2 5 10 -4 9 -3 14 2 11 5 -3 12 -1 16 5 3
5 2 10 -3 10 -6 0 -6 21 0 53 13 70 21 74 14 7 -5 -49 -4 -51 4 -15 19 83 83
75 -585 75 l-595 0 0 55 0 55 666 0 666 0 -5 -57 c-3 -32 -8 -69 -12 -83 -5
-20 -5 -22 5 -10 10 13 11 12 6 -3 -3 -10 -6 -24 -6 -30 0 -8 -3 -7 -9 1 -6
10 -10 3 -15 -23 -4 -20 -10 -44 -13 -53 -4 -15 -3 -15 7 -2 10 13 11 12 6 -3
-3 -10 -6 -24 -6 -30 0 -7 -5 -6 -11 3 -8 11 -9 5 -5 -25 3 -22 1 -47 -5 -55
-7 -11 -8 -7 -4 15 3 17 -4 6 -15 -24 -11 -30 -28 -64 -37 -75 -13 -15 -10
-14 11 4 l29 25 -19 -26 c-10 -15 -28 -30 -39 -36 -11 -5 -19 -15 -17 -22 1
-7 -2 -10 -7 -7 -13 8 -34 -21 -25 -35 4 -7 3 -9 -3 -6 -13 8 -44 -24 -47 -49
-2 -9 -10 -18 -19 -20 -17 -2 -77 -42 -77 -50 0 -3 15 4 33 16 l32 22 -29 -25
c-16 -14 -35 -23 -42 -20 -6 2 -15 -1 -20 -8 -5 -8 -3 -10 6 -4 8 5 11 4 6 -3
-4 -6 -13 -9 -20 -6 -7 3 -19 -3 -27 -12 -12 -15 -12 -17 0 -9 9 5 12 4 7 -3
-4 -6 -13 -9 -20 -6 -8 3 -17 0 -22 -7 -5 -8 -3 -10 6 -4 9 5 11 4 6 -4 -4 -6
-12 -9 -17 -6 -11 7 -51 -19 -43 -28 3 -3 -2 -4 -13 -1 -10 2 -36 -5 -58 -16
-25 -13 -31 -18 -15 -14 21 4 22 3 7 -6 -9 -6 -22 -8 -27 -5 -14 8 -52 -4 -45
-15 3 -4 -3 -6 -12 -4 -10 2 -36 -5 -58 -16 -23 -11 -29 -17 -15 -14 14 4 22
3 18 -1 -4 -4 -35 -9 -70 -10 -35 -1 -99 -10 -143 -19 -155 -33 -246 -32 -515
4 -36 5 -107 14 -158 20 -64 7 -109 18 -144 36 -27 14 -56 23 -62 21 -7 -3
-19 -1 -27 5 -11 7 -9 8 6 3 15 -5 17 -3 8 6 -6 6 -25 12 -41 13 -17 1 -34 5
-39 9 -4 5 1 5 12 2 11 -3 -6 8 -39 25 -32 17 -65 29 -73 26 -9 -4 -11 -2 -7
6 5 8 2 9 -10 5 -9 -4 -14 -3 -11 2 3 5 -4 13 -16 16 -11 4 -37 20 -57 37 -25
20 -22 16 8 -12 25 -24 36 -38 25 -32 -27 14 -68 59 -71 77 -3 20 -56 83 -70
84 -5 1 -23 16 -40 34 l-29 32 35 -30 35 -30 -29 33 c-17 17 -36 32 -43 32 -8
0 -11 5 -8 11 8 12 -34 61 -46 54 -4 -3 -10 -1 -14 5 -3 5 -1 10 5 10 7 0 8 6
1 18 -5 9 -19 62 -30 117 -33 152 -49 212 -51 190 -2 -17 -3 -16 -10 5 -10 32
-12 63 -2 38 4 -9 7 27 8 80 0 65 -2 84 -6 57 l-7 -40 -1 35 c0 19 3 55 7 80
l8 45 3 -40 3 -40 7 45 c4 25 11 54 15 64 6 15 5 17 -5 11 -9 -5 -11 -4 -6 4
4 6 11 9 15 7 6 -4 111 194 111 210 0 3 -5 2 -10 -1 -6 -4 -5 4 1 19 7 14 16
24 22 23 5 -1 12 4 15 12 3 9 0 11 -8 6 -20 -12 5 27 31 50 23 19 23 19 9 0
-13 -17 -11 -16 18 4 17 12 32 25 32 28 0 3 -8 -1 -17 -8 -16 -13 -17 -12 -5
3 8 9 19 15 25 12 7 -2 28 10 47 27 l35 30 -40 -27 -40 -26 35 30 c19 17 38
28 43 25 11 -7 38 17 31 28 -3 5 2 6 10 3 9 -3 31 11 57 37 23 23 38 36 34 28
-8 -12 -6 -12 8 0 9 7 15 17 12 21 -3 4 2 11 11 14 8 3 13 2 10 -3 -3 -5 14
-1 39 8 24 8 42 17 40 19 -2 3 -19 -1 -37 -7 -26 -9 -30 -9 -20 1 7 7 32 12
57 11 49 -2 159 29 148 42 -5 4 -2 5 5 0 20 -11 177 35 160 47 -9 7 -7 8 7 4
11 -3 49 -1 85 4 l65 9 -58 -3 c-32 -1 -54 0 -48 3 12 8 530 6 537 -2z m-9263
-4 c-18 -2 -48 -2 -65 0 -18 2 -4 4 32 4 36 0 50 -2 33 -4z m1974 0 c-20 -2
-52 -2 -70 0 -17 2 0 4 38 4 39 0 53 -2 32 -4z m381 0 c-21 -2 -55 -2 -75 0
-21 2 -4 4 37 4 41 0 58 -2 38 -4z m2099 0 c-20 -2 -52 -2 -70 0 -17 2 0 4 38
4 39 0 53 -2 32 -4z m376 0 c-18 -2 -48 -2 -65 0 -18 2 -4 4 32 4 36 0 50 -2
33 -4z m644 0 c-20 -2 -52 -2 -70 0 -17 2 0 4 38 4 39 0 53 -2 32 -4z m1936 0
c-18 -2 -48 -2 -65 0 -18 2 -4 4 32 4 36 0 50 -2 33 -4z m-1878 -23 c-6 -10
65 -71 75 -65 4 2 20 -9 35 -25 16 -17 25 -30 20 -30 -16 0 30 -42 60 -55 16
-7 24 -14 18 -14 -7 -1 26 -37 73 -81 47 -44 89 -78 93 -75 4 2 25 -15 47 -38
l39 -42 -41 35 c-22 19 -16 11 14 -18 29 -29 57 -50 61 -48 4 3 25 -13 46 -34
22 -22 35 -40 30 -40 -5 0 4 -13 20 -30 16 -16 33 -30 38 -30 6 0 16 -8 24
-17 8 -10 11 -12 7 -4 -5 9 -3 12 5 7 6 -4 9 -11 6 -16 -5 -8 13 -25 28 -25 4
0 7 -4 8 -10 1 -15 41 -55 49 -50 5 3 11 -2 14 -11 3 -8 10 -13 15 -9 5 3 13
0 17 -6 5 -8 3 -10 -7 -4 -8 4 11 -18 41 -49 30 -31 60 -54 66 -52 6 2 31 -17
55 -42 l44 -47 -50 45 c-27 25 -41 34 -30 21 37 -45 297 -281 304 -276 4 2 28
-17 52 -43 l44 -47 -46 40 c-28 25 -23 18 13 -18 33 -32 63 -55 67 -53 4 3 21
-9 37 -27 l29 -32 -35 30 c-34 29 -34 29 4 -12 21 -23 42 -41 45 -40 3 1 7 -2
9 -8 7 -22 36 -45 56 -45 17 0 18 -2 6 -10 -13 -9 -13 -10 0 -11 8 -1 19 -1
23 0 5 1 6 -3 3 -8 -6 -10 11 -25 29 -26 6 -1 9 -6 8 -12 -1 -6 10 -21 25 -34
22 -20 24 -20 12 -3 -8 11 0 4 18 -15 17 -20 36 -35 41 -34 4 1 23 -15 42 -35
l34 -37 -40 35 -40 35 40 -43 c21 -23 43 -42 47 -42 4 0 9 370 10 823 l3 822
5 -835 5 -835 3 833 2 832 70 0 70 0 0 -924 0 -924 -81 -4 c-75 -3 -82 -1
-102 22 l-22 25 30 -25 c27 -22 27 -21 -4 13 -19 20 -44 37 -55 38 -12 0 -16
3 -10 5 6 3 -26 41 -72 85 -53 52 -87 78 -95 74 -7 -5 -10 -4 -5 3 6 11 -10
26 -29 27 -5 1 -9 6 -8 11 3 15 -70 85 -91 88 -20 3 -97 76 -90 87 5 9 -46 50
-56 44 -4 -2 -18 8 -31 23 l-24 27 30 -25 c28 -23 27 -22 -4 12 -19 20 -39 36
-45 35 -6 -1 -10 3 -9 9 1 6 -12 24 -29 40 -17 16 -28 23 -24 17 12 -22 -10
-14 -30 9 -19 22 -19 23 1 9 11 -8 -10 16 -47 53 -41 42 -72 65 -79 60 -7 -4
-9 -3 -6 3 3 5 -10 25 -31 44 l-37 34 30 -35 30 -35 -32 29 c-18 16 -30 33
-28 37 6 9 -66 70 -76 64 -4 -3 -13 3 -20 13 -13 16 -12 16 6 2 20 -14 20 -14
1 7 -10 12 -23 21 -30 20 -6 -1 -10 3 -9 10 3 13 -107 114 -117 108 -4 -2 -24
15 -46 38 l-39 42 40 -35 c34 -29 33 -27 -7 13 -26 27 -52 46 -56 43 -5 -3
-24 10 -42 29 -19 19 -30 35 -25 35 5 0 -2 11 -15 25 -13 14 -29 25 -37 25 -7
0 -13 5 -13 11 0 5 -5 7 -12 3 -6 -4 -8 -3 -5 3 4 6 -3 19 -16 29 -21 19 -21
19 -7 -1 14 -18 14 -19 -2 -6 -10 7 -16 17 -13 21 5 8 -22 35 -34 35 -3 0 -5
3 -4 7 4 10 -64 63 -79 63 -7 1 -12 6 -11 12 2 10 -43 58 -55 58 -4 0 -6 3 -5
7 3 9 -23 29 -44 33 -10 1 -17 7 -16 12 1 5 -20 32 -48 59 l-49 48 0 -837 0
-837 -70 0 -70 0 0 925 0 924 78 3 c82 3 95 1 87 -12z m-15245 0 c33 -6 22 -7
-40 -3 -47 3 -87 7 -89 9 -8 7 83 3 129 -6z m5670 0 c45 -6 29 -7 -55 -3 -66
3 -122 7 -124 9 -7 6 109 2 179 -6z m4082 -847 l3 -858 5 860 5 860 3 -857 2
-858 758 -2 757 -3 -770 -5 -770 -5 768 -3 767 -2 0 -60 0 -60 -835 0 -835 0
0 925 0 925 70 0 70 0 2 -857z m1825 -525 c-1 -255 -2 -47 -2 462 0 509 1 717
2 463 2 -255 2 -671 0 -925z m143 457 l0 -925 -65 0 -65 0 0 925 0 925 65 0
65 0 0 -925z m419 895 c15 -24 15 -24 -3 -10 -18 14 -19 14 -7 -8 7 -13 17
-20 23 -16 8 5 9 1 5 -10 -4 -9 -3 -14 2 -11 5 3 12 1 16 -5 3 -5 1 -10 -5
-10 -6 0 -8 -5 -5 -10 4 -6 11 -7 17 -4 7 5 9 1 5 -9 -3 -9 -3 -16 1 -16 18 3
26 -2 15 -9 -10 -6 -10 -12 3 -28 8 -10 12 -13 8 -5 -5 9 -3 12 5 7 6 -4 11
-13 10 -19 -3 -25 1 -38 10 -32 6 3 15 -5 22 -17 12 -22 11 -22 -6 -8 -17 14
-18 14 -6 -8 7 -13 17 -20 23 -16 8 5 9 1 5 -10 -4 -9 -3 -14 2 -11 5 3 12 1
16 -5 3 -5 1 -10 -5 -10 -6 0 -8 -5 -5 -10 4 -6 11 -8 16 -5 9 6 10 5 14 -33
1 -13 8 -29 15 -35 10 -9 11 -9 5 2 -6 10 -4 12 4 7 6 -4 11 -13 10 -19 -3
-25 1 -37 12 -35 6 2 14 -3 17 -11 3 -9 0 -11 -8 -6 -9 6 -9 3 0 -14 6 -12 15
-19 19 -16 5 3 12 -2 15 -11 4 -9 2 -13 -5 -8 -7 4 -7 0 1 -15 6 -12 15 -19
19 -16 11 6 23 -23 16 -35 -3 -5 4 -14 15 -20 11 -6 20 -16 19 -23 -3 -25 1
-37 12 -34 6 1 14 -4 17 -12 3 -9 0 -11 -8 -6 -9 6 -9 3 -1 -14 7 -11 14 -21
17 -21 3 0 2 6 -2 13 -5 8 -2 8 9 -2 19 -15 24 -36 6 -25 -8 4 -8 0 0 -15 7
-11 14 -21 17 -21 3 0 2 6 -2 13 -5 9 -4 9 6 0 7 -7 14 -23 15 -35 1 -13 5
-21 10 -20 9 4 25 -17 25 -33 0 -5 -5 -3 -10 5 -5 8 -10 10 -10 4 0 -7 11 -19
25 -28 25 -17 36 -43 13 -31 -7 4 -1 -3 15 -15 26 -21 39 -49 16 -34 -8 4 -8
0 0 -15 12 -22 27 -30 16 -8 -4 6 1 3 9 -8 9 -11 14 -25 12 -32 -3 -7 0 -15 6
-19 7 -5 8 -2 4 7 -4 8 0 5 8 -6 9 -11 14 -25 11 -33 -3 -8 0 -10 7 -6 8 5 9
2 5 -10 -4 -10 -3 -15 3 -11 11 7 33 -32 25 -45 -4 -6 -1 -9 6 -8 6 2 14 -3
17 -11 3 -9 0 -11 -8 -6 -9 6 -9 3 -1 -14 7 -11 14 -21 17 -21 3 0 2 5 -1 10
-3 6 -4 10 -1 10 3 0 10 -10 17 -21 8 -16 8 -20 -1 -14 -9 6 -9 2 -1 -14 7
-11 14 -21 17 -21 3 0 2 5 -1 10 -3 6 -4 10 -1 10 4 0 56 -89 56 -97 0 -2 -5
-1 -12 3 -7 4 -8 3 -4 -5 4 -6 12 -8 18 -5 7 5 9 1 5 -9 -4 -10 -2 -16 5 -14
6 1 13 -4 16 -12 3 -9 0 -11 -8 -6 -9 6 -9 3 -1 -14 7 -11 14 -21 17 -21 3 0
2 5 -1 10 -3 6 -4 10 -1 10 3 0 10 -10 17 -21 8 -16 8 -20 -1 -14 -9 6 -9 2
-1 -14 7 -11 14 -21 17 -21 3 0 2 5 -1 10 -3 6 -4 10 -1 10 3 0 13 -15 21 -32
14 -29 14 -31 0 -14 -8 11 -15 15 -15 8 0 -7 9 -17 19 -24 10 -6 17 -17 14
-24 -2 -6 1 -15 8 -20 8 -5 10 -3 4 7 -5 9 -5 11 2 4 19 -18 67 -109 54 -101
-10 7 -11 4 -2 -13 7 -11 14 -21 17 -21 3 0 2 5 -1 10 -3 6 -4 10 -1 10 3 0
13 -15 21 -32 14 -29 14 -31 0 -14 -8 11 -15 16 -15 10 0 -5 9 -20 20 -34 15
-18 18 -20 13 -6 -4 13 -3 17 5 12 8 -5 11 0 9 16 -1 14 3 23 13 23 9 0 15 9
15 22 0 11 4 25 9 30 5 5 6 2 2 -7 -4 -8 -1 -6 8 4 8 10 13 23 10 27 -3 5 0
17 6 26 10 16 11 16 6 -2 -6 -19 -5 -19 8 -2 8 11 13 24 10 31 -2 6 3 20 12
31 8 11 12 14 8 6 -5 -10 -3 -12 5 -7 7 4 10 13 8 19 -4 12 29 87 39 87 3 0 2
-4 -1 -10 -3 -5 -4 -10 -1 -10 3 0 10 10 17 21 8 16 8 20 -1 14 -9 -6 -9 -2
-1 14 7 11 14 21 17 21 3 0 2 -4 -1 -10 -3 -5 -4 -10 -1 -10 3 0 10 10 17 21
8 16 8 20 -1 14 -7 -4 -5 6 4 24 9 17 19 31 22 31 3 0 2 -5 -2 -12 -4 -7 -3
-8 5 -4 6 4 9 11 6 16 -6 9 31 90 41 90 3 0 2 -4 -1 -10 -3 -5 -4 -10 -1 -10
3 0 10 10 17 21 8 16 8 20 -1 14 -9 -6 -9 -2 -1 14 7 11 14 21 17 21 3 0 2 -4
-1 -10 -3 -5 -4 -10 -1 -10 3 0 10 10 17 21 8 17 8 20 -1 14 -8 -5 -11 -3 -8
6 3 8 11 13 17 11 7 -1 10 2 6 8 -9 14 14 52 27 44 7 -4 8 -3 4 4 -7 11 19 72
30 72 3 0 2 -4 -1 -10 -3 -5 -4 -10 -1 -10 3 0 10 10 17 21 8 16 8 20 -1 14
-9 -6 -9 -2 -1 14 7 11 14 21 17 21 3 0 2 -4 -1 -10 -3 -5 -4 -10 -1 -10 3 0
10 10 17 21 8 15 8 19 0 15 -16 -10 -14 -2 10 38 12 20 26 33 32 29 6 -3 7 -1
3 5 -7 11 19 72 30 72 3 0 2 -5 -2 -12 -4 -7 -3 -8 4 -4 6 4 9 12 6 19 -2 7 3
21 12 32 8 11 13 14 9 8 -11 -22 4 -14 16 8 8 15 8 19 0 15 -18 -11 -13 10 6
25 11 10 14 10 9 2 -4 -7 -5 -13 -2 -13 3 0 10 10 17 21 8 15 8 19 0 15 -23
-15 -10 14 14 30 14 9 25 21 25 28 0 6 -5 4 -10 -4 -6 -10 -10 -11 -10 -3 0 7
9 18 19 25 10 6 17 17 15 23 -3 6 3 19 12 30 8 11 13 14 9 8 -11 -22 4 -14 16
8 8 16 8 20 -1 14 -9 -6 -9 -2 -1 14 7 11 14 21 17 21 3 0 2 -4 -1 -10 -3 -5
-4 -10 -1 -10 3 0 10 10 17 21 8 15 8 19 0 15 -23 -15 -10 14 14 30 26 17 37
40 43 92 1 6 7 11 14 10 7 -2 13 4 14 12 3 37 5 41 13 35 6 -3 15 4 21 16 9
17 9 20 0 14 -8 -5 -11 -3 -8 6 3 8 11 13 17 11 11 -2 15 10 12 35 -1 6 4 15
10 19 8 5 10 3 4 -7 -6 -11 -5 -11 5 -2 7 6 14 22 15 35 4 38 5 39 14 33 5 -3
12 -1 16 5 3 5 1 10 -5 10 -6 0 -8 5 -5 10 4 6 11 8 16 5 5 -3 6 1 3 10 -4 10
-2 15 6 13 7 -2 15 3 18 11 3 9 0 11 -8 6 -8 -5 -11 -4 -7 2 7 11 177 18 177
8 0 -4 -5 -15 -10 -26 -8 -13 -7 -19 0 -19 6 0 8 -5 5 -10 -4 -6 -11 -8 -16
-5 -5 3 -6 -2 -2 -11 4 -10 2 -15 -3 -11 -6 3 -16 -4 -24 -16 -11 -19 -11 -21
1 -12 8 6 7 2 -4 -7 -10 -10 -16 -22 -13 -27 4 -5 1 -13 -5 -17 -8 -5 -10 -2
-5 7 4 8 0 5 -8 -5 -13 -16 -13 -22 -3 -28 11 -7 3 -12 -15 -9 -4 0 -4 -7 -1
-16 4 -10 2 -14 -5 -9 -6 3 -13 2 -17 -4 -3 -5 -1 -10 5 -10 6 0 8 -5 5 -10
-4 -6 -11 -8 -16 -5 -5 3 -6 -2 -2 -11 4 -11 2 -15 -4 -11 -6 4 -14 0 -17 -9
-3 -8 -2 -12 4 -9 6 3 7 -1 4 -9 -3 -9 -10 -14 -15 -11 -10 7 -28 -26 -22 -42
2 -6 -1 -15 -8 -19 -8 -4 -9 -3 -5 4 4 7 5 12 2 12 -3 0 -10 -10 -17 -21 -8
-15 -8 -19 0 -15 18 11 13 -10 -6 -25 -11 -10 -14 -10 -9 -1 4 6 5 12 2 12 -3
0 -10 -10 -17 -21 -8 -15 -8 -19 0 -15 23 15 10 -14 -14 -30 -26 -17 -37 -41
-43 -92 -1 -7 -6 -11 -11 -8 -5 3 -14 -1 -21 -9 -10 -12 -10 -15 0 -15 6 0 10
-6 8 -12 -3 -7 -10 -13 -16 -13 -7 0 -21 -15 -32 -32 -11 -18 -15 -33 -9 -33
5 0 7 -5 4 -10 -4 -6 -11 -7 -17 -4 -7 5 -9 1 -5 -9 3 -9 3 -16 -1 -16 -19 3
-25 -2 -12 -11 13 -8 12 -10 -2 -10 -10 0 -18 -5 -18 -11 0 -5 5 -7 12 -3 7 4
8 3 4 -5 -4 -6 -11 -9 -16 -6 -5 3 -14 -3 -19 -14 -14 -26 -14 -34 1 -25 7 4
8 3 4 -5 -4 -6 -12 -9 -17 -6 -5 4 -9 4 -9 1 0 -2 -3 -12 -7 -22 -4 -12 -3
-15 5 -10 18 11 14 0 -5 -15 -14 -12 -16 -12 -9 1 4 8 0 6 -8 -4 -13 -16 -13
-22 -3 -28 11 -7 3 -12 -15 -9 -4 0 -5 -6 -1 -15 3 -8 2 -14 -3 -13 -21 4 -28
-2 -14 -11 13 -8 13 -10 -2 -10 -12 0 -15 -5 -11 -17 4 -11 3 -14 -5 -9 -13 8
-52 -62 -45 -81 2 -6 -1 -15 -8 -19 -8 -5 -10 -3 -5 7 4 8 0 5 -8 -5 -13 -16
-13 -22 -3 -28 11 -7 3 -12 -15 -9 -4 0 -5 -6 -2 -14 4 -9 -6 -27 -25 -44 -17
-16 -31 -33 -31 -38 0 -4 5 -1 10 7 5 8 10 11 10 5 0 -12 -20 -43 -20 -31 0
11 -30 -14 -30 -26 0 -5 5 -6 11 -2 8 4 8 0 0 -15 -7 -11 -14 -21 -17 -21 -3
0 -2 5 1 10 3 6 4 10 1 10 -3 0 -10 -10 -17 -21 -8 -16 -8 -20 1 -14 9 6 9 2
1 -14 -7 -11 -14 -21 -17 -21 -3 0 -2 6 2 13 5 8 2 7 -10 -2 -10 -9 -13 -17
-6 -21 6 -4 5 -13 -6 -26 -8 -10 -13 -13 -9 -6 3 6 4 12 1 12 -3 0 -13 -14
-22 -31 -12 -23 -12 -30 -2 -25 7 4 3 -1 -9 -10 -24 -17 -32 -41 -10 -28 7 5
7 1 -3 -12 -22 -29 -24 -30 -17 -11 10 28 -1 19 -19 -15 -16 -32 -16 -32 1
-18 17 14 17 14 5 -7 -8 -12 -17 -20 -21 -17 -5 2 -13 -6 -20 -18 -12 -22 -11
-22 6 -8 17 14 18 14 6 -8 -7 -12 -16 -20 -20 -17 -5 3 -12 -2 -15 -11 -4 -9
-2 -13 5 -8 7 4 7 -1 -1 -15 -6 -12 -18 -25 -26 -28 -11 -4 -12 -8 -4 -13 7
-5 6 -11 -6 -21 -16 -12 -17 -12 -10 1 4 8 0 6 -8 -4 -11 -14 -13 -22 -5 -27
8 -4 2 -13 -15 -24 -25 -16 -39 -44 -14 -29 7 4 8 3 4 -5 -4 -6 -12 -9 -17 -6
-5 4 -10 0 -10 -7 -1 -7 -2 -20 -3 -28 -1 -12 -20 -16 -88 -20 -47 -3 -85 -3
-83 -1 2 2 -6 12 -18 23 -12 11 -16 16 -8 12 9 -4 12 -2 9 7 -3 8 -11 13 -17
11 -7 -1 -10 2 -6 8 8 12 -13 52 -24 45 -5 -3 -12 2 -15 11 -3 8 -2 12 4 9 20
-12 9 6 -17 32 -16 15 -22 23 -15 19 10 -6 9 0 -2 23 -9 17 -19 31 -22 31 -3
0 -2 -6 2 -12 5 -9 2 -9 -9 1 -19 15 -24 36 -6 25 8 -4 8 0 0 15 -7 11 -14 21
-17 21 -3 0 -2 -4 1 -10 3 -5 4 -10 1 -10 -3 0 -10 10 -17 21 -8 16 -8 20 1
14 9 -6 9 -2 1 14 -12 22 -27 30 -16 9 4 -7 -1 -4 -9 6 -9 11 -16 25 -16 30 0
6 5 4 10 -4 5 -8 10 -11 10 -7 0 5 -14 22 -31 38 -19 17 -29 35 -25 44 3 8 2
14 -2 14 -18 -3 -26 2 -15 9 10 6 10 12 -2 28 -15 19 -15 19 -9 -1 7 -20 7
-20 -9 0 -8 11 -11 22 -6 26 5 3 2 14 -7 25 -8 10 -13 13 -9 7 11 -22 -4 -14
-16 8 -7 15 -8 19 0 15 7 -5 9 -1 5 8 -3 9 -10 14 -15 11 -4 -3 -13 5 -20 17
-12 22 -11 22 6 8 17 -14 18 -14 6 8 -7 13 -17 20 -23 16 -8 -5 -9 -1 -5 10 4
9 3 14 -2 11 -5 -3 -12 -1 -16 5 -3 5 -1 10 5 10 6 0 8 5 5 10 -4 6 -10 8 -14
6 -4 -3 -13 5 -21 17 -12 21 -12 21 5 7 17 -14 17 -14 1 18 -9 17 -19 32 -22
32 -3 0 -2 -5 2 -12 4 -7 3 -8 -5 -4 -6 4 -9 11 -6 16 7 12 -5 41 -15 35 -5
-3 -11 -1 -15 5 -3 5 -1 10 5 10 8 0 8 6 0 20 -6 11 -15 18 -20 15 -6 -3 -7 1
-4 9 3 9 1 16 -5 16 -6 0 -10 6 -8 13 1 6 -3 11 -10 10 -8 -2 -10 4 -6 14 4
11 3 14 -6 9 -8 -6 -11 -2 -9 10 2 11 -2 18 -9 17 -13 -3 -17 9 -14 34 1 7 -8
17 -19 23 -11 6 -18 15 -15 20 7 12 -5 41 -15 35 -5 -3 -12 0 -16 6 -4 8 -3 9
4 5 16 -10 15 5 -2 26 -7 10 -16 15 -20 11 -4 -4 -4 -1 -1 8 3 8 -2 23 -11 34
-8 11 -12 13 -8 5 7 -13 6 -13 -9 -1 -10 8 -15 21 -12 32 3 9 0 21 -6 25 -8 5
-9 3 -4 -7 8 -12 6 -12 -8 0 -19 15 -24 36 -6 25 8 -4 8 0 0 15 -12 22 -27 30
-16 9 4 -7 -1 -4 -9 7 -9 11 -15 24 -12 30 2 6 -5 17 -15 23 -10 7 -19 18 -19
25 0 8 4 7 10 -3 6 -9 10 -10 10 -3 0 7 -8 17 -19 22 -23 13 -63 79 -50 83 5
2 2 12 -6 23 -9 11 -14 14 -10 8 11 -22 -4 -14 -16 8 -8 16 -8 20 1 14 9 -6 9
-2 1 14 -7 11 -14 21 -17 21 -3 0 -2 -4 1 -10 3 -5 4 -10 1 -10 -3 0 -10 10
-17 21 -8 17 -8 20 1 14 8 -5 11 -3 8 6 -3 8 -11 13 -18 11 -8 -2 -10 3 -6 13
3 9 2 13 -3 10 -5 -3 -12 -1 -16 5 -3 5 -1 10 5 10 6 0 8 5 5 10 -4 6 -10 8
-14 6 -4 -3 -13 5 -21 17 -12 21 -12 21 5 7 17 -14 17 -14 1 18 -9 17 -19 32
-22 32 -3 0 -2 -5 2 -12 4 -7 3 -8 -5 -4 -6 4 -9 12 -5 17 3 6 -3 17 -15 25
-12 9 -19 19 -16 24 7 12 -5 41 -15 35 -5 -3 -11 -1 -15 5 -3 5 0 10 7 11 7 0
4 4 -7 9 -11 5 -14 9 -7 9 7 1 10 6 7 11 -4 6 -11 8 -16 5 -5 -3 -6 2 -2 11 4
11 3 15 -5 10 -6 -3 -14 -1 -18 5 -4 8 -3 9 4 5 7 -4 12 -2 12 4 0 7 29 10 86
8 80 -3 88 -5 103 -28z m2288 -1352 c-1 -255 -2 -47 -2 462 0 509 1 717 2 463
2 -255 2 -671 0 -925z m153 457 l0 -925 -70 0 -70 0 0 925 0 925 70 0 70 0 0
-925z m17 -457 c-1 -255 -2 -47 -2 462 0 509 1 717 2 463 2 -255 2 -671 0
-925z m-14627 1358 c85 -8 214 -20 285 -26 72 -7 152 -19 179 -27 27 -8 55
-12 62 -9 8 3 13 0 11 -7 -1 -7 8 -12 20 -11 12 0 19 -4 16 -9 -4 -6 4 -7 18
-4 13 3 31 2 39 -4 11 -8 9 -9 -10 -4 -24 5 -23 5 3 -10 16 -9 39 -14 51 -11
13 3 31 -1 42 -10 18 -14 18 -14 -4 -4 -13 7 -26 10 -28 7 -7 -6 121 -58 137
-55 7 2 13 -4 14 -12 0 -8 7 -15 15 -15 8 -1 14 -5 13 -10 -1 -6 20 -33 45
-61 26 -27 40 -41 32 -30 -8 12 16 -8 52 -43 36 -35 64 -69 62 -75 -2 -6 14
-78 35 -161 22 -82 37 -153 35 -157 -3 -4 -154 -8 -335 -8 l-329 0 -10 24 c-5
13 -12 26 -17 28 -4 2 -28 26 -53 53 l-45 50 55 -50 55 -50 -54 57 c-30 31
-57 56 -60 55 -3 -1 -6 0 -6 3 0 3 -10 19 -22 36 -25 35 -95 61 -134 49 -16
-4 -20 -3 -11 3 9 6 -5 15 -50 28 -104 31 -354 18 -332 -18 5 -7 2 -8 -5 -3
-14 8 -203 -64 -196 -75 2 -4 -5 -6 -17 -6 -15 1 -22 -6 -23 -22 -1 -12 -8
-28 -15 -35 -10 -10 -11 -9 -5 2 6 10 4 12 -4 7 -6 -4 -9 -16 -6 -26 4 -12 -2
-24 -16 -33 -13 -10 -18 -20 -14 -28 6 -8 4 -10 -5 -4 -10 6 -12 4 -7 -8 3 -9
2 -16 -2 -14 -5 1 -9 -2 -9 -7 0 -5 -5 -12 -10 -15 -23 -15 -41 -74 -46 -147
l-5 -79 10 70 c14 101 15 99 14 -27 0 -62 -3 -97 -6 -78 l-6 35 -2 -33 c-1
-39 15 -75 31 -66 6 4 9 1 6 -7 -7 -18 20 -70 43 -87 11 -8 16 -19 12 -29 -5
-12 -3 -14 7 -8 8 5 11 4 6 -3 -3 -6 10 -27 29 -46 20 -20 32 -36 27 -36 -4 0
-13 5 -20 12 -8 8 -12 9 -12 1 0 -15 66 -37 81 -27 8 5 9 3 4 -6 -6 -10 -4
-12 9 -7 9 4 15 3 12 -2 -8 -12 110 -55 125 -45 7 4 10 3 5 -4 -8 -13 25 -24
50 -16 15 4 16 4 5 -4 -34 -24 145 -28 300 -6 26 4 58 16 71 28 13 11 17 17 8
11 -13 -9 -13 -8 -2 7 8 9 19 15 26 12 7 -3 19 3 27 13 13 17 13 17 -6 3 -19
-14 -19 -14 -6 2 7 10 17 15 22 12 9 -5 109 62 109 73 0 3 -8 -1 -17 -8 -16
-11 -16 -11 -5 1 7 8 20 15 29 15 21 0 53 54 59 97 3 18 7 39 9 46 3 9 82 12
346 12 l342 0 -7 -77 c-4 -43 -9 -89 -12 -103 -4 -22 -3 -23 5 -5 8 17 10 17
10 3 1 -10 -8 -22 -19 -28 -11 -6 -20 -16 -20 -23 0 -7 4 -6 10 3 5 8 10 10
10 4 0 -6 -10 -19 -22 -28 -13 -9 -17 -14 -11 -11 8 4 11 1 7 -9 -3 -9 -10
-14 -14 -11 -4 3 -11 -2 -14 -11 -4 -10 -2 -13 7 -9 6 4 5 1 -4 -7 -9 -7 -14
-18 -12 -23 2 -6 -4 -20 -13 -30 -8 -11 -13 -14 -9 -7 3 6 4 12 1 12 -3 0 -13
-15 -22 -32 -16 -32 -16 -32 1 -18 17 14 18 14 6 -8 -7 -12 -16 -20 -20 -17
-5 3 -11 -2 -15 -10 -3 -8 0 -15 6 -15 6 0 1 -11 -11 -24 -13 -14 -29 -22 -36
-20 -7 3 -16 0 -21 -7 -5 -8 -3 -10 6 -4 9 5 11 4 6 -4 -4 -6 -11 -9 -16 -6
-5 3 -51 -22 -102 -56 -83 -55 -138 -96 -99 -74 9 5 12 4 7 -3 -4 -6 -13 -9
-20 -6 -8 3 -17 0 -22 -7 -5 -8 -3 -10 7 -4 12 8 12 6 0 -8 -15 -19 -26 -23
-15 -6 4 7 0 9 -12 6 -11 -3 -72 -18 -136 -32 -65 -15 -118 -29 -118 -32 0 -2
15 -2 33 1 24 5 27 4 12 -3 -11 -5 -34 -7 -51 -5 -16 3 -57 -1 -90 -10 -32 -8
-122 -19 -199 -23 -139 -8 -139 -8 -60 -14 l80 -5 -75 -2 c-42 -1 -81 3 -86 8
-6 6 -86 12 -178 15 -93 2 -171 7 -175 10 -3 4 8 4 24 1 23 -5 21 -3 -10 9
-23 9 -55 14 -75 11 -22 -4 -28 -3 -16 2 24 10 -184 66 -212 58 -11 -4 -30 -2
-43 4 -21 9 -20 9 11 5 l35 -5 -40 15 c-22 9 -45 13 -51 11 -7 -3 -18 3 -26
12 -12 16 -11 16 7 2 19 -14 19 -14 6 3 -8 10 -20 16 -27 13 -7 -3 -18 3 -26
12 -12 16 -11 16 7 2 20 -15 20 -15 1 8 -11 12 -25 21 -32 18 -6 -2 -27 9 -45
25 l-34 30 40 -27 40 -26 -35 31 c-19 17 -40 29 -47 26 -6 -2 -17 4 -25 13
-12 16 -11 16 6 2 11 -8 17 -10 13 -3 -4 7 -22 22 -40 34 l-32 23 20 -24 c15
-18 9 -16 -22 9 -24 18 -43 37 -43 42 0 6 -4 8 -8 5 -4 -2 -8 8 -7 22 0 15 -5
26 -12 25 -6 -1 -14 4 -17 13 -3 8 -2 12 4 9 5 -3 5 7 -1 25 -6 16 -15 28 -19
25 -5 -3 -14 4 -21 17 -8 15 -9 23 -1 26 6 2 3 20 -10 50 -22 50 -44 82 -33
47 5 -15 4 -16 -3 -6 -5 7 -7 21 -5 31 3 10 -2 31 -11 48 -9 17 -16 49 -16 70
0 22 -3 68 -7 103 l-8 64 -6 -45 -6 -45 -1 46 c-1 25 2 49 7 55 12 11 34 144
26 152 -3 3 -5 -3 -5 -13 0 -10 -2 -16 -5 -13 -3 3 -2 20 2 38 5 28 8 31 13
15 7 -21 13 1 24 95 4 33 3 38 -3 20 -7 -20 -9 -21 -9 -5 0 11 4 31 8 45 7 21
8 22 10 5 1 -18 2 -17 11 5 6 13 9 38 7 55 -2 21 1 30 12 30 8 0 14 8 14 18
-1 9 2 15 6 12 4 -2 16 5 26 18 13 14 14 18 4 12 -9 -6 -2 2 15 17 16 15 30
33 30 41 0 14 93 137 103 137 2 0 -2 -8 -9 -17 -13 -16 -12 -17 3 -5 9 8 14
20 11 28 -3 10 2 14 18 14 19 0 21 2 9 10 -11 7 -7 9 15 7 19 -1 29 2 28 10
-2 8 4 10 14 6 11 -4 14 -3 9 5 -4 8 -2 10 8 6 8 -3 27 2 43 11 15 9 20 14 10
11 -11 -4 -16 -2 -12 5 4 6 13 8 21 5 18 -7 45 4 38 15 -3 5 3 6 12 2 12 -4
15 -3 10 5 -4 7 -2 10 7 7 7 -3 34 4 60 15 46 21 64 35 30 24 -14 -5 -15 -4
-4 4 8 6 21 8 29 4 11 -4 13 -1 7 8 -5 8 -4 11 2 7 6 -4 39 0 74 7 161 36 226
46 317 48 85 1 90 2 42 8 -103 13 4 10 160 -4z m5745 -6 c83 -5 200 -18 260
-31 61 -12 125 -22 143 -22 18 0 28 -3 22 -7 -16 -10 57 -32 83 -25 16 4 18 4
8 -3 -11 -8 -9 -11 8 -17 11 -3 26 -3 32 1 8 5 9 3 4 -6 -6 -10 -3 -12 13 -8
12 4 25 1 29 -4 4 -7 1 -8 -8 -4 -8 4 -5 0 6 -8 11 -9 25 -14 33 -11 7 2 10 1
7 -5 -7 -12 32 -33 47 -24 7 5 8 3 3 -6 -6 -10 -4 -12 9 -7 10 4 15 3 11 -3
-5 -8 34 -34 62 -43 5 -1 7 -5 6 -8 -3 -8 90 -98 102 -99 6 0 10 -4 10 -10 0
-5 9 -16 20 -24 13 -10 15 -15 6 -16 -11 0 -11 -3 -1 -15 7 -8 16 -12 21 -9 8
5 10 1 13 -36 1 -8 8 -14 15 -12 7 1 10 -2 6 -8 -3 -5 -1 -10 5 -10 6 0 9 -4
6 -9 -3 -5 1 -24 9 -42 8 -19 14 -28 15 -21 0 7 -5 23 -11 35 -10 21 -10 21 6
2 10 -13 13 -29 9 -53 -4 -22 -3 -33 3 -29 6 4 15 -5 22 -19 16 -35 13 -44 -5
-14 -9 14 -13 17 -10 7 4 -11 9 -30 12 -43 3 -13 10 -22 14 -19 11 7 20 -21
19 -58 -2 -30 -2 -30 -9 8 -4 22 -5 0 -1 -50 8 -114 8 -178 -1 -285 -3 -47 -3
-67 2 -45 l7 40 1 -35 c1 -36 -15 -89 -18 -60 -1 8 -8 -5 -15 -30 -8 -24 -12
-46 -10 -49 3 -2 5 2 5 9 0 7 2 11 5 8 10 -9 -7 -38 -18 -31 -7 4 -8 -5 -4
-26 6 -27 2 -36 -20 -57 -14 -13 -20 -24 -13 -24 14 0 8 -11 -7 -12 -13 -1
-35 -37 -28 -48 4 -6 1 -9 -6 -8 -7 2 -13 -2 -14 -9 0 -6 -4 -15 -9 -20 -5 -5
-6 -2 -2 7 5 8 -19 -14 -52 -50 -33 -36 -57 -71 -55 -77 3 -7 -2 -13 -10 -13
-9 0 -19 -5 -23 -12 -5 -7 -2 -8 7 -3 8 5 11 4 6 -1 -5 -5 -12 -9 -15 -9 -21
-2 -131 -59 -126 -66 3 -5 -3 -6 -12 -2 -12 4 -15 3 -10 -5 4 -8 2 -10 -8 -6
-8 3 -27 -2 -43 -11 -15 -9 -19 -13 -8 -10 11 3 16 2 11 -2 -4 -4 -20 -8 -34
-8 -16 0 -26 -5 -25 -12 2 -7 -3 -10 -11 -7 -8 3 -31 -4 -53 -16 -21 -12 -30
-19 -20 -16 11 4 16 2 12 -5 -4 -5 -14 -7 -23 -5 -10 3 -35 -1 -57 -10 l-40
-15 35 6 c25 3 31 2 20 -5 -8 -6 -32 -8 -52 -4 -20 3 -72 -1 -115 -10 -43 -8
-143 -18 -223 -23 -137 -7 -141 -8 -70 -14 l75 -5 -70 -2 c-39 -1 -75 2 -81 8
-5 5 -90 12 -188 15 -99 2 -182 7 -185 11 -3 3 10 3 29 -1 19 -4 33 -5 30 -2
-12 13 -326 88 -346 83 -12 -3 -33 -1 -46 4 -20 9 -18 9 12 5 31 -4 32 -4 11
5 -13 6 -38 12 -55 14 -18 2 -31 9 -31 17 0 8 -8 14 -17 14 -10 0 -23 7 -30
15 -11 12 -10 12 7 0 19 -14 19 -14 6 3 -8 10 -20 16 -27 13 -7 -3 -16 0 -20
6 -5 7 -2 8 7 3 12 -8 12 -6 0 8 -7 10 -21 16 -30 15 -8 -2 -16 4 -16 12 0 8
-8 15 -17 15 -10 0 -23 7 -30 15 -11 12 -10 12 7 0 19 -14 19 -14 6 3 -8 10
-20 16 -27 13 -7 -3 -16 0 -20 6 -5 7 -2 8 7 3 12 -8 12 -6 0 8 -7 10 -21 16
-30 15 -8 -2 -16 4 -16 12 0 8 -8 14 -17 14 -10 -1 -16 3 -15 9 1 6 -3 11 -10
12 -15 0 -30 15 -15 15 9 0 9 6 0 25 -6 13 -15 23 -21 22 -5 -1 -12 4 -15 12
-3 9 0 11 8 6 10 -6 11 -4 4 6 -9 14 -10 19 -13 40 0 5 -5 8 -10 4 -5 -3 -13
0 -17 6 -5 8 -3 9 6 4 9 -6 10 -2 5 16 -4 13 -12 29 -18 34 -7 7 -8 6 -3 -2 4
-7 5 -13 2 -13 -3 0 -10 10 -17 21 -8 15 -8 19 0 15 13 -8 14 -4 5 18 -3 9
-11 13 -17 9 -6 -4 -8 0 -4 10 4 10 2 16 -5 14 -6 -1 -13 4 -16 12 -2 8 0 11
6 7 6 -4 8 2 5 14 -3 11 -9 18 -13 15 -15 -9 -21 29 -25 159 -3 114 0 152 26
290 17 87 28 161 25 164 -3 3 -6 -5 -6 -18 0 -13 -3 -21 -6 -17 -11 10 6 58
17 51 7 -4 10 6 8 28 -3 36 15 70 44 81 9 3 16 12 15 19 -2 7 2 12 7 13 16 1
35 15 35 26 0 6 -5 7 -12 3 -7 -4 -8 -3 -4 5 4 6 11 9 16 6 4 -3 14 3 21 12
12 14 12 16 0 9 -9 -6 -12 -4 -9 5 3 8 10 14 16 14 6 0 17 6 24 14 11 12 10
13 -2 6 -8 -4 4 9 28 30 25 21 41 43 38 51 -3 8 0 13 6 11 7 -1 12 5 13 13 0
8 8 14 18 12 9 -1 29 4 44 13 16 9 20 14 10 11 -11 -4 -16 -2 -12 5 4 5 15 7
25 4 21 -7 112 34 104 47 -3 4 3 5 12 1 13 -5 15 -3 9 7 -5 9 -4 11 4 6 12 -8
76 13 67 21 -2 3 -15 0 -28 -7 -22 -11 -22 -10 -4 4 11 9 28 14 37 11 22 -7
90 25 82 38 -3 6 -2 7 4 4 5 -3 59 3 119 15 60 11 165 23 234 26 107 6 117 7
70 13 -57 7 17 4 285 -11z m3882 -1358 c-1 -251 -2 -43 -2 463 0 506 1 712 2
457 2 -255 2 -669 0 -920z m7580 0 c-1 -251 -2 -43 -2 463 0 506 1 712 2 457
2 -255 2 -669 0 -920z m-17009 1361 c-10 -2 -26 -2 -35 0 -10 3 -2 5 17 5 19
0 27 -2 18 -5z m5062 -3 c-14 -4 -34 -8 -45 -8 -16 0 -15 2 5 8 14 4 34 8 45
8 16 0 15 -2 -5 -8z m653 3 c-7 -2 -19 -2 -25 0 -7 3 -2 5 12 5 14 0 19 -2 13
-5z m12397 -3 c-8 -5 -22 -9 -30 -9 -10 0 -8 3 5 9 27 12 43 12 25 0z m885 0
c13 -5 14 -9 5 -9 -8 0 -24 4 -35 9 -13 5 -14 9 -5 9 8 0 24 -4 35 -9z
m-19572 -7 c-7 -2 -19 -2 -25 0 -7 3 -2 5 12 5 14 0 19 -2 13 -5z m660 0 c-13
-2 -33 -2 -45 0 -13 2 -3 4 22 4 25 0 35 -2 23 -4z m5702 -3 c25 -11 -1 -11
-35 0 -20 6 -21 8 -5 8 11 0 29 -3 40 -8z m-5632 -7 c-7 -2 -21 -2 -30 0 -10
3 -4 5 12 5 17 0 24 -2 18 -5z m-850 -10 c-7 -2 -19 -2 -25 0 -7 3 -2 5 12 5
14 0 19 -2 13 -5z m977 -3 c8 -5 11 -10 5 -10 -5 0 -17 5 -25 10 -8 5 -10 10
-5 10 6 0 17 -5 25 -10z m4629 6 c-2 -2 -17 -6 -34 -10 -22 -5 -26 -4 -15 4
14 9 59 15 49 6z m974 -3 c-7 -2 -19 -2 -25 0 -7 3 -2 5 12 5 14 0 19 -2 13
-5z m12117 -2 c-8 -5 -26 -11 -40 -15 -21 -5 -20 -3 5 9 32 15 60 20 35 6z
m-20432 -8 c-104 -2 -272 -2 -375 0 -104 1 -19 2 187 2 206 0 291 -1 188 -2z
m6225 0 c-79 -2 -207 -2 -285 0 -79 1 -15 3 142 3 157 0 221 -2 143 -3z m2137
-3 c8 -5 11 -10 5 -10 -5 0 -17 5 -25 10 -8 5 -10 10 -5 10 6 0 17 -5 25 -10z
m1402 3 c-95 -2 -248 -2 -340 0 -92 1 -14 3 173 3 187 0 262 -2 167 -3z m1536
0 c-76 -2 -200 -2 -275 0 -76 1 -14 3 137 3 151 0 213 -2 138 -3z m-5698 -238
l0 -235 -392 -2 -393 -3 390 -5 390 -5 -377 -3 -378 -2 -2 -637 -3 -638 -5
640 -5 640 -3 -642 -2 -643 -290 0 -290 0 0 640 0 640 -387 2 -388 3 395 5
395 5 -397 3 -398 2 0 228 c0 126 3 232 7 235 3 4 485 7 1070 7 l1063 0 0
-235z m-6176 213 c-6 -10 -4 -10 7 0 10 9 101 12 385 12 363 0 373 -1 379 -20
3 -11 11 -19 17 -17 6 1 13 -4 16 -12 3 -8 0 -11 -7 -7 -8 5 -8 1 0 -18 7 -14
16 -24 22 -23 5 1 12 -4 15 -12 3 -9 0 -11 -7 -6 -20 11 30 -79 50 -93 11 -7
19 -18 19 -24 0 -7 -7 -3 -15 8 -14 18 -14 17 -4 -9 7 -15 14 -25 17 -22 6 6
31 -26 32 -39 0 -6 -7 -1 -15 10 -14 18 -14 17 -4 -9 7 -15 14 -25 17 -22 6 6
31 -26 32 -39 0 -6 -7 -1 -15 10 -14 18 -14 17 -4 -9 7 -15 14 -25 17 -22 6 6
31 -26 32 -39 0 -6 -7 -1 -15 10 -14 18 -14 17 -4 -9 7 -15 14 -25 17 -22 6 6
31 -26 32 -39 0 -6 -7 -1 -15 10 -14 18 -14 17 -4 -9 7 -15 14 -25 17 -22 6 6
31 -26 32 -39 0 -6 -7 -1 -15 10 -14 18 -15 17 -4 -8 7 -15 15 -26 18 -23 4 2
13 -6 21 -18 12 -21 12 -21 -5 -7 -17 14 -18 14 -5 -10 7 -14 22 -33 34 -43
11 -10 15 -16 9 -12 -18 9 -16 -7 3 -31 8 -10 13 -13 9 -6 -11 21 4 13 16 -9
8 -15 8 -19 0 -15 -16 10 -13 -7 5 -30 8 -10 13 -13 9 -6 -11 21 4 13 16 -9 8
-15 8 -19 0 -15 -16 10 -13 -7 5 -30 8 -10 13 -13 9 -6 -11 21 4 13 16 -9 8
-15 8 -19 0 -15 -16 10 -13 -7 5 -30 8 -10 13 -13 9 -6 -11 21 4 13 16 -9 8
-15 8 -19 0 -15 -16 10 -13 -7 5 -30 8 -10 13 -13 9 -6 -11 21 4 13 16 -9 8
-15 8 -19 0 -15 -16 10 -13 -7 5 -30 8 -10 12 -13 8 -5 -5 9 -3 12 5 7 6 -4 9
-15 6 -25 -3 -9 2 -26 11 -37 8 -10 12 -13 8 -5 -5 9 -3 12 5 7 6 -4 9 -15 6
-25 -3 -9 2 -26 11 -37 8 -10 12 -13 8 -5 -4 9 -3 12 4 8 5 -4 8 -15 6 -25 -3
-9 2 -26 11 -37 9 -11 13 -14 9 -6 -4 9 -3 12 4 8 5 -4 8 -15 6 -25 -3 -9 2
-26 11 -37 9 -11 13 -14 9 -6 -4 9 -3 12 4 8 5 -4 8 -15 6 -25 -3 -9 2 -26 11
-37 9 -11 13 -14 9 -6 -4 9 -3 12 4 8 5 -4 8 -15 6 -25 -3 -9 2 -26 11 -37 9
-11 13 -14 9 -6 -4 9 -3 12 4 8 5 -4 8 -15 6 -25 -3 -9 2 -26 11 -37 9 -11 13
-14 9 -6 -4 9 -3 12 4 8 5 -4 8 -15 6 -25 -3 -9 2 -26 11 -37 9 -11 13 -14 9
-6 -4 9 -3 12 4 8 5 -4 8 -15 6 -25 -3 -9 2 -26 11 -37 9 -11 13 -14 9 -6 -4
9 -3 12 4 8 5 -4 8 -15 6 -25 -3 -9 2 -26 11 -37 9 -11 13 -14 9 -6 -4 9 -3
12 4 8 5 -4 8 -16 5 -26 -3 -10 1 -22 8 -26 8 -6 10 -4 5 6 -4 8 -1 6 7 -4 8
-10 13 -26 10 -36 -3 -10 1 -22 8 -26 8 -5 10 -4 5 3 -4 7 -5 12 -2 12 3 0 10
-10 17 -21 9 -17 8 -20 -2 -14 -9 6 -10 3 -6 -8 4 -10 10 -24 13 -32 5 -13
-33 -15 -309 -15 l-315 0 -12 31 c-10 23 -15 27 -22 17 -7 -10 -8 -8 -4 5 6
20 -13 69 -25 61 -5 -3 -6 3 -2 12 4 10 2 15 -4 11 -5 -3 -9 4 -9 16 1 12 -4
21 -11 20 -6 -1 -14 4 -17 13 -3 8 -1 12 4 9 6 -4 6 2 1 17 -5 13 -15 22 -21
20 -7 -2 -10 3 -7 12 5 14 -53 15 -500 16 -502 0 -505 0 -500 -20 3 -11 0 -23
-5 -27 -7 -4 -8 -1 -3 7 5 8 4 11 -2 7 -6 -4 -16 -21 -22 -37 -6 -18 -6 -28
-1 -25 6 3 7 -1 4 -9 -3 -9 -10 -14 -16 -13 -5 1 -14 -8 -19 -21 -5 -15 -5
-21 1 -17 6 3 7 -1 4 -9 -3 -9 -10 -13 -15 -10 -12 7 -30 -42 -23 -63 4 -14 3
-15 -4 -5 -7 11 -10 11 -15 -2 -6 -14 -43 -16 -321 -16 -334 0 -346 2 -310 47
9 10 13 12 9 3 -4 -8 1 -6 9 4 18 23 21 40 5 30 -8 -4 -8 0 0 15 12 22 27 30
16 9 -4 -7 1 -4 9 6 19 24 21 40 4 30 -7 -4 -1 4 15 19 27 26 38 55 15 41 -7
-4 -8 -3 -4 5 4 6 12 8 18 5 8 -5 9 -1 5 10 -4 10 -3 15 3 11 6 -3 10 -4 10
-1 0 2 3 12 7 22 5 13 3 15 -7 9 -9 -5 -11 -4 -6 4 4 6 11 9 15 6 5 -2 13 7
20 21 6 15 7 23 1 19 -19 -12 -10 14 10 28 12 8 18 20 15 30 -4 8 -1 18 6 23
8 5 10 3 5 -7 -4 -8 0 -5 8 5 9 11 14 28 11 37 -3 10 0 21 6 25 8 4 9 3 5 -4
-4 -7 -5 -12 -2 -12 3 0 13 14 22 31 9 19 11 28 4 24 -8 -5 -11 -3 -8 6 3 8
10 13 15 12 6 -1 15 9 22 23 8 19 8 23 0 18 -7 -4 -10 -1 -7 7 3 8 10 13 15
12 5 -1 22 24 37 55 20 41 23 52 10 41 -16 -13 -16 -12 -5 9 7 12 16 20 20 18
4 -3 13 6 20 20 6 15 7 23 1 19 -5 -3 -10 -2 -10 3 0 5 10 12 21 15 16 4 20
11 16 27 -3 14 1 24 15 31 13 7 18 17 15 30 -3 12 2 23 14 30 13 7 18 16 14
29 -3 10 0 22 6 26 8 5 10 2 5 -7 -4 -8 0 -5 8 5 18 23 21 40 5 30 -8 -4 -8 0
0 15 12 22 27 30 16 9 -4 -7 1 -4 9 6 18 23 21 40 5 30 -8 -4 -8 0 0 15 12 22
27 30 16 9 -4 -7 1 -4 9 6 18 23 21 40 5 30 -8 -4 -8 0 0 15 7 11 14 21 17 21
3 0 2 -4 -1 -10 -3 -5 -4 -10 -1 -10 6 0 56 95 56 105 0 4 -5 3 -11 -1 -8 -4
-8 0 0 15 7 11 14 21 17 21 3 0 2 -4 -1 -10 -3 -5 -4 -10 -1 -10 3 0 27 42 52
92 28 55 39 87 29 78 -17 -14 -17 -14 -5 7 8 12 17 20 21 18 3 -3 11 7 18 22
11 24 11 25 -5 12 -16 -13 -16 -12 -4 8 8 12 17 20 21 17 9 -5 21 25 14 36 -3
5 0 12 6 16 8 5 10 2 5 -7 -4 -8 0 -5 8 5 18 23 21 40 5 30 -8 -4 -8 0 0 15
12 22 27 30 16 9 -4 -7 1 -4 9 6 18 23 21 40 5 30 -8 -4 -8 0 0 15 7 11 14 21
17 21 3 0 2 -5 -2 -12 -5 -7 -3 -8 5 -3 7 4 11 16 8 26 -3 10 2 26 10 36 9 11
12 12 8 3 -4 -8 1 -6 9 4 18 23 21 40 5 30 -8 -4 -8 0 0 15 7 11 14 21 17 21
3 0 2 -6 -2 -12z m6193 -325 c-1 -65 -3 -14 -3 112 0 127 2 180 3 118 2 -62 2
-165 0 -230z m170 -981 c-1 -240 -2 -41 -2 443 0 484 1 681 2 437 2 -244 2
-640 0 -880z m583 438 l0 -880 -285 0 -285 0 0 880 0 880 285 0 285 0 0 -880z
m17 -438 c-1 -240 -2 -41 -2 443 0 484 1 681 2 437 2 -244 2 -640 0 -880z
m2860 0 c-1 -240 -2 -41 -2 443 0 484 1 681 2 437 2 -244 2 -640 0 -880z m715
1302 c9 -9 14 -22 12 -29 -5 -12 12 -30 29 -30 4 0 7 -4 8 -10 0 -13 40 -55
51 -55 12 0 72 -70 74 -87 3 -20 34 -53 48 -50 6 1 10 -6 8 -15 -2 -11 3 -18
12 -18 8 0 18 -5 22 -12 5 -7 2 -8 -7 -3 -8 4 -1 -6 15 -23 34 -37 49 -43 20
-9 -17 20 -16 20 9 -2 15 -14 25 -26 22 -29 -2 -2 4 -12 13 -21 10 -9 12 -12
5 -7 -22 15 -14 1 14 -25 14 -13 23 -18 18 -10 -5 10 -4 12 4 7 6 -4 9 -11 6
-16 -3 -5 8 -24 26 -42 17 -18 27 -26 23 -18 -4 9 -3 12 2 7 5 -5 9 -12 9 -15
0 -4 21 -27 47 -51 26 -24 45 -48 42 -53 -3 -5 2 -12 12 -15 23 -6 130 -133
127 -148 -3 -11 80 -98 91 -96 10 2 60 -60 62 -77 3 -16 63 -82 76 -82 4 0 9
235 11 523 l2 522 0 -538 c0 -295 3 -537 8 -537 4 0 7 243 7 540 l0 540 275 0
275 0 0 -880 0 -880 -332 -2 -333 -3 330 -5 330 -6 -330 1 c-181 0 -328 4
-327 8 6 13 -49 67 -67 67 -14 0 -14 1 -1 10 13 9 13 10 -1 10 -8 0 -28 15
-45 33 l-29 32 35 -30 35 -30 -29 33 c-17 17 -36 32 -44 32 -8 0 -12 6 -9 14
3 8 -9 26 -26 42 l-32 29 30 -35 30 -35 -33 30 c-18 16 -30 35 -28 41 2 6 -9
25 -26 40 -17 16 -28 23 -24 17 10 -19 1 -16 -15 4 -10 11 -10 14 -1 9 6 -4
12 -2 12 3 0 6 -6 11 -13 11 -8 0 -22 10 -33 23 l-19 22 25 -20 25 -20 -24 27
c-13 15 -28 25 -33 22 -5 -3 -7 0 -6 8 2 7 -3 12 -11 10 -8 -2 -11 3 -8 12 5
13 -38 64 -51 58 -3 -1 -7 5 -8 14 -2 10 -15 29 -30 43 -15 14 -23 19 -19 11
5 -9 4 -12 -1 -7 -5 5 -9 12 -9 15 0 4 -21 27 -46 52 -32 32 -35 36 -9 15 20
-16 2 2 -39 42 -42 39 -76 78 -76 86 0 19 -58 83 -81 91 -11 4 -28 19 -38 34
l-19 27 34 -30 34 -30 -34 37 c-19 21 -39 34 -44 31 -6 -4 -8 0 -4 9 3 10 -6
26 -26 44 -28 25 -29 26 -12 4 l20 -25 -22 19 c-13 10 -20 22 -17 27 2 4 -8
21 -23 36 -23 24 -24 24 -8 3 l20 -25 -27 24 c-15 13 -24 29 -22 36 4 8 -3 15
-17 17 -12 2 -25 10 -27 18 -5 13 -3 13 11 1 24 -19 21 -8 -4 15 -11 10 -20
14 -19 9 2 -6 2 -256 1 -557 l-1 -548 -270 0 -270 0 0 880 0 880 342 0 c294
-1 345 -3 360 -16z m-1512 -4 c8 -5 11 -10 5 -10 -5 0 -17 5 -25 10 -8 5 -10
10 -5 10 6 0 17 -5 25 -10z m-6880 -15 c0 -2 -10 -9 -22 -15 -22 -11 -22 -10
-4 4 21 17 26 19 26 11z m19558 -2 c-10 -2 -26 -2 -35 0 -10 3 -2 5 17 5 19 0
27 -2 18 -5z m543 -10 c13 -17 13 -17 -6 -3 -11 8 -22 16 -24 17 -2 2 0 3 6 3
6 0 17 -8 24 -17z m-856 -4 c-22 -4 -51 -8 -65 -7 -35 1 34 15 75 16 25 0 23
-2 -10 -9z m420 1 c13 -5 14 -9 5 -9 -8 0 -24 4 -35 9 -13 5 -14 9 -5 9 8 0
24 -4 35 -9z m-637 -27 c-10 -2 -26 -2 -35 0 -10 3 -2 5 17 5 19 0 27 -2 18
-5z m-17588 -23 c8 -5 11 -10 5 -10 -5 0 -17 5 -25 10 -8 5 -10 10 -5 10 6 0
17 -5 25 -10z m18770 -16 c0 -2 -9 0 -20 6 -11 6 -20 13 -20 16 0 2 9 0 20 -6
11 -6 20 -13 20 -16z m-4249 -41 l34 -38 -32 29 -33 30 -3 -820 -2 -819 -3
828 c-1 455 -1 827 1 827 2 0 19 -17 38 -37z m2909 32 c0 -2 -10 -9 -22 -15
-22 -11 -22 -10 -4 4 21 17 26 19 26 11z m-2685 -25 c10 -11 16 -20 13 -20 -3
0 -13 9 -23 20 -10 11 -16 20 -13 20 3 0 13 -9 23 -20z m2605 -20 c-8 -5 -19
-10 -25 -10 -5 0 -3 5 5 10 8 5 20 10 25 10 6 0 3 -5 -5 -10z m-2544 -42 l29
-33 -32 29 c-31 28 -38 36 -30 36 2 0 16 -15 33 -32z m3828 3 c-2 -3 -12 3
-22 13 -16 17 -16 18 5 5 12 -7 20 -15 17 -18z m-14774 6 c0 -2 -12 -14 -27
-28 l-26 -24 19 27 c16 23 34 36 34 25z m1936 -29 l29 -33 -32 29 c-31 28 -38
36 -30 36 2 0 16 -15 33 -32z m12988 -67 c-2 -3 -12 3 -22 13 -16 17 -16 18 5
5 12 -7 20 -15 17 -18z m-19566 -108 c-16 -2 -40 -2 -55 0 -16 2 -3 4 27 4 30
0 43 -2 28 -4z m-3018 -23 c-6 -11 -13 -20 -16 -20 -2 0 0 9 6 20 6 11 13 20
16 20 2 0 0 -9 -6 -20z m2898 13 c-10 -2 -28 -2 -40 0 -13 2 -5 4 17 4 22 1
32 -1 23 -4z m14093 -20 c-12 -20 -14 -14 -5 12 4 9 9 14 11 11 3 -2 0 -13 -6
-23z m-14261 -28 c-14 -8 -29 -14 -35 -14 -5 0 1 6 15 14 14 8 30 14 35 14 6
0 -1 -6 -15 -14z m575 -16 c5 -5 -6 -4 -25 2 -45 15 -54 24 -15 15 17 -4 34
-12 40 -17z m-3335 -9 c-6 -11 -13 -20 -16 -20 -2 0 0 9 6 20 6 11 13 20 16
20 2 0 0 -9 -6 -20z m4159 -45 c0 -5 -4 -3 -9 5 -5 8 -9 22 -9 30 0 16 17 -16
18 -35z m18630 -10 c0 -5 -4 -3 -9 5 -5 8 -9 22 -9 30 0 16 17 -16 18 -35z
m185 -25 c5 -17 4 -20 -2 -10 -5 8 -13 26 -16 40 -5 17 -4 20 2 10 5 -8 13
-26 16 -40z m-18786 -75 c0 -5 -6 4 -13 20 -8 17 -14 37 -14 45 0 8 7 -1 14
-20 7 -19 13 -39 13 -45z m-4248 35 c-6 -11 -13 -20 -16 -20 -2 0 0 9 6 20 6
11 13 20 16 20 2 0 0 -9 -6 -20z m7487 -112 c-3 -7 -5 -2 -5 12 0 14 2 19 5
13 2 -7 2 -19 0 -25z m13317 -12 c-3 -15 -8 -25 -11 -23 -2 3 -1 17 3 31 3 15
8 25 11 23 2 -3 1 -17 -3 -31z m-1549 4 c10 -11 16 -20 13 -20 -3 0 -13 9 -23
20 -10 11 -16 20 -13 20 3 0 13 -9 23 -20z m-9328 -62 c-2 -13 -4 -5 -4 17 -1
22 1 32 4 23 2 -10 2 -28 0 -40z m9143 27 c13 -14 21 -25 18 -25 -2 0 -15 11
-28 25 -13 14 -21 25 -18 25 2 0 15 -11 28 -25z m-7504 -77 l29 -33 -32 29
c-31 28 -38 36 -30 36 2 0 16 -15 33 -32z m-9699 -20 c-3 -7 -5 -2 -5 12 0 14
2 19 5 13 2 -7 2 -19 0 -25z m20831 15 c-179 -2 -476 -2 -660 0 -183 1 -36 2
327 2 363 0 513 -1 333 -2z m-15235 -88 c4 -57 3 -69 -3 -40 -9 40 -13 132 -6
124 2 -2 6 -40 9 -84z m14224 -2 c-2 -16 -4 -5 -4 22 0 28 2 40 4 28 2 -13 2
-35 0 -50z m-900 0 c-3 -10 -5 -2 -5 17 0 19 2 27 5 18 2 -10 2 -26 0 -35z
m-1311 6 c3 -6 -5 -3 -20 6 -14 10 -26 19 -26 22 0 7 39 -17 46 -28z m-2686
-9 c-6 -11 -13 -20 -16 -20 -2 0 0 9 6 20 6 11 13 20 16 20 2 0 0 -9 -6 -20z
m-6863 -57 c-3 -10 -5 -2 -5 17 0 19 2 27 5 18 2 -10 2 -26 0 -35z m1039 15
l29 -33 -32 29 c-31 28 -38 36 -30 36 2 0 16 -15 33 -32z m8584 -23 c13 -14
21 -25 18 -25 -2 0 -15 11 -28 25 -13 14 -21 25 -18 25 2 0 15 -11 28 -25z
m-7835 -5 c10 -11 16 -20 13 -20 -3 0 -13 9 -23 20 -10 11 -16 20 -13 20 3 0
13 -9 23 -20z m8943 -65 c0 -16 -2 -15 -8 5 -11 34 -11 60 0 35 5 -11 8 -29 8
-40z m-16401 13 c-3 -7 -5 -2 -5 12 0 14 2 19 5 13 2 -7 2 -19 0 -25z m15118
12 c10 -11 16 -20 13 -20 -3 0 -13 9 -23 20 -10 11 -16 20 -13 20 3 0 13 -9
23 -20z m-17498 -32 c-3 -7 -5 -2 -5 12 0 14 2 19 5 13 2 -7 2 -19 0 -25z m23
-53 c0 -5 -5 -3 -10 5 -5 8 -10 20 -10 25 0 6 5 3 10 -5 5 -8 10 -19 10 -25z
m-2170 -5 c-6 -11 -13 -20 -16 -20 -2 0 0 9 6 20 6 11 13 20 16 20 2 0 0 -9
-6 -20z m4517 -27 c-3 -10 -5 -4 -5 12 0 17 2 24 5 18 2 -7 2 -21 0 -30z
m16442 -43 c0 -9 -4 -8 -9 5 -5 11 -9 27 -9 35 0 9 4 8 9 -5 5 -11 9 -27 9
-35z m-17254 0 c-3 -5 -16 -15 -28 -21 -19 -9 -19 -8 3 10 28 23 34 26 25 11z
m-625 -75 c14 -8 21 -14 15 -14 -5 0 -21 6 -35 14 -14 8 -20 14 -15 14 6 0 21
-6 35 -14z m373 -52 c-7 -2 -19 -2 -25 0 -7 3 -2 5 12 5 14 0 19 -2 13 -5z
m-90 -10 c-23 -2 -64 -2 -90 0 -26 2 -7 3 42 3 50 0 71 -1 48 -3z m17783 -105
l29 -33 -32 29 c-18 17 -33 31 -33 33 0 8 8 1 36 -29z m-1066 -3 c13 -14 21
-25 18 -25 -2 0 -15 11 -28 25 -13 14 -21 25 -18 25 2 0 15 -11 28 -25z
m-10090 -18 c0 -2 -10 -12 -22 -23 l-23 -19 19 23 c18 21 26 27 26 19z m-5745
-107 c-3 -5 -16 -15 -28 -21 -19 -9 -19 -8 3 10 28 23 34 26 25 11z m16031
-62 l29 -33 -32 29 c-31 28 -38 36 -30 36 2 0 16 -15 33 -32z m-16126 -3 c-7
-8 -17 -15 -23 -15 -6 0 -2 7 9 15 25 19 30 19 14 0z m18220 5 c-14 -4 -34 -8
-45 -8 -16 0 -15 2 5 8 14 4 34 8 45 8 16 0 15 -2 -5 -8z m-457 -7 c-7 -2 -19
-2 -25 0 -7 3 -2 5 12 5 14 0 19 -2 13 -5z m90 -10 c-13 -2 -35 -2 -50 0 -16
2 -5 4 22 4 28 0 40 -2 28 -4z m-7296 -80 c-2 -16 -4 -3 -4 27 0 30 2 43 4 28
2 -16 2 -40 0 -55z m-10752 -3 c-11 -5 -27 -9 -35 -9 -9 0 -8 4 5 9 11 5 27 9
35 9 9 0 8 -4 -5 -9z m4445 0 c18 -12 2 -12 -25 0 -13 6 -15 9 -5 9 8 0 22 -4
30 -9z m13246 -8 c-10 -2 -22 0 -28 6 -6 6 0 7 19 4 21 -5 23 -7 9 -10z m177
-19 c-7 -2 -21 -2 -30 0 -10 3 -4 5 12 5 17 0 24 -2 18 -5z m647 -3 c-14 -4
-34 -8 -45 -8 -16 0 -15 2 5 8 14 4 34 8 45 8 16 0 15 -2 -5 -8z m-22293 -7
c-86 -2 -228 -2 -315 0 -86 1 -15 3 158 3 173 0 244 -2 157 -3z m1881 0 c-86
-2 -230 -2 -320 0 -90 1 -19 3 157 3 176 0 249 -2 163 -3z m3765 0 c-79 -2
-207 -2 -285 0 -79 1 -15 3 142 3 157 0 221 -2 143 -3z m1550 0 c-79 -2 -207
-2 -285 0 -79 1 -15 3 142 3 157 0 221 -2 143 -3z m3445 0 c-76 -2 -200 -2
-275 0 -76 1 -14 3 137 3 151 0 213 -2 138 -3z m11070 0 c-10 -2 -26 -2 -35 0
-10 3 -2 5 17 5 19 0 27 -2 18 -5z m-18193 -23 c-11 -5 -27 -9 -35 -9 -9 0 -8
4 5 9 11 5 27 9 35 9 9 0 8 -4 -5 -9z m5668 3 c-7 -2 -19 -2 -25 0 -7 3 -2 5
12 5 14 0 19 -2 13 -5z m12705 0 c-10 -2 -26 -2 -35 0 -10 3 -2 5 17 5 19 0
27 -2 18 -5z m145 -10 c-24 -2 -62 -2 -85 0 -24 2 -5 4 42 4 47 0 66 -2 43 -4z
m-19035 -10 c-10 -2 -28 -2 -40 0 -13 2 -5 4 17 4 22 1 32 -1 23 -4z m400 0
c-10 -2 -26 -2 -35 0 -10 3 -2 5 17 5 19 0 27 -2 18 -5z m5210 0 c-10 -2 -28
-2 -40 0 -13 2 -5 4 17 4 22 1 32 -1 23 -4z m390 0 c-10 -2 -28 -2 -40 0 -13
2 -5 4 17 4 22 1 32 -1 23 -4z m-5881 -10 c-20 -2 -52 -2 -70 0 -17 2 0 4 38
4 39 0 53 -2 32 -4z m5621 0 c-21 -2 -55 -2 -75 0 -21 2 -4 4 37 4 41 0 58 -2
38 -4z m-730 -700 c-104 -2 -272 -2 -375 0 -104 1 -19 2 187 2 206 0 291 -1
188 -2z m560 0 c-26 -2 -71 -2 -100 0 -29 2 -8 3 47 3 55 0 79 -1 53 -3z m870
0 c-27 -2 -69 -2 -95 0 -27 2 -5 3 47 3 52 0 74 -1 48 -3z m2485 0 c-106 -2
-280 -2 -385 0 -106 1 -20 2 192 2 212 0 298 -1 193 -2z m850 0 c-45 -2 -122
-2 -170 0 -48 1 -11 3 82 3 94 0 133 -2 88 -3z m925 0 c-49 -2 -127 -2 -175 0
-49 1 -9 3 87 3 96 0 136 -2 88 -3z m1315 0 c-45 -2 -122 -2 -170 0 -48 1 -11
3 82 3 94 0 133 -2 88 -3z m2620 0 c-123 -2 -323 -2 -445 0 -123 1 -23 2 222
2 245 0 345 -1 223 -2z m930 0 c-106 -2 -280 -2 -385 0 -106 1 -20 2 192 2
212 0 298 -1 193 -2z m850 0 c-45 -2 -122 -2 -170 0 -48 1 -11 3 82 3 94 0
133 -2 88 -3z m-11213 -103 l0 -90 -280 0 -280 0 0 -115 0 -115 243 -2 242 -2
-245 -6 -245 -6 250 -3 c138 -2 252 -3 255 -3 3 0 4 -38 2 -84 l-3 -84 -252
-2 -252 -2 250 -6 250 -6 -247 -2 -248 -2 0 -115 0 -115 288 -2 287 -3 -290
-5 -290 -5 293 -3 292 -2 0 -85 0 -85 -390 0 -390 0 0 520 0 520 380 0 380 0
0 -90z m420 -335 l0 -425 268 -2 267 -3 -270 -5 -270 -5 268 -3 267 -2 0 -85
0 -85 -365 0 -365 0 0 520 0 520 100 0 100 0 0 -425z m872 -2 l3 -428 5 425 5
425 3 -422 2 -423 258 -2 257 -3 -270 -5 -270 -5 273 -3 272 -2 0 -85 0 -85
-370 0 -370 0 0 520 0 520 100 0 100 0 2 -427z m2618 337 l0 -90 -280 0 -280
0 0 -125 0 -125 248 -2 247 -3 3 -82 3 -83 -258 -2 -258 -2 255 -6 255 -6
-247 -2 -248 -2 0 -115 0 -115 288 -2 287 -3 -290 -5 -290 -5 298 -3 298 -2
-3 -88 -3 -87 -397 -3 -398 -2 0 525 0 525 385 0 385 0 0 -90z m785 80 l50 -7
-45 -2 c-56 -3 -45 -7 45 -17 62 -7 66 -8 35 -15 l-35 -6 38 -2 c26 -1 37 -6
37 -16 0 -8 7 -15 15 -15 8 0 15 -9 15 -20 0 -11 -7 -20 -15 -20 -10 0 -15
-10 -15 -30 0 -24 -4 -30 -22 -31 -15 -1 -17 -3 -7 -6 12 -3 15 -11 11 -31
l-6 -27 -7 25 -7 25 -1 -24 c-1 -22 -3 -23 -58 -18 -74 8 -74 8 -38 17 l30 8
-32 2 c-18 1 -37 4 -43 5 -5 1 -36 4 -67 6 l-58 3 70 6 c49 4 18 7 -100 7
-102 0 -150 -3 -120 -7 l50 -7 -40 -2 c-47 -3 -101 -18 -71 -20 11 -1 16 -4
12 -8 -8 -8 -10 -9 -43 -13 -11 -1 -13 -3 -5 -7 6 -2 11 -19 11 -36 l-1 -32
-8 30 -8 30 -1 -32 c-1 -23 4 -33 14 -33 8 0 15 -6 15 -14 0 -8 14 -18 33 -22
28 -6 29 -8 12 -14 -14 -5 3 -10 50 -14 91 -10 102 -14 40 -17 l-50 -2 55 -7
c30 -5 80 -9 110 -11 l55 -2 -65 -7 -65 -7 68 -3 c37 -1 72 -4 77 -5 6 -1 27
-4 48 -5 36 -3 35 -3 -13 -10 l-50 -7 48 -3 c26 -1 52 -4 57 -5 6 -1 20 -4 33
-5 16 -2 13 -4 -13 -10 l-35 -7 33 -2 c18 0 32 -6 32 -13 0 -10 2 -10 9 0 7
11 9 11 14 -2 4 -9 -1 -16 -11 -19 -9 -3 0 -5 21 -6 30 -1 37 -5 37 -22 0 -11
5 -17 10 -14 6 3 10 2 10 -4 0 -5 -6 -12 -12 -14 -8 -3 -6 -6 5 -6 9 -1 17 -8
17 -16 0 -8 7 -15 15 -15 13 0 15 -21 15 -125 0 -104 -2 -125 -15 -125 -8 0
-15 -7 -15 -15 0 -8 -7 -15 -15 -15 -8 0 -15 -7 -15 -15 0 -8 -9 -15 -20 -15
-11 0 -20 -7 -20 -15 0 -8 -7 -15 -15 -15 -8 0 -15 -7 -15 -15 0 -8 -7 -15
-15 -15 -8 0 -15 -7 -15 -15 0 -11 -12 -15 -45 -15 -33 0 -45 -4 -45 -15 0
-13 -28 -15 -190 -15 -162 0 -190 2 -190 15 0 11 -12 15 -45 15 -33 0 -45 4
-45 15 0 10 -10 15 -30 15 -20 0 -30 5 -30 15 0 10 -10 15 -30 15 -29 0 -30 1
-30 50 0 38 4 50 15 50 10 0 15 10 15 30 0 20 5 30 15 30 8 0 15 7 15 15 0 8
9 15 20 15 11 0 20 -7 20 -15 0 -10 10 -15 30 -15 20 0 30 -5 30 -15 0 -11 12
-15 45 -15 33 0 45 -4 45 -15 0 -13 23 -15 150 -15 127 0 150 2 150 15 0 10
10 15 30 15 l30 0 0 69 c0 66 -1 69 -27 76 -21 5 -24 8 -12 16 10 6 2 9 -26 9
-22 0 -51 3 -64 7 -23 6 -23 7 -5 14 12 5 0 8 -36 8 -30 1 -66 4 -79 8 -23 6
-23 7 -6 13 12 4 -13 10 -65 15 -76 8 -81 9 -45 15 l40 7 -45 2 c-25 1 -56 4
-69 8 -23 6 -23 7 -5 14 15 6 12 8 -13 8 -18 1 -33 6 -33 11 0 6 -8 10 -17 11
-15 0 -15 2 2 8 17 7 15 9 -15 16 -30 7 -32 9 -15 16 17 6 17 8 3 8 -10 1 -18
8 -18 16 0 8 -7 15 -15 15 -11 0 -15 12 -15 45 0 33 -4 45 -15 45 -12 0 -15
14 -15 65 0 51 3 65 15 65 10 0 15 10 15 30 0 21 5 30 18 31 15 1 15 2 1 6
-12 3 -15 11 -11 25 5 21 6 21 13 2 7 -18 8 -17 8 4 1 14 7 22 19 22 13 0 14
2 3 9 -10 6 -6 11 15 19 23 8 25 11 9 12 l-20 1 20 9 c11 5 34 9 50 10 26 1
27 3 10 10 -17 6 -13 9 20 15 59 10 64 13 25 16 l-35 2 35 7 c47 10 382 10
445 0z m950 0 l30 -8 -35 -2 c-28 -2 -21 -5 30 -13 57 -9 61 -11 35 -18 -30
-7 -30 -7 -3 -8 41 -2 63 -12 46 -22 -10 -7 -9 -9 5 -9 10 0 17 -8 17 -20 0
-12 -7 -20 -17 -21 -11 0 -13 -3 -5 -6 6 -2 12 -9 12 -14 0 -6 -4 -7 -10 -4
-6 4 -10 -8 -10 -29 0 -25 -4 -36 -15 -36 -8 0 -15 -7 -15 -15 0 -16 -42 -19
-95 -5 l-30 8 30 2 c28 2 27 3 -10 11 -22 4 -67 9 -100 10 l-60 3 70 6 c47 4
13 6 -105 6 -118 0 -152 -2 -105 -6 l70 -6 -60 -2 c-33 -1 -71 -5 -84 -9 -23
-6 -23 -7 -5 -14 16 -7 17 -8 2 -8 -11 -1 -18 -9 -18 -21 0 -11 -7 -20 -15
-20 -21 0 -19 -30 3 -31 14 0 14 -2 -3 -8 -17 -7 -15 -9 15 -16 29 -7 32 -9
15 -15 -17 -6 -14 -8 15 -15 30 -7 32 -9 15 -15 -13 -5 9 -11 65 -16 84 -9 84
-9 35 -15 -50 -6 -50 -6 -9 -7 23 -1 70 -5 105 -9 l64 -8 -45 -6 -45 -6 48 -3
c26 -1 52 -4 57 -5 6 -1 27 -4 48 -5 36 -3 35 -3 -13 -10 l-50 -7 53 -3 c28
-1 57 -4 62 -5 6 -1 18 -4 28 -5 10 -1 5 -5 -13 -10 l-30 -8 33 -1 c18 0 32
-6 32 -13 0 -10 2 -10 9 0 7 11 9 11 14 -2 4 -9 -1 -16 -11 -19 -9 -3 -2 -5
16 -6 21 -1 32 -6 32 -16 0 -8 7 -15 15 -15 10 0 15 -10 15 -30 0 -20 5 -30
15 -30 13 0 15 -21 15 -125 0 -104 -2 -125 -15 -125 -8 0 -15 -7 -15 -15 0 -8
-6 -15 -14 -15 -9 0 -16 -12 -18 -27 -2 -22 -9 -29 -30 -31 -16 -2 -28 -9 -28
-18 0 -8 -7 -14 -15 -14 -8 0 -15 -7 -15 -15 0 -11 -12 -15 -45 -15 -33 0 -45
-4 -45 -15 0 -13 -28 -15 -196 -15 -167 0 -195 2 -191 14 5 12 -5 16 -41 18
-31 2 -46 7 -45 16 2 8 -9 12 -32 12 -24 0 -35 5 -35 15 0 10 -10 15 -30 15
-29 0 -30 2 -30 43 0 23 3 53 7 66 6 23 7 23 14 5 6 -15 8 -12 8 14 1 21 6 32
16 32 8 0 15 7 15 15 0 10 11 15 35 15 24 0 35 -5 35 -15 0 -8 7 -15 15 -15 8
0 15 -7 15 -15 0 -11 12 -15 45 -15 33 0 45 -4 45 -15 0 -13 26 -15 170 -15
144 0 170 2 170 15 0 8 7 15 15 15 10 0 15 10 15 30 0 20 5 30 15 30 9 0 15 9
15 25 0 16 -6 25 -15 25 -8 0 -15 6 -15 14 0 8 -14 18 -32 22 -29 6 -30 8 -13
15 14 5 7 8 -27 8 -58 1 -85 10 -66 22 8 6 1 9 -22 9 -19 0 -53 3 -75 7 l-40
7 30 7 c24 5 19 7 -25 8 -30 1 -73 4 -95 8 l-40 7 35 7 35 6 -40 2 c-22 1 -51
4 -64 8 -23 6 -23 7 -5 14 15 6 14 8 -11 9 -16 0 -39 7 -49 15 -20 15 -20 15
0 16 10 0 1 6 -21 14 -34 11 -36 13 -15 15 24 3 24 3 3 7 -15 3 -23 12 -24 26
0 21 -1 21 -8 3 -7 -19 -8 -19 -13 2 -5 16 -2 22 10 23 15 1 15 2 0 6 -16 4
-18 19 -18 129 0 111 2 124 18 125 14 0 14 2 -3 9 -17 7 -17 9 -2 9 10 1 17 9
17 21 0 13 7 20 20 20 13 0 18 5 14 15 -4 10 0 15 15 15 12 0 20 5 19 12 -2 7
12 15 32 19 19 3 26 7 16 8 -30 2 -10 14 37 22 l42 6 -35 3 -35 2 30 8 c17 4
122 8 235 8 113 0 219 -4 235 -8z m1295 0 l55 -7 -50 -3 c-52 -3 -48 -4 50
-16 52 -7 56 -8 30 -15 -30 -7 -30 -7 -3 -8 41 -2 63 -12 46 -22 -10 -7 -9 -9
5 -9 10 0 17 -8 17 -20 0 -12 -7 -20 -17 -21 -11 0 -13 -3 -5 -6 6 -2 12 -17
11 -31 l-1 -27 -8 25 c-7 22 -8 21 -9 -12 -1 -27 -6 -38 -16 -38 -8 0 -15 -7
-15 -15 0 -17 -31 -19 -95 -6 l-40 9 35 2 c34 2 34 3 -10 11 -25 4 -70 9 -100
10 l-55 3 70 6 c49 4 18 7 -100 7 -102 0 -150 -3 -120 -7 l50 -7 -45 -2 c-42
-2 -101 -19 -72 -20 6 -1 12 -5 12 -11 0 -5 -3 -9 -7 -9 -19 3 -47 -3 -35 -8
6 -2 11 -19 11 -36 l-1 -32 -8 30 -8 30 -1 -32 c-1 -23 4 -33 14 -33 8 0 15
-6 15 -14 0 -8 15 -18 33 -22 31 -7 31 -8 7 -14 -18 -5 0 -10 60 -16 l85 -9
-55 -5 c-50 -5 -44 -7 60 -15 112 -10 113 -10 50 -15 -63 -5 -62 -5 50 -15
107 -9 111 -10 60 -16 l-55 -6 53 -3 c28 -1 57 -4 62 -5 6 -1 20 -4 33 -5 16
-2 13 -4 -13 -10 l-35 -7 33 -2 c18 0 32 -6 32 -13 0 -10 2 -10 9 0 7 11 9 11
14 -2 4 -9 -1 -16 -11 -19 -9 -3 -2 -5 16 -6 21 -1 32 -6 32 -16 0 -8 7 -15
15 -15 10 0 15 -10 15 -30 0 -20 5 -30 15 -30 13 0 15 -21 15 -125 0 -104 -2
-125 -15 -125 -8 0 -15 -7 -15 -15 0 -8 -7 -15 -15 -15 -10 0 -15 -10 -15 -30
0 -27 -3 -30 -30 -30 -20 0 -30 -5 -30 -15 0 -8 -7 -15 -15 -15 -8 0 -15 -7
-15 -15 0 -11 -12 -15 -50 -15 -38 0 -50 -4 -50 -15 0 -13 -27 -15 -185 -15
-158 0 -185 2 -185 15 0 11 -12 15 -50 15 -38 0 -50 4 -50 15 0 10 -10 15 -30
15 -20 0 -30 5 -30 15 0 10 -10 15 -30 15 -27 0 -30 3 -30 34 0 18 3 55 7 82
l7 49 7 -35 6 -35 2 33 c1 21 6 32 16 32 8 0 15 7 15 15 0 8 9 15 20 15 11 0
20 -7 20 -15 0 -10 10 -15 30 -15 20 0 30 -5 30 -15 0 -11 12 -15 50 -15 38 0
50 -4 50 -15 0 -13 24 -15 160 -15 136 0 160 2 160 15 0 8 7 15 15 15 10 0 15
10 15 29 0 16 6 31 13 34 10 4 10 7 0 18 -7 7 -13 23 -13 35 0 15 -8 24 -27
29 -21 5 -24 8 -12 16 10 6 4 9 -21 9 -19 0 -46 3 -59 7 -23 6 -23 7 -5 14 14
6 10 8 -17 8 -20 1 -58 4 -85 8 l-49 7 35 7 c32 6 31 6 -15 8 -27 1 -68 4 -90
8 l-40 7 30 7 c26 6 24 7 -17 8 -59 1 -85 10 -66 22 9 6 2 9 -19 9 -18 0 -33
5 -33 11 0 5 -4 8 -9 4 -5 -3 -12 -1 -16 5 -3 5 2 10 12 11 10 0 3 6 -17 14
-26 10 -30 14 -15 15 17 2 17 3 3 7 -10 2 -18 11 -18 19 0 8 -7 14 -15 14 -11
0 -15 12 -15 45 0 33 -4 45 -15 45 -12 0 -15 14 -15 65 0 51 3 65 15 65 10 0
15 10 15 30 0 21 5 30 18 31 15 1 15 2 1 6 -12 3 -15 11 -11 25 5 21 6 21 13
2 7 -18 8 -17 8 4 1 13 7 22 16 22 8 0 15 7 15 15 0 8 8 15 18 15 13 0 14 2 4
9 -17 10 5 21 46 22 24 0 25 1 7 9 -17 6 -13 9 20 14 68 12 71 14 35 16 l-35
3 35 7 c46 10 370 10 440 0z m2710 -80 l0 -90 -167 0 -168 0 3 -430 2 -430
-105 0 -105 0 0 430 0 430 -170 0 -170 0 0 90 0 90 440 0 440 0 0 -90z m900 0
l0 -90 -280 0 -280 0 2 -117 2 -118 6 115 6 115 2 -112 2 -113 238 -2 237 -2
-250 -6 -250 -6 253 -2 252 -2 0 -85 0 -85 -252 -2 -253 -2 250 -6 250 -6
-237 -2 -238 -2 0 -115 0 -115 283 -2 282 -3 -295 -5 -295 -5 293 -3 292 -2 0
-85 0 -85 -390 0 -390 0 0 520 0 520 380 0 380 0 0 -90z m790 80 l55 -7 -50
-3 c-52 -3 -48 -4 50 -16 57 -7 58 -8 25 -15 l-35 -6 35 -2 c40 -2 79 -20 45
-21 -18 -1 -18 -2 3 -10 12 -5 22 -16 22 -25 0 -9 -9 -15 -22 -16 -22 0 -22
-1 -3 -9 11 -5 15 -9 9 -9 -7 -1 -15 -17 -18 -36 -4 -19 -11 -35 -16 -35 -6 0
-10 -7 -10 -15 0 -17 -15 -18 -86 -8 l-49 7 35 7 35 6 -37 3 c-21 1 -42 4 -48
5 -5 1 -34 4 -62 5 l-53 3 65 7 c44 4 9 7 -105 7 -103 0 -150 -3 -120 -7 48
-7 49 -7 13 -10 -21 -1 -42 -4 -48 -5 -5 -1 -18 -3 -27 -4 -16 -2 -15 -3 2
-11 22 -9 22 -9 -14 -16 -29 -5 -41 -14 -19 -14 11 0 13 -8 9 -32 l-5 -33 -7
30 -7 30 -1 -32 c-1 -23 4 -33 14 -33 8 0 15 -6 15 -14 0 -8 14 -18 33 -22 27
-6 29 -8 12 -14 -19 -7 36 -18 109 -22 22 -1 16 -3 -19 -8 l-50 -7 53 -3 c28
-1 57 -4 62 -5 6 -1 31 -4 58 -5 l47 -3 -60 -7 -60 -7 63 -3 c34 -1 67 -4 72
-5 6 -1 27 -4 48 -5 36 -3 35 -3 -13 -10 -49 -7 -50 -7 -10 -9 22 0 58 -4 80
-8 l40 -7 -35 -7 -35 -6 33 -2 c40 -1 73 -27 44 -34 -9 -3 0 -5 22 -6 29 -1
37 -4 32 -16 -4 -10 1 -15 15 -15 18 0 21 -5 17 -30 -4 -24 -1 -30 14 -30 16
0 18 -10 18 -116 0 -107 -2 -118 -22 -140 -13 -13 -28 -24 -33 -24 -6 0 -11
-12 -10 -27 0 -22 -5 -29 -25 -31 -14 -2 -29 -10 -33 -18 -4 -8 -15 -14 -22
-14 -8 0 -14 -6 -12 -12 1 -9 -14 -14 -45 -16 -34 -2 -48 -7 -48 -18 0 -12
-31 -14 -190 -14 -159 0 -190 2 -190 14 0 11 -14 16 -47 18 -27 2 -47 8 -45
13 1 6 -11 12 -28 15 -17 3 -30 10 -30 15 0 6 -14 12 -32 15 -31 5 -33 7 -36
53 -2 37 0 47 12 47 11 0 16 10 16 30 0 20 5 30 15 30 8 0 15 7 15 15 0 9 10
15 26 15 19 0 25 -4 20 -15 -4 -11 2 -15 24 -15 20 0 30 -5 30 -15 0 -11 12
-15 50 -15 38 0 50 -4 50 -15 0 -13 25 -15 165 -15 140 0 165 2 165 15 0 8 7
15 15 15 10 0 15 10 15 29 0 23 5 31 23 34 l22 4 -22 8 c-17 5 -23 15 -23 35
0 22 -6 29 -27 35 -21 5 -24 8 -12 16 10 6 2 9 -26 9 -22 0 -51 3 -64 7 -23 6
-23 7 -5 14 14 6 10 8 -17 8 -20 1 -58 4 -85 8 l-49 7 35 7 c32 6 31 6 -15 8
-27 1 -68 4 -90 8 l-40 7 30 7 c28 6 28 7 -10 8 -22 1 -51 4 -64 8 -23 6 -23
7 -5 14 15 6 14 8 -11 9 -16 0 -39 7 -49 15 -20 15 -20 15 0 16 10 0 4 5 -16
11 -31 9 -33 11 -15 19 19 7 18 8 -4 8 -16 1 -21 6 -18 15 3 8 -2 16 -14 19
-15 4 -19 14 -19 46 0 30 -4 41 -15 41 -12 0 -15 13 -15 60 0 45 4 62 15 66 9
4 15 19 15 35 0 23 5 29 23 30 21 0 21 1 2 9 -11 5 -15 9 -9 9 7 1 14 10 17
21 3 11 13 20 24 21 16 0 16 1 -2 8 -18 8 -16 10 15 19 23 7 28 11 15 12 l-20
1 20 9 c11 5 34 9 50 10 29 2 29 2 5 10 -23 6 -22 8 15 14 68 12 71 14 35 16
l-35 3 35 7 c46 10 380 10 450 0z m-12113 -772 c-1 -145 -2 -29 -2 257 0 286
1 404 2 263 2 -141 2 -375 0 -520z m790 650 c-2 -24 -4 -5 -4 42 0 47 2 66 4
43 2 -24 2 -62 0 -85z m190 -650 c-1 -145 -2 -29 -2 257 0 286 1 404 2 263 2
-141 2 -375 0 -520z m870 0 c-1 -145 -2 -29 -2 257 0 286 1 404 2 263 2 -141
2 -375 0 -520z m2050 -10 c-1 -145 -2 -27 -2 262 0 289 1 407 2 263 2 -145 2
-381 0 -525z m800 660 c-2 -24 -4 -5 -4 42 0 47 2 66 4 43 2 -24 2 -62 0 -85z
m4830 0 c-2 -24 -4 -5 -4 42 0 47 2 66 4 43 2 -24 2 -62 0 -85z m1810 0 c-2
-24 -4 -5 -4 42 0 47 2 66 4 43 2 -24 2 -62 0 -85z m-12856 80 l1 -33 7 30 7
30 7 -40 c4 -22 7 -55 7 -72 0 -23 5 -33 15 -33 11 0 15 -12 15 -45 0 -33 4
-45 15 -45 11 0 15 -12 16 -42 l2 -43 7 40 7 40 2 -42 c0 -25 -4 -43 -11 -46
-8 -3 -6 -6 5 -6 13 -1 17 -10 18 -38 l2 -38 7 35 7 35 2 -37 c0 -21 -4 -38
-11 -41 -8 -3 -6 -6 5 -6 14 -1 17 -10 17 -51 0 -38 4 -50 15 -50 11 0 15 -12
15 -45 0 -33 4 -45 15 -45 11 0 15 -12 15 -45 0 -33 4 -45 15 -45 11 0 15 13
17 48 l1 47 7 -50 7 -50 1 48 c2 34 6 47 17 47 11 0 15 12 15 45 0 33 4 45 15
45 11 0 15 12 15 50 0 38 4 50 15 50 11 0 15 12 15 45 0 33 4 45 15 45 10 0
15 10 15 30 0 21 5 30 18 31 13 1 14 2 2 5 -12 4 -14 15 -11 47 l5 42 7 -40 6
-40 2 43 c1 28 5 42 15 42 10 0 16 24 22 88 8 80 9 84 15 42 l6 -45 1 48 2 48
113 -3 c111 -3 112 -3 115 -28 2 -14 10 -29 18 -33 8 -4 14 -19 14 -32 0 -14
4 -25 9 -25 5 0 12 -19 16 -42 4 -24 12 -46 17 -49 6 -4 11 -27 12 -53 0 -27
6 -46 12 -46 13 0 28 -65 19 -80 -3 -6 1 -10 9 -10 15 0 21 -25 19 -77 -1 -7
5 -13 13 -13 10 0 14 -14 14 -50 0 -38 4 -50 15 -50 11 0 15 -12 15 -45 0 -33
4 -45 15 -45 10 0 15 -10 15 -30 0 -16 5 -30 10 -30 6 0 10 20 10 45 0 33 4
45 15 45 11 0 15 12 15 45 0 33 4 45 15 45 11 0 15 12 15 50 0 41 3 50 18 50
14 0 15 2 2 10 -10 6 -11 10 -2 10 7 0 12 14 12 35 0 27 4 35 18 35 14 0 15 2
2 10 -10 6 -11 10 -2 10 7 0 12 14 12 35 0 27 4 35 18 35 14 0 15 2 2 10 -10
6 -11 10 -2 10 7 0 12 15 12 40 0 29 4 40 15 40 11 0 15 11 15 40 0 23 6 42
14 47 8 4 16 26 18 48 l3 40 108 3 107 3 0 -36 c0 -24 -4 -35 -15 -35 -11 0
-15 -12 -15 -45 0 -33 -4 -45 -15 -45 -11 0 -15 -12 -15 -45 0 -33 -4 -45 -15
-45 -11 0 -15 -12 -15 -50 0 -41 -3 -50 -17 -51 -16 -1 -16 -2 -2 -6 12 -3 15
-11 11 -25 -5 -21 -6 -21 -13 -2 -6 14 -8 9 -8 -18 -1 -29 -5 -38 -18 -39 -16
-1 -16 -2 -2 -6 12 -3 15 -11 11 -25 -5 -21 -6 -21 -13 -2 -5 13 -8 7 -8 -23
-1 -31 -5 -43 -16 -43 -11 0 -15 -12 -15 -45 0 -33 -4 -45 -15 -45 -11 0 -15
-12 -15 -45 0 -33 -4 -45 -15 -45 -11 0 -15 -12 -15 -45 0 -33 -4 -45 -15 -45
-11 0 -15 -12 -15 -45 0 -33 -4 -45 -15 -45 -11 0 -15 -12 -15 -45 0 -33 -4
-45 -15 -45 -8 0 -15 -9 -15 -20 0 -19 -7 -20 -110 -20 -103 0 -110 1 -110 20
0 11 -7 20 -15 20 -10 0 -15 10 -15 30 0 20 -5 30 -15 30 -11 0 -15 12 -15 45
0 33 -4 45 -15 45 -11 0 -15 12 -15 44 0 30 -5 46 -15 50 -10 3 -15 19 -15 45
0 25 -5 41 -15 45 -10 3 -15 19 -15 45 0 25 -5 41 -15 45 -9 3 -15 18 -15 40
0 19 -6 37 -12 39 -7 3 -4 6 7 7 19 1 18 2 -2 10 -17 7 -23 18 -23 40 0 17 -5
30 -12 31 -7 0 -4 4 7 9 17 7 17 9 3 9 -10 1 -18 7 -18 15 0 8 -7 16 -15 20
-12 4 -15 -3 -15 -29 0 -24 -5 -35 -15 -35 -10 0 -15 -10 -15 -30 0 -22 -5
-30 -17 -31 -11 0 -13 -3 -5 -6 7 -3 11 -21 11 -46 l-2 -42 -7 40 -7 40 -2
-42 c-1 -31 -5 -43 -16 -43 -11 0 -15 -12 -15 -45 0 -33 -4 -45 -15 -45 -11 0
-15 -12 -15 -45 0 -33 -4 -45 -15 -45 -11 0 -15 -12 -15 -45 0 -33 -4 -45 -15
-45 -11 0 -15 -12 -15 -45 0 -33 -4 -45 -15 -45 -11 0 -15 -12 -15 -50 l0 -50
-125 0 c-123 0 -125 0 -126 23 -1 21 -1 21 -8 -3 -7 -24 -7 -24 -14 9 -4 18
-8 50 -8 70 l-2 36 -6 -35 c-7 -31 -8 -27 -15 35 -9 86 -14 101 -16 55 l-2
-35 -9 40 c-4 22 -9 58 -10 80 -2 40 -2 39 -8 -10 -6 -48 -7 -45 -16 45 -8 84
-10 90 -15 50 -5 -41 -7 -37 -14 43 -6 63 -12 87 -22 87 -10 0 -14 14 -15 43
l-2 42 -7 -40 -7 -40 -2 42 c0 25 4 43 12 46 7 3 5 6 -5 6 -14 1 -18 10 -19
39 l-2 37 -7 -35 -7 -35 -2 37 c0 21 4 38 12 41 7 3 5 6 -5 6 -15 1 -18 10
-18 51 0 38 -4 50 -15 50 -11 0 -15 12 -15 45 0 33 -4 45 -15 45 -11 0 -15 12
-15 45 0 33 -4 45 -15 45 -10 0 -15 11 -15 35 l0 35 110 0 110 0 1 -32z m4449
17 c0 -8 7 -15 15 -15 8 0 15 -7 15 -15 0 -8 7 -15 15 -15 10 0 15 -10 15 -30
0 -20 5 -30 15 -30 8 0 15 -7 15 -15 0 -8 7 -15 15 -15 8 0 15 -7 15 -15 0 -8
7 -15 15 -15 8 0 15 -7 15 -15 0 -8 7 -15 15 -15 8 0 15 -7 15 -15 0 -8 7 -15
15 -15 9 0 15 -9 15 -25 0 -17 6 -25 18 -26 14 0 14 -2 -3 -8 -17 -7 -15 -9
15 -16 29 -7 32 -9 15 -15 -17 -6 -14 -8 15 -15 29 -7 32 -9 15 -15 -17 -6
-14 -8 15 -15 30 -7 32 -9 15 -16 -17 -6 -17 -8 -2 -8 9 -1 17 -8 17 -16 0 -8
7 -15 15 -15 8 0 15 -9 15 -21 0 -11 4 -18 9 -14 5 3 12 1 16 -5 3 -5 -2 -11
-12 -11 -17 -1 -17 -2 0 -6 9 -2 17 -10 17 -16 0 -8 3 -8 9 1 7 11 9 11 14 -2
4 -11 1 -16 -11 -17 -14 0 -14 -2 3 -8 11 -5 23 -7 28 -4 4 2 7 0 7 -6 0 -5
-6 -12 -12 -14 -8 -3 -6 -6 5 -6 9 -1 17 -8 17 -16 0 -8 7 -15 15 -15 8 0 15
-7 15 -15 0 -8 5 -15 10 -15 6 0 10 110 10 310 l0 310 110 0 110 0 0 -515 0
-515 -95 0 c-88 0 -95 1 -95 20 0 11 -7 20 -15 20 -8 0 -15 7 -15 15 0 8 -7
15 -15 15 -8 0 -15 9 -15 21 0 11 -4 17 -10 14 -5 -3 -10 -2 -10 4 0 5 6 12
13 14 7 3 5 6 -5 6 -10 1 -18 8 -18 16 0 8 -7 15 -15 15 -8 0 -15 7 -15 15 0
8 -7 15 -15 15 -8 0 -15 7 -15 15 0 8 -7 15 -15 15 -8 0 -15 7 -15 15 0 8 -7
15 -15 15 -10 0 -15 10 -15 30 0 20 -5 30 -15 30 -8 0 -15 7 -15 15 0 8 -7 15
-15 15 -8 0 -15 7 -15 15 0 8 -7 15 -15 15 -8 0 -15 7 -15 15 0 8 -7 15 -15
15 -8 0 -15 6 -15 14 0 8 -7 16 -15 20 -8 3 -15 12 -15 21 0 8 -6 15 -12 15
-9 0 -8 4 2 10 11 7 12 10 2 10 -19 0 -48 30 -30 30 7 1 0 7 -17 15 -16 7 -23
14 -15 15 8 1 2 6 -14 12 -21 8 -25 13 -15 19 11 7 10 9 -3 9 -10 0 -18 7 -18
15 0 8 -4 15 -10 15 -6 0 -10 -110 -10 -310 l0 -310 -110 0 -110 0 0 508 c0
280 3 512 7 515 3 4 46 7 95 7 72 0 88 -3 88 -15z m5320 -275 c0 -251 2 -290
15 -290 12 0 15 -16 15 -80 0 -64 3 -80 15 -80 10 0 15 -10 15 -30 0 -20 5
-30 15 -30 8 0 15 -7 15 -15 0 -10 10 -15 30 -15 20 0 30 -5 30 -15 0 -12 18
-15 105 -15 89 0 104 2 99 15 -5 12 2 15 30 15 27 0 34 3 30 15 -4 9 0 15 10
15 9 0 16 7 16 15 0 8 7 15 15 15 12 0 15 14 15 65 0 51 3 65 15 65 13 0 15
42 15 320 l0 320 95 0 95 0 0 -390 c0 -340 -2 -390 -15 -390 -10 0 -15 -10
-15 -30 0 -20 -5 -30 -15 -30 -10 0 -15 -10 -15 -30 0 -20 -5 -30 -15 -30 -8
0 -15 -7 -15 -15 0 -8 -7 -15 -15 -15 -8 0 -15 -7 -15 -15 0 -8 -7 -15 -15
-15 -8 0 -15 -7 -15 -15 0 -10 -10 -15 -30 -15 -20 0 -30 -5 -30 -15 0 -10
-10 -15 -30 -15 -20 0 -30 -5 -30 -15 0 -13 -26 -15 -170 -15 -144 0 -170 2
-170 15 0 10 -10 15 -30 15 -20 0 -30 5 -30 15 0 10 -10 15 -30 15 -20 0 -30
5 -30 15 0 8 -7 15 -15 15 -8 0 -15 7 -15 15 0 8 -7 15 -15 15 -8 0 -15 7 -15
15 0 8 -7 15 -15 15 -10 0 -16 11 -16 33 l-2 32 -5 -30 c-5 -26 -7 -22 -18 30
-9 45 -12 52 -14 30 l-2 -30 -8 30 c-4 17 -8 204 -9 418 l-1 387 95 0 95 0 0
-290z m1160 -220 l0 -510 -105 0 -105 0 0 510 0 510 105 0 105 0 0 -510z
m-11163 453 c-3 -10 -5 -2 -5 17 0 19 2 27 5 18 2 -10 2 -26 0 -35z m1630 0
c-3 -10 -5 -2 -5 17 0 19 2 27 5 18 2 -10 2 -26 0 -35z m3790 -721 c-1 -141
-2 -25 -2 258 0 283 1 399 2 257 2 -141 2 -373 0 -515z m4380 221 c-1 -103 -2
-21 -2 182 0 204 1 288 2 188 2 -100 2 -266 0 -370z m220 125 c-1 -79 -3 -15
-3 142 0 157 2 221 3 143 2 -79 2 -207 0 -285z m920 -341 c-1 -139 -2 -22 -2
258 0 281 1 394 2 252 2 -142 2 -372 0 -510z m240 0 c-1 -139 -2 -22 -2 258 0
281 1 394 2 252 2 -142 2 -372 0 -510z m-10900 651 c-2 -13 -4 -5 -4 17 -1 22
1 32 4 23 2 -10 2 -28 0 -40z m-250 -20 c-2 -13 -4 -3 -4 22 0 25 2 35 4 23 2
-13 2 -33 0 -45z m1570 0 c-2 -13 -4 -3 -4 22 0 25 2 35 4 23 2 -13 2 -33 0
-45z m-940 -10 c-2 -13 -4 -5 -4 17 -1 22 1 32 4 23 2 -10 2 -28 0 -40z m-350
-60 c-2 -13 -4 -5 -4 17 -1 22 1 32 4 23 2 -10 2 -28 0 -40z m-250 -20 c-2
-13 -4 -3 -4 22 0 25 2 35 4 23 2 -13 2 -33 0 -45z m1510 25 c-3 -10 -5 -4 -5
12 0 17 2 24 5 18 2 -7 2 -21 0 -30z m5010 5 c-3 -7 -5 -2 -5 12 0 14 2 19 5
13 2 -7 2 -19 0 -25z m920 -140 c-2 -35 -3 -9 -3 57 0 66 1 94 3 63 2 -32 2
-86 0 -120z m1320 140 c-3 -7 -5 -2 -5 12 0 14 2 19 5 13 2 -7 2 -19 0 -25z
m2800 -605 c-1 -120 -2 -25 -2 212 0 237 1 335 2 218 2 -116 2 -310 0 -430z
m-4329 560 c-10 -2 -26 -2 -35 0 -10 3 -2 5 17 5 19 0 27 -2 18 -5z m2255 0
c-7 -2 -19 -2 -25 0 -7 3 -2 5 12 5 14 0 19 -2 13 -5z m4390 0 c-7 -2 -19 -2
-25 0 -7 3 -2 5 12 5 14 0 19 -2 13 -5z m-13846 -80 c-2 -16 -4 -5 -4 22 0 28
2 40 4 28 2 -13 2 -35 0 -50z m1450 20 c-3 -10 -5 -2 -5 17 0 19 2 27 5 18 2
-10 2 -26 0 -35z m-940 -15 c-3 -7 -5 -2 -5 12 0 14 2 19 5 13 2 -7 2 -19 0
-25z m5980 -70 c-3 -7 -5 -2 -5 12 0 14 2 19 5 13 2 -7 2 -19 0 -25z m2240 0
c-3 -7 -5 -2 -5 12 0 14 2 19 5 13 2 -7 2 -19 0 -25z m-8250 -20 c-3 -7 -5 -2
-5 12 0 14 2 19 5 13 2 -7 2 -19 0 -25z m220 -40 c-3 -7 -5 -2 -5 12 0 14 2
19 5 13 2 -7 2 -19 0 -25z m12240 -90 c-2 -24 -4 -5 -4 42 0 47 2 66 4 43 2
-24 2 -62 0 -85z m-12630 45 c-2 -16 -4 -5 -4 22 0 28 2 40 4 28 2 -13 2 -35
0 -50z m140 -10 c-3 -10 -5 -2 -5 17 0 19 2 27 5 18 2 -10 2 -26 0 -35z m-110
-85 c-2 -13 -4 -3 -4 22 0 25 2 35 4 23 2 -13 2 -33 0 -45z m80 0 c-2 -13 -4
-3 -4 22 0 25 2 35 4 23 2 -13 2 -33 0 -45z m-330 -10 c-2 -13 -4 -5 -4 17 -1
22 1 32 4 23 2 -10 2 -28 0 -40z m1270 20 c-3 -7 -5 -2 -5 12 0 14 2 19 5 13
2 -7 2 -19 0 -25z m8180 -15 c-3 -10 -5 -4 -5 12 0 17 2 24 5 18 2 -7 2 -21 0
-30z m-8900 -35 c-2 -13 -4 -5 -4 17 -1 22 1 32 4 23 2 -10 2 -28 0 -40z
m-270 -50 c-2 -13 -4 -3 -4 22 0 25 2 35 4 23 2 -13 2 -33 0 -45z m9200 -120
c-2 -35 -3 -7 -3 62 0 69 1 97 3 63 2 -35 2 -91 0 -125z m390 95 c-2 -16 -4
-5 -4 22 0 28 2 40 4 28 2 -13 2 -35 0 -50z m-2630 -80 c-2 -27 -3 -5 -3 47 0
52 1 74 3 48 2 -27 2 -69 0 -95z m920 0 c-2 -27 -3 -5 -3 47 0 52 1 74 3 48 2
-27 2 -69 0 -95z m-7640 85 c-3 -7 -5 -2 -5 12 0 14 2 19 5 13 2 -7 2 -19 0
-25z m6460 -30 c-3 -7 -5 -2 -5 12 0 14 2 19 5 13 2 -7 2 -19 0 -25z m-6490
-65 c-3 -10 -5 -4 -5 12 0 17 2 24 5 18 2 -7 2 -21 0 -30z m6490 -10 c-3 -10
-5 -4 -5 12 0 17 2 24 5 18 2 -7 2 -21 0 -30z m-580 -30 c-3 -10 -5 -4 -5 12
0 17 2 24 5 18 2 -7 2 -21 0 -30z m-5940 -50 c-3 -10 -5 -4 -5 12 0 17 2 24 5
18 2 -7 2 -21 0 -30z m1920 -96 c-2 -23 -3 -2 -3 48 0 50 1 68 3 42 2 -26 2
-67 0 -90z m1810 0 c-2 -23 -3 -2 -3 48 0 50 1 68 3 42 2 -26 2 -67 0 -90z
m8740 0 c-2 -23 -3 -2 -3 48 0 50 1 68 3 42 2 -26 2 -67 0 -90z m-6560 76 c-3
-10 -5 -2 -5 17 0 19 2 27 5 18 2 -10 2 -26 0 -35z m2240 -20 c-2 -16 -4 -5
-4 22 0 28 2 40 4 28 2 -13 2 -35 0 -50z m-8180 -50 c-3 -10 -5 -4 -5 12 0 17
2 24 5 18 2 -7 2 -21 0 -30z m1730 -60 c-109 -2 -285 -2 -390 0 -106 1 -16 2
198 2 215 0 301 -1 192 -2z m956 0 c-100 -2 -266 -2 -370 0 -103 1 -21 2 182
2 204 0 288 -1 188 -2z m870 0 c-101 -2 -265 -2 -365 0 -101 1 -19 2 182 2
201 0 283 -1 183 -2z m6945 0 c-26 -2 -71 -2 -100 0 -29 2 -8 3 47 3 55 0 79
-1 53 -3z m680 0 c-26 -2 -71 -2 -100 0 -29 2 -8 3 47 3 55 0 79 -1 53 -3z
m1110 0 c-109 -2 -287 -2 -395 0 -109 1 -20 2 197 2 217 0 306 -1 198 -2z
m-12390 -10 c-32 -2 -84 -2 -115 0 -32 2 -6 3 57 3 63 0 89 -1 58 -3z m725 0
c-29 -2 -78 -2 -110 0 -32 2 -8 3 52 3 61 0 87 -1 58 -3z m3405 0 c-27 -2 -69
-2 -95 0 -27 2 -5 3 47 3 52 0 74 -1 48 -3z m720 0 c-27 -2 -69 -2 -95 0 -27
2 -5 3 47 3 52 0 74 -1 48 -3z m900 0 c-109 -2 -287 -2 -395 0 -109 1 -20 2
197 2 217 0 306 -1 198 -2z m785 -20 c-46 -2 -120 -2 -165 0 -46 1 -9 3 82 3
91 0 128 -2 83 -3z m925 0 c-42 -2 -114 -2 -160 0 -46 1 -11 3 77 3 88 0 125
-2 83 -3z m1320 0 c-42 -2 -114 -2 -160 0 -46 1 -11 3 77 3 88 0 125 -2 83 -3z
m1034 0 c-40 -2 -103 -2 -140 0 -37 2 -4 3 73 3 77 0 107 -2 67 -3z m3366 0
c-42 -2 -114 -2 -160 0 -46 1 -11 3 77 3 88 0 125 -2 83 -3z"/>
<path d="M21659 3383 l-24 -28 28 24 c15 14 27 26 27 28 0 8 -8 1 -31 -24z"/>
<path d="M21599 3313 l-34 -38 38 34 c20 19 37 36 37 38 0 8 -8 0 -41 -34z"/>
<path d="M23670 3313 c0 -6 8 -17 18 -24 16 -13 16 -13 2 6 -8 11 -16 22 -17
24 -2 2 -3 0 -3 -6z"/>
<path d="M19190 3725 c13 -14 26 -25 28 -25 3 0 -5 11 -18 25 -13 14 -26 25
-28 25 -3 0 5 -11 18 -25z"/>
<path d="M19620 3325 c19 -19 36 -35 39 -35 3 0 -10 16 -29 35 -19 19 -36 35
-39 35 -3 0 10 -16 29 -35z"/>
<path d="M19540 3207 c0 -2 15 -16 33 -33 l32 -29 -29 33 c-28 30 -36 37 -36
29z"/>
<path d="M20415 2390 c21 -22 41 -40 44 -40 3 0 -13 18 -34 40 -21 22 -41 40
-44 40 -3 0 13 -18 34 -40z"/>
<path d="M16050 3370 c6 -11 13 -20 16 -20 2 0 0 9 -6 20 -6 11 -13 20 -16 20
-2 0 0 -9 6 -20z"/>
<path d="M17410 2970 c-6 -11 -8 -20 -6 -20 3 0 10 9 16 20 6 11 8 20 6 20 -3
0 -10 -9 -16 -20z"/>
<path d="M16850 2260 c6 -11 13 -20 16 -20 2 0 0 9 -6 20 -6 11 -13 20 -16 20
-2 0 0 -9 6 -20z"/>
<path d="M2824 3498 l-19 -23 23 19 c12 11 22 21 22 23 0 8 -8 2 -26 -19z"/>
<path d="M2784 3448 l-19 -23 23 19 c12 11 22 21 22 23 0 8 -8 2 -26 -19z"/>
<path d="M4825 3420 c21 -22 41 -40 44 -40 3 0 -13 18 -34 40 -21 22 -41 40
-44 40 -3 0 13 -18 34 -40z"/>
<path d="M9300 3350 c-73 -8 -102 -18 -94 -31 3 -5 -1 -6 -9 -4 -14 6 -181
-54 -173 -62 2 -2 13 0 24 6 12 6 24 11 29 11 4 -1 -3 -7 -17 -15 -14 -7 -37
-11 -52 -8 -20 4 -33 -1 -54 -22 -20 -20 -24 -29 -14 -35 8 -5 9 -9 1 -14 -6
-4 -11 -4 -11 1 0 4 -5 0 -11 -10 -5 -9 -8 -21 -4 -26 3 -5 0 -13 -6 -17 -8
-4 -9 -3 -5 4 4 7 5 12 2 12 -4 0 -56 -89 -56 -97 0 -2 5 -1 11 3 8 4 8 0 0
-15 -7 -11 -14 -21 -17 -21 -3 0 -2 5 1 10 3 6 4 10 1 10 -35 0 -53 -232 -20
-264 9 -9 11 -16 4 -16 -6 0 -8 -5 -5 -10 4 -6 10 -8 14 -6 4 3 13 -5 21 -17
12 -21 12 -21 -5 -7 -17 14 -17 14 -1 -17 9 -18 19 -33 22 -33 3 0 2 6 -2 13
-5 8 -2 7 10 -2 10 -9 13 -17 6 -21 -6 -4 -5 -13 6 -26 8 -10 13 -12 9 -4 -4
8 1 6 9 -4 9 -11 16 -25 16 -30 0 -6 -5 -4 -10 4 -5 8 -10 10 -10 4 0 -6 10
-19 23 -28 12 -9 16 -14 10 -11 -9 4 -10 0 -4 -17 6 -16 29 -31 81 -51 41 -15
80 -25 87 -22 8 2 12 1 9 -4 -8 -12 81 -44 95 -35 7 4 9 3 5 -4 -12 -20 94
-34 219 -30 118 4 122 5 265 62 80 32 150 62 155 68 7 8 6 9 -2 4 -9 -5 -11
-2 -7 8 3 9 11 14 17 13 7 -1 12 9 13 23 0 14 5 24 11 23 5 -1 16 10 22 24 11
24 11 25 -5 12 -16 -13 -16 -12 -4 8 8 12 16 21 19 21 18 -2 24 3 14 10 -10 6
-10 12 2 28 15 19 15 19 8 -1 -8 -25 0 -18 17 14 8 15 8 21 1 17 -8 -5 -8 0 0
18 7 14 15 23 19 21 12 -7 22 102 15 158 -8 64 -14 87 -23 86 -18 -3 -26 2
-15 9 10 6 10 12 -3 28 -8 10 -13 13 -9 7 9 -18 0 -16 -16 4 -12 14 -12 16 0
8 11 -6 13 -4 8 9 -4 10 -7 20 -7 22 0 3 -4 3 -9 -1 -6 -3 -15 4 -21 16 -9 17
-9 20 0 14 8 -5 11 -3 8 6 -3 8 -11 13 -17 11 -6 -1 -12 4 -12 10 -6 66 -15
74 -117 113 -53 21 -117 46 -142 57 -25 11 -83 24 -130 29 -93 9 -95 9 -190
-1z m123 -7 c-13 -2 -33 -2 -45 0 -13 2 -3 4 22 4 25 0 35 -2 23 -4z m-110
-10 c-13 -2 -33 -2 -45 0 -13 2 -3 4 22 4 25 0 35 -2 23 -4z m220 0 c-13 -2
-33 -2 -45 0 -13 2 -3 4 22 4 25 0 35 -2 23 -4z m77 -18 c14 -8 21 -14 15 -14
-5 0 -21 6 -35 14 -14 8 -20 14 -15 14 6 0 21 -6 35 -14z m231 -96 l24 -20
-30 17 c-39 24 -40 24 -28 24 6 0 21 -9 34 -21z m-873 -3 c-7 -8 -15 -12 -17
-11 -5 6 10 25 20 25 5 0 4 -6 -3 -14z m-78 -136 c-6 -11 -13 -20 -16 -20 -2
0 0 9 6 20 6 11 13 20 16 20 2 0 0 -9 -6 -20z m-63 -182 c-2 -13 -4 -3 -4 22
0 25 2 35 4 23 2 -13 2 -33 0 -45z m0 -100 c-2 -13 -4 -3 -4 22 0 25 2 35 4
23 2 -13 2 -33 0 -45z m159 -285 c-6 -6 -36 9 -36 18 0 5 9 4 20 -3 10 -7 18
-14 16 -15z m74 -23 c8 -5 11 -10 5 -10 -5 0 -17 5 -25 10 -8 5 -10 10 -5 10
6 0 17 -5 25 -10z m640 -25 c-14 -8 -29 -14 -35 -14 -5 0 1 6 15 14 14 8 30
14 35 14 6 0 -1 -6 -15 -14z m-80 -30 c-14 -8 -29 -14 -35 -14 -5 0 1 6 15 14
14 8 30 14 35 14 6 0 -1 -6 -15 -14z m-157 -32 c-35 -2 -91 -2 -125 0 -35 2
-7 3 62 3 69 0 97 -1 63 -3z"/>
<path d="M8264 3308 l-19 -23 23 19 c12 11 22 21 22 23 0 8 -8 2 -26 -19z"/>
<path d="M1387 3242 c4 -9 2 -13 -4 -9 -5 4 -15 -5 -22 -19 -6 -14 -7 -23 -1
-19 6 3 7 -1 4 -9 -3 -9 -9 -14 -14 -11 -4 2 -12 -8 -19 -23 -11 -25 -10 -26
4 -8 22 29 18 9 -5 -24 -11 -15 -16 -30 -12 -34 4 -4 1 -6 -7 -4 -8 2 -20 -11
-28 -30 -9 -22 -10 -31 -2 -27 7 5 7 0 -1 -16 -17 -32 -25 -39 -17 -14 7 20 7
20 -8 1 -18 -23 -20 -40 -4 -30 7 4 10 1 7 -7 -3 -8 -10 -13 -16 -12 -7 2 -9
-4 -5 -14 5 -11 3 -14 -6 -8 -10 5 -11 2 -7 -13 4 -12 2 -23 -5 -28 -8 -4 -9
-3 -5 4 4 7 5 12 2 12 -6 0 -66 -115 -66 -125 0 -4 5 -3 11 1 8 4 8 0 0 -15
-7 -11 -14 -21 -17 -21 -3 0 -2 5 2 12 4 6 3 8 -3 5 -6 -4 -13 -15 -16 -26 -5
-19 2 -20 262 -21 147 0 270 2 273 6 7 7 -10 53 -25 69 -7 7 -7 6 -3 -2 4 -7
5 -13 2 -13 -3 0 -10 10 -17 21 -8 15 -8 19 0 15 16 -10 13 7 -5 30 -8 10 -13
13 -9 7 11 -22 -4 -14 -16 8 -8 15 -8 19 0 15 16 -10 13 7 -5 30 -8 10 -13 13
-9 7 11 -22 -4 -14 -16 8 -8 15 -8 19 0 15 6 -4 11 -4 10 1 -1 19 -88 178 -95
175 -5 -2 -10 2 -13 9 -2 7 1 9 9 4 8 -5 11 -3 8 6 -3 8 -11 13 -18 11 -8 -2
-10 3 -7 12 4 9 1 15 -5 13 -6 -1 -13 4 -16 12 -3 9 0 11 8 6 8 -5 11 -3 8 6
-3 8 -10 13 -15 12 -6 -1 -15 9 -22 23 -8 19 -8 23 0 18 7 -4 10 -2 7 6 -2 7
-11 14 -20 16 -11 1 -15 -3 -11 -14z m153 -272 c6 -11 8 -20 6 -20 -3 0 -10 9
-16 20 -6 11 -8 20 -6 20 3 0 10 -9 16 -20z m-350 -150 c-6 -11 -13 -20 -16
-20 -2 0 0 9 6 20 6 11 13 20 16 20 2 0 0 -9 -6 -20z"/>
<path d="M1390 2700 l-285 -5 288 -3 c186 -1 287 2 287 8 0 6 -1 9 -2 8 -2 -2
-131 -5 -288 -8z"/>
<path d="M1148 2263 c139 -2 364 -2 500 0 136 1 22 2 -253 2 -275 0 -386 -1
-247 -2z"/>
<path d="M11680 3565 c19 -19 36 -35 39 -35 3 0 -10 16 -29 35 -19 19 -36 35
-39 35 -3 0 10 -16 29 -35z"/>
<path d="M12010 3187 c0 -2 15 -16 33 -33 l32 -29 -29 33 c-28 30 -36 37 -36
29z"/>
<path d="M12100 3087 c0 -2 15 -16 33 -33 l32 -29 -29 33 c-28 30 -36 37 -36
29z"/>
<path d="M12160 3017 c0 -2 15 -16 33 -33 l32 -29 -29 33 c-28 30 -36 37 -36
29z"/>
<path d="M12310 2847 c0 -2 15 -16 33 -33 l32 -29 -29 33 c-28 30 -36 37 -36
29z"/>
<path d="M11750 2685 c19 -19 36 -35 39 -35 3 0 -10 16 -29 35 -19 19 -36 35
-39 35 -3 0 10 -16 29 -35z"/>
<path d="M18814 475 c0 -66 1 -92 3 -57 2 34 2 88 0 120 -2 31 -3 3 -3 -63z"/>
</g>
</svg>
