<?xml version="1.0" standalone="no"?>
<!DOCTYPE svg PUBLIC "-//W3C//DTD SVG 20010904//EN"
 "http://www.w3.org/TR/2001/REC-SVG-20010904/DTD/svg10.dtd">
<svg version="1.0" xmlns="http://www.w3.org/2000/svg"
 width="100%" height="100%" viewBox="0 0 854.000000 500.000000"
 preserveAspectRatio="xMidYMid meet">
<metadata>
Created by potrace 1.16, written by Peter Selinger 2001-2019
</metadata>
<g transform="translate(0.000000,500.000000) scale(0.100000,-0.100000)"
fill="white" stroke="none">
<path d="M8069 4768 c-58 -80 -208 -396 -261 -548 -16 -47 -58 -188 -94 -315
-36 -126 -69 -243 -74 -260 -5 -16 -20 -70 -34 -119 -14 -48 -30 -94 -36 -101
-6 -7 -22 -54 -36 -104 -23 -85 -106 -267 -128 -283 -11 -8 -35 20 -36 41 0 8
-10 25 -22 38 -20 22 -21 26 -9 74 11 43 11 53 -2 67 -35 40 -41 68 -43 203
-1 76 -7 146 -13 157 -6 12 -9 40 -7 64 25 233 15 457 -25 562 -25 67 -24 97
7 179 30 79 27 102 -20 155 -26 28 -49 41 -101 56 -47 13 -72 16 -83 9 -38
-23 -386 -934 -667 -1743 -161 -462 -160 -461 -147 -533 6 -32 16 -65 23 -73
15 -19 52 -18 97 3 20 9 58 17 84 18 70 1 99 31 142 149 121 328 275 713 327
817 36 73 55 89 74 63 12 -15 16 -16 23 -6 7 11 11 10 16 -4 4 -11 -1 -25 -13
-38 -15 -16 -17 -25 -9 -39 11 -21 3 -116 -14 -160 -13 -33 -2 -49 17 -23 8
10 18 15 24 12 16 -11 25 -74 12 -90 -8 -9 -10 -28 -5 -51 4 -25 2 -41 -8 -53
-8 -9 -19 -29 -26 -44 -9 -23 -9 -28 2 -28 16 0 26 -30 26 -81 0 -21 7 -42 16
-50 12 -10 14 -25 10 -68 -4 -39 -2 -64 8 -80 10 -19 11 -31 3 -48 -15 -34 13
-59 88 -79 99 -26 129 -22 247 34 143 68 130 44 267 478 35 110 59 168 75 183
16 15 22 29 18 46 -3 16 0 25 8 25 8 0 10 8 7 21 -4 13 4 42 19 70 13 27 24
53 24 60 0 6 14 32 31 57 18 27 27 48 20 50 -16 5 -14 27 4 42 8 7 15 21 15
31 0 20 27 85 46 109 6 8 17 38 23 65 7 28 23 66 36 85 13 19 28 54 34 78 5
24 17 52 26 63 16 17 16 19 1 25 -14 5 -13 9 8 29 13 12 30 42 36 66 11 42 18
59 71 173 17 37 20 53 11 66 -11 19 1 40 23 40 7 0 19 26 28 58 9 32 37 103
63 157 54 117 64 164 40 200 -19 28 -76 57 -149 74 -74 17 -84 15 -118 -31z"/>
<path d="M5127 4690 c-12 -15 -29 -20 -66 -20 -31 0 -53 -5 -61 -15 -7 -8 -27
-15 -45 -15 -19 0 -39 -8 -50 -20 -12 -13 -31 -20 -55 -20 -24 0 -43 -7 -55
-20 -15 -16 -31 -20 -85 -20 -46 0 -71 -5 -79 -14 -7 -8 -37 -16 -69 -19 -31
-2 -70 -9 -87 -15 -38 -13 -191 -43 -272 -52 -34 -4 -74 -15 -87 -24 -16 -10
-46 -16 -79 -16 -36 0 -59 -5 -67 -15 -9 -11 -32 -15 -80 -15 -52 0 -73 -4
-93 -20 -16 -13 -40 -20 -67 -20 -27 0 -86 -18 -168 -52 -274 -111 -323 -128
-368 -128 -24 0 -61 -7 -81 -15 -19 -8 -54 -15 -78 -15 -29 0 -47 -6 -60 -20
-10 -11 -28 -20 -41 -20 -12 0 -24 -6 -27 -12 -3 -10 -7 -10 -18 -1 -12 10
-17 8 -27 -8 -7 -10 -21 -19 -32 -19 -17 0 -20 -7 -20 -48 0 -61 -28 -92 -84
-92 -31 0 -46 -8 -94 -55 -31 -30 -65 -55 -75 -55 -10 0 -20 -7 -23 -15 -4 -8
-12 -15 -19 -15 -7 0 -23 -16 -35 -35 -12 -19 -25 -35 -29 -35 -5 0 -26 -26
-49 -57 -22 -32 -64 -80 -92 -108 -136 -130 -359 -451 -455 -652 -21 -46 -43
-83 -48 -83 -5 0 -17 -10 -26 -22 -25 -30 -56 -18 -47 20 3 15 17 90 30 167
32 182 52 260 82 313 18 33 21 47 13 60 -13 21 18 102 39 102 20 0 27 31 9 41
-14 9 -14 12 1 39 9 16 24 31 33 33 12 3 18 21 22 68 5 54 2 71 -17 110 l-23
46 21 36 20 35 -24 48 c-23 44 -29 49 -64 52 -30 3 -41 -1 -53 -17 -10 -15
-25 -21 -51 -21 -26 0 -41 -6 -50 -20 -9 -15 -23 -20 -52 -20 -33 0 -40 -4
-40 -19 0 -10 -26 -52 -57 -92 -97 -125 -169 -233 -196 -292 -14 -32 -55 -102
-91 -156 -35 -54 -92 -154 -126 -222 -34 -68 -72 -137 -85 -154 -12 -16 -35
-55 -50 -85 -15 -30 -36 -67 -46 -82 -11 -14 -33 -55 -51 -90 -17 -35 -41 -76
-53 -93 -13 -16 -38 -61 -56 -100 -33 -72 -78 -148 -91 -153 -4 -2 -10 -19
-14 -38 -3 -19 -9 -34 -13 -34 -7 0 -27 -45 -37 -82 -5 -25 -11 -28 -45 -28
-26 0 -42 -5 -45 -15 -4 -8 -14 -15 -24 -15 -18 0 -34 -23 -23 -34 4 -3 19 -6
35 -6 30 0 39 -23 14 -33 -10 -4 -16 -24 -18 -54 -3 -46 -4 -48 -35 -51 -23
-2 -33 -9 -37 -27 -4 -14 -14 -32 -24 -42 -10 -10 -25 -34 -32 -53 -8 -19 -52
-114 -99 -210 -116 -235 -143 -298 -136 -310 3 -6 24 -10 45 -10 29 0 42 5 50
20 6 11 17 20 25 20 7 0 17 9 20 20 3 11 21 36 39 55 30 31 39 35 85 35 39 0
51 4 51 15 0 8 9 15 20 15 11 0 23 8 27 18 3 9 15 37 26 62 11 25 19 53 18 62
-2 21 36 97 94 188 25 38 52 86 60 107 25 59 150 217 205 259 27 21 51 43 54
51 3 7 14 13 24 13 11 0 25 7 32 15 7 8 19 15 26 15 8 0 19 9 26 20 7 11 19
20 26 20 7 0 15 7 18 15 4 8 15 15 25 15 11 0 22 7 25 15 9 22 23 18 33 -7 6
-16 4 -28 -5 -39 -8 -9 -12 -23 -9 -31 3 -8 -6 -50 -20 -94 -15 -43 -38 -119
-52 -169 -14 -49 -32 -112 -40 -140 -8 -27 -23 -86 -34 -130 -10 -44 -30 -120
-44 -170 -14 -49 -38 -139 -54 -200 -17 -60 -39 -137 -50 -170 -11 -33 -21
-79 -21 -102 0 -23 -4 -44 -9 -47 -5 -3 -14 -26 -20 -51 -6 -25 -19 -49 -30
-55 -18 -9 -34 -61 -36 -115 0 -11 -11 -42 -24 -70 -27 -59 -54 -187 -71 -340
-7 -60 -17 -118 -22 -128 -7 -13 -5 -24 6 -36 9 -10 16 -30 16 -44 0 -32 25
-37 33 -7 3 14 12 19 27 18 19 -3 24 4 35 42 21 77 45 194 45 218 0 12 7 25
15 28 8 4 15 17 15 30 0 13 5 32 10 42 16 27 76 192 95 260 10 34 22 62 26 62
5 0 9 6 9 14 0 7 10 21 22 30 21 14 21 17 6 26 -14 8 -14 15 -5 40 15 40 30
38 22 -3 -5 -28 -4 -30 7 -12 6 11 13 39 14 63 1 24 10 52 19 62 9 10 23 44
31 77 8 32 35 101 59 153 24 52 66 151 94 220 27 69 70 169 95 222 24 53 55
130 67 170 11 40 37 110 55 155 40 96 120 336 130 388 3 20 13 39 20 42 9 3
14 22 14 52 0 60 9 91 26 91 7 0 18 9 24 20 13 24 40 27 40 5 0 -9 -7 -32 -16
-53 -72 -166 -144 -472 -144 -610 0 -67 26 -166 63 -239 22 -42 38 -59 87 -87
34 -20 73 -36 86 -36 17 0 28 -7 31 -20 5 -19 14 -20 120 -20 106 0 115 1 120
20 4 16 14 20 44 20 22 0 42 -1 45 -2 4 -2 10 7 15 20 5 12 15 22 23 22 7 0
16 7 20 15 3 8 12 15 21 15 8 0 15 9 15 20 0 15 7 20 28 20 20 0 33 9 51 35
13 19 32 35 42 35 11 0 19 4 19 9 0 14 45 61 59 61 6 0 11 7 11 15 0 11 11 15
40 15 29 0 42 5 50 20 6 11 17 20 25 20 8 0 19 9 25 20 6 11 17 20 24 20 8 0
22 17 32 38 13 27 19 32 22 20 4 -22 18 -23 26 -3 3 8 12 15 21 15 16 0 30 11
95 73 21 20 44 37 50 37 5 0 10 7 10 15 0 10 10 15 27 15 19 0 40 12 64 38 57
57 75 72 87 72 17 0 23 17 16 45 -6 24 -24 36 -24 16 0 -17 -46 -61 -64 -61
-20 0 -21 29 -1 36 8 4 15 10 15 14 0 17 74 90 92 90 11 0 18 7 18 20 0 11 -7
20 -15 20 -8 0 -15 -7 -15 -15 0 -9 -11 -20 -25 -25 -14 -5 -25 -14 -25 -20 0
-5 -11 -10 -25 -10 -14 0 -40 -15 -64 -38 -68 -63 -80 -72 -99 -72 -11 0 -27
-9 -37 -20 -10 -11 -24 -20 -30 -20 -7 0 -15 -7 -19 -15 -3 -8 -12 -15 -21
-15 -22 0 -115 -48 -115 -60 0 -6 -8 -10 -18 -10 -10 0 -29 -12 -43 -26 -13
-15 -42 -35 -64 -46 -57 -28 -85 -44 -98 -57 -6 -6 -17 -11 -25 -11 -8 0 -32
-16 -54 -35 -21 -20 -52 -38 -68 -42 -16 -3 -35 -12 -41 -19 -6 -8 -17 -14
-24 -14 -6 0 -20 -9 -30 -20 -11 -12 -31 -20 -50 -20 -18 0 -38 -7 -45 -15 -9
-10 -32 -15 -75 -15 l-62 0 -13 46 c-31 109 57 476 163 681 84 162 122 230
144 257 13 15 30 42 38 60 29 60 111 165 131 166 6 0 17 13 25 29 18 36 147
191 248 296 42 43 86 92 98 108 21 29 44 45 89 66 12 5 24 17 27 25 8 20 87
23 87 4 0 -29 -30 -121 -43 -137 -8 -9 -25 -36 -37 -61 -12 -25 -32 -56 -44
-70 -65 -72 -100 -180 -60 -180 8 0 19 -9 26 -20 16 -25 51 -26 78 -2 68 58
126 122 145 160 9 18 23 36 31 39 7 3 14 11 14 19 0 8 4 14 10 14 5 0 21 21
36 48 15 26 40 70 57 97 22 35 31 63 31 95 1 39 4 45 24 48 18 3 21 8 16 30
-12 51 -34 93 -44 87 -5 -3 -10 0 -10 7 0 9 19 14 62 16 73 4 93 15 76 42 -9
15 -7 22 17 44 25 23 36 26 99 26 39 0 77 -4 84 -9 19 -11 92 8 92 24 0 7 6
15 13 17 18 7 37 -2 37 -18 0 -8 4 -14 9 -14 11 0 21 25 21 51 0 14 7 19 29
19 58 0 49 -76 -30 -245 -77 -168 -195 -460 -214 -530 -11 -38 -30 -88 -43
-110 -12 -22 -27 -47 -31 -55 -5 -8 -17 -40 -26 -70 -10 -30 -24 -62 -31 -70
-7 -8 -20 -48 -28 -89 -8 -40 -19 -78 -24 -85 -5 -6 -15 -29 -22 -51 -7 -22
-25 -63 -40 -90 -27 -50 -46 -116 -42 -145 2 -22 -29 -103 -45 -115 -7 -5 -17
-31 -22 -57 -4 -26 -16 -59 -25 -73 -9 -14 -14 -34 -11 -44 4 -12 -5 -30 -25
-51 -16 -18 -30 -37 -30 -42 0 -6 -6 -24 -14 -41 -19 -42 -46 -108 -46 -114 0
-2 9 -2 20 2 18 6 19 3 14 -27 -4 -18 -13 -40 -20 -49 -8 -8 -14 -23 -14 -32
0 -10 -11 -35 -25 -57 -14 -22 -25 -44 -25 -49 0 -6 -13 -38 -29 -73 -17 -35
-31 -72 -33 -82 -4 -24 -28 -34 -28 -12 0 9 -4 16 -10 16 -13 0 -13 -23 1 -37
14 -14 3 -33 -20 -33 -26 0 -31 -9 -18 -37 9 -19 8 -26 -4 -33 -12 -8 -12 -13
-1 -30 11 -18 10 -34 -3 -98 -9 -42 -18 -87 -21 -99 -4 -19 0 -23 20 -23 19 0
33 13 60 57 20 31 38 61 40 67 3 7 8 6 14 -3 8 -11 14 -6 30 25 11 21 20 44
21 49 0 6 22 11 48 13 35 2 53 9 64 24 l17 21 11 -21 c8 -15 21 -22 40 -22 27
0 30 4 41 52 7 29 69 190 138 358 68 168 169 415 224 550 138 339 257 629 272
665 29 66 156 384 181 455 15 41 43 106 61 144 19 39 34 76 34 83 0 16 25 27
40 18 8 -5 6 -14 -4 -31 -20 -29 -20 -34 -1 -34 27 0 56 77 41 111 -4 9 0 34
9 54 17 42 14 55 -10 35 -12 -10 -15 -9 -15 6 0 11 6 30 13 44 10 20 11 30 0
50 -14 27 -17 98 -5 117 4 6 27 13 52 15 37 3 47 8 60 32 30 59 58 76 120 76
42 0 59 4 64 15 3 9 18 15 34 15 16 0 37 9 47 20 12 13 31 20 54 20 25 0 40 6
49 20 10 16 23 20 66 20 35 0 58 5 66 15 7 8 19 15 26 15 8 0 14 7 14 15 0 11
11 15 39 15 46 0 71 26 71 72 0 17 8 33 20 40 11 7 20 18 20 25 0 8 13 13 30
13 26 0 30 3 30 29 0 21 9 36 34 55 19 14 41 26 48 26 17 0 60 55 51 64 -14
13 -60 5 -76 -14z m-3667 -1605 c0 -3 -7 -22 -15 -42 -8 -19 -15 -53 -15 -75
0 -23 -10 -60 -24 -87 -33 -63 -46 -107 -46 -155 0 -23 -4 -46 -9 -52 -6 -5
-17 -36 -25 -69 -12 -44 -24 -68 -50 -90 -50 -45 -79 -65 -92 -65 -7 0 -14 -7
-18 -15 -3 -9 -19 -15 -41 -15 -45 0 -46 19 -5 80 16 25 30 50 30 56 0 6 9 19
20 29 11 10 20 29 20 42 0 27 15 56 48 89 15 16 21 31 17 46 -4 17 2 32 22 55
15 17 36 58 45 91 11 38 30 72 50 94 18 18 39 46 45 61 11 23 43 39 43 22z
m1560 -722 c0 -10 -4 -24 -9 -32 -7 -10 -12 -10 -30 5 -30 26 -26 44 9 44 22
0 30 -5 30 -17z m75 -358 c-10 -29 -14 -34 -15 -17 0 23 18 67 25 60 2 -2 -2
-22 -10 -43z"/>
<path d="M5149 4540 c-163 -160 -211 -221 -255 -318 -37 -80 -84 -214 -84
-239 0 -13 8 -15 51 -10 56 7 78 22 110 74 24 39 46 51 171 97 51 19 146 57
211 85 65 28 146 59 180 68 34 9 67 21 74 27 7 6 15 36 19 67 7 64 -12 112
-73 180 -58 64 -117 93 -198 99 l-70 5 -136 -135z"/>
<path d="M5887 4390 c-42 -13 -145 -91 -213 -162 -96 -99 -347 -468 -473 -694
-168 -302 -237 -546 -212 -751 19 -152 63 -213 201 -277 51 -24 55 -36 11 -36
-80 0 -387 -108 -598 -211 -133 -65 -164 -84 -169 -104 -11 -43 1 -55 54 -55
42 0 50 3 60 25 14 31 149 102 165 86 14 -14 -39 -238 -63 -260 -9 -9 -50 -38
-90 -66 -85 -59 -110 -88 -110 -126 0 -37 33 -59 96 -63 27 -2 48 -7 47 -12
-1 -5 -17 -92 -37 -194 -19 -102 -40 -212 -46 -245 -5 -33 -21 -122 -35 -198
-14 -76 -25 -143 -25 -148 0 -6 -9 -7 -20 -4 -33 10 -49 -10 -43 -55 l6 -40
-59 -26 c-69 -31 -235 -70 -258 -61 -22 9 -11 30 43 84 47 47 54 83 18 83 -29
0 -126 -99 -146 -147 -12 -28 -11 -36 3 -58 9 -13 28 -28 42 -31 49 -13 188 3
273 31 60 19 86 24 94 16 19 -19 39 -12 73 25 19 20 81 59 142 90 311 157 595
393 685 569 26 51 31 72 31 136 1 66 -2 81 -26 116 -44 67 -159 128 -277 148
-32 5 -257 24 -295 25 -16 0 -17 5 -11 37 4 21 11 45 15 53 5 9 73 61 152 115
78 55 198 144 265 197 138 110 180 165 169 223 -7 34 -6 34 23 25 34 -10 62
-4 187 39 87 29 124 37 124 26 0 -2 -14 -55 -31 -117 -50 -184 -91 -341 -96
-367 -2 -14 -17 -81 -34 -150 -16 -69 -36 -157 -45 -196 -8 -38 -19 -88 -24
-110 -11 -52 -50 -281 -55 -320 -1 -16 -10 -82 -19 -145 -10 -63 -16 -144 -14
-180 3 -62 4 -65 30 -68 35 -4 44 14 52 108 9 96 39 270 76 435 16 72 32 146
35 165 19 109 101 452 162 680 26 98 37 160 39 228 l3 93 58 43 c77 57 157
144 184 198 12 25 62 87 111 139 106 110 191 217 278 349 81 122 105 171 123
250 32 138 31 178 -2 304 -56 209 -97 272 -239 363 -55 36 -86 63 -92 81 -17
47 -25 56 -70 80 -47 23 -145 29 -203 12z m230 -425 c15 -71 8 -252 -12 -337
-17 -67 -144 -325 -213 -431 -27 -41 -80 -116 -119 -168 -38 -52 -83 -114
-100 -139 -83 -123 -187 -200 -267 -200 -57 0 -70 29 -64 147 5 95 7 99 69
222 87 170 177 313 373 590 296 420 309 431 333 316z m-948 -1638 c-49 -44
-134 -110 -289 -223 -59 -43 -100 -68 -105 -62 -1 2 3 32 11 68 7 36 14 83 14
106 0 46 -2 45 135 96 103 39 255 77 274 70 11 -4 0 -19 -40 -55z m-134 -655
c106 -28 180 -72 205 -121 30 -58 -24 -178 -128 -284 -59 -61 -167 -149 -287
-234 -71 -50 -264 -163 -279 -163 -10 0 -8 10 34 260 39 234 99 529 112 554
10 18 19 19 142 13 75 -4 161 -15 201 -25z"/>
<path d="M4376 4154 c-5 -12 0 -15 21 -12 14 2 28 9 31 16 6 18 -45 15 -52 -4z"/>
<path d="M4750 3785 c-7 -8 -18 -15 -24 -15 -57 0 -303 -468 -458 -870 -32
-85 -78 -202 -100 -260 -22 -58 -89 -228 -149 -378 -59 -150 -111 -289 -115
-310 -4 -20 -16 -54 -26 -74 -11 -21 -17 -42 -14 -47 4 -6 -5 -47 -20 -93 -15
-46 -33 -102 -40 -126 -8 -23 -14 -52 -14 -64 0 -21 0 -21 14 -2 8 10 20 19
28 19 7 0 14 10 16 23 2 12 7 22 12 22 15 0 120 224 120 258 0 25 58 139 77
153 11 8 30 34 43 59 12 24 30 56 40 70 10 14 27 41 38 60 21 35 21 35 30 11
5 -15 11 -20 16 -13 3 6 2 13 -3 17 -15 8 21 65 45 71 14 4 36 37 72 108 28
57 58 106 66 109 9 4 16 13 16 21 0 22 42 49 52 33 6 -9 10 -9 20 1 29 29 45
-6 23 -49 -14 -27 -14 -30 1 -36 21 -8 61 38 106 120 17 32 49 78 70 102 44
50 81 126 128 265 27 78 33 113 35 196 3 131 8 145 45 138 22 -5 31 -2 40 16
10 18 8 29 -11 64 -20 39 -21 47 -10 92 7 27 15 88 18 137 6 82 5 89 -18 114
-24 25 -117 73 -143 73 -7 0 -19 -7 -26 -15z"/>
<path d="M6943 2498 c-23 -30 -125 -332 -192 -568 -43 -149 -54 -178 -77 -195
-15 -11 -84 -62 -153 -114 -365 -271 -389 -282 -377 -173 7 66 70 204 110 242
l26 24 16 -22 c31 -44 74 -18 74 45 0 48 -25 73 -73 73 -37 0 -46 -6 -95 -56
-97 -100 -167 -290 -142 -384 16 -58 41 -80 92 -80 63 0 139 49 344 225 101
87 174 139 174 126 0 -37 -27 -121 -46 -147 -31 -40 -40 -88 -24 -119 10 -19
10 -47 -2 -147 -21 -173 -11 -218 46 -204 34 8 52 63 35 109 -10 28 -9 49 2
108 l14 74 55 6 c91 10 168 37 320 115 142 72 279 154 373 224 47 35 60 72 27
78 -8 1 -80 -39 -160 -89 -178 -112 -347 -194 -451 -220 -101 -26 -133 -23
-137 12 -3 22 17 46 132 154 74 70 137 134 141 142 3 9 0 22 -6 29 -23 27 -58
14 -140 -51 -48 -40 -79 -59 -75 -48 2 10 21 81 41 158 20 77 75 256 122 397
71 213 83 260 73 273 -15 18 -54 20 -67 3z"/>
<path d="M5935 1848 c-40 -45 -49 -50 -59 -37 -34 46 -96 24 -160 -58 -80
-101 -156 -266 -156 -338 0 -62 44 -73 102 -25 33 27 164 188 227 279 14 20
26 30 28 24 3 -7 -7 -58 -21 -115 -30 -128 -36 -166 -38 -248 -2 -74 4 -90 33
-90 24 0 34 26 60 150 18 89 59 271 79 350 21 87 22 121 4 141 -27 30 -49 23
-99 -33z m-113 -126 c-4 -29 -149 -228 -159 -219 -12 13 76 175 125 229 30 32
40 29 34 -10z"/>
</g>
</svg>
