<?xml version="1.0" standalone="no"?>
<!DOCTYPE svg PUBLIC "-//W3C//DTD SVG 20010904//EN"
 "http://www.w3.org/TR/2001/REC-SVG-20010904/DTD/svg10.dtd">
<svg version="1.0" xmlns="http://www.w3.org/2000/svg"
 width="100%" height="100%" viewBox="0 0 1248.000000 600.000000"
 preserveAspectRatio="xMidYMid meet">
<metadata>
Created by potrace 1.16, written by Peter Selinger 2001-2019
</metadata>
<g transform="translate(0.000000,600.000000) scale(0.100000,-0.100000)" fill="white" fill-rule="evenodd" stroke="none">
<path d="M4550 5666 c0 -2 20 -28 45 -57 25 -29 45 -59 45 -67 0 -7 -11 -37
-24 -65 -13 -29 -79 -173 -146 -322 -67 -148 -190 -418 -272 -600 -82 -181
-199 -438 -258 -570 -395 -873 -407 -898 -464 -969 -31 -38 -53 -73 -50 -77 3
-5 66 -9 141 -9 l135 0 -6 26 c-10 38 20 178 54 254 16 36 40 90 53 120 14 30
113 255 222 500 247 557 235 530 560 1260 67 151 125 284 129 294 3 10 8 17
10 15 2 -2 45 -113 95 -246 50 -133 96 -253 101 -265 8 -21 130 -334 225 -578
39 -102 48 -125 148 -380 36 -91 91 -230 122 -310 31 -80 83 -211 115 -291 56
-140 80 -239 80 -328 0 -75 -14 -71 246 -71 129 0 234 3 234 8 -1 4 -22 36
-49 70 -64 85 -132 200 -171 292 -17 41 -117 293 -222 560 -104 267 -227 580
-273 695 -148 373 -311 786 -375 953 l-64 162 -193 0 c-106 0 -193 -2 -193 -4z"/>
<path d="M5450 5656 c0 -8 4 -17 9 -21 21 -12 131 -237 164 -335 20 -58 66
-190 102 -295 73 -208 212 -608 280 -805 45 -129 72 -207 195 -560 39 -113
110 -315 156 -450 47 -135 91 -251 98 -258 11 -12 16 -7 30 30 9 23 168 499
354 1057 186 558 342 1010 345 1004 7 -11 19 -42 184 -473 47 -124 113 -295
145 -380 33 -85 75 -193 92 -240 257 -674 391 -1010 400 -1007 6 2 16 19 23
38 6 19 42 117 78 219 37 102 71 196 75 210 5 14 29 81 53 150 25 69 95 267
157 440 62 173 132 371 157 440 25 69 51 143 58 165 8 22 34 96 58 165 25 69
81 226 125 350 80 224 147 366 230 488 24 34 40 67 37 72 -10 16 -280 13 -293
-3 -7 -8 -7 -25 -1 -52 10 -38 -6 -87 -264 -845 -150 -443 -305 -896 -342
-1007 -38 -112 -72 -203 -75 -203 -4 0 -28 60 -54 133 -67 184 -101 277 -201
547 -126 345 -274 748 -348 950 -19 52 -67 184 -107 293 l-73 197 -203 0
c-132 0 -205 -4 -209 -11 -4 -5 13 -41 38 -78 48 -70 157 -285 157 -307 0 -7
-13 -52 -29 -101 -16 -48 -113 -347 -216 -663 -315 -969 -301 -928 -312 -900
-42 104 -578 1710 -590 1765 -8 39 -17 115 -19 170 -3 55 -7 106 -9 113 -3 9
-58 12 -230 12 -189 0 -225 -2 -225 -14z"/>
<path d="M2152 1645 c-51 -13 -115 -37 -142 -54 -28 -17 -55 -31 -60 -31 -6 0
-44 -33 -86 -72 -105 -100 -157 -203 -180 -355 -17 -117 -15 -148 17 -278 45
-184 169 -340 337 -424 69 -35 102 -44 194 -57 110 -15 113 -15 192 7 45 12
119 39 166 59 47 21 99 40 116 44 20 4 35 16 43 32 14 31 15 131 1 139 -6 3
-36 -18 -68 -48 -88 -84 -226 -147 -323 -147 -83 0 -191 34 -260 81 -35 24
-67 49 -71 56 -5 6 -28 36 -53 67 -59 72 -110 204 -120 307 -20 229 110 465
310 559 108 51 176 58 291 30 64 -16 107 -34 157 -66 90 -58 100 -49 56 48
-18 40 -37 78 -41 83 -15 17 -127 34 -258 39 -110 5 -136 2 -218 -19z"/>
<path d="M4632 1650 c-221 -53 -395 -211 -470 -427 -43 -124 -49 -214 -23
-331 80 -355 409 -580 757 -517 113 20 190 53 276 117 136 100 228 247 262
416 15 76 16 91 1 189 -38 256 -199 451 -440 533 -121 41 -245 48 -363 20z
m268 -89 c48 -14 88 -33 127 -64 70 -54 79 -64 133 -150 109 -175 119 -430 24
-618 -81 -162 -208 -261 -358 -280 -62 -8 -80 -6 -156 17 -164 51 -278 179
-335 375 -23 79 -26 107 -22 179 8 140 36 236 101 338 48 76 67 97 136 145
112 79 213 96 350 58z"/>
<path d="M11340 1655 c-47 -8 -104 -14 -127 -15 -23 0 -45 -5 -48 -10 -4 -6 1
-32 9 -58 14 -42 16 -115 13 -588 -2 -296 -7 -552 -11 -567 l-8 -28 98 3 99 3
-4 25 c-9 58 -11 644 -3 635 5 -6 65 -71 133 -146 401 -439 388 -423 395 -467
9 -53 6 -52 131 -52 65 0 124 4 130 8 18 11 6 26 -202 258 -254 283 -345 387
-345 395 0 4 13 9 29 12 16 4 65 20 108 37 70 28 84 39 132 97 50 61 54 71 64
142 l10 76 -41 81 c-22 44 -47 86 -56 93 -8 7 -50 26 -93 43 -69 27 -92 31
-203 34 -77 2 -157 -2 -210 -11z m249 -76 c44 -9 58 -19 108 -75 51 -59 57
-71 61 -119 4 -51 3 -55 -50 -126 -30 -41 -61 -79 -69 -85 -27 -21 -178 -46
-235 -39 l-54 6 0 199 0 199 30 16 c63 33 132 41 209 24z"/>
<path d="M865 1650 c-4 -7 1 -26 10 -44 l17 -32 -120 -255 c-66 -139 -182
-384 -257 -543 -75 -160 -148 -303 -161 -319 -41 -49 -30 -62 51 -62 l70 0 2
44 c2 31 35 111 116 285 l113 241 229 0 229 0 54 -120 c113 -253 152 -349 152
-379 0 -77 -1 -76 131 -76 66 0 119 4 119 8 0 4 -18 36 -41 71 -22 34 -54 92
-70 129 -35 78 -268 616 -379 877 l-77 180 -91 3 c-59 2 -93 -1 -97 -8z m184
-415 l78 -180 -185 -3 c-102 -1 -187 -1 -189 1 -2 2 32 80 76 173 43 93 86
187 96 209 l17 40 14 -30 c8 -16 50 -111 93 -210z"/>
<path d="M6598 1653 c-21 -5 -22 -18 -8 -59 6 -18 9 -196 8 -483 l-3 -454
-100 123 c-102 126 -250 306 -480 586 -161 196 -181 222 -189 257 l-6 27 -115
0 c-67 0 -116 -4 -120 -10 -4 -6 21 -41 54 -79 l61 -69 0 -510 c0 -416 -3
-517 -14 -550 -17 -48 -13 -52 69 -52 62 0 67 7 48 70 -10 34 -13 142 -13 482
1 241 4 438 8 437 4 0 57 -61 117 -135 61 -74 166 -204 235 -288 186 -226 403
-493 456 -558 48 -60 67 -70 78 -42 3 9 6 285 6 613 0 328 3 617 6 644 6 45 6
47 -17 47 -13 0 -33 2 -44 4 -11 2 -28 2 -37 -1z"/>
<path d="M7153 1649 c-8 -8 2 -35 33 -97 39 -78 101 -258 341 -972 74 -221 94
-264 112 -245 5 6 80 224 166 485 113 340 160 469 165 455 5 -11 40 -105 80
-210 39 -104 92 -242 116 -305 24 -63 70 -185 102 -270 45 -117 63 -155 76
-155 13 0 29 34 66 140 295 852 371 1055 421 1127 31 44 26 48 -66 48 l-85 0
0 -56 c0 -47 -24 -125 -141 -458 -78 -220 -144 -411 -146 -423 -3 -13 -8 -23
-12 -23 -3 0 -23 46 -43 103 -20 56 -67 185 -103 287 -37 102 -82 226 -100
275 -64 176 -105 290 -105 293 0 7 -220 1 -224 -6 -3 -5 6 -26 20 -46 14 -21
37 -62 50 -92 l24 -55 -66 -207 c-37 -114 -88 -274 -115 -357 -27 -82 -49
-156 -49 -164 0 -40 -28 34 -149 400 -111 335 -131 405 -131 457 0 50 -3 63
-19 72 -26 13 -204 13 -218 -1z"/>
<path d="M10303 1649 c-9 -9 -6 -19 10 -40 l21 -29 -92 -192 c-50 -106 -166
-350 -257 -542 -91 -193 -177 -367 -191 -388 -39 -56 -29 -70 53 -66 l68 3 -2
30 c-3 35 6 59 79 215 30 63 76 163 104 222 l49 108 229 -3 228 -2 89 -199
c101 -226 109 -250 118 -320 l6 -51 123 -3 c67 -1 122 1 122 6 0 4 -12 24 -26
43 -38 50 -81 139 -182 374 -244 569 -355 821 -364 832 -13 17 -169 18 -185 2z
m257 -591 c0 -4 -84 -8 -186 -8 -180 0 -185 1 -179 20 3 11 36 82 72 157 36
76 76 163 90 193 l24 55 89 -204 c50 -113 90 -208 90 -213z"/>
<path d="M2860 1624 c-6 -14 -13 -44 -16 -66 l-7 -41 34 8 c19 4 96 9 172 12
l138 5 -4 -554 c-2 -304 -7 -565 -12 -580 l-7 -28 102 0 102 0 -7 32 c-4 18
-9 279 -12 581 l-4 547 125 0 c69 0 146 -5 171 -12 38 -10 48 -10 54 1 9 14
-6 88 -22 109 -7 9 -100 12 -403 12 l-394 0 -10 -26z"/>
<path d="M3807 1583 c11 -90 10 -1072 -1 -1146 l-8 -58 98 3 99 3 -4 25 c-8
47 -6 1165 2 1203 l8 37 -101 0 -102 0 9 -67z"/>
<path d="M8957 1608 c9 -46 11 -1061 3 -1163 l-5 -60 304 -3 c224 -2 307 1
318 10 24 20 56 89 45 100 -6 6 -37 4 -85 -6 -51 -11 -130 -16 -242 -16 l-165
0 0 306 0 306 163 -4 c110 -3 171 -9 190 -18 24 -12 30 -12 38 1 12 19 12 116
-1 124 -5 3 -31 -1 -57 -10 -36 -12 -82 -15 -188 -13 l-140 3 -3 198 -2 197
167 0 c92 0 193 -5 225 -12 31 -7 60 -9 64 -5 3 3 1 29 -6 56 l-12 51 -310 0
-310 0 9 -42z"/>
</g>
</svg>
