<?xml version="1.0" standalone="no"?>
<!DOCTYPE svg PUBLIC "-//W3C//DTD SVG 20010904//EN"
 "http://www.w3.org/TR/2001/REC-SVG-20010904/DTD/svg10.dtd">
<svg version="1.0" xmlns="http://www.w3.org/2000/svg"
 width="643.000000pt" height="300.000000pt" viewBox="0 0 643.000000 300.000000"
 preserveAspectRatio="xMidYMid meet">
<metadata>
Created by potrace 1.16, written by Peter Selinger 2001-2019
</metadata>
<g transform="translate(0.000000,300.000000) scale(0.100000,-0.100000)"
fill="white" stroke="none">
<path d="M0 1500 l0 -1500 3215 0 3215 0 0 1500 0 1500 -3215 0 -3215 0 0
-1500z m2780 763 c198 -502 266 -664 302 -721 27 -40 48 -75 48 -77 0 -3 -54
-5 -120 -5 -135 0 -122 -8 -134 90 -3 25 -70 209 -149 410 -79 201 -181 463
-227 583 -46 119 -87 214 -91 210 -5 -5 -126 -273 -269 -597 -202 -454 -263
-600 -267 -642 l-6 -54 -68 0 c-75 0 -87 11 -47 46 26 23 -19 -74 542 1167 42
93 73 174 70 180 -4 7 -16 22 -27 35 l-20 22 104 0 104 0 255 -647z m261 595
c0 -29 6 -76 12 -103 16 -70 308 -935 316 -935 3 0 71 199 150 443 l143 443
-32 65 c-18 35 -41 76 -51 91 -32 45 -27 48 89 48 l107 0 205 -560 c113 -307
208 -556 211 -552 16 17 359 1050 359 1080 l0 32 81 0 81 0 -18 -27 c-61 -93
-89 -153 -153 -335 -40 -112 -142 -401 -228 -643 -86 -242 -158 -442 -160
-445 -8 -9 -24 30 -229 566 -115 299 -211 540 -215 536 -4 -4 -88 -253 -189
-554 -100 -302 -185 -548 -188 -548 -4 0 -53 132 -109 293 -56 160 -158 456
-228 656 -69 200 -141 391 -158 425 -18 34 -33 64 -35 69 -2 4 51 7 117 7
l121 0 1 -52z m-1763 -2077 c18 -1 28 -12 43 -47 12 -25 18 -48 15 -51 -2 -3
-19 5 -36 17 -42 30 -127 51 -170 43 -120 -22 -205 -110 -230 -241 -21 -104
19 -216 103 -287 98 -84 211 -80 324 11 45 37 59 32 48 -17 -6 -24 -17 -34
-61 -54 -102 -45 -164 -58 -227 -46 -185 34 -303 195 -283 388 8 82 41 146
101 202 79 73 181 104 295 90 30 -4 65 -8 78 -8z m1292 -12 c47 -16 119 -70
150 -111 44 -59 62 -110 68 -190 4 -65 1 -88 -19 -140 -26 -71 -98 -152 -165
-186 -55 -28 -148 -45 -203 -37 -102 15 -219 94 -264 180 -28 53 -45 158 -36
218 34 212 259 340 469 266z m3564 3 c41 -14 51 -23 73 -66 47 -93 7 -180
-101 -220 l-58 -22 146 -162 c80 -90 146 -167 146 -173 0 -6 -27 -9 -67 -7
-60 3 -68 5 -71 24 -2 11 -66 89 -143 173 l-140 152 3 -175 3 -176 -50 0 -50
0 0 329 0 328 85 10 c100 12 157 8 224 -15z m-5661 6 c59 -143 246 -567 268
-605 l29 -53 -65 0 c-64 0 -65 0 -66 28 0 15 -24 81 -53 147 l-53 120 -124 3
-124 2 -62 -135 c-35 -74 -60 -141 -57 -150 5 -12 -2 -15 -36 -15 -23 0 -40 3
-38 8 2 4 25 52 52 107 142 291 243 515 235 520 -5 4 -9 13 -9 21 0 18 95 20
103 2z m3325 2 c17 0 22 -6 22 -28 0 -15 33 -126 74 -247 l73 -220 62 191 c33
105 61 197 61 203 0 7 -9 29 -20 51 -11 22 -20 42 -20 45 0 3 26 5 57 3 l57
-3 90 -248 c49 -136 93 -244 96 -240 13 14 160 448 160 471 0 19 5 22 44 22
l45 0 -25 -44 c-13 -24 -71 -178 -129 -342 -58 -164 -109 -302 -114 -307 -8
-8 -52 101 -154 378 -22 61 -43 113 -46 117 -4 4 -44 -105 -90 -243 -45 -137
-88 -248 -93 -247 -6 2 -56 139 -113 303 -56 165 -111 319 -123 341 -12 23
-18 45 -14 49 4 4 23 4 42 1 19 -3 45 -6 58 -6z m1793 -290 c70 -162 136 -310
148 -327 12 -18 21 -35 21 -38 0 -3 -27 -5 -60 -5 -57 0 -60 1 -65 28 -4 15
-29 82 -58 149 l-51 123 -123 0 -123 0 -56 -117 c-30 -65 -58 -133 -61 -150
-5 -31 -8 -33 -44 -33 -42 0 -46 5 -25 29 7 9 75 146 149 305 103 218 134 293
127 306 -13 25 -2 31 49 28 l45 -3 127 -295z m-3728 263 c7 -38 2 -43 -36 -32
-17 5 -58 9 -90 9 l-58 0 3 -310 3 -310 -45 0 -45 0 3 310 4 310 -59 0 c-32 0
-73 -4 -91 -9 -31 -9 -32 -8 -32 18 0 15 3 31 7 34 3 4 102 7 219 7 l212 0 5
-27z m162 -308 l0 -336 -50 3 -50 3 5 35 c8 53 6 550 -2 593 l-7 37 52 0 52 0
0 -335z m976 313 c7 -13 100 -131 208 -263 l196 -240 3 45 c2 25 2 143 0 263
l-3 217 29 0 c25 0 28 -3 22 -22 -3 -13 -6 -168 -6 -345 0 -203 -4 -323 -10
-323 -5 0 -111 124 -235 276 l-226 276 3 -266 3 -266 -30 0 -30 0 3 298 3 297
-30 29 c-17 17 -31 33 -31 38 0 4 27 8 60 8 51 0 61 -3 71 -22z m1982 0 c9
-31 1 -38 -36 -27 -17 5 -71 9 -120 9 l-88 0 3 -107 3 -108 75 0 c41 0 87 3
103 8 25 7 27 6 27 -26 l0 -33 -105 4 -105 4 0 -161 0 -161 98 0 c53 0 111 4
129 9 40 12 46 5 27 -30 l-15 -29 -162 0 -162 0 0 335 0 335 161 0 c158 0 162
-1 167 -22z"/>
<path d="M2388 741 c-85 -20 -165 -123 -188 -241 -11 -56 -10 -74 4 -130 29
-114 91 -186 182 -213 150 -44 289 77 301 262 14 208 -129 362 -299 322z"/>
<path d="M5943 740 c-22 -9 -23 -15 -23 -120 l0 -110 36 0 c73 0 117 19 152
65 17 24 32 52 32 63 0 20 -40 79 -67 100 -19 14 -97 15 -130 2z"/>
<path d="M386 635 c-16 -33 -39 -84 -52 -112 l-24 -53 99 0 100 0 -43 98 c-24
54 -45 105 -48 112 -2 8 -17 -12 -32 -45z"/>
<path d="M5353 579 l-52 -109 100 0 c54 0 99 2 99 4 0 4 -90 209 -93 212 -1 1
-25 -47 -54 -107z"/>
</g>
</svg>
