<?xml version="1.0" standalone="no"?>
<!DOCTYPE svg PUBLIC "-//W3C//DTD SVG 20010904//EN"
 "http://www.w3.org/TR/2001/REC-SVG-20010904/DTD/svg10.dtd">
<svg version="1.0" xmlns="http://www.w3.org/2000/svg"
 width="100%" height="100%" viewBox="0 0 1009.000000 600.000000"
 preserveAspectRatio="xMidYMid meet">
<metadata>
Created by potrace 1.16, written by Peter Selinger 2001-2019
</metadata>
<g transform="translate(0.000000,600.000000) scale(0.100000,-0.100000)" fill="white" fill-rule="evenodd" stroke="none">
<path d="M9416 5593 c-48 -74 -178 -338 -233 -473 -48 -117 -93 -254 -148
-455 -96 -354 -152 -539 -176 -586 -10 -19 -29 -78 -44 -130 -28 -103 -133
-329 -152 -329 -15 0 -43 39 -43 61 0 9 -9 24 -20 34 -24 22 -25 42 -4 95 16
40 16 42 -8 68 -42 47 -48 75 -48 233 0 115 -4 157 -15 179 -9 17 -13 40 -10
52 2 13 9 100 15 194 13 216 1 349 -40 471 -17 48 -30 96 -30 106 0 10 16 59
35 109 l35 91 -24 41 c-37 62 -74 91 -143 109 -104 28 -115 25 -139 -38 -26
-66 -55 -138 -129 -320 -42 -104 -81 -201 -85 -215 -5 -14 -32 -83 -60 -155
-28 -71 -69 -177 -90 -235 -21 -58 -69 -186 -105 -285 -37 -99 -82 -223 -100
-275 -19 -52 -57 -160 -85 -240 -139 -392 -254 -738 -264 -792 -4 -22 -2 -39
4 -43 5 -3 10 -17 10 -31 0 -14 7 -38 15 -54 13 -25 22 -30 53 -30 21 0 55 9
76 19 26 14 55 19 91 18 49 -2 57 1 89 32 19 18 40 48 46 65 7 17 16 40 20 51
4 11 13 34 19 50 13 39 176 458 248 638 120 305 187 416 207 345 6 -21 7 -22
20 -6 7 10 16 15 19 11 14 -13 6 -42 -13 -56 -18 -12 -19 -18 -10 -43 13 -34
3 -147 -16 -186 -17 -33 1 -51 22 -23 31 43 62 -53 34 -105 -7 -13 -7 -26 1
-42 8 -20 5 -34 -21 -83 -23 -44 -28 -61 -18 -64 22 -7 28 -24 28 -78 0 -39 5
-57 20 -71 17 -16 18 -25 11 -70 -6 -41 -4 -60 10 -93 16 -35 17 -44 5 -61 -8
-10 -11 -28 -9 -39 6 -23 61 -53 113 -62 19 -4 55 -11 80 -16 40 -9 53 -6 120
24 41 18 98 43 125 54 59 26 100 62 125 111 18 35 70 190 155 461 36 114 52
152 75 174 24 23 27 31 18 43 -10 11 -8 17 6 28 13 9 17 20 12 37 -6 27 59
178 102 235 23 30 24 34 8 45 -16 12 -16 14 4 40 12 15 19 31 15 36 -3 6 4 27
15 48 11 21 20 42 20 47 0 5 8 18 17 28 9 11 18 24 19 31 7 51 40 140 55 151
12 8 23 34 29 67 6 30 20 67 31 83 17 22 18 30 8 36 -9 6 -5 17 18 43 18 21
34 52 38 76 4 22 25 78 47 123 27 55 41 98 42 128 2 35 7 47 23 55 16 7 26 27
38 75 9 36 36 107 60 158 25 51 48 104 51 118 3 13 10 27 15 30 5 3 9 23 9 45
0 32 -7 46 -40 79 -22 22 -52 42 -67 45 -16 3 -47 10 -71 15 -23 6 -60 10 -82
10 -39 0 -42 -3 -84 -67z"/>
<path d="M6032 5530 c-10 -16 -23 -20 -70 -20 -46 0 -60 -4 -70 -20 -9 -15
-23 -20 -56 -20 -30 0 -48 -6 -61 -20 -13 -14 -31 -20 -61 -20 -33 0 -46 -5
-59 -22 -13 -20 -26 -23 -100 -26 -67 -3 -87 -8 -101 -23 -13 -15 -31 -19 -78
-19 -34 -1 -72 -7 -86 -15 -14 -8 -41 -14 -60 -15 -19 0 -80 -11 -135 -25 -55
-14 -116 -25 -136 -25 -20 0 -56 -9 -80 -20 -27 -12 -66 -20 -100 -20 -43 0
-60 -5 -74 -20 -15 -17 -31 -20 -105 -20 -74 0 -90 -3 -105 -20 -14 -15 -31
-20 -69 -20 -46 0 -114 -22 -221 -70 -11 -5 -93 -39 -182 -75 -125 -50 -173
-65 -212 -65 -28 0 -73 -9 -101 -20 -28 -11 -72 -20 -99 -20 -35 0 -53 -5 -66
-20 -10 -11 -28 -20 -40 -20 -13 0 -28 -7 -35 -15 -11 -14 -14 -13 -25 2 -11
15 -13 15 -24 -5 -6 -11 -23 -22 -38 -24 -27 -3 -28 -6 -31 -63 -4 -78 -27
-105 -89 -105 -40 0 -49 -5 -106 -60 -38 -37 -71 -60 -84 -60 -13 0 -28 -9
-35 -20 -7 -11 -18 -20 -24 -20 -11 0 -46 -45 -57 -72 -3 -10 -13 -18 -21 -18
-8 0 -18 -9 -21 -20 -3 -11 -10 -20 -14 -20 -4 0 -13 -11 -19 -24 -6 -14 -55
-70 -109 -126 -54 -56 -115 -124 -135 -151 -20 -27 -57 -73 -81 -102 -62 -73
-222 -332 -285 -461 -55 -111 -99 -166 -132 -166 -29 0 -32 14 -15 87 29 126
35 158 41 218 13 119 55 260 93 308 12 14 12 22 2 40 -17 32 17 121 48 125 26
4 28 37 4 51 -16 9 -16 11 -2 28 9 10 19 26 22 36 4 9 13 17 20 17 10 0 18 23
26 70 11 69 11 72 -18 131 -29 60 -29 61 -10 80 25 25 24 72 -2 126 -21 43
-21 43 -74 43 -45 0 -55 -3 -60 -20 -5 -16 -15 -20 -55 -20 -40 0 -50 -4 -55
-20 -5 -16 -15 -20 -55 -20 -46 0 -50 -2 -55 -27 -8 -35 -2 -26 -109 -168
-120 -158 -153 -208 -187 -283 -16 -35 -62 -114 -103 -176 -41 -62 -105 -173
-142 -247 -36 -74 -79 -152 -94 -174 -15 -22 -42 -69 -60 -105 -18 -36 -42
-79 -55 -95 -12 -17 -39 -64 -60 -105 -20 -41 -47 -89 -60 -105 -29 -38 -106
-195 -97 -195 4 0 -1 -5 -10 -11 -10 -5 -18 -15 -18 -21 0 -5 -13 -27 -29 -47
-16 -21 -33 -50 -37 -67 -4 -16 -18 -45 -31 -64 -12 -19 -23 -49 -23 -67 0
-33 -1 -33 -48 -33 -36 0 -50 -5 -60 -20 -7 -11 -21 -20 -32 -20 -13 0 -20 -7
-20 -19 0 -15 8 -21 32 -23 34 -3 55 -38 24 -38 -16 0 -21 -16 -17 -59 5 -51
-7 -71 -43 -71 -29 0 -35 -5 -51 -40 -10 -22 -22 -40 -26 -40 -4 0 -11 -10
-14 -22 -4 -13 -61 -132 -127 -264 -66 -133 -120 -248 -122 -257 -1 -8 -8 -22
-14 -30 -7 -8 -16 -31 -19 -51 l-6 -36 52 0 c40 0 53 4 63 20 7 11 18 20 25
20 7 0 22 18 33 40 12 23 27 43 35 47 8 3 15 11 15 19 0 11 16 14 65 14 61 0
66 2 75 25 6 16 17 25 31 25 13 0 23 8 26 21 3 12 17 42 29 68 13 25 24 59 24
75 0 30 62 151 115 226 18 25 47 74 64 110 31 66 179 266 211 285 39 23 75 50
83 62 4 7 17 13 27 13 11 0 25 9 32 20 7 11 21 20 30 20 10 0 25 11 34 25 9
14 22 25 30 25 7 0 18 9 24 20 6 11 19 20 29 20 10 0 25 10 34 23 l15 22 12
-30 c9 -24 9 -35 -3 -55 -8 -14 -12 -31 -9 -39 2 -7 -3 -36 -12 -65 -24 -75
-96 -323 -111 -382 -7 -28 -17 -59 -22 -70 -6 -10 -13 -39 -17 -64 -4 -25 -27
-117 -51 -205 -71 -258 -113 -405 -135 -480 -11 -38 -20 -84 -20 -101 0 -17
-3 -34 -8 -38 -4 -4 -14 -33 -22 -64 -11 -41 -21 -60 -38 -67 -13 -6 -22 -19
-22 -31 0 -12 -5 -35 -11 -53 -8 -23 -8 -35 0 -45 9 -11 8 -18 -4 -29 -8 -9
-15 -18 -15 -21 0 -3 -11 -30 -25 -59 -29 -66 -45 -148 -75 -397 -6 -52 -16
-106 -23 -118 -9 -20 -8 -25 6 -33 9 -6 20 -28 23 -49 7 -46 20 -51 34 -15 13
34 40 33 40 -2 1 -22 5 -16 21 27 23 63 20 53 48 184 12 55 18 108 15 119 -4
13 0 20 15 24 14 4 21 13 21 30 0 13 5 34 12 46 7 12 22 49 34 82 12 33 33 92
47 130 14 39 31 91 37 116 7 26 25 61 43 80 39 42 67 111 67 165 0 28 6 47 19
58 11 10 23 32 27 50 12 58 46 151 80 219 19 38 46 98 59 135 14 37 29 76 35
87 5 11 25 58 44 105 19 47 57 134 85 193 28 60 57 132 65 160 7 29 37 113 66
187 62 161 148 419 157 474 4 25 12 40 23 43 14 4 17 12 13 43 -9 62 4 109 33
120 13 5 24 16 24 24 0 7 11 16 25 18 32 7 32 -9 0 -87 -36 -87 -103 -287
-110 -332 -4 -21 -15 -80 -26 -130 -12 -61 -19 -133 -19 -210 0 -128 14 -190
66 -296 26 -52 36 -62 106 -102 42 -25 89 -45 103 -45 18 0 25 -5 25 -20 0
-19 7 -20 135 -20 124 0 136 2 147 20 7 11 22 20 34 20 43 0 84 13 84 27 0 7
8 17 18 20 9 4 23 15 30 25 7 10 20 18 28 18 8 0 14 9 14 20 0 16 7 20 36 20
27 0 37 5 41 20 3 11 9 20 13 20 4 0 10 9 13 20 3 13 14 20 30 20 16 0 28 7
32 19 3 11 12 22 20 25 8 3 15 12 15 21 0 9 9 15 21 15 12 0 23 8 26 20 4 16
14 20 44 20 30 0 42 5 55 25 9 14 24 25 33 25 9 0 22 9 29 20 7 11 18 20 26
20 16 0 46 42 46 65 0 8 5 15 10 15 6 0 10 -9 10 -20 0 -26 16 -26 23 0 3 12
14 20 26 20 11 0 26 9 33 20 7 11 18 20 23 20 6 0 39 27 74 60 41 39 72 60 87
60 25 0 51 21 79 64 10 14 22 26 29 26 6 1 29 16 51 35 30 26 37 37 28 46 -6
6 -9 18 -6 25 11 29 -15 12 -42 -26 -20 -29 -34 -40 -48 -38 -34 5 -29 21 23
77 28 30 50 58 50 63 0 5 16 16 36 24 36 15 41 36 11 42 -10 2 -17 -3 -17 -12
0 -8 -10 -21 -22 -27 -13 -7 -27 -18 -31 -25 -4 -8 -21 -14 -37 -14 -29 0 -56
-21 -87 -67 -9 -13 -21 -23 -28 -23 -6 0 -20 -9 -30 -20 -10 -11 -30 -20 -44
-20 -16 0 -42 -15 -70 -40 -24 -22 -49 -40 -56 -40 -25 0 -101 -40 -125 -64
-13 -15 -31 -26 -41 -26 -9 0 -19 -7 -22 -15 -7 -17 -81 -65 -100 -65 -8 0
-22 -9 -32 -20 -10 -11 -26 -20 -35 -20 -9 0 -25 -9 -35 -20 -10 -11 -26 -20
-36 -20 -10 0 -21 -5 -24 -11 -14 -22 -89 -69 -110 -69 -12 0 -30 -9 -39 -19
-10 -11 -28 -22 -41 -25 -14 -4 -29 -15 -35 -26 -8 -15 -21 -20 -55 -20 -34 0
-47 -5 -55 -20 -9 -17 -21 -20 -74 -20 -60 0 -64 2 -75 28 -15 38 -32 122 -27
131 3 4 7 31 11 61 12 110 15 126 87 360 34 114 119 320 143 348 12 15 42 65
65 112 24 47 56 101 71 120 16 19 29 40 29 47 0 7 13 27 28 45 16 18 39 51 51
73 12 22 40 53 62 69 21 17 39 37 39 46 0 9 12 27 26 41 14 13 69 76 122 139
52 63 111 131 131 151 76 75 141 148 141 158 0 6 11 13 25 17 14 3 30 15 36
25 5 11 18 19 29 19 11 0 24 9 30 20 8 15 21 20 55 20 33 0 45 -4 45 -15 0
-36 -31 -128 -53 -157 -14 -18 -35 -53 -47 -78 -12 -25 -32 -56 -45 -70 -42
-47 -96 -159 -89 -185 3 -14 12 -25 20 -25 8 0 24 -11 36 -25 26 -30 63 -33
77 -6 6 10 22 22 36 25 14 4 32 20 41 38 9 17 29 42 45 56 17 13 37 38 45 56
9 17 25 40 36 51 53 55 82 95 104 143 13 29 24 55 24 57 0 3 10 16 23 31 28
33 36 60 30 107 -5 35 -4 37 21 37 21 0 26 5 25 23 -1 38 -34 122 -47 119 -7
-1 -12 2 -12 8 0 6 28 10 64 10 49 0 69 5 87 20 22 19 23 21 6 31 -16 9 -15
13 10 45 l28 34 139 -1 c133 -2 141 -1 154 19 19 29 58 29 65 0 8 -28 17 -19
26 24 6 29 11 33 43 36 32 3 36 0 41 -25 3 -15 -2 -50 -10 -78 -13 -40 -116
-285 -163 -390 -72 -156 -160 -387 -160 -417 0 -25 -68 -155 -84 -161 -9 -4
-16 -18 -16 -34 0 -44 -20 -106 -42 -129 -12 -14 -23 -46 -29 -88 -5 -37 -20
-88 -33 -114 -13 -26 -29 -65 -36 -87 -7 -22 -25 -65 -40 -95 -35 -70 -49
-116 -48 -161 0 -36 -35 -119 -51 -119 -9 0 -25 -57 -22 -78 3 -17 -26 -79
-40 -87 -5 -4 -7 -21 -3 -40 5 -27 2 -35 -14 -44 -21 -11 -31 -31 -101 -193
-18 -45 -15 -68 9 -53 16 10 12 -62 -5 -79 -8 -8 -15 -24 -15 -35 0 -11 -13
-40 -29 -63 -16 -24 -33 -56 -36 -71 -4 -15 -22 -56 -41 -92 -19 -36 -34 -74
-34 -84 0 -11 -4 -23 -10 -26 -5 -3 -10 1 -10 9 0 19 -19 31 -31 19 -6 -6 -4
-15 6 -23 8 -7 15 -21 15 -31 0 -14 -7 -19 -30 -19 -33 0 -39 -16 -17 -51 10
-17 9 -22 -5 -30 -22 -12 -23 -27 -3 -49 14 -16 14 -25 -4 -91 -10 -41 -22
-91 -24 -112 -5 -34 -4 -37 20 -37 30 0 55 27 90 98 26 53 37 62 47 40 6 -17
27 14 42 62 11 35 12 35 72 38 54 3 62 6 62 22 0 27 36 26 43 -1 5 -17 12 -20
44 -17 34 3 38 6 45 38 17 87 27 119 52 175 16 33 49 114 76 181 41 104 61
154 111 269 5 11 33 81 63 155 30 74 78 191 106 260 77 187 172 420 270 660
49 118 108 265 133 325 72 175 137 343 137 355 0 6 4 18 8 28 83 169 102 211
102 225 0 11 8 17 25 17 29 0 30 -2 9 -41 -16 -33 -14 -45 9 -36 30 12 64 127
37 127 -5 0 0 25 11 56 22 57 18 84 -7 50 -13 -19 -14 -18 -14 12 0 18 7 44
16 57 14 22 14 25 1 31 -19 7 -32 101 -18 137 9 23 16 26 63 29 47 3 55 6 68
33 9 17 27 42 41 58 24 24 33 27 92 27 56 0 68 3 77 20 7 14 21 20 44 20 18 0
45 9 59 20 14 11 40 20 60 20 26 0 39 6 51 25 15 22 23 25 79 25 60 0 65 2
105 40 34 33 48 40 80 40 31 0 43 5 56 25 10 15 14 34 10 49 -4 17 1 28 20 44
14 11 26 25 26 30 0 6 15 12 33 14 29 3 32 6 35 41 2 28 9 40 26 46 12 5 28
16 35 25 7 9 24 16 37 16 13 0 24 4 24 8 0 5 9 19 20 32 29 33 25 40 -23 40
-31 0 -45 -5 -55 -20z m-4237 -1849 c3 -5 -1 -27 -9 -48 -8 -21 -19 -69 -25
-107 -5 -37 -16 -76 -23 -85 -27 -32 -39 -67 -47 -141 -5 -42 -15 -89 -24
-106 -8 -16 -19 -48 -22 -69 -4 -22 -12 -49 -18 -60 -10 -20 -65 -75 -74 -75
-3 0 -18 -11 -35 -25 -16 -14 -35 -25 -41 -25 -7 0 -18 -9 -25 -20 -8 -14 -23
-20 -47 -20 -30 0 -35 3 -35 24 0 13 8 34 18 47 10 13 27 42 37 64 11 22 30
53 43 68 12 16 22 39 22 51 0 31 22 75 41 81 18 6 29 34 29 76 0 14 13 39 28
57 15 17 38 64 51 104 17 52 34 83 60 108 20 20 44 52 53 73 17 37 31 46 43
28z m1805 -833 c0 -25 -12 -58 -21 -58 -5 0 -9 7 -9 15 0 8 -6 15 -14 15 -18
0 -29 16 -21 30 9 15 65 12 65 -2z m86 -423 c-6 -19 -13 -30 -14 -25 -6 16 7
60 17 60 4 0 3 -16 -3 -35z m-2316 -1104 c0 -31 -15 -71 -26 -71 -17 0 -17 8
-3 49 10 28 29 43 29 22z"/>
<path d="M6047 5346 c-92 -94 -182 -191 -201 -216 -56 -76 -102 -173 -151
-321 -33 -98 -30 -125 13 -115 95 23 99 26 133 77 38 56 72 78 194 120 44 15
143 55 219 88 77 34 184 75 238 92 113 35 120 43 122 133 1 76 -25 126 -111
207 -73 70 -140 103 -192 94 -20 -3 -50 -2 -66 3 -29 9 -35 4 -198 -162z"/>
<path d="M6925 5186 c-174 -55 -414 -341 -737 -875 -164 -271 -255 -485 -307
-726 -8 -40 -7 -280 1 -329 20 -111 92 -192 223 -252 l60 -27 -45 -9 c-198
-40 -410 -113 -640 -221 -85 -39 -175 -85 -200 -102 -39 -26 -45 -35 -45 -65
l0 -35 61 -3 c59 -3 62 -2 68 23 5 19 25 34 86 65 44 22 86 40 95 40 20 0 19
-26 -6 -130 -11 -47 -22 -95 -24 -107 -12 -53 -27 -72 -78 -102 -75 -43 -187
-150 -187 -179 0 -54 45 -82 133 -82 20 0 37 -4 37 -8 0 -4 -9 -50 -21 -102
-11 -52 -22 -104 -24 -115 -2 -11 -13 -72 -25 -135 -11 -63 -36 -207 -56 -320
-19 -113 -37 -213 -40 -222 -3 -10 -18 -18 -37 -20 -32 -3 -32 -4 -33 -56 0
-61 1 -60 -106 -101 -127 -49 -268 -67 -268 -35 0 9 25 40 56 70 61 60 70 96
25 102 -18 3 -39 -11 -87 -59 -75 -74 -103 -133 -83 -170 22 -42 40 -48 131
-49 85 0 129 8 257 50 54 17 69 18 97 8 27 -9 36 -9 57 5 14 9 28 25 32 36 4
13 44 39 113 73 384 187 753 495 842 704 27 63 37 168 20 219 -16 48 -82 120
-134 147 -110 56 -222 79 -470 94 l-98 6 6 52 c8 58 14 65 141 151 44 30 112
77 150 105 39 27 81 58 95 67 40 28 182 143 223 182 60 56 91 114 83 159 l-5
37 67 0 c42 0 84 7 112 19 76 30 200 64 206 54 3 -4 -6 -48 -19 -96 -14 -48
-28 -100 -32 -117 -5 -16 -9 -34 -11 -40 -11 -35 -57 -213 -74 -280 -50 -208
-61 -255 -95 -410 -35 -161 -100 -529 -111 -630 -2 -16 -8 -61 -13 -100 -16
-109 -14 -220 4 -235 19 -16 61 -5 69 17 4 9 11 64 17 122 6 58 14 122 19 141
5 19 11 60 15 90 4 30 11 71 15 90 5 19 11 46 14 60 2 14 14 68 25 120 12 52
32 147 46 210 42 197 66 304 70 320 2 8 13 53 23 100 11 47 46 184 77 305 58
225 77 353 57 378 -9 11 2 23 51 57 120 85 218 194 242 270 4 13 30 44 56 68
155 139 447 531 498 668 25 65 29 83 45 203 11 80 11 104 -1 155 -33 137 -47
183 -83 270 -39 93 -112 174 -205 226 -79 44 -104 67 -125 116 -10 23 -31 50
-47 62 -58 41 -167 54 -248 28z m251 -493 c20 -86 20 -98 6 -263 -11 -138 -23
-171 -156 -428 -92 -178 -124 -228 -269 -425 -38 -50 -87 -118 -110 -150 -74
-103 -106 -134 -176 -171 -67 -35 -130 -46 -157 -28 -24 16 -34 54 -34 129 0
131 12 164 153 418 99 178 244 395 544 810 81 112 146 185 164 185 14 0 21
-16 35 -77z m-1101 -1898 c-68 -63 -397 -309 -429 -321 -18 -7 -19 2 -6 66 6
25 13 74 16 110 4 40 12 70 21 77 18 14 179 73 283 103 41 12 80 24 85 25 6 2
30 4 55 4 l45 0 -70 -64z m-115 -760 c155 -49 233 -124 215 -206 -28 -131
-145 -266 -390 -450 -167 -126 -414 -273 -430 -257 -4 4 -2 29 4 55 14 58 15
63 35 188 9 55 20 123 26 150 5 28 25 133 45 235 20 102 43 216 52 254 l16 69
171 -6 c149 -5 182 -9 256 -32z"/>
<path d="M5166 4915 c-3 -9 1 -18 9 -21 23 -9 50 0 53 19 3 13 -3 17 -26 17
-18 0 -32 -6 -36 -15z"/>
<path d="M5600 4489 c0 -5 -12 -14 -27 -20 -94 -33 -406 -645 -581 -1139 -17
-47 -80 -209 -140 -360 -203 -508 -221 -556 -233 -610 -6 -29 -20 -68 -31 -86
-11 -18 -17 -38 -14 -43 4 -5 -3 -43 -15 -83 -11 -40 -24 -86 -29 -103 -4 -16
-15 -50 -24 -75 -8 -25 -16 -56 -16 -70 l0 -25 18 21 c9 12 25 24 35 27 9 4
17 16 17 28 0 12 8 23 20 26 11 3 20 12 20 19 0 8 12 38 26 67 36 71 84 189
84 207 0 27 73 170 90 175 8 3 30 33 48 67 18 35 43 77 55 94 12 18 31 47 41
65 19 32 20 32 24 12 2 -13 10 -23 17 -23 17 0 28 31 19 54 -8 20 22 56 45 56
10 0 36 42 74 120 34 69 65 120 73 120 8 0 14 7 14 15 0 18 43 65 60 65 5 0
10 -7 10 -17 0 -15 1 -15 18 0 41 37 52 8 27 -70 -6 -19 -4 -23 12 -23 24 0
65 50 120 145 23 39 58 90 80 115 40 47 45 56 89 155 69 158 86 223 91 365 4
96 10 141 21 158 10 16 18 20 25 13 20 -20 47 -12 58 17 9 22 7 34 -12 68 -17
31 -21 51 -16 80 3 21 11 68 16 104 6 36 11 95 11 131 0 58 -3 68 -27 92 -52
49 -193 98 -193 66z"/>
<path d="M8126 2988 c-35 -56 -233 -674 -261 -816 -6 -31 -31 -54 -107 -98
-10 -6 -29 -20 -41 -31 -37 -34 -297 -226 -380 -281 -43 -29 -90 -52 -104 -52
-26 0 -26 0 -21 70 4 54 14 88 45 152 43 89 86 148 109 148 7 0 18 -9 24 -20
16 -30 58 -26 70 6 19 49 8 115 -24 136 -18 12 -65 9 -95 -7 -38 -19 -113
-104 -150 -168 -96 -168 -109 -378 -25 -416 41 -18 94 -13 143 15 68 40 179
121 239 176 75 68 252 208 263 208 13 0 11 -15 -8 -84 -9 -34 -27 -74 -39 -89
-36 -43 -46 -94 -28 -134 14 -27 14 -43 5 -95 -6 -35 -14 -109 -17 -165 -8
-116 5 -153 51 -153 43 0 78 81 54 126 -10 20 -11 41 -1 109 17 116 16 115 71
115 80 0 171 29 316 97 127 61 326 173 415 234 101 69 129 95 130 117 0 52
-28 41 -260 -104 -116 -73 -331 -180 -426 -212 -34 -12 -92 -24 -128 -28 l-66
-7 0 38 c0 42 16 60 204 230 54 49 103 99 109 112 23 50 -46 72 -99 31 -16
-12 -55 -44 -87 -71 -32 -27 -60 -47 -64 -44 -6 7 -1 29 48 207 52 186 60 214
83 285 13 39 41 122 61 185 21 63 43 126 50 140 7 14 18 49 25 78 9 41 10 56
0 67 -19 23 -67 19 -84 -7z"/>
<path d="M6977 2261 c-19 -21 -39 -46 -45 -56 -9 -17 -12 -17 -42 8 -37 32
-41 32 -86 11 -101 -48 -298 -417 -268 -501 8 -23 16 -29 46 -31 32 -3 44 3
82 38 25 23 100 112 166 197 68 88 120 147 120 137 0 -11 -11 -64 -24 -119
-31 -129 -48 -254 -44 -330 3 -57 4 -60 30 -63 35 -4 54 31 69 130 6 40 28
143 49 228 83 342 85 390 16 390 -26 0 -41 -8 -69 -39z m-137 -151 c0 -22 -19
-55 -67 -118 -138 -181 -153 -190 -83 -51 50 100 120 199 142 199 4 0 8 -14 8
-30z"/>
</g>
</svg>
