<?xml version="1.0" standalone="no"?>
<!DOCTYPE svg PUBLIC "-//W3C//DTD SVG 20010904//EN"
 "http://www.w3.org/TR/2001/REC-SVG-20010904/DTD/svg10.dtd">
<svg version="1.0" xmlns="http://www.w3.org/2000/svg"
 width="100%" height="100%" viewBox="0 0 1411.000000 600.000000"
 preserveAspectRatio="xMidYMid meet">
<metadata>
Created by potrace 1.16, written by Peter Selinger 2001-2019
</metadata>
<g transform="translate(0.000000,600.000000) scale(0.100000,-0.100000)" fill="white" fill-rule="evenodd" stroke="none">
<path d="M5830 5641 c-58 -15 -114 -32 -125 -38 -11 -7 -73 -36 -137 -66 -127
-60 -150 -74 -343 -216 -178 -131 -452 -382 -628 -576 -49 -55 -120 -131 -157
-170 -36 -38 -75 -82 -85 -96 -11 -15 -67 -80 -125 -145 -58 -65 -125 -143
-150 -174 -45 -57 -215 -262 -385 -464 -49 -59 -100 -122 -113 -139 -13 -18
-35 -46 -50 -62 -15 -17 -44 -52 -65 -78 -21 -26 -44 -47 -50 -46 -7 0 -41 34
-77 76 -125 145 -331 270 -485 294 -207 32 -224 32 -360 4 -174 -35 -336 -180
-406 -363 -20 -52 -29 -204 -19 -308 22 -211 131 -440 298 -626 93 -103 92
-88 10 -154 -181 -147 -272 -215 -416 -311 -117 -77 -413 -224 -512 -253 -41
-12 -82 -26 -91 -30 -9 -5 -79 -19 -155 -32 -243 -40 -439 -24 -562 46 -35 20
-67 36 -72 36 -8 0 -67 65 -110 121 -44 58 -61 152 -37 208 13 30 86 99 130
123 10 5 30 35 44 66 24 54 24 57 7 93 -17 39 -53 62 -98 62 -41 -1 -96 -43
-134 -102 -32 -50 -36 -65 -40 -140 -13 -240 93 -431 288 -522 99 -47 170 -60
340 -66 100 -4 147 0 240 17 269 52 554 175 829 359 62 42 127 86 145 97 17
12 37 29 45 38 7 9 18 16 23 16 5 0 41 26 79 57 132 108 164 133 173 133 4 0
22 -11 40 -25 186 -152 423 -271 643 -325 51 -12 97 -28 102 -34 8 -9 -3 -32
-39 -82 -112 -155 -151 -215 -145 -224 8 -13 370 -13 394 -1 9 5 57 69 107
142 49 72 98 137 109 144 11 7 49 18 85 24 150 25 214 46 360 119 79 39 226
128 285 173 27 21 72 56 99 76 28 21 75 62 105 90 58 54 79 66 66 36 -82 -190
-115 -398 -86 -548 13 -68 67 -164 118 -209 88 -79 269 -82 457 -10 50 20 102
43 116 52 13 8 54 31 90 51 36 19 107 67 159 105 51 39 105 80 120 91 65 47
145 118 284 248 81 77 150 138 152 135 2 -2 -2 -15 -10 -28 -8 -14 -18 -34
-23 -45 -83 -177 -95 -218 -89 -312 8 -118 16 -165 32 -188 8 -11 26 -37 40
-57 31 -47 120 -93 195 -103 73 -9 195 17 274 58 169 89 268 169 532 432 123
123 224 219 224 214 0 -5 -12 -33 -26 -61 -36 -70 -71 -183 -79 -248 -16 -133
37 -270 130 -341 118 -89 273 -72 443 49 156 109 443 384 587 559 80 99 91 96
56 -13 -72 -230 -32 -521 84 -610 132 -100 402 5 680 265 34 31 75 69 92 85
l32 29 51 -33 c139 -89 355 -27 589 170 100 83 203 185 275 268 142 166 177
208 215 257 74 96 247 290 316 356 104 98 157 134 218 149 50 11 58 11 93 -6
79 -39 80 -146 4 -303 -54 -110 -155 -275 -241 -391 -72 -98 -299 -412 -332
-460 -21 -30 -54 -78 -75 -105 -135 -184 -212 -297 -207 -305 10 -15 348 -13
367 3 9 6 51 64 94 127 432 638 719 995 980 1221 51 43 95 79 98 79 3 0 28 15
54 33 126 87 274 134 354 111 108 -31 57 -198 -145 -464 -66 -88 -128 -166
-177 -222 -143 -166 -375 -515 -414 -623 -10 -27 -27 -70 -38 -94 -54 -121
-56 -412 -4 -540 14 -36 26 -69 26 -74 0 -11 68 -104 109 -150 35 -39 171
-106 251 -125 43 -9 117 -14 217 -14 128 1 168 5 260 27 258 62 534 216 754
421 121 113 265 264 342 359 200 247 362 572 413 829 8 45 22 106 30 136 22
81 16 428 -10 525 -57 219 -120 358 -231 510 -143 194 -300 318 -557 438 -111
52 -305 110 -423 127 -44 6 -107 15 -141 21 -33 5 -118 9 -188 9 l-127 0 -137
131 c-126 121 -244 210 -422 317 -124 74 -381 196 -495 234 -33 11 -69 23 -80
28 -52 21 -184 63 -272 86 -90 23 -155 38 -288 64 -27 5 -72 14 -100 20 -210
42 -419 61 -765 67 -338 6 -621 -10 -750 -42 -30 -7 -89 -18 -130 -24 -161
-24 -461 -111 -570 -166 -25 -13 -73 -34 -107 -48 -210 -85 -455 -262 -597
-430 -98 -116 -131 -167 -180 -276 -21 -46 -40 -97 -43 -115 -3 -17 -9 -38
-13 -46 -14 -27 -33 -220 -26 -274 6 -51 4 -54 -49 -131 -31 -43 -61 -83 -68
-87 -6 -4 -103 -8 -215 -8 l-203 0 3 -22 c3 -23 6 -23 183 -29 99 -3 181 -6
183 -7 4 -3 -28 -50 -114 -167 -44 -60 -98 -135 -119 -165 -21 -30 -42 -59
-47 -65 -5 -5 -30 -40 -56 -76 -289 -408 -312 -437 -488 -618 -342 -352 -608
-566 -859 -690 -133 -66 -157 -74 -250 -87 -120 -17 -169 -7 -214 41 l-34 38
5 86 c7 117 54 239 161 416 93 154 125 199 278 390 242 301 490 511 649 550
84 21 106 12 96 -39 -7 -33 -42 -76 -62 -76 -22 0 -92 -73 -100 -103 -9 -39 9
-74 50 -94 32 -15 38 -15 78 0 75 29 139 134 133 220 -8 128 -128 191 -293
153 -39 -9 -85 -16 -102 -16 -55 0 -264 -85 -377 -153 -128 -78 -254 -191
-389 -353 -110 -131 -241 -257 -404 -388 -212 -170 -407 -277 -601 -330 -105
-28 -129 -31 -129 -16 0 9 128 202 289 435 97 141 195 284 211 310 8 14 51 77
95 142 45 65 135 197 200 293 66 96 141 207 167 245 26 39 91 133 143 210 135
201 260 384 346 508 41 59 90 132 109 161 35 53 109 163 235 346 36 52 108
158 160 235 52 77 124 183 160 235 36 52 127 186 203 298 75 112 143 212 150
222 25 35 7 40 -146 39 -124 -1 -163 -6 -252 -28z m90 -39 c0 -9 -108 -167
-190 -277 -16 -22 -50 -69 -74 -105 -25 -36 -77 -108 -115 -160 -39 -52 -95
-131 -126 -175 -31 -44 -74 -105 -96 -135 -22 -30 -58 -82 -81 -115 -38 -54
-100 -141 -260 -363 -29 -40 -64 -88 -78 -107 -14 -19 -35 -49 -48 -67 -13
-18 -47 -67 -77 -108 -30 -41 -67 -93 -83 -115 -16 -22 -54 -76 -86 -120 -148
-205 -240 -335 -275 -385 -60 -86 -305 -428 -358 -500 -26 -35 -61 -85 -78
-110 -16 -26 -40 -59 -53 -76 -31 -40 -161 -220 -196 -271 -15 -23 -43 -59
-61 -80 l-33 -38 19 90 c43 214 48 297 24 458 -27 186 -48 260 -107 385 l-39
84 33 38 c18 20 47 55 64 76 18 22 56 68 85 103 30 36 83 101 119 145 36 45
95 116 130 159 36 43 79 95 95 116 17 20 84 99 150 175 66 76 127 148 135 160
54 80 470 517 679 714 219 205 332 296 499 403 97 62 301 158 388 184 93 27
94 27 94 17z m4030 -428 c182 -17 387 -49 480 -75 19 -6 73 -18 120 -29 350
-76 674 -206 1021 -408 147 -87 459 -349 432 -365 -4 -2 -55 -10 -113 -16
-191 -22 -489 -84 -588 -123 -15 -5 -61 -20 -102 -33 -214 -66 -563 -229 -993
-466 -115 -63 -241 -131 -280 -152 -40 -22 -108 -59 -151 -83 -157 -88 -373
-193 -422 -205 -54 -14 -183 -67 -254 -104 -178 -96 -617 -171 -850 -145 -58
6 -108 14 -112 18 -4 4 31 58 77 121 107 143 108 149 18 110 -95 -42 -214 -69
-301 -69 -42 0 -56 -4 -70 -22 -52 -65 -57 -68 -98 -53 -154 54 -324 175 -425
302 -32 41 -59 80 -59 88 0 7 13 27 29 44 l29 31 211 0 211 0 0 25 0 25 -184
0 c-108 0 -187 4 -191 10 -3 5 20 44 52 87 32 43 68 92 80 108 28 37 73 101
93 130 13 20 51 71 167 224 55 73 47 75 -92 23 -80 -31 -189 -52 -264 -52 -37
0 -42 -4 -93 -73 -29 -40 -63 -86 -76 -102 -12 -17 -33 -47 -47 -67 -14 -21
-33 -38 -41 -38 -14 0 -15 7 -10 43 4 23 11 76 16 117 22 177 95 331 235 495
52 60 199 194 260 235 20 14 50 36 66 48 36 29 197 114 304 160 159 68 341
127 545 176 58 14 260 50 345 62 182 25 752 24 1025 -2z m2172 -1005 c181
-234 261 -442 290 -741 10 -112 9 -142 -6 -244 -10 -64 -22 -126 -26 -138 -9
-21 -9 -21 -16 4 -17 58 -62 126 -99 151 -50 34 -156 64 -193 55 -15 -4 -55
-13 -89 -20 -83 -18 -205 -85 -318 -176 -27 -22 -66 -51 -85 -64 -34 -23 -169
-160 -200 -203 -30 -41 -131 -145 -137 -140 -3 3 -1 12 3 19 5 7 10 18 11 23
1 6 10 35 19 65 11 41 14 81 10 157 -4 95 -8 108 -41 168 -47 84 -105 131
-185 152 -57 14 -66 14 -122 -2 -33 -9 -92 -38 -133 -65 -72 -49 -219 -196
-324 -323 -31 -38 -72 -88 -91 -111 -19 -24 -71 -87 -114 -142 -120 -151 -377
-402 -480 -468 -117 -75 -139 -86 -226 -108 -94 -23 -155 -17 -200 21 -39 32
-39 34 42 120 142 151 297 385 339 510 27 82 25 117 -10 152 -35 35 -52 36
-128 8 -46 -17 -74 -38 -135 -100 -43 -44 -89 -101 -104 -127 -15 -26 -41 -72
-59 -102 -18 -30 -36 -71 -39 -90 -4 -19 -11 -53 -16 -75 -33 -152 -33 -149
-17 -210 l16 -60 -88 -85 c-174 -169 -343 -277 -490 -311 -46 -11 -92 -17
-103 -13 -29 9 -58 64 -58 110 0 60 19 153 42 204 11 25 26 61 33 80 7 19 21
51 32 70 11 19 35 62 54 95 32 58 95 155 172 262 39 56 53 74 102 132 17 20
43 53 59 74 64 88 323 344 384 382 9 6 42 26 72 47 69 44 116 65 172 73 88 13
143 -40 134 -130 -2 -27 -7 -58 -11 -67 -13 -32 24 -20 46 15 29 45 21 123
-18 173 -33 44 -112 84 -165 84 -21 0 -38 4 -38 9 0 5 46 33 103 61 191 98
312 163 328 176 8 8 19 14 24 14 4 0 63 31 129 68 319 181 692 366 886 439
143 55 394 133 491 153 56 11 105 23 108 25 20 12 349 45 396 40 6 -1 36 -35
67 -76z m338 60 c180 -23 379 -84 550 -168 58 -29 112 -58 120 -65 8 -7 36
-25 62 -40 66 -38 202 -167 279 -264 67 -84 156 -241 179 -317 7 -22 16 -44
20 -50 4 -5 13 -35 20 -65 7 -30 16 -68 21 -84 5 -16 14 -82 20 -147 25 -260
-38 -593 -161 -854 -49 -104 -42 -93 -116 -215 -81 -135 -177 -255 -328 -409
-159 -161 -318 -297 -446 -378 -99 -63 -261 -144 -333 -167 -41 -13 -65 -19
-199 -51 -101 -24 -265 -24 -376 0 -82 17 -101 26 -160 70 -130 98 -176 232
-142 419 24 137 129 317 304 525 39 46 78 93 86 105 8 11 35 44 60 72 164 185
297 365 363 494 55 105 144 382 162 499 23 157 17 348 -16 496 -37 166 -138
388 -238 522 -33 43 -57 81 -55 84 5 9 223 1 324 -12z m-9540 -603 c91 -16
194 -60 271 -116 61 -44 179 -170 179 -190 0 -32 -290 -351 -600 -662 -142
-142 -262 -258 -268 -258 -20 0 -109 127 -159 225 -86 171 -115 324 -93 485
12 87 55 207 96 269 82 123 230 218 379 245 103 18 106 18 195 2z m4435 -333
c92 -98 234 -193 373 -248 23 -10 42 -22 42 -27 0 -14 -133 -202 -193 -274
-223 -264 -316 -370 -482 -547 -94 -101 -280 -275 -344 -321 -16 -12 -53 -40
-83 -62 -95 -73 -216 -132 -303 -149 -100 -19 -147 -9 -175 38 -55 89 8 255
215 567 60 91 112 167 116 170 3 3 19 24 35 46 54 78 128 179 273 374 260 352
315 426 382 519 l32 45 21 -28 c12 -15 53 -62 91 -103z m-3915 -83 c31 -61 60
-140 71 -190 54 -266 52 -468 -9 -695 -28 -103 -88 -241 -130 -296 -41 -55
-58 -59 -146 -35 -28 8 -80 22 -116 31 -85 21 -253 91 -290 121 -8 6 -37 23
-64 37 -51 27 -217 161 -215 175 0 4 45 48 100 97 166 150 414 407 687 713 40
45 77 82 82 82 5 0 19 -18 30 -40z m5385 -293 c-64 -58 -168 -178 -245 -284
-19 -26 -51 -66 -71 -88 -21 -22 -59 -67 -85 -100 -187 -235 -593 -639 -703
-701 -55 -31 -68 -39 -83 -52 -8 -6 -48 -18 -88 -27 -149 -31 -205 30 -169
184 22 99 135 300 278 496 16 22 50 69 75 105 26 36 61 84 79 107 18 23 65 89
106 145 171 237 173 240 206 233 17 -3 104 -8 195 -11 167 -7 338 5 410 28 54
17 144 35 154 30 4 -3 -22 -32 -59 -65z"/>
<path d="M8353 3896 c-54 -20 -109 -68 -144 -126 -27 -44 -34 -68 -37 -122 -4
-61 -2 -69 21 -92 50 -50 149 -29 231 50 66 62 99 129 100 196 0 39 -5 53 -29
78 -23 24 -36 30 -69 29 -23 -1 -56 -7 -73 -13z"/>
<path d="M10575 1166 c-5 -3 -44 -7 -85 -11 l-75 -6 2 -402 c1 -221 3 -405 3
-409 0 -11 260 -10 260 0 0 5 19 15 43 21 61 19 121 72 153 137 62 127 6 278
-118 320 -42 14 -42 27 2 56 48 32 93 121 85 168 -15 82 -70 120 -183 126 -42
2 -81 2 -87 0z m119 -61 c59 -39 73 -116 30 -172 -41 -54 -80 -73 -151 -73
-76 0 -75 -1 -71 150 3 101 4 104 28 112 40 12 135 2 164 -17z m-17 -309 c73
-34 106 -87 111 -176 7 -111 -31 -184 -113 -221 -57 -26 -151 -26 -165 0 -6
12 -10 96 -10 205 0 180 1 185 22 200 32 23 95 19 155 -8z"/>
<path d="M4460 1143 c-41 -17 -96 -67 -116 -105 -18 -35 -18 -121 0 -157 21
-40 90 -98 210 -175 59 -37 115 -80 124 -94 11 -17 17 -47 17 -88 0 -53 -4
-67 -25 -89 -71 -78 -170 -71 -266 17 -24 22 -44 37 -45 32 -4 -36 5 -100 14
-106 7 -5 29 -13 50 -18 20 -6 37 -15 37 -20 0 -13 157 -13 173 -1 59 46 111
101 123 129 18 44 18 165 0 200 -20 38 -45 59 -183 151 -137 92 -169 129 -160
188 8 49 29 77 73 98 49 23 139 16 189 -15 41 -26 60 -17 50 22 -5 20 -16 27
-56 36 -68 16 -166 14 -209 -5z"/>
<path d="M5007 1151 l-38 -6 0 -397 c0 -219 2 -402 6 -408 9 -15 54 -12 71 5
12 12 15 50 14 212 l-2 198 109 5 c132 6 180 28 231 105 31 46 34 55 30 111
-5 83 -47 133 -143 171 -31 12 -211 15 -278 4z m205 -41 c106 -30 147 -149 83
-246 -26 -41 -98 -68 -162 -61 -30 3 -60 10 -66 15 -8 7 -11 51 -9 146 l3 136
32 9 c44 13 75 13 119 1z"/>
<path d="M5830 1138 c-94 -36 -195 -120 -233 -194 -60 -117 -60 -268 -2 -384
33 -66 152 -175 215 -197 27 -10 50 -21 50 -25 0 -5 50 -8 110 -8 61 0 110 4
110 9 0 4 21 16 48 26 146 55 245 188 258 347 17 199 -96 362 -298 433 -64 22
-190 19 -258 -7z m248 -40 c148 -70 235 -279 188 -453 -24 -88 -44 -125 -103
-184 -43 -42 -73 -63 -112 -76 -138 -46 -281 28 -354 183 -27 57 -32 81 -35
162 -3 78 0 105 17 150 43 115 114 194 204 227 54 20 142 16 195 -9z"/>
<path d="M6650 1150 c-14 -4 -42 -8 -64 -9 -33 -1 -37 -3 -30 -18 5 -10 10
-188 11 -395 1 -208 5 -382 8 -388 11 -17 72 -12 81 7 4 10 6 22 5 27 -5 22
-1 389 4 395 7 6 32 -20 165 -169 41 -46 99 -109 127 -139 29 -31 56 -67 60
-81 10 -40 28 -50 86 -50 41 0 56 4 61 16 7 19 -3 35 -84 121 -36 38 -78 85
-94 104 -16 19 -60 67 -98 108 -37 40 -68 79 -68 86 0 7 17 15 41 18 62 8 130
54 157 107 49 97 17 195 -78 242 -50 25 -65 27 -160 27 -58 -1 -116 -5 -130
-9z m205 -44 c38 -16 70 -61 80 -112 9 -50 -22 -112 -74 -149 -38 -26 -52 -29
-116 -30 -40 0 -76 3 -80 6 -5 5 -8 160 -5 257 1 36 131 54 195 28z"/>
<path d="M8462 1136 c-150 -57 -235 -158 -264 -316 -14 -74 1 -166 41 -255 42
-91 152 -190 234 -210 15 -4 27 -11 27 -16 0 -5 43 -9 95 -9 52 0 95 4 95 8 0
5 19 16 43 26 41 17 97 42 127 56 15 7 28 80 14 80 -3 0 -22 -14 -41 -30 -66
-58 -130 -84 -213 -84 -65 -1 -82 3 -129 29 -30 17 -70 45 -88 64 -43 45 -89
140 -104 218 -11 55 -10 70 9 141 32 122 90 197 192 249 45 22 68 28 126 28
60 0 80 -5 134 -32 34 -18 67 -33 71 -33 14 0 10 66 -3 78 -19 14 -79 23 -198
28 -93 3 -112 1 -168 -20z"/>
<path d="M7292 1138 c-7 -7 -12 -22 -12 -34 0 -21 2 -21 111 -16 l111 5 -4
-370 c-2 -280 0 -373 9 -382 15 -14 70 -15 78 -1 4 6 6 177 5 381 l-1 372 111
-5 c117 -5 124 -2 100 43 -10 18 -24 19 -253 19 -176 0 -246 -3 -255 -12z"/>
<path d="M9055 1143 c-15 -12 -14 -784 2 -800 8 -10 58 -13 179 -13 l167 0 29
31 c35 36 27 54 -18 39 -17 -6 -84 -9 -150 -8 l-119 3 -2 375 -2 375 -38 3
c-21 1 -42 -1 -48 -5z"/>
<path d="M9650 1144 c-22 -7 -17 -576 6 -646 30 -92 114 -141 244 -142 86 -1
129 10 182 46 35 24 48 23 48 -4 0 -52 11 -68 45 -68 21 0 35 6 39 16 3 9 6
192 7 408 l0 391 -47 0 -47 0 2 -311 2 -312 -33 -38 c-40 -45 -139 -94 -191
-94 -21 0 -58 9 -82 20 -35 16 -50 31 -70 71 l-26 50 2 307 1 307 -34 2 c-18
0 -40 -1 -48 -3z"/>
</g>
</svg>
