<?xml version="1.0" standalone="no"?>
<!DOCTYPE svg PUBLIC "-//W3C//DTD SVG 20010904//EN"
 "http://www.w3.org/TR/2001/REC-SVG-20010904/DTD/svg10.dtd">
<svg version="1.0" xmlns="http://www.w3.org/2000/svg"
 width="100%" height="100%" viewBox="0 0 1061.000000 500.000000"
 preserveAspectRatio="xMidYMid meet">
<metadata>
Created by potrace 1.16, written by Peter Selinger 2001-2019
</metadata>
<g transform="translate(0.000000,500.000000) scale(0.100000,-0.100000)"
fill="white" stroke="none">
<path d="M3879 4759 c23 -29 41 -56 41 -61 0 -6 -63 -150 -141 -322 -78 -171
-255 -563 -394 -871 -437 -967 -432 -956 -475 -1000 -61 -63 -57 -66 78 -63
95 2 116 6 114 17 -2 8 2 46 8 85 9 52 42 139 127 331 64 143 193 436 288 650
95 215 186 419 202 455 17 36 81 180 143 320 62 140 116 259 120 263 4 5 29
-49 54 -120 59 -159 243 -633 592 -1523 99 -252 119 -319 126 -435 3 -40 3
-40 206 -43 122 -1 202 1 202 7 0 5 -10 22 -23 38 -69 84 -147 223 -196 353
-18 47 -61 157 -96 245 -35 88 -164 417 -288 730 -123 314 -262 666 -307 783
l-84 212 -169 0 c-169 0 -169 0 -128 -51z"/>
<path d="M4620 4807 c0 -2 26 -53 59 -113 42 -78 86 -190 156 -389 53 -154
112 -323 130 -375 18 -52 139 -401 269 -775 263 -756 253 -728 265 -721 5 4
145 414 311 912 167 498 306 902 311 897 4 -4 49 -116 99 -248 51 -132 107
-278 125 -325 18 -47 115 -299 215 -560 259 -677 261 -681 272 -678 6 2 35 73
65 158 161 455 450 1268 559 1575 123 345 171 453 253 570 23 32 37 63 33 67
-5 5 -65 7 -133 6 -124 -3 -124 -3 -121 -53 2 -35 -5 -73 -23 -125 -15 -41
-78 -226 -140 -410 -257 -760 -415 -1226 -421 -1240 -7 -18 -17 6 -185 465
-72 198 -202 554 -289 790 -87 237 -169 462 -183 500 -25 70 -25 70 -198 73
-95 1 -177 -2 -181 -6 -6 -6 8 -36 32 -73 46 -71 130 -242 130 -264 0 -11
-444 -1389 -466 -1445 -4 -10 -10 -4 -19 20 -38 99 -494 1463 -505 1510 -7 30
-15 100 -19 155 l-6 100 -197 3 c-109 1 -198 1 -198 -1z"/>
<path d="M1792 1329 c-176 -41 -307 -141 -381 -290 -30 -60 -40 -96 -50 -175
-11 -91 -11 -106 9 -193 55 -247 225 -408 469 -447 99 -16 99 -16 196 15 53
17 118 43 145 56 27 14 58 25 69 25 25 0 40 26 47 82 9 74 -6 78 -73 21 -117
-102 -229 -137 -360 -113 -183 33 -335 223 -350 435 -17 257 157 490 390 519
72 9 191 -22 261 -70 50 -34 76 -42 76 -25 0 4 -14 40 -31 78 -31 70 -31 70
-117 81 -169 22 -213 22 -300 1z"/>
<path d="M3925 1331 c-196 -43 -346 -175 -416 -366 -38 -103 -44 -187 -23
-288 43 -208 183 -366 379 -430 118 -38 183 -42 292 -18 192 42 328 150 408
325 84 184 59 394 -66 565 -41 55 -135 134 -194 163 -115 57 -258 76 -380 49z
m224 -81 c127 -38 230 -156 277 -315 69 -236 -29 -505 -221 -603 -101 -51
-160 -57 -260 -27 -65 20 -92 35 -136 74 -96 86 -157 211 -174 359 -10 89 23
222 81 323 47 81 61 96 140 151 84 59 182 72 293 38z"/>
<path d="M9740 1335 c-47 -7 -104 -14 -128 -14 -47 -1 -63 -20 -41 -48 11 -13
14 -106 14 -497 0 -265 -4 -493 -9 -508 -8 -28 -8 -28 76 -28 47 0 88 3 91 6
3 4 2 15 -4 25 -5 11 -8 122 -7 279 l3 261 185 -203 c102 -112 203 -222 224
-246 25 -27 41 -56 45 -80 6 -37 6 -37 115 -37 70 0 111 4 113 11 3 8 -319
381 -455 526 -19 21 -22 29 -11 32 143 46 172 62 221 118 43 50 50 65 59 122
10 65 10 65 -33 147 -43 82 -43 82 -116 110 -92 35 -219 44 -342 24z m196 -66
c35 -9 55 -23 94 -69 45 -51 50 -63 50 -104 0 -40 -7 -55 -51 -115 -51 -68
-51 -68 -128 -86 -42 -9 -96 -15 -121 -13 -45 3 -45 3 -48 180 -3 193 -10 177
98 212 26 8 60 6 106 -5z"/>
<path d="M650 1318 c0 -6 7 -19 16 -29 14 -16 -1 -53 -206 -486 -121 -257
-232 -485 -246 -505 -14 -20 -23 -42 -19 -47 3 -6 33 -11 66 -11 59 0 59 0 59
38 0 26 29 99 98 247 l99 210 199 0 199 0 87 -200 c48 -110 88 -211 88 -225 1
-69 2 -70 117 -70 105 0 105 0 78 43 -50 81 -97 184 -310 680 l-158 367 -83 0
c-58 0 -84 -4 -84 -12z m123 -258 c34 -74 107 -243 107 -247 0 -2 -74 -3 -164
-3 l-165 0 46 98 c134 289 124 271 138 237 7 -17 25 -55 38 -85z"/>
<path d="M2381 1308 c-5 -13 -11 -37 -15 -54 -7 -31 -7 -31 144 -26 l151 5 -4
-479 c-2 -264 -7 -489 -11 -502 -9 -23 -9 -23 80 -20 83 3 89 4 85 23 -3 11
-6 235 -8 499 l-4 478 151 -4 c167 -5 160 -8 139 65 -10 37 -10 37 -355 37
-344 0 -344 0 -353 -22z"/>
<path d="M3196 1321 c-4 -5 -2 -41 4 -79 10 -64 9 -914 -1 -982 -4 -25 -4 -25
81 -25 85 0 85 0 80 25 -3 14 -5 246 -5 515 0 270 2 504 5 520 5 30 5 30 -77
33 -45 2 -84 -2 -87 -7z"/>
<path d="M4735 1320 c-3 -5 19 -37 50 -69 56 -59 56 -59 52 -512 -2 -250 -7
-466 -12 -481 -7 -28 -7 -28 48 -28 31 0 58 4 61 9 3 5 1 22 -4 37 -6 18 -9
179 -8 422 l3 394 226 -279 c446 -547 510 -623 524 -623 13 0 15 69 15 524 0
288 3 544 6 570 7 46 7 46 -46 46 -52 0 -52 0 -45 -27 5 -16 10 -210 12 -433
3 -405 3 -405 -28 -370 -31 35 -380 462 -543 663 -48 60 -91 121 -95 136 -7
26 -9 26 -108 29 -63 2 -104 -1 -108 -8z"/>
<path d="M6090 1320 c0 -6 14 -39 31 -73 18 -34 83 -213 146 -397 211 -623
225 -661 240 -658 9 2 65 157 151 418 l138 414 92 -244 c185 -492 220 -582
229 -591 6 -6 13 -5 20 3 5 7 83 224 173 483 96 279 181 504 206 554 24 46 44
87 44 92 0 5 -31 9 -70 9 -74 0 -73 1 -70 -55 0 -17 -22 -95 -50 -175 -28 -80
-85 -244 -127 -365 -41 -121 -79 -224 -83 -228 -4 -4 -71 169 -149 385 -78
216 -146 403 -151 416 -9 20 -16 22 -99 22 -49 0 -92 -4 -96 -9 -3 -5 8 -31
25 -57 60 -95 60 -84 -31 -366 -45 -139 -90 -281 -101 -315 -10 -35 -21 -63
-23 -63 -2 0 -55 156 -119 348 -79 238 -116 364 -118 402 -3 55 -3 55 -105 58
-68 2 -103 -1 -103 -8z"/>
<path d="M7656 1293 c12 -50 12 -931 0 -1006 -8 -57 -8 -57 265 -55 274 3 274
3 298 46 13 25 20 47 15 52 -5 5 -34 2 -64 -6 -36 -9 -107 -14 -207 -14 l-153
0 0 261 0 260 143 -4 c78 -3 153 -7 167 -9 24 -3 25 -1 25 52 0 50 -2 55 -20
51 -11 -2 -86 -6 -167 -8 l-148 -4 0 171 0 172 168 -5 c92 -3 179 -8 195 -12
24 -7 27 -5 27 18 0 14 -4 37 -10 51 -10 26 -10 26 -276 26 -266 0 -266 0
-258 -37z"/>
<path d="M8817 1324 c-4 -4 2 -19 12 -33 18 -26 18 -26 -65 -201 -306 -643
-361 -758 -381 -788 -38 -55 -32 -63 40 -60 62 3 62 3 59 33 -1 21 26 89 89
220 50 105 95 202 101 218 10 27 10 27 210 25 l201 -3 84 -195 c56 -130 87
-213 90 -247 6 -53 6 -53 109 -53 67 0 104 4 104 11 0 6 -11 25 -24 42 -13 18
-32 48 -42 67 -17 33 -208 475 -352 812 -67 158 -67 158 -148 158 -44 0 -84
-3 -87 -6z m154 -334 l77 -180 -164 0 c-154 0 -163 1 -156 18 20 52 158 342
162 342 3 -1 39 -82 81 -180z"/>
</g>
</svg>
