<?xml version="1.0" standalone="no"?>
<!DOCTYPE svg PUBLIC "-//W3C//DTD SVG 20010904//EN"
 "http://www.w3.org/TR/2001/REC-SVG-20010904/DTD/svg10.dtd">
<svg version="1.0" xmlns="http://www.w3.org/2000/svg"
 width="984.000000pt" height="400.000000pt" viewBox="0 0 984.000000 400.000000"
 preserveAspectRatio="xMidYMid meet">
<metadata>
Created by potrace 1.16, written by Peter Selinger 2001-2019
</metadata>
<g transform="translate(0.000000,400.000000) scale(0.100000,-0.100000)"
fill="white" stroke="none">
<path d="M0 2000 l0 -2000 4920 0 4920 0 0 2000 0 2000 -4920 0 -4920 0 0
-2000z m4336 1916 c3 -8 -4 -25 -15 -37 -20 -21 -25 -34 -22 -51 0 -5 -3 -8
-8 -8 -5 0 -20 -14 -32 -32 -14 -18 -17 -28 -8 -24 11 6 11 5 -1 -6 -21 -18
-69 -83 -72 -98 -2 -7 -13 -23 -26 -36 -13 -13 -20 -29 -16 -36 4 -7 3 -8 -4
-4 -11 6 -16 -6 -13 -26 0 -5 -3 -7 -8 -5 -13 3 -91 -115 -84 -126 3 -6 2 -7
-3 -4 -11 6 -57 -57 -57 -79 0 -7 -2 -12 -5 -9 -6 5 -40 -37 -44 -55 -2 -7
-13 -24 -25 -38 -13 -13 -20 -30 -16 -36 3 -6 2 -8 -2 -3 -9 7 -61 -72 -57
-86 1 -5 -1 -6 -5 -4 -5 3 -24 -18 -43 -46 -19 -29 -41 -58 -47 -65 -13 -13
-17 -28 -14 -45 1 -5 -3 -6 -9 -2 -10 6 -15 -9 -10 -30 1 -5 -2 -7 -6 -2 -10
9 -45 -44 -37 -56 3 -6 1 -7 -5 -3 -11 6 -16 -6 -13 -26 0 -5 -3 -7 -8 -5 -10
2 -84 -102 -84 -120 0 -7 -3 -10 -7 -8 -7 4 -62 -80 -60 -91 1 -4 -5 -11 -13
-16 -18 -10 -62 -82 -45 -73 7 4 1 -3 -14 -16 -29 -26 -54 -68 -49 -84 1 -5
-1 -7 -5 -3 -10 11 -37 -30 -28 -44 4 -6 3 -8 -4 -4 -11 7 -59 -63 -54 -79 2
-5 0 -7 -3 -3 -10 10 -106 -133 -98 -145 3 -6 2 -7 -4 -4 -9 6 -72 -81 -65
-91 2 -2 -5 -10 -15 -19 -10 -8 -11 -11 -3 -7 8 4 2 -5 -13 -19 -15 -15 -26
-31 -22 -36 3 -5 0 -13 -6 -17 -8 -5 -9 -3 -4 7 16 27 -10 -3 -35 -41 -14 -21
-49 -72 -78 -115 -29 -42 -47 -74 -40 -70 7 4 6 1 -3 -7 -23 -20 -109 -145
-104 -152 3 -3 2 -4 -2 -1 -10 8 -35 -34 -27 -47 4 -6 3 -8 -3 -5 -11 7 -28
-20 -24 -38 2 -5 -1 -7 -5 -3 -4 4 -21 -14 -38 -40 -18 -26 -47 -69 -66 -97
-47 -68 -47 -74 4 -63 87 19 116 29 111 38 -4 6 1 7 11 3 13 -5 15 -3 9 7 -5
9 -4 11 4 6 23 -15 186 77 313 176 32 25 54 48 50 52 -4 4 -2 6 3 4 15 -5 125
93 118 105 -3 6 -2 7 4 4 12 -8 139 130 135 146 -2 7 0 9 4 5 9 -9 40 33 36
47 -2 6 0 7 4 2 11 -10 85 64 77 77 -3 6 -3 8 2 4 4 -4 29 9 54 30 68 56 172
118 240 142 33 13 59 25 57 29 -2 3 8 7 22 7 15 1 68 7 117 14 105 15 153 9
194 -26 51 -43 51 -145 -1 -202 -13 -14 -17 -22 -10 -18 6 4 12 5 12 2 0 -3
-9 -10 -21 -16 -25 -14 -120 -30 -114 -19 3 4 -1 9 -9 12 -8 3 -15 24 -17 50
-2 25 -1 43 3 41 3 -2 8 0 10 4 1 5 22 22 45 39 23 17 39 33 36 37 -3 3 -1 6
6 6 8 0 11 6 7 16 -3 8 -2 12 4 9 6 -3 10 -2 10 3 0 20 -31 21 -85 3 -63 -21
-126 -61 -118 -75 3 -5 1 -6 -4 -3 -15 9 -115 -72 -106 -86 3 -7 2 -9 -2 -4
-11 10 -66 -43 -58 -56 3 -6 1 -7 -4 -4 -12 7 -46 -26 -38 -36 3 -4 2 -5 -2
-2 -9 7 -44 -26 -38 -36 3 -4 0 -11 -6 -15 -8 -5 -10 -2 -5 7 4 8 -1 3 -12
-11 -11 -14 -29 -36 -41 -49 -11 -13 -18 -27 -15 -32 2 -4 -7 -16 -21 -25 -13
-9 -22 -21 -18 -27 3 -5 1 -7 -5 -3 -10 6 -59 -62 -54 -77 1 -5 -1 -6 -6 -3
-9 6 -55 -59 -55 -79 0 -8 -4 -12 -9 -9 -4 3 -8 0 -8 -5 0 -6 0 -13 0 -16 0
-3 -9 -14 -20 -25 -12 -12 -18 -26 -14 -32 4 -6 3 -8 -3 -5 -13 8 -36 -41 -27
-55 4 -6 2 -8 -4 -4 -13 8 -26 -29 -16 -45 5 -8 3 -9 -6 -4 -10 6 -12 4 -7 -9
4 -9 3 -14 -2 -11 -13 7 -41 -94 -41 -148 0 -35 6 -50 26 -71 15 -14 35 -26
45 -26 9 0 25 -3 35 -7 10 -3 15 -2 12 3 -3 5 17 9 46 10 57 1 169 41 159 57
-3 6 -1 7 6 3 15 -10 142 64 134 77 -3 6 -1 7 5 3 15 -9 104 53 95 67 -3 6 -1
7 4 4 6 -4 29 8 51 26 161 129 233 196 225 211 -3 6 -3 8 1 4 11 -9 67 43 59
55 -3 6 -2 8 3 5 10 -7 35 17 28 26 -2 3 -1 4 3 1 10 -8 33 16 26 29 -3 6 -3
8 1 4 4 -3 19 3 33 15 34 30 121 133 103 122 -8 -5 0 6 18 23 20 19 31 36 26
43 -4 7 -3 9 4 5 6 -4 16 4 23 16 7 13 23 36 36 51 13 16 20 34 16 40 -3 7 -3
9 2 5 4 -4 28 21 53 55 24 34 50 68 56 76 9 12 8 13 -4 6 -8 -5 -1 5 15 21 17
17 39 43 50 59 11 16 29 40 41 54 31 39 69 105 66 114 -1 5 1 6 6 3 5 -3 19 8
30 24 l22 29 -132 3 c-129 3 -133 4 -136 26 -3 22 -3 22 145 22 81 0 153 4
158 8 18 12 66 82 58 82 -4 0 0 5 9 10 14 9 17 26 15 119 -1 60 2 104 6 98 5
-7 7 2 5 20 -3 18 -1 30 3 28 9 -6 21 54 12 68 -4 6 -1 7 7 2 10 -6 12 -4 7 9
-4 9 -3 15 2 12 12 -8 22 20 15 42 -5 15 -4 15 6 2 10 -13 11 -11 7 8 -3 12
-1 20 4 16 8 -5 13 10 10 29 -1 5 3 6 8 3 8 -5 24 23 26 46 0 3 4 10 9 15 5 5
6 2 2 -7 -4 -8 3 -2 16 15 13 16 23 34 23 40 0 5 5 10 10 10 14 0 110 98 107
108 -1 5 2 6 7 3 5 -3 15 2 22 11 8 9 53 42 101 74 48 31 84 60 80 65 -4 4 -1
4 5 0 14 -8 97 37 87 47 -3 3 5 3 18 0 19 -4 20 -3 8 7 -13 10 -12 11 3 6 9
-3 41 5 70 18 28 13 69 29 89 37 20 7 35 15 33 18 -2 3 9 7 23 8 15 0 70 12
122 26 275 72 469 92 810 84 238 -5 384 -20 605 -62 44 -8 89 -12 100 -9 17 4
18 3 5 -6 -12 -9 -6 -10 25 -6 27 4 35 2 25 -4 -13 -8 -12 -10 3 -10 21 0 143
-38 282 -87 55 -20 108 -36 117 -37 9 0 15 -3 13 -6 -7 -11 74 -42 86 -34 7 4
9 3 6 -3 -3 -5 24 -24 61 -43 37 -18 79 -42 94 -52 16 -11 33 -16 39 -12 7 4
10 3 6 -2 -3 -5 36 -37 86 -71 51 -34 133 -100 182 -146 l90 -84 120 -8 c66
-4 147 -8 179 -8 37 0 52 -3 40 -8 -16 -6 -15 -8 7 -8 47 -2 232 -62 313 -102
43 -21 83 -36 89 -32 5 3 7 2 4 -3 -6 -10 102 -81 116 -76 5 1 6 -1 3 -6 -6
-9 84 -88 96 -85 5 2 7 -3 5 -10 -1 -6 4 -11 10 -10 7 2 12 0 11 -5 -3 -14 14
-42 23 -36 5 3 8 2 7 -3 -4 -13 65 -112 74 -107 5 3 8 2 7 -3 -4 -21 2 -34 13
-27 6 4 8 3 4 -4 -9 -14 14 -63 27 -55 6 3 7 1 4 -4 -4 -6 3 -37 14 -69 47
-132 53 -172 52 -351 -2 -201 -5 -253 -15 -246 -5 2 -8 -3 -8 -12 0 -9 -9 -45
-21 -80 -12 -37 -18 -74 -14 -87 5 -19 4 -20 -5 -8 -10 12 -11 11 -7 -8 3 -12
2 -20 -2 -17 -12 7 -54 -93 -45 -106 4 -8 3 -9 -4 -5 -11 7 -17 -6 -13 -27 1
-5 -2 -6 -7 -3 -5 3 -18 -13 -28 -36 -10 -23 -31 -58 -46 -79 -15 -21 -29 -44
-30 -50 -2 -7 -13 -23 -25 -37 -13 -13 -20 -30 -16 -36 3 -6 3 -8 -2 -4 -11
11 -36 -12 -28 -25 3 -6 1 -7 -5 -3 -7 4 -12 3 -12 -2 0 -5 -29 -41 -66 -80
-36 -39 -65 -75 -65 -79 1 -4 -2 -8 -7 -8 -14 0 -121 -108 -116 -117 3 -5 2
-7 -3 -6 -14 5 -124 -78 -116 -87 5 -4 3 -5 -3 -2 -14 8 -76 -37 -66 -48 4 -5
1 -5 -5 -1 -14 8 -57 -17 -47 -26 3 -3 -1 -5 -8 -5 -24 2 -98 -35 -91 -46 3
-5 2 -7 -3 -4 -14 8 -176 -48 -167 -58 5 -4 3 -5 -3 -2 -7 4 -60 2 -118 -4
-140 -15 -264 0 -345 41 -32 15 -63 35 -70 44 -7 9 -17 13 -22 10 -5 -3 -8 -2
-7 3 5 13 -28 53 -37 45 -5 -4 -5 -2 -2 4 4 7 0 17 -8 24 -8 7 -15 18 -15 26
0 19 -22 64 -29 60 -3 -2 -7 6 -8 17 -11 132 -17 170 -23 142 -5 -21 -7 -13
-6 28 0 32 3 50 7 40 5 -16 24 104 23 149 0 9 3 15 6 13 12 -7 31 46 25 69 -5
17 -4 18 4 6 10 -13 11 -13 11 0 0 8 7 28 15 43 9 19 10 25 2 21 -7 -4 1 5 16
20 19 18 27 32 22 44 -3 9 -3 13 1 9 4 -4 23 17 42 46 19 28 50 74 70 102 20
27 30 45 22 40 -8 -5 6 11 30 36 53 53 73 79 64 79 -3 0 4 9 17 21 13 11 17
18 9 14 -8 -4 -6 1 5 10 11 9 19 21 17 26 -1 6 2 8 7 5 12 -8 82 84 74 98 -3
6 -3 8 2 4 9 -8 42 32 37 45 -1 5 1 6 6 3 5 -3 28 27 51 66 32 53 41 77 36 97
-4 18 -3 22 4 12 7 -10 11 -6 16 17 13 61 -28 91 -103 77 -55 -10 -133 -46
-125 -58 3 -6 1 -7 -5 -3 -6 3 -32 -7 -58 -23 -70 -45 -215 -181 -207 -194 3
-7 2 -9 -2 -4 -11 10 -46 -23 -38 -36 3 -5 2 -7 -4 -4 -11 7 -80 -72 -75 -86
1 -5 -2 -6 -7 -3 -5 4 -30 -21 -56 -54 -25 -33 -44 -60 -40 -60 3 0 -9 -14
-27 -31 -18 -17 -26 -27 -18 -23 8 4 1 -6 -16 -22 -29 -27 -58 -69 -59 -86 0
-3 -4 -10 -9 -15 -5 -5 -6 -2 -1 7 5 10 5 12 -3 5 -6 -5 -12 -16 -14 -24 -2
-7 -16 -26 -31 -42 -16 -16 -25 -34 -21 -40 4 -7 3 -10 -2 -6 -5 3 -22 -13
-38 -36 -17 -22 -25 -37 -18 -33 8 5 10 2 6 -8 -3 -9 -10 -13 -15 -10 -11 7
-50 -57 -42 -69 3 -6 2 -8 -3 -4 -10 6 -107 -130 -107 -150 0 -7 -4 -10 -9 -7
-4 3 -8 0 -8 -5 0 -7 -50 -11 -145 -11 -80 0 -145 3 -145 8 0 4 8 18 17 31 12
18 13 22 2 17 -8 -5 -2 2 13 15 36 31 88 111 81 123 -3 5 -1 6 5 2 13 -8 59
62 54 79 -2 5 0 7 4 3 10 -10 85 92 77 105 -3 6 -1 7 5 3 11 -7 17 6 13 27 -1
5 3 6 8 2 6 -3 15 5 22 17 7 12 18 29 26 36 7 8 10 18 7 24 -4 7 -2 8 4 4 11
-7 17 6 13 27 -1 5 3 6 8 2 6 -3 15 4 22 16 6 12 26 42 45 66 19 25 31 50 27
56 -3 7 -3 9 2 5 11 -11 68 69 59 83 -4 7 -3 9 3 6 13 -8 96 129 87 144 -5 8
-3 9 6 4 10 -6 12 -3 8 13 -4 12 -3 20 2 17 9 -6 19 14 36 75 10 36 10 51 -1
77 -19 46 -48 58 -99 42 -48 -15 -88 -43 -78 -54 4 -5 2 -5 -4 -2 -14 8 -116
-82 -107 -96 3 -5 2 -7 -4 -4 -9 6 -78 -68 -78 -84 0 -4 -4 -11 -9 -16 -6 -5
-6 -2 -1 7 12 22 4 13 -59 -64 -31 -37 -53 -73 -49 -79 3 -5 1 -7 -4 -4 -12 8
-120 -120 -115 -135 1 -5 -2 -7 -7 -4 -10 7 -47 -44 -42 -59 1 -5 -1 -7 -5 -3
-10 11 -35 -12 -27 -26 3 -6 2 -8 -2 -3 -11 10 -66 -43 -58 -56 3 -6 2 -8 -3
-4 -5 3 -45 -23 -88 -57 -43 -35 -110 -80 -150 -102 -66 -36 -77 -38 -156 -39
-73 0 -90 3 -118 23 l-32 24 -68 -64 c-37 -36 -82 -75 -100 -87 -18 -12 -29
-27 -26 -33 4 -6 2 -8 -3 -5 -6 4 -22 -2 -36 -13 -14 -11 -28 -20 -31 -20 -3
0 -27 -13 -54 -29 -27 -16 -75 -35 -105 -42 -31 -6 -55 -15 -52 -18 2 -4 -5
-7 -15 -7 -10 0 -17 3 -14 7 2 4 -11 10 -30 13 -19 4 -39 13 -46 21 -7 8 -17
12 -23 8 -5 -3 -7 -1 -3 5 3 6 2 13 -4 17 -15 9 -50 90 -51 117 0 18 -2 20 -7
6 -4 -10 -7 38 -7 106 0 68 3 119 7 113 7 -11 9 1 12 71 1 9 7 23 14 30 6 7
12 19 12 25 0 7 -3 7 -8 2 -4 -6 -21 -25 -37 -44 -17 -19 -23 -30 -15 -26 8 5
-13 -17 -47 -49 -35 -32 -60 -63 -56 -69 3 -5 1 -7 -4 -4 -6 4 -18 -2 -28 -13
-10 -11 -14 -20 -9 -20 5 0 -2 -6 -16 -13 -14 -8 -23 -20 -22 -28 2 -8 0 -11
-4 -6 -10 10 -85 -63 -77 -76 3 -6 1 -7 -4 -4 -12 8 -59 -31 -55 -45 1 -5 -2
-7 -8 -3 -11 7 -82 -49 -74 -59 2 -3 1 -4 -3 -1 -3 3 -26 -6 -49 -20 -23 -14
-67 -32 -96 -39 -29 -8 -47 -15 -39 -15 8 -1 12 -4 9 -7 -3 -3 -14 -1 -25 5
-19 10 -89 26 -110 24 -7 0 -11 3 -8 7 3 5 -7 17 -23 29 -15 11 -37 35 -47 55
-10 19 -23 32 -28 29 -6 -3 -7 -1 -3 5 3 6 3 29 0 52 -4 23 -10 37 -13 32 -3
-6 -6 10 -7 35 -1 27 2 39 7 31 9 -13 14 29 11 82 -1 19 1 22 8 10 8 -12 10
-11 10 5 0 11 12 43 26 70 l26 50 -46 -45 c-46 -44 -56 -58 -34 -44 7 4 8 3 4
-4 -4 -7 -13 -12 -19 -12 -14 0 -48 -36 -40 -43 2 -3 -5 -8 -16 -12 -12 -3
-19 -11 -16 -16 4 -5 2 -9 -3 -9 -15 0 -102 -82 -96 -92 3 -4 0 -7 -8 -6 -7 2
-12 -3 -10 -10 1 -6 -1 -11 -5 -10 -14 4 -183 -129 -175 -137 4 -5 2 -5 -5 -1
-15 8 -64 -14 -57 -26 3 -5 2 -8 -3 -7 -19 3 -34 -2 -29 -10 4 -5 -4 -7 -16
-3 -16 4 -19 2 -13 -8 5 -9 4 -11 -3 -6 -19 11 -107 -5 -91 -16 10 -7 8 -8 -6
-3 -39 14 -107 25 -118 18 -5 -3 -7 -2 -4 4 4 6 -4 15 -18 21 -13 6 -31 23
-41 36 -9 14 -20 23 -25 20 -5 -3 -9 -2 -8 3 2 4 -2 19 -8 33 -6 14 -17 51
-24 82 -10 50 -10 66 6 125 9 37 18 76 18 85 1 9 4 15 7 13 3 -1 15 20 28 48
l23 51 -25 -23 c-15 -14 -22 -29 -19 -39 5 -11 3 -13 -6 -7 -9 5 -34 -13 -75
-53 -109 -107 -286 -242 -404 -307 -40 -23 -69 -45 -65 -49 4 -4 1 -4 -8 -1
-8 3 -33 -2 -55 -11 -61 -26 -172 -42 -224 -32 -25 5 -51 6 -58 3 -7 -3 -11
-1 -9 3 2 4 -15 23 -38 42 -23 19 -48 49 -55 67 -8 18 -17 30 -22 27 -4 -3 -5
3 -1 12 4 10 2 15 -3 11 -6 -3 -10 50 -10 134 -1 87 3 135 8 127 6 -9 8 -2 6
19 -3 18 -2 30 2 28 3 -2 15 23 26 56 19 54 20 58 3 43 -10 -9 -15 -23 -12
-32 4 -14 3 -14 -5 -3 -9 12 -20 7 -64 -30 -184 -155 -381 -251 -578 -283 -32
-5 -42 -17 -105 -111 l-69 -105 -153 0 c-170 0 -173 1 -125 60 36 43 57 82 53
95 -1 5 1 7 5 3 4 -4 18 7 31 25 22 30 23 33 6 44 -9 7 -24 13 -32 13 -9 0
-67 18 -130 40 -63 21 -119 36 -125 33 -6 -3 -8 -3 -4 2 7 7 -92 75 -109 75
-4 0 -34 21 -67 47 -34 25 -66 50 -71 54 -13 10 -151 -99 -147 -115 2 -6 0 -8
-3 -4 -11 10 -47 -11 -40 -23 4 -5 3 -8 -2 -7 -14 5 -253 -159 -245 -167 4 -5
2 -5 -4 -2 -15 9 -186 -77 -176 -88 4 -5 2 -5 -5 -2 -16 10 -44 -3 -36 -16 3
-6 1 -7 -6 -3 -14 9 -83 -13 -76 -24 3 -4 -5 -6 -17 -3 -17 3 -19 2 -10 -5 10
-7 6 -9 -15 -9 -39 0 -195 -36 -184 -43 5 -3 -53 -5 -130 -5 -76 0 -131 3
-121 6 15 5 -41 17 -105 22 -11 1 -19 5 -17 8 6 10 -26 20 -38 12 -6 -3 -8 -1
-5 4 4 6 -4 14 -18 17 -14 4 -25 11 -25 17 0 6 -5 7 -12 3 -6 -4 -8 -3 -5 3 3
5 -12 26 -33 46 -22 20 -40 41 -40 47 0 6 -4 8 -10 5 -6 -4 -7 1 -3 11 5 13 3
15 -7 9 -8 -5 -11 -4 -7 2 7 11 -16 77 -24 69 -2 -2 -4 46 -4 107 0 82 4 119
15 137 18 30 71 80 85 80 6 0 3 5 -5 11 -12 9 -12 10 3 5 10 -3 30 -6 43 -6
14 0 36 -11 49 -24 13 -13 25 -22 27 -21 2 2 3 -12 3 -30 0 -18 -3 -31 -6 -29
-4 2 -9 -7 -13 -19 -3 -13 -32 -44 -65 -69 -42 -33 -61 -56 -66 -77 -8 -36 3
-94 16 -86 5 4 6 0 3 -8 -3 -8 12 -36 34 -63 68 -86 186 -133 338 -134 72 0
243 24 279 40 11 4 45 16 75 25 72 22 301 136 294 146 -3 5 3 6 12 2 13 -5 15
-3 9 7 -5 8 -4 11 2 7 12 -8 148 85 291 198 76 60 98 83 90 92 -6 7 -15 10
-21 6 -5 -3 -7 -2 -4 4 3 5 -6 22 -20 39 -14 16 -36 44 -50 61 -14 18 -30 30
-36 26 -6 -3 -7 -1 -3 5 8 14 -18 55 -28 45 -4 -4 -4 1 0 11 5 13 4 17 -4 12
-7 -4 -10 -2 -6 7 3 8 -2 19 -10 26 -8 6 -24 43 -37 81 -12 38 -25 67 -28 66
-7 -5 -8 7 -17 155 -5 91 -3 127 9 169 9 30 13 58 10 63 -3 6 -1 7 4 4 13 -8
26 20 16 35 -3 7 -1 8 5 4 11 -7 17 7 12 29 -1 6 2 7 6 2 10 -10 65 43 57 56
-3 6 -1 7 4 4 6 -4 17 1 24 10 22 26 130 70 208 83 58 11 88 11 154 1 87 -13
226 -62 266 -92 13 -10 28 -16 34 -12 6 3 7 1 3 -5 -8 -13 28 -35 39 -24 5 4
5 2 1 -5 -7 -14 27 -36 39 -25 3 4 5 2 3 -4 -1 -6 6 -20 17 -30 12 -11 14 -15
5 -10 -8 5 1 -7 22 -27 20 -20 34 -38 30 -41 -3 -3 -1 -6 4 -6 13 1 129 148
126 161 -1 6 1 8 6 5 10 -6 53 40 56 60 1 7 6 17 11 21 4 4 5 1 1 -7 -4 -8 1
-4 12 10 11 13 18 29 15 34 -3 5 -1 6 4 3 13 -8 65 57 55 68 -4 5 -2 5 4 2 11
-6 29 19 26 36 -1 4 2 6 6 5 14 -5 93 93 86 104 -4 6 -2 8 4 5 13 -9 64 51 56
65 -4 6 -2 8 3 5 11 -7 28 20 24 38 -2 6 1 7 5 3 10 -11 35 12 27 25 -3 5 -2
7 4 4 5 -3 40 31 78 76 38 44 63 78 55 73 -8 -4 -6 -1 5 8 39 30 64 60 58 70
-3 6 -2 8 2 3 11 -10 46 23 38 36 -3 5 -1 7 4 4 6 -4 19 3 29 16 19 21 19 21
-1 8 -11 -8 1 5 28 28 27 25 44 48 40 54 -3 7 -3 9 2 5 4 -4 44 29 89 74 44
44 107 103 138 131 32 27 55 55 51 61 -3 6 -3 8 1 4 5 -4 31 12 59 35 29 23
66 52 82 65 17 13 23 20 15 16 -8 -4 -11 -3 -7 1 4 5 14 10 22 11 8 1 44 23
80 48 35 26 105 66 155 90 49 23 86 47 82 51 -4 5 -2 5 5 2 14 -9 45 2 38 13
-3 5 3 6 12 4 10 -2 47 2 83 10 90 20 259 21 266 2z m2177 -283 c-7 -2 -19 -2
-25 0 -7 3 -2 5 12 5 14 0 19 -2 13 -5z m-135 -10 c-10 -2 -26 -2 -35 0 -10 3
-2 5 17 5 19 0 27 -2 18 -5z m560 0 c-10 -2 -28 -2 -40 0 -13 2 -5 4 17 4 22
1 32 -1 23 -4z m-5025 -1070 c-7 -2 -21 -2 -30 0 -10 3 -4 5 12 5 17 0 24 -2
18 -5z m2890 -110 c-40 -2 -106 -2 -145 0 -40 1 -8 3 72 3 80 0 112 -2 73 -3z
m-35 -80 c-32 -2 -86 -2 -120 0 -35 2 -9 3 57 3 66 0 94 -1 63 -3z m-690 -160
c-10 -2 -28 -2 -40 0 -13 2 -5 4 17 4 22 1 32 -1 23 -4z m5709 -350 c-1 -43
-3 -10 -3 72 0 83 2 118 3 78 2 -40 2 -107 0 -150z m-5790 95 c-3 -7 -5 -2 -5
12 0 14 2 19 5 13 2 -7 2 -19 0 -25z m1873 -494 c0 -8 -5 -12 -10 -9 -6 4 -8
11 -5 16 9 14 15 11 15 -7z m-2733 -191 c-3 -10 -5 -4 -5 12 0 17 2 24 5 18 2
-7 2 -21 0 -30z m-2644 -220 c-7 -2 -19 -2 -25 0 -7 3 -2 5 12 5 14 0 19 -2
13 -5z m120 0 c-7 -2 -21 -2 -30 0 -10 3 -4 5 12 5 17 0 24 -2 18 -5z m-110
-80 c-7 -2 -19 -2 -25 0 -7 3 -2 5 12 5 14 0 19 -2 13 -5z m100 0 c-13 -2 -33
-2 -45 0 -13 2 -3 4 22 4 25 0 35 -2 23 -4z m6920 -260 c-7 -2 -19 -2 -25 0
-7 3 -2 5 12 5 14 0 19 -2 13 -5z m-4370 -10 c-13 -2 -35 -2 -50 0 -16 2 -5 4
22 4 28 0 40 -2 28 -4z m430 0 c-18 -2 -48 -2 -65 0 -18 2 -4 4 32 4 36 0 50
-2 33 -4z m585 0 c-15 -2 -42 -2 -60 0 -18 2 -6 4 27 4 33 0 48 -2 33 -4z
m585 0 c-18 -2 -48 -2 -65 0 -18 2 -4 4 32 4 36 0 50 -2 33 -4z m1325 0 c-15
-2 -42 -2 -60 0 -18 2 -6 4 27 4 33 0 48 -2 33 -4z m1365 0 c-7 -2 -21 -2 -30
0 -10 3 -4 5 12 5 17 0 24 -2 18 -5z m-4202 -35 c14 -21 10 -44 -8 -59 -9 -8
-14 -9 -10 -3 10 17 -54 44 -103 44 -34 0 -47 -6 -71 -31 -38 -41 -37 -70 6
-114 33 -32 47 -40 68 -36 5 1 6 -2 3 -7 -3 -5 14 -21 38 -36 49 -31 106 -84
106 -98 0 -5 3 -7 8 -5 4 3 7 -28 7 -68 0 -40 -2 -72 -4 -70 -2 3 -16 -13 -32
-34 -15 -22 -37 -42 -49 -46 -11 -3 -18 -11 -15 -16 4 -5 -28 -9 -75 -9 -45 0
-79 4 -76 8 3 5 -11 14 -30 21 -32 11 -34 15 -34 57 0 24 3 44 6 44 4 0 24
-15 45 -34 48 -44 100 -55 145 -31 20 11 30 23 27 32 -3 8 0 13 8 11 8 -2 15
7 17 21 5 31 -6 73 -17 66 -5 -2 -12 2 -15 11 -3 8 -2 12 4 9 6 -3 10 -4 10
-2 0 3 -44 34 -97 70 -136 90 -148 105 -148 177 0 41 5 63 18 77 9 11 14 23
10 27 -5 4 -3 6 2 5 12 -3 77 36 71 42 -3 3 36 1 86 -3 57 -4 94 -12 99 -20z
m409 22 c-12 -8 -12 -10 -1 -10 8 0 29 -11 46 -25 18 -13 34 -23 36 -22 2 1 3
0 2 -2 -1 -2 5 -17 13 -33 13 -25 17 -121 4 -113 -3 2 -16 -12 -30 -30 -36
-48 -79 -65 -160 -65 l-70 0 0 -155 0 -155 -40 0 c-37 0 -40 2 -50 38 -13 41
-10 545 2 558 5 4 61 10 125 14 65 4 123 8 128 8 6 1 3 -3 -5 -8z m607 -13
c11 -1 19 -5 17 -8 -2 -4 16 -17 40 -30 25 -13 42 -27 40 -31 -3 -4 -1 -8 5
-8 5 0 21 -18 34 -40 13 -22 27 -37 32 -33 4 5 5 3 2 -3 -3 -6 1 -33 9 -59 12
-41 17 -180 5 -170 -2 2 -14 -17 -28 -43 -14 -26 -37 -60 -51 -75 -30 -32
-107 -77 -131 -77 -14 0 -14 -2 -1 -10 10 -7 -18 -10 -89 -10 -57 0 -101 3
-98 6 4 4 -15 17 -41 29 -26 12 -66 42 -89 68 -23 25 -45 42 -49 39 -4 -4 -4
-2 0 5 7 12 -13 65 -23 59 -15 -9 -11 139 6 192 9 31 17 63 16 70 0 7 1 11 4
8 3 -3 17 9 31 26 15 17 46 43 69 58 23 15 40 30 37 33 -3 3 1 5 8 4 30 -1 49
3 45 11 -4 6 80 1 200 -11z m1105 16 c-51 -2 -132 -2 -180 0 -48 1 -6 3 93 3
99 0 138 -2 87 -3z m780 -4 c-11 -4 -3 -9 26 -13 41 -8 42 -9 42 -47 0 -21 -2
-39 -5 -39 -3 0 -23 11 -45 25 -22 14 -60 28 -84 31 -49 7 -120 -12 -110 -28
4 -7 2 -8 -4 -4 -15 9 -52 -11 -49 -27 1 -7 -4 -11 -10 -10 -20 4 -65 -74 -58
-100 5 -16 4 -18 -3 -8 -8 11 -12 2 -17 -33 -11 -74 14 -184 38 -169 6 3 7 1
3 -6 -10 -16 22 -64 36 -55 7 4 8 3 4 -4 -4 -7 11 -23 36 -39 76 -49 201 -32
262 36 28 30 38 26 34 -16 -3 -33 -7 -38 -46 -51 -25 -8 -39 -18 -36 -24 4 -6
2 -8 -4 -5 -14 9 -43 -3 -36 -14 3 -5 -35 -9 -86 -9 -58 0 -89 4 -85 10 3 6 0
10 -7 10 -8 0 -35 13 -60 29 -25 16 -49 26 -53 23 -4 -4 -5 0 -3 8 2 9 -3 14
-12 12 -8 -2 -12 -1 -8 3 4 4 -4 24 -17 45 -13 21 -27 50 -31 64 -3 14 -9 24
-13 22 -3 -2 -6 38 -6 89 0 51 3 91 6 89 4 -2 10 8 13 22 14 53 69 112 138
147 37 19 66 36 64 38 -2 2 43 4 100 4 57 0 96 -3 86 -6z m261 4 c-7 -2 -19
-2 -25 0 -7 3 -2 5 12 5 14 0 19 -2 13 -5z m430 0 c-7 -2 -21 -2 -30 0 -10 3
-4 5 12 5 17 0 24 -2 18 -5z m350 0 c-7 -2 -21 -2 -30 0 -10 3 -4 5 12 5 17 0
24 -2 18 -5z m426 -22 c16 -12 33 -30 36 -41 4 -11 9 -18 13 -16 4 2 7 -11 7
-29 0 -18 -3 -31 -7 -29 -7 4 -23 -35 -20 -48 1 -5 -5 -8 -14 -8 -9 0 -12 -5
-8 -12 4 -6 3 -8 -3 -5 -6 4 -18 -2 -27 -12 -16 -17 -15 -19 14 -31 16 -7 43
-27 59 -46 16 -18 31 -30 34 -28 2 3 2 -8 0 -23 -3 -16 -1 -23 4 -16 5 6 8
-11 8 -42 0 -29 -3 -51 -6 -50 -3 2 -14 -14 -23 -36 -18 -41 -92 -99 -125 -99
-14 0 -14 -1 -1 -10 10 -7 -23 -10 -102 -10 l-118 0 0 300 0 299 33 5 c120 20
206 15 246 -13z m-2775 5 c51 -21 76 -60 76 -120 0 -61 -25 -108 -68 -127 -17
-7 -29 -16 -27 -19 2 -4 -9 -4 -26 -2 -17 3 -29 0 -29 -7 0 -17 61 -81 72 -75
5 3 7 2 6 -3 -5 -14 64 -93 75 -86 6 3 7 2 4 -3 -6 -11 67 -97 75 -89 2 3 5
-1 6 -8 0 -6 2 -21 4 -32 3 -18 -3 -20 -54 -23 -55 -3 -58 -2 -58 20 0 30 -28
70 -42 62 -6 -4 -8 -3 -5 3 8 13 -27 46 -37 36 -4 -5 -6 -3 -4 3 5 16 -92 125
-105 117 -5 -3 -7 -1 -4 4 4 6 -2 18 -13 28 -19 17 -19 16 -23 -106 l-3 -124
-1 133 c0 73 -4 136 -7 139 -3 4 -6 -66 -6 -155 l0 -162 -40 0 -40 0 0 279 c0
154 -3 286 -6 294 -4 12 5 18 38 25 66 15 204 14 242 -2z m630 -12 c15 -39 9
-42 -74 -37 l-80 6 2 -259 3 -259 2 253 3 252 53 -2 52 -2 -47 -3 -48 -4 0
-239 c0 -276 -3 -290 -62 -290 l-39 0 1 273 1 272 -75 0 -76 -1 0 28 0 28 189
0 c163 0 190 -2 195 -16z m958 -255 l-3 -272 120 5 c67 2 121 2 121 0 0 -2 -8
-17 -17 -33 l-17 -29 -138 0 c-76 0 -138 3 -138 8 -1 4 -2 139 -3 300 l-2 292
40 0 40 0 -3 -271z m442 249 c3 -13 5 -115 4 -228 l-2 -205 -6 215 -6 215 -2
-207 c-2 -197 6 -267 28 -253 5 3 11 -2 14 -11 3 -8 2 -12 -4 -9 -6 3 -10 4
-10 1 0 -12 62 -36 94 -36 38 0 88 19 81 30 -3 4 3 7 13 6 9 0 16 5 14 12 -1
8 2 11 7 7 6 -3 18 6 27 20 14 22 16 53 13 245 l-4 220 40 0 40 0 -2 -298 -1
-297 -34 -3 c-30 -3 -34 0 -36 24 -1 15 -4 29 -6 31 -2 3 -23 -5 -47 -16 -23
-12 -57 -21 -73 -22 -30 -1 -30 -1 -6 -9 43 -14 3 -11 -55 4 -77 21 -104 36
-136 76 l-27 35 -4 238 -3 237 41 0 c35 0 43 -4 48 -22z m-801 -25 c-7 -2 -19
-2 -25 0 -7 3 -2 5 12 5 14 0 19 -2 13 -5z m-855 -20 c-16 -2 -40 -2 -55 0
-16 2 -3 4 27 4 30 0 43 -2 28 -4z m1129 -340 c-1 -65 -3 -12 -3 117 0 129 2
182 3 118 2 -65 2 -171 0 -235z m780 49 c-1 -53 -3 -7 -3 103 0 110 2 154 3
97 2 -57 2 -147 0 -200z m-2190 216 c-2 -13 -4 -5 -4 17 -1 22 1 32 4 23 2
-10 2 -28 0 -40z m3531 -75 c-10 -2 -28 -2 -40 0 -13 2 -5 4 17 4 22 1 32 -1
23 -4z m-2201 -285 c-3 -7 -5 -2 -5 12 0 14 2 19 5 13 2 -7 2 -19 0 -25z m296
-25 c-24 -2 -62 -2 -85 0 -24 2 -5 4 42 4 47 0 66 -2 43 -4z m-500 -10 c-7 -2
-19 -2 -25 0 -7 3 -2 5 12 5 14 0 19 -2 13 -5z m-2905 -80 c-15 -2 -42 -2 -60
0 -18 2 -6 4 27 4 33 0 48 -2 33 -4z m1030 0 c-21 -2 -57 -2 -80 0 -24 2 -7 4
37 4 44 0 63 -2 43 -4z m1889 0 c-20 -2 -52 -2 -70 0 -17 2 0 4 38 4 39 0 53
-2 32 -4z"/>
<path d="M4040 3855 c-91 -26 -93 -27 -78 -37 10 -7 8 -8 -5 -4 -20 6 -129
-43 -121 -56 3 -4 -1 -6 -8 -3 -17 6 -130 -69 -121 -80 5 -4 3 -5 -3 -2 -19
11 -252 -173 -246 -194 1 -6 -2 -8 -8 -4 -14 9 -323 -302 -314 -317 4 -6 3 -8
-4 -4 -12 7 -109 -100 -104 -116 1 -5 -1 -7 -6 -4 -10 6 -88 -84 -84 -97 1 -5
-1 -6 -6 -3 -10 6 -98 -103 -94 -116 1 -5 -1 -7 -6 -4 -10 6 -58 -54 -54 -67
1 -5 -2 -6 -7 -3 -5 3 -32 -22 -59 -56 -28 -35 -62 -76 -75 -93 -14 -16 -23
-34 -20 -39 4 -5 1 -6 -4 -3 -6 4 -19 -5 -29 -20 -9 -15 -25 -36 -35 -47 -10
-10 -15 -24 -12 -30 3 -6 3 -8 -2 -4 -9 8 -42 -32 -37 -45 1 -5 -2 -6 -7 -3
-10 7 -53 -47 -46 -58 3 -3 2 -4 -1 -1 -9 6 -93 -98 -87 -107 2 -5 1 -7 -4 -6
-4 2 -10 1 -13 -2 -7 -7 32 -100 40 -95 3 2 6 -4 7 -13 1 -9 9 -46 17 -82 31
-127 36 -164 36 -270 0 -95 -9 -174 -26 -235 -4 -15 1 -13 20 10 33 38 70 98
54 89 -6 -4 8 12 30 34 40 40 47 53 42 77 -1 5 1 7 5 3 12 -12 104 115 97 135
-1 4 2 6 8 5 5 -2 25 20 45 47 19 28 51 73 70 100 19 28 46 65 60 84 14 18 22
38 18 44 -3 5 -2 8 3 5 11 -7 77 77 77 98 0 8 2 12 5 9 8 -8 44 44 37 55 -4 6
-2 9 3 8 14 -4 112 133 105 145 -3 6 -2 8 3 4 5 -3 33 28 62 70 29 41 47 71
40 67 -7 -4 2 7 20 24 21 20 31 36 26 44 -4 7 -4 10 1 6 8 -7 43 33 36 41 -1
2 2 7 8 10 22 14 60 74 54 85 -3 6 -3 8 2 4 10 -9 56 52 49 64 -3 5 0 7 6 6 7
-2 23 14 37 36 13 21 19 35 11 31 -7 -4 1 5 17 20 17 14 23 24 15 20 -10 -4
-9 -2 2 8 10 8 14 18 10 22 -4 5 -2 5 4 2 12 -7 47 38 47 60 0 7 4 10 8 7 10
-6 75 97 71 111 -2 5 0 7 4 3 10 -10 55 52 47 65 -3 6 -2 7 3 4 5 -3 21 11 34
31 14 20 40 57 58 80 17 24 29 49 25 55 -3 7 -3 9 2 5 10 -9 56 52 49 64 -3 5
-1 7 4 6 6 -2 10 -1 9 2 -1 3 11 17 26 33 16 15 25 32 21 39 -4 7 -3 8 4 4 11
-7 17 6 13 27 -1 5 3 6 8 3 7 -5 56 62 52 71 0 2 11 14 25 28 14 15 22 30 18
38 -4 6 -4 9 1 5 4 -4 21 10 38 33 16 22 28 41 26 43 -2 2 -24 -2 -49 -9z
m-1593 -1947 c-3 -7 -5 -2 -5 12 0 14 2 19 5 13 2 -7 2 -19 0 -25z m10 -100
c-3 -7 -5 -2 -5 12 0 14 2 19 5 13 2 -7 2 -19 0 -25z m-10 -200 c-3 -7 -5 -2
-5 12 0 14 2 19 5 13 2 -7 2 -19 0 -25z"/>
<path d="M6380 3570 c-63 -5 -146 -14 -185 -20 -208 -37 -428 -96 -418 -113 3
-6 1 -7 -6 -3 -13 8 -83 -12 -77 -22 2 -4 -7 -8 -20 -8 -37 -3 -220 -97 -300
-155 -85 -62 -185 -159 -177 -172 3 -6 1 -7 -4 -4 -12 8 -30 -11 -72 -73 -16
-24 -27 -48 -24 -54 3 -5 2 -6 -4 -3 -16 10 -78 -143 -70 -173 3 -11 2 -18 -3
-15 -4 2 -10 -9 -14 -26 -10 -49 -7 -109 5 -109 6 0 8 9 4 23 -4 16 -4 18 3 8
8 -11 12 -10 21 6 5 11 9 22 8 24 -1 2 0 3 2 2 4 -3 75 88 90 116 5 8 41 17
102 23 56 5 118 19 154 34 34 13 65 24 68 24 18 0 2 -32 -52 -104 -33 -44 -57
-84 -54 -89 3 -6 2 -7 -4 -4 -5 3 -16 -3 -24 -15 -8 -12 -38 -52 -66 -91 -29
-38 -50 -74 -46 -80 3 -6 1 -7 -5 -3 -11 7 -17 -6 -13 -27 1 -5 -3 -6 -8 -3
-5 4 -12 2 -16 -4 -4 -6 38 -11 122 -12 l128 -2 -135 -6 -135 -6 138 -2 137
-2 0 -25 0 -25 -153 0 c-136 0 -156 -2 -170 -18 -10 -10 -17 -23 -17 -28 1
-17 57 -84 65 -76 5 4 5 2 2 -4 -7 -12 35 -57 46 -49 4 3 5 2 2 -1 -11 -16
136 -111 217 -140 37 -13 39 -12 59 15 18 24 30 29 85 35 99 10 128 17 112 28
-8 5 -4 6 13 3 18 -4 41 1 69 15 62 31 78 24 47 -22 -14 -20 -23 -39 -19 -42
3 -3 1 -6 -5 -6 -6 0 -23 -17 -39 -37 -15 -20 -22 -33 -16 -29 8 5 10 2 6 -8
-3 -9 -10 -14 -14 -11 -5 3 -11 1 -14 -4 -9 -14 145 -24 252 -16 166 12 342
57 468 119 38 18 79 37 92 40 12 4 20 12 17 17 -3 5 1 6 9 3 22 -8 88 15 80
28 -4 7 -2 8 4 4 16 -10 124 43 116 56 -4 6 -2 8 4 4 13 -8 63 14 56 25 -3 5
3 6 12 2 10 -4 15 -2 11 3 -3 6 2 10 12 11 27 2 82 38 73 48 -4 5 -1 5 6 1 16
-9 113 44 105 57 -3 6 -1 7 5 4 13 -9 93 33 86 45 -3 4 3 5 12 1 13 -5 15 -3
9 7 -5 8 -4 11 3 6 15 -9 63 15 55 28 -3 6 -3 8 2 4 10 -9 146 62 139 73 -3 5
3 6 12 2 13 -5 15 -3 9 7 -5 8 -4 11 3 7 15 -10 43 3 35 16 -3 5 -1 7 5 3 14
-9 63 14 55 27 -4 6 -1 7 6 2 15 -9 63 14 55 26 -3 5 1 7 8 4 7 -3 54 15 104
39 89 43 252 108 307 122 22 5 26 9 15 16 -10 7 -8 8 5 4 21 -7 69 3 63 13 -2
3 10 7 27 7 18 1 84 13 147 28 63 14 133 26 155 27 22 0 62 6 89 12 l49 12
-47 43 c-26 24 -51 40 -56 37 -6 -4 -9 -3 -8 2 9 26 -227 193 -247 175 -5 -4
-5 -2 -2 5 9 15 -216 128 -235 117 -7 -4 -10 -4 -6 1 14 15 -147 78 -364 141
-33 9 -69 14 -85 10 -18 -4 -23 -3 -15 2 19 13 -31 25 -72 18 -20 -4 -24 -3
-13 2 13 6 -11 13 -80 25 -187 34 -219 37 -408 47 -209 11 -293 11 -465 0z
m-2 -17 c-10 -2 -26 -2 -35 0 -10 3 -2 5 17 5 19 0 27 -2 18 -5z m535 0 c-13
-2 -35 -2 -50 0 -16 2 -5 4 22 4 28 0 40 -2 28 -4z m570 -90 c-7 -2 -19 -2
-25 0 -7 3 -2 5 12 5 14 0 19 -2 13 -5z m-1523 -821 c17 -14 22 -29 23 -74 1
-31 0 -55 -4 -53 -3 2 -13 -11 -23 -30 -31 -56 -92 -98 -151 -103 -67 -5 -85
11 -85 78 0 27 -3 57 -6 67 -4 13 -3 14 4 5 7 -10 12 -6 22 18 7 17 27 42 44
57 17 14 30 31 28 37 -2 6 -1 8 3 5 3 -4 18 -3 33 1 46 14 89 11 112 -8z
m-684 -279 c-98 -3 -155 -8 -165 -16 -14 -11 -14 -10 -2 6 12 15 31 17 165 15
l151 -2 -149 -3z m297 -240 c-7 -2 -21 -2 -30 0 -10 3 -4 5 12 5 17 0 24 -2
18 -5z m480 -120 c-7 -2 -19 -2 -25 0 -7 3 -2 5 12 5 14 0 19 -2 13 -5z"/>
<path d="M8362 2879 c-75 -8 -165 -26 -305 -59 -29 -7 -45 -16 -41 -22 4 -7 2
-8 -5 -4 -14 9 -113 -23 -106 -34 3 -4 -3 -6 -13 -4 -21 6 -105 -30 -95 -40 4
-4 0 -4 -9 -1 -22 8 -119 -35 -111 -48 3 -6 1 -7 -6 -3 -15 10 -152 -54 -144
-67 3 -6 1 -7 -5 -3 -13 8 -103 -34 -96 -46 3 -4 -3 -5 -12 -1 -13 5 -15 3 -9
-7 5 -8 4 -11 -3 -6 -14 9 -63 -14 -55 -27 3 -6 2 -7 -4 -4 -5 3 -82 -34 -170
-82 -89 -49 -211 -115 -272 -146 -61 -32 -111 -60 -111 -62 0 -3 7 -2 16 1 9
3 12 2 9 -5 -4 -5 -14 -7 -23 -5 -10 3 -24 1 -32 -4 -11 -7 -7 -10 17 -10 44
0 95 -26 118 -60 11 -16 22 -27 25 -25 3 2 5 -21 5 -50 0 -29 -2 -51 -4 -49
-2 2 -10 -5 -18 -16 -14 -20 -43 -28 -43 -11 0 5 -3 18 -6 28 -4 13 -3 15 4 5
7 -11 11 -8 16 13 8 31 -1 68 -15 60 -5 -3 -6 1 -3 9 8 22 -32 39 -75 31 -52
-10 -102 -35 -94 -49 3 -6 3 -8 -2 -4 -4 4 -24 -2 -44 -12 -40 -22 -156 -126
-156 -140 0 -6 -4 -10 -10 -11 -18 -1 -35 -21 -28 -32 3 -5 1 -7 -5 -4 -16 10
-218 -231 -207 -247 3 -3 2 -4 -1 -1 -11 8 -46 -44 -38 -56 4 -7 3 -10 -2 -7
-5 3 -18 -6 -28 -20 -11 -14 -14 -22 -8 -18 8 5 10 2 6 -9 -4 -9 -9 -13 -12
-10 -9 8 -63 -79 -57 -93 3 -7 1 -11 -4 -8 -12 8 -55 -80 -46 -95 5 -7 4 -10
-2 -6 -13 8 -26 -20 -16 -35 4 -7 1 -8 -7 -3 -10 6 -12 3 -7 -14 3 -13 3 -20
-1 -17 -7 8 -31 -79 -32 -117 0 -42 27 -86 53 -87 5 0 5 4 2 10 -3 5 0 7 8 4
31 -12 151 31 140 49 -3 6 -1 7 5 3 17 -10 67 19 162 94 126 101 153 131 144
164 -4 16 -9 23 -13 18 -3 -6 -6 12 -6 38 0 26 3 46 8 43 4 -2 7 -1 7 4 0 36
35 162 51 185 11 15 17 33 13 39 -4 7 -3 9 3 6 6 -4 16 6 23 22 6 16 20 37 31
47 10 9 16 21 13 26 -3 4 0 7 8 6 7 -2 12 3 10 10 -1 8 2 11 7 7 6 -3 17 5 26
18 8 13 26 30 40 37 13 7 23 16 20 19 -2 4 4 7 13 8 9 0 31 4 47 8 46 10 82
-22 86 -79 2 -24 1 -43 -2 -41 -7 5 -44 -97 -40 -110 1 -5 -1 -7 -5 -3 -6 7
-66 -85 -68 -102 0 -3 -9 -13 -20 -22 -12 -10 -18 -17 -14 -18 4 0 -5 -12 -20
-27 -55 -56 -121 -141 -114 -148 4 -3 1 -5 -7 -3 -26 6 -22 -21 6 -35 30 -16
52 -20 93 -18 20 1 22 3 10 11 -11 7 -6 8 17 4 37 -7 128 31 116 48 -3 7 -1 8
5 4 17 -10 130 67 124 86 -1 4 1 7 5 6 16 -6 94 67 184 170 52 59 100 113 107
120 6 8 9 18 6 24 -4 7 -2 8 4 4 12 -7 38 32 33 49 -1 5 0 7 4 3 10 -10 105
104 98 117 -4 5 -3 7 1 3 5 -4 43 30 85 74 80 85 171 152 223 163 23 6 27 9
17 17 -15 10 -17 10 70 -12 80 -21 144 -89 166 -175 11 -46 22 -154 14 -149
-4 2 -10 -8 -13 -24 -4 -15 -10 -36 -13 -47 -5 -17 -4 -18 10 -6 9 7 14 18 10
24 -3 6 -1 7 5 3 13 -8 35 28 24 39 -4 3 0 5 8 3 8 -2 14 3 13 9 -2 7 3 12 10
10 6 -1 11 4 10 11 -2 6 1 12 6 12 5 0 33 24 63 53 29 29 85 77 125 106 40 30
69 59 66 64 -3 6 -1 7 5 3 12 -7 113 44 107 54 -3 6 69 13 135 13 59 0 109 -7
104 -14 -2 -3 8 -12 21 -19 14 -7 25 -17 25 -22 0 -5 5 -6 10 -3 6 4 10 3 9
-2 -3 -14 13 -43 21 -38 4 2 5 -8 3 -23 -4 -23 -3 -24 7 -10 30 48 32 264 4
388 -22 93 -24 101 -34 95 -4 -3 -6 5 -2 17 3 13 1 19 -5 15 -6 -4 -11 -1 -10
6 1 32 -4 48 -13 42 -5 -3 -7 0 -4 9 7 18 -40 102 -56 98 -6 -1 -9 2 -5 8 6
10 -31 80 -41 80 -3 0 -2 -6 2 -12 4 -7 3 -9 -1 -5 -5 4 -10 14 -11 21 -1 8
-12 28 -25 45 -26 35 -34 36 -187 20z m395 -521 c-3 -7 -5 -2 -5 12 0 14 2 19
5 13 2 -7 2 -19 0 -25z m-194 -155 c-7 -2 -19 -2 -25 0 -7 3 -2 5 12 5 14 0
19 -2 13 -5z m194 -95 c-3 -7 -5 -2 -5 12 0 14 2 19 5 13 2 -7 2 -19 0 -25z
m-760 -200 c-3 -7 -5 -2 -5 12 0 14 2 19 5 13 2 -7 2 -19 0 -25z m-1100 -100
c-3 -7 -5 -2 -5 12 0 14 2 19 5 13 2 -7 2 -19 0 -25z m-400 -270 c-3 -7 -5 -2
-5 12 0 14 2 19 5 13 2 -7 2 -19 0 -25z m-500 -435 c-3 -10 -5 -4 -5 12 0 17
2 24 5 18 2 -7 2 -21 0 -30z"/>
<path d="M8590 2885 c0 -4 15 -27 34 -50 19 -22 52 -76 74 -119 22 -42 42 -74
44 -69 3 4 3 3 2 -4 -2 -6 8 -41 21 -76 13 -36 29 -100 36 -143 7 -43 15 -70
18 -61 3 9 6 -44 6 -117 0 -74 -3 -129 -7 -123 -10 16 -21 -59 -14 -96 4 -19
3 -27 -3 -19 -10 16 -34 -66 -24 -81 3 -6 2 -7 -4 -4 -12 8 -37 -59 -27 -74 4
-7 3 -9 -3 -6 -13 8 -27 -39 -17 -55 5 -7 2 -8 -6 -3 -10 6 -12 3 -7 -14 3
-13 3 -20 0 -17 -9 9 -52 -67 -46 -79 4 -5 2 -7 -2 -2 -9 7 -61 -72 -57 -86 1
-5 -2 -6 -8 -2 -5 3 -10 2 -10 -2 0 -5 -11 -21 -26 -36 -14 -15 -22 -31 -19
-36 3 -5 0 -13 -6 -17 -8 -5 -9 -3 -4 7 11 19 -1 6 -58 -62 -26 -31 -43 -60
-39 -64 4 -5 2 -5 -4 -2 -7 4 -19 -4 -27 -17 -9 -13 -23 -31 -32 -40 -9 -9
-18 -24 -19 -34 -2 -9 -8 -17 -14 -17 -17 0 -113 -125 -105 -138 3 -7 2 -9 -2
-4 -11 9 -46 -43 -38 -56 3 -6 1 -7 -4 -4 -14 9 -68 -97 -58 -114 5 -7 4 -10
-2 -6 -28 18 -46 -210 -19 -245 7 -10 17 -14 21 -10 5 4 5 2 2 -5 -9 -15 2
-45 14 -37 5 3 6 -1 3 -9 -6 -18 21 -41 37 -31 8 4 9 3 5 -4 -19 -32 149 -88
249 -83 71 3 201 23 210 32 5 5 20 9 35 9 20 0 22 2 10 11 -12 8 -10 9 9 4 28
-8 124 32 114 48 -4 6 -1 7 6 2 15 -9 63 14 55 26 -3 5 1 7 8 4 31 -12 326
213 312 237 -4 6 -3 8 3 5 20 -13 251 241 235 258 -4 5 -2 5 5 1 14 -8 46 47
35 59 -4 5 -2 5 4 2 11 -7 26 15 28 40 1 7 9 18 18 25 9 7 18 19 20 27 2 8 11
23 21 34 11 10 17 27 14 38 -3 10 -2 17 3 14 12 -7 64 116 64 152 0 17 3 30 8
27 20 -13 60 213 55 316 -3 56 -2 71 3 45 5 -27 6 -14 3 40 -5 98 -13 146 -23
140 -4 -2 -5 6 -3 19 6 29 -39 161 -80 236 -64 116 -183 247 -290 319 -74 50
-228 123 -249 118 -10 -3 -16 -2 -13 2 7 12 -71 35 -85 26 -9 -5 -11 -4 -6 3
4 7 6 12 4 12 -2 0 -41 7 -88 15 -102 18 -300 31 -300 20z m247 -667 c-2 -13
-4 -5 -4 17 -1 22 1 32 4 23 2 -10 2 -28 0 -40z"/>
<path d="M1845 2451 c-11 -5 -41 -11 -68 -15 -30 -5 -45 -11 -41 -18 4 -6 2
-8 -4 -5 -15 10 -43 -3 -35 -17 3 -6 3 -8 -2 -4 -18 17 -131 -65 -118 -85 3
-6 1 -7 -4 -4 -6 4 -16 0 -23 -8 -7 -8 -9 -15 -6 -15 4 0 0 -7 -9 -16 -9 -9
-14 -23 -11 -31 4 -9 2 -11 -6 -7 -8 5 -9 1 -4 -12 4 -10 4 -15 0 -11 -4 4
-17 -12 -28 -35 -28 -60 -29 -239 -2 -318 25 -74 77 -180 86 -175 4 3 7 -3 6
-13 0 -9 5 -16 12 -14 8 1 11 -2 8 -7 -4 -5 4 -22 17 -37 l24 -27 36 27 c20
16 34 32 31 37 -3 5 0 8 8 7 7 -2 12 4 10 12 -2 8 0 11 4 7 10 -9 185 163 178
175 -3 5 0 7 8 6 7 -2 12 3 10 10 -1 6 4 11 10 10 7 -2 12 3 10 10 -1 8 2 11
6 8 11 -6 118 114 114 127 -1 5 2 6 7 3 11 -7 78 71 73 85 -1 5 2 8 6 7 9 -4
112 108 112 122 0 19 -118 132 -131 125 -7 -5 -10 -4 -5 3 8 13 -56 54 -88 56
-13 0 -22 4 -20 8 3 4 -12 10 -33 13 -21 4 -51 11 -67 16 -34 11 -44 11 -71 0z
m-358 -343 c-3 -7 -5 -2 -5 12 0 14 2 19 5 13 2 -7 2 -19 0 -25z"/>
<path d="M5024 2252 c-36 -44 -55 -77 -49 -86 3 -3 2 -4 -1 -1 -7 4 -45 -39
-44 -50 0 -3 -9 -14 -20 -25 -12 -12 -18 -25 -15 -30 3 -5 0 -12 -6 -16 -8 -5
-10 -2 -4 7 4 8 -4 1 -19 -16 -24 -29 -27 -34 -30 -54 0 -5 -5 -13 -10 -18 -6
-5 -6 -2 -1 7 14 26 -4 5 -60 -70 -30 -40 -52 -77 -48 -83 3 -6 1 -7 -5 -3
-11 7 -17 -6 -13 -27 1 -5 -3 -6 -8 -3 -10 7 -52 -45 -55 -69 -1 -8 -6 -18
-11 -22 -4 -4 -5 -2 -1 5 4 6 5 12 3 12 -2 0 -20 -24 -40 -52 -20 -29 -54 -79
-77 -111 -22 -32 -38 -63 -34 -69 4 -6 3 -8 -2 -5 -6 3 -16 -3 -23 -15 -10
-16 -10 -19 1 -13 7 4 0 -4 -16 -17 -19 -16 -26 -29 -21 -38 5 -9 4 -11 -3 -6
-11 7 -17 -7 -12 -29 1 -5 -2 -7 -6 -3 -10 11 -37 -30 -28 -44 4 -6 3 -8 -3
-5 -13 8 -60 -98 -69 -153 -10 -59 2 -89 40 -105 65 -27 191 20 328 124 83 62
249 213 243 220 -2 2 7 12 20 23 14 11 23 24 19 29 -3 5 0 8 8 7 7 -2 12 3 10
10 -1 8 2 11 7 8 11 -7 107 101 103 116 -1 5 2 7 7 4 12 -8 73 69 63 78 -4 4
0 6 8 4 8 -2 14 3 12 10 -1 8 2 11 7 8 12 -8 42 34 34 47 -3 6 -2 7 4 4 9 -6
23 7 72 68 15 19 15 19 -4 6 -11 -8 -1 3 23 24 45 40 76 87 64 100 -4 5 -2 6
3 3 6 -4 22 11 37 32 24 33 26 39 13 50 -8 7 -25 13 -39 14 -13 0 -22 4 -20 8
2 4 -6 10 -18 14 -12 4 -44 22 -71 40 -27 19 -53 31 -58 28 -5 -3 -8 -2 -7 3
4 13 -108 114 -117 105 -5 -4 -5 -2 -2 4 4 7 -1 21 -11 33 l-17 21 -31 -38z
m-717 -1164 c-3 -7 -5 -2 -5 12 0 14 2 19 5 13 2 -7 2 -19 0 -25z"/>
<path d="M2264 2143 c-16 -20 -28 -40 -26 -45 1 -4 -2 -7 -7 -5 -12 3 -102
-99 -93 -107 4 -4 0 -6 -8 -4 -8 2 -14 -3 -12 -10 1 -8 -2 -11 -7 -8 -10 7
-97 -91 -93 -105 1 -5 -4 -8 -10 -7 -7 2 -12 -3 -10 -9 1 -7 -5 -13 -14 -13
-8 0 -13 -4 -9 -9 3 -5 -4 -12 -15 -16 -11 -4 -18 -10 -15 -15 3 -5 -4 -11
-15 -15 -11 -4 -18 -11 -15 -16 4 -5 2 -9 -3 -9 -15 0 -82 -67 -74 -75 4 -4 2
-5 -4 -3 -5 1 -44 -28 -85 -65 l-74 -68 55 -49 c33 -30 61 -48 70 -45 8 4 11
3 7 -1 -10 -11 31 -36 46 -28 6 4 9 4 5 -1 -11 -11 29 -38 44 -29 6 4 8 3 5
-3 -9 -14 48 -37 64 -27 7 4 10 3 5 -4 -8 -14 86 -49 183 -67 42 -8 77 -15 78
-15 11 0 63 95 59 106 -3 8 -2 13 3 9 14 -8 54 103 55 152 1 22 4 36 8 30 24
-39 33 309 10 403 -24 98 -43 150 -53 144 -6 -3 -10 0 -8 7 3 28 -1 40 -13 33
-8 -5 -9 -2 -5 9 9 25 4 21 -29 -20z m113 -420 c-2 -32 -3 -8 -3 52 0 61 1 87
3 58 2 -29 2 -78 0 -110z"/>
<path d="M6115 1959 c-73 -16 -124 -19 -268 -17 -177 3 -179 3 -198 -21 -10
-13 -16 -28 -12 -35 3 -6 3 -8 -2 -4 -9 8 -23 -5 -49 -46 -11 -18 -13 -25 -5
-20 8 4 -1 -7 -19 -24 -20 -19 -31 -36 -26 -43 4 -7 3 -9 -4 -5 -12 7 -38 -32
-33 -49 1 -5 -1 -7 -5 -3 -10 11 -55 -52 -47 -66 3 -6 3 -8 -2 -4 -11 10 -56
-52 -48 -65 3 -6 1 -7 -5 -3 -6 4 -16 -4 -23 -16 -7 -13 -23 -36 -36 -51 -13
-16 -20 -34 -16 -40 3 -7 3 -9 -2 -5 -14 13 -90 -113 -77 -127 4 -5 2 -5 -4
-2 -13 8 -37 -40 -28 -55 5 -7 2 -8 -6 -3 -10 6 -12 4 -7 -9 5 -11 3 -15 -5
-10 -8 5 -9 2 -5 -10 4 -9 3 -14 -2 -11 -10 6 -16 -9 -26 -69 -8 -48 8 -90 41
-105 29 -13 37 -14 31 -3 -3 4 15 8 39 8 30 1 59 11 96 35 81 51 189 140 182
150 -3 5 0 8 8 7 7 -2 12 3 10 10 -1 8 1 11 6 8 12 -7 64 48 55 59 -5 4 -3 5
3 2 14 -8 47 26 37 38 -5 4 -3 5 3 2 13 -8 37 16 27 26 -3 4 1 7 9 7 19 0 69
60 61 73 -3 6 -1 7 4 4 6 -4 19 3 29 16 13 14 14 18 4 12 -9 -6 -1 3 17 18 18
16 30 34 26 40 -3 5 -2 7 4 4 5 -4 19 4 29 16 89 106 116 141 103 132 -8 -5
-6 -2 6 9 11 10 19 23 17 28 -1 5 2 7 7 4 5 -3 16 5 25 19 9 14 13 25 9 25 -5
0 0 5 10 11 9 6 14 15 11 21 -4 6 -3 8 3 5 11 -7 70 62 65 76 -1 4 2 6 6 5 5
-2 27 14 50 35 47 42 49 41 -73 16z m68 -6 c-7 -2 -19 -2 -25 0 -7 3 -2 5 12
5 14 0 19 -2 13 -5z m-480 -20 c-7 -2 -19 -2 -25 0 -7 3 -2 5 12 5 14 0 19 -2
13 -5z m144 -10 c-20 -2 -52 -2 -70 0 -17 2 0 4 38 4 39 0 53 -2 32 -4z m141
0 c-15 -2 -42 -2 -60 0 -18 2 -6 4 27 4 33 0 48 -2 33 -4z"/>
<path d="M3404 380 c0 -146 2 -205 3 -132 2 72 2 192 0 265 -1 72 -3 13 -3
-133z"/>
<path d="M3508 633 c-16 -4 -18 -18 -18 -103 l0 -99 34 -7 c44 -8 103 11 120
39 21 33 28 80 17 110 -19 49 -89 77 -153 60z m149 -105 c-3 -7 -5 -2 -5 12 0
14 2 19 5 13 2 -7 2 -19 0 -25z m-84 -95 c-7 -2 -21 -2 -30 0 -10 3 -4 5 12 5
17 0 24 -2 18 -5z"/>
<path d="M4077 633 c-9 -2 -15 -9 -12 -14 3 -5 0 -6 -8 -3 -19 7 -80 -45 -73
-63 3 -8 2 -11 -4 -8 -12 7 -33 -32 -24 -47 4 -6 3 -8 -3 -5 -13 8 -33 -59
-33 -113 0 -54 20 -121 33 -113 6 3 7 1 3 -5 -8 -14 16 -63 40 -83 15 -12 16
-12 9 0 -5 10 -4 12 4 7 6 -4 9 -11 6 -16 -8 -13 42 -43 60 -36 9 3 13 2 10
-4 -4 -6 15 -10 49 -10 62 0 89 7 79 23 -3 6 -1 7 5 3 16 -10 54 12 46 26 -4
6 -3 8 3 5 12 -8 35 16 31 31 -2 6 5 17 14 24 9 7 25 43 34 80 16 59 16 74 5
120 -25 99 -68 160 -135 192 -32 15 -99 19 -139 9z m-140 -275 c-2 -13 -4 -5
-4 17 -1 22 1 32 4 23 2 -10 2 -28 0 -40z"/>
<path d="M7414 553 l1 -88 43 1 c47 1 84 23 109 65 15 25 15 30 0 62 -20 41
-32 47 -102 47 l-53 0 2 -87z"/>
<path d="M7414 407 c-2 -7 -3 -74 -2 -148 3 -133 3 -134 27 -137 34 -5 93 7
86 18 -3 6 0 7 7 5 21 -8 55 35 69 87 10 38 10 54 -1 87 -15 47 -53 87 -71 76
-7 -5 -10 -4 -6 2 9 14 -16 23 -64 23 -23 0 -42 -5 -45 -13z m165 -61 c-3 -3
-11 5 -18 17 -13 21 -12 21 5 5 10 -10 16 -20 13 -22z m18 -93 c-3 -10 -5 -2
-5 17 0 19 2 27 5 18 2 -10 2 -26 0 -35z m-119 -120 c-10 -2 -26 -2 -35 0 -10
3 -2 5 17 5 19 0 27 -2 18 -5z"/>
<path d="M4662 630 c-22 -9 -23 -14 -20 -102 l3 -93 51 0 c61 1 98 22 121 70
14 30 15 38 2 72 -8 21 -26 43 -39 50 -29 15 -85 16 -118 3z m-5 -147 c-2 -27
-3 -5 -3 47 0 52 1 74 3 48 2 -27 2 -69 0 -95z m160 45 c-3 -7 -5 -2 -5 12 0
14 2 19 5 13 2 -7 2 -19 0 -25z"/>
</g>
</svg>
