<?xml version="1.0" standalone="no"?>
<!DOCTYPE svg PUBLIC "-//W3C//DTD SVG 20010904//EN"
 "http://www.w3.org/TR/2001/REC-SVG-20010904/DTD/svg10.dtd">
<svg version="1.0" xmlns="http://www.w3.org/2000/svg"
 width="100%" height="100%" viewBox="0 0 981.000000 500.000000"
 preserveAspectRatio="xMidYMid meet">
<metadata>
Created by potrace 1.16, written by Peter Selinger 2001-2019
</metadata>
<g transform="translate(0.000000,500.000000) scale(0.100000,-0.100000)"
fill="white" stroke="none">
<path d="M7644 4779 c-721 -64 -1345 -575 -1548 -1267 -61 -207 -70 -273 -70
-512 0 -263 18 -372 106 -624 187 -538 692 -990 1251 -1120 264 -62 573 -64
837 -6 217 47 509 183 670 313 20 15 60 80 60 96 0 38 -47 116 -88 146 -45 32
-45 32 -101 0 -31 -17 -88 -52 -128 -78 -196 -126 -430 -214 -663 -248 -137
-20 -350 -7 -494 30 -393 102 -749 372 -966 735 -270 450 -290 958 -56 1426
182 363 530 661 907 778 171 53 265 66 459 66 165 0 198 -3 298 -27 192 -45
356 -118 562 -251 58 -37 115 -69 128 -73 18 -4 34 7 85 62 92 100 92 94 11
176 -113 115 -264 202 -484 282 -247 89 -502 121 -776 96z"/>
<path d="M1632 4737 c-12 -13 -33 -52 -47 -88 -14 -35 -30 -73 -35 -84 -14
-30 -162 -385 -255 -610 -120 -290 -214 -517 -225 -540 -9 -21 -102 -242 -190
-455 -63 -153 -235 -563 -403 -965 -186 -444 -267 -647 -267 -671 0 -12 8 -32
19 -45 16 -20 29 -23 109 -27 89 -4 91 -4 135 27 38 28 49 44 80 124 80 207
280 693 289 705 8 9 195 12 895 10 l885 -3 99 -240 c54 -132 131 -318 170
-413 48 -116 80 -179 97 -192 20 -16 40 -20 107 -20 119 0 165 21 165 76 0 9
-59 159 -131 333 -73 174 -181 435 -241 581 -61 146 -154 371 -208 500 -54
129 -160 384 -234 565 -75 182 -141 339 -146 350 -5 11 -52 124 -104 250 -261
632 -330 793 -352 823 -25 32 -26 32 -108 32 -73 0 -85 -3 -104 -23z m186
-647 c39 -96 123 -303 187 -460 64 -157 163 -400 220 -540 57 -140 142 -349
189 -464 48 -115 86 -211 86 -213 0 -2 -344 -3 -765 -3 -421 0 -765 4 -765 8
0 5 45 118 101 253 55 134 145 352 199 484 55 132 148 359 208 505 60 146 142
345 182 443 40 98 76 175 80 170 5 -4 40 -87 78 -183z"/>
<path d="M3445 4703 c-35 -48 -35 -48 -35 -1714 0 -1667 0 -1667 41 -1703 40
-37 40 -37 877 -34 829 4 838 4 924 26 335 87 593 335 693 668 36 119 44 164
44 259 1 161 -33 303 -106 450 -85 169 -213 306 -376 402 -80 47 -80 47 -46
72 68 49 185 181 228 255 89 157 122 276 123 446 2 290 -132 558 -367 737 -60
46 -190 108 -285 137 -135 40 -262 46 -997 46 -683 0 -683 0 -718 -47z m1630
-280 c127 -43 227 -107 296 -191 161 -193 192 -448 83 -679 -51 -109 -167
-225 -276 -277 -136 -65 -142 -66 -840 -66 l-628 0 0 621 0 620 653 -4 c624
-3 655 -4 712 -24z m61 -1524 c142 -25 251 -86 358 -200 192 -204 250 -487
149 -729 -66 -157 -172 -276 -314 -350 -136 -71 -121 -70 -911 -70 l-708 0 0
680 0 680 683 0 c438 0 705 -4 743 -11z"/>
<path d="M9265 4353 c-37 -10 -101 -61 -129 -103 -32 -49 -40 -77 -40 -140 0
-63 8 -91 40 -140 31 -46 93 -93 139 -104 92 -22 96 -22 195 28 155 78 172
300 33 415 -21 17 -54 36 -73 41 -36 10 -130 12 -165 3z m189 -65 c159 -108
122 -328 -64 -378 -68 -18 -133 2 -190 59 -66 66 -78 141 -39 232 22 49 76 99
124 112 44 13 133 -1 169 -25z"/>
<path d="M9240 4111 c0 -129 0 -129 25 -133 22 -5 24 -2 27 41 3 42 5 46 30
49 24 3 30 -3 50 -45 23 -47 50 -65 70 -45 6 6 1 26 -13 55 -21 42 -21 48 -7
64 24 29 29 54 17 90 -14 45 -34 53 -123 53 -76 0 -76 0 -76 -129z m138 80 c8
-5 12 -22 10 -42 -3 -33 -4 -34 -48 -34 -42 0 -45 2 -48 28 -2 16 -1 35 2 43
6 15 63 19 84 5z"/>
<path d="M1273 616 c-33 -16 -63 -40 -82 -67 -29 -39 -31 -48 -31 -125 0 -78
2 -85 33 -126 18 -24 52 -53 77 -65 78 -39 206 -27 262 24 25 22 22 34 -13 62
-30 23 -30 23 -54 1 -36 -34 -101 -38 -145 -8 -72 48 -87 134 -34 197 46 55
141 63 188 15 14 -13 19 -13 46 7 16 13 30 29 30 36 0 7 -19 25 -42 40 -60 40
-162 44 -235 9z"/>
<path d="M1985 624 c-48 -18 -102 -67 -121 -111 -16 -37 -18 -130 -5 -166 16
-40 73 -99 116 -118 54 -25 150 -25 207 0 46 19 103 76 119 118 16 42 11 131
-11 172 -24 48 -83 98 -130 111 -49 14 -128 11 -175 -6z m173 -91 c72 -45 65
-175 -11 -221 -113 -71 -236 46 -182 174 27 65 127 90 193 47z"/>
<path d="M4196 625 c-49 -17 -112 -79 -127 -123 -19 -58 -7 -153 25 -202 37
-56 109 -90 192 -90 140 0 234 88 234 218 0 91 -58 170 -149 200 -45 16 -127
14 -175 -3z m169 -91 c28 -18 55 -72 55 -108 0 -96 -95 -159 -183 -123 -99 42
-102 199 -4 243 37 16 97 11 132 -12z"/>
<path d="M7525 627 c-88 -34 -135 -105 -135 -203 0 -77 30 -138 88 -179 35
-24 55 -30 113 -33 75 -5 113 6 167 45 49 37 72 90 72 171 0 59 -4 75 -30 116
-52 81 -180 120 -275 83z m166 -103 c58 -56 62 -139 9 -193 -55 -55 -129 -53
-180 5 -30 34 -32 41 -32 89 0 14 0 31 1 39 1 20 50 76 75 87 36 15 96 3 127
-27z"/>
<path d="M2660 416 c0 -206 0 -206 45 -206 45 0 45 0 45 55 0 55 0 55 44 55
42 0 45 -2 81 -55 38 -55 38 -55 92 -55 54 0 54 0 13 59 -22 33 -40 63 -40 67
0 3 12 15 26 26 68 54 61 177 -14 233 -23 17 -46 20 -159 23 l-133 4 0 -206z
m232 107 c22 -20 23 -70 1 -95 -12 -14 -31 -18 -80 -18 -63 0 -63 0 -63 65 0
65 0 65 62 65 43 0 67 -5 80 -17z"/>
<path d="M3380 416 c0 -206 0 -206 50 -206 50 0 50 0 50 54 0 53 0 53 74 59
125 9 176 54 176 155 0 48 -4 57 -39 95 -40 42 -40 42 -175 45 l-136 4 0 -206z
m232 107 c22 -20 23 -70 1 -95 -12 -13 -31 -18 -75 -18 -58 0 -58 0 -58 65 0
65 0 65 57 65 38 0 62 -5 75 -17z"/>
<path d="M4870 415 c0 -205 0 -205 45 -205 45 0 45 0 45 55 0 55 0 55 44 55
42 0 45 -2 81 -55 38 -55 38 -55 92 -55 54 0 54 0 13 59 -22 33 -40 63 -40 66
0 4 13 19 29 34 37 35 54 94 41 141 -12 42 -25 59 -67 88 -28 20 -43 22 -157
22 l-126 0 0 -205z m232 108 c22 -20 23 -70 1 -95 -12 -14 -31 -18 -80 -18
-63 0 -63 0 -63 65 0 65 0 65 62 65 43 0 67 -5 80 -17z"/>
<path d="M5617 423 c-48 -109 -87 -201 -87 -205 0 -5 22 -8 48 -8 48 0 49 1
65 40 15 40 15 40 111 40 96 0 96 0 112 -40 16 -40 17 -40 70 -40 54 0 54 0
30 53 -83 187 -138 310 -146 332 -9 22 -15 25 -63 25 -53 0 -53 0 -140 -197z
m172 19 c12 -29 21 -57 21 -62 0 -6 -25 -10 -56 -10 -54 0 -56 1 -50 24 13 52
47 119 56 110 5 -5 18 -33 29 -62z"/>
<path d="M6240 580 c0 -40 0 -40 65 -40 65 0 65 0 65 -165 0 -165 0 -165 50
-165 50 0 50 0 50 165 0 165 0 165 65 165 65 0 65 0 65 40 0 40 0 40 -180 40
-180 0 -180 0 -180 -40z"/>
<path d="M6930 415 c0 -205 0 -205 50 -205 50 0 50 0 50 205 0 205 0 205 -50
205 -50 0 -50 0 -50 -205z"/>
<path d="M8180 415 c0 -205 0 -205 45 -205 45 0 45 0 45 115 0 63 4 115 8 115
4 0 50 -52 102 -115 94 -114 95 -115 137 -115 43 0 43 0 43 205 0 205 0 205
-50 205 -49 0 -49 0 -52 -116 l-3 -115 -95 115 c-94 114 -95 116 -137 116 -43
0 -43 0 -43 -205z"/>
</g>
</svg>
