<?xml version="1.0" standalone="no"?>
<!DOCTYPE svg PUBLIC "-//W3C//DTD SVG 20010904//EN"
 "http://www.w3.org/TR/2001/REC-SVG-20010904/DTD/svg10.dtd">
<svg version="1.0" xmlns="http://www.w3.org/2000/svg"
 width="100%" height="100%" viewBox="0 0 2813.000000 500.000000"
 preserveAspectRatio="xMidYMid meet">
<metadata>
Created by potrace 1.16, written by Peter Selinger 2001-2019
</metadata>
<g transform="translate(0.000000,500.000000) scale(0.100000,-0.100000)"
fill="white" stroke="none">
<path d="M26225 4635 c-111 -9 -169 -19 -225 -38 -41 -15 -83 -27 -93 -27 -10
0 -60 -13 -110 -29 -51 -17 -115 -36 -144 -43 -36 -9 -75 -31 -125 -70 -40
-31 -125 -94 -188 -140 -115 -83 -115 -83 -214 -283 -99 -200 -99 -200 -113
-315 -8 -63 -12 -131 -10 -150 9 -65 37 -205 63 -310 14 -58 26 -113 27 -123
1 -10 29 -50 62 -87 216 -245 246 -276 287 -296 58 -28 177 -85 263 -124 39
-18 86 -41 106 -51 21 -10 90 -25 160 -34 68 -8 196 -24 284 -35 200 -25 301
-25 435 -1 58 11 139 25 180 32 41 7 80 15 85 19 6 4 73 31 150 60 91 35 161
69 200 97 33 24 90 64 127 89 44 31 88 74 134 132 37 48 80 101 95 117 16 17
30 45 33 65 2 19 18 85 36 145 36 123 38 133 47 228 l6 67 -764 -2 -764 -3 0
-55 0 -55 688 -3 687 -2 0 -55 c0 -39 -7 -68 -22 -96 -63 -114 -98 -179 -122
-229 -22 -45 -41 -65 -104 -110 -42 -30 -106 -79 -142 -108 -84 -68 -157 -102
-340 -163 -91 -30 -339 -69 -436 -68 -142 0 -305 15 -364 32 -59 17 -302 83
-361 98 -32 8 -76 37 -318 211 -73 53 -73 53 -166 239 -92 183 -94 187 -96
265 -5 176 -6 168 38 346 18 76 33 148 34 160 0 32 254 328 299 350 19 10 98
47 175 83 77 36 153 72 169 80 29 16 183 39 446 68 97 11 163 13 235 7 99 -8
246 -35 275 -49 8 -5 49 -16 90 -26 41 -10 88 -22 105 -27 30 -9 171 -90 279
-160 33 -21 62 -38 66 -38 4 0 33 -33 64 -72 30 -40 76 -99 102 -131 31 -39
55 -84 74 -140 28 -82 28 -82 104 -85 42 -2 76 -1 76 2 0 3 -5 17 -11 33 -6
15 -12 43 -15 61 -8 65 -17 80 -204 334 -25 33 -54 66 -65 72 -11 6 -41 26
-66 44 -26 17 -49 32 -53 32 -3 0 -46 25 -94 57 -119 77 -167 97 -312 134 -69
17 -152 39 -185 50 -57 17 -282 41 -369 38 -23 -1 -108 -7 -191 -14z"/>
<path d="M15847 4623 c-4 -3 -7 -487 -7 -1075 l0 -1068 965 0 965 0 0 65 0 65
-890 0 -890 0 0 1010 0 1010 -68 0 c-38 0 -72 -3 -75 -7z"/>
<path d="M18140 3560 l0 -1070 75 0 75 0 -2 1068 -3 1067 -72 3 -73 3 0 -1071z"/>
<path d="M18567 4623 c-4 -7 80 -163 101 -188 4 -5 24 -39 43 -75 20 -36 62
-110 94 -165 32 -55 69 -120 83 -145 14 -25 35 -61 47 -80 12 -19 40 -66 61
-104 22 -39 60 -106 86 -150 25 -45 62 -108 81 -141 50 -88 130 -228 142 -246
5 -9 25 -45 44 -80 19 -35 44 -78 57 -95 13 -17 24 -34 24 -38 0 -4 32 -61 70
-126 39 -65 70 -121 70 -124 0 -3 14 -25 30 -49 17 -25 30 -49 30 -54 0 -6 13
-28 28 -49 16 -21 41 -64 56 -94 15 -30 40 -73 55 -95 27 -40 27 -40 104 -43
76 -3 76 -3 98 40 12 24 25 45 29 48 4 3 22 32 39 65 17 33 58 105 91 160 33
55 74 127 91 160 18 33 42 74 54 90 12 17 25 37 28 46 3 8 32 62 66 118 34 57
61 106 61 111 0 4 8 18 19 31 10 13 33 51 51 84 18 33 39 67 46 76 8 8 14 19
14 23 0 4 32 60 70 125 39 65 70 122 70 126 0 5 10 22 23 39 13 17 36 56 51
86 16 30 34 62 41 70 7 8 34 55 61 103 27 48 68 120 91 160 23 40 50 88 61
107 11 19 47 81 80 137 90 151 90 144 -9 141 -83 -3 -83 -3 -121 -68 -21 -36
-53 -92 -70 -125 -17 -33 -34 -62 -38 -65 -3 -3 -22 -34 -41 -70 -20 -36 -80
-141 -134 -235 -54 -93 -114 -199 -134 -235 -19 -36 -41 -71 -48 -78 -7 -7
-13 -17 -13 -22 0 -5 -31 -63 -70 -129 -38 -66 -70 -122 -70 -125 0 -3 -13
-25 -30 -49 -16 -25 -30 -49 -30 -54 0 -5 -16 -32 -35 -62 -19 -29 -35 -55
-35 -58 0 -3 -24 -46 -54 -96 -29 -51 -64 -112 -76 -137 -12 -25 -26 -47 -30
-50 -3 -3 -22 -34 -42 -70 -67 -126 -152 -270 -157 -270 -3 0 -22 30 -42 68
-19 37 -80 144 -134 237 -54 94 -114 199 -134 235 -19 36 -41 71 -48 78 -7 7
-13 17 -13 22 0 5 -31 63 -70 129 -38 66 -70 122 -70 125 0 3 -13 25 -30 49
-16 25 -30 49 -30 54 0 5 -16 32 -35 62 -19 29 -35 55 -35 58 0 3 -24 46 -54
96 -29 51 -64 112 -76 137 -12 25 -26 47 -30 50 -3 3 -22 34 -41 70 -20 36
-80 142 -134 235 -54 94 -114 198 -132 233 -34 62 -34 62 -113 62 -43 0 -81
-3 -83 -7z"/>
<path d="M21460 3560 l0 -1070 75 0 75 0 0 1070 0 1070 -75 0 -75 0 0 -1070z"/>
<path d="M22210 3555 l0 -1075 75 0 75 0 2 972 3 972 210 -193 c116 -107 284
-264 375 -351 91 -86 314 -293 495 -459 182 -167 371 -343 420 -391 50 -49
203 -192 340 -319 250 -231 250 -231 325 -228 l75 2 3 1073 2 1072 -75 0 -75
0 -2 -976 -3 -976 -270 251 c-148 138 -326 303 -395 368 -69 65 -240 223 -380
352 -140 129 -329 305 -420 391 -91 87 -271 255 -400 374 -235 215 -235 215
-307 216 l-73 0 0 -1075z"/>
<path d="M4460 4593 c-176 -12 -317 -28 -390 -43 -87 -19 -134 -38 -390 -157
-146 -69 -126 -50 -308 -282 -46 -58 -88 -116 -92 -128 -12 -29 -41 -168 -46
-218 -2 -22 -14 -86 -26 -143 -20 -95 -21 -112 -10 -231 11 -124 13 -133 73
-272 34 -79 68 -153 75 -164 7 -11 18 -39 25 -62 7 -26 22 -49 38 -59 38 -25
215 -158 222 -166 15 -21 135 -98 153 -98 11 0 76 -16 145 -35 407 -112 332
-100 651 -99 285 0 285 0 405 31 66 17 185 46 264 64 88 21 154 42 170 54 13
11 66 47 116 80 213 140 180 103 298 327 60 114 68 135 82 227 8 55 15 105 15
111 0 7 -131 9 -392 8 -392 -3 -392 -3 -403 -48 -28 -105 -23 -100 -220 -241
-100 -72 -100 -72 -195 -85 -225 -31 -292 -20 -535 82 -16 7 -49 20 -72 29
-40 16 -47 25 -124 168 -81 152 -81 152 -82 272 0 120 0 120 84 272 84 153 84
153 174 189 50 20 108 43 130 50 22 8 59 24 83 35 34 16 68 20 165 22 107 2
133 -1 212 -25 50 -15 111 -32 136 -38 41 -10 60 -26 147 -119 66 -71 102
-118 107 -139 7 -32 7 -32 392 -32 386 0 386 0 378 33 -4 17 -11 50 -15 72 -4
22 -20 83 -35 135 -15 52 -29 103 -31 113 -2 10 -60 78 -130 150 -119 123
-157 152 -239 184 -16 7 -98 39 -181 71 -145 57 -157 60 -290 71 -76 7 -202
19 -279 27 -77 8 -156 13 -175 12 -19 -1 -55 -3 -80 -5z"/>
<path d="M10990 4594 c-247 -20 -317 -28 -396 -44 -91 -19 -116 -28 -229 -80
-33 -16 -116 -54 -185 -85 -125 -56 -125 -56 -207 -158 -45 -56 -106 -132
-136 -168 -54 -66 -63 -87 -71 -164 -3 -22 -19 -105 -36 -185 -30 -136 -32
-154 -27 -290 5 -145 5 -145 57 -260 28 -63 68 -153 88 -200 44 -101 79 -138
242 -252 63 -45 130 -94 148 -110 18 -15 43 -28 56 -28 12 0 72 -14 132 -31
60 -17 132 -35 159 -40 28 -5 88 -21 135 -36 84 -27 87 -27 385 -27 299 0 301
0 460 32 139 29 181 42 320 103 285 126 274 118 402 264 129 146 133 153 180
285 25 72 37 130 50 242 15 136 15 159 0 300 -18 173 -50 282 -120 408 -51 89
-216 258 -292 297 -27 14 -65 36 -85 49 -43 29 -257 105 -358 128 -142 32
-535 61 -672 50z m305 -525 c11 -5 61 -24 110 -43 83 -31 109 -41 189 -69 50
-18 53 -23 184 -273 31 -60 33 -69 33 -170 0 -118 2 -113 -117 -325 -54 -95
-54 -95 -132 -126 -275 -110 -286 -113 -452 -112 -120 0 -212 13 -258 38 -12
6 -61 25 -109 42 -143 51 -157 61 -199 136 -20 38 -54 98 -76 134 -45 77 -59
159 -47 281 7 73 11 83 91 223 10 17 30 53 45 82 26 51 29 53 117 86 50 19
107 40 126 47 19 7 55 22 80 33 25 11 77 23 115 27 85 9 272 2 300 -11z"/>
<path d="M6060 4275 l0 -265 453 -2 452 -3 0 -753 0 -752 333 0 332 0 0 755 0
755 450 0 450 0 0 265 0 265 -1235 0 -1235 0 0 -265z"/>
<path d="M1270 4323 c-58 -115 -285 -564 -506 -999 -220 -435 -403 -798 -407
-807 -6 -16 20 -17 352 -17 l359 0 52 108 c29 59 64 131 79 160 26 52 26 52
600 50 l574 -3 65 -130 c35 -71 69 -141 76 -155 12 -25 12 -25 374 -28 362 -2
362 -2 350 26 -7 15 -236 472 -508 1015 l-495 987 -430 0 -431 0 -104 -207z
m701 -669 c90 -185 166 -340 167 -345 2 -5 -139 -9 -337 -9 -188 0 -341 2
-341 3 0 5 253 535 281 587 12 25 24 47 24 50 5 26 19 50 29 50 7 0 86 -151
177 -336z"/>
<path d="M8770 3515 l0 -1015 330 0 330 0 0 1015 0 1015 -330 0 -330 0 0
-1015z"/>
<path d="M12800 3515 l0 -1015 315 0 315 0 2 642 3 642 205 -233 c113 -128
290 -330 393 -449 104 -120 226 -257 271 -307 46 -49 123 -136 171 -192 l89
-103 378 0 378 0 0 1015 0 1015 -310 0 -310 0 0 -630 c0 -346 -3 -630 -7 -630
-12 0 -171 174 -380 416 -106 122 -208 239 -229 260 -20 21 -136 154 -258 294
-121 140 -230 263 -241 272 -18 16 -56 17 -402 18 l-383 0 0 -1015z"/>
<path d="M9560 970 l0 -600 445 0 445 0 0 100 0 100 -335 0 -335 0 0 160 0
160 288 2 287 3 0 90 0 90 -287 3 -288 2 0 150 0 150 323 2 322 3 3 93 3 92
-436 0 -435 0 0 -600z"/>
<path d="M10700 970 l0 -600 420 0 421 0 -3 98 -3 97 -312 3 -313 2 0 500 0
500 -105 0 -105 0 0 -600z"/>
<path d="M11712 973 l3 -598 420 0 420 0 0 95 0 95 -312 3 -313 2 0 500 0 500
-110 0 -110 0 2 -597z"/>
<path d="M14100 970 l0 -600 455 0 456 0 -3 98 -3 97 -342 3 -343 2 0 160 0
160 290 0 290 0 0 90 0 90 -290 0 -290 0 0 155 0 155 330 0 330 0 0 95 0 95
-440 0 -440 0 0 -600z"/>
<path d="M15460 1555 c0 -11 -13 -15 -54 -15 -45 0 -54 -3 -59 -20 -4 -15 -14
-20 -36 -20 -21 0 -31 -5 -31 -15 0 -8 -9 -15 -20 -15 -13 0 -20 -7 -20 -20 0
-11 -7 -20 -15 -20 -10 0 -15 -10 -15 -29 0 -20 -6 -30 -20 -34 -19 -5 -20
-14 -20 -141 0 -129 1 -136 20 -136 16 0 20 -7 20 -35 0 -24 5 -35 15 -35 8 0
15 -9 15 -20 0 -13 7 -20 20 -20 13 0 20 -7 20 -20 0 -16 7 -20 35 -20 28 0
35 -4 35 -20 0 -18 7 -20 55 -20 42 0 55 -3 55 -15 0 -12 14 -15 70 -15 63 0
70 -2 70 -20 0 -18 7 -20 75 -20 60 0 75 -3 75 -15 0 -10 11 -15 35 -15 24 0
35 -5 35 -15 0 -8 7 -15 15 -15 12 0 15 -17 15 -90 0 -73 -3 -90 -15 -90 -8 0
-15 -7 -15 -15 0 -12 -15 -15 -75 -15 -69 0 -75 -2 -75 -21 0 -18 -5 -20 -52
-17 -39 2 -53 7 -53 18 0 12 -18 16 -92 18 -74 2 -93 6 -93 17 0 10 -11 15
-35 15 -28 0 -35 4 -35 20 0 16 -7 20 -35 20 -24 0 -35 5 -35 15 0 8 -7 15
-15 15 -8 0 -15 -6 -15 -14 0 -7 -9 -16 -20 -19 -15 -4 -20 -14 -20 -36 0 -21
-5 -31 -15 -31 -10 0 -15 -11 -15 -35 0 -24 5 -35 15 -35 8 0 15 -9 15 -20 0
-13 7 -20 20 -20 11 0 20 -7 20 -15 0 -10 11 -15 35 -15 28 0 35 -4 35 -20 0
-17 7 -20 50 -20 43 0 50 -3 50 -20 0 -19 7 -20 220 -20 213 0 220 1 220 20 0
16 7 20 35 20 28 0 35 4 35 20 0 16 7 20 35 20 24 0 35 5 35 15 0 8 7 15 15
15 8 0 15 9 15 20 0 13 7 20 20 20 11 0 20 7 20 15 0 8 9 15 20 15 16 0 20 7
20 35 0 24 5 35 15 35 13 0 15 20 15 120 0 100 -2 120 -15 120 -8 0 -15 9 -15
20 0 13 -7 20 -20 20 -11 0 -20 7 -20 15 0 8 -9 15 -20 15 -13 0 -20 7 -20 20
0 11 -7 20 -15 20 -8 0 -15 9 -15 20 0 16 -7 20 -35 20 -28 0 -35 4 -35 20 0
18 -7 20 -55 20 -42 0 -55 3 -55 15 0 12 -15 15 -71 15 -62 0 -71 2 -76 20 -5
17 -14 20 -69 20 -50 0 -64 3 -64 15 0 11 -11 15 -39 15 -30 0 -40 4 -44 20
-3 11 -12 20 -21 20 -13 0 -16 12 -16 66 0 57 3 67 20 71 11 3 20 12 20 19 0
8 8 14 19 14 10 0 21 9 24 20 4 17 14 20 56 20 35 0 50 4 49 13 -2 8 17 13 65
15 55 2 67 0 67 -13 0 -12 14 -15 75 -15 68 0 75 -2 75 -20 0 -16 7 -20 35
-20 24 0 35 -5 35 -15 0 -10 11 -15 35 -15 32 0 35 2 35 31 0 22 5 32 20 36
17 5 20 14 20 69 0 64 0 64 -35 64 -28 0 -35 4 -35 20 0 18 -7 20 -55 20 -42
0 -55 3 -55 15 0 13 -28 15 -195 15 -167 0 -195 -2 -195 -15z"/>
<path d="M16530 1555 c0 -11 -12 -15 -50 -15 -39 0 -50 -3 -50 -16 0 -9 -9
-18 -20 -21 -11 -3 -20 -12 -20 -19 0 -9 -12 -14 -35 -14 -33 0 -35 -2 -35
-35 0 -28 -4 -35 -20 -35 -11 0 -20 -6 -20 -14 0 -7 -9 -16 -20 -19 -19 -5
-20 -14 -20 -141 0 -129 1 -136 20 -136 16 0 20 -7 20 -35 0 -28 4 -35 20 -35
13 0 20 -7 20 -20 0 -16 7 -20 35 -20 28 0 35 -4 35 -20 0 -13 7 -20 20 -20
13 0 20 -7 20 -20 0 -17 7 -20 50 -20 38 0 50 -4 50 -15 0 -12 15 -15 75 -15
68 0 75 -2 75 -20 0 -18 7 -20 70 -20 56 0 70 -3 70 -15 0 -11 11 -15 41 -15
32 0 40 -3 35 -15 -4 -10 1 -15 14 -15 13 0 20 -7 20 -20 0 -11 6 -20 14 -20
10 0 15 -15 18 -50 2 -42 0 -50 -14 -50 -11 0 -18 -8 -18 -20 0 -11 -7 -20
-15 -20 -8 0 -15 -7 -15 -15 0 -12 -13 -15 -60 -15 -53 0 -60 -2 -60 -20 0
-18 -7 -20 -70 -20 -63 0 -70 2 -70 20 0 19 -7 20 -90 20 -73 0 -90 3 -90 15
0 10 -11 15 -35 15 -28 0 -35 4 -35 20 0 16 -7 20 -35 20 -24 0 -35 5 -35 15
0 8 -9 15 -20 15 -11 0 -20 -6 -20 -14 0 -7 -9 -16 -20 -19 -17 -4 -20 -14
-20 -56 0 -39 -4 -51 -15 -51 -8 0 -15 -7 -15 -15 0 -8 7 -15 15 -15 8 0 15
-9 15 -20 0 -13 7 -20 20 -20 11 0 20 -7 20 -15 0 -11 11 -15 36 -15 27 0 37
-5 41 -20 5 -18 14 -20 74 -20 62 0 69 -2 69 -20 0 -19 7 -20 200 -20 193 0
200 1 200 20 0 17 7 20 50 20 43 0 50 3 50 20 0 11 7 20 15 20 8 0 15 7 15 15
0 8 9 15 20 15 13 0 20 7 20 20 0 11 7 20 15 20 8 0 15 7 15 15 0 8 9 15 20
15 13 0 20 7 20 20 0 11 7 20 15 20 13 0 15 22 15 135 0 113 -2 135 -15 135
-10 0 -15 11 -15 35 0 25 -4 35 -16 35 -9 0 -18 9 -21 20 -4 15 -14 20 -39 20
-27 0 -34 4 -34 19 0 15 -8 21 -32 23 -21 2 -33 8 -33 18 0 11 -14 16 -57 18
-43 2 -58 7 -58 17 0 12 -16 15 -70 15 -63 0 -70 2 -70 20 0 18 -7 20 -76 20
-64 0 -75 2 -70 15 4 10 -1 15 -14 15 -13 0 -20 7 -20 20 0 13 -7 20 -20 20
-13 0 -18 5 -14 15 4 10 0 15 -15 15 -19 0 -21 6 -21 55 0 48 2 55 20 55 11 0
20 7 20 15 0 8 7 15 15 15 8 0 15 9 15 20 0 18 7 20 55 20 42 0 55 3 55 15 0
12 14 15 70 15 56 0 70 -3 70 -15 0 -12 15 -15 75 -15 68 0 75 -2 75 -20 0
-17 7 -20 50 -20 38 0 50 -4 50 -15 0 -8 9 -15 20 -15 16 0 20 7 20 35 0 24 5
35 15 35 10 0 15 10 15 29 0 20 6 30 20 34 11 3 20 12 20 21 0 9 -8 16 -20 16
-11 0 -20 7 -20 15 0 10 -10 15 -31 15 -22 0 -32 5 -36 20 -4 17 -14 20 -54
20 -37 0 -49 4 -49 15 0 13 -29 15 -200 15 -171 0 -200 -2 -200 -15z"/>
<path d="M18070 1555 c0 -11 -13 -15 -54 -15 -45 0 -54 -3 -59 -20 -4 -15 -14
-20 -36 -20 -21 0 -31 -5 -31 -15 0 -8 -9 -15 -20 -15 -13 0 -20 -7 -20 -20 0
-11 -7 -20 -15 -20 -10 0 -15 -10 -15 -29 0 -20 -6 -30 -20 -34 -19 -5 -20
-14 -20 -141 0 -129 1 -136 20 -136 16 0 20 -7 20 -35 0 -24 5 -35 15 -35 8 0
15 -9 15 -20 0 -16 7 -20 35 -20 28 0 35 -4 35 -20 0 -13 7 -20 20 -20 13 0
20 -7 20 -20 0 -18 7 -20 55 -20 42 0 55 -3 55 -15 0 -12 14 -15 70 -15 63 0
70 -2 70 -20 0 -18 7 -20 75 -20 60 0 75 -3 75 -15 0 -10 11 -15 35 -15 24 0
35 -5 35 -15 0 -8 7 -15 15 -15 8 0 15 -9 15 -20 0 -13 7 -20 20 -20 17 0 20
-7 20 -50 0 -43 -3 -50 -20 -50 -13 0 -20 -7 -20 -20 0 -11 -7 -20 -15 -20 -8
0 -15 -7 -15 -15 0 -12 -13 -15 -55 -15 -48 0 -55 -2 -55 -20 0 -18 -7 -20
-75 -20 -68 0 -75 2 -75 20 0 18 -7 20 -85 20 -69 0 -85 3 -85 15 0 11 -11 15
-40 15 -33 0 -40 3 -40 20 0 16 -7 20 -35 20 -24 0 -35 5 -35 15 0 8 -7 15
-15 15 -8 0 -15 -6 -15 -14 0 -7 -9 -16 -20 -19 -15 -4 -20 -14 -20 -36 0 -21
-5 -31 -15 -31 -10 0 -15 -11 -15 -35 0 -24 5 -35 15 -35 8 0 15 -9 15 -20 0
-13 7 -20 20 -20 11 0 20 -7 20 -15 0 -10 11 -15 35 -15 28 0 35 -4 35 -20 0
-18 7 -20 55 -20 48 0 55 -2 55 -20 0 -19 7 -20 215 -20 208 0 215 1 215 20 0
18 7 20 55 20 48 0 55 2 55 20 0 11 7 20 15 20 8 0 15 7 15 15 0 8 9 15 20 15
13 0 20 7 20 20 0 11 7 20 15 20 8 0 15 7 15 15 0 8 9 15 20 15 13 0 20 7 20
20 0 11 7 20 15 20 13 0 15 22 15 135 0 113 -2 135 -15 135 -8 0 -15 9 -15 20
0 13 -7 20 -20 20 -16 0 -20 7 -20 35 0 33 -2 35 -35 35 -28 0 -35 4 -35 20 0
16 -7 20 -31 20 -22 0 -32 5 -36 20 -5 17 -14 20 -59 20 -41 0 -54 4 -54 15 0
12 -14 15 -70 15 -63 0 -70 2 -70 20 0 18 -7 20 -75 20 -60 0 -75 3 -75 15 0
10 -10 15 -31 15 -22 0 -32 5 -36 20 -3 11 -12 20 -19 20 -11 0 -14 17 -14 70
0 56 3 70 15 70 8 0 15 7 15 15 0 8 9 15 20 15 13 0 20 7 20 20 0 17 7 20 50
20 38 0 50 4 50 15 0 12 15 15 75 15 60 0 75 -3 75 -15 0 -12 14 -15 70 -15
63 0 70 -2 70 -20 0 -18 7 -20 55 -20 42 0 55 -3 55 -15 0 -8 9 -15 20 -15 16
0 20 7 20 35 0 24 5 35 15 35 10 0 15 10 15 29 0 20 6 30 20 34 11 3 20 12 20
21 0 9 -8 16 -20 16 -11 0 -20 7 -20 15 0 10 -10 15 -31 15 -22 0 -32 5 -36
20 -5 17 -14 20 -59 20 -41 0 -54 4 -54 15 0 13 -28 15 -195 15 -167 0 -195
-2 -195 -15z"/>
<path d="M20640 1475 l0 -95 200 0 200 0 2 -502 3 -503 113 -3 112 -3 0 506 0
505 195 0 195 0 0 95 0 95 -510 0 -510 0 0 -95z"/>
<path d="M21830 970 l0 -600 450 0 450 0 0 100 0 100 -340 0 -340 0 0 160 0
160 290 0 291 0 -3 93 -3 92 -287 3 -288 2 0 150 0 150 325 0 325 0 0 95 0 95
-435 0 -435 0 0 -600z"/>
<path d="M23180 1555 c0 -12 -13 -15 -55 -15 -48 0 -55 -2 -55 -20 0 -16 -7
-20 -35 -20 -23 0 -35 -5 -35 -14 0 -7 -9 -16 -21 -19 -12 -3 -18 -10 -14 -17
4 -7 -2 -14 -14 -17 -15 -4 -21 -13 -21 -33 0 -18 -6 -30 -16 -32 -13 -2 -16
-25 -17 -141 -2 -124 0 -137 16 -137 13 0 17 -8 17 -34 0 -25 5 -35 20 -39 11
-3 19 -11 18 -19 -2 -8 9 -14 30 -16 24 -2 32 -8 32 -23 0 -12 7 -19 20 -19
13 0 20 -7 20 -20 0 -18 7 -20 55 -20 42 0 55 -3 55 -15 0 -12 14 -15 69 -15
60 0 69 -2 74 -20 5 -18 14 -20 76 -20 56 0 71 -3 71 -15 0 -10 11 -15 35 -15
24 0 35 -5 35 -15 0 -8 7 -15 15 -15 8 0 15 -9 15 -20 0 -15 7 -20 25 -20 23
0 25 -3 25 -50 0 -44 -2 -50 -21 -50 -12 0 -23 -8 -26 -20 -3 -11 -12 -20 -19
-20 -8 0 -14 -7 -14 -15 0 -11 -12 -15 -51 -15 -42 0 -52 -3 -56 -20 -5 -18
-14 -20 -73 -20 -59 0 -68 2 -73 20 -5 18 -14 20 -91 20 -70 0 -86 3 -86 15 0
11 -11 15 -36 15 -27 0 -37 5 -41 20 -4 15 -14 20 -40 20 -27 0 -34 3 -29 15
4 10 -1 15 -14 15 -11 0 -20 -6 -20 -14 0 -7 -8 -16 -18 -18 -15 -4 -18 -12
-14 -37 4 -26 1 -31 -17 -31 -17 0 -21 -6 -21 -34 0 -25 5 -35 20 -39 11 -3
20 -12 20 -21 0 -9 7 -16 15 -16 8 0 15 -7 15 -15 0 -10 11 -15 35 -15 28 0
35 -4 35 -20 0 -18 7 -20 55 -20 48 0 55 -2 55 -20 0 -19 7 -20 215 -20 208 0
215 1 215 20 0 18 7 20 55 20 48 0 55 2 55 20 0 13 7 20 20 20 11 0 20 7 20
15 0 8 7 15 15 15 8 0 15 9 15 20 0 13 7 20 20 20 11 0 20 7 20 15 0 8 7 15
15 15 8 0 15 9 15 20 0 13 7 20 20 20 19 0 20 7 20 135 0 117 -2 135 -16 135
-9 0 -18 9 -21 20 -3 11 -12 20 -19 20 -9 0 -14 12 -14 35 0 33 -2 35 -35 35
-28 0 -35 4 -35 20 0 16 -7 20 -35 20 -28 0 -35 4 -35 20 0 18 -7 20 -60 20
-46 0 -60 3 -60 15 0 11 -16 15 -67 17 -53 2 -68 6 -68 18 0 12 -16 16 -72 18
-56 2 -73 6 -73 17 0 10 -11 15 -35 15 -28 0 -35 4 -35 20 0 13 -7 20 -20 20
-18 0 -20 7 -20 66 0 57 3 67 20 71 11 3 20 12 20 19 0 8 6 14 14 14 7 0 16 9
19 20 4 17 14 20 56 20 39 0 51 4 51 15 0 12 14 15 70 15 56 0 70 -3 70 -15 0
-12 14 -15 70 -15 63 0 70 -2 70 -20 0 -18 7 -20 60 -20 47 0 60 -3 60 -15 0
-8 7 -15 15 -15 10 0 15 10 15 31 0 22 5 32 20 36 14 4 20 14 20 34 0 19 5 29
15 29 8 0 15 9 15 20 0 11 -7 20 -15 20 -8 0 -15 7 -15 15 0 10 -11 15 -35 15
-28 0 -35 4 -35 20 0 18 -7 20 -60 20 -47 0 -60 3 -60 15 0 13 -28 15 -195 15
-167 0 -195 -2 -195 -15z"/>
<path d="M7520 1515 c0 -28 4 -35 20 -35 18 0 20 -7 20 -55 0 -42 3 -55 15
-55 11 0 15 -12 15 -50 0 -43 3 -50 20 -50 18 0 20 -7 20 -55 0 -42 3 -55 15
-55 12 0 15 -13 15 -55 0 -48 2 -55 20 -55 18 0 20 -7 20 -55 0 -42 3 -55 15
-55 12 0 15 -13 15 -55 0 -48 2 -55 20 -55 11 0 19 -3 19 -7 -1 -5 -1 -27 0
-50 1 -31 5 -43 16 -43 11 0 15 -11 15 -40 0 -31 4 -40 18 -40 14 0 16 -8 14
-50 -4 -45 -2 -50 17 -50 19 0 21 -6 21 -55 0 -42 3 -55 15 -55 10 0 15 -11
15 -35 0 -35 0 -35 125 -35 118 0 125 1 125 20 0 11 7 20 15 20 11 0 15 12 15
50 0 43 3 50 20 50 16 0 20 7 20 35 0 24 5 35 15 35 12 0 15 13 15 56 0 47 3
57 20 61 17 4 20 14 20 54 0 37 4 49 15 49 11 0 15 12 15 49 0 40 3 50 20 54
17 4 20 14 20 61 0 43 3 56 15 56 11 0 15 12 15 50 0 43 3 50 20 50 16 0 20 7
20 35 0 28 4 35 20 35 16 0 20 -7 20 -35 0 -24 5 -35 15 -35 11 0 15 -12 15
-50 0 -43 3 -50 20 -50 18 0 20 -7 20 -60 0 -47 3 -60 15 -60 10 0 15 -10 15
-31 0 -22 5 -32 20 -36 17 -4 20 -14 20 -54 0 -37 4 -49 15 -49 12 0 15 -13
15 -55 0 -48 2 -55 20 -55 18 0 20 -7 20 -55 0 -42 3 -55 15 -55 11 0 15 -12
15 -50 0 -43 3 -50 20 -50 13 0 20 -7 20 -20 0 -19 7 -20 120 -20 120 0 120 0
120 34 0 25 5 35 20 39 17 4 20 14 20 56 0 39 4 51 15 51 11 0 15 12 15 49 0
40 3 50 20 54 15 4 20 14 20 41 0 25 4 36 15 36 11 0 15 12 15 49 0 39 4 50
19 54 15 4 19 14 18 53 0 38 3 50 16 52 13 3 17 15 17 58 0 41 4 54 15 54 11
0 15 12 15 51 0 42 3 52 20 56 17 5 20 14 20 59 0 41 4 54 15 54 11 0 15 12
15 50 0 43 3 50 20 50 18 0 20 7 20 55 0 42 3 55 15 55 11 0 15 11 15 35 0 36
0 36 -102 33 -80 -2 -102 -6 -100 -16 1 -8 -7 -16 -18 -19 -17 -4 -20 -14 -20
-54 0 -37 -4 -49 -15 -49 -11 0 -15 -12 -15 -51 0 -42 -3 -52 -20 -56 -15 -4
-20 -14 -20 -39 0 -24 -5 -34 -15 -34 -12 0 -15 -13 -15 -55 0 -48 -2 -55 -20
-55 -17 0 -20 -7 -20 -50 0 -38 -4 -50 -15 -50 -12 0 -15 -13 -15 -56 0 -47
-3 -57 -20 -61 -17 -4 -20 -14 -20 -54 0 -37 -4 -49 -15 -49 -11 0 -15 -12
-15 -50 0 -43 -3 -50 -20 -50 -16 0 -20 7 -20 35 0 24 -5 35 -15 35 -10 0 -15
10 -15 29 0 20 -6 30 -20 34 -17 4 -20 14 -20 56 0 39 -4 51 -15 51 -12 0 -15
13 -15 55 0 48 -2 55 -20 55 -18 0 -20 7 -20 55 0 42 -3 55 -15 55 -12 0 -15
13 -15 55 0 48 -2 55 -20 55 -17 0 -20 7 -20 50 0 38 -4 50 -15 50 -12 0 -15
13 -15 55 0 48 -2 55 -20 55 -16 0 -20 7 -20 35 0 35 0 35 -125 35 -125 0
-125 0 -125 -55 0 -42 -3 -55 -15 -55 -11 0 -15 -12 -15 -50 0 -43 -3 -50 -20
-50 -18 0 -20 -7 -20 -55 0 -42 -3 -55 -15 -55 -12 0 -15 -13 -15 -55 0 -48
-2 -55 -20 -55 -17 0 -20 -7 -20 -50 0 -38 -4 -50 -15 -50 -11 0 -15 -11 -15
-40 0 -33 -3 -40 -20 -40 -18 0 -20 -7 -20 -55 0 -42 -3 -55 -15 -55 -11 0
-15 -12 -15 -50 0 -50 0 -50 -35 -50 -35 0 -35 0 -35 49 0 40 -3 50 -20 54
-17 4 -20 14 -20 56 0 39 -4 51 -15 51 -11 0 -15 13 -15 54 0 45 -3 54 -20 59
-17 4 -20 14 -20 56 0 39 -4 51 -15 51 -12 0 -15 13 -15 55 0 49 -2 55 -21 55
-19 0 -21 5 -17 50 2 42 0 50 -14 50 -15 0 -18 9 -18 55 0 46 -3 55 -18 55
-13 0 -17 8 -17 33 0 32 0 32 -122 35 -123 3 -123 3 -123 -33z"/>
<path d="M12740 960 l0 -590 105 0 105 0 0 375 c0 375 0 375 35 375 33 0 35
-2 35 -35 0 -24 5 -35 15 -35 8 0 15 -7 15 -15 0 -8 9 -15 20 -15 13 0 20 -7
20 -20 0 -11 7 -20 15 -20 8 0 15 -9 15 -20 0 -13 7 -20 20 -20 13 0 20 -7 20
-20 0 -11 7 -20 15 -20 10 0 15 -10 15 -31 0 -22 5 -32 20 -36 11 -3 20 -12
20 -19 0 -8 7 -14 15 -14 8 0 15 -7 15 -15 0 -8 7 -15 16 -15 9 0 18 -9 21
-20 3 -11 12 -20 19 -20 8 0 14 -6 14 -14 0 -7 9 -16 19 -19 15 -3 19 -13 17
-41 -1 -28 2 -36 16 -36 11 0 18 -8 18 -20 0 -11 7 -20 15 -20 8 0 15 -7 15
-15 0 -8 9 -15 20 -15 13 0 20 -7 20 -20 0 -11 7 -20 15 -20 8 0 15 -7 15 -15
0 -8 9 -15 20 -15 16 0 20 -7 20 -35 0 -24 5 -35 15 -35 8 0 15 -9 15 -20 0
-19 7 -20 105 -20 l105 0 0 590 0 590 -105 0 -105 0 0 -375 c0 -375 0 -375
-35 -375 -33 0 -35 2 -35 35 0 24 -5 35 -15 35 -8 0 -15 6 -15 14 0 7 -9 16
-20 19 -11 3 -20 12 -20 21 0 9 -7 16 -15 16 -8 0 -15 8 -15 19 0 11 -9 21
-21 24 -12 3 -18 10 -14 17 4 7 -2 14 -14 17 -16 4 -21 13 -21 39 0 24 -5 34
-15 34 -8 0 -15 7 -15 15 0 8 -9 15 -20 15 -13 0 -20 7 -20 20 0 11 -7 20 -15
20 -8 0 -15 7 -15 15 0 8 -9 15 -20 15 -13 0 -20 7 -20 20 0 11 -7 20 -15 20
-10 0 -15 10 -15 34 0 25 -5 35 -20 39 -11 3 -20 12 -20 21 0 9 -7 16 -15 16
-8 0 -15 7 -15 15 0 8 -9 15 -20 15 -13 0 -20 7 -20 20 0 11 -7 20 -15 20 -8
0 -15 7 -15 15 0 8 -9 15 -20 15 -16 0 -20 7 -20 35 0 24 -5 35 -15 35 -8 0
-15 9 -15 20 0 19 -7 20 -105 20 l-105 0 0 -590z"/>
<path d="M18920 1126 c0 -415 0 -424 20 -429 17 -4 20 -14 20 -56 0 -39 4 -51
15 -51 10 0 15 -11 15 -35 0 -28 4 -35 20 -35 11 0 20 -7 20 -15 0 -8 7 -15
15 -15 8 0 15 -9 15 -20 0 -14 7 -20 21 -20 14 0 19 -5 16 -14 -4 -11 4 -16
31 -18 25 -2 37 -8 37 -18 0 -11 14 -16 53 -18 44 -3 52 -6 52 -23 0 -18 8
-19 160 -19 153 0 160 1 160 20 0 17 7 20 51 20 42 0 52 3 56 20 4 15 14 20
39 20 26 0 32 4 28 15 -4 10 0 15 15 15 14 0 21 6 21 20 0 11 7 20 15 20 8 0
15 7 15 15 0 8 9 15 20 15 16 0 20 7 20 35 0 24 5 35 15 35 11 0 15 12 15 51
0 42 3 52 20 56 20 5 20 14 20 429 l0 424 -105 0 -105 0 0 -390 c0 -365 -1
-390 -17 -390 -15 0 -17 -8 -14 -51 3 -44 1 -51 -18 -56 -12 -3 -21 -12 -21
-19 0 -8 -7 -14 -15 -14 -8 0 -15 -9 -15 -20 0 -13 -7 -20 -20 -20 -11 0 -20
-7 -20 -15 0 -13 -24 -15 -160 -15 -130 0 -160 3 -160 14 0 7 -9 16 -20 19
-11 3 -20 12 -20 21 0 9 -7 16 -15 16 -8 0 -15 6 -15 14 0 7 -9 16 -21 19 -18
5 -20 12 -18 74 2 57 0 69 -14 71 -16 3 -17 35 -17 373 l0 369 -105 0 -105 0
0 -424z"/>
<path d="M20250 960 l0 -590 115 0 115 0 0 590 0 590 -115 0 -115 0 0 -590z"/>
</g>
</svg>
