<?xml version="1.0" standalone="no"?>
<!DOCTYPE svg PUBLIC "-//W3C//DTD SVG 20010904//EN"
 "http://www.w3.org/TR/2001/REC-SVG-20010904/DTD/svg10.dtd">
<svg version="1.0" xmlns="http://www.w3.org/2000/svg"
 width="802.000000pt" height="400.000000pt" viewBox="0 0 802.000000 400.000000"
 preserveAspectRatio="xMidYMid meet">
<metadata>
Created by potrace 1.16, written by Peter Selinger 2001-2019
</metadata>
<g transform="translate(0.000000,400.000000) scale(0.100000,-0.100000)"
fill="white" stroke="none">
<path d="M0 2000 l0 -2000 4010 0 4010 0 0 2000 0 2000 -4010 0 -4010 0 0
-2000z m6523 1933 c3 -5 -20 -7 -51 -5 -98 5 -110 9 -30 11 42 0 79 -2 81 -6z
m-185 -10 c-15 -2 -42 -2 -60 0 -18 2 -6 4 27 4 33 0 48 -2 33 -4z m364 -8
c47 -8 119 -26 159 -40 82 -27 70 -26 -71 10 -52 14 -131 29 -175 34 -51 5
-65 9 -39 10 23 0 80 -6 126 -14z m-547 -16 c-49 -10 -94 -18 -100 -18 -20 2
131 37 160 37 17 1 -10 -8 -60 -19z m550 -5 c125 -21 309 -84 435 -149 58 -30
96 -48 85 -39 -16 13 -131 71 -265 133 l-25 11 25 -6 c36 -9 207 -90 265 -126
62 -38 205 -177 205 -198 0 -15 -75 -100 -87 -100 -4 0 11 18 32 40 21 22 37
40 34 40 -3 0 -25 -21 -49 -46 -25 -26 -39 -44 -32 -40 21 12 13 -9 -12 -33
-31 -29 -46 -25 -161 49 -267 171 -493 238 -760 226 -71 -3 -159 -12 -195 -20
-110 -24 -127 -26 -80 -10 68 23 224 44 325 44 240 0 468 -74 712 -232 93 -60
142 -76 150 -48 4 12 3 12 -5 1 -14 -19 -44 -7 -150 61 -263 169 -500 238
-767 225 -319 -17 -594 -137 -816 -357 -92 -92 -92 -92 -10 -15 82 77 149 132
181 150 21 11 6 -2 -78 -70 -41 -32 -106 -93 -145 -134 -39 -42 -65 -68 -58
-58 19 24 8 21 -15 -5 -10 -12 -13 -18 -5 -13 9 5 12 3 9 -6 -3 -8 -10 -13
-16 -12 -5 1 -16 -5 -24 -15 -12 -15 -11 -16 5 -3 9 7 17 9 17 3 0 -13 -25
-33 -32 -26 -3 3 -9 0 -14 -7 -4 -8 -3 -10 4 -5 15 9 15 1 1 -25 -5 -11 -14
-17 -19 -14 -5 3 -12 0 -16 -6 -4 -8 -3 -9 4 -5 15 9 15 1 1 -25 -5 -11 -15
-16 -21 -13 -7 4 -8 3 -4 -4 4 -6 -4 -33 -17 -59 -32 -64 -74 -188 -98 -287
-13 -56 -17 -66 -13 -32 3 27 8 56 11 65 4 14 3 14 -5 1 -11 -16 -28 -118 -38
-220 -8 -93 31 -406 44 -347 2 11 19 -26 37 -81 19 -55 50 -133 70 -172 20
-39 33 -75 30 -81 -4 -5 -1 -8 6 -7 6 2 14 -3 17 -11 3 -9 0 -11 -8 -6 -9 5
-11 4 -6 -4 4 -6 11 -9 16 -6 4 3 15 -6 24 -20 23 -35 19 -45 -5 -15 l-21 25
14 -25 c9 -14 21 -25 28 -25 8 0 15 -6 18 -14 3 -8 0 -11 -7 -7 -17 11 -13 0
6 -15 15 -12 16 -12 8 1 -8 13 -7 13 8 1 18 -14 24 -36 7 -26 -18 11 -11 -1
12 -21 22 -19 22 -19 8 1 -8 10 30 -26 85 -81 99 -99 233 -198 344 -254 122
-61 320 -117 426 -122 l50 -1 -43 -4 c-114 -11 -365 71 -529 172 -24 14 -43
24 -43 21 0 -12 160 -98 235 -127 270 -105 523 -110 805 -19 89 30 234 99 317
152 37 24 87 55 110 67 l41 24 29 -20 c38 -27 53 -35 53 -30 0 2 -19 17 -41
32 l-42 27 -41 -23 c-22 -13 -72 -43 -109 -67 -118 -76 -371 -184 -427 -181
-8 0 19 11 60 24 142 44 255 96 370 169 36 23 84 53 106 65 l42 23 47 -32 c35
-24 53 -46 71 -87 23 -50 23 -56 9 -84 -9 -16 -20 -27 -25 -24 -6 3 -7 0 -4
-8 5 -14 -34 -50 -98 -92 -50 -32 -29 -9 27 30 30 20 55 39 55 42 0 5 1 5 -95
-58 -156 -103 -339 -179 -535 -220 -151 -32 -429 -32 -580 0 -186 40 -333 97
-483 187 -48 29 -84 48 -81 43 3 -5 41 -30 85 -56 93 -54 106 -69 18 -21 -114
63 -389 289 -389 320 0 6 6 5 15 -2 28 -24 15 -4 -17 26 -28 24 -30 25 -13 4
17 -21 15 -20 -13 4 -31 29 -47 61 -17 36 24 -20 18 -5 -7 16 -13 12 -18 13
-13 4 8 -13 7 -13 -8 -1 -19 15 -23 36 -5 25 7 -4 8 -3 4 5 -4 6 -11 9 -16 6
-11 -7 -42 43 -35 56 4 5 1 8 -6 7 -6 -2 -14 3 -17 11 -3 9 0 11 8 6 9 -5 11
-4 6 4 -4 6 -11 9 -16 6 -12 -7 -52 65 -46 82 3 8 1 11 -4 8 -12 -7 -60 95
-101 213 -29 83 -39 138 -14 72 19 -49 18 -29 -1 38 -9 30 -22 90 -29 131 -9
55 -14 66 -15 41 -2 -32 -3 -31 -12 15 -13 72 -13 307 1 400 16 106 43 209 51
195 5 -7 9 -4 13 9 3 12 1 19 -4 15 -14 -9 -11 10 17 88 36 99 112 250 124
243 5 -3 12 0 16 6 5 8 3 9 -6 4 -8 -5 -11 -3 -8 6 3 8 10 14 16 14 5 0 14 4
19 9 5 5 3 6 -4 2 -16 -9 -16 -1 -2 25 5 11 14 17 18 14 5 -2 15 3 22 13 13
15 12 16 -3 3 -10 -7 -18 -9 -18 -3 0 13 25 33 32 26 3 -3 9 0 14 7 4 8 3 10
-4 5 -18 -11 -14 10 5 25 11 10 14 10 9 2 -12 -20 -1 -15 20 9 15 19 16 20 2
9 -31 -24 -19 4 14 35 18 16 24 19 14 7 -29 -35 -14 -27 20 9 16 18 21 26 12
19 -10 -8 -18 -9 -18 -3 0 15 147 150 233 215 102 77 253 159 379 207 59 22
113 40 120 40 7 -1 -29 -16 -81 -35 -101 -37 -241 -100 -241 -110 0 -3 23 6
52 21 146 74 359 136 524 153 112 12 301 5 419 -15z m-5239 -17 c16 -17 57
-100 91 -182 171 -414 418 -1009 448 -1080 123 -294 376 -906 381 -921 3 -11
-1 -9 -10 6 -8 14 -15 19 -16 13 0 -7 9 -22 21 -34 21 -21 33 -46 104 -219 23
-58 72 -176 109 -263 36 -87 66 -169 66 -181 0 -12 -14 -35 -31 -52 -28 -27
-37 -29 -115 -33 -128 -5 -126 -7 -233 253 -61 149 -70 174 -50 146 8 -11 9
-9 3 10 -10 36 -26 62 -19 30 6 -29 -49 85 -59 121 l-7 24 15 -25 c9 -14 15
-19 16 -12 0 6 -9 21 -21 33 -26 26 -59 103 -56 132 l2 22 -739 3 c-407 1
-743 -1 -747 -5 -5 -5 327 -7 736 -5 410 1 745 -1 745 -5 0 -5 -332 -8 -737
-8 l-737 0 -130 -323 c-129 -317 -132 -324 -176 -357 -41 -32 -50 -34 -110
-33 l-65 2 64 3 c53 3 72 10 105 34 22 16 37 29 32 29 -4 0 -23 -12 -42 -26
-32 -25 -40 -26 -109 -22 -110 7 -131 33 -100 123 6 17 5 17 -5 5 -20 -26 -2
24 78 215 41 99 84 205 97 235 78 192 459 1098 466 1110 7 11 8 8 4 -10 -3
-15 3 -9 14 15 23 48 26 70 5 35 -24 -39 -13 -10 106 276 214 515 253 604 260
599 4 -2 12 8 19 23 11 25 10 26 -4 8 -21 -28 -19 -12 9 53 14 31 41 94 60
140 52 123 62 131 157 131 74 0 78 -1 105 -33z m1968 16 c-577 -3 -623 -4
-635 -21 -13 -15 -12 -16 3 -4 13 11 142 13 680 9 l663 -4 80 -25 c44 -14 110
-42 148 -63 37 -20 67 -35 67 -32 0 3 -30 22 -67 42 -77 43 -171 73 -258 85
-57 7 -58 7 -15 8 90 3 277 -71 378 -148 41 -32 162 -153 162 -163 0 -4 -6 -5
-12 -1 -8 4 -10 3 -5 -2 5 -5 14 -9 20 -9 5 0 12 -6 15 -14 3 -9 0 -11 -9 -6
-8 5 -11 4 -6 -1 5 -5 14 -9 20 -9 5 0 12 -6 15 -14 3 -9 0 -11 -9 -6 -8 5
-11 4 -6 -1 5 -5 14 -9 20 -9 27 0 107 -234 106 -310 -1 -16 -7 3 -14 44 -17
92 -25 124 -30 120 -2 -3 3 -36 12 -74 19 -87 19 -271 0 -342 -8 -29 -10 -50
-6 -47 9 5 27 88 32 149 l4 40 1 -45 c1 -25 -5 -73 -13 -105 -20 -76 -82 -208
-94 -201 -5 4 -13 1 -17 -5 -4 -8 -3 -9 4 -5 17 10 15 -6 -4 -32 -8 -12 -19
-20 -24 -17 -4 3 -14 -3 -21 -13 -13 -15 -12 -16 4 -3 9 7 17 10 17 5 0 -10
-131 -144 -141 -144 -4 0 19 26 50 58 52 52 52 53 6 11 -27 -25 -62 -55 -77
-66 l-28 -21 30 -12 c17 -7 56 -30 88 -52 31 -22 48 -31 37 -20 -11 12 -46 36
-78 56 -32 19 -54 37 -48 40 5 3 11 3 13 -1 1 -5 30 -26 63 -47 61 -40 195
-162 195 -178 0 -5 -6 -6 -12 -2 -9 5 -9 2 1 -9 16 -20 25 -23 15 -4 -4 6 2 3
14 -7 26 -23 30 -45 5 -25 -16 13 -17 12 -4 -3 7 -10 17 -15 22 -13 19 12 131
-233 128 -282 0 -10 -5 -2 -10 17 -14 51 -41 121 -45 117 -2 -2 5 -28 15 -58
32 -90 44 -184 38 -298 -3 -58 -10 -119 -17 -136 -7 -20 -8 -26 0 -19 6 6 14
30 19 55 7 34 9 37 9 14 0 -16 -8 -52 -19 -80 -11 -27 -17 -40 -15 -27 2 12 0
20 -5 16 -5 -3 -9 -13 -9 -22 0 -9 -11 -41 -25 -69 -13 -29 -22 -53 -19 -53 3
0 16 24 29 53 14 28 25 46 25 39 0 -22 -80 -173 -90 -167 -5 3 -12 0 -16 -6
-4 -8 -3 -9 4 -5 18 11 14 -10 -5 -25 -11 -10 -14 -10 -9 -1 11 18 1 15 -15
-5 -10 -11 -10 -14 -1 -9 18 11 15 -9 -5 -25 -11 -10 -14 -10 -9 -1 12 19 1
14 -20 -10 -15 -19 -16 -20 -1 -9 38 29 14 -8 -35 -55 -116 -111 -241 -183
-383 -219 -64 -17 -134 -19 -774 -22 l-704 -4 -44 43 -43 42 0 1394 c0 954 3
1399 11 1413 5 11 14 17 19 14 5 -3 12 0 16 6 4 8 3 9 -4 5 -19 -12 -14 6 10
31 l21 23 621 -2 621 -3 -621 -2z m2556 -319 c-108 -44 -120 -48 -95 -33 30
19 148 68 165 68 8 0 -23 -16 -70 -35z m1718 -4 c-69 -8 -118 -31 -154 -71
-10 -12 2 -6 28 14 83 63 192 63 276 0 35 -27 41 -29 23 -10 -13 15 -42 35
-65 47 -23 11 -34 20 -25 20 45 0 160 -120 158 -164 -1 -15 -3 -12 -10 10 -5
17 -16 38 -26 45 -15 13 -15 12 1 -12 22 -34 31 -115 18 -162 -6 -21 -6 -35
-1 -32 5 4 10 16 10 28 1 16 3 17 6 5 5 -21 -15 -61 -27 -53 -5 3 -12 0 -16
-6 -4 -8 -3 -9 4 -5 24 15 11 -11 -20 -41 -63 -58 -76 -63 -168 -63 -76 1 -89
4 -125 28 -54 38 -105 107 -104 140 2 27 2 27 6 2 2 -14 13 -36 25 -50 l20
-25 -17 29 c-25 41 -25 164 0 203 16 25 16 26 0 12 -9 -9 -21 -32 -25 -50 -7
-30 -8 -31 -9 -8 -2 49 90 149 156 169 15 4 51 8 78 8 46 -1 45 -1 -17 -8z
m-1843 -48 c-17 -15 -105 -63 -105 -58 0 3 24 19 53 36 52 30 69 37 52 22z
m2092 -194 c-2 -13 -4 -5 -4 17 -1 22 1 32 4 23 2 -10 2 -28 0 -40z m-470 5
c-3 -10 -5 -4 -5 12 0 17 2 24 5 18 2 -7 2 -21 0 -30z m-2690 -230 c-3 -10 -5
-2 -5 17 0 19 2 27 5 18 2 -10 2 -26 0 -35z m2941 0 c-10 -2 -26 -2 -35 0 -10
3 -2 5 17 5 19 0 27 -2 18 -5z m-2541 -600 c-2 -16 -4 -3 -4 27 0 30 2 43 4
28 2 -16 2 -40 0 -55z m-10 -105 c-2 -13 -4 -3 -4 22 0 25 2 35 4 23 2 -13 2
-33 0 -45z m26 -198 c6 -38 5 -40 -3 -15 -6 17 -12 64 -15 105 -4 72 -4 73 4
15 4 -33 11 -80 14 -105z m-245 -155 c-1 -24 -26 73 -26 100 0 19 5 7 13 -30
8 -33 14 -64 13 -70z m-41 -157 c-3 -7 -5 -2 -5 12 0 14 2 19 5 13 2 -7 2 -19
0 -25z m10 -170 c-2 -29 -3 -8 -3 47 0 55 1 79 3 53 2 -26 2 -71 0 -100z
m1718 -539 c-16 -5 -68 -11 -115 -13 l-85 -5 80 9 c44 5 87 11 95 14 31 8 54
4 25 -5z m-217 -26 c-10 -2 -26 -2 -35 0 -10 3 -2 5 17 5 19 0 27 -2 18 -5z
m787 -39 c-39 -30 -211 -112 -300 -142 -171 -59 -279 -75 -485 -76 -153 0
-202 4 -286 22 -110 24 -238 61 -232 67 2 2 32 -5 67 -15 159 -50 258 -64 451
-64 153 1 203 4 290 23 150 32 273 76 397 142 116 61 129 67 98 43z m-7152
-84 c-4 -24 0 -37 17 -55 13 -14 31 -25 39 -26 12 0 12 -2 3 -6 -17 -7 -72 45
-72 68 0 19 10 49 16 49 2 0 1 -14 -3 -30z m5787 -14 c30 -15 44 -24 32 -20
-29 7 -132 54 -132 59 0 6 31 -7 100 -39z m-4707 -560 c18 -7 43 -26 57 -41
14 -16 19 -25 13 -21 -11 6 -18 -9 -15 -35 1 -4 -9 -16 -22 -28 l-23 -21 -40
22 c-37 20 -46 21 -83 11 -31 -8 -39 -8 -30 1 19 19 105 14 129 -8 22 -20 22
-20 44 4 l22 24 -22 -18 c-22 -19 -23 -19 -44 0 -32 29 -112 26 -141 -5 -13
-13 -18 -21 -12 -18 7 4 9 -11 6 -47 -4 -48 -2 -55 23 -74 30 -24 64 -28 98
-11 21 10 21 10 3 -5 -27 -22 -64 -20 -103 4 -18 11 -33 17 -33 15 0 -11 67
-45 89 -45 13 0 39 9 57 21 33 20 34 20 58 2 14 -10 26 -26 26 -36 0 -12 4
-16 13 -11 6 4 3 -3 -8 -15 -51 -58 -168 -80 -238 -45 -41 21 -85 62 -103 96
-15 29 -19 52 -5 30 4 -7 6 11 3 42 -2 30 1 70 7 88 9 25 9 30 0 21 -7 -7 -15
-40 -19 -75 -7 -62 -7 -62 -9 -15 0 27 6 64 14 81 19 39 68 89 110 110 37 20
135 21 178 2z m572 5 c11 -5 -11 -6 -52 -3 -39 2 -85 0 -102 -6 -35 -13 -42
-6 -8 8 27 11 135 11 162 1z m1897 -28 c24 -17 43 -38 43 -46 0 -9 4 -19 9
-24 5 -5 6 -2 1 7 -8 13 -7 13 8 1 16 -13 25 -37 10 -28 -5 3 -6 -22 -5 -55 5
-75 -1 -99 -34 -138 -74 -88 -210 -95 -305 -16 -14 11 -7 3 15 -18 23 -21 32
-34 20 -28 -30 16 -93 88 -99 115 -4 13 -4 48 -2 78 l3 54 2 -66 c1 -42 8 -72
18 -85 14 -18 15 -18 3 5 -6 14 -9 52 -7 92 3 62 7 72 38 105 45 47 86 64 154
64 63 0 100 -12 136 -43 l25 -22 -24 27 c-32 37 -80 51 -156 46 -70 -4 -112
-27 -157 -86 -16 -19 -28 -31 -28 -25 0 17 79 94 113 109 21 9 57 13 104 11
62 -2 77 -6 115 -34z m2732 23 c19 -8 36 -18 40 -24 3 -5 -11 -1 -31 9 -44 22
-129 25 -176 6 -34 -15 -107 -89 -107 -110 0 -6 8 2 19 18 24 40 60 71 94 84
46 18 128 13 171 -9 22 -10 43 -17 47 -14 5 3 22 -16 39 -42 53 -84 39 -185
-35 -254 -21 -19 -34 -29 -30 -21 5 9 3 12 -6 9 -8 -3 -13 -9 -12 -14 1 -5
-32 -10 -72 -12 -98 -4 -162 28 -203 103 -7 13 -12 15 -12 6 0 -8 23 -37 51
-64 28 -26 42 -44 32 -39 -29 17 -81 75 -92 105 -19 51 -13 126 13 172 22 38
78 85 116 98 30 11 122 7 154 -7z m-4071 -3 c-29 -2 -77 -2 -105 0 -29 2 -6 3
52 3 58 0 81 -1 53 -3z m664 -1 c6 -4 -28 -6 -75 -4 -132 4 -148 9 -37 10 55
1 105 -2 112 -6z m1256 -6 c42 -17 97 -80 96 -109 -1 -18 -2 -17 -9 7 -10 31
-43 71 -75 89 -11 7 -69 14 -130 18 l-110 6 98 1 c63 1 109 -3 130 -12z m540
7 c-13 -2 -33 -2 -45 0 -13 2 -3 4 22 4 25 0 35 -2 23 -4z m615 0 c-42 -2
-114 -2 -160 0 -46 1 -11 3 77 3 88 0 125 -2 83 -3z m415 0 c-13 -2 -35 -2
-50 0 -16 2 -5 4 22 4 28 0 40 -2 28 -4z m1091 -47 c44 -52 57 -74 36 -61 -18
11 -11 -1 12 -21 22 -19 23 -19 8 1 -11 15 -8 15 12 -4 l27 -24 4 69 3 69 2
-84 c2 -84 2 -84 -18 -66 -30 27 -24 13 6 -16 14 -13 25 -19 24 -14 -1 6 -2
49 -1 98 l1 87 45 0 45 0 0 -180 0 -180 -37 0 c-33 0 -44 7 -82 47 l-43 48 41
-52 c37 -45 47 -52 84 -56 l42 -4 -41 -1 c-44 -2 -41 -5 -118 84 -38 44 -47
65 -18 43 9 -7 6 -1 -7 14 -14 15 -28 24 -32 20 -5 -5 -10 -39 -12 -78 -3 -69
-3 -69 -5 18 -2 68 1 86 11 81 8 -5 8 -2 -2 9 -14 18 -22 22 -20 10 1 -5 1
-47 0 -95 l-1 -88 -45 0 -45 0 0 180 0 180 38 0 c21 0 44 -6 52 -12 12 -11 12
-10 1 4 -7 10 -30 19 -54 21 l-42 4 41 1 c39 2 45 -2 88 -52z m179 47 c-13 -2
-33 -2 -45 0 -13 2 -3 4 22 4 25 0 35 -2 23 -4z m-5305 -18 c20 -9 46 -24 57
-33 12 -9 5 -2 -14 17 -21 19 -27 29 -15 23 12 -6 35 -27 53 -47 33 -38 41
-56 16 -35 -14 11 -14 9 0 -16 19 -37 19 -117 0 -154 -20 -38 -11 -40 9 -2 8
15 15 22 16 16 0 -21 -46 -79 -87 -108 -63 -44 -180 -49 -229 -10 -18 15 -18
15 3 5 33 -17 42 -12 10 5 -15 8 -31 13 -36 10 -9 -6 -53 39 -70 71 -13 25
-15 44 -2 25 4 -7 6 11 3 42 -2 30 1 70 7 88 9 25 9 30 0 21 -7 -7 -15 -40
-19 -75 -7 -59 -7 -60 -9 -16 0 26 3 58 9 72 13 36 79 106 94 100 7 -3 23 0
37 5 37 15 126 13 167 -4z m649 -9 c4 -5 0 -6 -7 -1 -8 5 -11 4 -6 -3 4 -6 13
-9 20 -6 17 7 54 -44 62 -84 8 -38 -10 -94 -38 -118 -19 -17 -19 -15 3 14 30
42 34 122 6 149 -17 17 -18 17 -3 -12 9 -16 16 -40 16 -53 0 -35 -25 -87 -51
-107 -15 -11 -18 -15 -6 -12 11 4 17 1 17 -9 0 -9 -5 -12 -12 -8 -7 4 -8 3 -4
-5 4 -6 11 -9 16 -6 5 3 21 -12 35 -34 27 -44 34 -66 10 -35 -14 17 -15 18 -9
0 6 -16 2 -18 -49 -15 -30 2 -53 1 -50 -4 2 -4 28 -8 56 -9 l52 -2 -49 -3
c-35 -3 -53 0 -67 13 -21 19 -26 39 -6 28 7 -4 9 -3 4 2 -5 5 -14 9 -20 9 -5
0 -12 6 -15 14 -3 9 0 11 9 6 8 -5 5 1 -5 13 -13 15 -29 21 -50 21 l-31 -2 30
-4 c17 -3 34 -8 38 -13 5 -4 -3 -5 -17 -3 -24 5 -26 3 -27 -33 l-2 -39 -7 40
-7 40 -2 -37 -1 -38 -45 0 -45 0 0 181 0 181 126 -4 c69 -1 128 -7 131 -12z
m589 -11 l49 -24 -30 25 c-20 17 -23 22 -8 15 31 -15 63 -60 62 -85 -1 -20 -2
-20 -6 -1 -11 44 -18 30 -18 -35 0 -65 7 -79 18 -35 4 17 5 17 6 -4 2 -52
-100 -121 -181 -121 -25 0 -28 -4 -29 -37 l-2 -38 -7 40 -7 40 -2 -37 -1 -38
-45 0 -45 0 0 180 0 180 98 0 c85 0 106 -3 148 -25z m1228 11 c49 -20 76 -60
76 -113 0 -24 -5 -53 -10 -64 -6 -10 -8 -19 -5 -19 3 0 12 15 20 33 8 17 14
26 15 19 0 -20 -25 -65 -49 -86 -12 -11 -21 -16 -21 -11 0 4 8 14 18 22 15 13
15 13 -6 3 -24 -12 -25 -35 -2 -35 7 0 15 -6 18 -14 3 -9 0 -11 -8 -6 -9 5
-11 4 -6 -4 4 -6 11 -9 15 -7 4 3 18 -8 29 -24 29 -38 28 -47 0 -18 -13 13
-17 17 -10 8 20 -27 15 -30 -53 -30 -39 0 -65 4 -65 11 0 5 6 7 13 3 7 -4 9
-3 4 2 -5 5 -14 9 -20 9 -5 0 -12 6 -15 14 -3 9 0 11 8 6 9 -5 11 -4 6 4 -4 6
-11 9 -16 6 -5 -3 -11 -1 -15 5 -3 5 -15 10 -26 10 -15 0 -19 -8 -20 -37 l-2
-38 -7 40 -7 40 -2 -37 -1 -38 -45 0 -45 0 0 180 0 180 100 0 c63 0 113 -5
134 -14z m584 2 c13 -17 152 -330 152 -343 0 -5 -11 13 -24 40 -14 28 -25 46
-25 40 0 -5 6 -21 14 -35 24 -42 19 -50 -33 -50 -41 0 -51 4 -61 23 -11 22
-11 22 -6 -3 4 -24 4 -23 -7 3 -11 26 -15 27 -78 27 -63 0 -67 -1 -78 -28 -11
-25 -11 -26 -7 -2 l5 25 -12 -23 c-10 -20 -18 -23 -69 -21 l-57 2 10 29 c5 15
13 26 17 23 4 -2 15 12 24 31 23 48 21 57 -4 14 -26 -46 -19 -22 21 67 18 40
36 71 40 68 7 -4 50 78 50 98 0 6 -11 -10 -24 -38 -30 -61 -34 -55 -5 9 11 26
24 44 29 41 5 -3 11 -1 15 5 9 14 101 12 113 -2z m642 -28 l0 -40 -57 -2 -58
-1 60 -7 c60 -7 60 -7 13 -8 l-48 -2 -2 -132 -2 -133 -6 135 -6 135 -2 -132
-2 -133 -45 0 -45 0 -2 133 -2 132 -6 -135 -6 -135 -2 133 -2 132 -47 2 c-48
1 -48 1 12 8 l60 7 -57 1 -58 2 0 40 0 40 155 0 155 0 0 -40z m257 -232 c-1
-51 -3 -10 -3 92 0 102 2 143 3 93 2 -51 2 -135 0 -185z m103 92 l0 -180 -45
0 -45 0 0 180 0 180 45 0 45 0 0 -180z m937 -92 c-1 -51 -3 -10 -3 92 0 102 2
143 3 93 2 -51 2 -135 0 -185z m-4010 0 c-1 -51 -3 -12 -3 87 0 99 2 141 3 93
2 -48 2 -129 0 -180z m1240 0 c-1 -51 -3 -12 -3 87 0 99 2 141 3 93 2 -48 2
-129 0 -180z m1150 210 c-2 -13 -4 -5 -4 17 -1 22 1 32 4 23 2 -10 2 -28 0
-40z m340 0 c-2 -13 -4 -5 -4 17 -1 22 1 32 4 23 2 -10 2 -28 0 -40z m360
-210 c-1 -51 -3 -12 -3 87 0 99 2 141 3 93 2 -48 2 -129 0 -180z m1280 0 c-1
-51 -3 -12 -3 87 0 99 2 141 3 93 2 -48 2 -129 0 -180z m-5218 97 c-1 -60 -6
-50 -12 23 -2 32 -1 48 4 40 5 -7 8 -35 8 -63z m1836 -62 c-8 -33 -72 -101
-116 -124 -39 -19 -142 -26 -166 -11 -7 4 19 6 56 4 74 -4 113 9 164 57 43 39
57 73 59 143 l2 63 3 -54 c2 -30 2 -65 -2 -78z m-2518 -3 c14 -11 21 -20 16
-20 -6 0 -16 7 -23 15 -7 9 -19 14 -27 11 -8 -3 -11 -1 -8 4 9 14 13 13 42
-10z m5150 -132 c-15 -10 -119 -10 -134 0 -6 4 24 7 67 7 43 0 73 -3 67 -7z
m-4144 -5 c-13 -2 -33 -2 -45 0 -13 2 -3 4 22 4 25 0 35 -2 23 -4z m610 0
c-13 -2 -35 -2 -50 0 -16 2 -5 4 22 4 28 0 40 -2 28 -4z m1240 0 c-13 -2 -35
-2 -50 0 -16 2 -5 4 22 4 28 0 40 -2 28 -4z m215 0 c-16 -2 -40 -2 -55 0 -16
2 -3 4 27 4 30 0 43 -2 28 -4z m345 0 c-13 -2 -35 -2 -50 0 -16 2 -5 4 22 4
28 0 40 -2 28 -4z m295 0 c-16 -2 -40 -2 -55 0 -16 2 -3 4 27 4 30 0 43 -2 28
-4z m405 0 c-13 -2 -35 -2 -50 0 -16 2 -5 4 22 4 28 0 40 -2 28 -4z m470 0
c-13 -2 -35 -2 -50 0 -16 2 -5 4 22 4 28 0 40 -2 28 -4z m1040 0 c-13 -2 -35
-2 -50 0 -16 2 -5 4 22 4 28 0 40 -2 28 -4z"/>
<path d="M5650 3703 c-66 -39 -180 -126 -215 -164 -16 -18 -2 -9 31 20 52 45
110 87 221 158 35 23 8 13 -37 -14z"/>
<path d="M7329 3614 c45 -42 81 -84 82 -93 0 -12 2 -12 6 -2 5 13 -114 143
-150 162 -10 6 18 -24 62 -67z"/>
<path d="M5364 3478 l-19 -23 23 19 c21 18 27 26 19 26 -2 0 -12 -10 -23 -22z"/>
<path d="M5090 3099 c-7 -11 -10 -23 -7 -25 2 -2 9 7 15 21 14 30 7 33 -8 4z"/>
<path d="M5036 2985 c-9 -26 -7 -32 5 -12 6 10 9 21 6 23 -2 3 -7 -2 -11 -11z"/>
<path d="M5310 2980 c-6 -11 -8 -20 -6 -20 3 0 10 9 16 20 6 11 8 20 6 20 -3
0 -10 -9 -16 -20z"/>
<path d="M4997 2881 c-4 -17 -3 -21 5 -13 5 5 8 16 6 23 -3 8 -7 3 -11 -10z"/>
<path d="M5266 2885 c-9 -26 -7 -32 5 -12 6 10 9 21 6 23 -2 3 -7 -2 -11 -11z"/>
<path d="M5233 2795 c-3 -9 -3 -18 -1 -21 3 -3 8 4 11 16 6 23 -1 27 -10 5z"/>
<path d="M4966 2769 c-8 -42 0 -50 9 -9 4 17 5 34 2 36 -2 3 -7 -10 -11 -27z"/>
<path d="M5217 2741 c-4 -17 -3 -21 5 -13 5 5 8 16 6 23 -3 8 -7 3 -11 -10z"/>
<path d="M4941 2625 c-7 -55 -11 -120 -9 -145 4 -39 5 -37 6 18 1 35 7 94 13
133 6 38 9 75 6 82 -2 6 -10 -33 -16 -88z"/>
<path d="M4927 2350 c6 -110 11 -125 12 -30 0 41 -4 84 -8 95 -4 11 -6 -18 -4
-65z"/>
<path d="M5220 2096 c0 -8 4 -17 9 -20 5 -4 7 3 4 14 -6 23 -13 26 -13 6z"/>
<path d="M5251 2002 c6 -18 15 -35 20 -38 5 -3 4 7 -3 23 -17 41 -30 53 -17
15z"/>
<path d="M5041 1845 c0 -5 6 -21 14 -35 8 -14 14 -20 14 -15 0 6 -6 21 -14 35
-8 14 -14 21 -14 15z"/>
<path d="M5130 1660 c6 -11 13 -20 16 -20 2 0 0 9 -6 20 -6 11 -13 20 -16 20
-2 0 0 -9 6 -20z"/>
<path d="M5580 1510 c77 -75 180 -159 180 -147 0 3 -26 24 -57 48 -32 23 -92
75 -134 113 -64 60 -63 58 11 -14z"/>
<path d="M5350 1367 c0 -7 167 -151 200 -173 33 -23 15 -3 -36 38 -23 18 -69
57 -103 86 -34 30 -61 52 -61 49z"/>
<path d="M7386 1335 c4 -11 7 -28 8 -37 0 -10 4 -14 9 -9 5 5 2 21 -8 37 -9
16 -13 20 -9 9z"/>
<path d="M1269 3883 c-11 -15 -11 -16 1 -5 9 7 43 12 90 12 47 0 81 -5 90 -12
12 -11 12 -10 1 5 -11 14 -29 17 -91 17 -62 0 -80 -3 -91 -17z"/>
<path d="M1476 3835 c24 -39 24 -40 24 -28 0 6 -9 21 -21 34 l-20 24 17 -30z"/>
<path d="M1500 3785 c0 -5 5 -17 10 -25 5 -8 10 -10 10 -5 0 6 -5 17 -10 25
-5 8 -10 11 -10 5z"/>
<path d="M1206 3765 c-9 -26 -7 -32 5 -12 6 10 9 21 6 23 -2 3 -7 -2 -11 -11z"/>
<path d="M1186 3715 c-9 -26 -7 -32 5 -12 6 10 9 21 6 23 -2 3 -7 -2 -11 -11z"/>
<path d="M1530 3715 c0 -5 5 -17 10 -25 5 -8 10 -10 10 -5 0 6 -5 17 -10 25
-5 8 -10 11 -10 5z"/>
<path d="M1162 3655 c-7 -14 -12 -31 -12 -38 1 -7 7 3 16 22 17 39 13 54 -4
16z"/>
<path d="M1550 3665 c0 -5 5 -17 10 -25 5 -8 10 -10 10 -5 0 6 -5 17 -10 25
-5 8 -10 11 -10 5z"/>
<path d="M1106 3525 c-9 -26 -7 -32 5 -12 6 10 9 21 6 23 -2 3 -7 -2 -11 -11z"/>
<path d="M1622 3490 c11 -28 23 -49 25 -47 4 5 -34 97 -41 97 -3 0 5 -23 16
-50z"/>
<path d="M1086 3475 c-9 -26 -7 -32 5 -12 6 10 9 21 6 23 -2 3 -7 -2 -11 -11z"/>
<path d="M1337 3416 c-4 -10 -3 -15 3 -11 6 3 10 3 10 0 0 -6 -136 -341 -230
-565 -105 -252 -353 -856 -357 -872 -5 -17 28 -18 596 -18 356 0 601 4 601 9
0 5 -72 186 -161 403 -184 448 -329 806 -337 828 -3 9 2 7 12 -5 17 -20 17
-20 6 3 -6 12 -15 22 -19 22 -5 0 -28 47 -51 105 -23 58 -46 103 -50 100 -5
-3 -10 0 -12 7 -3 7 -7 5 -11 -6z"/>
<path d="M1318 3375 c-3 -11 -9 -29 -13 -40 -3 -11 1 -7 10 8 9 16 15 33 12
40 -2 6 -6 3 -9 -8z"/>
<path d="M1401 3370 c0 -8 4 -22 9 -30 12 -18 12 -2 0 25 -6 13 -9 15 -9 5z"/>
<path d="M1019 3314 c-11 -26 -18 -49 -16 -51 2 -2 14 19 25 47 11 27 19 50
16 50 -3 0 -14 -21 -25 -46z"/>
<path d="M1680 3355 c0 -5 5 -17 10 -25 5 -8 10 -10 10 -5 0 6 -5 17 -10 25
-5 8 -10 11 -10 5z"/>
<path d="M1420 3314 c0 -6 7 -19 16 -30 14 -18 14 -18 3 6 -14 31 -19 36 -19
24z"/>
<path d="M1700 3305 c0 -5 5 -17 10 -25 5 -8 10 -10 10 -5 0 6 -5 17 -10 25
-5 8 -10 11 -10 5z"/>
<path d="M1266 3245 c-9 -26 -7 -32 5 -12 6 10 9 21 6 23 -2 3 -7 -2 -11 -11z"/>
<path d="M1242 3185 c-17 -37 -14 -45 4 -12 9 16 14 31 11 33 -2 2 -9 -7 -15
-21z"/>
<path d="M1770 3139 c0 -4 7 -22 15 -40 8 -19 14 -27 14 -19 0 14 -28 72 -29
59z"/>
<path d="M932 3105 c-17 -37 -14 -45 4 -12 9 16 14 31 11 33 -2 2 -9 -7 -15
-21z"/>
<path d="M1510 3104 c0 -15 42 -116 46 -111 2 2 -7 30 -21 63 -13 32 -24 54
-25 48z"/>
<path d="M1196 3075 c-9 -26 -7 -32 5 -12 6 10 9 21 6 23 -2 3 -7 -2 -11 -11z"/>
<path d="M1176 3025 c-9 -26 -7 -32 5 -12 6 10 9 21 6 23 -2 3 -7 -2 -11 -11z"/>
<path d="M1820 3015 c0 -5 5 -17 10 -25 5 -8 10 -10 10 -5 0 6 -5 17 -10 25
-5 8 -10 11 -10 5z"/>
<path d="M1840 2969 c0 -4 7 -22 15 -40 8 -19 14 -27 14 -19 0 14 -28 72 -29
59z"/>
<path d="M1580 2925 c0 -5 5 -17 10 -25 5 -8 10 -10 10 -5 0 6 -5 17 -10 25
-5 8 -10 11 -10 5z"/>
<path d="M1126 2905 c-9 -26 -7 -32 5 -12 6 10 9 21 6 23 -2 3 -7 -2 -11 -11z"/>
<path d="M832 2865 c-17 -37 -14 -45 4 -12 9 16 14 31 11 33 -2 2 -9 -7 -15
-21z"/>
<path d="M1600 2875 c0 -5 5 -17 10 -25 5 -8 10 -10 10 -5 0 6 -5 17 -10 25
-5 8 -10 11 -10 5z"/>
<path d="M1106 2855 c-9 -26 -7 -32 5 -12 6 10 9 21 6 23 -2 3 -7 -2 -11 -11z"/>
<path d="M1912 2790 c11 -28 23 -49 25 -47 4 5 -34 97 -41 97 -3 0 5 -23 16
-50z"/>
<path d="M806 2805 c-9 -26 -7 -32 5 -12 6 10 9 21 6 23 -2 3 -7 -2 -11 -11z"/>
<path d="M1631 2808 c-1 -12 31 -89 35 -85 3 2 -4 24 -15 48 -11 24 -20 41
-20 37z"/>
<path d="M1056 2735 c-9 -26 -7 -32 5 -12 6 10 9 21 6 23 -2 3 -7 -2 -11 -11z"/>
<path d="M1940 2725 c0 -5 5 -17 10 -25 5 -8 10 -10 10 -5 0 6 -5 17 -10 25
-5 8 -10 11 -10 5z"/>
<path d="M1031 2673 c-10 -26 -10 -27 4 -9 8 11 15 23 15 28 0 15 -7 8 -19
-19z"/>
<path d="M1690 2655 c0 -5 5 -17 10 -25 5 -8 10 -10 10 -5 0 6 -5 17 -10 25
-5 8 -10 11 -10 5z"/>
<path d="M1970 2655 c0 -5 5 -17 10 -25 5 -8 10 -10 10 -5 0 6 -5 17 -10 25
-5 8 -10 11 -10 5z"/>
<path d="M1990 2604 c0 -6 7 -19 16 -30 14 -18 14 -18 3 6 -14 31 -19 36 -19
24z"/>
<path d="M706 2565 c-9 -26 -7 -32 5 -12 6 10 9 21 6 23 -2 3 -7 -2 -11 -11z"/>
<path d="M982 2555 c-17 -37 -14 -45 4 -12 9 16 14 31 11 33 -2 2 -9 -7 -15
-21z"/>
<path d="M682 2505 c-17 -37 -14 -45 4 -12 9 16 14 31 11 33 -2 2 -9 -7 -15
-21z"/>
<path d="M1751 2509 c-1 -8 6 -24 15 -35 15 -19 15 -19 6 1 -5 11 -12 27 -15
35 -5 13 -6 13 -6 -1z"/>
<path d="M936 2445 c-9 -26 -7 -32 5 -12 6 10 9 21 6 23 -2 3 -7 -2 -11 -11z"/>
<path d="M2061 2435 c0 -5 6 -21 14 -35 8 -14 14 -20 14 -15 0 6 -6 21 -14 35
-8 14 -14 21 -14 15z"/>
<path d="M632 2385 c-17 -37 -14 -45 4 -12 9 16 14 31 11 33 -2 2 -9 -7 -15
-21z"/>
<path d="M1800 2385 c0 -5 5 -17 10 -25 5 -8 10 -10 10 -5 0 6 -5 17 -10 25
-5 8 -10 11 -10 5z"/>
<path d="M1820 2334 c0 -6 7 -19 16 -30 14 -18 14 -18 3 6 -14 31 -19 36 -19
24z"/>
<path d="M596 2305 c-9 -26 -7 -32 5 -12 6 10 9 21 6 23 -2 3 -7 -2 -11 -11z"/>
<path d="M2110 2315 c0 -5 5 -17 10 -25 5 -8 10 -10 10 -5 0 6 -5 17 -10 25
-5 8 -10 11 -10 5z"/>
<path d="M870 2279 c-7 -11 -10 -23 -7 -25 2 -2 9 7 15 21 14 30 7 33 -8 4z"/>
<path d="M576 2255 c-9 -26 -7 -32 5 -12 6 10 9 21 6 23 -2 3 -7 -2 -11 -11z"/>
<path d="M2140 2245 c0 -5 5 -17 10 -25 5 -8 10 -10 10 -5 0 6 -5 17 -10 25
-5 8 -10 11 -10 5z"/>
<path d="M1871 2210 c14 -31 19 -36 19 -24 0 6 -7 19 -16 30 -14 18 -14 18 -3
-6z"/>
<path d="M2160 2195 c0 -5 5 -17 10 -25 5 -8 10 -10 10 -5 0 6 -5 17 -10 25
-5 8 -10 11 -10 5z"/>
<path d="M532 2145 c-17 -37 -14 -45 4 -12 9 16 14 31 11 33 -2 2 -9 -7 -15
-21z"/>
<path d="M800 2109 c-7 -11 -10 -23 -7 -25 2 -2 9 7 15 21 14 30 7 33 -8 4z"/>
<path d="M1914 2110 c9 -32 39 -101 43 -97 2 3 -8 29 -22 58 -14 30 -23 47
-21 39z"/>
<path d="M506 2085 c-9 -26 -7 -32 5 -12 6 10 9 21 6 23 -2 3 -7 -2 -11 -11z"/>
<path d="M2211 2075 c0 -5 6 -21 14 -35 8 -14 14 -20 14 -15 0 6 -6 21 -14 35
-8 14 -14 21 -14 15z"/>
<path d="M1960 1995 c0 -5 5 -17 10 -25 5 -8 10 -10 10 -5 0 6 -5 17 -10 25
-5 8 -10 11 -10 5z"/>
<path d="M450 1949 c-7 -11 -10 -23 -7 -25 2 -2 9 7 15 21 14 30 7 33 -8 4z"/>
<path d="M1042 1933 c175 -2 461 -2 635 0 175 1 32 2 -317 2 -349 0 -492 -1
-318 -2z"/>
<path d="M426 1895 c-9 -26 -7 -32 5 -12 6 10 9 21 6 23 -2 3 -7 -2 -11 -11z"/>
<path d="M2284 1900 c9 -32 39 -101 43 -97 2 3 -8 29 -22 58 -14 30 -23 47
-21 39z"/>
<path d="M2341 1760 c14 -31 19 -36 19 -24 0 6 -7 19 -16 30 -14 18 -14 18 -3
-6z"/>
<path d="M352 1715 c-17 -37 -14 -45 4 -12 9 16 14 31 11 33 -2 2 -9 -7 -15
-21z"/>
<path d="M326 1655 c-9 -26 -7 -32 5 -12 6 10 9 21 6 23 -2 3 -7 -2 -11 -11z"/>
<path d="M586 1595 c-9 -26 -7 -32 5 -12 6 10 9 21 6 23 -2 3 -7 -2 -11 -11z"/>
<path d="M2430 1549 c0 -4 7 -22 15 -40 8 -19 14 -27 14 -19 0 14 -28 72 -29
59z"/>
<path d="M252 1475 c-17 -37 -14 -45 4 -12 9 16 14 31 11 33 -2 2 -9 -7 -15
-21z"/>
<path d="M2467 1449 c4 -13 8 -18 11 -10 2 7 -1 18 -6 23 -8 8 -9 4 -5 -13z"/>
<path d="M2180 1455 c0 -5 5 -17 10 -25 5 -8 10 -10 10 -5 0 6 -5 17 -10 25
-5 8 -10 11 -10 5z"/>
<path d="M226 1415 c-9 -26 -7 -32 5 -12 6 10 9 21 6 23 -2 3 -7 -2 -11 -11z"/>
<path d="M2501 1375 c0 -5 6 -21 14 -35 8 -14 14 -20 14 -15 0 6 -6 21 -14 35
-8 14 -14 21 -14 15z"/>
<path d="M196 1345 c-9 -26 -7 -32 5 -12 6 10 9 21 6 23 -2 3 -7 -2 -11 -11z"/>
<path d="M476 1325 c-9 -26 -7 -32 5 -12 6 10 9 21 6 23 -2 3 -7 -2 -11 -11z"/>
<path d="M176 1295 c-9 -26 -7 -32 5 -12 6 10 9 21 6 23 -2 3 -7 -2 -11 -11z"/>
<path d="M2250 1285 c0 -5 5 -17 10 -25 5 -8 10 -10 10 -5 0 6 -5 17 -10 25
-5 8 -10 11 -10 5z"/>
<path d="M152 1235 c-17 -37 -14 -45 4 -12 9 16 14 31 11 33 -2 2 -9 -7 -15
-21z"/>
<path d="M421 1189 c-6 -18 -9 -34 -7 -36 2 -2 9 10 15 28 6 18 9 34 7 36 -2
2 -9 -10 -15 -28z"/>
<path d="M2280 1216 c0 -12 29 -76 34 -76 3 0 -2 17 -11 38 -16 38 -23 50 -23
38z"/>
<path d="M116 1150 c-22 -56 -19 -65 5 -11 11 24 18 46 15 48 -2 2 -11 -14
-20 -37z"/>
<path d="M2580 1185 c0 -5 5 -17 10 -25 5 -8 10 -10 10 -5 0 6 -5 17 -10 25
-5 8 -10 11 -10 5z"/>
<path d="M2600 1134 c0 -6 7 -19 16 -30 14 -18 14 -18 3 6 -14 31 -19 36 -19
24z"/>
<path d="M370 1059 c-7 -11 -10 -23 -7 -25 2 -2 9 7 15 21 14 30 7 33 -8 4z"/>
<path d="M2341 1070 c0 -14 28 -72 29 -59 0 4 -7 22 -15 40 -8 19 -14 27 -14
19z"/>
<path d="M2626 1071 c4 -8 11 -28 15 -45 6 -29 7 -29 8 -5 1 14 -6 34 -15 45
-8 10 -12 13 -8 5z"/>
<path d="M2617 973 c-22 -22 -171 -31 -208 -13 -23 11 -23 11 -4 -5 16 -13 38
-16 107 -13 75 3 91 6 110 26 12 12 20 22 17 22 -2 0 -13 -8 -22 -17z"/>
<path d="M2757 3813 c-4 -3 -7 -635 -7 -1403 l0 -1396 38 -38 39 -37 704 4
c780 4 762 2 915 72 75 34 203 124 244 171 19 22 15 21 -15 -7 -115 -102 -237
-170 -370 -204 -64 -17 -134 -19 -772 -22 l-701 -4 -36 32 -36 31 2 1404 c2
772 3 1404 2 1404 0 0 -4 -3 -7 -7z"/>
<path d="M4460 3739 c8 -9 49 -46 90 -84 61 -56 65 -59 25 -16 -27 29 -68 67
-90 84 -22 17 -33 24 -25 16z"/>
<path d="M3565 3610 c595 -6 578 -5 691 -64 27 -14 65 -40 84 -57 l35 -32 -35
27 c-57 43 -140 82 -211 100 -56 14 -137 16 -577 16 l-512 0 -2 -497 -3 -498
-5 500 -5 500 -3 -502 -2 -503 528 0 c580 0 589 1 703 61 32 17 66 41 76 52
14 16 10 15 -17 -5 -38 -28 -94 -58 -107 -58 -4 0 17 14 47 31 30 16 77 51
103 77 26 26 51 46 55 45 4 -1 9 1 12 4 3 4 -1 3 -9 -2 -9 -5 -12 -3 -9 6 3 8
10 14 16 14 5 0 14 4 19 9 5 5 2 6 -6 1 -9 -5 -12 -3 -9 6 3 8 10 14 16 14 5
0 14 4 19 9 5 5 2 6 -6 1 -15 -8 -9 19 14 65 11 22 25 89 39 195 3 17 3 -1 1
-40 -3 -38 -7 -81 -10 -95 l-6 -25 13 25 c7 14 12 66 12 120 -1 95 -15 166
-39 185 -19 16 -46 74 -40 86 4 5 1 8 -6 7 -6 -2 -14 3 -17 11 -3 9 0 11 9 6
8 -5 5 1 -5 13 -23 26 -34 29 -15 5 11 -15 10 -14 -9 1 -24 20 -30 41 -9 31 6
-4 -8 12 -33 35 -56 52 -136 93 -221 114 -57 14 -133 16 -590 14 l-524 -2 550
-6z m933 -420 l-1 -35 -7 40 c-4 22 -10 54 -14 70 -6 27 -5 27 8 -5 8 -19 14
-51 14 -70z m-335 -556 c-18 -7 -58 -16 -90 -19 -56 -5 -56 -4 15 9 41 8 76
17 80 20 3 3 10 6 16 5 6 0 -3 -7 -21 -15z"/>
<path d="M4710 3425 c0 -5 5 -17 10 -25 5 -8 10 -10 10 -5 0 6 -5 17 -10 25
-5 8 -10 11 -10 5z"/>
<path d="M4480 2939 c-7 -11 -10 -23 -7 -25 2 -2 9 7 15 21 14 30 7 33 -8 4z"/>
<path d="M4720 2830 c-6 -11 -8 -20 -6 -20 3 0 10 9 16 20 6 11 8 20 6 20 -3
0 -10 -9 -16 -20z"/>
<path d="M4691 2773 c-10 -26 -10 -27 4 -9 8 11 15 23 15 28 0 15 -7 8 -19
-19z"/>
<path d="M4369 2753 l-24 -28 28 24 c25 23 32 31 24 31 -2 0 -14 -12 -28 -27z"/>
<path d="M4675 2350 c27 -27 51 -50 54 -50 3 0 -17 23 -44 50 -27 28 -51 50
-54 50 -3 0 17 -22 44 -50z"/>
<path d="M3610 2330 c533 -5 601 -8 650 -24 71 -23 177 -85 215 -127 27 -30
25 -29 -20 7 -65 53 -127 88 -195 110 -50 16 -111 18 -637 22 l-583 3 0 -545
0 -546 573 -2 572 -3 -585 -5 -585 -5 584 -3 c505 -2 591 0 645 14 70 18 186
76 213 107 12 14 13 18 3 12 -8 -4 3 11 25 34 46 48 62 56 19 9 l-29 -33 38
34 c37 35 47 48 26 35 -7 -4 -10 -1 -7 7 3 8 10 14 15 14 6 0 15 4 20 9 5 5 2
6 -6 1 -9 -5 -12 -3 -9 6 3 8 10 14 15 14 6 0 15 4 20 9 5 5 3 6 -4 2 -17 -10
-17 -7 11 56 35 80 49 165 43 260 -3 46 -8 94 -11 108 -3 14 1 7 8 -15 8 -22
14 -31 14 -20 0 24 -26 96 -27 75 -1 -11 -40 61 -79 144 -3 5 0 6 7 2 17 -11
13 0 -6 15 -15 12 -16 12 -8 -1 5 -9 0 -8 -13 4 -26 23 -30 44 -4 25 9 -7 -3
8 -28 35 -52 55 -134 107 -217 138 -57 22 -67 22 -658 23 l-600 1 595 -6z
m825 -1006 c-35 -28 -159 -83 -200 -89 -31 -4 -27 -1 20 13 65 20 160 65 170
82 3 5 12 10 18 10 7 0 3 -8 -8 -16z"/>
<path d="M3025 1775 c0 -302 1 -428 2 -278 2 149 2 397 0 550 -1 153 -2 31 -2
-272z"/>
<path d="M4800 2190 c6 -11 13 -20 16 -20 2 0 0 9 -6 20 -6 11 -13 20 -16 20
-2 0 0 -9 6 -20z"/>
<path d="M4575 2050 c9 -16 18 -30 21 -30 2 0 -2 14 -11 30 -9 17 -18 30 -21
30 -2 0 2 -13 11 -30z"/>
<path d="M4648 1748 c-3 -57 -9 -112 -13 -123 -6 -20 -6 -20 6 0 12 19 27 225
17 225 -3 0 -8 -46 -10 -102z"/>
<path d="M4614 1564 c-8 -20 -13 -38 -11 -40 2 -2 11 14 20 36 19 50 12 53 -9
4z"/>
<path d="M7665 3503 c-29 -8 -73 -41 -86 -65 -8 -15 -8 -19 0 -13 9 5 10 -1 4
-22 -10 -36 -10 -92 1 -122 6 -16 5 -21 -3 -17 -6 4 -12 17 -12 29 -1 18 -2
18 -6 4 -5 -19 14 -50 27 -42 4 2 15 -4 25 -15 20 -22 8 -28 -15 -7 -12 10
-12 9 -1 -5 22 -29 96 -51 147 -44 72 9 99 46 35 46 -19 0 -31 7 -38 23 -7 14
-20 23 -38 25 -24 2 -27 -1 -23 -23 5 -22 2 -25 -23 -25 l-29 0 0 116 0 116
79 -3 c44 -2 82 -7 86 -11 16 -15 17 -88 2 -111 -14 -21 -13 -27 4 -63 17 -35
18 -33 2 16 -2 8 2 4 10 -9 16 -26 43 -36 54 -19 4 7 1 8 -7 3 -9 -6 -10 -2
-4 16 5 13 8 50 7 82 -2 41 1 56 9 51 24 -15 -33 54 -58 70 -27 18 -114 29
-149 19z m55 -14 c-42 -7 -41 -7 15 -5 65 3 97 -10 117 -48 7 -14 0 -10 -22
12 -18 17 -40 32 -49 32 -11 0 -12 -3 -4 -8 6 -4 -22 -6 -63 -4 -68 4 -78 2
-100 -19 -13 -12 -24 -18 -24 -11 0 13 47 48 75 55 11 2 38 5 60 4 l40 0 -45
-8z m110 -106 c0 -17 -3 -34 -7 -36 -5 -3 -8 17 -8 43 0 27 3 43 7 37 4 -7 8
-26 8 -44z m-213 -80 c-2 -21 -4 -6 -4 32 0 39 2 55 4 38 2 -18 2 -50 0 -70z
m123 -68 c0 -5 -5 -3 -10 5 -5 8 -10 20 -10 25 0 6 5 3 10 -5 5 -8 10 -19 10
-25z m-60 -25 c0 -5 18 -10 41 -10 24 0 38 4 34 10 -4 6 7 10 26 10 50 0 22
-19 -37 -26 -33 -4 -60 -1 -84 9 -34 15 -35 15 -7 16 15 1 27 -3 27 -9z"/>
<path d="M7698 3403 c12 -2 30 -2 40 0 9 3 -1 5 -23 4 -22 0 -30 -2 -17 -4z"/>
<path d="M7875 3340 c0 -55 1 -59 9 -32 5 19 5 45 0 64 -8 27 -9 23 -9 -32z"/>
<path d="M7556 3375 c-3 -9 -6 -26 -5 -38 1 -14 4 -9 9 13 9 37 7 52 -4 25z"/>
<path d="M7680 3380 c0 -5 11 -10 25 -10 14 0 25 5 25 10 0 6 -11 10 -25 10
-14 0 -25 -4 -25 -10z"/>
<path d="M7698 3353 c12 -2 30 -2 40 0 9 3 -1 5 -23 4 -22 0 -30 -2 -17 -4z"/>
<path d="M7693 3293 c9 -2 23 -2 30 0 6 3 -1 5 -18 5 -16 0 -22 -2 -12 -5z"/>
<path d="M7860 3179 c-19 -16 -48 -34 -65 -38 -22 -7 -25 -9 -9 -10 20 -1 95
46 109 68 10 17 3 13 -35 -20z"/>
<path d="M7559 3186 c13 -16 51 -41 51 -33 0 2 -15 14 -32 27 -21 15 -28 17
-19 6z"/>
<path d="M7628 3138 c6 -6 18 -8 28 -6 14 3 12 5 -9 10 -19 3 -25 2 -19 -4z"/>
<path d="M974 444 c-17 -8 -44 -29 -60 -47 -26 -28 -25 -27 15 6 24 20 59 40
78 43 60 11 141 -1 176 -26 23 -17 28 -19 17 -5 -36 44 -163 61 -226 29z"/>
<path d="M973 265 c0 -27 2 -38 4 -22 2 15 2 37 0 50 -2 12 -4 0 -4 -28z"/>
<path d="M915 131 c52 -61 168 -80 245 -41 21 11 41 24 45 29 3 6 -14 -1 -37
-14 -76 -44 -177 -32 -248 29 l-25 21 20 -24z"/>
<path d="M3432 345 c-33 -28 -46 -73 -32 -107 8 -19 9 -17 5 12 l-5 35 14 -35
c18 -45 19 -53 4 -44 -7 4 -3 -4 10 -17 17 -18 33 -24 67 -24 34 0 50 6 67 24
13 13 17 20 9 16 -10 -6 -11 -2 -5 16 5 13 8 41 7 61 -1 26 3 36 11 32 6 -3
-4 8 -22 25 -41 39 -88 42 -130 6z m119 -6 l24 -21 -25 16 c-46 30 -113 16
-130 -27 -6 -16 -9 -18 -9 -5 -1 25 47 58 84 58 19 0 43 -9 56 -21z m-23 -151
c27 9 32 8 23 -1 -16 -16 -97 -15 -113 1 -10 10 -6 10 21 1 24 -9 43 -9 69 -1z"/>
<path d="M3586 254 c-4 -14 -5 -28 -3 -31 3 -2 8 8 11 23 4 14 5 28 3 31 -3 2
-8 -8 -11 -23z"/>
<path d="M6420 391 c5 -11 15 -23 21 -27 6 -3 3 5 -6 20 -20 30 -30 35 -15 7z"/>
<path d="M6220 354 c-16 -10 -18 -13 -5 -8 44 15 74 15 104 0 17 -9 31 -14 31
-12 0 10 -60 36 -82 36 -13 -1 -34 -8 -48 -16z"/>
<path d="M6224 335 c-12 -8 -24 -12 -27 -9 -3 3 -8 0 -13 -7 -4 -7 -3 -10 2
-6 6 3 10 -17 10 -48 0 -34 -4 -51 -11 -48 -5 3 1 -6 16 -21 14 -15 41 -29 61
-32 30 -5 40 -2 69 26 19 17 28 29 21 25 -10 -5 -12 1 -6 32 8 47 18 60 12 16
-2 -18 -1 -33 4 -33 11 0 10 62 -2 80 -6 9 -10 10 -10 3 0 -7 -11 -1 -25 12
-27 28 -70 32 -101 10z m10 -154 c-2 -3 -12 3 -22 13 -16 17 -16 18 5 5 12 -7
20 -15 17 -18z m87 9 c-13 -11 -35 -20 -50 -19 -23 1 -22 2 7 9 19 4 39 13 45
19 6 6 13 11 17 11 3 -1 -6 -10 -19 -20z"/>
<path d="M6458 288 c5 -85 10 -96 11 -23 0 33 -3 66 -7 73 -5 7 -7 -16 -4 -50z"/>
<path d="M6073 265 c0 -33 2 -45 4 -27 2 18 2 45 0 60 -2 15 -4 0 -4 -33z"/>
<path d="M6174 285 c-3 -8 -4 -20 -2 -27 3 -7 7 -1 10 15 6 29 1 36 -8 12z"/>
<path d="M6409 133 l-24 -28 28 24 c25 23 32 31 24 31 -2 0 -14 -12 -28 -27z"/>
<path d="M6860 385 c13 -14 26 -25 28 -25 3 0 -5 11 -18 25 -13 14 -26 25 -28
25 -3 0 5 -11 18 -25z"/>
<path d="M1494 398 l-29 -33 33 29 c30 28 37 36 29 36 -2 0 -16 -15 -33 -32z"/>
<path d="M1605 361 c-12 -5 -27 -17 -35 -27 -8 -10 -10 -15 -4 -11 15 9 5 -85
-10 -95 -7 -5 -4 -8 7 -8 9 0 17 -5 17 -11 0 -5 -5 -7 -12 -3 -7 4 -8 3 -4 -5
25 -40 108 -49 152 -16 15 11 8 10 -28 -3 -44 -15 -49 -15 -80 1 -18 10 -24
14 -13 10 35 -13 94 -8 112 10 9 9 20 36 24 59 l8 43 -2 -42 c-1 -23 1 -39 5
-37 5 3 8 20 8 38 0 27 -7 38 -38 60 -41 28 -65 32 -109 15 -23 -8 -26 -8 -15
3 21 21 106 16 133 -7 l24 -19 -21 23 c-23 25 -86 36 -119 22z"/>
<path d="M1549 298 c0 -7 -2 -21 -4 -30 -2 -10 1 -20 6 -24 5 -3 9 11 9 30 0
33 -9 52 -11 24z"/>
<path d="M1495 130 c10 -11 20 -20 23 -20 3 0 -3 9 -13 20 -10 11 -20 20 -23
20 -3 0 3 -9 13 -20z"/>
<path d="M1773 117 c-35 -25 -56 -32 -115 -37 l-73 -7 59 -2 c64 -1 128 22
161 59 24 27 18 24 -32 -13z"/>
<path d="M2265 351 c28 -4 57 -10 65 -14 8 -5 6 -1 -4 7 -13 10 -37 15 -65 15
l-46 -2 50 -6z"/>
<path d="M2222 310 c0 -19 2 -27 5 -17 2 9 2 25 0 35 -3 9 -5 1 -5 -18z"/>
<path d="M2240 311 c0 -29 2 -31 43 -33 40 -1 40 -2 -13 -8 l-55 -7 51 -1 c38
-2 55 3 65 15 8 10 9 14 2 10 -8 -5 -13 2 -15 20 -3 24 -8 28 -40 31 -36 3
-38 2 -38 -27z"/>
<path d="M2865 351 c28 -4 57 -10 65 -14 8 -5 6 -1 -4 7 -13 10 -37 15 -65 15
l-46 -2 50 -6z"/>
<path d="M2822 310 c0 -19 2 -27 5 -17 2 9 2 25 0 35 -3 9 -5 1 -5 -18z"/>
<path d="M2840 311 c0 -29 2 -31 43 -33 l42 -1 -45 -7 -45 -7 41 -1 c28 -2 46
3 55 15 8 10 9 14 2 10 -8 -5 -13 2 -15 20 -3 24 -8 28 -40 31 -36 3 -38 2
-38 -27z"/>
<path d="M3005 220 c-12 -20 -68 -42 -128 -49 -50 -7 -55 -9 -22 -10 55 -1
110 15 142 44 16 13 25 25 21 25 -4 0 -10 -5 -13 -10z"/>
<path d="M4083 353 c15 -2 37 -2 50 0 12 2 0 4 -28 4 -27 0 -38 -2 -22 -4z"/>
<path d="M4169 338 c8 -11 9 -18 3 -18 -6 0 -14 5 -17 10 -3 6 -22 10 -41 10
-31 0 -34 -2 -34 -30 0 -28 2 -30 40 -30 22 0 40 5 40 11 0 5 4 8 9 5 17 -11
19 33 2 46 -14 12 -15 11 -2 -4z"/>
<path d="M4062 310 c0 -19 2 -27 5 -17 2 9 2 25 0 35 -3 9 -5 1 -5 -18z"/>
<path d="M4120 270 l-45 -7 40 -1 c22 -1 47 3 55 8 8 5 11 9 5 8 -5 0 -30 -4
-55 -8z"/>
<path d="M4080 166 c0 -2 13 -6 29 -8 17 -2 28 -1 25 4 -5 8 -54 12 -54 4z"/>
<path d="M4802 360 c11 -28 23 -49 25 -47 4 5 -34 97 -41 97 -3 0 5 -23 16
-50z"/>
<path d="M4710 310 c0 -5 5 -10 10 -10 6 0 10 5 10 10 0 6 -4 10 -10 10 -5 0
-10 -4 -10 -10z"/>
<path d="M4587 265 c-24 -50 -20 -58 4 -12 11 22 19 41 17 43 -3 2 -12 -12
-21 -31z"/>
<path d="M4691 264 c-15 -35 -16 -34 32 -32 l42 1 -37 4 c-28 3 -36 8 -31 19
5 13 7 13 14 3 4 -8 11 -10 15 -7 3 4 0 14 -8 22 -14 13 -17 12 -27 -10z"/>
<path d="M4841 275 c0 -5 8 -26 19 -45 11 -19 19 -30 19 -25 0 6 -8 26 -19 45
-11 19 -19 31 -19 25z"/>
<path d="M4678 143 c23 -2 61 -2 85 0 23 2 4 4 -43 4 -47 0 -66 -2 -42 -4z"/>
</g>
</svg>
