<?xml version="1.0" standalone="no"?>
<!DOCTYPE svg PUBLIC "-//W3C//DTD SVG 20010904//EN"
 "http://www.w3.org/TR/2001/REC-SVG-20010904/DTD/svg10.dtd">
<svg version="1.0" xmlns="http://www.w3.org/2000/svg"
 width="100%" height="100%" viewBox="0 0 1374.000000 500.000000"
 preserveAspectRatio="xMidYMid meet">
<metadata>
Created by potrace 1.16, written by Peter Selinger 2001-2019
</metadata>
<g transform="translate(0.000000,500.000000) scale(0.100000,-0.100000)"
fill="white" stroke="none">
<path d="M320 4748 c-33 -17 -51 -35 -68 -68 -22 -45 -22 -45 -20 -1227 3
-1181 3 -1181 33 -1224 39 -55 99 -97 150 -105 22 -3 42 -6 45 -7 3 0 25 3 50
7 63 11 132 63 161 123 24 48 24 48 29 513 l5 465 605 5 c602 5 605 5 640 27
51 32 83 93 82 159 0 66 -27 114 -85 152 -41 27 -41 27 -644 30 l-603 3 0 389
0 389 613 1 c396 0 626 4 650 11 21 6 56 28 77 49 89 89 73 228 -33 298 -41
27 -41 27 -841 30 -801 2 -801 2 -846 -20z"/>
<path d="M2503 4041 c-100 -65 -100 -65 -107 -191 -3 -69 -6 -264 -6 -435 0
-170 -5 -490 -11 -710 -11 -430 -8 -467 37 -537 13 -20 44 -51 70 -69 42 -28
55 -32 115 -32 59 0 76 4 116 29 26 16 61 49 78 73 30 43 30 43 35 605 5 562
5 562 43 608 21 26 52 51 69 57 55 19 193 13 327 -16 160 -34 309 -37 391 -9
92 32 135 66 226 179 86 108 123 180 145 282 10 47 12 189 3 198 -4 3 -14 -2
-23 -12 -9 -11 -69 -43 -134 -72 -117 -52 -117 -52 -301 -45 -147 5 -204 3
-289 -10 -106 -16 -106 -16 -209 -99 -104 -83 -104 -83 -167 -214 -34 -72 -61
-136 -59 -142 2 -7 33 23 68 66 69 82 190 171 282 206 26 11 72 29 101 40 33
14 81 23 132 25 80 3 80 3 25 -10 -30 -8 -82 -20 -114 -27 -68 -14 -224 -100
-306 -167 -30 -25 -90 -82 -132 -125 l-78 -79 0 238 c-1 132 -5 258 -9 281
-16 84 -89 156 -175 172 -41 7 -46 5 -143 -58z"/>
<path d="M9235 4090 c-170 -26 -316 -89 -458 -199 -58 -44 -113 -93 -123 -108
-10 -16 -44 -60 -75 -100 -32 -40 -61 -83 -64 -95 -7 -22 -15 -41 -65 -153
-24 -56 -53 -244 -53 -345 1 -119 29 -269 67 -362 61 -149 66 -158 185 -308
39 -48 187 -170 246 -203 11 -6 67 -30 125 -54 146 -60 297 -80 450 -60 115
16 271 72 339 124 95 71 145 123 193 200 29 46 56 83 60 83 4 0 7 -178 7 -397
1 -218 4 -412 7 -432 18 -99 108 -173 213 -174 112 -1 197 67 220 174 15 70
15 2153 0 2233 -19 105 -74 158 -176 171 -88 12 -161 -23 -204 -98 -22 -38
-24 -55 -26 -186 -2 -79 -4 -145 -6 -147 -1 -1 -28 41 -60 94 -47 81 -70 108
-134 160 -148 120 -280 172 -498 195 -27 3 -104 -3 -170 -13z m475 -447 c89
-43 116 -62 177 -124 60 -62 79 -90 116 -174 42 -94 45 -107 51 -218 7 -113 6
-121 -24 -215 -41 -127 -114 -228 -221 -304 -81 -59 -97 -66 -213 -99 -72 -21
-86 -22 -190 -12 -98 8 -122 15 -206 52 -79 36 -108 56 -172 119 -68 66 -83
88 -122 176 -38 85 -46 114 -51 186 -3 47 -8 92 -11 101 -2 9 9 65 26 123 42
143 101 233 215 321 63 50 101 71 171 95 85 29 95 30 219 27 130 -4 130 -4
235 -54z"/>
<path d="M4980 4086 c-3 -3 -51 -10 -105 -15 -290 -28 -583 -208 -739 -454
-125 -197 -171 -401 -147 -645 10 -97 20 -142 47 -210 19 -48 34 -92 34 -98 0
-26 144 -216 219 -289 221 -214 544 -315 895 -280 171 17 307 58 440 132 114
63 242 173 288 247 83 135 0 288 -157 290 -74 1 -109 -18 -215 -119 -91 -87
-157 -128 -258 -161 -108 -35 -206 -41 -338 -19 -93 15 -124 25 -208 69 -88
45 -106 60 -166 131 -37 44 -77 103 -88 130 -33 82 -52 135 -52 145 0 6 269
11 713 12 712 3 712 3 768 32 69 34 116 96 131 170 8 40 6 76 -6 157 -34 219
-171 425 -385 578 -128 91 -285 156 -426 177 -124 19 -238 28 -245 20z m197
-381 c184 -32 335 -154 407 -328 20 -48 36 -92 36 -97 0 -7 -210 -10 -595 -10
-327 0 -595 1 -595 3 0 2 16 43 36 92 51 127 136 221 255 281 136 68 292 88
456 59z"/>
<path d="M7000 4076 c-58 -7 -130 -20 -160 -29 -30 -9 -81 -23 -112 -31 -33
-8 -98 -40 -151 -73 -79 -49 -102 -70 -152 -137 -36 -49 -61 -94 -67 -120 -34
-167 -34 -153 11 -321 21 -76 26 -84 102 -160 74 -76 87 -84 207 -137 70 -31
152 -63 182 -71 156 -44 215 -59 320 -83 166 -36 263 -69 339 -113 60 -36 69
-45 90 -96 23 -56 24 -58 7 -110 -14 -45 -24 -58 -66 -85 -71 -45 -150 -67
-271 -75 -133 -9 -253 4 -507 55 -284 56 -338 53 -396 -23 -26 -33 -42 -111
-31 -146 3 -11 20 -28 38 -39 18 -11 80 -49 139 -85 59 -37 121 -69 138 -72
17 -3 99 -15 183 -28 238 -35 584 -28 747 15 41 11 102 27 135 35 33 9 77 27
98 40 21 13 53 32 70 42 18 10 46 26 62 36 17 10 60 55 95 101 65 84 67 87 94
224 3 14 8 36 11 50 3 14 -10 80 -29 148 -33 122 -33 122 -97 181 -35 32 -77
69 -94 83 -43 34 -255 122 -355 146 -151 37 -254 61 -315 72 -73 15 -209 53
-258 73 -19 9 -59 31 -89 50 -45 29 -56 43 -75 91 -20 53 -21 61 -7 105 26 87
104 131 277 156 83 12 116 12 225 0 156 -18 147 -16 434 -84 145 -35 210 -25
255 39 21 30 33 85 26 126 -5 31 -15 40 -102 90 -53 31 -114 68 -136 82 -45
29 -65 34 -235 64 -151 26 -421 32 -580 14z"/>
<path d="M11892 4081 c-19 -5 -68 -12 -110 -16 -56 -5 -111 -20 -202 -56 -133
-52 -136 -53 -257 -140 -136 -98 -246 -233 -318 -391 -56 -124 -88 -268 -88
-393 0 -124 32 -271 87 -391 28 -62 61 -125 74 -141 121 -151 155 -187 235
-244 129 -94 131 -95 267 -148 109 -43 142 -51 260 -64 124 -14 147 -14 280 2
130 16 158 23 266 67 151 62 314 175 389 268 28 34 66 82 86 107 20 24 60 96
88 159 43 95 55 134 68 225 9 61 17 133 17 160 0 28 -8 100 -17 160 -23 159
-89 301 -208 450 -49 61 -99 116 -111 124 -13 7 -61 41 -108 76 -117 85 -303
158 -445 175 -145 17 -216 20 -253 11z m153 -400 c22 -5 67 -14 100 -21 73
-14 229 -111 279 -174 72 -89 116 -166 127 -218 5 -29 17 -82 26 -117 13 -58
13 -71 -1 -130 -9 -36 -20 -90 -26 -119 -7 -40 -27 -78 -76 -151 -61 -87 -77
-103 -163 -161 -55 -37 -113 -68 -136 -73 -22 -4 -67 -14 -101 -22 -82 -20
-121 -19 -241 9 -93 21 -112 29 -197 87 -82 57 -101 75 -159 159 -59 87 -67
104 -87 195 -27 125 -27 155 0 280 20 91 28 108 88 195 59 85 77 103 161 160
82 56 106 67 190 86 105 24 155 28 216 15z"/>
<path d="M13250 2480 c0 -5 -11 -10 -25 -10 -16 0 -25 -6 -25 -15 0 -8 -7 -15
-15 -15 -8 0 -15 -7 -15 -15 0 -8 -4 -15 -10 -15 -5 0 -10 -11 -10 -25 0 -14
-4 -25 -10 -25 -6 0 -10 -35 -10 -85 0 -50 4 -85 10 -85 6 0 10 -11 10 -25 0
-14 5 -25 10 -25 6 0 10 -7 10 -15 0 -8 7 -15 15 -15 8 0 15 -4 15 -10 0 -5 9
-10 20 -10 11 0 23 -7 26 -15 5 -11 24 -15 80 -15 59 0 74 3 74 15 0 9 10 15
26 15 14 0 23 4 19 10 -3 6 1 10 9 10 9 0 16 6 16 14 0 8 7 16 15 20 8 3 15
15 15 26 0 11 5 20 10 20 6 0 10 35 10 85 0 50 -4 85 -10 85 -5 0 -10 11 -10
25 0 16 -6 25 -15 25 -8 0 -15 7 -15 15 0 8 -7 15 -15 15 -8 0 -14 6 -12 12 1
7 -8 14 -20 16 -13 2 -23 8 -23 13 0 5 -34 9 -75 9 -43 0 -75 -4 -75 -10z"/>
<path d="M8552 1113 c-100 -45 -100 -45 -116 -101 -30 -108 3 -170 211 -399
135 -148 151 -162 251 -220 119 -70 126 -73 232 -103 41 -12 98 -28 125 -37
29 -9 115 -19 205 -23 141 -8 168 -6 295 16 84 15 160 34 190 49 28 13 84 39
125 58 54 25 102 58 172 120 107 96 104 93 191 227 95 148 104 241 32 334 -33
43 -117 86 -167 86 -94 0 -147 -42 -246 -196 -62 -96 -81 -117 -155 -172 -89
-65 -115 -77 -246 -112 -65 -18 -99 -21 -183 -17 -268 11 -484 140 -622 372
-55 93 -101 137 -162 154 -27 8 -47 2 -132 -36z"/>
</g>
</svg>
