<?xml version="1.0" standalone="no"?>
<!DOCTYPE svg PUBLIC "-//W3C//DTD SVG 20010904//EN"
 "http://www.w3.org/TR/2001/REC-SVG-20010904/DTD/svg10.dtd">
<svg version="1.0" xmlns="http://www.w3.org/2000/svg"
 width="1132.000000pt" height="400.000000pt" viewBox="0 0 1132.000000 400.000000"
 preserveAspectRatio="xMidYMid meet">
<metadata>
Created by potrace 1.16, written by Peter Selinger 2001-2019
</metadata>
<g transform="translate(0.000000,400.000000) scale(0.100000,-0.100000)"
fill="white" stroke="none">
<path d="M0 2000 l0 -2000 5660 0 5660 0 0 2000 0 2000 -5660 0 -5660 0 0
-2000z m1198 1923 c-174 -2 -462 -2 -640 0 -178 1 -35 2 317 2 352 0 497 -1
323 -2z m347 -14 c-17 -8 -16 -9 8 -5 15 2 30 -1 34 -7 4 -6 1 -7 -7 -2 -9 6
-11 4 -6 -4 5 -7 14 -10 22 -7 7 3 26 -10 42 -29 25 -31 28 -42 27 -103 -1
-50 -6 -77 -20 -98 -13 -20 -14 -26 -4 -19 8 6 7 3 -2 -5 -9 -8 -25 -21 -35
-28 -11 -7 -12 -10 -4 -6 8 4 12 3 7 -1 -14 -16 -54 -18 -582 -24 l-530 -6
520 -5 520 -5 -517 -3 -518 -2 0 -300 0 -300 478 -2 477 -3 -480 -5 -480 -5
500 -5 c275 -3 509 -9 519 -14 15 -7 17 -6 11 4 -5 9 -4 11 4 6 6 -4 8 -12 5
-18 -5 -7 -1 -9 9 -5 12 4 25 -4 44 -27 23 -30 26 -43 27 -111 1 -42 -3 -79
-8 -83 -5 -3 -6 1 -1 8 6 9 4 11 -4 6 -7 -5 -10 -14 -7 -21 6 -16 -34 -54 -51
-48 -6 2 -15 -1 -19 -8 -5 -8 -3 -10 7 -4 8 5 11 4 6 0 -10 -12 25 -11 -547
-16 l-495 -4 485 -5 485 -5 -483 -3 -483 -2 3 -375 c2 -206 0 -367 -5 -357 -4
10 -6 4 -3 -18 3 -34 -24 -92 -49 -101 -5 -2 -9 -7 -8 -11 2 -4 -3 -5 -11 -2
-8 3 -17 0 -22 -7 -4 -8 -3 -10 4 -5 18 11 14 0 -5 -15 -14 -12 -16 -12 -8 0
6 11 4 13 -11 7 -64 -27 -154 -25 -188 3 -8 6 -20 10 -27 9 -8 -2 -13 2 -12 8
1 7 -8 20 -20 30 -15 13 -18 14 -12 4 6 -9 0 -5 -12 9 l-23 26 1 1025 c0 1037
0 1047 34 1061 6 2 9 7 8 11 -2 4 5 4 14 1 10 -4 14 -2 9 5 -3 6 -1 14 5 18 8
5 9 3 4 -6 -6 -10 -4 -11 11 -4 11 5 314 11 689 14 369 3 677 6 685 7 8 1 6
-3 -5 -8z m-1468 -1571 c-1 -266 -2 -51 -2 477 0 528 1 745 2 483 2 -262 2
-694 0 -960z m1595 1330 c-8 -8 -9 -4 -5 13 4 13 8 18 11 10 2 -7 -1 -18 -6
-23z m441 -305 c-7 -2 -19 -2 -25 0 -7 3 -2 5 12 5 14 0 19 -2 13 -5z m5670 0
c-13 -2 -35 -2 -50 0 -16 2 -5 4 22 4 28 0 40 -2 28 -4z m-5621 -20 c10 3 21
0 25 -5 4 -7 1 -8 -7 -3 -9 6 -11 4 -6 -4 5 -7 14 -10 21 -7 16 6 64 -43 72
-75 3 -13 9 -116 13 -229 7 -234 11 -235 13 -5 l1 160 3 -130 c2 -71 7 -133
11 -137 5 -5 16 8 25 28 10 19 12 32 6 29 -19 -12 32 79 63 112 17 17 36 29
42 27 7 -3 21 6 32 18 l19 23 -25 -20 -25 -20 18 22 c11 12 24 20 31 17 7 -3
21 6 32 18 l19 23 -25 -20 c-23 -18 -24 -18 -8 0 10 10 25 20 35 21 10 2 54
10 98 19 57 11 129 14 251 13 162 -3 173 -2 222 21 28 13 49 28 46 32 -3 5 2
6 10 3 16 -6 66 17 85 40 27 33 33 17 45 -114 4 -40 3 -47 -3 -25 -8 29 -9 29
-10 4 -1 -26 -44 -162 -58 -183 -5 -7 0 -3 10 7 9 11 17 15 17 11 0 -5 -19
-27 -43 -49 -24 -22 -32 -31 -18 -20 17 14 13 5 -13 -27 -21 -27 -41 -48 -44
-48 -3 0 3 10 14 23 l19 22 -23 -19 c-12 -11 -21 -25 -18 -32 2 -6 -7 -22 -22
-35 l-27 -24 25 30 25 30 -32 -29 c-18 -16 -30 -34 -26 -39 3 -6 2 -7 -4 -4
-5 3 -37 -5 -71 -19 -96 -39 -164 -41 -331 -9 -106 20 -168 26 -229 23 l-84
-3 -40 -45 -40 -45 4 -472 c2 -260 0 -467 -4 -460 -6 9 -8 9 -8 -1 0 -8 -9
-28 -21 -45 l-21 -32 21 24 c23 25 28 17 7 -11 -7 -10 -20 -18 -29 -18 -9 0
-19 -5 -23 -12 -5 -7 -3 -8 6 -3 8 5 11 4 6 -3 -4 -6 -13 -9 -20 -6 -8 3 -17
0 -22 -7 -5 -8 -3 -10 7 -4 8 5 11 4 6 -1 -12 -12 -197 -13 -204 -1 -4 6 -1 7
7 2 9 -6 11 -4 6 4 -5 7 -14 10 -22 7 -23 -9 -76 64 -79 109 -1 22 -5 330 -7
685 -3 355 -2 503 2 330 l6 -315 0 390 c-1 214 2 376 5 360 l7 -30 2 28 c4 42
4 45 12 53 4 3 18 7 30 8 13 1 22 7 21 14 -2 6 3 9 11 6 8 -3 17 0 22 7 5 8 3
10 -6 4 -8 -5 -11 -4 -6 3 4 6 13 9 20 6 8 -3 17 0 22 7 5 8 3 10 -6 4 -8 -5
-11 -4 -6 3 4 6 13 9 20 6 8 -3 17 0 22 7 5 8 3 10 -6 4 -8 -5 -11 -4 -7 2 5
8 21 8 49 1 24 -5 51 -7 60 -5z m3881 10 c-23 -2 -64 -2 -90 0 -26 2 -7 3 42
3 50 0 71 -1 48 -3z m1640 0 c-7 -2 -21 -2 -30 0 -10 3 -4 5 12 5 17 0 24 -2
18 -5z m157 -2 c-31 -6 -28 -8 34 -15 39 -4 95 -19 125 -32 30 -14 61 -22 68
-19 8 2 12 1 9 -4 -3 -5 7 -14 23 -21 16 -6 37 -20 47 -31 18 -20 40 -27 29
-9 -12 19 2 10 26 -17 l24 -28 -25 20 -25 20 19 -23 c11 -12 25 -21 32 -18 17
6 87 -72 80 -90 -3 -7 0 -16 6 -20 7 -5 8 -2 3 6 -6 9 -4 11 4 6 7 -5 10 -15
6 -25 -4 -11 -3 -13 4 -6 5 6 12 39 14 75 3 63 3 62 5 -18 1 -57 -1 -81 -9
-77 -6 4 -5 -2 2 -13 7 -12 14 -20 15 -19 1 1 4 60 6 130 3 124 4 129 31 163
16 19 32 32 37 29 4 -3 24 2 44 10 29 12 47 13 94 5 31 -6 65 -12 74 -13 9 -1
15 -4 13 -8 -3 -3 5 -15 18 -25 21 -19 21 -19 7 0 -9 12 -10 17 -3 12 7 -4 18
-16 24 -28 9 -16 8 -19 -3 -14 -7 4 -3 -1 10 -10 12 -9 22 -26 21 -38 -1 -20
-1 -20 -7 2 -4 13 -6 -419 -5 -959 2 -974 2 -982 -18 -1010 -11 -16 -27 -29
-34 -29 -8 0 -17 -5 -21 -12 -5 -7 -3 -8 6 -3 8 5 11 4 6 -3 -4 -6 -13 -9 -20
-6 -8 3 -17 0 -22 -7 -5 -8 -3 -10 6 -4 8 5 11 4 7 -1 -3 -6 -41 -9 -84 -8
-92 3 -120 7 -130 19 -5 4 -2 5 6 0 10 -6 12 -4 7 4 -5 7 -14 10 -22 7 -18 -7
-56 44 -62 81 -2 16 -7 183 -11 373 -4 190 -8 341 -9 335 -1 -5 -3 -152 -4
-325 l-2 -315 -6 293 c-3 160 -9 293 -13 295 -4 1 -17 -14 -28 -33 l-21 -35
22 25 c20 24 21 24 10 2 -6 -13 -22 -27 -35 -32 -13 -5 -27 -15 -31 -22 -6
-10 -4 -10 9 1 25 20 21 7 -5 -15 -12 -10 -18 -13 -14 -6 14 24 -11 11 -40
-20 l-29 -33 30 25 30 25 -24 -27 c-13 -15 -29 -24 -36 -22 -7 3 -16 0 -21 -7
-5 -8 -3 -10 7 -4 12 8 12 6 0 -8 -15 -18 -26 -23 -16 -7 9 14 1 13 -39 -7
-19 -9 -32 -21 -29 -26 4 -6 1 -7 -6 -3 -16 10 -73 -13 -64 -27 3 -5 2 -7 -4
-4 -5 3 -56 -1 -114 -9 -142 -20 -279 -1 -412 57 -100 43 -101 43 -92 29 10
-16 -1 -11 -16 7 -12 14 -12 16 0 8 10 -6 12 -4 7 4 -5 7 -14 10 -21 7 -8 -3
-19 3 -27 12 -12 16 -11 16 7 2 20 -15 20 -14 1 8 -19 22 -43 31 -31 12 10
-16 -1 -11 -16 7 -12 15 -12 16 1 8 13 -8 13 -7 1 9 -8 9 -20 15 -27 12 -7 -3
-18 3 -26 12 -12 16 -11 16 7 3 19 -14 19 -14 4 3 -9 9 -23 18 -32 20 -20 3
-125 137 -120 153 2 6 -1 15 -8 19 -8 5 -9 3 -4 -6 5 -8 4 -11 -3 -6 -6 4 -8
14 -5 23 4 10 2 14 -4 10 -6 -4 -14 0 -17 9 -3 9 -2 12 4 9 6 -4 0 18 -12 47
-41 101 -57 153 -59 188 l-2 35 -6 -35 c-4 -21 -7 11 -8 80 -3 164 21 316 63
414 38 88 38 90 24 81 -6 -3 -7 1 -4 9 3 9 11 13 17 9 6 -4 8 0 4 10 -3 9 -1
19 5 23 7 5 8 2 3 -6 -5 -9 -4 -11 4 -6 7 4 10 13 8 19 -5 16 100 150 120 153
9 2 26 13 37 25 20 21 20 22 1 8 -18 -13 -19 -13 -7 3 8 9 19 15 26 12 7 -3
19 3 27 13 13 17 13 17 -6 3 -18 -14 -19 -14 -7 2 8 9 19 15 26 12 7 -3 19 3
27 13 13 17 13 17 -6 3 -18 -14 -19 -14 -7 2 8 9 19 15 27 12 7 -3 16 0 21 7
5 8 3 10 -7 4 -12 -8 -12 -6 0 8 15 19 26 23 15 5 -5 -7 -2 -9 7 -6 8 4 57 24
109 46 78 33 116 42 210 52 63 6 122 13 130 15 8 1 29 3 45 3 28 -1 28 -1 -5
-7z m-3772 -8 c-10 -2 -26 -2 -35 0 -10 3 -2 5 17 5 19 0 27 -2 18 -5z m145 0
c-7 -2 -21 -2 -30 0 -10 3 -4 5 12 5 17 0 24 -2 18 -5z m1630 0 c-13 -2 -35
-2 -50 0 -16 2 -5 4 22 4 28 0 40 -2 28 -4z m1760 0 c-7 -2 -21 -2 -30 0 -10
3 -4 5 12 5 17 0 24 -2 18 -5z m330 0 c-7 -2 -19 -2 -25 0 -7 3 -2 5 12 5 14
0 19 -2 13 -5z m681 -2 c3 -4 -6 -6 -19 -3 -14 2 -25 6 -25 8 0 8 39 4 44 -5z
m1279 2 c-7 -2 -21 -2 -30 0 -10 3 -4 5 12 5 17 0 24 -2 18 -5z m130 0 c-7 -2
-21 -2 -30 0 -10 3 -4 5 12 5 17 0 24 -2 18 -5z m-6055 -10 c-10 -2 -26 -2
-35 0 -10 3 -2 5 17 5 19 0 27 -2 18 -5z m266 -9 c65 -8 125 -13 133 -10 8 3
12 2 9 -3 -5 -8 177 -86 201 -86 6 0 15 -4 20 -9 5 -5 2 -6 -7 -1 -13 8 -13 7
-1 -8 16 -20 36 -23 25 -4 -4 7 -3 9 2 4 5 -5 9 -14 9 -20 0 -7 8 -12 17 -12
9 0 20 -4 25 -9 5 -5 2 -6 -7 -2 -8 4 -1 -4 15 -18 17 -14 35 -24 42 -22 13 5
46 -28 49 -51 2 -9 18 -30 36 -47 l33 -31 -30 35 -30 35 32 -29 c17 -15 29
-34 27 -40 -3 -7 6 -21 18 -32 l23 -19 -20 25 -20 25 28 -24 c26 -23 38 -49
17 -36 -6 4 4 -23 22 -59 17 -36 35 -63 40 -60 4 3 5 -3 1 -12 -5 -13 -3 -15
7 -9 9 5 11 4 6 -3 -4 -6 0 -53 9 -103 17 -97 14 -156 -12 -199 l-14 -25 20
24 c12 13 21 19 21 15 -1 -5 -12 -22 -26 -39 -15 -16 -23 -23 -19 -15 6 13 5
13 -7 0 -8 -8 -20 -21 -28 -29 -12 -11 -12 -12 -1 -6 9 5 12 4 7 -3 -4 -6 -14
-8 -23 -5 -9 4 -14 2 -10 -3 3 -5 -2 -10 -11 -11 -9 -1 -35 -6 -57 -12 -25 -7
-250 -11 -615 -13 l-575 -3 580 -5 580 -5 -562 -3 c-442 -1 -563 -5 -563 -14
0 -9 -4 -8 -11 2 -13 18 -12 12 16 -67 13 -37 22 -49 28 -40 6 8 7 5 4 -10 -3
-14 3 -28 17 -40 l21 -18 -20 25 c-27 35 3 5 61 -60 l48 -55 -49 45 -50 45 45
-48 c48 -51 133 -102 152 -91 6 4 8 3 5 -3 -19 -30 202 -69 306 -54 70 10 202
55 213 73 4 5 -4 4 -17 -2 -18 -9 -21 -10 -13 0 6 6 24 13 39 14 15 2 37 14
48 27 l22 23 -25 -19 -25 -20 19 22 c10 13 22 20 27 18 4 -3 29 16 56 42 27
27 32 32 11 13 -54 -48 -47 -33 8 20 26 25 44 39 40 33 -9 -17 -1 -16 34 2 30
16 144 15 158 -1 4 -4 1 -4 -7 1 -10 6 -12 4 -7 -4 5 -7 14 -10 22 -7 15 6 74
-61 73 -84 0 -9 -4 -6 -9 8 -14 33 -21 27 -8 -9 6 -17 8 -51 5 -76 -3 -28 -1
-40 4 -32 14 23 10 0 -6 -30 -8 -16 -36 -45 -62 -64 -26 -20 -64 -53 -83 -74
l-35 -38 45 40 45 40 -39 -42 c-22 -23 -43 -40 -47 -37 -5 3 -22 -2 -39 -11
-34 -18 -41 -31 -7 -15 21 11 21 10 3 -4 -10 -9 -23 -13 -27 -10 -5 3 -22 -2
-39 -11 -34 -18 -41 -31 -7 -15 20 10 21 10 4 -4 -11 -8 -26 -12 -35 -9 -11 5
-13 3 -7 -7 5 -9 4 -11 -3 -6 -7 4 -51 -5 -100 -20 -209 -64 -452 -61 -647 11
-55 20 -111 38 -124 40 -13 2 -29 9 -35 15 -8 10 -5 10 14 1 24 -12 24 -11 5
4 -11 8 -25 13 -33 10 -7 -2 -10 -1 -7 5 7 12 -32 33 -47 24 -7 -4 -8 -3 -4 4
6 10 -4 16 -25 14 -3 -1 -39 33 -80 75 -41 42 -68 72 -61 68 11 -6 12 -3 3 13
-6 12 -17 24 -24 28 -7 5 -6 0 3 -12 13 -17 13 -18 0 -7 -8 6 -23 26 -33 45
l-19 33 22 -25 c25 -30 12 3 -15 35 -9 11 -13 13 -9 5 4 -9 3 -12 -2 -7 -5 5
-10 13 -10 18 -1 5 -2 14 -3 20 0 5 -6 7 -13 3 -7 -4 -8 -3 -4 5 10 15 -13 83
-25 76 -5 -4 -6 0 -3 8 3 8 -2 30 -10 48 -11 24 -14 27 -10 9 4 -19 3 -22 -5
-10 -6 8 -8 23 -5 32 3 10 0 62 -6 116 -14 116 -1 255 30 340 22 58 25 75 10
52 -12 -18 -12 -2 0 25 5 12 9 14 9 6 1 -8 11 5 24 30 12 24 31 58 41 74 18
30 8 20 -30 -30 -19 -24 8 23 44 78 23 34 42 53 26 25 -5 -10 -4 -10 5 -2 7 6
13 19 15 27 3 20 36 58 46 52 10 -6 95 71 95 87 1 7 6 12 13 10 19 -4 73 28
67 38 -3 6 0 7 8 4 8 -3 18 0 23 7 5 8 3 10 -7 4 -8 -5 -11 -4 -6 0 4 5 15 10
25 11 9 2 62 19 117 39 68 26 133 41 205 50 58 7 107 13 110 14 3 0 59 -6 124
-15z m49 9 c-7 -2 -19 -2 -25 0 -7 3 -2 5 12 5 14 0 19 -2 13 -5z m1960 -18
c86 -13 166 -29 177 -35 11 -6 24 -9 29 -6 4 3 17 -1 27 -10 18 -14 18 -15 -3
-4 -39 19 -25 3 22 -25 25 -14 50 -23 57 -19 7 4 8 3 4 -4 -8 -13 30 -36 44
-27 6 4 9 1 8 -6 -2 -6 3 -14 11 -17 9 -3 11 0 6 8 -5 9 -4 11 4 6 6 -4 9 -12
6 -17 -4 -5 1 -9 9 -9 22 0 38 -35 33 -73 -4 -30 -4 -30 -7 8 l-3 40 -9 -50
c-4 -27 -9 -58 -10 -67 -1 -9 -7 -16 -12 -15 -6 1 -10 -5 -11 -13 0 -8 -8 -14
-17 -12 -9 1 -20 -3 -24 -9 -5 -8 -3 -9 7 -4 8 5 11 4 6 0 -13 -15 -106 -4
-256 30 -187 43 -408 74 -397 56 2 -3 -18 -4 -46 -2 -62 4 -161 -23 -210 -58
-24 -17 -42 -40 -51 -66 -12 -36 -12 -44 5 -80 10 -22 15 -29 12 -15 -8 31 -2
25 21 -20 14 -27 15 -33 4 -25 -8 6 -6 2 5 -8 10 -10 25 -16 32 -13 7 3 16 0
20 -6 5 -7 2 -8 -7 -4 -8 4 -3 -1 10 -12 28 -23 171 -63 411 -117 91 -20 197
-50 237 -67 40 -16 78 -26 84 -22 7 4 9 3 6 -3 -8 -12 47 -38 61 -29 5 3 31
-18 58 -47 l49 -52 -50 45 -51 45 53 -53 c29 -29 57 -51 62 -48 5 3 13 0 19
-7 10 -12 12 -17 12 -38 0 -5 5 -7 12 -3 7 5 8 3 3 -5 -4 -7 3 -53 16 -103 16
-63 25 -84 30 -71 5 11 7 1 7 -27 0 -32 -2 -38 -7 -22 -4 18 -11 1 -24 -63
-10 -47 -15 -90 -12 -95 3 -5 -18 -33 -47 -62 -29 -29 -44 -46 -34 -38 18 14
18 14 6 -7 -8 -12 -19 -21 -24 -20 -6 1 -10 -4 -8 -11 1 -8 -2 -11 -8 -7 -13
8 -52 -14 -45 -25 3 -6 0 -7 -8 -4 -8 3 -18 0 -23 -7 -5 -8 -3 -10 6 -4 8 5
11 4 6 -3 -4 -6 -12 -9 -19 -6 -7 2 -21 -3 -32 -12 -11 -8 -14 -12 -6 -8 9 4
12 3 7 -4 -4 -6 -14 -8 -23 -5 -11 4 -14 3 -9 -5 5 -8 1 -10 -10 -5 -13 5 -15
3 -9 -7 5 -9 4 -11 -3 -6 -7 4 -62 -6 -124 -23 -90 -23 -159 -33 -335 -46
-122 -9 -228 -15 -235 -12 -7 3 14 6 47 8 38 1 47 3 25 6 -19 2 -104 13 -188
24 -83 12 -159 19 -167 16 -8 -4 -17 -1 -21 5 -5 7 -2 8 6 3 9 -6 11 -4 6 4
-5 7 -15 10 -23 7 -8 -3 -11 -2 -8 4 7 11 -32 33 -45 25 -5 -3 -12 0 -16 6 -4
8 -3 9 4 5 7 -4 12 -5 12 -2 0 10 -70 47 -79 42 -5 -4 -13 -1 -17 5 -5 8 -3 9
6 4 9 -6 11 -4 6 4 -5 7 -14 10 -22 7 -8 -3 -13 0 -11 6 1 6 -4 13 -12 16 -9
3 -11 0 -6 -9 5 -8 4 -11 -1 -6 -5 5 -9 12 -10 15 0 4 -3 14 -7 22 -9 25 -16
105 -8 91 6 -9 10 -7 14 8 3 13 1 19 -5 15 -6 -4 -5 3 1 15 7 11 27 28 46 36
19 7 35 17 35 20 0 3 -10 0 -22 -6 -19 -9 -21 -9 -11 1 20 21 132 12 328 -27
287 -57 497 -56 605 2 25 15 86 62 63 50 -7 -3 -13 -2 -13 3 0 6 6 12 14 15
25 10 29 62 8 111 -19 43 -53 73 -71 62 -4 -3 -17 1 -27 10 -18 14 -18 15 4 4
12 -6 22 -8 22 -6 0 10 -60 37 -123 56 -93 28 -469 123 -494 124 -11 1 -19 4
-17 7 6 11 -93 52 -107 44 -7 -5 -10 -4 -6 2 4 6 -5 15 -19 22 -31 14 -44 14
-24 0 13 -9 13 -10 0 -6 -8 2 -14 9 -13 14 1 5 -27 38 -63 74 -35 35 -64 60
-64 56 0 -20 -39 32 -44 58 -5 24 -4 26 3 10 15 -32 12 -9 -9 77 -20 76 -20
84 -6 161 9 47 25 95 38 112 l21 30 -23 -20 -24 -20 23 32 c12 18 27 36 34 40
7 4 7 0 -2 -10 -7 -9 -11 -17 -8 -17 3 0 16 15 28 33 13 18 17 28 8 22 -21
-14 14 17 37 33 11 7 13 10 5 6 -9 -5 -12 -3 -7 4 4 6 12 9 19 6 7 -2 21 3 32
12 11 8 14 12 6 8 -9 -5 -12 -3 -7 5 4 6 12 9 17 6 5 -3 28 5 51 18 63 35 219
75 333 85 179 16 283 13 448 -13z m1737 15 c8 -5 11 -10 5 -10 -5 0 -17 5 -25
10 -8 5 -10 10 -5 10 6 0 17 -5 25 -10z m1833 3 c-7 -2 -21 -2 -30 0 -10 3 -4
5 12 5 17 0 24 -2 18 -5z m237 -9 c101 -13 146 -25 234 -60 60 -24 112 -41
117 -39 4 3 11 0 15 -6 5 -8 3 -9 -6 -4 -9 6 -11 4 -6 -4 5 -7 14 -10 21 -7 8
3 19 -3 27 -12 12 -16 11 -16 -7 -2 -19 14 -19 14 -6 -3 8 -10 20 -16 27 -13
7 3 18 -3 26 -12 12 -16 11 -16 -7 -2 -19 14 -19 14 -6 -3 8 -10 20 -16 27
-13 7 3 16 0 20 -6 5 -7 2 -8 -7 -3 -12 8 -12 6 0 -8 16 -20 36 -23 25 -4 -4
6 11 -5 34 -27 22 -21 38 -44 36 -51 -3 -6 22 -39 54 -73 33 -34 56 -59 51
-56 -5 3 -6 -2 -3 -10 3 -9 11 -13 17 -9 6 4 7 1 2 -7 -8 -13 44 -132 55 -125
8 5 30 -39 30 -58 -1 -7 -8 2 -16 18 -8 17 -12 21 -8 10 3 -11 13 -69 22 -129
13 -93 14 -123 3 -215 -7 -58 -19 -121 -27 -140 -20 -49 -16 -53 7 -6 10 22
19 35 19 28 0 -19 -32 -83 -40 -78 -11 7 -53 -92 -45 -106 5 -7 4 -10 -2 -6
-6 4 -14 0 -17 -9 -4 -10 -2 -13 7 -9 6 4 0 -3 -14 -14 -15 -11 -44 -42 -65
-68 -23 -29 -28 -40 -14 -28 19 16 18 12 -7 -20 -32 -41 -92 -100 -79 -77 11
18 -9 15 -25 -5 -12 -14 -12 -16 0 -8 9 5 12 4 7 -3 -4 -6 -13 -9 -20 -6 -7 3
-19 -3 -27 -13 -13 -17 -13 -17 6 -3 18 14 19 14 7 -2 -8 -9 -19 -15 -25 -12
-7 2 -25 -8 -42 -22 -16 -14 -23 -22 -15 -18 9 4 12 3 7 -2 -5 -5 -14 -9 -20
-9 -28 0 -136 -48 -130 -58 3 -6 1 -7 -6 -3 -16 10 -53 -3 -45 -16 4 -6 3 -8
-2 -5 -6 3 -70 -3 -144 -13 -125 -17 -143 -18 -250 -4 -86 12 -141 26 -217 56
-56 22 -107 37 -113 33 -6 -3 -9 -1 -8 6 2 6 -3 14 -11 17 -8 3 -11 0 -7 -7
11 -17 0 -13 -15 6 -12 14 -12 16 1 9 8 -4 2 4 -15 18 -16 14 -35 24 -42 22
-6 -3 -17 3 -25 12 -11 15 -11 16 2 7 9 -5 4 0 -10 13 -14 12 -30 20 -36 18
-11 -4 -36 19 -79 74 l-20 25 30 -25 c17 -14 3 2 -31 35 -55 54 -102 117 -75
101 5 -4 -4 25 -21 63 -17 39 -35 69 -41 68 -5 -1 -12 4 -15 12 -2 8 0 11 5 8
6 -4 5 14 -2 41 -32 120 -38 222 -21 336 9 60 14 111 11 114 -3 3 -5 -5 -5
-18 0 -13 -3 -21 -6 -17 -9 9 5 59 14 53 5 -3 30 42 58 99 27 57 44 99 38 94
-7 -5 -17 -23 -24 -40 -7 -16 -15 -28 -17 -25 -9 9 21 52 71 101 28 28 66 70
85 95 34 46 19 32 -57 -55 -33 -37 -36 -40 -14 -10 34 46 117 136 107 118 -3
-7 -3 -13 0 -13 8 0 115 81 115 87 0 3 -8 -1 -17 -8 -16 -13 -17 -12 -5 3 8 9
19 15 26 12 7 -3 19 3 27 13 13 17 13 17 -6 3 -18 -14 -19 -14 -7 2 8 10 20
14 29 11 12 -5 14 -3 8 7 -5 9 -4 11 4 6 13 -8 173 52 167 63 -2 3 12 7 33 9
32 2 219 27 231 31 2 0 61 -6 130 -15z m43 9 c-7 -2 -19 -2 -25 0 -7 3 -2 5
12 5 14 0 19 -2 13 -5z m-6852 -23 c-13 -11 -28 -20 -35 -20 -6 0 3 9 19 19
39 25 46 25 16 1z m1112 13 c-7 -2 -19 -2 -25 0 -7 3 -2 5 12 5 14 0 19 -2 13
-5z m3157 -3 c-8 -5 -19 -10 -25 -10 -5 0 -3 5 5 10 8 5 20 10 25 10 6 0 3 -5
-5 -10z m2223 3 c-7 -2 -19 -2 -25 0 -7 3 -2 5 12 5 14 0 19 -2 13 -5z m440 0
c-7 -2 -19 -2 -25 0 -7 3 -2 5 12 5 14 0 19 -2 13 -5z m-3830 -10 c-7 -2 -19
-2 -25 0 -7 3 -2 5 12 5 14 0 19 -2 13 -5z m71 -12 c3 -4 -6 -6 -19 -3 -14 2
-25 6 -25 8 0 8 39 4 44 -5z m-2640 -21 c-28 -10 -62 -23 -75 -30 -17 -9 -21
-9 -13 -1 13 14 103 50 124 50 8 0 -8 -9 -36 -19z m676 10 c8 -5 11 -10 5 -10
-5 0 -17 5 -25 10 -8 5 -10 10 -5 10 6 0 17 -5 25 -10z m5840 -10 c8 -5 11
-10 5 -10 -5 0 -17 5 -25 10 -8 5 -10 10 -5 10 6 0 17 -5 25 -10z m-5790 -10
c8 -5 11 -10 5 -10 -5 0 -17 5 -25 10 -8 5 -10 10 -5 10 6 0 17 -5 25 -10z
m2890 0 c-8 -5 -19 -10 -25 -10 -5 0 -3 5 5 10 8 5 20 10 25 10 6 0 3 -5 -5
-10z m742 -12 c13 -13 17 -18 8 -12 -8 6 -24 16 -35 22 -11 6 -15 12 -8 12 7
0 22 -10 35 -22z m-5002 -3 c-14 -8 -29 -14 -35 -14 -5 0 1 6 15 14 14 8 30
14 35 14 6 0 -1 -6 -15 -14z m7210 5 c8 -5 11 -10 5 -10 -5 0 -17 5 -25 10 -8
5 -10 10 -5 10 6 0 17 -5 25 -10z m-5784 -16 c18 -14 18 -14 -6 -3 -31 14 -36
19 -24 19 6 0 19 -7 30 -16z m904 11 c0 -2 -10 -9 -22 -15 -22 -11 -22 -10 -4
4 21 17 26 19 26 11z m1080 -31 c0 -2 -9 0 -20 6 -11 6 -20 13 -20 16 0 2 9 0
20 -6 11 -6 20 -13 20 -16z m-3682 9 c-16 -2 -40 -2 -55 0 -16 2 -3 4 27 4 30
0 43 -2 28 -4z m5879 -1450 c-1 -258 -2 -47 -2 467 0 514 1 725 2 468 2 -258
2 -678 0 -935z m653 1383 c0 -3 -15 -14 -32 -26 l-33 -22 30 26 c31 27 35 29
35 22z m-4167 -146 c-3 -12 -8 -19 -11 -16 -5 6 5 36 12 36 2 0 2 -9 -1 -20z
m5447 -30 c23 -27 40 -50 37 -50 -3 0 -24 23 -47 50 -23 28 -40 50 -37 50 3 0
24 -22 47 -50z m-4772 33 c-16 -2 -40 -2 -55 0 -16 2 -3 4 27 4 30 0 43 -2 28
-4z m170 0 c-15 -2 -42 -2 -60 0 -18 2 -6 4 27 4 33 0 48 -2 33 -4z m75 -10
c-7 -2 -21 -2 -30 0 -10 3 -4 5 12 5 17 0 24 -2 18 -5z m50 -10 c-7 -2 -19 -2
-25 0 -7 3 -2 5 12 5 14 0 19 -2 13 -5z m-443 -7 c0 -2 -9 -6 -20 -9 -11 -3
-18 -1 -14 4 5 9 34 13 34 5z m-50 -19 c0 -2 -10 -12 -22 -23 l-23 -19 19 23
c18 21 26 27 26 19z m853 -44 c-13 -2 -35 -2 -50 0 -16 2 -5 4 22 4 28 0 40
-2 28 -4z m-1623 -77 c0 -12 -5 -7 -19 24 -11 24 -11 24 3 6 9 -11 16 -24 16
-30z m2071 7 c-12 -20 -14 -14 -5 12 4 9 9 14 11 11 3 -2 0 -13 -6 -23z m-25
-60 c-8 -15 -15 -25 -16 -21 0 12 23 58 27 54 3 -2 -2 -17 -11 -33z m2120 -10
c-8 -15 -15 -25 -16 -21 0 12 23 58 27 54 3 -2 -2 -17 -11 -33z m-6663 -20
c-7 -2 -21 -2 -30 0 -10 3 -4 5 12 5 17 0 24 -2 18 -5z m110 0 c-7 -2 -21 -2
-30 0 -10 3 -4 5 12 5 17 0 24 -2 18 -5z m-209 -38 l-33 -36 -4 -152 -3 -152
-2 150 -2 150 31 38 c17 20 34 37 38 37 5 0 -7 -16 -25 -35z m925 -4 c-6 -18
-13 -30 -15 -28 -2 2 1 18 7 36 6 18 13 30 15 28 2 -2 -1 -18 -7 -36z m-556
12 c-7 -2 -19 -2 -25 0 -7 3 -2 5 12 5 14 0 19 -2 13 -5z m65 -10 c-10 -2 -26
-2 -35 0 -10 3 -2 5 17 5 19 0 27 -2 18 -5z m165 0 c-7 -2 -19 -2 -25 0 -7 3
-2 5 12 5 14 0 19 -2 13 -5z m2044 -25 c-3 -7 -5 -2 -5 12 0 14 2 19 5 13 2
-7 2 -19 0 -25z m-2109 15 c-16 -2 -40 -2 -55 0 -16 2 -3 4 27 4 30 0 43 -2
28 -4z m4069 -75 c-2 -13 -4 -5 -4 17 -1 22 1 32 4 23 2 -10 2 -28 0 -40z
m-3700 10 c-3 -7 -5 -2 -5 12 0 14 2 19 5 13 2 -7 2 -19 0 -25z m7590 -15 c-3
-10 -5 -2 -5 17 0 19 2 27 5 18 2 -10 2 -26 0 -35z m-5840 0 c-3 -10 -5 -4 -5
12 0 17 2 24 5 18 2 -7 2 -21 0 -30z m1003 27 c20 -6 21 -8 5 -8 -11 0 -31 4
-45 8 -20 6 -21 8 -5 8 11 0 31 -4 45 -8z m63 -17 c-7 -2 -19 -2 -25 0 -7 3
-2 5 12 5 14 0 19 -2 13 -5z m2994 -35 c-3 -7 -5 -2 -5 12 0 14 2 19 5 13 2
-7 2 -19 0 -25z m-4050 -35 c-3 -10 -5 -4 -5 12 0 17 2 24 5 18 2 -7 2 -21 0
-30z m1930 -10 c-3 -10 -5 -2 -5 17 0 19 2 27 5 18 2 -10 2 -26 0 -35z m-1547
-50 c0 -8 -9 0 -50 45 l-45 47 48 -45 c26 -24 47 -45 47 -47z m5457 55 c-3 -7
-5 -2 -5 12 0 14 2 19 5 13 2 -7 2 -19 0 -25z m-7610 -10 c-3 -7 -5 -2 -5 12
0 14 2 19 5 13 2 -7 2 -19 0 -25z m3103 22 c11 -8 7 -9 -15 -4 -37 8 -45 14
-19 14 10 0 26 -5 34 -10z m50 -20 c8 -5 11 -10 5 -10 -5 0 -17 5 -25 10 -8 5
-10 10 -5 10 6 0 17 -5 25 -10z m2657 -22 c-3 -7 -5 -2 -5 12 0 14 2 19 5 13
2 -7 2 -19 0 -25z m-4050 -20 c-3 -7 -5 -2 -5 12 0 14 2 19 5 13 2 -7 2 -19 0
-25z m1930 -55 c-2 -16 -4 -3 -4 27 0 30 2 43 4 28 2 -16 2 -40 0 -55z m3930
35 c-3 -7 -5 -2 -5 12 0 14 2 19 5 13 2 -7 2 -19 0 -25z m-7630 -35 c-3 -10
-5 -2 -5 17 0 19 2 27 5 18 2 -10 2 -26 0 -35z m5810 0 c-3 -10 -5 -4 -5 12 0
17 2 24 5 18 2 -7 2 -21 0 -30z m1820 -25 c-3 -7 -5 -2 -5 12 0 14 2 19 5 13
2 -7 2 -19 0 -25z m-5317 -3 c14 -8 21 -14 15 -14 -5 0 -21 6 -35 14 -14 8
-20 14 -15 14 6 0 21 -6 35 -14z m1397 -52 c-3 -10 -5 -2 -5 17 0 19 2 27 5
18 2 -10 2 -26 0 -35z m2110 15 c-3 -7 -5 -2 -5 12 0 14 2 19 5 13 2 -7 2 -19
0 -25z m-5810 -15 c-3 -10 -5 -4 -5 12 0 17 2 24 5 18 2 -7 2 -21 0 -30z
m7610 -20 c-3 -10 -5 -4 -5 12 0 17 2 24 5 18 2 -7 2 -21 0 -30z m-6014 -10
c-7 -2 -19 -2 -25 0 -7 3 -2 5 12 5 14 0 19 -2 13 -5z m4224 -25 c-3 -7 -5 -2
-5 12 0 14 2 19 5 13 2 -7 2 -19 0 -25z m1780 -25 c-3 -10 -5 -4 -5 12 0 17 2
24 5 18 2 -7 2 -21 0 -30z m-7590 -5 c-3 -7 -5 -2 -5 12 0 14 2 19 5 13 2 -7
2 -19 0 -25z m2666 25 c-7 -2 -19 -2 -25 0 -7 3 -2 5 12 5 14 0 19 -2 13 -5z
m-2233 -48 c0 -5 -5 -3 -10 5 -5 8 -10 20 -10 25 0 6 5 3 10 -5 5 -8 10 -19
10 -25z m5394 -20 c5 -22 4 -26 -4 -15 -5 8 -10 24 -10 34 0 26 6 18 14 -19z
m-7187 -347 c-1 -68 -3 -13 -3 122 0 135 2 190 3 123 2 -68 2 -178 0 -245z
m2861 325 c-10 -2 -26 -2 -35 0 -10 3 -2 5 17 5 19 0 27 -2 18 -5z m2251 -78
c0 -5 -6 1 -14 15 -8 14 -14 30 -14 35 0 6 6 -1 14 -15 8 -14 14 -29 14 -35z
m2121 -10 c0 -5 -5 -3 -10 5 -5 8 -10 20 -10 25 0 6 5 3 10 -5 5 -8 10 -19 10
-25z m-2100 -40 c0 -5 -5 -3 -10 5 -5 8 -10 20 -10 25 0 6 5 3 10 -5 5 -8 10
-19 10 -25z m-2103 -67 c-2 -13 -4 -5 -4 17 -1 22 1 32 4 23 2 -10 2 -28 0
-40z m-1027 -4 c0 -2 -13 2 -30 11 -16 9 -30 18 -30 21 0 2 14 -2 30 -11 17
-9 30 -18 30 -21z m2867 4 c-3 -7 -5 -2 -5 12 0 14 2 19 5 13 2 -7 2 -19 0
-25z m-1404 -5 c-7 -2 -19 -2 -25 0 -7 3 -2 5 12 5 14 0 19 -2 13 -5z m5345
-32 c-13 -15 -25 -27 -27 -25 -4 4 39 54 47 54 2 0 -7 -13 -20 -29z m-6645
-18 c-7 -2 -21 -2 -30 0 -10 3 -4 5 12 5 17 0 24 -2 18 -5z m1630 0 c-7 -2
-19 -2 -25 0 -7 3 -2 5 12 5 14 0 19 -2 13 -5z m5477 -2 c0 -5 10 -13 21 -16
17 -6 19 -9 8 -16 -10 -6 -6 -9 14 -9 20 0 27 -5 27 -19 0 -11 5 -23 10 -26
15 -9 12 -168 -3 -199 -8 -14 -17 -23 -20 -19 -4 3 -7 1 -7 -5 0 -7 -8 -12
-17 -12 -15 0 -16 -2 -3 -10 12 -8 11 -10 -7 -10 -13 0 -22 -5 -20 -12 1 -10
-21 -13 -88 -13 -67 0 -89 3 -87 13 1 7 -8 12 -20 12 -19 0 -20 2 -8 10 11 7
12 10 2 10 -8 0 -22 10 -33 23 -15 18 -18 39 -19 119 0 71 4 100 15 111 8 8
11 17 8 21 -4 3 5 6 18 6 18 0 20 3 10 9 -11 7 -9 10 8 16 11 3 21 11 21 16 0
5 38 9 85 9 47 0 85 -4 85 -9z m-7047 -8 c-7 -2 -21 -2 -30 0 -10 3 -4 5 12 5
17 0 24 -2 18 -5z m155 0 c-10 -2 -28 -2 -40 0 -13 2 -5 4 17 4 22 1 32 -1 23
-4z m1475 0 c-7 -2 -19 -2 -25 0 -7 3 -2 5 12 5 14 0 19 -2 13 -5z m-1560 -10
c-7 -2 -21 -2 -30 0 -10 3 -4 5 12 5 17 0 24 -2 18 -5z m1620 0 c-7 -2 -21 -2
-30 0 -10 3 -4 5 12 5 17 0 24 -2 18 -5z m120 -10 c-18 -2 -48 -2 -65 0 -18 2
-4 4 32 4 36 0 50 -2 33 -4z m125 0 c-15 -2 -42 -2 -60 0 -18 2 -6 4 27 4 33
0 48 -2 33 -4z m-698 -219 c0 -2 -9 0 -20 6 -11 6 -20 13 -20 16 0 2 9 0 20
-6 11 -6 20 -13 20 -16z m2740 -24 c-8 -5 -19 -10 -25 -10 -5 0 -3 5 5 10 8 5
20 10 25 10 6 0 3 -5 -5 -10z m2260 0 c-8 -5 -19 -10 -25 -10 -5 0 -3 5 5 10
8 5 20 10 25 10 6 0 3 -5 -5 -10z m-2900 -10 c8 -5 11 -10 5 -10 -5 0 -17 5
-25 10 -8 5 -10 10 -5 10 6 0 17 -5 25 -10z m-7226 -39 c-2 -3 -12 3 -22 13
-16 17 -16 18 5 5 12 -7 20 -15 17 -18z m7296 9 c8 -5 11 -10 5 -10 -5 0 -17
5 -25 10 -8 5 -10 10 -5 10 6 0 17 -5 25 -10z m-2017 -17 c-7 -2 -19 -2 -25 0
-7 3 -2 5 12 5 14 0 19 -2 13 -5z m70 -10 c-7 -2 -19 -2 -25 0 -7 3 -2 5 12 5
14 0 19 -2 13 -5z m2050 0 c-7 -2 -19 -2 -25 0 -7 3 -2 5 12 5 14 0 19 -2 13
-5z m290 0 c-7 -2 -19 -2 -25 0 -7 3 -2 5 12 5 14 0 19 -2 13 -5z m1830 0 c-7
-2 -19 -2 -25 0 -7 3 -2 5 12 5 14 0 19 -2 13 -5z m430 0 c-7 -2 -19 -2 -25 0
-7 3 -2 5 12 5 14 0 19 -2 13 -5z m-6170 -10 c-13 -2 -33 -2 -45 0 -13 2 -3 4
22 4 25 0 35 -2 23 -4z m330 0 c-13 -2 -33 -2 -45 0 -13 2 -3 4 22 4 25 0 35
-2 23 -4z m1320 0 c-7 -2 -21 -2 -30 0 -10 3 -4 5 12 5 17 0 24 -2 18 -5z
m2050 0 c-7 -2 -21 -2 -30 0 -10 3 -4 5 12 5 17 0 24 -2 18 -5z m145 0 c-10
-2 -26 -2 -35 0 -10 3 -2 5 17 5 19 0 27 -2 18 -5z m1980 0 c-10 -2 -26 -2
-35 0 -10 3 -2 5 17 5 19 0 27 -2 18 -5z m270 0 c-10 -2 -26 -2 -35 0 -10 3
-2 5 17 5 19 0 27 -2 18 -5z m-6000 -10 c-10 -2 -28 -2 -40 0 -13 2 -5 4 17 4
22 1 32 -1 23 -4z m145 0 c-13 -2 -33 -2 -45 0 -13 2 -3 4 22 4 25 0 35 -2 23
-4z m1480 0 c-7 -2 -21 -2 -30 0 -10 3 -4 5 12 5 17 0 24 -2 18 -5z m475 0
c-15 -2 -42 -2 -60 0 -18 2 -6 4 27 4 33 0 48 -2 33 -4z m1580 0 c-10 -2 -26
-2 -35 0 -10 3 -2 5 17 5 19 0 27 -2 18 -5z m2130 0 c-10 -2 -26 -2 -35 0 -10
3 -2 5 17 5 19 0 27 -2 18 -5z m110 0 c-10 -2 -26 -2 -35 0 -10 3 -2 5 17 5
19 0 27 -2 18 -5z m-3950 -10 c-16 -2 -40 -2 -55 0 -16 2 -3 4 27 4 30 0 43
-2 28 -4z m-3950 -10 c-10 -2 -28 -2 -40 0 -13 2 -5 4 17 4 22 1 32 -1 23 -4z
m3835 0 c-7 -2 -21 -2 -30 0 -10 3 -4 5 12 5 17 0 24 -2 18 -5z m5140 -10 c-7
-2 -21 -2 -30 0 -10 3 -4 5 12 5 17 0 24 -2 18 -5z m-2535 -460 c-10 -2 -28
-2 -40 0 -13 2 -5 4 17 4 22 1 32 -1 23 -4z m-1407 -258 c-18 -8 -36 -15 -40
-15 -13 1 45 29 59 29 8 0 0 -6 -19 -14z m49 -6 c-12 -9 -11 -10 8 -6 14 3 20
1 15 -6 -4 -6 0 -8 10 -4 9 3 21 -1 29 -11 12 -16 11 -16 -7 -2 -19 14 -19 14
-6 -2 7 -10 19 -18 26 -18 7 0 19 -8 26 -17 12 -16 12 -17 -1 -8 -9 6 -4 -1
11 -15 30 -28 60 -78 39 -65 -9 6 -9 2 -1 -14 7 -11 14 -21 17 -21 3 0 2 6 -1
13 -4 6 3 1 14 -13 11 -14 21 -29 21 -34 0 -6 -7 -1 -15 10 -11 13 -13 14 -9
3 9 -27 127 -126 195 -163 149 -81 305 -96 469 -47 52 16 95 33 95 39 0 6 4
14 9 19 5 5 6 2 1 -6 -11 -19 1 -13 66 34 38 27 72 64 105 115 27 41 64 95 82
120 l33 45 -36 -39 c-19 -22 -35 -36 -35 -33 0 13 62 77 70 72 4 -3 25 2 46
11 25 10 51 14 78 10 23 -4 51 -8 63 -9 11 -1 19 -6 15 -11 -3 -5 2 -7 10 -3
19 7 53 -27 53 -51 0 -9 6 -17 14 -17 8 0 16 -7 18 -15 4 -13 3 -13 -7 0 -9
12 -10 10 -4 -10 10 -30 12 -160 3 -154 -4 2 -10 -3 -13 -12 -4 -9 -2 -13 5
-8 8 4 7 0 0 -15 -7 -11 -14 -21 -17 -21 -3 0 -2 5 2 12 4 7 3 8 -5 4 -6 -4
-9 -12 -5 -17 9 -15 -75 -138 -105 -154 -14 -7 -37 -26 -51 -42 l-25 -28 35
30 35 30 -29 -32 c-15 -17 -34 -29 -40 -27 -6 2 -25 -10 -41 -28 l-30 -33 33
29 c44 41 41 28 -5 -15 -20 -18 -33 -28 -29 -21 4 6 3 12 -2 12 -15 0 -33 -26
-24 -35 4 -5 1 -5 -7 0 -16 9 -133 -44 -125 -57 3 -4 -2 -5 -10 -2 -8 3 -27
-1 -43 -9 -15 -8 -77 -22 -138 -33 -85 -14 -104 -20 -85 -26 21 -6 20 -7 -5
-2 -16 3 -86 9 -155 14 -92 6 -154 16 -234 40 -59 17 -115 29 -123 26 -9 -4
-11 -2 -7 6 5 8 2 9 -10 5 -10 -4 -15 -3 -11 3 8 12 -72 53 -87 44 -7 -4 -8
-3 -4 4 7 11 -65 55 -82 50 -13 -4 -229 235 -225 248 2 6 -7 19 -19 30 l-23
19 20 -24 c11 -14 15 -21 8 -17 -7 3 -22 21 -35 39 -12 18 -15 26 -6 19 11 -9
8 2 -8 35 -13 25 -24 63 -24 82 0 47 18 111 31 111 6 0 7 5 3 12 -5 7 -3 8 5
3 15 -9 93 24 85 36 -3 5 1 7 8 4 7 -3 31 2 53 10 48 17 66 19 45 4z m1358
-16 c-10 -2 -26 -2 -35 0 -10 3 -2 5 17 5 19 0 27 -2 18 -5z m-1488 -13 c-8
-5 -19 -10 -25 -10 -5 0 -3 5 5 10 8 5 20 10 25 10 6 0 3 -5 -5 -10z m1540 0
c8 -5 11 -10 5 -10 -5 0 -17 5 -25 10 -8 5 -10 10 -5 10 6 0 17 -5 25 -10z
m-286 -165 c-20 -30 -39 -55 -41 -55 -5 0 3 14 39 68 16 23 31 42 34 42 2 0
-12 -25 -32 -55z m419 -62 c-8 -35 -9 -32 -9 31 1 56 3 63 10 38 5 -18 5 -46
-1 -69z m-1786 45 c-3 -7 -5 -2 -5 12 0 14 2 19 5 13 2 -7 2 -19 0 -25z m473
-39 c0 -6 -4 -7 -10 -4 -5 3 -10 11 -10 16 0 6 5 7 10 4 6 -3 10 -11 10 -16z
m850 -12 c0 -2 -12 -14 -27 -28 l-28 -24 24 28 c23 25 31 32 31 24z m-750 -74
c0 -7 -39 17 -46 28 -3 6 5 3 20 -6 14 -10 26 -19 26 -22z m690 23 c0 -3 -15
-14 -32 -26 l-33 -22 30 26 c31 27 35 29 35 22z m-640 -52 c0 -2 -9 0 -20 6
-11 6 -20 13 -20 16 0 2 9 0 20 -6 11 -6 20 -13 20 -16z m495 -34 c-11 -5 -27
-9 -35 -9 -9 0 -8 4 5 9 11 5 27 9 35 9 9 0 8 -4 -5 -9z m-725 -256 c0 -2 -9
0 -20 6 -11 6 -20 13 -20 16 0 2 9 0 20 -6 11 -6 20 -13 20 -16z m1000 -49
c-14 -8 -29 -14 -35 -14 -5 0 1 6 15 14 14 8 30 14 35 14 6 0 -1 -6 -15 -14z
m-110 -50 c-14 -8 -29 -14 -35 -14 -5 0 1 6 15 14 14 8 30 14 35 14 6 0 -1 -6
-15 -14z m-635 -5 c13 -5 14 -9 5 -9 -8 0 -24 4 -35 9 -13 5 -14 9 -5 9 8 0
24 -4 35 -9z m578 -17 c-7 -2 -19 -2 -25 0 -7 3 -2 5 12 5 14 0 19 -2 13 -5z
m-60 -10 c-7 -2 -19 -2 -25 0 -7 3 -2 5 12 5 14 0 19 -2 13 -5z m-220 -20
c-18 -2 -48 -2 -65 0 -18 2 -4 4 32 4 36 0 50 -2 33 -4z"/>
<path d="M1615 3860 c10 -11 20 -20 23 -20 3 0 -3 9 -13 20 -10 11 -20 20 -23
20 -3 0 3 -9 13 -20z"/>
<path d="M1565 2880 c10 -11 20 -20 23 -20 3 0 -3 9 -13 20 -10 11 -20 20 -23
20 -3 0 3 -9 13 -20z"/>
<path d="M1564 2648 l-19 -23 23 19 c21 18 27 26 19 26 -2 0 -12 -10 -23 -22z"/>
<path d="M2220 3295 c40 -48 43 -51 32 -30 -6 11 -21 29 -34 40 -22 19 -22 19
2 -10z"/>
<path d="M2408 3073 c-25 -28 -63 -93 -54 -93 3 0 13 15 22 33 9 17 28 44 42
60 14 15 23 27 21 27 -3 0 -17 -12 -31 -27z"/>
<path d="M2700 3085 c-45 -17 -29 -18 40 0 39 9 46 13 25 13 -16 0 -46 -6 -65
-13z"/>
<path d="M2602 3051 c-24 -10 -48 -24 -53 -32 -5 -8 -9 -10 -9 -6 0 4 -26 -9
-57 -29 -58 -36 -116 -85 -109 -91 2 -2 -19 -26 -45 -54 -27 -27 -49 -54 -49
-60 0 -6 14 6 32 27 58 69 180 168 267 216 90 50 96 58 23 29z m-142 -94 c0
-2 -19 -18 -42 -36 l-43 -32 39 35 c37 34 46 40 46 33z"/>
<path d="M1940 1685 c13 -14 26 -25 28 -25 3 0 -5 11 -18 25 -13 14 -26 25
-28 25 -3 0 5 -11 18 -25z"/>
<path d="M8404 3288 l-19 -23 23 19 c12 11 22 21 22 23 0 8 -8 2 -26 -19z"/>
<path d="M8255 3140 c47 -55 48 -56 37 -35 -6 11 -23 31 -39 45 l-28 25 30
-35z"/>
<path d="M7146 3082 l-19 -27 24 22 c12 12 21 24 18 27 -2 2 -13 -8 -23 -22z"/>
<path d="M7104 3028 l-19 -23 23 19 c12 11 22 21 22 23 0 8 -8 2 -26 -19z"/>
<path d="M7655 2974 c-38 -13 -74 -29 -80 -35 -7 -8 -4 -8 12 0 12 6 28 11 35
11 7 -1 0 -7 -17 -14 -16 -7 -33 -11 -37 -9 -12 7 -117 -78 -112 -90 2 -7 -6
-23 -18 -37 -13 -14 -19 -20 -14 -13 5 7 6 13 3 13 -17 0 -66 -96 -85 -167
-18 -67 -21 -98 -17 -165 6 -81 30 -162 45 -153 5 3 11 -2 14 -11 3 -8 2 -12
-4 -9 -40 25 37 -99 97 -155 l58 -55 -56 60 c-55 59 -85 102 -76 111 2 3 10
-9 17 -25 6 -16 39 -56 73 -88 33 -32 61 -60 61 -63 1 -3 9 -5 18 -4 9 0 15
-3 13 -6 -3 -4 21 -19 53 -33 88 -40 221 -47 327 -17 68 19 165 70 165 86 0 3
-5 2 -12 -2 -7 -4 -8 -3 -4 4 4 6 13 9 20 6 18 -7 77 53 70 70 -3 8 9 25 30
41 28 21 40 43 64 114 27 79 29 98 25 182 -4 95 -27 174 -46 162 -6 -4 -7 -1
-2 6 9 15 -23 91 -38 88 -5 -1 -12 4 -15 12 -3 9 0 11 9 6 8 -4 -13 20 -46 54
-64 67 -108 96 -131 87 -8 -3 -13 -2 -10 3 8 12 -70 45 -85 36 -7 -5 -10 -4
-6 2 10 16 -29 23 -133 22 -74 0 -111 -6 -165 -25z m202 9 c-20 -2 -52 -2 -70
0 -17 2 0 4 38 4 39 0 53 -2 32 -4z m302 -120 c50 -52 51 -53 6 -12 -27 26
-59 51 -70 57 -11 7 -14 12 -7 12 8 0 40 -26 71 -57z m-634 21 c-29 -24 -77
-54 -64 -40 11 12 84 65 89 65 3 0 -8 -11 -25 -25z m-142 -174 c-3 -12 -8 -19
-11 -16 -5 6 5 36 12 36 2 0 2 -9 -1 -20z m925 -150 l-1 -65 -7 70 c-3 39 -10
79 -14 90 -4 12 -1 10 8 -5 10 -16 15 -47 14 -90z m-971 -37 c-3 -10 -5 -2 -5
17 0 19 2 27 5 18 2 -10 2 -26 0 -35z m10 -130 c-2 -16 -4 -3 -4 27 0 30 2 43
4 28 2 -16 2 -40 0 -55z m842 -232 c-7 -10 -21 -24 -33 -31 -15 -9 -12 -3 8
19 34 35 41 39 25 12z m-549 -106 c14 -8 21 -14 15 -14 -5 0 -21 6 -35 14 -14
8 -20 14 -15 14 6 0 21 -6 35 -14z m415 5 c-3 -5 -14 -10 -23 -9 -14 0 -13 2
3 9 27 11 27 11 20 0z m-167 -47 c-15 -2 -42 -2 -60 0 -18 2 -6 4 27 4 33 0
48 -2 33 -4z"/>
<path d="M7105 1970 c10 -11 20 -20 23 -20 3 0 -3 9 -13 20 -10 11 -20 20 -23
20 -3 0 3 -9 13 -20z"/>
<path d="M7146 1918 c10 -14 21 -24 23 -22 3 3 -6 15 -18 27 l-24 22 19 -27z"/>
<path d="M8370 1230 c12 -16 24 -30 26 -30 3 0 -4 14 -16 30 -12 17 -24 30
-26 30 -3 0 4 -13 16 -30z"/>
<path d="M4735 3100 c10 -11 20 -20 23 -20 3 0 -3 9 -13 20 -10 11 -20 20 -23
20 -3 0 3 -9 13 -20z"/>
<path d="M3434 3048 l-19 -23 23 19 c12 11 22 21 22 23 0 8 -8 2 -26 -19z"/>
<path d="M4015 3005 c-83 -13 -190 -58 -180 -75 3 -5 -1 -7 -9 -4 -10 4 -33
-11 -64 -43 -42 -42 -43 -44 -7 -13 23 19 16 11 -14 -19 -38 -37 -55 -61 -53
-75 2 -17 1 -18 -7 -6 -6 8 -11 12 -11 8 0 -4 -9 -30 -20 -57 l-19 -50 474 -1
c377 0 475 2 475 12 0 9 3 8 10 -2 8 -13 -49 -16 -483 -20 l-492 -5 499 -3
c395 -2 497 1 493 11 -38 91 -51 116 -58 111 -5 -3 -9 -3 -9 0 0 2 -3 12 -7
22 -5 13 -3 15 8 9 8 -4 -2 8 -20 28 -19 21 -40 37 -47 37 -6 0 -14 7 -17 15
-4 8 -24 23 -47 35 -22 11 -40 23 -40 25 0 9 63 -26 90 -49 l25 -21 -20 24
c-25 29 -132 84 -147 75 -7 -4 -8 -3 -4 4 8 13 -5 16 -111 32 -83 12 -83 12
-188 -5z m133 -2 c-10 -2 -26 -2 -35 0 -10 3 -2 5 17 5 19 0 27 -2 18 -5z
m-75 -10 c-7 -2 -21 -2 -30 0 -10 3 -4 5 12 5 17 0 24 -2 18 -5z m150 0 c-7
-2 -21 -2 -30 0 -10 3 -4 5 12 5 17 0 24 -2 18 -5z m-230 -10 c-7 -2 -19 -2
-25 0 -7 3 -2 5 12 5 14 0 19 -2 13 -5z m290 0 c-7 -2 -19 -2 -25 0 -7 3 -2 5
12 5 14 0 19 -2 13 -5z m-344 -7 c-10 -9 -89 -46 -89 -41 0 6 72 44 84 45 5 0
7 -2 5 -4z m571 -141 c13 -14 21 -25 18 -25 -2 0 -15 11 -28 25 -13 14 -21 25
-18 25 2 0 15 -11 28 -25z m60 -110 c0 -5 -5 -3 -10 5 -5 8 -10 20 -10 25 0 6
5 3 10 -5 5 -8 10 -19 10 -25z"/>
<path d="M4845 2180 c10 -11 20 -20 23 -20 3 0 -3 9 -13 20 -10 11 -20 20 -23
20 -3 0 3 -9 13 -20z"/>
<path d="M3485 1890 c33 -33 62 -60 64 -60 3 0 -21 27 -54 60 -33 33 -62 60
-64 60 -3 0 21 -27 54 -60z"/>
<path d="M10550 3107 c0 -2 15 -16 33 -33 l32 -29 -29 33 c-28 30 -36 37 -36
29z"/>
<path d="M9810 2971 c-59 -13 -92 -28 -152 -70 -43 -29 -83 -60 -90 -69 -12
-16 -11 -16 8 -2 11 8 6 2 -10 -14 -17 -16 -25 -26 -18 -22 18 11 15 -9 -5
-25 -14 -12 -16 -12 -8 0 5 10 4 12 -4 7 -6 -4 -9 -11 -6 -17 3 -5 -6 -26 -20
-46 -14 -21 -25 -33 -25 -27 0 5 4 15 10 22 6 8 5 8 -4 0 -8 -7 -24 -59 -36
-115 l-20 -103 20 -102 c13 -62 28 -109 38 -118 13 -11 14 -12 4 -1 -6 8 -12
20 -12 25 0 6 11 -6 25 -27 14 -20 23 -41 20 -46 -3 -6 0 -13 6 -17 8 -5 9 -3
4 7 -8 12 -6 12 8 0 20 -16 23 -36 5 -25 -7 4 1 -6 18 -22 16 -16 21 -22 10
-14 -21 15 -21 15 -2 -8 11 -12 26 -20 33 -18 7 3 15 0 19 -6 5 -7 2 -8 -7 -3
-12 8 -12 6 0 -8 15 -19 36 -23 25 -5 -4 7 -3 8 5 4 6 -4 9 -11 6 -16 -12 -19
92 -68 184 -85 90 -17 97 -17 193 0 54 10 107 25 116 33 11 9 12 11 2 6 -9 -4
-12 -3 -7 2 5 5 14 9 20 9 26 0 134 80 157 114 18 28 19 33 5 21 -18 -15 -18
-14 -1 13 17 25 35 40 20 15 -4 -7 -3 -8 4 -4 6 4 9 12 7 19 -3 7 5 23 16 37
11 14 17 18 13 10 -6 -13 -5 -13 8 0 9 8 23 59 33 113 16 91 16 102 0 192 -10
52 -24 102 -32 112 -9 11 -12 12 -8 3 4 -8 -3 -4 -14 10 -11 14 -19 30 -16 37
2 7 -1 15 -7 19 -7 4 -8 3 -4 -4 4 -7 5 -12 2 -12 -3 0 -10 10 -17 21 -8 16
-8 20 1 14 6 -4 2 8 -11 27 -12 19 -61 59 -108 90 -70 46 -101 59 -165 72 -96
20 -140 19 -236 -3z m-110 -56 c0 -2 -20 -18 -45 -35 -25 -17 -45 -29 -45 -26
0 4 80 64 88 66 1 0 2 -2 2 -5z m609 -108 c-2 -3 -15 10 -28 27 l-24 31 28
-27 c16 -15 27 -29 24 -31z m-862 -329 c-3 -7 -5 -2 -5 12 0 14 2 19 5 13 2
-7 2 -19 0 -25z m950 -170 c-3 -7 -5 -2 -5 12 0 14 2 19 5 13 2 -7 2 -19 0
-25z m-87 -141 c0 -2 -12 -14 -27 -28 l-28 -24 24 28 c23 25 31 32 31 24z
m-590 -114 c0 -7 -39 17 -46 28 -3 6 5 3 20 -6 14 -10 26 -19 26 -22z m203
-50 c-7 -2 -19 -2 -25 0 -7 3 -2 5 12 5 14 0 19 -2 13 -5z"/>
<path d="M9205 2000 c10 -11 20 -20 23 -20 3 0 -3 9 -13 20 -10 11 -20 20 -23
20 -3 0 3 -9 13 -20z"/>
<path d="M10574 1898 l-29 -33 33 29 c30 28 37 36 29 36 -2 0 -16 -15 -33 -32z"/>
<path d="M9295 1890 c10 -11 20 -20 23 -20 3 0 -3 9 -13 20 -10 11 -20 20 -23
20 -3 0 3 -9 13 -20z"/>
<path d="M8655 800 c10 -11 20 -20 23 -20 3 0 -3 9 -13 20 -10 11 -20 20 -23
20 -3 0 3 -9 13 -20z"/>
<path d="M7310 760 c6 -11 13 -20 16 -20 2 0 0 9 -6 20 -6 11 -13 20 -16 20
-2 0 0 -9 6 -20z"/>
<path d="M7090 468 c41 -45 50 -53 50 -45 0 2 -21 23 -47 47 l-48 45 45 -47z"/>
<path d="M8630 460 c-6 -11 -8 -20 -6 -20 3 0 10 9 16 20 6 11 8 20 6 20 -3 0
-10 -9 -16 -20z"/>
<path d="M8603 418 c-15 -20 -25 -38 -20 -38 3 0 12 11 21 25 17 26 16 35 -1
13z"/>
<path d="M7190 358 c41 -45 50 -53 50 -45 0 2 -21 23 -47 47 l-48 45 45 -47z"/>
</g>
</svg>
