<?xml version="1.0" standalone="no"?>
<!DOCTYPE svg PUBLIC "-//W3C//DTD SVG 20010904//EN"
 "http://www.w3.org/TR/2001/REC-SVG-20010904/DTD/svg10.dtd">
<svg version="1.0" xmlns="http://www.w3.org/2000/svg"
 width="100%" height="100%" viewBox="0 0 1603.000000 600.000000"
 preserveAspectRatio="xMidYMid meet">
<metadata>
Created by potrace 1.16, written by Peter Selinger 2001-2019
</metadata>
<g transform="translate(0.000000,600.000000) scale(0.100000,-0.100000)" fill="white" fill-rule="evenodd" stroke="none">
<path d="M555 5601 c-56 -9 -101 -38 -133 -86 l-27 -40 0 -1355 0 -1355 24
-48 c100 -203 386 -204 487 -1 18 37 19 68 22 577 l3 537 666 0 c705 0 717 1
781 47 59 44 85 94 84 166 0 79 -32 140 -95 183 l-42 29 -695 5 -695 5 -3 443
-2 442 692 0 c508 1 705 4 738 13 67 18 115 52 147 105 23 38 28 59 28 112 0
55 -5 72 -31 114 -19 32 -48 61 -80 80 l-49 31 -890 1 c-490 1 -908 -1 -930
-5z"/>
<path d="M3053 4801 c-38 -25 -92 -61 -120 -78 l-50 -32 -7 -153 c-3 -84 -7
-331 -7 -548 -1 -217 -4 -528 -8 -690 -3 -162 -4 -369 -1 -460 l5 -165 33 -52
c121 -189 407 -150 470 63 9 30 12 204 12 653 l0 613 45 58 c51 66 74 77 185
87 63 5 100 0 443 -68 121 -23 277 4 379 68 21 13 41 23 45 24 5 0 35 34 68
76 33 42 78 98 100 124 22 26 50 76 63 111 13 35 27 72 32 83 25 59 41 259 24
287 -3 5 -16 0 -28 -11 -12 -12 -78 -46 -147 -76 l-124 -56 -190 2 c-239 3
-300 1 -345 -10 -19 -5 -60 -12 -92 -16 -52 -6 -64 -13 -170 -97 l-113 -91
-62 -121 c-66 -129 -98 -204 -90 -212 2 -3 38 35 79 83 56 67 98 104 173 155
55 37 120 74 145 83 25 10 79 30 120 45 45 16 107 30 155 34 44 4 91 10 105
13 14 3 22 3 19 -1 -4 -4 -35 -14 -70 -22 -35 -8 -102 -24 -149 -36 -47 -11
-110 -34 -140 -52 -30 -17 -77 -43 -104 -56 -26 -14 -74 -47 -105 -75 -32 -27
-80 -69 -107 -93 -27 -24 -69 -67 -94 -97 l-45 -55 -6 298 c-3 193 -10 310
-18 334 -13 41 -91 126 -131 144 -14 6 -44 16 -67 21 -39 9 -44 8 -110 -36z"/>
<path d="M10835 4840 c-22 -4 -80 -13 -130 -20 -85 -11 -235 -61 -340 -113
-63 -31 -262 -184 -292 -225 -16 -20 -54 -69 -85 -108 -46 -57 -128 -204 -128
-229 0 -2 -13 -33 -29 -67 -25 -55 -32 -88 -47 -208 -1 -13 -6 -47 -10 -75
-12 -84 -12 -97 -2 -190 6 -49 11 -101 13 -115 9 -88 21 -143 46 -198 16 -34
29 -65 29 -67 0 -25 82 -172 128 -229 31 -39 69 -87 84 -108 28 -36 227 -192
283 -220 17 -9 66 -30 110 -47 44 -18 93 -38 110 -46 16 -7 55 -16 85 -19 30
-3 89 -10 130 -16 117 -16 317 11 416 56 148 66 184 88 254 149 41 36 78 65
82 65 5 0 74 109 118 188 14 24 16 -18 21 -443 3 -258 9 -486 13 -505 4 -19
20 -54 36 -78 92 -139 298 -153 406 -27 68 78 65 6 62 1421 l-3 1279 -28 58
c-21 43 -39 63 -70 81 -51 29 -161 50 -188 36 -10 -6 -25 -10 -33 -10 -29 0
-93 -55 -120 -101 -25 -46 -26 -52 -26 -220 0 -125 -3 -170 -11 -162 -6 6 -39
56 -72 112 -52 84 -77 113 -152 177 -96 81 -122 96 -249 150 -85 36 -133 49
-253 64 -40 5 -82 11 -95 14 -13 2 -41 1 -63 -4z m425 -520 c103 -47 124 -62
204 -139 91 -88 91 -89 181 -286 18 -40 24 -76 29 -177 l6 -128 -37 -112 c-75
-229 -233 -386 -458 -455 -108 -34 -112 -34 -240 -28 -104 5 -140 11 -180 29
-27 13 -79 36 -115 51 -100 43 -228 172 -282 285 -67 140 -69 147 -78 275 -8
118 -7 128 19 228 16 57 32 111 36 118 110 191 230 298 405 360 l105 38 145
-3 145 -3 115 -53z"/>
<path d="M5840 4819 c-36 -5 -103 -13 -149 -19 -106 -12 -309 -79 -387 -127
-33 -19 -77 -45 -98 -57 -22 -11 -86 -63 -144 -115 -76 -69 -119 -118 -159
-180 -31 -47 -66 -102 -78 -121 -42 -64 -103 -266 -117 -385 -15 -135 -15
-153 1 -285 14 -118 16 -126 65 -265 79 -218 265 -433 491 -567 469 -277 1143
-217 1528 136 104 96 134 136 152 207 33 124 -49 239 -186 264 -79 14 -146
-22 -281 -150 -46 -44 -97 -87 -114 -95 -16 -8 -40 -22 -54 -31 -14 -9 -67
-31 -118 -48 -80 -28 -108 -32 -205 -34 -182 -3 -261 14 -406 86 -121 60 -126
64 -206 157 -45 52 -87 109 -93 125 -6 17 -24 68 -41 114 -17 46 -31 85 -31
87 0 2 375 5 833 6 l832 3 48 33 c26 17 51 32 55 33 15 1 72 100 83 143 12 48
9 122 -10 241 -12 72 -101 281 -142 333 -125 160 -277 294 -416 367 -87 45
-257 108 -313 116 -30 4 -95 12 -145 19 -49 6 -99 13 -110 14 -11 2 -49 0 -85
-5z m260 -438 c34 -5 93 -29 152 -61 78 -41 112 -67 169 -128 39 -42 79 -94
89 -116 24 -53 70 -171 70 -179 0 -4 -308 -7 -684 -7 l-685 0 42 100 c34 81
56 117 116 186 68 79 82 89 182 140 86 43 128 57 196 68 92 15 254 14 353 -3z"/>
<path d="M8310 4820 c-30 -4 -85 -8 -122 -9 -131 -2 -397 -79 -488 -141 -14
-10 -51 -34 -83 -54 -31 -21 -65 -49 -75 -64 -9 -15 -21 -32 -27 -38 -34 -36
-85 -125 -89 -157 -4 -21 -13 -71 -21 -112 -11 -51 -12 -80 -6 -97 6 -12 22
-72 37 -133 l26 -110 87 -89 c80 -82 95 -93 210 -148 152 -72 217 -95 436
-148 394 -95 468 -118 563 -173 73 -43 77 -47 104 -111 l29 -67 -18 -55 c-15
-48 -26 -62 -75 -100 -32 -24 -63 -44 -69 -44 -5 0 -40 -10 -77 -22 -59 -20
-89 -22 -247 -22 -174 0 -200 2 -395 42 -80 16 -91 18 -270 52 -167 32 -244
15 -297 -64 -22 -34 -27 -52 -27 -110 l-1 -69 155 -98 c163 -103 170 -105 340
-129 47 -6 106 -15 131 -20 71 -14 350 -32 384 -26 16 4 98 11 180 16 83 6
166 15 185 20 19 6 87 24 150 41 107 29 185 63 251 110 15 10 30 19 34 19 15
0 82 53 105 84 14 18 45 60 70 92 36 48 48 75 63 139 30 136 29 176 -9 313
l-33 123 -102 97 c-56 53 -111 101 -123 106 -11 5 -45 20 -74 33 -29 13 -55
23 -57 23 -2 0 -30 12 -61 26 -31 14 -98 36 -148 49 -78 19 -142 34 -371 85
-22 5 -53 12 -70 15 -105 21 -261 76 -318 112 -23 15 -51 32 -62 38 -11 6 -32
41 -48 80 -27 67 -27 70 -12 121 31 107 147 170 340 184 109 9 300 -1 392 -20
79 -16 315 -69 383 -86 192 -49 292 23 282 203 -2 34 0 32 -227 165 -86 51
-130 69 -187 77 -35 6 -117 19 -183 31 -132 23 -375 34 -465 20z"/>
<path d="M13859 4826 c-5 -5 -114 -20 -239 -32 -48 -5 -267 -82 -343 -121 -15
-7 -81 -52 -147 -99 -83 -60 -135 -106 -172 -152 -29 -36 -73 -90 -97 -120
-57 -72 -160 -298 -171 -377 -5 -33 -14 -96 -21 -140 -16 -99 -16 -118 0 -225
7 -47 16 -110 20 -140 14 -97 119 -319 188 -401 27 -31 66 -78 88 -106 22 -28
96 -92 164 -142 107 -81 141 -100 265 -150 104 -42 165 -60 231 -70 50 -7 114
-16 144 -22 69 -11 128 -12 205 0 34 5 102 15 151 22 50 7 95 15 100 19 6 4
28 13 50 20 22 7 45 16 50 19 6 4 44 20 85 36 60 22 170 90 255 157 6 5 22 18
38 29 15 12 72 74 126 138 83 99 107 135 151 232 64 140 79 187 86 264 3 32 7
62 9 65 3 6 18 125 17 145 0 6 -7 67 -16 137 -17 136 -31 187 -76 283 -16 33
-40 85 -53 115 -40 87 -200 270 -303 346 -145 106 -168 121 -194 129 -14 4
-43 15 -65 25 -112 48 -206 79 -255 84 -99 10 -216 25 -241 31 -14 3 -27 4
-30 1z m156 -483 c129 -27 130 -27 245 -104 112 -76 117 -81 187 -186 70 -106
80 -130 103 -248 7 -33 17 -75 22 -93 9 -31 3 -70 -43 -270 -5 -25 -40 -89
-82 -151 -69 -104 -76 -111 -185 -185 -93 -63 -126 -80 -180 -92 -213 -46
-215 -46 -256 -35 -23 6 -75 17 -117 26 -103 20 -99 18 -224 101 -107 71 -112
76 -184 185 -58 86 -78 125 -88 173 -7 33 -19 89 -26 123 -16 76 -15 102 11
228 26 127 28 130 110 250 64 93 76 105 178 174 108 73 128 81 234 102 30 6
71 14 90 19 56 12 68 11 205 -17z"/>
<path d="M15330 2975 c0 -9 -9 -15 -25 -15 -16 0 -25 -6 -25 -15 0 -8 -7 -15
-15 -15 -8 0 -15 -6 -15 -14 0 -8 -7 -16 -15 -20 -8 -3 -15 -17 -15 -31 0 -14
-4 -25 -10 -25 -6 0 -10 -38 -10 -95 0 -57 4 -95 10 -95 6 0 10 -13 10 -30 0
-20 5 -30 15 -30 8 0 15 -7 15 -15 0 -8 7 -15 15 -15 8 0 15 -9 15 -20 0 -15
7 -20 25 -20 16 0 25 -6 25 -15 0 -12 17 -15 90 -15 73 0 90 3 90 15 0 9 9 15
25 15 18 0 25 5 25 20 0 11 7 20 15 20 8 0 15 7 15 15 0 8 7 15 15 15 10 0 15
10 15 30 0 20 5 30 15 30 12 0 15 17 15 90 0 71 -3 92 -15 96 -9 4 -15 19 -15
35 0 19 -5 29 -15 29 -8 0 -15 7 -15 15 0 8 -7 15 -15 15 -8 0 -15 7 -15 15 0
9 -9 15 -25 15 -16 0 -25 6 -25 15 0 12 -17 15 -90 15 -73 0 -90 -3 -90 -15z"/>
<path d="M9941 1407 l-114 -52 -13 -50 c-20 -75 -17 -121 11 -176 37 -75 75
-127 167 -226 46 -49 117 -128 160 -175 70 -77 88 -91 215 -160 101 -56 165
-83 238 -103 55 -15 127 -36 159 -46 33 -11 84 -19 115 -19 31 0 106 -5 168
-10 97 -9 125 -7 215 10 56 11 130 25 163 31 33 6 83 22 110 34 28 13 93 44
145 68 62 29 116 63 155 98 33 30 82 72 109 94 74 60 228 300 245 382 26 123
-28 229 -147 284 -72 33 -108 36 -172 12 -71 -26 -99 -55 -200 -206 -91 -135
-99 -145 -190 -210 -81 -57 -112 -73 -206 -102 -106 -33 -120 -35 -255 -35
-132 0 -151 2 -243 31 -55 17 -116 40 -135 51 -106 59 -132 78 -203 141 -45
40 -91 94 -112 129 -20 32 -36 62 -36 64 0 18 -85 125 -117 147 -34 23 -96 49
-113 46 -3 0 -56 -24 -119 -52z"/>
</g>
</svg>
