<?xml version="1.0" standalone="no"?>
<!DOCTYPE svg PUBLIC "-//W3C//DTD SVG 20010904//EN"
 "http://www.w3.org/TR/2001/REC-SVG-20010904/DTD/svg10.dtd">
<svg version="1.0" xmlns="http://www.w3.org/2000/svg"
 width="100%" height="100%" viewBox="0 0 3195.000000 600.000000"
 preserveAspectRatio="xMidYMid meet">
<metadata>
Created by potrace 1.16, written by Peter Selinger 2001-2019
</metadata>
<g transform="translate(0.000000,600.000000) scale(0.100000,-0.100000)" fill="white" fill-rule="evenodd" stroke="none">
<path d="M29630 5400 c-131 -6 -144 -9 -416 -87 l-281 -81 -154 -114 c-85 -63
-182 -134 -217 -158 l-63 -45 -118 -235 -118 -235 -12 -140 -13 -140 56 -249
c31 -137 62 -256 69 -265 6 -9 82 -96 167 -195 l155 -179 120 -57 c66 -32 182
-87 257 -124 l137 -66 143 -16 c79 -8 220 -24 313 -35 214 -24 338 -24 485 0
63 11 149 24 190 30 50 8 135 35 255 83 166 66 191 79 325 174 135 96 152 112
244 227 l99 124 48 179 c49 182 75 352 55 360 -6 2 -391 3 -856 2 l-845 -3 0
-65 0 -65 774 -3 773 -2 -7 -68 c-5 -45 -16 -83 -35 -117 -16 -27 -60 -108
-98 -178 l-69 -128 -169 -126 c-175 -129 -223 -156 -384 -216 -128 -47 -411
-97 -546 -97 -180 1 -356 17 -434 40 -41 12 -155 44 -254 71 -98 27 -184 52
-190 56 -6 4 -96 67 -200 142 l-188 135 -95 195 -95 196 -14 130 c-13 123 -13
134 6 215 11 47 35 151 53 232 l32 147 145 169 c121 142 152 173 190 188 25
10 128 58 230 107 l185 89 297 38 c386 50 436 47 754 -35 120 -32 235 -67 255
-79 21 -11 107 -63 192 -114 l154 -93 117 -152 c105 -137 119 -160 142 -234
l25 -83 85 0 c84 0 85 0 78 23 -4 12 -8 31 -10 42 -1 11 -3 22 -4 25 -1 3 -3
10 -5 15 -1 6 -3 12 -4 15 -2 3 -5 18 -7 34 -7 41 -14 52 -147 233 l-118 160
-213 132 c-200 123 -221 134 -332 165 -162 47 -343 94 -379 100 -53 9 -376 13
-515 6z"/>
<path d="M17970 4185 l0 -1205 1083 2 1082 3 3 68 3 67 -1001 0 -1000 0 -2
1133 -3 1132 -82 3 -83 3 0 -1206z"/>
<path d="M20550 4190 l0 -1200 80 0 80 0 0 1200 0 1200 -80 0 -80 0 0 -1200z"/>
<path d="M21026 5381 c-5 -8 41 -90 278 -496 50 -85 366 -638 526 -920 41 -71
86 -148 101 -170 14 -22 75 -125 134 -230 60 -104 158 -278 220 -385 l111
-195 90 -3 89 -3 119 208 c65 114 129 222 141 238 22 31 88 145 148 255 44 82
288 506 640 1112 209 360 337 585 337 592 0 4 -41 5 -92 4 l-92 -3 -74 -130
c-41 -71 -95 -164 -120 -205 -64 -106 -222 -381 -222 -386 0 -7 -293 -518
-300 -524 -7 -6 -45 -71 -95 -165 -21 -38 -118 -211 -216 -382 -99 -172 -179
-315 -179 -317 0 -3 -17 -34 -38 -71 l-39 -66 -77 133 c-43 73 -108 185 -145
248 -37 63 -78 135 -91 160 -63 116 -306 541 -336 586 -18 29 -55 94 -80 145
-26 52 -50 96 -54 99 -7 6 -340 587 -340 594 0 10 -154 272 -164 278 -16 11
-174 10 -180 -1z"/>
<path d="M24277 5384 c-4 -4 -7 -544 -7 -1201 l0 -1193 85 0 85 0 -2 1198 -3
1197 -75 3 c-42 1 -79 0 -83 -4z"/>
<path d="M25117 5383 c-4 -3 -7 -546 -7 -1205 l0 -1198 85 0 85 0 2 1091 3
1092 642 -597 c354 -328 662 -617 685 -643 24 -25 72 -69 108 -98 36 -29 137
-122 225 -207 88 -86 196 -187 240 -225 44 -38 119 -107 166 -154 47 -46 128
-123 181 -171 l95 -88 87 0 86 0 0 1205 0 1205 -80 0 -80 0 -2 -1096 -3 -1095
-570 529 c-313 291 -844 784 -1180 1095 l-610 567 -76 0 c-42 0 -79 -3 -82 -7z"/>
<path d="M5120 5349 c-74 -5 -202 -20 -285 -35 -149 -26 -152 -27 -400 -141
-137 -63 -256 -120 -262 -125 -7 -6 -78 -93 -158 -194 l-146 -183 -35 -178
c-19 -98 -36 -191 -37 -208 -2 -17 -6 -35 -9 -40 -6 -10 -2 -271 5 -362 2 -23
10 -49 18 -59 8 -9 12 -19 10 -21 -2 -2 36 -93 83 -202 l87 -198 66 -48 c36
-27 75 -58 87 -70 11 -13 75 -63 141 -111 l120 -89 180 -44 c99 -24 221 -55
270 -68 117 -33 405 -51 636 -41 167 8 217 16 594 100 l140 32 196 130 197
131 100 188 c99 185 101 190 116 295 9 59 16 113 16 120 0 10 -94 12 -442 10
l-441 -3 -12 -50 c-22 -98 -42 -123 -170 -217 -204 -150 -181 -138 -307 -154
-62 -7 -156 -14 -208 -14 -106 0 -121 5 -365 107 l-140 58 -90 165 -89 165 -1
145 -1 146 70 129 c39 72 80 145 90 162 21 33 19 33 291 144 l119 49 136 3
c133 2 138 1 292 -42 l156 -44 110 -116 c85 -91 110 -124 116 -154 l7 -37 434
0 c341 0 435 3 435 13 0 6 -11 53 -25 102 -13 50 -37 138 -53 198 l-30 107
-142 148 -142 147 -137 58 c-354 151 -297 135 -656 173 -176 18 -338 33 -360
32 -22 0 -101 -5 -175 -9z"/>
<path d="M12445 5349 c-77 -5 -215 -22 -307 -39 -165 -30 -170 -31 -360 -120
-106 -49 -218 -102 -250 -117 -50 -25 -71 -47 -207 -216 l-151 -188 -51 -267
-51 -267 12 -138 12 -139 105 -234 106 -234 204 -151 204 -151 177 -44 c97
-24 224 -56 282 -71 228 -57 731 -57 1030 1 74 15 144 28 155 30 23 5 327 140
424 189 49 25 82 53 144 122 44 50 92 100 108 113 49 40 145 199 149 247 0 3
0 6 1 8 0 1 2 13 5 27 2 14 13 52 24 85 31 98 45 321 31 483 -7 75 -20 161
-28 191 -8 29 -17 61 -18 70 -2 9 -4 17 -5 19 -2 1 -4 7 -5 12 -1 6 -4 12 -5
15 -1 3 -4 10 -5 15 -1 6 -3 11 -4 13 -2 1 -4 14 -6 28 -2 14 -33 75 -70 135
-210 341 -635 537 -1245 574 -182 11 -202 11 -405 -1z m605 -661 l205 -80 52
-87 c29 -47 64 -113 79 -146 15 -33 30 -62 34 -65 15 -11 21 -68 21 -179 l0
-116 -50 -100 c-28 -55 -70 -134 -94 -175 l-42 -75 -150 -58 c-83 -33 -172
-69 -200 -80 -45 -20 -68 -22 -240 -22 l-190 0 -145 57 c-267 104 -246 90
-319 213 -128 215 -132 225 -132 351 0 62 3 124 7 139 8 30 168 324 187 341 7
6 98 45 202 85 213 83 250 89 450 82 l120 -4 205 -81z"/>
<path d="M6995 5277 c-3 -7 -4 -140 -3 -297 l3 -285 508 -3 507 -2 0 -845 0
-845 370 0 370 0 0 845 0 845 508 2 507 3 0 295 0 295 -1383 3 c-1108 2 -1384
0 -1387 -11z"/>
<path d="M1619 5043 c-140 -271 -472 -928 -690 -1363 -81 -162 -193 -382 -249
-488 l-101 -192 413 2 c274 2 413 6 413 13 0 6 36 86 80 178 l79 167 648 0
648 0 75 -150 c41 -83 73 -150 70 -150 -3 0 1 -13 10 -30 l16 -30 404 0 c223
0 405 3 405 8 0 4 -32 70 -72 147 -39 77 -295 585 -568 1130 l-496 990 -481 3
-481 2 -123 -237z m793 -758 c105 -212 189 -387 186 -390 -3 -3 -178 -4 -390
-3 l-385 3 178 362 c98 200 181 374 185 388 3 14 12 25 20 25 8 0 93 -160 206
-385z"/>
<path d="M10040 4140 l0 -1140 365 0 365 0 0 1140 0 1140 -365 0 -365 0 0
-1140z"/>
<path d="M14560 4140 l0 -1140 350 0 350 0 0 720 c0 396 3 720 8 719 4 0 214
-237 467 -526 253 -290 536 -613 630 -720 l170 -193 425 0 425 0 -3 1140 -2
1140 -350 0 -350 0 0 -711 0 -711 -39 33 c-22 19 -40 38 -40 43 -1 10 -190
227 -237 271 -42 40 -179 197 -236 271 -26 32 -60 72 -77 87 -17 15 -166 183
-332 372 l-302 345 -429 0 -428 0 0 -1140z"/>
<path d="M10920 1285 l0 -675 500 0 500 0 0 110 0 110 -375 0 -375 0 0 180 0
180 318 2 317 3 3 103 3 102 -321 0 -320 0 0 175 0 175 360 0 360 0 0 105 0
105 -485 0 -485 0 0 -675z"/>
<path d="M12192 1288 l3 -673 473 -3 472 -2 0 110 0 110 -350 0 -350 0 0 565
0 565 -125 0 -125 0 2 -672z"/>
<path d="M13340 1285 l0 -675 470 0 470 0 0 110 0 110 -350 0 -350 0 0 565 0
565 -120 0 -120 0 0 -675z"/>
<path d="M16010 1280 l0 -680 508 2 507 3 0 110 0 110 -382 3 -383 2 0 180 0
180 330 0 331 0 -3 103 -3 102 -328 3 -327 2 2 173 3 172 368 3 367 2 0 105 0
105 -495 0 -495 0 0 -680z"/>
<path d="M17540 1940 c0 -18 -7 -20 -65 -20 -58 0 -65 -2 -65 -20 0 -16 -7
-20 -35 -20 -25 0 -35 -4 -35 -16 0 -9 -9 -18 -19 -21 -11 -3 -21 -13 -24 -24
-3 -10 -12 -19 -21 -19 -12 0 -16 -10 -16 -35 0 -28 -4 -35 -20 -35 -19 0 -20
-7 -20 -160 0 -153 1 -160 20 -160 16 0 20 -7 20 -34 0 -25 5 -35 20 -39 11
-3 20 -12 20 -20 0 -8 9 -17 20 -20 12 -3 20 -14 20 -26 0 -17 6 -21 35 -21
28 0 35 -4 35 -20 0 -18 7 -20 65 -20 58 0 65 -2 65 -20 0 -18 7 -20 80 -20
73 0 80 -2 80 -20 0 -18 7 -20 80 -20 73 0 80 -2 80 -20 0 -17 7 -20 40 -20
33 0 40 -3 40 -20 0 -13 7 -20 20 -20 19 0 20 -7 20 -95 0 -88 -1 -95 -20 -95
-13 0 -20 -7 -20 -20 0 -18 -7 -20 -81 -20 -72 0 -81 -2 -86 -20 -5 -17 -14
-20 -59 -20 -47 0 -54 2 -54 20 0 19 -7 20 -105 20 -98 0 -105 1 -105 20 0 17
-7 20 -39 20 -31 0 -38 4 -37 18 1 13 -8 18 -35 20 -27 2 -38 9 -42 23 -7 25
-37 25 -37 -1 0 -13 -7 -20 -20 -20 -17 0 -20 -7 -20 -40 0 -33 -3 -40 -20
-40 -18 0 -20 -7 -20 -60 l0 -60 40 0 c33 0 40 -3 40 -20 0 -17 7 -20 40 -20
33 0 40 -3 40 -20 0 -18 7 -20 55 -20 48 0 55 -2 55 -20 0 -19 7 -20 245 -20
238 0 245 1 245 20 0 17 7 20 40 20 33 0 40 3 40 20 0 16 7 20 36 20 27 0 37
5 41 19 3 11 13 21 24 24 10 3 19 12 19 21 0 9 8 16 20 16 13 0 20 7 20 20 0
13 7 20 20 20 17 0 20 7 20 40 0 33 3 40 20 40 19 0 20 7 20 135 0 128 -1 135
-20 135 -13 0 -20 7 -20 20 0 13 -7 20 -20 20 -13 0 -20 7 -20 20 0 13 -7 20
-20 20 -13 0 -20 7 -20 20 0 13 -7 20 -20 20 -15 0 -20 7 -20 25 0 23 -4 25
-40 25 -33 0 -40 3 -40 20 0 18 -7 20 -60 20 -53 0 -60 2 -60 20 0 18 -7 20
-80 20 -64 0 -80 3 -80 15 0 12 -16 15 -80 15 -73 0 -80 2 -80 20 0 17 -7 20
-45 20 -38 0 -45 3 -45 20 0 13 -7 20 -20 20 -18 0 -20 7 -20 80 0 73 2 80 20
80 13 0 20 7 20 20 0 15 7 20 25 20 18 0 25 5 25 20 0 18 7 20 60 20 53 0 60
2 60 20 0 18 7 20 75 20 68 0 75 -2 75 -20 0 -18 7 -20 85 -20 78 0 85 -2 85
-20 0 -17 7 -20 40 -20 33 0 40 -3 40 -20 0 -17 7 -20 40 -20 l40 0 0 40 c0
35 3 40 23 40 21 0 22 4 22 75 l0 75 -42 0 c-36 0 -43 3 -43 20 0 18 -7 20
-60 20 -53 0 -60 2 -60 20 0 19 -7 20 -220 20 -213 0 -220 -1 -220 -20z"/>
<path d="M18740 1940 c0 -18 -7 -20 -60 -20 -53 0 -60 -2 -60 -20 0 -13 -7
-20 -20 -20 -14 0 -20 -6 -18 -17 2 -14 -5 -19 -34 -21 -36 -3 -38 -5 -38 -38
0 -30 -3 -34 -25 -34 -18 0 -25 -5 -25 -20 0 -13 -7 -20 -20 -20 -19 0 -20 -7
-20 -160 0 -153 1 -160 20 -160 16 0 20 -7 20 -35 0 -29 4 -35 21 -35 12 0 23
-8 26 -20 4 -15 14 -20 39 -20 30 0 34 -3 34 -25 0 -18 5 -25 20 -25 13 0 20
-7 20 -20 0 -18 7 -20 60 -20 53 0 60 -2 60 -20 0 -18 7 -20 85 -20 78 0 85
-2 85 -20 0 -18 7 -20 75 -20 68 0 75 -2 75 -20 0 -17 7 -20 45 -20 38 0 45
-3 45 -20 0 -13 7 -20 20 -20 13 0 20 -7 20 -20 0 -13 7 -20 20 -20 18 0 20
-7 20 -55 0 -48 -2 -55 -20 -55 -13 0 -20 -7 -20 -20 0 -13 -7 -20 -20 -20
-13 0 -20 -7 -20 -20 0 -18 -7 -20 -85 -20 -78 0 -85 -2 -85 -20 0 -18 -7 -20
-55 -20 -48 0 -55 2 -55 20 0 19 -7 20 -105 20 -98 0 -105 1 -105 20 0 17 -7
20 -40 20 -33 0 -40 3 -40 20 0 16 -7 20 -34 20 -25 0 -35 5 -39 20 -7 27 -47
27 -47 0 0 -13 -7 -20 -20 -20 -18 0 -20 -7 -20 -60 0 -53 -2 -60 -20 -60 -13
0 -20 -7 -20 -20 0 -13 7 -20 20 -20 13 0 20 -7 20 -20 0 -13 7 -20 20 -20 13
0 20 -7 20 -20 0 -17 7 -20 45 -20 38 0 45 -3 45 -20 0 -18 7 -20 55 -20 48 0
55 -2 55 -20 0 -19 7 -20 245 -20 238 0 245 1 245 20 0 18 7 20 56 20 47 0 57
3 61 19 3 11 13 21 24 24 10 3 19 12 19 20 0 8 9 17 20 20 11 3 20 12 20 21 0
9 7 16 15 16 8 0 15 9 15 20 0 13 7 20 20 20 13 0 20 7 20 20 0 13 7 20 20 20
19 0 20 7 20 155 0 148 -1 155 -20 155 -17 0 -20 7 -20 40 0 33 -3 40 -20 40
-13 0 -20 7 -20 20 0 16 -7 20 -35 20 -31 0 -35 3 -35 25 0 23 -4 25 -40 25
-33 0 -40 3 -40 20 0 18 -7 20 -65 20 -58 0 -65 2 -65 20 0 18 -7 20 -75 20
-60 0 -75 3 -75 15 0 12 -16 15 -85 15 -78 0 -85 2 -85 20 0 13 -7 20 -20 20
-13 0 -20 7 -20 20 0 13 -7 20 -20 20 -13 0 -20 7 -20 20 0 13 -7 20 -20 20
-18 0 -20 7 -20 60 0 53 2 60 20 60 13 0 20 7 20 20 0 13 7 20 20 20 13 0 20
7 20 20 0 18 7 20 65 20 58 0 65 2 65 20 0 18 7 20 75 20 68 0 75 -2 75 -20 0
-18 7 -20 85 -20 78 0 85 -2 85 -20 0 -18 7 -20 60 -20 53 0 60 -2 60 -20 0
-13 7 -20 20 -20 17 0 20 7 20 40 0 32 4 40 18 40 15 0 17 6 14 35 -4 30 -1
35 17 35 28 0 28 36 0 43 -15 4 -20 11 -16 21 5 13 -1 16 -33 16 -33 0 -40 3
-40 20 0 18 -7 20 -60 20 -53 0 -60 2 -60 20 0 19 -7 20 -225 20 -218 0 -225
-1 -225 -20z"/>
<path d="M20470 1940 c0 -18 -7 -20 -65 -20 -58 0 -65 -2 -65 -20 0 -17 -7
-20 -40 -20 -33 0 -40 -3 -40 -20 0 -13 -7 -20 -20 -20 -13 0 -20 -7 -20 -20
0 -14 -7 -20 -21 -20 -18 0 -21 -5 -17 -35 3 -29 1 -35 -14 -35 -17 0 -18 -13
-18 -160 0 -147 1 -160 18 -160 15 0 17 -6 14 -35 -4 -30 -1 -35 17 -35 14 0
21 -6 21 -20 0 -13 7 -20 20 -20 15 0 20 -7 20 -25 0 -22 4 -25 40 -25 33 0
40 -3 40 -20 0 -18 7 -20 65 -20 58 0 65 -2 65 -20 0 -18 7 -20 75 -20 68 0
75 -2 75 -20 0 -18 7 -20 85 -20 78 0 85 -2 85 -20 0 -17 7 -20 40 -20 33 0
40 -3 40 -20 0 -13 7 -20 20 -20 13 0 20 -7 20 -20 0 -15 7 -20 25 -20 22 0
25 -4 25 -35 0 -31 -3 -35 -25 -35 -22 0 -25 -4 -25 -40 0 -33 -3 -40 -20 -40
-13 0 -20 -7 -20 -20 0 -18 -7 -20 -80 -20 -73 0 -80 -2 -80 -20 0 -18 -7 -20
-65 -20 -58 0 -65 2 -65 20 0 19 -7 20 -95 20 -88 0 -95 1 -95 20 0 17 -7 20
-45 20 -38 0 -45 3 -45 20 0 17 -7 20 -40 20 -33 0 -40 3 -40 20 0 12 -7 20
-16 20 -9 0 -18 -9 -21 -20 -3 -11 -12 -20 -19 -20 -10 0 -14 -13 -14 -40 0
-33 -3 -40 -20 -40 -18 0 -20 -7 -20 -60 l0 -60 34 0 c25 0 35 -5 39 -20 4
-15 14 -20 40 -20 26 0 36 -5 40 -20 4 -17 14 -20 66 -20 54 0 61 -2 61 -20 0
-19 7 -20 240 -20 233 0 240 1 240 20 0 18 7 20 60 20 53 0 60 2 60 20 0 13 7
20 20 20 13 0 20 7 20 20 0 13 7 20 20 20 13 0 20 7 20 20 0 13 7 20 20 20 13
0 20 7 20 20 0 13 7 20 20 20 13 0 20 7 20 20 0 13 7 20 20 20 19 0 20 7 20
155 0 148 -1 155 -20 155 -17 0 -20 7 -20 40 0 33 -3 40 -20 40 -13 0 -20 7
-20 20 0 17 -7 20 -40 20 -36 0 -40 3 -40 25 0 22 -4 25 -39 25 -31 0 -38 4
-37 18 1 14 -9 17 -61 20 -55 3 -63 6 -63 22 0 18 -7 20 -80 20 -64 0 -80 3
-80 15 0 12 -16 15 -80 15 -73 0 -80 2 -80 20 0 17 -7 20 -40 20 -33 0 -40 3
-40 20 0 13 -7 20 -20 20 -18 0 -20 7 -20 80 0 73 2 80 20 80 13 0 20 7 20 20
0 13 7 20 20 20 13 0 20 7 20 20 0 18 7 20 59 20 50 0 59 3 57 18 -1 15 10 17
82 20 77 3 82 2 82 -18 0 -18 6 -20 76 -20 67 0 76 -2 81 -20 5 -17 14 -20 64
-20 52 0 59 -2 59 -20 0 -13 7 -20 20 -20 17 0 20 7 20 40 0 33 3 40 20 40 16
0 20 7 20 35 0 28 4 35 20 35 13 0 20 7 20 20 0 13 -7 20 -20 20 -13 0 -20 7
-20 20 0 17 -7 20 -40 20 -33 0 -40 3 -40 20 0 18 -7 20 -60 20 -53 0 -60 2
-60 20 0 19 -7 20 -220 20 -213 0 -220 -1 -220 -20z"/>
<path d="M23358 1855 l-3 -105 222 0 223 0 2 -567 3 -568 125 0 125 0 3 568 2
567 220 0 220 0 0 105 0 105 -569 0 -570 0 -3 -105z"/>
<path d="M24682 1288 l3 -673 505 0 505 0 3 108 3 107 -381 0 -380 0 0 180 0
180 325 0 326 0 -3 103 -3 102 -322 3 -323 2 0 175 0 175 365 0 365 0 0 105 0
105 -495 0 -495 0 2 -672z"/>
<path d="M26200 1940 c0 -18 -7 -20 -60 -20 -53 0 -60 -2 -60 -20 0 -17 -7
-20 -40 -20 -33 0 -40 -3 -40 -20 0 -13 -7 -20 -20 -20 -13 0 -20 -7 -20 -20
0 -13 -7 -20 -20 -20 -16 0 -20 -7 -20 -35 0 -28 -4 -35 -20 -35 -19 0 -20 -7
-20 -156 0 -147 1 -156 20 -161 15 -4 20 -14 20 -39 0 -27 4 -34 20 -34 13 0
20 -7 20 -20 0 -13 7 -20 20 -20 15 0 20 -7 20 -25 0 -22 4 -25 40 -25 33 0
40 -3 40 -20 0 -18 7 -20 60 -20 53 0 60 -2 60 -20 0 -18 7 -20 80 -20 73 0
80 -2 80 -20 0 -18 7 -20 85 -20 78 0 85 -2 85 -20 0 -16 7 -20 34 -20 25 0
35 -5 39 -20 3 -11 12 -20 20 -20 8 0 17 -9 20 -20 3 -12 14 -20 26 -20 17 0
21 -6 21 -35 0 -31 -3 -35 -25 -35 -22 0 -25 -4 -25 -40 0 -33 -3 -40 -20 -40
-13 0 -20 -7 -20 -20 0 -18 -7 -20 -75 -20 -68 0 -75 -2 -75 -20 0 -18 -7 -20
-65 -20 -58 0 -65 2 -65 20 0 19 -7 20 -95 20 -88 0 -95 1 -95 20 0 17 -7 20
-45 20 -38 0 -45 3 -45 20 0 17 -7 20 -40 20 -33 0 -40 3 -40 20 0 13 -7 20
-20 20 -13 0 -20 -7 -20 -20 0 -13 -7 -20 -20 -20 -17 0 -20 -7 -20 -40 0 -33
-3 -40 -20 -40 -18 0 -20 -7 -20 -60 l0 -60 40 0 c33 0 40 -3 40 -20 0 -17 7
-20 40 -20 33 0 40 -3 40 -20 0 -18 7 -20 65 -20 58 0 65 -2 65 -20 0 -19 7
-20 235 -20 228 0 235 1 235 20 0 18 7 20 65 20 58 0 65 2 65 20 0 13 7 20 20
20 13 0 20 7 20 20 0 13 7 20 20 20 13 0 20 7 20 20 0 13 7 20 20 20 13 0 20
7 20 20 0 13 7 20 20 20 13 0 20 7 20 20 0 13 7 20 20 20 19 0 20 7 20 155 0
148 -1 155 -20 155 -17 0 -20 7 -20 40 0 33 -3 40 -20 40 -13 0 -20 7 -20 20
0 17 -7 20 -40 20 -36 0 -40 3 -40 25 0 23 -4 25 -40 25 -33 0 -40 3 -40 20 0
18 -7 20 -65 20 -57 0 -65 2 -63 18 3 15 -7 17 -74 20 -60 2 -78 6 -78 17 0
12 -17 15 -81 15 -72 0 -81 2 -86 19 -4 14 -15 21 -42 23 -27 2 -36 7 -35 21
1 10 -5 17 -17 17 -17 0 -19 8 -19 80 0 73 2 80 20 80 13 0 18 5 13 16 -4 10
1 17 15 21 11 2 22 13 25 24 4 16 14 19 61 19 49 0 56 2 56 20 0 18 7 20 81
20 72 0 81 -2 86 -20 5 -18 14 -20 79 -20 67 0 74 -2 74 -20 0 -18 7 -20 65
-20 58 0 65 -2 65 -20 0 -13 7 -20 20 -20 17 0 20 7 20 40 0 33 3 40 20 40 16
0 20 7 20 34 0 25 5 35 20 39 11 3 20 12 20 21 0 9 -8 16 -20 16 -13 0 -20 7
-20 20 0 17 -7 20 -40 20 -33 0 -40 3 -40 20 0 18 -7 20 -65 20 -58 0 -65 2
-65 20 0 19 -7 20 -220 20 -213 0 -220 -1 -220 -20z"/>
<path d="M8630 1894 c0 -27 5 -37 20 -41 17 -5 20 -14 20 -59 0 -47 2 -54 20
-54 18 0 20 -7 20 -60 0 -53 2 -60 20 -60 18 0 20 -7 20 -65 0 -58 2 -65 20
-65 18 0 20 -7 20 -55 0 -48 2 -55 20 -55 18 0 20 -7 20 -65 0 -58 2 -65 20
-65 18 0 20 -7 20 -60 0 -53 2 -60 20 -60 18 0 20 -7 20 -60 0 -53 2 -60 20
-60 17 0 20 -7 20 -39 0 -30 4 -40 19 -44 16 -4 19 -13 18 -61 -2 -47 1 -56
16 -56 14 0 17 -9 17 -56 0 -47 3 -57 19 -61 15 -4 21 -15 23 -47 l3 -41 135
0 c130 0 135 1 138 21 2 12 12 24 23 27 16 4 19 14 19 61 0 43 3 56 15 56 11
0 15 11 15 40 0 33 3 40 20 40 18 0 20 7 20 61 0 52 3 62 20 66 17 5 20 14 20
59 0 47 2 54 20 54 18 0 20 7 20 60 0 53 2 60 20 60 18 0 20 7 20 65 0 58 2
65 20 65 18 0 20 7 20 55 0 48 2 55 20 55 17 0 20 7 20 40 0 36 3 40 25 40 23
0 25 -4 25 -40 0 -33 3 -40 20 -40 18 0 20 -7 20 -54 0 -45 3 -54 20 -59 17
-4 20 -14 20 -66 0 -48 3 -61 15 -61 12 0 15 -13 15 -56 0 -47 3 -57 20 -61
15 -4 20 -14 20 -40 0 -26 5 -36 20 -40 17 -5 20 -14 20 -64 0 -52 2 -59 20
-59 18 0 20 -7 20 -60 0 -53 2 -60 20 -60 18 0 20 -7 20 -60 0 -53 2 -60 20
-60 15 0 20 -7 20 -25 l0 -25 135 0 135 0 0 45 c0 38 3 45 20 45 18 0 20 7 20
60 0 53 2 60 20 60 18 0 20 7 20 60 0 53 2 60 20 60 17 0 20 7 20 39 0 30 4
40 20 44 17 4 20 14 20 61 0 49 2 56 20 56 18 0 20 7 20 60 0 53 2 60 20 60
18 0 20 7 20 65 0 58 2 65 20 65 18 0 20 7 20 55 0 42 3 55 15 55 12 0 15 14
15 65 0 58 2 65 20 65 18 0 20 7 20 56 0 47 3 57 20 61 17 5 20 14 20 59 0 47
2 54 20 54 17 0 20 7 20 40 l0 40 -115 0 c-108 0 -115 -1 -115 -20 0 -13 -7
-20 -20 -20 -18 0 -20 -7 -20 -55 0 -48 -2 -55 -20 -55 -18 0 -20 -7 -20 -60
0 -53 -2 -60 -20 -60 -17 0 -20 -7 -20 -45 0 -38 -3 -45 -20 -45 -18 0 -20 -7
-20 -60 0 -53 -2 -60 -20 -60 -18 0 -20 -7 -20 -54 0 -45 -3 -54 -20 -59 -17
-4 -20 -14 -20 -66 0 -54 -2 -61 -20 -61 -18 0 -20 -7 -20 -60 0 -47 -3 -60
-15 -60 -12 0 -15 -13 -15 -55 0 -48 -2 -55 -20 -55 -16 0 -20 7 -20 35 0 28
-4 35 -20 35 -18 0 -20 7 -20 60 0 53 -2 60 -20 60 -17 0 -20 7 -20 40 0 33
-3 40 -20 40 -18 0 -20 7 -20 65 0 58 -2 65 -20 65 -18 0 -20 7 -20 55 0 48
-2 55 -20 55 -18 0 -20 7 -20 65 0 58 -2 65 -20 65 -18 0 -20 7 -20 60 0 53
-2 60 -20 60 -18 0 -20 7 -20 54 0 45 -3 54 -20 59 -15 4 -20 14 -20 41 l0 36
-140 0 -140 0 0 -60 c0 -53 -2 -60 -20 -60 -18 0 -20 -7 -20 -55 0 -48 -2 -55
-20 -55 -18 0 -20 -7 -20 -65 0 -58 -2 -65 -20 -65 -18 0 -20 -7 -20 -60 0
-50 -3 -60 -17 -60 -15 0 -18 -8 -15 -55 4 -50 2 -55 -17 -55 -18 0 -21 -6
-21 -45 0 -38 -3 -45 -20 -45 -18 0 -20 -7 -20 -60 0 -53 -2 -60 -20 -60 -16
0 -19 -8 -22 -57 l-3 -58 -37 -3 -38 -3 0 60 c0 54 -2 61 -20 61 -18 0 -20 7
-20 60 0 53 -2 60 -20 60 -18 0 -20 7 -20 65 0 58 -2 65 -20 65 -18 0 -20 7
-20 54 0 45 -3 54 -20 59 -17 4 -20 14 -20 66 0 51 -3 61 -17 61 -15 0 -18 9
-16 56 1 48 -2 57 -18 61 -16 4 -19 15 -19 59 0 47 -2 54 -20 54 -17 0 -20 7
-20 40 l0 40 -140 0 -140 0 0 -36z"/>
<path d="M14490 1266 l0 -664 115 -1 115 -2 0 426 0 425 40 0 c39 0 40 -1 40
-35 0 -28 4 -35 20 -35 13 0 20 -7 20 -20 0 -13 7 -20 20 -20 13 0 20 -7 20
-20 0 -13 7 -20 20 -20 15 0 20 -7 20 -25 0 -18 5 -25 20 -25 13 0 20 -7 20
-20 0 -11 7 -20 15 -20 11 0 15 -11 15 -36 0 -27 5 -37 20 -41 11 -3 20 -14
20 -24 0 -12 7 -19 20 -19 13 0 20 -7 20 -20 0 -13 7 -20 19 -20 10 0 21 -9
24 -20 3 -11 12 -20 21 -20 9 0 16 -7 16 -15 0 -8 9 -15 20 -15 17 0 20 -7 20
-45 0 -38 3 -45 20 -45 13 0 20 -7 20 -20 0 -13 7 -20 20 -20 13 0 20 -7 20
-20 0 -13 7 -20 20 -20 13 0 20 -7 20 -20 0 -13 7 -20 20 -20 13 0 20 -7 20
-20 0 -13 7 -20 18 -20 15 0 17 -6 14 -36 -4 -29 -1 -36 16 -41 12 -3 22 -15
24 -27 3 -20 8 -21 118 -21 l115 0 3 663 2 662 -120 0 -120 0 0 -420 0 -420
-35 0 c-34 0 -35 1 -35 40 0 33 -3 40 -20 40 -13 0 -20 7 -20 20 0 13 -7 20
-20 20 -13 0 -20 7 -20 20 0 13 -7 20 -20 20 -15 0 -20 7 -20 25 0 18 -5 25
-20 25 -13 0 -20 7 -20 20 0 13 -7 20 -20 20 -16 0 -20 7 -20 34 0 25 -5 35
-20 39 -11 3 -20 12 -20 21 0 9 -8 16 -20 16 -13 0 -20 7 -20 20 0 13 -7 20
-20 20 -13 0 -20 7 -20 20 0 12 -7 20 -16 20 -9 0 -18 9 -21 20 -3 11 -12 20
-19 20 -10 0 -14 13 -14 45 0 38 -3 45 -20 45 -13 0 -20 7 -20 20 0 13 -7 20
-20 20 -13 0 -20 7 -20 20 0 13 -7 20 -20 20 -13 0 -20 7 -20 20 0 13 -7 20
-20 20 -11 0 -20 7 -20 15 0 8 -9 15 -20 15 -17 0 -20 7 -20 40 0 33 -3 40
-20 40 -13 0 -20 7 -20 20 0 19 -7 20 -115 20 l-115 0 0 -664z"/>
<path d="M21420 1455 c0 -468 0 -475 20 -475 18 0 20 -7 20 -60 0 -53 2 -60
20 -60 17 0 20 -7 20 -40 0 -33 3 -40 20 -40 13 0 20 -7 20 -20 0 -13 7 -20
20 -20 13 0 20 -7 20 -20 0 -13 7 -20 20 -20 13 0 20 -7 20 -20 0 -17 7 -20
40 -20 33 0 40 -3 40 -20 0 -17 7 -20 39 -20 34 0 38 -3 34 -20 -5 -20 0 -20
216 -20 214 0 221 1 221 20 0 17 7 20 40 20 33 0 40 3 40 20 0 17 7 20 40 20
33 0 40 3 40 20 0 13 7 20 20 20 13 0 20 7 20 20 0 13 7 20 20 20 13 0 20 7
20 20 0 13 7 20 20 20 17 0 20 7 20 40 0 33 3 40 20 40 18 0 20 7 20 60 0 50
3 60 18 60 16 0 17 29 17 475 l0 475 -117 0 -118 0 0 -435 c0 -428 0 -435 -20
-435 -18 0 -20 -7 -20 -60 0 -53 -2 -60 -20 -60 -13 0 -20 -7 -20 -20 0 -13
-7 -20 -20 -20 -13 0 -20 -7 -20 -19 0 -10 -9 -21 -20 -24 -11 -3 -20 -12 -20
-21 0 -14 -20 -16 -160 -16 -153 0 -160 1 -160 20 0 17 -7 20 -41 20 -34 0
-40 3 -35 16 4 11 -1 18 -14 21 -11 3 -20 12 -20 20 0 8 -9 17 -20 20 -18 5
-20 14 -20 84 0 72 -2 79 -20 79 -20 0 -20 7 -20 415 l0 415 -120 0 -120 0 0
-475z"/>
<path d="M22920 1270 l0 -660 125 0 125 0 0 660 0 660 -125 0 -125 0 0 -660z"/>
</g>
</svg>
