<?xml version="1.0" standalone="no"?>
<!DOCTYPE svg PUBLIC "-//W3C//DTD SVG 20010904//EN"
 "http://www.w3.org/TR/2001/REC-SVG-20010904/DTD/svg10.dtd">
<svg version="1.0" xmlns="http://www.w3.org/2000/svg"
 width="100%" height="100%" viewBox="0 0 1201.000000 500.000000"
 preserveAspectRatio="xMidYMid meet">
<metadata>
Created by potrace 1.16, written by Peter Selinger 2001-2019
</metadata>
<g transform="translate(0.000000,500.000000) scale(0.100000,-0.100000)"
fill="white" stroke="none">
<path d="M4953 4784 c-386 -100 -800 -438 -1414 -1154 -30 -36 -65 -76 -76
-90 -12 -14 -38 -46 -59 -71 -22 -25 -64 -76 -94 -114 -82 -101 -165 -201
-235 -285 -35 -41 -94 -113 -132 -160 -38 -47 -76 -86 -84 -87 -8 -1 -39 28
-69 64 -170 204 -453 307 -715 259 -95 -17 -168 -56 -243 -129 -82 -80 -118
-150 -137 -269 -28 -176 18 -370 131 -552 67 -107 79 -124 147 -195 51 -54 51
-54 2 -98 -170 -150 -385 -298 -572 -394 -220 -112 -370 -157 -598 -178 -70
-7 -112 -5 -190 8 -137 23 -227 72 -296 162 -27 34 -49 71 -49 80 0 10 -5 29
-11 43 -23 49 23 122 109 177 21 13 41 39 53 66 16 39 17 48 5 76 -29 69 -106
74 -169 9 -50 -52 -67 -98 -67 -184 1 -89 19 -178 49 -238 36 -71 126 -157
201 -192 78 -36 137 -47 290 -54 127 -7 249 12 405 63 77 25 288 115 309 132
6 5 38 23 71 41 132 72 359 231 480 337 27 24 55 43 63 43 7 0 41 -22 75 -48
156 -120 335 -207 517 -251 46 -11 87 -24 93 -30 6 -6 -7 -33 -40 -78 -83
-113 -123 -172 -123 -183 0 -16 332 -13 351 3 9 6 50 64 92 127 76 116 76 116
174 134 220 42 521 207 710 389 29 28 55 48 58 45 4 -3 -7 -44 -23 -89 -110
-314 -38 -585 164 -620 236 -39 530 118 950 509 73 67 135 122 138 122 4 0 -4
-19 -18 -42 -39 -68 -85 -193 -92 -251 -9 -75 16 -184 55 -241 82 -118 260
-136 430 -44 132 72 257 174 452 370 104 105 189 187 189 184 0 -4 -10 -26
-21 -49 -54 -104 -66 -158 -64 -274 2 -121 12 -150 79 -221 40 -44 69 -58 133
-67 75 -10 149 9 232 60 148 91 383 311 568 530 23 27 45 47 48 43 4 -3 -1
-28 -10 -55 -71 -206 -40 -464 67 -545 120 -91 344 -1 604 244 46 43 86 78 91
78 5 0 26 -12 47 -26 79 -54 209 -40 341 35 44 25 87 51 95 58 8 6 42 34 74
60 107 86 225 209 341 353 17 20 57 70 90 110 33 40 74 91 91 114 50 65 215
229 264 262 92 62 156 70 202 23 29 -29 30 -33 26 -92 -4 -50 -16 -83 -62
-172 -80 -156 -143 -252 -413 -620 -194 -266 -313 -435 -313 -445 0 -6 63 -10
158 -10 178 0 146 -23 325 240 43 63 95 138 115 166 147 204 191 264 283 379
119 151 368 403 454 462 113 77 198 113 280 120 90 7 115 -7 115 -65 0 -41
-19 -111 -36 -132 -6 -8 -19 -31 -29 -50 -9 -19 -56 -86 -104 -148 -47 -62
-97 -128 -111 -146 -14 -19 -52 -67 -86 -107 -225 -274 -356 -517 -382 -714
-24 -176 21 -360 114 -473 193 -232 668 -216 1062 35 173 111 410 329 550 506
184 233 308 490 368 767 23 105 27 420 5 515 -67 306 -258 581 -511 733 -146
89 -337 165 -478 192 -131 24 -271 40 -360 40 -95 0 -95 0 -196 98 -270 262
-706 485 -1171 601 -514 128 -1152 158 -1615 75 -47 -8 -107 -19 -135 -24
-242 -41 -613 -189 -795 -318 -79 -56 -186 -146 -220 -186 -14 -17 -39 -46
-56 -66 -135 -156 -203 -335 -208 -542 -2 -107 -2 -107 -41 -164 -62 -90 -46
-84 -241 -84 -167 0 -174 -1 -174 -20 0 -19 7 -20 143 -20 78 0 148 -4 156 -9
10 -7 -3 -31 -60 -111 -41 -56 -81 -111 -89 -123 -8 -12 -51 -71 -95 -132 -44
-60 -87 -120 -95 -132 -129 -188 -224 -306 -370 -456 -329 -339 -608 -550
-845 -642 -40 -15 -175 -33 -214 -28 -27 4 -49 16 -72 39 -32 33 -32 33 -26
117 5 67 14 102 45 174 65 151 186 341 330 518 98 121 332 348 414 402 105 70
221 103 234 68 11 -28 -16 -70 -66 -102 -82 -54 -101 -121 -44 -158 84 -55
221 92 194 208 -30 133 -174 152 -455 60 -200 -65 -364 -183 -543 -393 -211
-247 -489 -473 -699 -567 -82 -37 -232 -83 -271 -83 -24 0 -24 0 -5 30 10 16
54 82 98 147 44 65 142 208 216 318 75 110 168 247 208 305 40 58 133 195 207
305 75 110 203 299 285 420 82 121 194 285 248 365 54 80 126 186 160 235 34
50 112 164 173 255 62 91 135 198 163 239 27 41 88 131 135 200 47 69 121 177
163 239 43 62 75 117 72 122 -4 6 -60 10 -128 9 -95 0 -143 -6 -214 -25z m67
-40 c0 -7 -53 -86 -125 -184 -31 -41 -63 -86 -73 -100 -9 -14 -53 -74 -96
-135 -44 -60 -96 -133 -115 -162 -20 -28 -102 -143 -182 -255 -80 -111 -295
-412 -478 -668 -183 -256 -354 -494 -380 -530 -27 -36 -75 -103 -107 -149 -33
-46 -76 -107 -96 -135 -21 -28 -50 -69 -65 -91 -15 -22 -62 -87 -103 -143 -41
-57 -82 -113 -90 -125 -54 -80 -122 -168 -127 -163 -3 3 3 38 13 78 15 57 19
110 19 238 0 198 -24 324 -87 462 -40 86 -40 86 33 175 41 49 128 156 194 238
192 236 204 251 325 390 63 72 151 174 195 226 217 254 510 544 720 713 176
141 359 251 512 305 56 19 113 27 113 15z m3430 -359 c660 -51 1267 -271 1686
-609 61 -49 154 -138 154 -147 0 -3 -42 -12 -92 -18 -426 -56 -689 -141 -1163
-378 -93 -47 -204 -105 -245 -128 -206 -117 -624 -343 -695 -376 -44 -20 -96
-40 -115 -44 -19 -4 -91 -34 -160 -66 -128 -59 -287 -107 -435 -130 -106 -17
-420 -18 -436 -2 -9 9 1 30 48 91 62 81 87 121 81 127 -2 2 -45 -12 -97 -31
-68 -26 -116 -37 -178 -41 -46 -3 -90 -12 -96 -18 -7 -7 -22 -24 -34 -39 -25
-29 -29 -28 -132 23 -140 69 -280 186 -326 274 -20 37 -20 37 8 64 27 28 27
28 210 33 153 4 182 7 182 20 0 13 -27 16 -163 20 -89 3 -163 8 -165 12 -1 4
14 28 34 55 56 75 260 352 303 411 21 29 36 55 33 58 -3 3 -36 -6 -72 -21 -72
-29 -194 -55 -255 -55 -33 0 -43 -6 -73 -42 -38 -48 -87 -116 -119 -165 -11
-18 -27 -33 -35 -33 -12 0 -13 13 -8 73 19 221 102 383 287 562 159 154 294
241 509 330 191 79 517 165 689 181 30 3 87 9 125 13 118 14 550 11 745 -4z
m1909 -837 c117 -129 223 -347 262 -536 18 -92 21 -128 16 -257 -6 -148 -21
-240 -38 -229 -5 3 -9 15 -9 28 0 38 -55 110 -103 134 -64 32 -122 37 -207 18
-86 -20 -170 -65 -289 -154 -109 -82 -152 -123 -263 -250 -50 -57 -92 -101
-94 -99 -2 2 5 35 16 73 33 115 23 227 -29 311 -40 63 -89 101 -155 118 -47
13 -61 12 -104 0 -102 -31 -230 -142 -399 -345 -187 -227 -236 -285 -308 -363
-100 -109 -235 -228 -324 -283 -89 -55 -213 -90 -269 -75 -40 11 -82 37 -82
50 0 5 36 51 81 102 131 153 256 343 276 420 18 73 15 108 -11 133 -14 15 -34
26 -45 26 -75 0 -215 -116 -278 -230 -20 -36 -44 -76 -53 -90 -10 -14 -28 -76
-40 -139 -20 -100 -22 -122 -12 -170 12 -55 12 -55 -26 -94 -36 -38 -141 -126
-212 -178 -103 -75 -291 -149 -340 -134 -27 9 -50 56 -50 102 1 92 55 235 151
400 67 116 100 163 268 378 82 105 294 307 385 367 109 71 168 90 228 75 48
-12 72 -89 48 -151 -5 -14 -6 -28 -1 -30 11 -7 37 23 50 57 30 78 -62 187
-157 187 -69 1 -53 18 74 83 71 36 158 82 194 101 36 20 99 54 140 76 41 22
82 45 90 50 48 32 234 131 355 190 246 119 387 178 565 237 193 64 454 114
637 122 25 1 39 -7 62 -31z m396 2 c248 -43 493 -156 664 -306 162 -143 290
-359 339 -574 24 -106 23 -411 -2 -530 -40 -188 -108 -360 -209 -526 -86 -143
-169 -248 -289 -366 -232 -229 -352 -320 -553 -418 -131 -64 -242 -96 -390
-111 -92 -10 -142 -7 -252 16 -128 27 -233 145 -248 281 -19 170 57 331 290
613 377 457 406 499 482 709 76 210 88 269 88 442 0 116 -8 211 -24 281 -29
130 -118 321 -202 437 -27 36 -49 71 -49 76 0 13 228 -2 355 -24z m-8310 -509
c65 -13 173 -61 217 -97 22 -19 44 -34 48 -34 14 0 112 -131 107 -143 -20 -49
-496 -559 -651 -698 -112 -100 -103 -99 -166 -13 -50 66 -97 160 -125 249
-106 335 61 666 370 730 44 9 82 18 85 21 3 3 21 3 40 -1 19 -4 53 -10 75 -14z
m3759 -218 c56 -88 186 -190 343 -267 l83 -41 -61 -90 c-34 -49 -89 -121 -123
-160 -34 -38 -75 -86 -90 -105 -56 -68 -142 -165 -212 -240 -39 -41 -84 -90
-100 -109 -40 -47 -291 -277 -356 -327 -132 -103 -301 -165 -382 -143 -27 7
-41 19 -53 43 -52 111 65 331 471 880 50 67 142 191 205 277 64 86 142 193
174 238 32 44 62 81 67 81 6 0 20 -17 34 -37z m-3337 -115 c6 -7 22 -44 37
-82 65 -167 85 -429 46 -630 -31 -157 -109 -337 -162 -370 -12 -7 -37 -6 -85
3 -207 39 -430 148 -566 278 -39 36 -39 36 150 219 103 101 271 275 373 388
102 112 188 205 191 205 4 1 11 -5 16 -11z m4723 -226 c0 -4 -25 -29 -55 -56
-49 -42 -121 -126 -235 -276 -19 -25 -71 -86 -115 -136 -44 -50 -91 -104 -104
-120 -68 -82 -301 -320 -376 -385 -163 -140 -303 -201 -375 -164 -17 9 -38 31
-46 49 -14 28 -14 41 -4 91 21 102 142 310 320 550 81 110 189 256 255 348 47
64 52 68 80 63 16 -4 98 -9 180 -12 151 -6 246 4 400 39 78 19 75 18 75 9z"/>
<path d="M7134 3277 c-95 -36 -155 -115 -162 -213 -4 -53 -1 -65 17 -83 24
-24 52 -26 117 -10 62 16 148 108 162 176 13 62 6 99 -26 123 -28 22 -62 24
-108 7z"/>
<path d="M9070 914 c-8 -2 -48 -8 -88 -12 l-73 -7 0 -343 c0 -188 3 -347 6
-352 8 -12 225 -13 225 -2 0 5 18 14 40 21 88 26 150 111 150 206 0 90 -36
146 -119 183 -43 20 -43 20 -2 52 91 73 96 187 10 230 -36 19 -121 33 -149 24z
m64 -48 c65 -27 84 -91 46 -153 -29 -49 -118 -85 -169 -68 -20 6 -21 14 -21
115 0 105 1 109 23 113 46 9 89 7 121 -7z m1 -275 c96 -44 132 -154 84 -256
-32 -68 -69 -90 -154 -90 -70 0 -70 0 -73 174 -2 133 1 176 10 183 22 14 92 8
133 -11z"/>
<path d="M3780 899 c-46 -14 -96 -53 -115 -89 -23 -44 -19 -121 8 -160 12 -18
76 -70 142 -115 125 -85 155 -120 155 -178 0 -41 -27 -82 -72 -107 -35 -20
-44 -21 -88 -10 -28 7 -65 26 -88 46 -22 19 -43 34 -47 34 -3 0 -5 -19 -3 -43
3 -40 5 -43 46 -55 23 -8 42 -18 42 -23 0 -12 138 -12 153 1 65 52 90 78 102
108 19 45 19 135 0 172 -15 28 -85 86 -175 145 -80 52 -120 95 -120 132 0 17
5 43 11 56 27 59 131 79 207 39 53 -27 52 -27 52 3 0 17 -7 28 -23 34 -39 15
-150 21 -187 10z"/>
<path d="M4257 901 c-58 -6 -58 -6 -58 -349 0 -188 3 -347 6 -352 9 -14 48
-13 63 2 8 8 12 64 12 185 l0 173 80 0 c90 0 139 16 183 58 61 57 75 136 36
198 -50 81 -136 103 -322 85z m209 -62 c44 -36 55 -107 27 -166 -23 -49 -66
-73 -130 -73 -85 0 -83 -4 -83 130 0 80 4 121 12 126 40 25 135 16 174 -17z"/>
<path d="M4974 896 c-138 -34 -238 -143 -266 -293 -18 -97 20 -222 90 -296 34
-35 109 -84 145 -92 15 -4 27 -11 27 -16 0 -5 43 -9 95 -9 57 0 95 4 95 10 0
6 7 10 15 10 30 0 110 49 152 92 196 204 93 538 -185 597 -65 14 -102 13 -168
-3z m144 -28 c105 -26 181 -119 213 -262 29 -131 -55 -308 -169 -357 -125 -54
-256 1 -324 135 -27 52 -32 75 -36 151 -5 110 17 178 79 249 45 51 78 71 136
85 52 12 49 12 101 -1z"/>
<path d="M5650 898 l-75 -10 3 -336 c2 -222 6 -340 14 -349 13 -16 54 -17 64
-2 3 6 6 89 5 184 -1 103 2 176 8 179 5 3 42 -31 83 -76 40 -45 105 -116 143
-158 39 -42 78 -90 87 -108 16 -30 21 -32 68 -32 45 0 51 2 48 19 -2 11 -69
94 -150 184 -82 91 -148 169 -148 174 0 4 23 14 50 20 94 22 140 77 140 166 0
55 -31 105 -81 129 -45 23 -161 30 -259 16z m192 -45 c56 -28 74 -111 38 -171
-33 -53 -75 -73 -150 -70 -65 3 -65 3 -68 114 -3 122 -1 125 58 142 40 11 82
6 122 -15z"/>
<path d="M7273 899 c-71 -14 -130 -45 -183 -98 -74 -74 -94 -125 -95 -241 0
-87 3 -100 32 -161 39 -79 96 -138 166 -170 29 -13 54 -27 55 -31 5 -10 169
-10 174 0 4 9 120 62 137 62 16 0 35 45 27 65 -5 15 -11 13 -41 -14 -54 -47
-94 -64 -167 -69 -120 -8 -211 49 -266 166 -23 49 -27 71 -27 147 0 79 3 97
29 147 46 92 122 149 217 166 52 10 130 -8 171 -38 15 -11 32 -20 38 -20 14 0
13 55 -2 68 -7 5 -53 15 -103 21 -100 12 -103 12 -162 0z"/>
<path d="M6212 888 c-7 -7 -12 -19 -12 -29 0 -14 11 -16 96 -11 l95 5 -2 -323
c-2 -345 -3 -339 47 -340 12 0 25 7 28 16 3 9 6 158 6 331 l0 316 95 -5 c97
-5 104 -3 85 33 -10 18 -23 19 -218 19 -149 0 -211 -3 -220 -12z"/>
<path d="M7735 893 c-15 -12 -13 -674 2 -690 15 -16 303 -19 303 -3 0 6 6 10
14 10 12 0 26 20 26 38 0 4 -61 6 -135 4 l-135 -4 -2 324 c-3 323 -3 323 -33
326 -16 1 -34 -1 -40 -5z"/>
<path d="M8255 893 c-19 -4 -20 -11 -17 -266 3 -247 4 -265 25 -307 52 -107
214 -143 345 -76 51 26 52 26 52 6 0 -35 19 -60 45 -60 13 0 27 4 30 10 3 5 6
164 6 352 -1 343 -1 343 -38 343 -38 0 -38 0 -41 -274 -3 -308 2 -289 -81
-343 -36 -23 -56 -28 -103 -28 -74 0 -112 19 -138 70 -19 38 -20 55 -18 305 3
296 7 283 -67 268z"/>
</g>
</svg>
