

<svg xmlns="http://www.w3.org/2000/svg" viewBox="0 0 519.000000 400.000000" preserveAspectRatio="xMidYMid meet">

<g transform="translate(0.000000,400.000000) scale(0.100000,-0.100000)"
fill="white" >
<path d="M431 2148 l-1 -238 20 0 20 0 0 225 c0 187 -2 225 -14 225 -8 0 -17
6 -19 13 -3 6 -6 -95 -6 -225z"/>
<path d="M710 2371 c0 -5 -15 -12 -33 -15 -38 -7 -79 -45 -107 -101 -27 -53
-28 -188 -2 -236 26 -49 83 -109 103 -109 10 0 21 -4 24 -10 3 -5 37 -10 76
-10 39 0 69 4 69 10 0 6 8 10 18 10 11 0 27 9 37 20 10 11 23 20 29 20 13 1
46 68 46 93 0 14 -10 17 -48 17 l-48 0 -19 -32 c-10 -18 -23 -36 -29 -40 -20
-14 -113 -9 -126 7 -29 35 -50 92 -50 139 0 48 27 125 43 126 5 0 15 7 23 15
24 24 96 19 126 -8 13 -12 27 -30 31 -40 5 -13 18 -17 52 -17 40 0 45 2 45 23
0 12 -13 38 -30 57 -16 19 -29 40 -30 47 0 7 -16 15 -35 19 -19 3 -35 10 -35
15 0 5 -29 9 -65 9 -36 0 -65 -4 -65 -9z"/>
<path d="M1180 2371 c0 -5 -14 -11 -32 -15 -35 -7 -68 -32 -68 -53 0 -7 -7
-13 -15 -13 -8 0 -17 -14 -21 -35 -3 -19 -10 -35 -15 -35 -12 0 -12 -147 0
-154 5 -3 12 -22 15 -41 4 -19 11 -35 15 -35 5 0 11 -9 14 -20 3 -11 16 -24
30 -29 14 -5 28 -15 32 -20 3 -6 15 -11 26 -11 10 0 19 -4 19 -10 0 -6 30 -10
69 -10 39 0 73 5 76 10 3 6 15 10 25 10 28 0 86 54 109 104 16 32 21 62 21
122 0 45 -3 84 -7 88 -5 4 -8 11 -9 14 -5 44 -79 122 -114 122 -10 0 -22 5
-25 10 -8 12 -145 13 -145 1z m160 -116 c16 -15 27 -32 24 -37 -3 -4 0 -8 5
-8 15 0 14 -133 -1 -148 -7 -7 -8 -12 -3 -12 5 0 -6 -16 -25 -35 l-34 -35 -54
0 c-46 0 -59 4 -79 26 -13 14 -27 39 -30 55 -3 16 -10 32 -14 35 -12 7 -11 94
1 94 6 0 10 8 10 19 0 19 36 64 61 74 8 4 36 5 62 3 36 -2 55 -10 77 -31z"/>
<path d="M1604 2369 c-3 -5 -14 -9 -25 -9 l-19 0 0 -224 c0 -180 3 -226 14
-235 10 -8 16 -9 21 -1 4 6 64 10 161 10 l154 0 0 40 0 40 -119 0 c-114 0
-154 10 -121 30 9 5 9 9 1 14 -14 9 -15 288 -1 302 7 7 -2 15 -25 26 -19 9
-38 12 -41 7z"/>
<path d="M2090 2371 c0 -5 -15 -11 -32 -15 -43 -8 -96 -61 -104 -103 -3 -18
-10 -33 -15 -33 -12 0 -12 -147 0 -154 5 -3 12 -22 15 -41 4 -19 11 -35 15
-35 5 0 11 -9 14 -20 3 -11 16 -24 30 -29 14 -5 28 -15 32 -20 3 -6 15 -11 26
-11 10 0 19 -4 19 -10 0 -6 30 -10 69 -10 39 0 73 5 76 10 3 6 15 10 25 10 28
0 86 54 109 104 16 32 21 62 21 122 0 45 -3 84 -7 88 -5 4 -8 11 -9 14 -5 42
-78 122 -110 122 -13 0 -26 5 -29 10 -8 12 -145 13 -145 1z m160 -116 c16 -15
27 -32 24 -37 -3 -4 0 -8 5 -8 15 0 14 -133 -1 -148 -7 -7 -8 -12 -3 -12 5 0
-6 -16 -25 -35 l-34 -35 -55 0 c-48 0 -57 3 -83 32 -15 17 -28 42 -28 54 0 13
-4 26 -10 29 -5 3 -10 21 -10 40 0 19 5 37 10 40 6 3 10 17 10 29 0 23 34 68
61 79 8 4 36 5 62 3 36 -2 55 -10 77 -31z"/>
<path d="M2477 2373 c-11 -11 -8 -471 3 -478 6 -3 10 -1 10 4 0 6 19 11 42 11
l41 0 -7 119 c-6 118 -1 201 14 201 5 0 11 -31 15 -70 4 -38 11 -70 15 -70 4
0 11 -32 15 -70 4 -39 11 -72 16 -75 4 -3 6 -12 2 -20 -4 -11 3 -15 26 -15 17
0 31 -5 31 -12 0 -9 3 -9 12 0 7 7 20 12 30 12 13 0 18 12 24 60 4 33 10 63
15 65 4 3 11 30 14 60 4 30 11 55 15 55 4 0 11 25 15 55 13 105 20 54 17 -120
l-4 -175 49 0 48 0 -2 207 c-2 115 -3 216 -3 226 0 14 -10 17 -70 17 l-70 0 0
-20 c0 -11 -4 -20 -9 -20 -5 0 -12 -25 -16 -55 -3 -30 -10 -57 -14 -60 -5 -2
-14 -41 -21 -85 -9 -55 -17 -80 -26 -80 -9 0 -14 11 -14 29 0 17 -4 32 -9 36
-5 3 -13 31 -17 63 -3 31 -11 62 -16 69 -5 6 -8 17 -7 25 1 7 -1 20 -4 28 -3
8 -7 26 -9 40 l-3 25 -65 3 c-35 2 -67 7 -70 13 -4 5 -9 6 -13 2z"/>
<path d="M3491 2367 c-7 -7 -11 -82 -11 -234 0 -192 2 -223 15 -223 8 0 15 -5
15 -10 0 -7 6 -7 18 -1 9 6 30 13 46 16 22 5 26 9 17 18 -7 7 -11 79 -11 229
0 120 -4 218 -8 218 -4 0 -14 -6 -20 -12 -10 -10 -17 -10 -31 -1 -14 9 -21 9
-30 0z"/>
<path d="M3828 2363 c-9 -10 -19 -34 -23 -53 -4 -19 -11 -39 -15 -45 -4 -5
-11 -26 -15 -45 -4 -19 -13 -44 -20 -55 -7 -11 -16 -35 -20 -52 -4 -18 -10
-33 -15 -33 -4 0 -11 -17 -15 -37 -4 -21 -10 -42 -15 -48 -4 -5 -10 -23 -14
-40 -4 -16 -13 -33 -19 -37 -8 -5 -6 -8 6 -8 9 0 17 -5 17 -12 0 -9 3 -9 12 0
7 7 27 12 45 12 23 0 35 5 39 18 3 9 11 27 17 40 l10 22 89 0 88 0 0 -22 c1
-37 24 -58 64 -58 21 0 36 -5 36 -12 0 -8 6 -6 17 4 13 14 14 20 4 32 -7 8
-10 20 -7 25 4 5 2 12 -3 15 -5 3 -12 22 -15 41 -4 19 -11 35 -15 35 -5 0 -12
17 -16 37 -4 20 -13 46 -21 57 -8 11 -14 30 -14 41 0 11 -6 32 -14 47 -8 15
-17 40 -21 57 -4 17 -11 31 -16 31 -5 0 -9 9 -9 20 0 17 -7 20 -43 20 -24 0
-48 5 -53 10 -7 7 -15 5 -26 -7z m77 -160 c4 -27 13 -58 21 -70 27 -42 19 -53
-39 -53 -60 0 -69 5 -58 29 24 50 40 89 45 114 10 42 24 32 31 -20z"/>
<path d="M4176 2365 c-3 -9 -6 -115 -6 -236 l0 -219 50 0 51 0 -2 151 c0 83 2
153 5 156 3 4 6 -1 6 -11 0 -9 6 -19 14 -22 8 -3 18 -19 21 -35 4 -16 10 -29
15 -29 8 0 21 -21 54 -87 6 -13 14 -23 18 -23 3 0 9 -13 13 -29 3 -16 13 -32
21 -35 8 -3 14 -12 14 -21 0 -12 12 -15 55 -15 l55 0 0 223 0 222 -25 12 c-14
6 -27 7 -31 2 -3 -5 -14 -9 -25 -9 l-20 0 1 -142 c2 -168 2 -169 -11 -143 -5
11 -20 38 -34 60 -13 22 -29 51 -35 65 -6 14 -22 39 -36 57 -13 17 -24 36 -24
41 0 5 -9 21 -21 36 -15 20 -29 26 -58 26 -20 0 -42 5 -48 11 -7 7 -12 6 -17
-6z"/>
<path d="M4743 2345 c-23 -19 -45 -35 -50 -35 -11 0 -31 -46 -39 -90 -4 -19
-10 -39 -13 -45 -7 -12 -7 -33 2 -55 3 -8 8 -37 11 -64 3 -27 13 -57 21 -66 8
-9 15 -21 15 -26 0 -9 14 -19 66 -43 16 -7 37 -17 46 -22 35 -18 131 -9 173
17 22 13 47 26 55 29 9 4 20 14 25 24 17 31 33 65 40 86 9 25 10 114 1 122 -3
3 -6 21 -6 38 0 18 -9 44 -20 58 -11 14 -20 29 -20 34 -1 11 -68 53 -86 53 -8
0 -14 5 -14 10 0 6 -34 10 -83 10 l-83 0 -41 -35z m210 -92 c28 -27 37 -45 37
-69 0 -18 5 -36 11 -40 8 -4 8 -9 0 -17 -6 -6 -11 -23 -11 -38 0 -35 -39 -95
-65 -103 -39 -11 -100 -5 -120 12 -44 37 -55 64 -55 137 0 103 40 154 121 155
39 0 51 -5 82 -37z"/>
<path d="M3010 2135 l0 -225 159 0 158 0 26 20 c14 11 30 20 35 20 14 0 26 82
19 127 -4 20 -16 46 -28 59 l-21 23 21 29 c32 46 28 93 -13 136 l-33 36 -162
0 -161 0 0 -225z m259 149 c27 -6 31 -10 31 -40 0 -24 -5 -34 -15 -34 -8 0
-15 -5 -15 -10 0 -7 -29 -10 -77 -8 l-78 3 -3 48 -3 47 64 0 c36 0 79 -3 96
-6z m26 -194 c13 -14 16 -29 12 -56 -3 -20 -8 -38 -11 -41 -2 -2 -45 -7 -95
-10 l-91 -5 0 59 c0 33 3 63 7 66 3 4 41 7 83 7 64 0 80 -3 95 -20z"/>
<path d="M140 2241 c0 -5 -11 -12 -25 -15 -13 -3 -37 -23 -52 -43 l-28 -36 0
-83 c0 -64 4 -86 18 -101 9 -11 17 -25 17 -31 0 -6 16 -14 35 -18 19 -3 38
-10 41 -15 7 -12 71 -11 79 1 3 6 14 10 24 10 25 0 85 65 78 84 -10 25 -30 19
-60 -19 l-28 -35 -52 0 c-29 0 -57 4 -62 8 -21 14 -55 71 -55 91 l0 21 136 0
137 0 -7 43 c-4 23 -11 44 -16 45 -6 2 -10 12 -10 22 0 20 -44 60 -66 60 -8 0
-14 5 -14 10 0 6 -20 10 -45 10 -25 0 -45 -4 -45 -9z m96 -46 c31 -16 42 -36
43 -77 l1 -28 -105 0 c-58 0 -105 4 -105 8 0 4 9 25 20 46 31 62 88 81 146 51z"/>
</g>
</svg>
