<?xml version="1.0" standalone="no"?>
<!DOCTYPE svg PUBLIC "-//W3C//DTD SVG 20010904//EN"
 "http://www.w3.org/TR/2001/REC-SVG-20010904/DTD/svg10.dtd">
<svg version="1.0" xmlns="http://www.w3.org/2000/svg"
 width="100%" height="100%" viewBox="0 0 3142.000000 600.000000"
 preserveAspectRatio="xMidYMid meet">
<metadata>
Created by potrace 1.16, written by Peter Selinger 2001-2019
</metadata>
<g transform="translate(0.000000,600.000000) scale(0.100000,-0.100000)"
fill="white" stroke="none">
<path d="M7784 4555 c-5 -12 -30 -15 -140 -15 -123 0 -134 -2 -144 -20 -9 -17
-21 -20 -88 -20 -65 0 -80 -3 -95 -20 -11 -14 -29 -20 -56 -20 -22 0 -44 -6
-51 -15 -7 -8 -29 -15 -50 -15 -24 0 -43 -7 -55 -20 -13 -14 -31 -20 -60 -20
-29 0 -45 -5 -49 -15 -3 -8 -17 -15 -31 -15 -14 0 -30 -9 -37 -20 -10 -15 -24
-20 -54 -20 -35 0 -47 -6 -73 -35 -19 -22 -39 -35 -55 -35 -15 0 -30 -8 -36
-19 -5 -11 -21 -21 -35 -23 -35 -4 -355 -323 -355 -354 0 -13 -9 -28 -20 -34
-13 -7 -20 -21 -20 -39 0 -16 -7 -31 -15 -35 -8 -3 -15 -17 -15 -30 0 -15 -8
-30 -20 -36 -13 -7 -20 -21 -20 -39 0 -16 -7 -31 -15 -35 -10 -4 -15 -20 -15
-50 0 -35 -5 -48 -20 -56 -17 -9 -20 -21 -20 -72 0 -43 -4 -64 -16 -72 -13
-10 -15 -56 -15 -356 0 -300 2 -346 15 -356 12 -8 16 -30 16 -90 0 -68 3 -81
20 -92 15 -9 20 -23 20 -56 0 -30 5 -46 15 -50 8 -3 15 -17 15 -31 0 -14 9
-30 20 -37 12 -8 20 -24 20 -41 0 -15 7 -30 15 -33 8 -4 15 -16 15 -28 0 -12
17 -39 40 -61 22 -22 38 -45 36 -52 -7 -18 257 -283 281 -283 10 0 37 -18 58
-40 22 -23 49 -40 61 -40 12 0 24 -7 28 -15 3 -8 18 -15 33 -15 17 0 33 -8 41
-20 7 -11 23 -20 37 -20 14 0 28 -7 31 -15 4 -8 19 -15 35 -15 18 0 32 -7 39
-20 8 -15 21 -20 54 -20 30 0 46 -5 50 -15 4 -10 20 -15 50 -15 35 0 48 -5 56
-20 9 -17 21 -20 73 -20 51 0 64 -3 75 -20 10 -17 23 -20 91 -20 61 0 80 -3
85 -15 4 -12 27 -15 119 -15 101 0 116 -2 132 -20 18 -19 31 -20 410 -20 379
0 392 1 410 20 16 17 31 20 112 20 74 0 95 3 99 15 5 11 22 15 70 15 53 0 65
3 74 20 8 15 21 20 55 20 34 0 47 5 55 20 8 15 21 20 56 20 30 0 46 5 50 15 4
8 19 15 35 15 18 0 32 7 39 20 6 11 21 20 33 20 13 0 36 15 54 35 18 20 42 35
55 35 14 0 41 20 74 56 37 41 54 53 59 43 5 -7 9 -72 9 -143 l1 -131 939 -3
c745 -2 941 0 948 10 5 7 6 27 3 45 -5 25 -1 35 15 45 12 8 20 23 20 40 0 17
8 31 20 38 13 7 20 21 20 40 0 20 5 30 15 30 10 0 15 10 15 30 0 19 7 33 20
40 12 6 20 21 20 35 0 13 11 36 26 50 l25 25 812 -2 812 -3 3 -30 c2 -16 10
-34 18 -38 8 -4 14 -19 14 -32 0 -14 9 -30 20 -37 12 -8 20 -24 20 -41 0 -15
7 -30 15 -33 8 -4 15 -16 15 -29 0 -12 9 -30 20 -40 11 -10 20 -28 20 -41 0
-13 7 -27 16 -32 9 -5 18 -20 19 -33 1 -13 3 -27 4 -32 0 -4 497 -6 1104 -5
l1102 3 3 443 2 442 528 0 528 0 28 -29 c16 -16 25 -34 22 -40 -4 -5 12 -28
34 -50 25 -25 40 -49 40 -64 0 -14 7 -27 15 -31 8 -3 15 -15 15 -27 0 -12 16
-36 35 -55 22 -20 35 -42 35 -58 0 -15 8 -30 20 -36 11 -6 20 -21 20 -34 0
-15 14 -36 35 -55 22 -19 35 -39 35 -55 0 -15 8 -30 20 -36 12 -6 20 -21 20
-36 0 -16 13 -36 35 -55 22 -20 35 -40 35 -55 0 -14 7 -27 15 -30 8 -4 15 -16
15 -29 0 -14 18 -41 46 -69 l45 -46 1097 2 1097 3 3 33 c2 20 9 32 18 32 14 0
18 10 15 42 -1 9 7 22 18 28 13 7 21 21 21 38 0 16 8 32 20 40 11 7 20 23 20
37 0 14 7 28 15 31 8 4 15 19 15 35 0 18 7 32 19 39 11 5 21 22 23 37 l3 28
808 3 808 2 30 -29 c17 -17 29 -40 29 -55 0 -16 6 -26 15 -26 10 0 15 -10 15
-30 0 -19 7 -33 20 -40 13 -7 20 -21 20 -39 0 -16 7 -31 15 -35 8 -3 15 -17
15 -30 0 -15 8 -30 20 -36 12 -6 20 -21 20 -35 0 -13 11 -36 25 -50 l26 -25
574 0 c522 0 575 1 583 16 12 22 4 54 -14 54 -9 0 -14 11 -14 30 0 19 -7 33
-20 40 -12 7 -20 21 -20 38 0 17 -8 32 -21 40 -13 9 -18 19 -14 32 4 13 -1 23
-14 32 -13 8 -21 23 -21 40 0 17 -8 31 -20 38 -12 6 -20 21 -20 36 0 13 -7 27
-15 30 -8 4 -15 19 -15 35 0 18 -7 32 -20 39 -13 7 -20 21 -20 39 0 16 -7 31
-15 35 -8 3 -15 17 -15 30 0 15 -8 30 -20 36 -12 7 -20 21 -20 38 0 17 -8 32
-21 40 -13 9 -18 19 -14 32 4 13 -1 23 -14 32 -13 8 -21 23 -21 40 0 17 -8 31
-20 38 -12 6 -20 21 -20 36 0 13 -7 27 -15 30 -8 4 -15 19 -15 35 0 18 -7 32
-20 39 -13 7 -20 21 -20 39 0 16 -7 31 -15 35 -8 3 -15 17 -15 30 0 15 -8 30
-20 36 -13 7 -20 21 -20 39 0 16 -7 31 -15 35 -8 3 -15 17 -15 31 0 14 -9 30
-20 37 -12 8 -20 24 -20 40 0 17 -8 31 -20 38 -12 6 -20 21 -20 36 0 13 -7 27
-15 30 -8 4 -15 19 -15 35 0 18 -7 32 -20 39 -13 7 -20 21 -20 39 0 16 -7 31
-15 35 -8 3 -15 17 -15 30 0 15 -8 30 -20 36 -13 7 -20 21 -20 39 0 16 -7 31
-15 35 -8 3 -15 17 -15 31 0 14 -9 30 -20 37 -12 8 -20 24 -20 40 0 17 -8 31
-20 38 -12 6 -20 21 -20 36 0 13 -7 27 -15 30 -8 4 -15 19 -15 35 0 18 -7 32
-20 39 -13 7 -20 21 -20 39 0 16 -7 31 -15 35 -8 3 -15 17 -15 30 0 15 -8 30
-20 36 -13 7 -20 21 -20 39 0 16 -7 31 -15 35 -8 3 -15 17 -15 31 0 14 -9 30
-20 37 -12 8 -20 24 -20 40 0 17 -8 31 -20 38 -13 7 -20 21 -20 40 0 20 -5 30
-15 30 -10 0 -15 10 -15 30 0 19 -7 33 -20 40 -13 7 -20 21 -20 39 0 16 -7 31
-15 35 -8 3 -15 17 -15 30 0 15 -8 30 -20 36 -13 7 -20 21 -20 39 0 16 -7 31
-15 35 -8 3 -15 17 -15 31 0 14 -9 30 -20 37 -12 8 -20 24 -20 40 0 17 -8 31
-20 38 -12 7 -20 21 -20 38 -1 17 -10 34 -25 45 -22 16 -71 17 -747 15 l-723
-3 0 -23 c0 -13 -8 -30 -18 -37 -9 -7 -17 -24 -17 -38 0 -16 -8 -31 -20 -37
-12 -6 -20 -21 -20 -36 0 -16 -13 -36 -35 -55 -22 -20 -35 -40 -35 -55 0 -14
-7 -27 -15 -30 -8 -4 -15 -17 -15 -30 0 -13 -9 -32 -20 -41 -11 -10 -20 -27
-20 -40 0 -12 -7 -26 -16 -31 -9 -5 -18 -22 -20 -37 -1 -16 -10 -32 -18 -37
-9 -5 -16 -20 -16 -33 0 -14 -8 -29 -20 -35 -13 -7 -20 -21 -20 -39 0 -16 -7
-31 -15 -35 -8 -3 -15 -18 -15 -33 0 -17 -8 -33 -20 -41 -11 -7 -20 -23 -20
-37 0 -14 -7 -28 -15 -31 -8 -4 -15 -19 -15 -35 0 -18 -7 -32 -20 -39 -12 -6
-20 -21 -20 -35 0 -13 -7 -28 -16 -33 -9 -5 -18 -22 -20 -37 -1 -16 -10 -32
-18 -37 -9 -5 -16 -19 -16 -31 0 -13 -9 -30 -20 -40 -11 -9 -20 -28 -20 -41 0
-13 -7 -26 -15 -30 -8 -3 -15 -18 -15 -33 0 -17 -8 -33 -20 -41 -11 -7 -20
-23 -20 -37 0 -14 -7 -28 -15 -31 -8 -4 -15 -19 -15 -35 0 -18 -7 -32 -20 -39
-12 -6 -20 -21 -20 -35 0 -13 -7 -28 -16 -33 -9 -5 -18 -22 -20 -37 -1 -16
-10 -32 -18 -37 -9 -5 -16 -19 -16 -32 0 -13 -9 -31 -20 -41 -11 -10 -20 -28
-20 -40 0 -13 -7 -25 -15 -29 -8 -3 -15 -18 -15 -33 0 -17 -8 -33 -20 -41 -11
-7 -20 -23 -20 -37 0 -14 -7 -28 -15 -31 -8 -4 -15 -19 -15 -35 0 -18 -7 -32
-20 -39 -12 -6 -20 -21 -20 -35 0 -13 -7 -28 -16 -33 -9 -5 -18 -21 -19 -35
-2 -15 -19 -42 -39 -61 -20 -18 -36 -43 -36 -55 0 -12 -7 -24 -15 -27 -8 -4
-15 -19 -15 -35 0 -18 -7 -32 -20 -39 -13 -7 -20 -21 -20 -39 0 -16 -7 -31
-15 -35 -8 -3 -15 -17 -15 -30 0 -15 -8 -30 -20 -36 -12 -7 -20 -21 -20 -38 0
-17 -8 -32 -21 -40 -13 -9 -18 -19 -14 -32 4 -13 -1 -23 -14 -32 -13 -8 -21
-23 -21 -40 0 -17 -8 -31 -20 -38 -12 -6 -20 -21 -20 -36 0 -13 -7 -27 -15
-30 -9 -4 -15 -19 -15 -40 0 -19 -5 -34 -10 -34 -19 0 -100 89 -100 110 0 11
-16 34 -35 51 -20 18 -35 41 -35 53 0 11 -16 36 -35 53 -20 19 -35 42 -35 55
0 14 -14 35 -35 52 -20 17 -35 39 -35 51 0 12 -16 35 -36 54 -20 17 -38 43
-40 56 -1 14 -18 40 -38 59 -20 18 -36 42 -36 54 0 11 -16 34 -35 51 -23 20
-35 39 -35 56 0 14 -7 28 -15 31 -11 4 -15 21 -15 55 l0 49 45 0 c34 0 48 5
57 20 8 12 24 20 39 20 15 0 29 7 33 15 3 8 17 15 31 15 14 0 30 9 37 20 7 11
23 20 35 20 34 0 223 190 223 224 0 16 6 26 15 26 10 0 15 10 15 30 0 19 7 33
20 40 17 9 20 21 20 72 0 43 4 64 15 72 23 17 23 525 0 538 -10 6 -15 24 -15
53 0 34 -5 47 -20 55 -15 8 -20 21 -20 54 0 30 -5 46 -15 50 -8 3 -15 17 -15
31 0 14 -9 30 -20 37 -11 7 -20 23 -20 36 0 29 -191 222 -219 222 -10 0 -24 7
-31 15 -7 8 -23 15 -36 15 -13 0 -28 9 -34 20 -7 13 -21 20 -39 20 -16 0 -31
7 -35 15 -4 10 -20 15 -50 15 -35 0 -48 5 -56 20 -9 17 -21 20 -91 20 -62 0
-81 3 -85 15 -5 13 -184 15 -1520 15 l-1514 0 -2 -1387 c-3 -1313 -4 -1388
-20 -1391 -14 -3 -18 3 -18 28 0 18 -6 33 -15 36 -8 4 -15 19 -15 35 0 18 -7
32 -20 39 -12 7 -20 21 -20 38 0 17 -8 32 -21 40 -12 8 -18 19 -15 28 3 8 -3
22 -14 31 -11 10 -20 29 -20 43 0 14 -9 31 -20 38 -11 7 -20 23 -20 37 0 14
-7 28 -15 31 -8 4 -15 19 -15 35 0 18 -7 32 -20 39 -12 6 -20 21 -20 36 0 13
-7 27 -15 30 -8 4 -15 19 -15 35 0 18 -7 32 -20 39 -12 7 -20 21 -20 38 0 17
-8 32 -21 40 -12 8 -18 19 -15 28 3 8 -3 22 -14 31 -11 10 -20 29 -20 43 0 14
-9 31 -20 38 -11 7 -20 23 -20 37 0 14 -7 28 -15 31 -8 4 -15 19 -15 35 0 18
-7 32 -20 39 -12 6 -20 21 -20 36 0 13 -7 27 -15 30 -8 4 -15 19 -15 35 0 18
-7 32 -20 39 -12 7 -20 21 -20 38 0 17 -8 32 -21 40 -13 9 -18 19 -14 32 4 13
-1 22 -15 30 -12 7 -20 21 -20 38 0 16 -8 32 -20 40 -11 7 -20 23 -20 37 0 14
-7 28 -15 31 -8 4 -15 19 -15 35 0 18 -7 32 -20 39 -12 6 -20 21 -20 36 0 13
-7 27 -15 30 -8 4 -15 19 -15 35 0 18 -7 32 -20 39 -12 7 -20 21 -20 38 0 17
-8 32 -21 40 -13 9 -18 19 -14 32 4 13 -1 22 -15 30 -12 7 -20 21 -20 38 0 16
-8 32 -20 40 -11 7 -20 23 -20 37 0 14 -7 28 -15 31 -8 4 -15 19 -15 35 0 18
-7 32 -20 39 -12 6 -20 21 -20 36 0 13 -7 27 -15 30 -8 4 -15 19 -15 35 0 18
-7 32 -20 39 -12 7 -20 21 -20 38 0 17 -8 32 -21 40 -13 9 -18 19 -14 32 4 13
-1 22 -15 30 -12 7 -20 21 -20 38 0 16 -8 32 -20 40 -11 7 -20 23 -20 37 0 14
-7 28 -15 31 -8 4 -15 19 -15 35 0 18 -7 32 -20 39 -12 6 -20 21 -20 36 0 13
-7 27 -15 30 -8 4 -15 19 -15 35 0 18 -7 32 -20 39 -12 7 -20 21 -20 38 0 16
-8 32 -20 40 -12 7 -19 21 -17 35 l2 22 -725 3 -725 2 -27 -25 c-17 -16 -25
-31 -21 -44 3 -13 -2 -23 -16 -30 -13 -8 -21 -22 -21 -39 0 -16 -8 -32 -20
-40 -11 -7 -20 -23 -20 -37 0 -14 -7 -28 -15 -31 -8 -4 -15 -19 -15 -35 0 -18
-7 -32 -20 -39 -12 -6 -20 -21 -20 -36 0 -13 -7 -27 -15 -30 -8 -4 -15 -19
-15 -35 0 -18 -7 -32 -20 -39 -12 -7 -20 -21 -20 -38 0 -19 -11 -34 -35 -52
-24 -18 -35 -33 -35 -52 0 -17 -8 -31 -20 -38 -13 -7 -20 -21 -20 -39 0 -16
-7 -31 -15 -35 -8 -3 -15 -17 -15 -30 0 -15 -8 -30 -20 -36 -13 -7 -20 -21
-20 -39 0 -16 -7 -31 -15 -35 -8 -3 -15 -17 -15 -31 0 -14 -9 -30 -20 -37 -12
-8 -20 -24 -20 -41 0 -15 -7 -30 -15 -33 -8 -4 -15 -17 -15 -30 0 -13 -9 -29
-20 -36 -12 -8 -20 -24 -20 -40 0 -17 -8 -31 -20 -38 -13 -7 -20 -21 -20 -39
0 -16 -7 -31 -15 -35 -8 -3 -15 -17 -15 -30 0 -15 -8 -30 -20 -36 -13 -7 -20
-21 -20 -39 0 -16 -7 -31 -15 -35 -8 -3 -15 -17 -15 -31 0 -14 -9 -30 -20 -37
-12 -8 -20 -24 -20 -41 0 -15 -7 -30 -15 -33 -8 -4 -15 -17 -15 -30 0 -13 -9
-29 -20 -36 -12 -8 -20 -24 -20 -40 0 -17 -8 -31 -20 -38 -13 -7 -20 -21 -20
-39 0 -16 -7 -31 -15 -35 -8 -3 -15 -17 -15 -30 0 -15 -8 -30 -20 -36 -13 -7
-20 -21 -20 -39 0 -16 -7 -31 -15 -35 -8 -3 -15 -17 -15 -31 0 -14 -9 -30 -20
-37 -12 -8 -20 -24 -20 -41 0 -15 -7 -30 -15 -33 -8 -4 -15 -17 -15 -30 0 -13
-9 -29 -20 -36 -12 -8 -20 -24 -20 -40 0 -17 -8 -31 -20 -38 -13 -7 -20 -21
-20 -39 0 -16 -7 -31 -15 -35 -8 -3 -15 -17 -15 -30 0 -15 -8 -30 -20 -36 -12
-6 -20 -21 -20 -36 0 -15 -13 -36 -35 -57 -20 -19 -35 -41 -35 -55 0 -12 -7
-25 -15 -28 -8 -4 -15 -19 -15 -35 0 -18 -7 -32 -20 -39 -11 -6 -20 -21 -20
-34 0 -13 -7 -29 -15 -36 -8 -7 -15 -23 -15 -37 0 -22 -24 -42 -36 -30 -3 2
-5 303 -4 667 l0 663 -27 29 -27 28 -945 0 -946 -1 -27 -24 -28 -24 0 -290 0
-290 25 -25 26 -26 347 -2 347 -3 3 -23 c4 -29 -75 -112 -107 -112 -11 0 -26
-9 -33 -20 -8 -12 -24 -20 -39 -20 -15 0 -29 -7 -33 -15 -3 -8 -16 -15 -29
-15 -13 0 -32 -9 -42 -20 -12 -13 -31 -20 -55 -20 -24 0 -43 -7 -55 -20 -16
-18 -31 -20 -130 -20 -91 0 -114 -3 -119 -15 -4 -12 -32 -15 -160 -15 -127 0
-155 3 -160 15 -4 12 -27 15 -121 15 -104 0 -116 2 -127 20 -10 15 -24 20 -54
20 -28 0 -47 6 -59 20 -10 11 -28 20 -40 20 -13 0 -25 7 -29 15 -3 8 -18 15
-33 15 -17 0 -33 8 -41 20 -7 11 -21 20 -33 20 -26 0 -139 112 -139 138 0 10
-18 36 -40 56 -36 33 -40 41 -34 71 5 27 2 37 -15 51 -17 15 -21 30 -21 74 0
43 -4 59 -20 73 -18 15 -20 29 -20 140 0 111 2 126 20 142 17 15 20 31 20 96
0 69 3 80 20 89 14 8 19 17 15 30 -4 13 1 23 14 32 12 7 21 23 21 35 0 30 150
183 180 183 11 0 34 16 51 35 19 21 40 35 55 35 13 0 28 9 34 20 8 15 21 20
56 20 30 0 46 5 50 15 5 12 26 15 105 15 88 0 100 2 111 20 12 19 24 20 198
20 174 0 186 -1 198 -20 11 -18 23 -20 111 -20 79 0 100 -3 105 -15 3 -10 19
-15 48 -15 37 0 47 -5 72 -35 17 -20 39 -35 51 -35 25 0 145 -119 145 -145 0
-9 13 -30 29 -46 l30 -29 628 2 628 3 3 84 c2 68 0 86 -13 93 -11 7 -15 25
-15 68 0 49 -4 62 -20 72 -12 8 -20 24 -20 41 0 15 -7 30 -15 33 -8 4 -15 17
-15 30 0 13 -9 29 -20 36 -11 7 -20 24 -20 37 0 17 -18 41 -55 76 -32 31 -55
61 -55 73 0 27 -45 72 -71 72 -11 0 -49 30 -88 70 -39 39 -78 70 -89 70 -10 0
-27 9 -37 20 -10 11 -28 20 -40 20 -13 0 -25 7 -29 15 -3 8 -18 15 -33 15 -17
0 -33 8 -41 20 -7 11 -23 20 -37 20 -14 0 -28 7 -31 15 -4 10 -20 15 -50 15
-33 0 -47 5 -56 20 -10 15 -24 20 -54 20 -25 0 -47 6 -54 15 -8 10 -31 15 -71
15 -48 0 -61 4 -71 20 -11 17 -24 20 -89 20 -63 0 -79 3 -94 20 -16 18 -31 20
-130 20 -91 0 -114 3 -119 15 -5 13 -67 15 -481 15 -414 0 -476 -2 -481 -15z
m9282 -930 c4 -8 17 -15 31 -15 16 0 39 -16 69 -46 l44 -47 0 -128 c0 -118 -2
-129 -20 -139 -13 -7 -20 -21 -20 -40 0 -27 -3 -30 -30 -30 -19 0 -33 -7 -40
-20 -8 -15 -21 -20 -54 -20 -30 0 -46 -5 -50 -15 -5 -13 -90 -15 -681 -15
l-675 0 0 265 0 265 710 0 c622 0 711 -2 716 -15z m-4608 -88 c2 -15 12 -32
23 -37 12 -7 19 -21 19 -39 0 -16 7 -31 15 -35 10 -4 15 -20 15 -50 0 -35 5
-48 20 -56 12 -6 20 -21 20 -36 0 -13 7 -27 15 -30 8 -4 15 -19 15 -35 0 -18
7 -32 20 -39 12 -7 20 -21 20 -38 0 -17 8 -32 21 -40 13 -9 18 -19 14 -32 -4
-13 1 -22 15 -30 12 -7 20 -21 20 -38 0 -16 8 -32 20 -40 11 -7 20 -23 20 -37
0 -14 7 -28 15 -31 8 -4 15 -19 15 -35 0 -18 7 -32 20 -39 12 -6 20 -21 20
-36 0 -14 10 -34 21 -43 16 -12 20 -23 15 -39 l-7 -22 -424 0 -424 0 -7 22
c-5 16 -1 27 15 39 16 13 21 28 21 63 0 35 4 48 20 56 12 6 20 21 20 36 0 13
7 27 15 30 8 4 15 19 15 35 0 18 7 32 20 39 12 6 20 21 20 35 0 13 7 28 16 33
9 5 18 22 20 37 1 16 10 32 18 37 9 5 16 21 16 36 0 16 8 32 20 40 11 7 20 23
20 37 0 14 7 28 15 31 8 4 15 19 15 35 0 18 7 32 20 39 12 6 20 21 20 36 0 13
7 27 15 30 8 4 15 19 15 35 0 18 7 32 20 39 11 6 20 21 20 34 0 30 9 38 40 34
19 -2 26 -10 28 -31z m8037 0 c0 -17 7 -32 18 -38 9 -6 17 -20 17 -32 0 -13 9
-30 20 -40 11 -9 20 -28 20 -41 0 -13 7 -26 15 -30 8 -3 15 -18 15 -33 0 -17
8 -33 20 -41 11 -7 20 -23 20 -37 0 -14 7 -28 15 -31 8 -4 15 -19 15 -35 0
-18 7 -32 20 -39 12 -6 20 -21 20 -36 0 -13 7 -27 15 -30 8 -4 15 -17 15 -30
0 -13 9 -32 20 -41 11 -10 20 -27 20 -38 0 -11 9 -28 20 -38 11 -9 20 -28 20
-41 0 -13 7 -26 15 -30 8 -3 15 -18 15 -33 0 -17 8 -33 20 -41 11 -7 20 -23
20 -36 0 -13 7 -26 15 -30 8 -3 15 -12 15 -21 0 -13 -49 -15 -442 -13 l-443 3
-3 27 c-2 19 3 30 17 38 14 7 21 21 21 39 0 16 7 31 15 35 8 3 15 17 15 30 0
15 8 30 20 36 13 7 20 21 20 39 0 16 7 31 15 35 8 3 15 17 15 31 0 14 9 30 20
37 12 8 20 24 20 41 0 15 7 30 15 33 8 4 15 17 15 30 0 13 9 32 20 41 11 10
20 28 20 40 0 12 9 27 20 33 13 7 20 21 20 39 0 16 7 31 15 35 8 3 15 17 15
30 0 15 8 30 20 36 13 7 20 21 20 39 0 16 7 31 15 35 8 3 15 15 15 27 0 27 41
79 60 76 9 -2 15 -13 15 -30z"/>
<path d="M23960 4555 c-10 -12 -39 -15 -140 -15 -114 0 -129 -2 -145 -20 -14
-15 -31 -20 -74 -20 -44 0 -60 -4 -74 -20 -13 -16 -29 -20 -76 -20 -43 0 -60
-4 -65 -15 -4 -10 -20 -15 -50 -15 -35 0 -48 -5 -56 -20 -8 -15 -21 -20 -56
-20 -30 0 -46 -5 -50 -15 -4 -8 -19 -15 -35 -15 -18 0 -32 -7 -39 -20 -8 -15
-21 -20 -54 -20 -36 0 -47 -5 -72 -35 -17 -21 -38 -35 -52 -35 -13 0 -35 -14
-53 -35 -17 -19 -40 -35 -50 -35 -28 0 -329 -303 -329 -330 0 -11 -7 -23 -15
-26 -8 -4 -15 -19 -15 -35 0 -18 -7 -32 -20 -39 -13 -7 -20 -21 -20 -39 0 -16
-7 -31 -15 -35 -8 -3 -15 -17 -15 -30 0 -15 -8 -30 -20 -36 -15 -8 -20 -21
-20 -53 0 -29 -6 -48 -19 -59 -16 -13 -18 -27 -15 -87 3 -62 1 -74 -16 -88
-19 -17 -20 -30 -20 -345 0 -316 1 -328 20 -338 17 -9 19 -19 16 -86 -3 -65
-1 -77 15 -87 14 -9 19 -24 19 -54 0 -32 5 -45 20 -53 13 -7 20 -21 20 -39 0
-16 7 -31 15 -35 8 -3 15 -18 15 -33 0 -17 8 -33 20 -41 11 -7 20 -23 20 -35
0 -15 13 -35 35 -53 20 -16 35 -38 35 -50 0 -29 254 -284 284 -284 12 0 36
-17 56 -40 21 -24 44 -40 58 -40 12 0 25 -7 28 -15 4 -8 19 -15 35 -15 18 0
32 -7 39 -20 7 -13 21 -20 39 -20 16 0 31 -7 35 -15 3 -8 17 -15 30 -15 15 0
30 -8 36 -20 8 -15 21 -20 56 -20 30 0 46 -5 50 -15 4 -10 20 -15 49 -15 29 0
47 -6 60 -20 14 -15 31 -20 74 -20 44 0 60 -4 74 -20 14 -17 29 -20 91 -20 53
0 77 -4 86 -15 10 -12 37 -15 126 -15 103 0 114 -2 124 -20 10 -19 21 -20 410
-20 389 0 400 1 410 20 10 18 21 20 109 20 79 0 100 3 105 15 4 11 21 15 66
15 49 0 62 4 72 20 10 15 24 20 54 20 28 0 47 6 59 20 13 14 31 20 60 20 29 0
45 5 49 15 3 8 17 15 30 15 15 0 30 8 36 20 6 12 21 20 36 20 16 0 38 13 58
35 19 19 43 35 54 35 12 0 41 23 71 56 28 30 55 53 61 49 6 -4 10 -62 10 -146
l0 -139 366 0 367 0 23 26 24 25 0 789 0 789 -25 26 -26 25 -945 0 -946 0 -29
-29 -29 -29 0 -284 0 -283 29 -28 29 -27 341 0 c326 0 341 -1 351 -19 14 -26
16 -22 -36 -74 -29 -30 -55 -47 -70 -47 -13 0 -28 -9 -34 -20 -6 -11 -21 -20
-34 -20 -13 0 -29 -7 -36 -15 -7 -8 -23 -15 -36 -15 -13 0 -28 -9 -34 -20 -8
-15 -21 -20 -53 -20 -30 0 -48 -6 -60 -20 -15 -18 -29 -20 -126 -20 -84 0
-111 -3 -121 -15 -18 -22 -275 -22 -284 0 -4 12 -29 15 -136 15 -118 0 -132 2
-147 20 -12 14 -30 20 -60 20 -32 0 -45 5 -53 20 -6 11 -21 20 -34 20 -13 0
-29 7 -36 15 -7 8 -23 15 -36 15 -13 0 -28 9 -34 20 -6 11 -21 20 -34 20 -32
0 -146 114 -146 146 0 13 -9 28 -20 34 -14 8 -19 17 -15 30 4 13 -1 23 -14 32
-13 8 -21 23 -21 40 0 17 -8 31 -21 38 -18 10 -20 20 -18 87 2 61 -1 79 -14
88 -25 18 -25 240 -1 253 14 8 17 24 15 85 -2 67 0 78 18 89 13 8 21 23 21 40
0 15 7 31 16 36 9 5 17 19 18 31 1 29 152 181 180 181 12 0 34 15 50 35 17 20
39 35 51 35 12 0 30 9 40 20 13 14 31 20 60 20 29 0 45 5 49 15 4 12 27 15
120 15 105 0 116 2 126 20 10 19 21 20 178 20 155 0 169 -1 185 -20 15 -17 29
-20 112 -20 76 0 97 -3 101 -15 4 -10 20 -15 46 -15 33 0 47 -6 74 -35 18 -19
42 -35 53 -35 26 0 151 -124 151 -150 0 -10 11 -30 24 -44 l23 -26 631 0 c565
0 630 2 636 16 3 9 6 47 6 84 0 59 -3 71 -20 80 -17 9 -20 21 -20 74 0 48 -4
65 -15 70 -8 3 -15 17 -15 31 0 14 -9 30 -20 37 -12 8 -20 24 -20 40 0 17 -8
31 -20 38 -11 6 -20 21 -20 34 0 15 -18 40 -50 70 -28 27 -50 56 -50 67 0 26
-52 79 -77 79 -10 0 -50 32 -88 70 -45 45 -77 70 -92 70 -12 0 -27 9 -33 20
-7 13 -21 20 -39 20 -16 0 -31 7 -35 15 -3 8 -17 15 -30 15 -15 0 -30 8 -36
20 -7 13 -21 20 -39 20 -16 0 -31 7 -35 15 -4 10 -20 15 -50 15 -35 0 -48 5
-56 20 -8 15 -21 20 -56 20 -30 0 -46 5 -50 15 -5 11 -22 15 -65 15 -47 0 -63
4 -76 20 -15 17 -30 20 -95 20 -67 0 -79 3 -88 20 -10 18 -21 20 -124 20 -89
0 -116 3 -126 15 -11 13 -77 15 -480 15 -403 0 -469 -2 -480 -15z"/>
<path d="M1457 4511 c-27 -29 -27 -31 -27 -156 l0 -127 44 -44 45 -44 168 -2
168 -3 3 -563 2 -563 28 -24 c26 -24 33 -24 184 -25 l156 0 31 30 30 31 0 547
c1 301 1 553 1 560 0 9 36 12 148 12 135 0 151 2 166 19 10 11 30 21 45 23
l26 3 3 169 c2 129 -1 171 -10 178 -7 4 -276 8 -598 8 l-585 0 -28 -29z"/>
<path d="M2937 4533 c-4 -3 -7 -346 -7 -762 l0 -755 27 -28 27 -28 156 0 156
0 32 29 33 28 -1 288 c-1 158 3 292 8 297 4 4 107 7 228 6 l219 -3 3 -279 c2
-262 3 -280 22 -293 10 -7 20 -26 22 -41 l3 -27 170 -3 c205 -3 215 -2 215 38
0 16 7 33 15 37 13 8 15 97 15 731 l1 722 -28 25 c-27 24 -32 24 -204 25
l-175 0 -25 -27 c-24 -28 -24 -31 -29 -268 l-5 -240 -227 -3 c-179 -2 -228 0
-229 10 0 7 0 116 1 242 l1 228 -32 29 -33 29 -176 0 c-97 0 -180 -3 -183 -7z"/>
<path d="M4597 4511 l-27 -29 0 -732 0 -732 27 -29 28 -29 533 0 534 0 29 29
29 29 0 144 -1 143 -27 27 -28 28 -330 2 -329 3 -3 109 c-2 71 1 113 9 122 9
11 61 14 270 14 l260 0 -3 158 -3 157 -265 5 -265 5 0 100 0 100 312 5 312 5
45 42 46 43 0 126 c0 125 0 126 -29 155 l-29 29 -534 0 -533 0 -28 -29z"/>
<path d="M26602 2983 l3 -1478 1684 -3 1685 -2 28 27 28 27 0 321 0 321 -28
27 -28 27 -1132 0 -1132 0 2 213 3 212 1083 3 c709 1 1082 6 1082 12 4 118 -1
653 -5 660 -4 7 -378 10 -1086 10 l-1079 0 0 195 0 195 1138 2 1137 3 3 328 2
329 -22 24 -23 24 -1673 0 -1672 0 2 -1477z"/>
</g>
</svg>
