<?xml version="1.0" standalone="no"?>
<!DOCTYPE svg PUBLIC "-//W3C//DTD SVG 20010904//EN"
 "http://www.w3.org/TR/2001/REC-SVG-20010904/DTD/svg10.dtd">
<svg version="1.0" xmlns="http://www.w3.org/2000/svg"
 width="100%" height="100%" viewBox="0 0 553.000000 600.000000"
 preserveAspectRatio="xMidYMid meet">
<metadata>
Created by potrace 1.16, written by Peter Selinger 2001-2019
</metadata>
<g transform="translate(0.000000,600.000000) scale(0.100000,-0.100000)"
fill="white" stroke="none">
<path d="M2345 5611 c-111 -52 -195 -177 -195 -290 0 -92 52 -198 127 -260
157 -130 398 -71 491 119 23 47 27 67 26 140 -1 102 -16 142 -82 212 -100 108
-242 139 -367 79z m177 -161 c11 0 33 -13 49 -29 26 -27 29 -36 29 -95 0 -36
-5 -76 -11 -90 -29 -64 -191 -70 -223 -8 -28 54 -24 151 7 188 22 26 85 46
115 38 8 -2 23 -4 34 -4z"/>
<path d="M3847 5195 c-108 -22 -256 -73 -337 -117 -98 -54 -241 -168 -311
-249 -64 -74 -145 -187 -158 -221 -5 -13 -23 -52 -39 -88 -30 -65 -51 -130
-59 -185 -2 -16 -8 -54 -13 -84 -6 -30 -10 -285 -10 -566 0 -598 -4 -569 95
-664 35 -34 69 -61 77 -62 7 0 22 -3 33 -5 29 -7 145 -8 177 -1 33 7 67 24 94
48 20 19 21 19 67 -48 61 -89 147 -163 251 -219 95 -50 145 -63 290 -71 142
-8 230 9 352 67 92 45 108 57 200 153 88 92 103 114 137 194 89 208 89 369 1
575 -21 49 -55 108 -76 131 -21 23 -38 45 -38 49 0 18 -162 143 -225 173 -255
125 -623 72 -791 -115 -20 -22 -40 -40 -45 -40 -5 0 -9 69 -9 154 0 126 3 157
15 170 24 24 171 91 255 118 67 21 94 23 260 23 166 0 193 -2 260 -24 184 -57
306 -132 437 -269 176 -183 263 -400 263 -657 0 -257 -87 -475 -263 -657 -105
-109 -182 -163 -306 -218 -129 -58 -189 -71 -345 -77 -159 -6 -237 4 -366 49
-123 43 -127 46 -135 118 -7 65 -31 102 -107 169 -52 45 -96 60 -208 71 -116
11 -188 34 -263 84 -69 46 -124 105 -170 184 -71 122 -70 112 -74 662 -2 287
-8 508 -13 525 -14 44 -98 127 -156 156 -107 52 -263 19 -336 -72 -17 -21 -37
-39 -44 -39 -7 0 -39 16 -72 35 -69 41 -159 77 -287 113 -129 36 -376 43 -518
14 -210 -44 -379 -125 -536 -259 -214 -181 -349 -391 -408 -634 -25 -103 -27
-131 -27 -299 0 -147 3 -199 18 -255 10 -38 20 -81 22 -95 3 -28 40 -116 81
-195 125 -243 381 -479 623 -575 59 -24 172 -55 254 -71 28 -6 132 -14 232
-18 99 -5 190 -13 201 -19 11 -6 32 -13 47 -16 45 -8 110 -52 176 -117 85 -86
104 -113 135 -199 49 -139 44 -271 -16 -414 -27 -65 -47 -93 -115 -162 -88
-90 -154 -129 -269 -159 -238 -61 -538 87 -637 315 -11 25 -23 80 -28 122 -17
146 -39 201 -109 266 -75 71 -92 77 -216 77 -126 -1 -144 -7 -216 -79 -74 -72
-92 -115 -97 -226 -3 -72 1 -120 18 -195 11 -55 23 -111 26 -125 10 -56 115
-251 172 -322 71 -88 189 -201 275 -264 70 -52 236 -139 294 -153 21 -6 74
-20 118 -32 69 -19 106 -22 275 -23 172 0 205 2 280 22 47 13 103 27 125 33
22 6 91 37 155 70 128 67 264 176 351 282 28 34 62 76 76 92 29 34 140 257
147 295 2 14 15 66 27 115 20 77 23 116 24 270 0 156 -3 192 -23 270 -13 50
-25 97 -27 105 -28 122 -174 357 -294 474 -55 54 -56 49 7 120 l33 38 67 -55
c191 -156 416 -243 655 -254 116 -6 118 -5 180 25 34 17 75 44 91 61 31 33 18
34 132 -14 91 -39 230 -67 356 -72 158 -7 256 7 412 58 367 121 652 427 743
799 25 103 28 132 27 280 -1 152 -3 174 -32 281 -64 239 -184 426 -377 588
-149 123 -321 205 -517 245 -157 32 -394 18 -543 -33 l-60 -21 55 52 c82 76
151 105 290 119 63 6 138 20 167 31 76 28 135 89 161 168 55 161 -5 309 -153
380 -57 27 -72 30 -156 29 -52 0 -125 -7 -162 -14z m277 -184 c61 -54 60 -148
-3 -205 -17 -15 -45 -21 -134 -28 -128 -10 -179 -24 -279 -79 -137 -75 -239
-184 -303 -324 -61 -133 -64 -160 -68 -695 -3 -378 -6 -491 -17 -513 -16 -33
-75 -52 -137 -42 -57 8 -80 35 -88 99 -4 29 -5 266 -2 527 5 541 10 580 90
739 155 309 441 508 777 539 91 9 139 3 164 -18z m-2352 -717 c100 -20 227
-70 328 -129 l80 -47 0 -186 0 -187 -46 52 c-89 102 -242 196 -384 234 -99 27
-322 21 -410 -10 -164 -59 -304 -164 -403 -304 -44 -62 -81 -127 -73 -127 3 0
-7 -33 -22 -72 -25 -67 -27 -85 -26 -223 0 -135 3 -158 27 -235 60 -187 214
-370 380 -449 131 -63 229 -84 372 -79 189 7 310 55 473 186 46 38 156 177
167 213 6 19 14 9 50 -63 24 -48 57 -107 74 -131 17 -25 31 -50 31 -56 0 -20
-126 -144 -202 -199 -43 -30 -78 -58 -78 -61 1 -3 30 -24 67 -46 103 -63 257
-219 311 -316 79 -142 93 -177 130 -329 25 -103 21 -311 -8 -430 -12 -52 -21
-95 -20 -95 11 0 -116 -228 -147 -265 -131 -154 -287 -290 -387 -336 -99 -45
-163 -56 -346 -61 -243 -7 -365 17 -537 106 -119 62 -149 85 -284 222 -93 94
-112 119 -157 210 -82 164 -119 396 -75 470 26 44 105 61 172 38 43 -15 63
-57 72 -159 11 -113 55 -235 110 -306 62 -81 191 -197 257 -232 201 -106 416
-124 613 -52 109 40 152 66 241 149 101 95 153 164 193 260 77 182 83 343 21
524 -42 121 -94 202 -188 295 -142 140 -304 202 -534 202 -250 0 -390 34 -582
142 -90 50 -236 186 -299 278 -63 93 -125 226 -151 325 -24 90 -27 117 -27
275 0 106 5 191 12 215 7 22 15 58 19 79 15 98 129 290 250 422 64 69 228 188
295 213 19 7 54 21 79 31 164 66 369 82 562 44z m780 -25 c10 -6 23 -21 28
-35 6 -15 10 -214 10 -472 0 -246 5 -478 10 -516 30 -208 125 -355 324 -500
74 -54 167 -82 318 -96 150 -14 168 -29 168 -138 0 -44 -5 -57 -26 -79 -25
-25 -26 -25 -162 -20 -114 3 -149 9 -207 30 -185 67 -271 121 -398 251 -101
104 -197 255 -212 332 -3 16 -13 54 -22 84 -15 48 -17 121 -20 581 l-4 526 26
31 c14 17 36 33 48 35 29 7 95 -1 119 -14z m1659 -398 c157 -45 310 -208 353
-377 56 -218 -34 -443 -232 -578 -119 -82 -275 -106 -433 -67 -109 27 -123 35
-235 147 -73 72 -107 127 -139 222 -25 77 -17 254 14 335 30 76 101 169 176
230 56 45 135 94 135 82 0 -2 12 0 28 6 85 33 221 33 333 0z m-2442 -45 c151
-65 242 -147 310 -277 52 -100 68 -206 53 -345 -15 -130 -88 -259 -204 -355
-136 -113 -284 -151 -464 -118 -163 29 -278 102 -367 233 -63 93 -88 172 -94
302 -5 99 -3 119 21 195 51 167 196 317 366 376 57 20 81 22 190 20 111 -3
132 -6 189 -31z"/>
</g>
</svg>
