

<svg xmlns="http://www.w3.org/2000/svg" viewBox="0 0 600.000000 306.000000" preserveAspectRatio="xMidYMid meet">

<g transform="translate(0.000000,306.000000) scale(0.100000,-0.100000)"
fill="white" >
<path d="M0 1530 l0 -1220 3000 0 3000 0 0 1220 0 1220 -3000 0 -3000 0 0
-1220z m3000 1090 c0 -5 9 -10 20 -10 11 0 20 -4 20 -10 0 -5 7 -10 16 -10 20
0 49 -29 39 -38 -4 -4 -10 -1 -12 6 -3 6 -13 12 -24 12 -10 0 -19 5 -19 10 0
6 -9 10 -20 10 -11 0 -20 5 -20 10 0 6 -9 10 -20 10 -11 0 -20 5 -20 10 0 6 9
10 20 10 11 0 20 -4 20 -10z m-80 -20 c0 -5 -7 -10 -15 -10 -20 0 -65 -45 -65
-65 0 -17 -16 -20 -26 -4 -8 14 65 89 88 89 10 0 18 -4 18 -10z m-1875 -40 c3
-5 17 -10 31 -10 13 0 24 -4 24 -10 0 -5 9 -10 20 -10 11 0 20 -4 20 -10 0 -5
-9 -10 -20 -10 -11 0 -20 5 -20 10 0 6 -18 10 -40 10 -22 0 -40 5 -40 10 0 6
-53 10 -139 10 -83 0 -142 -4 -146 -10 -3 -5 -21 -10 -40 -10 -19 0 -37 -4
-40 -10 -3 -5 -19 -10 -36 -10 -16 0 -29 -4 -29 -10 0 -5 -9 -10 -20 -10 -11
0 -20 -4 -20 -10 0 -5 -9 -10 -20 -10 -11 0 -20 -4 -20 -10 0 -5 -6 -10 -13
-10 -8 0 -22 -9 -32 -20 -10 -11 -23 -20 -29 -20 -14 0 -146 -131 -146 -146 0
-6 -9 -19 -20 -29 -11 -10 -20 -23 -20 -30 0 -7 -9 -20 -20 -30 -11 -10 -20
-24 -20 -30 0 -7 -7 -18 -15 -25 -9 -7 -13 -21 -10 -30 3 -9 -2 -23 -10 -30
-8 -7 -13 -21 -10 -30 3 -9 -2 -23 -10 -30 -10 -8 -15 -25 -13 -43 2 -18 -2
-32 -9 -34 -9 -3 -13 8 -13 36 0 23 5 41 10 41 6 0 10 14 10 30 0 17 5 30 10
30 6 0 10 14 10 30 0 17 5 30 10 30 6 0 10 9 10 20 0 11 5 20 10 20 6 0 10 6
10 13 0 6 14 28 30 47 16 19 30 40 30 45 0 15 156 165 172 165 7 0 20 9 28 20
8 11 22 20 32 20 10 0 18 5 18 10 0 6 9 10 20 10 11 0 20 5 20 10 0 6 9 10 20
10 11 0 20 5 20 10 0 6 13 10 29 10 17 0 33 5 36 10 3 6 17 10 30 10 13 0 27
5 30 10 4 6 70 10 165 10 95 0 161 -4 165 -10z m3405 0 c0 -5 14 -10 30 -10
17 0 30 -4 30 -10 0 -5 9 -10 20 -10 11 0 20 -4 20 -10 0 -5 7 -10 15 -10 9 0
44 -27 78 -60 38 -37 56 -60 46 -60 -9 0 -32 18 -52 40 -19 22 -41 40 -49 40
-7 0 -20 9 -28 20 -8 12 -26 20 -42 20 -15 0 -28 5 -28 10 0 6 -13 10 -29 10
-17 0 -33 5 -36 10 -4 6 -62 10 -140 10 -78 0 -136 -4 -140 -10 -3 -5 -19 -10
-36 -10 -16 0 -29 -4 -29 -10 0 -5 -9 -10 -20 -10 -11 0 -20 -4 -20 -10 0 -5
-7 -10 -15 -10 -9 0 -34 -19 -55 -42 -22 -23 -43 -38 -48 -33 -4 4 -1 10 6 12
6 3 12 13 12 24 0 12 7 19 18 19 10 0 24 9 32 20 8 11 22 20 32 20 10 0 18 5
18 10 0 6 9 10 20 10 11 0 20 5 20 10 0 6 9 10 19 10 11 0 23 5 26 10 4 6 70
10 166 10 99 0 159 -4 159 -10z m960 0 c0 -5 14 -10 30 -10 17 0 30 -4 30 -10
0 -5 14 -10 30 -10 17 0 30 -4 30 -10 0 -5 9 -10 20 -10 11 0 20 -4 20 -10 0
-5 7 -10 16 -10 16 0 130 -111 172 -168 12 -16 22 -42 22 -56 0 -14 5 -26 10
-26 6 0 10 -9 10 -20 0 -11 5 -20 10 -20 6 0 10 -13 10 -29 0 -17 5 -33 10
-36 6 -3 10 -39 10 -79 0 -39 5 -77 10 -82 7 -7 9 -173 8 -480 l-3 -469 -172
-3 c-111 -1 -173 1 -173 8 0 6 63 11 163 12 l162 3 2 448 2 449 -15 24 c-11
16 -15 41 -13 81 2 33 -2 68 -9 80 -7 12 -12 31 -12 42 0 11 -9 36 -20 56 -11
20 -20 44 -20 54 0 10 -13 32 -30 49 -16 18 -30 35 -30 39 -1 14 -70 83 -83
83 -7 0 -19 9 -27 20 -8 11 -22 20 -32 20 -10 0 -18 5 -18 10 0 6 -13 10 -30
10 -16 0 -30 5 -30 10 0 6 -13 10 -30 10 -16 0 -30 5 -30 10 0 6 -65 10 -175
10 -110 0 -175 -4 -175 -10 0 -5 -13 -10 -30 -10 -16 0 -30 -4 -30 -10 0 -5
-9 -10 -20 -10 -11 0 -20 -4 -20 -10 0 -5 -12 -10 -26 -10 -19 0 -43 -18 -89
-66 -34 -37 -65 -62 -68 -57 -4 6 24 40 62 77 49 47 76 66 95 66 14 0 26 5 26
10 0 6 9 10 20 10 11 0 20 5 20 10 0 6 14 10 30 10 17 0 30 5 30 10 0 6 65 10
175 10 110 0 175 -4 175 -10z m-3740 -40 c0 -6 -50 -10 -130 -10 -80 0 -130
-4 -130 -10 0 -5 -4 -10 -10 -10 -5 0 -10 9 -10 20 l0 20 140 0 c87 0 140 -4
140 -10z m42 -22 c-15 -15 -26 -4 -18 18 5 13 9 15 18 6 9 -9 9 -15 0 -24z
m2166 -12 c2 -28 0 -37 -10 -34 -7 3 -13 15 -13 29 l0 24 -124 3 c-76 2 -128
-1 -135 -8 -16 -16 -26 -12 -26 10 l0 21 153 -3 152 -3 3 -39z m-2643 -16 c21
-22 45 -40 51 -40 7 0 16 -4 19 -10 14 -22 -34 -8 -61 18 -16 15 -41 33 -56
41 -15 8 -25 18 -22 23 10 16 31 7 69 -32z m1585 -16 c0 -26 -17 -33 -26 -9
-8 20 3 48 16 40 5 -3 10 -17 10 -31z m-1102 -665 c-2 -436 -6 -663 -13 -662
-11 3 -20 1305 -10 1332 21 55 25 -55 23 -670z m-308 621 c0 -22 -4 -40 -10
-40 -5 0 -10 18 -10 40 0 22 5 40 10 40 6 0 10 -18 10 -40z m1702 -44 c-33
-40 -40 -45 -76 -65 -44 -25 -96 -28 -96 -6 0 10 11 15 35 15 51 0 111 40 129
85 l7 19 9 -14 c6 -10 3 -21 -8 -34z m-1763 -3 c1 -1 0 -6 -3 -12 -4 -6 -14
-4 -26 6 -23 20 -15 39 8 21 10 -7 19 -13 21 -15z m710 -154 c-94 -94 -173
-168 -177 -165 -3 4 31 44 76 89 45 45 82 88 82 95 0 6 5 12 12 12 16 0 108
91 108 107 0 13 50 42 62 36 4 -2 -70 -80 -163 -174z m648 166 c32 -16 93 -78
93 -95 0 -5 6 -10 13 -10 16 -1 213 -197 205 -206 -4 -3 -38 26 -77 65 -38 39
-77 71 -86 71 -8 0 -15 7 -15 15 0 9 -8 19 -17 22 -24 9 -53 35 -53 48 -1 5
-23 27 -50 48 -28 21 -50 43 -50 48 0 12 2 12 37 -6z m153 -31 c0 -7 11 -14
25 -16 33 -4 37 -22 7 -26 -22 -3 -47 17 -52 43 -1 6 -8 14 -16 18 -8 5 -12
13 -8 18 7 12 44 -18 44 -37z m1894 -15 c-3 -5 -10 -7 -15 -3 -5 3 -7 10 -3
15 3 5 10 7 15 3 5 -3 7 -10 3 -15z m-3776 -56 c3 -10 -17 -13 -77 -13 l-81 0
0 15 0 16 77 -3 c50 -2 78 -7 81 -15z m3222 2 c0 -16 -45 -21 -54 -6 -8 12 4
21 31 21 14 0 23 -6 23 -15z m85 6 c3 -5 1 -13 -5 -16 -15 -9 -43 3 -35 15 8
13 32 13 40 1z m895 -6 c0 -16 -45 -21 -54 -6 -8 12 4 21 31 21 14 0 23 -6 23
-15z m139 -1 c17 -8 29 -20 26 -25 -8 -12 -35 -12 -35 1 0 6 -18 10 -39 10
-22 0 -42 4 -45 9 -16 25 46 29 93 5z m-4526 -19 c1 -5 -6 -11 -15 -13 -11 -2
-18 3 -18 13 0 17 30 18 33 0z m262 4 c10 -15 -1 -23 -20 -15 -9 3 -13 10 -10
16 8 13 22 13 30 -1z m3041 -16 c-10 -10 -19 5 -10 18 l8 13 4 -13 c2 -7 1
-15 -2 -18z m248 6 c-3 -5 -10 -7 -15 -3 -5 3 -7 10 -3 15 3 5 10 7 15 3 5 -3
7 -10 3 -15z m754 3 c2 -7 -5 -12 -16 -12 -11 0 -22 -6 -25 -12 -2 -7 -8 -10
-12 -6 -10 10 25 50 39 45 5 -2 12 -9 14 -15z m-4364 -23 c-3 -5 -10 -7 -15
-3 -5 3 -7 10 -3 15 3 5 10 7 15 3 5 -3 7 -10 3 -15z m362 -6 c-10 -10 -19 5
-10 18 l8 13 4 -13 c2 -7 1 -15 -2 -18z m1228 6 c-3 -5 -10 -7 -15 -3 -5 3 -7
10 -3 15 3 5 10 7 15 3 5 -3 7 -10 3 -15z m46 0 c0 -5 -4 -9 -10 -9 -5 0 -10
7 -10 16 0 8 5 12 10 9 6 -3 10 -10 10 -16z m60 0 c0 -5 -4 -9 -10 -9 -5 0
-10 7 -10 16 0 8 5 12 10 9 6 -3 10 -10 10 -16z m1585 -45 c-26 -25 -49 -43
-53 -40 -3 4 16 29 44 57 27 27 50 45 52 40 2 -6 -17 -31 -43 -57z m375 45 c0
-5 -4 -9 -10 -9 -5 0 -10 7 -10 16 0 8 5 12 10 9 6 -3 10 -10 10 -16z m1017
-25 c-8 -8 -37 21 -37 38 0 7 9 4 22 -9 12 -13 19 -25 15 -29z m-4271 -1 c-10
-10 -19 5 -10 18 l8 13 4 -13 c2 -7 1 -15 -2 -18z m3310 -6 c27 -33 46 -68 40
-74 -7 -8 -36 23 -36 39 0 8 -9 20 -20 28 -11 8 -20 18 -20 22 0 15 16 8 36
-15z m-3776 -7 c0 -5 -6 -10 -14 -10 -8 0 -18 5 -21 10 -3 6 3 10 14 10 12 0
21 -4 21 -10z m1465 -130 l-140 -140 -46 0 c-45 0 -82 21 -64 38 4 4 10 1 12
-5 3 -8 22 -13 51 -12 l47 0 125 129 c69 71 132 129 140 129 8 1 -48 -62 -125
-139z m1395 115 c0 -3 -31 -36 -69 -74 -37 -37 -70 -72 -72 -78 -6 -17 -129
-143 -140 -143 -26 0 3 37 128 162 125 125 153 149 153 133z m-2267 -59 c26
-24 47 -51 47 -60 0 -9 5 -16 10 -16 6 0 10 -8 10 -18 0 -10 9 -24 20 -32 22
-16 29 -75 8 -67 -7 2 -13 13 -13 25 0 11 -9 31 -21 44 -11 12 -28 39 -37 59
-9 20 -33 51 -52 68 -19 17 -35 33 -35 36 0 14 21 1 63 -39z m1227 39 c0 -11
-132 -136 -138 -131 -3 4 23 36 58 71 58 59 80 75 80 60z m-1900 -23 c0 -12
-71 -74 -78 -67 -3 3 10 21 28 40 33 34 50 43 50 27z m3370 -22 c0 -5 -4 -10
-10 -10 -5 0 -10 -13 -10 -30 0 -16 -4 -30 -10 -30 -14 0 -12 54 2 68 15 15
28 16 28 2z m570 -60 c0 -16 -4 -30 -10 -30 -5 0 -10 14 -10 30 0 17 5 30 10
30 6 0 10 -13 10 -30z m-4020 -30 c0 -11 -4 -20 -10 -20 -5 0 -10 -9 -10 -20
0 -11 -4 -20 -10 -20 -5 0 -10 -13 -10 -30 0 -16 -4 -30 -10 -30 -5 0 -10 14
-10 30 0 17 5 30 10 30 6 0 10 9 10 20 0 11 5 20 10 20 6 0 10 9 10 20 0 11 5
20 10 20 6 0 10 -9 10 -20z m4390 -11 c0 -17 -5 -29 -11 -27 -6 2 -10 7 -10
11 1 4 1 16 1 27 0 11 5 20 10 20 6 0 10 -14 10 -31z m-3020 -9 c0 -21 -15
-27 -25 -10 -7 12 2 30 16 30 5 0 9 -9 9 -20z m1254 -40 c32 -32 55 -63 51
-69 -9 -16 -25 -13 -25 5 0 20 -24 44 -44 44 -9 0 -16 8 -16 20 0 13 -7 20
-20 20 -13 0 -20 7 -20 20 0 11 3 20 8 20 4 0 33 -27 66 -60z m786 10 c0 -27
-4 -50 -10 -50 -5 0 -10 -22 -10 -50 0 -27 -4 -50 -10 -50 -5 0 -10 23 -10 50
0 28 5 50 10 50 6 0 10 23 10 50 0 28 5 50 10 50 6 0 10 -22 10 -50z m-1578
25 c3 -3 -15 -26 -40 -50 l-46 -45 137 -137 136 -138 41 40 c22 21 40 44 40
50 0 5 10 15 22 20 13 6 28 20 34 33 15 29 74 92 88 92 6 0 25 14 43 32 18 17
36 29 39 25 8 -7 -291 -307 -306 -307 -14 0 -300 285 -300 299 0 6 7 11 15 11
8 0 15 5 15 12 0 7 12 25 27 40 26 27 43 34 55 23z m2208 -55 c0 -33 -4 -60
-10 -60 -6 0 -10 27 -10 60 0 33 4 60 10 60 6 0 10 -27 10 -60z m328 -447 l-3
-468 -172 -3 c-111 -1 -173 1 -173 8 0 6 63 11 163 12 l162 3 2 450 c1 248 3
453 3 458 0 4 5 7 10 7 7 0 9 -158 8 -467z m-1958 432 c0 -17 174 -195 190
-195 6 0 10 -7 10 -16 0 -9 9 -18 20 -21 22 -6 27 -23 7 -23 -20 0 -247 232
-247 252 0 10 5 18 10 18 6 0 10 -7 10 -15z m2610 -425 c0 -287 -3 -440 -10
-440 -7 0 -10 153 -10 440 0 287 3 440 10 440 7 0 10 -153 10 -440z m-2020
412 c0 -11 -231 -235 -257 -249 -12 -7 -24 -9 -27 -4 -3 4 7 14 21 22 15 8 76
64 137 126 105 106 126 123 126 105z m-2120 -48 c0 -13 -4 -24 -10 -24 -5 0
-10 14 -10 31 0 17 4 28 10 24 6 -3 10 -17 10 -31z m-1270 -80 c0 -61 -4 -93
-10 -89 -11 7 -14 168 -3 178 12 13 13 7 13 -89z m3104 75 c-3 -5 -10 -7 -15
-3 -5 3 -7 10 -3 15 3 5 10 7 15 3 5 -3 7 -10 3 -15z m-2774 -74 c0 -35 -4
-67 -10 -70 -6 -4 -10 22 -10 70 0 48 4 74 10 70 6 -3 10 -35 10 -70z m1896
-213 c-4 -3 -45 32 -92 79 -67 67 -87 81 -94 69 -5 -8 -12 -11 -17 -7 -4 5 -1
12 7 17 l14 9 -22 24 c-12 13 -19 26 -16 30 4 4 56 -43 116 -104 61 -61 107
-113 104 -117z m1554 -168 c0 -242 -3 -345 -11 -342 -6 2 -10 7 -10 11 1 4 1
158 1 342 0 217 4 335 10 335 6 0 10 -122 10 -346z m-2510 276 c0 -27 -4 -50
-10 -50 -5 0 -10 -9 -10 -20 0 -21 -15 -27 -25 -9 -4 5 1 19 10 29 10 11 16
32 15 52 -3 44 -2 48 10 48 6 0 10 -22 10 -50z m-1246 -70 c1 -18 -5 -35 -11
-37 -9 -3 -13 8 -13 37 0 51 23 51 24 0z m326 11 c0 -16 6 -31 13 -34 6 -2 9
-8 5 -12 -4 -4 -14 0 -23 8 -17 17 -21 67 -5 67 6 0 10 -13 10 -29z m1695 11
c0 -18 -20 -15 -23 4 -3 10 1 15 10 12 7 -3 13 -10 13 -16z m-1999 -98 c1 -22
93 -212 106 -220 5 -3 12 -14 16 -24 10 -27 152 -170 168 -170 8 0 14 -4 14
-10 0 -5 7 -10 15 -10 9 0 25 -9 37 -20 12 -11 28 -20 35 -20 7 0 13 -4 13
-10 0 -5 9 -10 20 -10 11 0 20 -4 20 -10 0 -5 -9 -10 -20 -10 -11 0 -20 5 -20
10 0 6 -8 10 -18 10 -10 0 -24 9 -32 20 -8 11 -22 20 -32 20 -10 0 -18 5 -18
10 0 6 -7 10 -16 10 -18 0 -194 169 -194 186 0 5 -9 20 -20 32 -11 12 -20 28
-20 37 0 8 -4 15 -10 15 -5 0 -10 9 -10 20 0 11 -4 20 -10 20 -5 0 -10 9 -10
20 0 11 -4 20 -10 20 -5 0 -10 9 -10 19 0 11 -4 23 -10 26 -15 9 -13 58 3 53
6 -3 12 -9 13 -14z m344 -3 c0 -11 6 -21 13 -24 6 -2 9 -8 5 -12 -9 -10 -38
19 -38 39 0 9 5 16 10 16 6 0 10 -9 10 -19z m840 9 c0 -5 -4 -10 -10 -10 -5 0
-10 -7 -10 -16 0 -9 -13 -29 -30 -44 -16 -15 -30 -33 -30 -39 0 -18 -78 -93
-85 -81 -3 5 7 22 24 36 17 14 31 31 31 38 0 7 14 25 30 41 17 16 30 33 30 39
0 12 30 46 42 46 4 0 8 -4 8 -10z m1184 -142 c84 -84 174 -170 199 -191 26
-21 47 -45 47 -52 0 -8 5 -15 10 -15 19 0 11 -86 -9 -104 -21 -19 -42 -3 -22
17 6 6 11 27 11 47 l0 35 -200 200 c-180 180 -212 215 -195 215 3 0 74 -69
159 -152z m-1919 0 c19 -17 35 -38 35 -47 0 -10 -14 -1 -40 24 -36 36 -49 55
-35 55 3 0 21 -14 40 -32z m1735 -18 c0 -5 -7 -10 -16 -10 -8 0 -12 5 -9 10 3
6 10 10 16 10 5 0 9 -4 9 -10z m-1203 -65 c-9 -8 -22 -15 -29 -15 -8 0 -19 -5
-26 -12 -9 -9 -15 -9 -23 -1 -8 8 3 17 38 35 49 24 67 21 40 -7z m1160 18 c4
-9 1 -19 -5 -21 -15 -5 -16 -32 -2 -32 12 0 13 -67 1 -74 -14 -9 -32 19 -25
38 3 9 1 22 -5 30 -15 17 -3 76 16 76 7 0 17 -8 20 -17z m142 -60 c1 -7 -1
-13 -4 -13 -11 0 -75 70 -75 81 0 15 78 -52 79 -68z m-1719 47 c0 -5 9 -10 19
-10 27 0 37 -19 15 -27 -10 -4 -19 -2 -22 5 -2 7 -12 12 -22 12 -20 0 -33 13
-23 24 10 10 33 7 33 -4z m121 -45 c0 -5 -12 -11 -26 -13 -18 -2 -25 1 -25 13
0 12 7 15 25 13 14 -2 26 -7 26 -13z m189 0 c0 -10 -10 -15 -30 -15 -20 0 -30
5 -30 15 0 10 10 15 30 15 20 0 30 -5 30 -15z m1116 -32 c-10 -10 -19 5 -10
18 l8 13 4 -13 c2 -7 1 -15 -2 -18z m334 -14 c0 -5 -4 -9 -10 -9 -5 0 -10 7
-10 16 0 8 5 12 10 9 6 -3 10 -10 10 -16z m-1120 -38 c0 -5 -6 -11 -14 -14 -8
-3 -22 -22 -31 -41 -18 -37 -29 -44 -40 -26 -3 6 -1 10 4 10 6 0 11 5 11 12 0
14 50 68 62 68 4 0 8 -4 8 -9z m795 -39 l1 -41 -233 -233 c-128 -128 -233
-238 -233 -245 0 -20 -20 -25 -27 -8 -4 13 55 77 231 250 l236 234 0 46 c0 60
24 57 25 -3z m200 18 c-3 -5 -13 -10 -21 -10 -8 0 -14 5 -14 10 0 6 9 10 21
10 11 0 17 -4 14 -10z m85 0 c0 -5 -13 -10 -30 -10 -16 0 -30 5 -30 10 0 6 14
10 30 10 17 0 30 -4 30 -10z m-1180 -76 c0 -3 -12 -16 -27 -28 -53 -41 -103
-59 -103 -36 0 6 8 10 18 10 11 0 27 9 37 20 10 11 24 20 32 20 7 0 13 5 13
10 0 6 7 10 15 10 8 0 15 -3 15 -6z m140 -24 c0 -16 -4 -30 -10 -30 -5 0 -10
14 -10 30 0 17 5 30 10 30 6 0 10 -13 10 -30z m288 -14 c2 -21 -3 -44 -10 -53
-7 -9 -13 -25 -13 -36 0 -11 -6 -22 -12 -24 -9 -3 -13 6 -13 26 0 17 5 31 10
31 6 0 10 23 10 51 0 60 23 65 28 5z m2222 -26 c0 -6 -65 -10 -175 -10 -110 0
-175 4 -175 10 0 6 65 10 175 10 110 0 175 -4 175 -10z m-3225 -20 c3 -5 30
-10 60 -10 30 0 57 -4 60 -10 3 -5 37 -10 76 -10 39 0 69 -4 69 -10 0 -6 -33
-10 -79 -10 -44 0 -83 5 -86 10 -3 6 -26 10 -50 10 -24 0 -47 5 -50 10 -3 6
-19 10 -36 10 -16 0 -29 5 -29 10 0 6 13 10 29 10 17 0 33 -4 36 -10z m425 0
c0 -5 -9 -10 -20 -10 -11 0 -20 5 -20 10 0 6 9 10 20 10 11 0 20 -4 20 -10z
m270 -10 c0 -11 -4 -20 -10 -20 -5 0 -10 -9 -10 -20 0 -11 -4 -20 -10 -20 -5
0 -10 -7 -10 -16 0 -21 -110 -135 -122 -128 -6 4 13 30 41 58 28 28 51 57 51
63 0 6 7 16 15 23 8 7 12 16 9 21 -3 5 2 12 10 15 9 3 16 15 16 25 0 10 5 19
10 19 6 0 10 -9 10 -20z m970 10 c0 -5 -14 -10 -31 -10 l-32 0 -79 -77 c-44
-43 -87 -82 -96 -87 -9 -5 -20 -14 -23 -19 -4 -5 -9 -5 -13 2 -7 11 41 60 60
61 13 0 69 60 77 83 4 9 13 17 20 17 8 0 22 9 32 20 19 21 85 29 85 10z m290
0 c0 -6 -50 -10 -130 -10 -80 0 -130 4 -130 10 0 6 50 10 130 10 80 0 130 -4
130 -10z m80 0 c0 -5 -9 -10 -21 -10 -11 0 -17 5 -14 10 3 6 13 10 21 10 8 0
14 -4 14 -10z m-1670 -20 c0 -5 -18 -10 -40 -10 -22 0 -40 5 -40 10 0 6 18 10
40 10 22 0 40 -4 40 -10z m-898 -142 c-15 -15 -26 -4 -18 18 5 13 9 15 18 6 9
-9 9 -15 0 -24z m1465 -28 c-7 -8 -19 -27 -27 -43 -10 -19 -17 -24 -24 -17 -8
8 -8 13 0 18 5 4 18 24 28 46 13 28 20 35 27 25 5 -8 3 -20 -4 -29z m-1422
-35 c15 -30 31 -55 36 -55 5 0 9 -6 9 -13 0 -18 124 -147 141 -147 8 0 21 -9
29 -20 8 -11 21 -20 30 -20 9 0 22 -9 30 -20 8 -11 22 -20 32 -20 10 0 18 -4
18 -10 0 -5 9 -10 20 -10 11 0 20 -4 20 -10 0 -5 -9 -10 -20 -10 -11 0 -20 5
-20 10 0 6 -8 10 -18 10 -10 0 -24 9 -32 20 -8 11 -22 20 -32 20 -10 0 -18 5
-18 10 0 6 -8 10 -17 10 -10 0 -36 18 -57 40 -22 22 -45 40 -53 40 -7 0 -13 4
-13 10 0 5 -16 27 -35 49 -19 21 -35 43 -35 48 0 6 -9 18 -20 28 -11 10 -20
26 -20 37 0 10 -4 18 -10 18 -5 0 -10 9 -10 20 0 35 18 22 45 -35z m420 10
c36 -35 31 -54 -5 -20 -28 27 -38 45 -25 45 3 0 17 -11 30 -25z m579 -16 c-3
-5 -10 -7 -15 -3 -5 3 -7 10 -3 15 3 5 10 7 15 3 5 -3 7 -10 3 -15z m856 10
c0 -6 -61 -71 -136 -145 -147 -144 -158 -150 -222 -118 -18 8 -32 22 -32 30 0
20 14 17 35 -6 40 -44 83 -20 226 129 113 117 129 131 129 110z m-1333 -49
c13 0 23 -4 23 -10 0 -5 13 -10 28 -10 15 0 32 -4 38 -10 5 -5 42 -10 83 -12
48 -2 76 -7 79 -15 3 -10 -17 -13 -77 -13 -47 0 -81 4 -81 10 0 6 -13 10 -29
10 -17 0 -33 5 -36 10 -3 6 -16 10 -29 10 -24 0 -61 32 -49 43 4 4 11 3 17 -3
5 -5 20 -10 33 -10z m400 -15 c-18 -17 -33 -19 -42 -6 -3 6 7 16 22 23 32 16
42 6 20 -17z m418 -31 c-36 -36 -45 -21 -9 17 16 16 30 25 32 20 2 -6 -8 -22
-23 -37z m-487 9 c2 -9 -7 -13 -27 -13 -30 0 -39 9 -24 24 11 10 46 3 51 -11z
m452 -58 c0 -10 -49 -55 -59 -55 -6 0 -28 -16 -49 -35 -41 -38 -164 -105 -193
-105 -10 0 -21 -4 -24 -10 -3 -5 -15 -10 -26 -10 -10 0 -19 5 -19 10 0 6 9 10
19 10 11 0 23 5 26 10 3 6 14 10 24 10 21 0 78 27 86 41 4 5 25 18 48 28 24
11 51 29 62 41 11 12 30 26 43 31 12 5 22 15 22 24 0 8 9 15 20 15 11 0 20 -2
20 -5z m-860 -205 c0 -5 18 -10 40 -10 22 0 40 -4 40 -10 0 -5 -18 -10 -40
-10 -22 0 -40 5 -40 10 0 6 -13 10 -30 10 -16 0 -30 5 -30 10 0 6 14 10 30 10
17 0 30 -4 30 -10z m450 -20 c0 -5 -13 -10 -30 -10 -16 0 -30 5 -30 10 0 6 14
10 30 10 17 0 30 -4 30 -10z m-80 -20 c0 -6 -50 -10 -130 -10 -80 0 -130 4
-130 10 0 6 50 10 130 10 80 0 130 -4 130 -10z"/>
</g>
</svg>
