<?xml version="1.0" standalone="no"?>
<!DOCTYPE svg PUBLIC "-//W3C//DTD SVG 20010904//EN"
 "http://www.w3.org/TR/2001/REC-SVG-20010904/DTD/svg10.dtd">
<svg version="1.0" xmlns="http://www.w3.org/2000/svg"
 width="100%" height="100%" viewBox="0 0 702.000000 600.000000"
 preserveAspectRatio="xMidYMid meet">
<metadata>
Created by potrace 1.16, written by Peter Selinger 2001-2019
</metadata>
<g transform="translate(0.000000,600.000000) scale(0.100000,-0.100000)"
fill="white" stroke="none">
<path d="M2219 5472 c-6 -17 -14 -32 -18 -32 -4 0 -15 -22 -26 -49 -21 -54
-18 -53 -137 -67 -32 -3 -58 -9 -58 -13 0 -4 27 -33 60 -66 59 -58 75 -95 51
-120 -5 -6 -12 -36 -16 -68 l-6 -57 23 9 c14 5 42 21 63 35 21 14 44 26 51 26
7 0 14 5 16 10 3 9 102 -34 118 -50 3 -3 16 -10 30 -16 l25 -11 -9 76 c-5 42
-14 79 -20 83 -7 5 17 35 62 79 39 39 72 73 72 74 0 1 -35 6 -77 10 -43 4 -86
12 -96 17 -11 5 -28 30 -39 56 -11 25 -29 60 -39 76 l-18 30 -12 -32z"/>
<path d="M2872 5487 c-6 -7 -20 -38 -32 -70 -12 -32 -31 -64 -43 -71 -12 -8
-57 -17 -99 -21 -43 -4 -78 -8 -78 -10 0 -1 29 -31 64 -66 l65 -64 -9 -60 c-5
-33 -12 -74 -14 -92 l-5 -32 87 45 c47 24 88 40 92 35 8 -14 142 -83 148 -77
3 4 0 17 -8 30 -7 14 -10 34 -7 45 3 12 1 24 -4 27 -5 3 -9 22 -9 42 0 33 8
46 60 97 33 33 60 62 60 66 0 4 -30 10 -67 14 -106 10 -104 9 -147 96 -21 43
-40 79 -41 79 -1 0 -7 -6 -13 -13z"/>
<path d="M3477 5420 c-42 -86 -39 -84 -149 -95 -38 -4 -68 -10 -68 -14 0 -4
29 -35 64 -70 60 -59 64 -66 59 -100 -2 -20 -8 -45 -13 -56 -5 -11 -10 -34
-12 -51 -5 -37 -6 -37 97 17 l70 36 35 -23 c19 -12 41 -23 48 -23 6 -1 12 -5
12 -9 0 -4 14 -13 31 -19 l31 -12 -5 37 c-4 20 -9 63 -13 95 l-7 59 62 62 63
63 -69 7 c-109 11 -109 11 -149 92 -20 41 -39 76 -43 78 -3 2 -23 -31 -44 -74z"/>
<path d="M4158 5478 c-8 -13 -26 -49 -41 -80 -31 -62 -30 -62 -149 -74 -38 -3
-68 -9 -68 -13 0 -3 15 -16 33 -28 18 -13 48 -38 66 -57 l34 -35 -12 -91 c-7
-50 -11 -93 -9 -95 2 -3 15 3 28 13 44 30 135 71 138 62 2 -6 9 -10 16 -10 7
0 38 -16 70 -35 32 -19 60 -35 62 -35 8 0 4 69 -5 74 -4 3 -11 29 -14 57 l-6
51 72 68 72 67 -80 8 c-43 4 -87 10 -97 14 -10 3 -35 42 -57 84 -37 76 -38 78
-53 55z"/>
<path d="M4757 5420 c-42 -86 -39 -85 -155 -96 l-74 -7 70 -71 c65 -65 70 -74
65 -106 -2 -19 -8 -44 -13 -55 -5 -11 -10 -34 -12 -52 -4 -31 -4 -31 21 -20
65 30 127 63 132 70 4 5 25 -3 47 -17 23 -14 46 -26 52 -26 5 0 10 -4 10 -8 0
-4 14 -13 31 -19 l31 -12 -5 37 c-4 20 -9 63 -13 95 l-7 59 62 62 63 63 -69 7
c-109 11 -109 11 -149 92 -20 41 -39 76 -43 78 -3 2 -23 -31 -44 -74z"/>
<path d="M1075 4618 c-3 -7 -6 -756 -7 -1664 l-3 -1650 -36 -69 c-20 -38 -45
-74 -55 -80 -11 -5 -22 -15 -26 -21 -4 -6 -33 -19 -65 -28 -32 -10 -66 -22
-75 -27 -23 -12 -225 -12 -232 0 -3 5 -24 11 -46 13 l-40 4 0 -298 c0 -227 3
-299 13 -305 6 -4 107 -9 223 -11 219 -4 391 12 459 44 17 7 49 20 73 29 24 8
56 24 72 35 15 11 33 20 39 20 18 0 181 161 198 195 9 16 19 32 22 35 12 10
41 69 41 84 0 9 4 16 9 16 4 0 18 37 30 83 13 45 27 90 31 99 27 50 30 242 30
1845 l0 1663 -325 0 c-251 0 -327 -3 -330 -12z m533 -1755 c-2 -1298 -6 -1637
-15 -1641 -7 -2 -13 -18 -13 -35 0 -38 -40 -191 -52 -195 -4 -2 -8 -10 -8 -17
0 -7 -16 -36 -35 -64 -19 -28 -35 -55 -35 -60 0 -12 -128 -131 -141 -131 -5 0
-27 -11 -47 -25 -20 -14 -43 -25 -50 -25 -7 0 -32 -9 -54 -20 -64 -31 -232
-51 -398 -48 l-145 3 -3 171 -2 172 123 3 c68 2 130 9 138 14 8 6 40 19 73 30
32 10 60 25 63 32 3 7 11 13 18 13 14 0 95 84 95 99 0 5 7 16 15 25 18 18 55
154 55 202 0 18 5 36 10 39 7 4 10 532 10 1551 l0 1544 200 0 201 0 -3 -1637z"/>
<path d="M2676 4613 c-2 -10 -7 -43 -11 -73 -3 -30 -10 -64 -15 -75 -4 -11
-18 -99 -30 -195 -13 -96 -26 -179 -30 -185 -4 -5 -16 -75 -25 -155 -10 -80
-21 -149 -24 -155 -4 -5 -6 -21 -5 -35 1 -14 -1 -27 -5 -30 -4 -3 -15 -68 -25
-145 -10 -77 -22 -144 -26 -150 -4 -5 -15 -73 -24 -150 -9 -77 -20 -147 -23
-155 -3 -8 -5 -24 -4 -34 2 -10 -2 -28 -7 -40 -11 -22 -42 -230 -42 -278 0
-16 -4 -28 -8 -28 -5 0 -19 -80 -31 -177 -13 -98 -27 -182 -31 -188 -4 -5 -15
-75 -25 -155 -10 -80 -21 -147 -25 -150 -3 -3 -17 -84 -29 -180 -12 -96 -26
-184 -31 -195 -5 -11 -16 -78 -25 -150 -9 -71 -19 -137 -22 -145 -4 -8 -6 -26
-6 -40 0 -14 -3 -27 -6 -30 -4 -3 -15 -70 -25 -150 -10 -80 -22 -149 -26 -155
-4 -5 -15 -71 -24 -145 -10 -74 -20 -142 -23 -150 -3 -8 -5 -28 -4 -43 2 -15
-2 -33 -7 -40 -5 -7 -13 -40 -17 -74 l-7 -63 305 0 306 0 7 70 c4 39 10 73 14
75 5 3 6 14 3 26 -3 11 -1 30 5 42 6 12 18 92 27 177 9 85 21 164 25 175 5 11
14 68 21 128 l12 107 362 0 363 0 6 -22 c3 -13 6 -37 6 -53 0 -17 4 -35 9 -40
4 -6 19 -102 31 -215 13 -113 26 -209 30 -215 4 -5 14 -65 21 -133 l13 -122
331 0 331 0 -10 77 c-5 43 -13 80 -16 83 -4 3 -17 86 -30 185 -12 99 -26 185
-30 190 -4 6 -15 73 -25 150 -10 77 -21 145 -25 150 -4 6 -6 21 -5 35 1 14 -1
27 -5 30 -3 3 -14 70 -24 150 -10 80 -22 150 -26 155 -4 6 -15 71 -24 145 -10
74 -20 142 -23 150 -3 8 -5 28 -4 43 2 15 -2 33 -7 40 -5 7 -18 75 -28 152
-10 77 -21 142 -25 145 -3 3 -16 86 -29 185 -12 99 -26 185 -30 190 -4 6 -16
74 -26 153 -10 78 -22 142 -27 142 -5 0 -8 17 -6 38 1 20 -1 44 -4 52 -3 8
-13 71 -22 140 -9 69 -20 134 -25 145 -5 11 -16 81 -25 155 -9 74 -19 142 -22
150 -4 8 -7 26 -8 40 -1 14 -5 32 -8 40 -3 8 -13 71 -22 140 -9 69 -20 134
-25 145 -5 11 -16 83 -25 160 -10 77 -20 145 -23 150 -4 6 -5 20 -3 32 1 13
-1 28 -6 35 -4 7 -12 45 -18 83 l-10 70 -442 3 c-414 2 -442 1 -447 -15z m449
-924 c11 -90 23 -168 26 -174 4 -5 15 -85 25 -177 10 -93 22 -168 27 -168 5 0
8 -17 6 -37 -1 -21 1 -45 4 -53 3 -8 13 -82 22 -165 9 -82 20 -159 25 -170 5
-11 16 -92 25 -180 9 -88 19 -167 23 -175 3 -8 7 -28 8 -45 1 -16 4 -37 7 -45
3 -8 13 -85 23 -170 9 -85 20 -159 25 -164 5 -6 9 -27 9 -48 l0 -38 -279 0
c-266 0 -279 1 -284 19 -2 11 -1 23 3 28 4 4 15 85 25 178 10 94 21 172 25
175 4 3 15 82 25 175 9 94 20 174 23 179 3 5 6 23 7 40 1 17 4 38 7 46 3 8 14
89 23 180 10 91 21 170 25 175 4 6 16 88 26 183 9 94 20 172 24 172 3 0 4 18
2 40 -2 22 0 40 6 40 5 0 12 33 16 73 16 183 30 277 40 274 6 -2 20 -78 31
-168z"/>
<path d="M4538 4624 c-5 -4 -8 -934 -8 -2066 l0 -2058 598 0 c553 1 727 7 756
28 6 5 36 14 66 21 96 23 257 108 283 148 4 7 13 13 20 13 14 0 87 75 87 89 0
5 11 18 25 29 14 11 25 23 25 26 0 4 11 24 24 45 14 21 22 42 19 45 -4 3 -2 6
4 6 5 0 16 19 23 43 7 23 21 60 31 82 9 22 23 76 29 120 7 44 14 86 16 94 7
21 5 733 -1 739 -3 3 -5 19 -5 36 0 37 -26 163 -39 191 -5 11 -27 58 -49 105
-65 137 -200 270 -315 310 -59 21 -70 36 -32 46 97 24 273 213 312 332 20 64
22 71 24 80 0 4 4 12 9 17 49 61 48 905 -1 905 -6 0 -9 6 -8 13 1 6 -3 25 -9
40 -7 16 -12 32 -12 38 0 42 -166 287 -196 288 -6 1 -21 12 -34 26 -23 24
-177 105 -200 105 -7 0 -26 7 -43 15 -18 8 -75 22 -127 31 -79 14 -196 17
-680 21 -322 3 -588 1 -592 -3z m1101 -619 c93 -33 154 -116 167 -227 4 -32
11 -58 15 -58 5 0 9 -101 9 -225 0 -143 -4 -225 -10 -225 -5 0 -10 -15 -10
-32 0 -96 -65 -200 -147 -238 -27 -12 -57 -27 -68 -33 -13 -8 -90 -13 -212
-15 l-193 -4 0 536 0 536 204 0 c153 0 214 -4 245 -15z m14 -1675 c105 -31
186 -120 207 -229 7 -31 16 -64 21 -73 13 -25 12 -665 -1 -673 -5 -3 -10 -16
-10 -29 0 -51 -32 -116 -77 -156 -72 -63 -111 -70 -375 -70 l-228 0 0 626 0
627 213 -6 c116 -3 229 -11 250 -17z"/>
</g>
</svg>
