<?xml version="1.0" standalone="no"?>
<!DOCTYPE svg PUBLIC "-//W3C//DTD SVG 20010904//EN"
 "http://www.w3.org/TR/2001/REC-SVG-20010904/DTD/svg10.dtd">
<svg version="1.0" xmlns="http://www.w3.org/2000/svg"
 width="100%" height="100%" viewBox="0 0 1658.000000 600.000000"
 preserveAspectRatio="xMidYMid meet">
<metadata>
Created by potrace 1.16, written by Peter Selinger 2001-2019
</metadata>
<g transform="translate(0.000000,600.000000) scale(0.100000,-0.100000)"
fill="white" stroke="none">
<path d="M15162 5228 c-17 -17 -17 -499 0 -516 9 -9 82 -12 265 -12 246 0 253
1 253 20 0 19 -8 20 -246 22 l-245 3 0 242 c0 133 -4 245 -8 247 -4 3 -13 0
-19 -6z"/>
<path d="M1260 4985 l0 -245 -247 -2 c-213 -3 -248 -5 -248 -18 0 -13 36 -15
258 -18 l257 -2 0 265 c0 170 -4 265 -10 265 -6 0 -10 -88 -10 -245z"/>
<path d="M12661 4516 c-9 -10 -12 -78 -12 -226 0 -148 3 -216 12 -226 9 -11
56 -14 255 -14 l244 0 0 240 0 240 -244 0 c-199 0 -246 -3 -255 -14z"/>
<path d="M1570 3230 l0 -1280 905 0 905 0 0 226 c0 182 -3 228 -14 240 -12 12
-110 14 -630 14 l-616 0 0 1026 c0 875 -2 1028 -14 1040 -12 11 -63 14 -275
14 l-261 0 0 -1280z"/>
<path d="M6745 4497 c-3 -7 -4 -114 -3 -237 l3 -225 383 -3 382 -2 0 -1040 0
-1040 275 0 275 0 0 1040 0 1040 381 2 380 3 0 235 0 235 -1036 3 c-833 2
-1037 0 -1040 -11z"/>
<path d="M4165 3890 c-3 -5 -31 -10 -61 -10 -30 0 -54 -4 -54 -10 0 -5 -13
-10 -30 -10 -16 0 -30 -4 -30 -10 0 -5 -11 -10 -24 -10 -14 0 -28 -4 -31 -10
-3 -5 -16 -10 -28 -11 -12 0 -44 -14 -72 -30 -27 -15 -59 -33 -70 -38 -23 -10
-175 -168 -175 -180 0 -5 -7 -14 -15 -21 -8 -7 -29 -42 -46 -79 -17 -36 -39
-83 -50 -104 -10 -22 -19 -52 -19 -68 0 -16 -4 -29 -10 -29 -5 0 -10 -13 -10
-30 0 -16 -4 -30 -10 -30 -5 0 -10 -24 -10 -54 0 -30 -4 -58 -10 -61 -6 -4
-10 -73 -10 -176 0 -106 4 -169 10 -169 6 0 10 -28 10 -64 0 -36 5 -68 10 -71
6 -3 10 -26 10 -51 0 -24 5 -44 10 -44 6 0 10 -11 10 -24 0 -14 5 -28 10 -31
6 -3 10 -15 10 -25 0 -11 9 -35 20 -55 11 -19 17 -41 14 -48 -2 -7 4 -22 16
-32 11 -10 20 -23 20 -30 0 -7 9 -20 20 -30 11 -10 20 -22 20 -26 0 -13 152
-170 175 -180 11 -6 43 -23 70 -38 28 -16 60 -30 72 -30 12 -1 25 -6 28 -11 3
-5 17 -10 31 -10 13 0 24 -4 24 -10 0 -5 18 -10 40 -10 22 0 40 -4 40 -10 0
-5 20 -10 44 -10 25 0 48 -5 51 -10 8 -13 332 -13 340 0 3 5 26 10 50 10 24 0
47 5 50 10 3 6 17 10 31 10 13 0 24 5 24 10 0 6 13 10 29 10 16 0 31 4 33 8 2
4 37 24 79 45 41 20 88 50 104 67 16 16 34 30 40 30 14 0 55 42 55 56 0 6 17
27 38 47 21 21 45 53 52 72 8 19 17 35 22 35 4 0 8 9 8 20 0 11 5 20 10 20 6
0 10 9 10 20 0 11 5 20 10 20 6 0 10 9 10 20 0 11 5 20 10 20 6 0 10 10 10 23
0 13 5 28 12 35 9 9 -48 12 -258 12 l-269 0 -14 -32 c-21 -49 -59 -86 -121
-115 -30 -15 -56 -31 -58 -35 -5 -12 -260 -10 -267 2 -3 6 -14 10 -24 10 -21
0 -78 27 -87 41 -3 6 -17 14 -30 19 -14 6 -27 18 -31 27 -3 10 -13 26 -21 35
-22 26 -62 109 -62 129 0 10 -4 20 -10 24 -5 3 -8 21 -6 41 1 19 -1 37 -6 40
-4 3 -8 18 -8 35 l0 29 646 2 646 3 0 147 c0 81 -4 153 -8 160 -4 7 -7 31 -5
54 1 23 -2 45 -8 49 -6 3 -11 21 -11 40 0 19 -4 37 -10 40 -5 3 -10 21 -10 40
0 19 -4 37 -10 40 -5 3 -10 17 -10 31 0 13 -4 24 -10 24 -5 0 -10 9 -10 20 0
11 -4 20 -10 20 -5 0 -10 9 -10 20 0 11 -4 20 -10 20 -5 0 -10 9 -10 20 0 11
-4 20 -10 20 -5 0 -10 6 -10 13 0 8 -9 22 -20 32 -11 10 -20 23 -20 29 0 14
-129 143 -161 161 -13 8 -33 18 -44 24 -12 5 -27 16 -34 25 -7 9 -20 16 -27
16 -8 0 -14 5 -14 10 0 6 -13 10 -30 10 -16 0 -30 5 -30 10 0 6 -11 10 -24 10
-14 0 -28 5 -31 10 -3 6 -17 10 -30 10 -13 0 -27 5 -30 10 -3 6 -31 10 -61 10
-30 0 -54 5 -54 10 0 6 -53 10 -139 10 -83 0 -142 -4 -146 -10z m190 -420 c3
-5 26 -10 51 -10 24 0 44 -4 44 -10 0 -5 8 -10 18 -10 10 0 24 -9 32 -20 8
-11 19 -20 24 -20 15 0 76 -62 76 -77 0 -7 5 -13 10 -13 6 0 10 -9 10 -20 0
-11 5 -20 10 -20 6 0 10 -9 10 -20 0 -11 5 -20 10 -20 6 0 10 -15 10 -34 0
-19 5 -38 10 -41 6 -3 10 -17 10 -31 l0 -24 -374 0 -375 0 1 30 c1 17 5 33 10
36 4 3 8 16 8 29 0 13 5 27 10 30 6 3 10 16 10 29 0 13 9 31 20 41 11 10 20
23 20 30 0 19 75 85 125 111 27 13 66 24 87 24 21 0 38 5 38 10 0 6 20 10 44
10 25 0 48 -4 51 -10z"/>
<path d="M6075 3890 c-3 -5 -26 -10 -51 -10 -24 0 -44 -4 -44 -10 0 -5 -15
-10 -34 -10 -19 0 -38 -4 -41 -10 -3 -5 -14 -10 -24 -10 -45 0 -157 -72 -238
-152 -46 -45 -83 -88 -83 -94 0 -6 -9 -19 -20 -29 -11 -10 -20 -28 -20 -41 0
-13 -4 -26 -10 -29 -5 -3 -10 -17 -10 -31 0 -13 -4 -24 -10 -24 -5 0 -10 -18
-10 -40 0 -22 -4 -40 -10 -40 -6 0 -10 -40 -10 -99 0 -56 4 -103 10 -106 6 -3
10 -17 10 -30 0 -13 5 -27 10 -30 6 -3 10 -17 10 -31 0 -13 5 -24 10 -24 6 0
10 -7 10 -16 0 -9 14 -29 30 -44 17 -15 30 -33 30 -40 0 -14 25 -40 39 -40 5
0 21 -11 35 -25 14 -14 31 -25 38 -25 8 0 20 -9 28 -20 8 -11 22 -20 32 -20
10 0 33 -9 53 -20 20 -11 44 -20 55 -20 10 0 22 -4 25 -10 3 -5 22 -10 41 -10
19 0 34 -4 34 -10 0 -5 14 -10 30 -10 17 0 30 -4 30 -10 0 -5 15 -10 34 -10
19 0 37 -4 40 -9 3 -4 42 -12 86 -15 44 -4 82 -12 85 -17 4 -5 19 -9 35 -9 16
0 32 -4 35 -10 3 -5 21 -10 40 -10 19 0 37 -4 40 -10 3 -5 17 -10 30 -10 13 0
27 -4 30 -10 3 -5 17 -10 31 -10 13 0 24 -4 24 -10 0 -5 7 -10 15 -10 30 0
115 -103 95 -115 -6 -3 -10 -17 -10 -31 0 -13 -4 -24 -10 -24 -5 0 -10 -7 -10
-15 0 -20 -45 -65 -65 -65 -8 0 -15 -4 -15 -10 0 -5 -11 -10 -24 -10 -14 0
-28 -4 -31 -10 -4 -6 -72 -10 -170 -10 -98 0 -166 4 -170 10 -3 6 -14 10 -24
10 -30 0 -74 27 -111 67 -44 47 -60 76 -60 106 0 13 -6 35 -12 50 l-13 27
-254 -2 -253 -3 0 -68 c0 -37 5 -73 11 -81 6 -7 8 -21 5 -30 -7 -19 50 -142
78 -167 10 -9 18 -22 18 -28 0 -14 85 -101 99 -101 4 0 15 -7 22 -16 7 -9 22
-20 34 -25 11 -5 34 -18 50 -28 17 -11 38 -20 47 -20 10 -1 33 -10 53 -21 20
-11 49 -20 65 -20 17 0 30 -4 30 -10 0 -5 18 -10 40 -10 22 0 40 -4 40 -10 0
-5 24 -10 54 -10 30 0 58 -4 61 -10 8 -13 372 -13 380 0 3 5 26 10 51 10 24 0
44 5 44 10 0 6 15 10 34 10 19 0 38 5 41 10 3 6 17 10 30 10 13 0 27 5 30 10
3 6 14 10 24 10 15 0 65 23 137 63 33 19 184 176 184 191 0 8 3 16 8 18 17 7
49 87 45 111 -3 13 0 28 6 31 6 4 11 36 11 72 0 36 4 64 10 64 6 0 10 13 10
29 0 17 -4 33 -10 36 -5 3 -10 26 -10 51 0 24 -4 52 -10 62 -5 9 -18 37 -29
62 -11 25 -29 54 -41 65 -12 11 -26 30 -31 43 -5 12 -15 22 -22 22 -7 0 -26
14 -42 30 -16 17 -54 43 -85 57 -30 15 -56 31 -58 35 -2 4 -17 8 -33 8 -16 0
-29 5 -29 10 0 6 -11 10 -24 10 -14 0 -28 5 -31 10 -3 6 -17 10 -30 10 -13 0
-27 5 -30 10 -3 6 -21 10 -40 10 -19 0 -36 4 -39 9 -3 5 -35 12 -71 16 -36 3
-67 11 -70 16 -4 5 -26 9 -50 9 -24 0 -47 5 -50 10 -3 6 -21 10 -40 10 -19 0
-37 5 -40 10 -3 6 -22 10 -41 10 -19 0 -34 5 -34 10 0 6 -8 10 -17 10 -10 0
-50 16 -90 36 -57 28 -76 43 -89 70 -13 26 -14 38 -5 47 6 6 11 25 11 42 0 42
62 95 109 95 11 0 23 5 26 10 4 6 63 10 143 10 134 0 138 -1 202 -32 61 -30
68 -37 98 -98 18 -36 32 -72 32 -81 0 -36 19 -39 260 -39 229 0 236 1 248 21
10 15 11 24 3 32 -6 6 -11 37 -11 68 0 32 -4 61 -10 64 -5 3 -10 17 -10 30 0
13 -4 27 -10 30 -5 3 -10 16 -10 29 0 13 -9 31 -20 41 -11 10 -20 23 -20 29 0
7 -9 18 -20 26 -11 8 -20 20 -20 28 0 17 -49 69 -81 87 -108 59 -209 105 -232
105 -15 0 -27 5 -27 10 0 6 -18 10 -40 10 -22 0 -40 5 -40 10 0 6 -28 10 -64
10 -36 0 -68 5 -71 10 -4 6 -72 10 -170 10 -98 0 -166 -4 -170 -10z"/>
<path d="M9990 3890 c0 -5 -15 -10 -34 -10 -19 0 -38 -4 -41 -10 -3 -5 -14
-10 -24 -10 -26 0 -74 -26 -101 -55 -13 -14 -29 -25 -35 -25 -14 0 -55 -42
-55 -56 0 -6 -11 -21 -25 -34 -14 -13 -25 -29 -25 -36 0 -6 -7 -18 -16 -25 -9
-7 -21 -25 -28 -39 -9 -21 -11 -11 -14 70 -2 52 -7 99 -12 104 -6 6 -10 25
-10 43 l0 33 -240 0 -240 0 0 -945 0 -945 260 0 260 0 0 565 c0 370 3 565 10
565 6 0 10 15 11 33 0 17 9 46 20 62 10 17 23 39 28 50 14 32 73 83 104 90 15
4 30 11 33 16 3 5 16 9 29 9 13 0 27 5 30 10 3 6 28 10 55 10 27 0 52 5 55 10
3 6 52 10 111 10 l104 0 0 260 0 260 -105 0 c-63 0 -105 -4 -105 -10z"/>
<path d="M11195 3890 c-3 -5 -31 -10 -61 -10 -30 0 -54 -4 -54 -10 0 -5 -15
-10 -34 -10 -19 0 -38 -4 -41 -10 -3 -5 -15 -10 -25 -10 -11 0 -35 -9 -55 -20
-20 -11 -44 -20 -54 -20 -10 0 -26 -9 -35 -19 -10 -11 -31 -23 -46 -26 -16 -4
-45 -24 -64 -46 -20 -21 -41 -39 -46 -39 -14 0 -100 -87 -100 -101 0 -6 -12
-20 -26 -31 -14 -12 -30 -30 -35 -42 -5 -11 -23 -43 -38 -71 -16 -27 -30 -58
-30 -67 -1 -10 -10 -33 -21 -53 -11 -20 -20 -49 -20 -65 0 -17 -4 -30 -10 -30
-5 0 -10 -15 -10 -34 0 -19 -4 -38 -10 -41 -6 -3 -10 -48 -10 -101 0 -56 -4
-94 -10 -94 -5 0 -10 -20 -10 -45 0 -25 5 -45 10 -45 6 0 10 -38 10 -94 0 -53
4 -98 10 -101 6 -3 10 -22 10 -41 0 -19 5 -34 10 -34 6 0 10 -15 10 -34 0 -19
5 -38 10 -41 6 -3 10 -14 10 -24 0 -21 61 -145 84 -170 9 -10 14 -20 11 -23
-3 -3 4 -13 15 -23 11 -10 20 -22 20 -27 0 -11 127 -138 138 -138 5 0 19 -12
33 -26 13 -14 33 -30 44 -35 11 -6 43 -23 70 -38 28 -16 60 -30 72 -30 12 -1
25 -5 28 -11 3 -5 17 -10 30 -10 13 0 27 -4 30 -10 3 -5 17 -10 31 -10 13 0
24 -4 24 -10 0 -5 24 -10 54 -10 30 0 58 -4 61 -10 4 -6 68 -10 160 -10 92 0
156 4 160 10 3 6 30 10 60 10 30 0 57 5 60 10 3 5 17 10 31 10 13 0 24 5 24
10 0 6 14 10 30 10 17 0 30 5 30 10 0 6 10 10 23 11 12 0 45 14 72 30 28 15
59 32 70 38 11 5 31 21 44 35 14 14 29 26 36 26 14 0 135 122 135 136 0 6 12
21 26 35 21 20 88 140 89 161 0 3 3 10 8 14 4 4 7 18 7 31 0 12 5 23 10 23 6
0 10 14 10 30 0 17 5 30 10 30 6 0 10 20 10 44 0 25 5 48 10 51 6 3 10 44 10
91 0 49 4 84 10 84 6 0 10 28 10 65 0 37 -4 65 -10 65 -6 0 -10 35 -10 84 0
47 -4 88 -10 91 -5 3 -10 21 -10 40 0 19 -4 37 -10 40 -5 3 -10 22 -10 41 0
19 -4 34 -9 34 -9 0 -23 33 -25 60 -2 24 -43 105 -61 120 -8 7 -15 18 -15 24
0 7 -18 30 -40 51 -22 21 -40 44 -40 50 0 13 -42 55 -55 55 -5 0 -26 16 -46
36 -40 39 -46 43 -159 100 -41 21 -76 42 -78 46 -2 4 -17 8 -33 8 -16 0 -29 5
-29 10 0 6 -15 10 -34 10 -19 0 -38 5 -41 10 -3 6 -31 10 -61 10 -30 0 -54 5
-54 10 0 6 -53 10 -139 10 -83 0 -142 -4 -146 -10z m265 -440 c0 -5 14 -10 30
-10 17 0 30 -3 30 -8 0 -4 15 -13 33 -21 37 -16 137 -109 137 -128 0 -7 5 -13
10 -13 6 0 10 -9 10 -20 0 -11 5 -20 10 -20 6 0 10 -9 10 -20 0 -11 5 -20 10
-20 6 0 10 -13 10 -30 0 -16 5 -30 10 -30 6 0 10 -24 10 -54 0 -30 5 -58 10
-61 6 -4 10 -55 10 -120 0 -65 -4 -116 -10 -120 -5 -3 -10 -31 -10 -61 0 -30
-4 -54 -10 -54 -5 0 -10 -13 -10 -30 0 -16 -4 -30 -10 -30 -5 0 -10 -9 -10
-20 0 -11 -4 -20 -10 -20 -5 0 -10 -9 -10 -20 0 -11 -4 -20 -10 -20 -5 0 -10
-6 -10 -13 0 -19 -100 -112 -137 -128 -18 -8 -33 -17 -33 -21 0 -5 -13 -8 -30
-8 -16 0 -30 -4 -30 -10 0 -6 -46 -10 -119 -10 -69 0 -122 4 -126 10 -3 6 -14
10 -24 10 -31 0 -113 47 -158 92 -37 36 -86 113 -87 140 -1 3 -4 10 -8 14 -5
4 -8 18 -8 30 0 13 -4 26 -10 29 -5 3 -10 31 -10 61 0 30 -4 54 -10 54 -6 0
-10 45 -10 114 0 66 4 117 10 121 6 3 10 28 10 55 0 27 5 52 10 55 6 3 10 21
10 39 0 18 3 36 8 40 4 4 7 11 8 14 1 27 50 104 87 140 45 45 127 92 158 92
10 0 21 5 24 10 4 6 57 10 126 10 73 0 119 -4 119 -10z"/>
<path d="M14195 3890 c-3 -5 -31 -10 -61 -10 -30 0 -54 -4 -54 -10 0 -5 -13
-10 -30 -10 -16 0 -30 -4 -30 -10 0 -5 -11 -10 -24 -10 -14 0 -28 -4 -31 -10
-3 -5 -14 -10 -24 -10 -23 0 -75 -26 -91 -45 -7 -8 -18 -15 -24 -15 -15 0
-146 -132 -146 -147 0 -6 -7 -16 -15 -23 -22 -19 -65 -111 -65 -142 0 -15 -4
-28 -10 -28 -5 0 -10 -20 -10 -44 0 -25 -4 -48 -10 -51 -5 -3 -10 -35 -10 -71
0 -36 4 -64 10 -64 6 0 10 -15 10 -34 0 -19 5 -38 10 -41 6 -3 10 -14 10 -24
0 -21 22 -71 33 -71 4 0 7 -7 7 -16 0 -21 131 -154 152 -154 9 0 18 -3 20 -7
7 -16 132 -73 159 -73 15 0 31 -4 34 -10 3 -5 17 -10 31 -10 13 0 24 -4 24
-10 0 -5 15 -10 34 -10 19 0 38 -4 41 -10 3 -5 21 -10 40 -10 19 0 36 -4 39
-9 3 -5 37 -12 76 -16 38 -4 70 -11 70 -16 0 -5 20 -9 44 -9 25 0 48 -4 51
-10 3 -5 21 -10 40 -10 19 0 37 -4 40 -10 3 -5 14 -10 24 -10 21 0 71 -22 71
-32 0 -5 9 -8 20 -8 11 0 20 -4 20 -10 0 -5 7 -10 16 -10 20 0 44 -24 44 -44
0 -9 5 -16 10 -16 6 0 10 -16 10 -35 0 -19 -4 -35 -10 -35 -5 0 -10 -7 -10
-15 0 -20 -65 -85 -85 -85 -8 0 -15 -4 -15 -10 0 -5 -9 -10 -20 -10 -11 0 -20
-4 -20 -10 0 -6 -61 -10 -164 -10 -99 0 -167 4 -171 10 -3 6 -14 10 -24 10
-24 0 -107 43 -137 71 -34 32 -54 76 -54 116 0 63 -1 64 -282 61 l-253 -3 -3
-54 c-2 -30 2 -59 7 -64 6 -6 11 -26 11 -43 0 -18 5 -36 10 -39 6 -3 10 -14
10 -24 0 -23 26 -75 45 -91 8 -7 15 -18 15 -24 0 -14 161 -176 175 -176 6 0
41 -16 79 -35 39 -19 78 -35 87 -35 10 0 21 -5 24 -10 3 -5 17 -10 31 -10 13
0 24 -4 24 -10 0 -5 15 -10 34 -10 19 0 38 -5 41 -10 3 -6 30 -10 60 -10 30 0
57 -5 60 -10 8 -13 372 -13 380 0 3 6 28 10 55 10 27 0 52 5 55 10 3 6 17 10
30 10 13 0 27 5 30 10 3 6 17 10 30 10 13 0 27 5 30 10 3 6 17 10 31 10 13 0
24 5 24 10 0 6 9 10 20 10 11 0 20 5 20 10 0 6 9 10 20 10 11 0 20 5 20 10 0
6 7 10 15 10 8 0 25 11 39 25 14 14 30 25 36 25 14 0 80 66 80 81 0 6 13 23
29 38 28 26 47 65 43 88 -2 6 2 14 8 18 5 3 10 17 10 30 0 13 5 27 10 30 6 3
10 21 10 40 0 19 5 37 10 40 6 3 10 44 10 91 0 49 -4 84 -10 84 -5 0 -10 15
-10 34 0 19 -4 38 -10 41 -5 3 -10 17 -10 30 0 13 -5 27 -10 30 -6 4 -8 10 -5
14 2 5 -4 16 -15 26 -11 10 -20 23 -20 29 0 15 -82 96 -97 96 -6 0 -16 7 -23
15 -15 18 -150 85 -173 85 -9 0 -17 5 -17 10 0 6 -11 10 -24 10 -14 0 -28 5
-31 10 -3 6 -17 10 -30 10 -13 0 -27 5 -30 10 -3 6 -21 10 -40 10 -19 0 -36 4
-39 9 -3 5 -35 12 -71 16 -36 3 -67 11 -70 16 -4 5 -21 9 -40 9 -19 0 -37 5
-40 10 -3 6 -26 10 -50 10 -24 0 -47 5 -50 10 -3 6 -22 10 -41 10 -19 0 -34 5
-34 10 0 6 -13 10 -30 10 -16 0 -30 3 -30 8 0 4 -15 13 -32 21 -18 8 -48 28
-65 44 -28 26 -33 38 -33 77 0 49 18 100 36 100 6 0 19 9 29 20 10 11 28 20
41 20 13 0 26 5 29 10 4 6 65 10 150 10 85 0 146 -4 150 -10 3 -5 15 -10 26
-10 37 0 109 -56 109 -85 0 -8 3 -15 8 -15 11 0 32 -51 32 -80 0 -48 8 -50
256 -50 197 0 233 2 244 16 15 17 18 74 5 94 -5 8 -8 31 -6 51 1 21 -3 40 -9
44 -5 3 -10 14 -10 25 0 23 -40 100 -62 121 -10 9 -18 22 -18 28 0 13 -105
121 -119 121 -5 0 -14 7 -21 15 -7 8 -21 15 -31 15 -11 0 -19 3 -19 8 0 10
-50 32 -71 32 -10 0 -21 5 -24 10 -3 6 -17 10 -30 10 -13 0 -27 5 -30 10 -3 6
-26 10 -51 10 -24 0 -44 5 -44 10 0 6 -24 10 -54 10 -30 0 -58 5 -61 10 -4 6
-72 10 -170 10 -98 0 -166 -4 -170 -10z"/>
<path d="M12650 3835 c0 -3 0 -427 0 -942 l0 -938 255 -3 255 -2 0 945 0 945
-255 0 c-140 0 -255 -2 -255 -5z"/>
<path d="M920 1260 c0 -19 7 -20 245 -20 l245 0 0 -245 c0 -157 4 -245 10
-245 6 0 10 95 10 265 l0 265 -255 0 c-248 0 -255 -1 -255 -20z"/>
<path d="M15313 1265 c-10 -10 -13 -76 -13 -253 0 -232 4 -262 32 -262 4 0 8
110 8 245 l0 245 248 2 c212 3 247 5 247 18 0 22 -503 27 -522 5z"/>
</g>
</svg>
