<?xml version="1.0" standalone="no"?>
<!DOCTYPE svg PUBLIC "-//W3C//DTD SVG 20010904//EN"
 "http://www.w3.org/TR/2001/REC-SVG-20010904/DTD/svg10.dtd">
<svg version="1.0" xmlns="http://www.w3.org/2000/svg"
 width="100%" height="100%" viewBox="0 0 1507.000000 600.000000"
 preserveAspectRatio="xMidYMid meet">
<metadata>
Created by potrace 1.16, written by Peter Selinger 2001-2019
</metadata>
<g transform="translate(0.000000,600.000000) scale(0.100000,-0.100000)"
fill="white" stroke="none">
<path d="M762 5238 c-9 -9 -12 -522 -12 -2246 0 -1922 2 -2235 14 -2248 13
-12 188 -14 1214 -14 1149 0 1200 1 1215 18 21 23 22 46 3 61 -10 8 -272 12
-957 14 l-944 2 -3 2199 c-1 1605 -5 2203 -13 2213 -16 18 -499 19 -517 1z"/>
<path d="M13791 5237 c-8 -10 -12 -608 -13 -2213 -3 -2191 -3 -2199 -23 -2200
-11 -1 -437 -2 -947 -3 l-928 -1 0 -28 c0 -16 8 -36 18 -45 17 -16 116 -17
1216 -17 1024 0 1199 2 1212 14 21 22 21 4470 0 4492 -21 20 -518 21 -535 1z"/>
<path d="M3825 5128 c-3 -7 -4 -771 -3 -1698 l3 -1685 1020 0 c979 0 1020 1
1023 18 2 10 -4 27 -14 38 -17 18 -40 19 -816 19 l-798 0 0 880 0 880 700 0
700 0 0 40 0 40 -700 0 -700 0 0 710 0 710 753 0 c415 0 756 2 759 5 3 3 3 17
0 30 l-4 25 -959 0 c-759 0 -961 -3 -964 -12z"/>
<path d="M6170 5121 c0 -11 5 -23 10 -26 6 -4 10 -12 9 -18 -3 -20 12 -67 22
-67 5 0 9 -13 9 -30 0 -16 5 -30 10 -30 6 0 10 -11 10 -24 0 -14 5 -28 10 -31
6 -3 10 -17 10 -31 0 -13 5 -24 10 -24 6 0 10 -13 10 -30 0 -16 5 -30 10 -30
6 0 10 -9 10 -20 0 -11 5 -20 10 -20 6 0 10 -11 10 -24 0 -14 5 -28 10 -31 6
-4 8 -15 5 -24 -3 -10 1 -23 9 -30 8 -6 12 -20 9 -30 -3 -10 0 -22 6 -25 6 -4
11 -18 11 -32 0 -13 5 -24 10 -24 6 0 10 -9 10 -20 0 -11 5 -20 10 -20 6 0 10
-11 10 -24 0 -14 5 -28 10 -31 6 -3 10 -17 10 -31 0 -13 5 -24 10 -24 6 0 10
-13 10 -30 0 -16 5 -30 10 -30 6 0 10 -8 10 -19 0 -10 7 -32 15 -47 8 -16 15
-39 15 -51 0 -12 5 -25 10 -28 6 -3 10 -17 10 -31 0 -13 5 -24 10 -24 6 0 10
-13 10 -30 0 -16 5 -30 10 -30 6 0 10 -9 10 -20 0 -11 9 -35 20 -55 11 -20 20
-44 20 -55 0 -10 5 -22 10 -25 6 -3 10 -17 10 -31 0 -13 5 -24 11 -24 6 0 9
-9 6 -20 -3 -11 -1 -23 4 -26 5 -3 9 -14 9 -24 0 -11 9 -35 20 -55 11 -20 20
-44 20 -55 0 -11 5 -20 10 -20 6 0 10 -13 10 -30 0 -16 5 -30 10 -30 6 0 10
-11 10 -24 0 -14 5 -28 10 -31 6 -3 10 -15 10 -25 0 -11 9 -35 20 -55 11 -19
19 -39 19 -43 -3 -15 14 -73 22 -78 5 -3 9 -16 9 -29 0 -13 5 -27 10 -30 6 -3
10 -14 10 -24 0 -21 22 -71 33 -71 4 0 7 -13 7 -30 0 -16 5 -30 10 -30 6 0 10
-11 10 -24 0 -14 5 -28 10 -31 6 -3 10 -17 10 -30 0 -13 5 -27 11 -30 6 -4 8
-13 5 -20 -5 -15 15 -65 27 -65 4 0 7 -13 7 -30 0 -16 5 -30 10 -30 6 0 10
-11 10 -24 0 -14 5 -28 10 -31 6 -3 10 -17 10 -30 0 -13 5 -27 10 -30 6 -3 10
-17 10 -31 0 -13 5 -24 10 -24 6 0 10 -9 10 -20 0 -11 5 -20 10 -20 6 0 10
-11 10 -24 0 -14 5 -28 10 -31 6 -4 8 -15 5 -25 -3 -10 -1 -21 5 -25 5 -3 10
-17 10 -30 0 -13 5 -27 10 -30 6 -3 10 -17 10 -31 0 -13 5 -24 10 -24 6 0 10
-9 10 -20 0 -11 5 -20 10 -20 6 0 10 -11 10 -24 0 -14 5 -28 10 -31 6 -3 10
-17 10 -30 0 -13 5 -27 10 -30 6 -3 10 -17 10 -31 0 -13 5 -24 10 -24 6 0 10
-11 10 -24 0 -14 5 -28 10 -31 6 -4 8 -10 5 -15 -3 -5 -1 -11 5 -15 5 -3 10
-17 10 -30 0 -13 5 -27 10 -30 6 -3 10 -17 10 -31 0 -13 5 -24 10 -24 6 0 10
-13 10 -30 0 -16 5 -30 10 -30 6 0 10 -9 10 -20 0 -11 9 -35 20 -55 11 -20 20
-44 20 -55 0 -10 5 -22 10 -25 6 -3 10 -15 10 -26 0 -11 7 -27 15 -35 13 -14
18 -13 44 8 17 13 30 31 30 41 1 9 6 17 11 17 6 0 10 9 10 20 0 11 5 20 10 20
6 0 10 9 10 20 0 11 9 35 20 55 11 19 17 35 13 35 -4 0 -2 5 5 12 7 7 12 19
12 28 0 21 23 70 33 70 4 0 7 9 7 20 0 11 5 20 10 20 6 0 10 9 10 19 0 10 14
45 30 76 17 31 30 65 30 74 0 10 3 21 8 25 4 4 8 11 8 14 6 27 18 52 25 52 5
0 9 9 9 20 0 11 9 35 20 55 11 20 20 41 20 48 0 18 24 67 33 67 4 0 7 9 7 20
0 11 5 20 10 20 6 0 10 10 10 23 0 13 5 28 12 35 7 7 9 12 5 12 -4 0 2 16 13
35 11 20 20 41 20 48 0 18 24 67 33 67 4 0 7 9 7 20 0 11 5 20 10 20 6 0 10
14 10 30 0 17 3 30 8 30 9 0 46 78 47 100 1 22 38 100 47 100 5 0 8 13 8 29 0
16 3 31 8 33 10 4 52 87 52 102 0 12 19 59 41 98 5 10 9 27 9 38 0 11 5 20 10
20 6 0 10 9 10 20 0 11 3 20 8 20 8 0 32 48 32 65 0 17 24 65 33 65 4 0 7 9 7
20 0 11 5 20 10 20 6 0 10 10 10 23 0 12 11 44 25 71 14 27 25 54 25 61 0 17
24 65 33 65 4 0 7 14 7 30 0 17 5 30 10 30 6 0 10 9 10 20 0 11 3 20 8 20 9 0
32 49 32 69 0 9 11 38 25 65 14 27 25 58 25 68 0 10 5 18 10 18 6 0 10 9 10
20 0 11 3 20 8 20 8 0 32 48 32 66 0 7 13 36 28 65 15 30 26 62 24 72 -2 9 1
17 7 17 6 0 11 9 11 20 0 11 5 20 10 20 6 0 10 9 10 20 0 11 5 20 10 20 6 0
10 9 10 19 0 20 40 104 53 109 4 2 7 17 7 33 0 16 5 29 10 29 6 0 10 15 10 33
0 19 3 36 6 40 11 10 7 218 -4 229 -6 6 -8 17 -5 25 3 7 -4 22 -16 32 -11 10
-21 25 -21 32 0 8 -10 20 -21 28 -19 11 -24 10 -42 -8 l-21 -21 22 -23 c12
-13 22 -33 22 -45 0 -11 5 -24 10 -27 6 -4 10 -57 10 -126 0 -73 -4 -119 -10
-119 -5 0 -10 -11 -10 -24 0 -14 -4 -28 -10 -31 -5 -3 -10 -14 -10 -24 0 -10
-11 -40 -25 -67 -14 -27 -25 -54 -25 -60 0 -6 -18 -46 -40 -89 -22 -43 -40
-86 -40 -96 0 -11 -4 -19 -10 -19 -5 0 -10 -9 -10 -20 0 -11 -3 -20 -7 -20
-11 0 -34 -51 -28 -60 3 -5 -9 -34 -25 -65 -17 -31 -30 -66 -30 -76 0 -10 -4
-19 -10 -19 -5 0 -10 -9 -10 -20 0 -11 -4 -20 -10 -20 -5 0 -10 -9 -10 -20 0
-11 -4 -20 -10 -20 -5 0 -10 -9 -10 -20 0 -11 -9 -35 -20 -55 -11 -19 -18 -35
-15 -35 3 0 -4 -16 -15 -35 -11 -20 -20 -44 -20 -55 0 -11 -4 -20 -10 -20 -5
0 -10 -9 -10 -20 0 -11 -4 -20 -10 -20 -5 0 -10 -9 -10 -20 0 -11 -4 -20 -10
-20 -5 0 -10 -9 -10 -19 0 -10 -13 -44 -30 -76 -16 -31 -29 -59 -28 -63 3 -15
-15 -62 -23 -62 -5 0 -9 -9 -9 -20 0 -11 -4 -20 -10 -20 -5 0 -10 -9 -10 -19
0 -10 -13 -45 -30 -76 -16 -31 -30 -66 -30 -76 0 -10 -3 -19 -8 -19 -4 0 -13
-15 -21 -32 -7 -18 -20 -46 -27 -62 -8 -16 -14 -35 -14 -42 0 -15 -42 -98 -52
-102 -5 -2 -8 -17 -8 -33 0 -16 -3 -29 -8 -29 -9 0 -46 -78 -47 -100 -1 -22
-38 -100 -47 -100 -5 0 -8 -13 -8 -30 0 -16 -4 -30 -10 -30 -5 0 -10 -9 -10
-19 0 -11 -3 -21 -7 -23 -12 -5 -53 -88 -53 -107 0 -10 -3 -21 -7 -25 -5 -4
-9 -11 -9 -14 -6 -27 -18 -52 -25 -52 -5 0 -9 -13 -9 -30 0 -16 -3 -30 -8 -30
-4 0 -15 -18 -25 -41 -19 -44 -40 -47 -45 -8 -2 13 -8 28 -13 33 -5 6 -9 20
-9 32 0 13 -5 26 -11 29 -6 4 -8 13 -5 21 3 7 1 16 -4 19 -6 4 -10 15 -10 26
0 10 -4 19 -10 19 -5 0 -10 11 -10 24 0 14 -4 28 -10 31 -5 3 -10 17 -10 30 0
13 -4 27 -10 30 -5 3 -10 17 -10 31 0 13 -4 24 -10 24 -5 0 -10 14 -10 30 0
17 -4 30 -10 30 -5 0 -10 9 -10 20 0 11 -9 35 -20 55 -11 19 -17 41 -14 49 3
8 1 17 -5 21 -6 3 -11 17 -11 31 0 13 -4 24 -10 24 -5 0 -10 11 -10 24 0 14
-4 28 -10 31 -5 3 -10 17 -10 30 0 13 -4 27 -10 30 -5 3 -10 17 -10 31 0 13
-4 24 -10 24 -5 0 -10 9 -10 20 0 11 -4 20 -10 20 -5 0 -10 11 -10 24 0 14 -4
28 -10 31 -5 3 -10 17 -10 30 0 13 -5 27 -10 30 -6 4 -8 15 -5 25 3 10 1 21
-5 25 -5 3 -10 17 -10 31 0 13 -4 24 -10 24 -5 0 -10 14 -10 30 0 17 -3 30 -7
30 -11 0 -33 50 -33 71 0 10 -4 21 -10 24 -5 3 -10 17 -10 31 0 13 -4 24 -10
24 -5 0 -10 14 -10 30 0 17 -4 30 -10 30 -5 0 -10 11 -10 24 0 14 -5 28 -11
31 -6 4 -8 13 -5 21 3 8 -3 30 -14 49 -11 20 -20 44 -20 55 0 11 -4 20 -10 20
-5 0 -10 14 -10 30 0 17 -4 30 -10 30 -5 0 -10 11 -10 24 0 14 -4 28 -10 31
-5 3 -10 17 -10 30 0 13 -4 27 -10 30 -5 3 -10 17 -10 31 0 13 -4 24 -9 24
-10 0 -25 47 -22 67 1 6 -3 14 -9 18 -5 3 -10 17 -10 30 0 13 -4 27 -10 30 -5
3 -10 17 -10 30 0 13 -4 27 -10 30 -5 3 -10 17 -10 31 0 13 -4 24 -10 24 -5 0
-10 9 -10 20 0 11 -9 35 -20 55 -11 20 -20 44 -20 55 0 10 -4 22 -10 25 -5 3
-10 17 -10 30 0 13 -4 26 -10 30 -5 3 -7 12 -4 19 3 8 1 17 -5 21 -6 3 -11 17
-11 30 0 13 -4 27 -10 30 -5 3 -10 14 -10 24 0 21 -22 71 -32 71 -5 0 -8 14
-8 30 0 17 -4 30 -10 30 -5 0 -10 11 -10 24 0 14 -4 28 -10 31 -5 3 -10 17
-10 30 0 13 -4 27 -10 30 -5 3 -10 17 -10 30 0 13 -4 26 -9 29 -5 3 -7 15 -4
26 3 11 0 20 -6 20 -6 0 -11 9 -11 20 0 11 -4 20 -9 20 -5 0 -11 12 -13 28
l-3 27 -212 3 c-206 2 -213 2 -213 -17z"/>
<path d="M9205 5128 c-3 -7 -4 -771 -3 -1698 l3 -1685 1020 0 1020 0 0 35 0
35 -813 5 -812 5 0 875 0 875 696 3 c731 2 724 2 724 45 0 35 -31 37 -733 40
l-687 2 0 705 0 705 751 3 c536 1 756 5 766 13 7 6 13 20 13 30 0 18 -28 19
-970 19 -767 0 -972 -3 -975 -12z"/>
</g>
</svg>
