<?xml version="1.0" standalone="no"?>
<!DOCTYPE svg PUBLIC "-//W3C//DTD SVG 20010904//EN"
 "http://www.w3.org/TR/2001/REC-SVG-20010904/DTD/svg10.dtd">
<svg version="1.0" xmlns="http://www.w3.org/2000/svg"
 width="100%" height="100%" viewBox="0 0 500.000000 500.000000"
 preserveAspectRatio="xMidYMid meet">
<metadata>
Created by potrace 1.16, written by Peter Selinger 2001-2019
</metadata>
<g transform="translate(0.000000,500.000000) scale(0.100000,-0.100000)"
fill="white" stroke="none">
<path d="M0 2500 l0 -2500 2500 0 2500 0 0 2500 0 2500 -2500 0 -2500 0 0
-2500z m3542 884 c5 -3 18 -24 29 -47 l21 -41 -26 -23 c-15 -13 -33 -23 -41
-23 -30 0 -339 -259 -368 -309 -23 -40 -15 -39 24 2 l31 32 -34 -49 c-18 -27
-47 -60 -65 -75 -18 -15 -40 -44 -49 -66 -9 -22 -22 -53 -29 -70 -45 -102 -58
-204 -31 -240 11 -15 22 -17 69 -12 102 10 201 79 264 182 30 50 123 216 123
220 0 7 -72 -10 -79 -19 -6 -6 -29 -10 -56 -8 -35 3 -50 10 -62 28 -17 27 -5
54 25 51 9 0 55 16 102 37 132 59 159 67 196 60 43 -8 84 -40 84 -65 0 -50
-64 -151 -151 -238 -26 -25 -63 -71 -82 -101 -59 -94 -121 -137 -267 -185 -97
-33 -213 -39 -268 -16 -75 31 -111 165 -79 298 14 60 13 62 -4 52 -12 -6 -19
-21 -19 -39 0 -17 -4 -30 -10 -30 -5 0 -10 -5 -10 -11 0 -25 -78 -205 -166
-382 -52 -104 -94 -198 -94 -210 0 -18 -2 -19 -10 -7 -9 13 -10 13 -11 0 -1
-8 -1 -19 0 -24 1 -4 -4 -15 -10 -23 -18 -21 -57 -115 -86 -206 -14 -43 -27
-76 -30 -73 -4 3 -12 1 -18 -4 -9 -8 -14 -6 -19 5 -9 24 13 154 35 204 10 24
19 51 19 61 0 10 6 23 14 29 8 7 17 24 21 39 5 23 149 472 163 510 2 6 0 12
-6 12 -20 0 -128 -72 -170 -113 -46 -45 -132 -166 -132 -187 0 -28 -42 -70
-69 -70 -18 0 -37 -10 -54 -30 -17 -19 -37 -30 -53 -30 l-26 0 38 68 c56 102
104 175 124 192 27 23 35 58 13 62 -13 3 -7 8 20 18 20 8 37 17 37 21 0 4 17
33 39 65 21 33 94 145 163 249 68 105 157 231 197 280 64 80 77 91 119 102 26
7 57 13 70 13 20 0 23 -4 21 -32 -2 -18 1 -46 6 -62 5 -20 3 -36 -8 -56 -9
-15 -14 -29 -11 -32 2 -3 -2 -11 -11 -18 -8 -7 -15 -21 -15 -32 0 -10 -6 -29
-14 -41 -12 -19 -46 -159 -46 -189 0 -23 21 2 52 62 65 125 132 216 238 321
58 58 116 110 129 114 13 4 39 18 58 31 20 13 45 24 55 24 11 0 18 5 15 13 -8
24 54 47 112 41 30 -3 58 -7 63 -10z m798 0 c0 -12 5 -14 18 -8 27 12 113 17
123 7 5 -5 11 -30 14 -55 5 -42 3 -49 -19 -63 -16 -11 -63 -20 -129 -26 -152
-13 -359 -78 -398 -126 -12 -13 -2 -14 82 -8 51 4 123 10 158 14 104 12 123 5
144 -58 12 -36 15 -57 8 -64 -6 -6 -63 -19 -127 -29 -71 -11 -145 -30 -191
-49 -85 -36 -269 -145 -322 -191 -37 -32 -80 -94 -81 -114 0 -23 67 -44 137
-44 60 0 331 49 523 94 36 9 76 16 90 16 l25 -1 -24 -19 c-13 -11 -32 -20 -42
-20 -10 0 -74 -22 -141 -49 -340 -134 -493 -145 -608 -43 -39 35 -42 41 -42
88 0 32 8 66 21 93 32 62 153 178 254 245 94 61 96 65 45 104 -24 18 -23 88 1
128 23 38 102 104 124 104 9 0 19 5 23 11 13 21 96 49 149 49 29 0 68 7 86 15
47 20 99 20 99 -1z m-1702 -214 c29 -27 28 -51 -3 -80 -14 -13 -53 -63 -87
-110 -34 -47 -66 -86 -70 -88 -4 -2 -8 -8 -8 -13 0 -5 -20 -27 -44 -50 -25
-22 -59 -63 -76 -90 -21 -31 -39 -49 -52 -49 -10 0 -17 -3 -15 -7 9 -14 -78
-118 -101 -121 -12 -2 -22 -7 -22 -12 0 -5 -3 -15 -6 -24 -4 -11 0 -16 12 -17
16 0 16 -2 -3 -11 -13 -6 -23 -19 -23 -29 0 -11 -14 -25 -31 -34 -20 -11 -29
-22 -25 -31 3 -8 -3 -23 -13 -33 -11 -11 -22 -28 -25 -39 -10 -29 -77 -72
-114 -72 -18 0 -32 -5 -32 -10 0 -6 -22 -9 -52 -8 -29 2 -63 -1 -75 -5 -18 -7
-23 -5 -23 9 0 28 67 188 172 409 55 116 106 233 113 261 21 86 80 125 133 88
30 -21 29 -68 -3 -119 -13 -22 -25 -51 -25 -65 0 -14 -9 -38 -20 -55 -11 -16
-20 -40 -20 -51 0 -12 -7 -27 -15 -34 -8 -7 -15 -20 -15 -29 0 -9 -16 -47 -35
-85 -38 -77 -38 -76 -27 -76 4 0 23 23 42 51 19 28 44 59 55 68 12 9 38 38 59
66 21 27 58 72 82 101 47 54 54 70 28 60 -9 -3 25 38 76 91 93 98 160 186 160
211 0 7 11 18 25 24 14 6 25 15 25 20 0 16 57 8 78 -12z m-691 -95 c-3 -19 -1
-37 4 -40 14 -9 11 -48 -5 -70 -8 -11 -12 -24 -9 -31 2 -6 -3 -14 -11 -17 -9
-4 -16 -17 -16 -31 0 -14 -4 -27 -9 -31 -8 -5 -22 -56 -46 -174 -7 -32 -6 -34
16 -28 21 5 20 3 -8 -21 -18 -15 -34 -36 -36 -47 -2 -11 -8 -29 -14 -40 -6
-11 -16 -38 -23 -60 -10 -32 -116 -261 -226 -489 -8 -16 -14 -35 -14 -43 0 -8
-4 -11 -10 -8 -9 5 -14 -8 -7 -19 1 -2 -5 -12 -14 -22 -8 -11 -28 -53 -44 -94
-16 -41 -32 -80 -36 -85 -5 -6 -11 -30 -15 -53 -4 -27 -14 -46 -29 -56 -22
-14 -23 -14 -29 9 -12 47 33 243 65 281 7 8 84 239 179 536 12 37 0 41 -41 14
-19 -12 -53 -35 -77 -51 -48 -32 -102 -93 -154 -175 -35 -55 -38 -61 -38 -80
0 -19 -40 -50 -65 -50 -14 0 -38 -13 -55 -30 -17 -17 -40 -30 -51 -30 -19 0
-19 1 2 43 51 103 124 216 142 221 13 3 17 10 14 20 -3 8 -2 18 4 21 5 4 7 11
3 16 -3 5 -10 7 -15 4 -5 -4 -9 -3 -9 0 0 3 14 12 32 19 17 8 41 29 52 48 97
159 316 484 387 574 67 86 92 100 178 103 33 1 34 0 28 -34z m-587 -3 c46 -21
137 -113 146 -146 3 -15 1 -32 -6 -41 -10 -12 -21 -9 -73 18 -53 28 -71 32
-137 32 -68 0 -82 -3 -126 -30 -82 -51 -224 -249 -198 -275 6 -6 39 -18 73
-26 104 -24 191 -80 191 -124 0 -28 -46 -123 -69 -145 -12 -10 -34 -21 -49
-23 -35 -4 -168 -140 -228 -232 -24 -38 -67 -88 -94 -111 -28 -23 -50 -48 -50
-55 0 -15 -75 -74 -156 -123 -63 -38 -89 -34 -80 13 9 44 30 73 241 331 195
239 275 345 275 363 0 6 -31 20 -69 32 -55 16 -77 29 -106 61 -32 36 -36 46
-32 76 20 118 197 300 392 403 63 33 86 33 155 2z"/>
<path d="M2650 2873 c-27 -40 -32 -47 -74 -125 -16 -29 -37 -66 -48 -81 -28
-39 -15 -46 37 -18 43 23 55 40 75 116 5 17 18 55 29 85 24 63 23 60 14 60 -5
0 -19 -17 -33 -37z"/>
<path d="M1687 2747 c-15 -18 -35 -48 -45 -67 -25 -48 -79 -140 -99 -169 -17
-23 -17 -24 7 -16 68 20 120 78 120 134 0 9 7 29 15 45 8 15 17 38 19 50 2 11
7 29 11 39 10 25 3 21 -28 -16z"/>
</g>
</svg>
