<?xml version="1.0" standalone="no"?>
<!DOCTYPE svg PUBLIC "-//W3C//DTD SVG 20010904//EN"
 "http://www.w3.org/TR/2001/REC-SVG-20010904/DTD/svg10.dtd">
<svg version="1.0" xmlns="http://www.w3.org/2000/svg"
 width="400.000000pt" height="400.000000pt" viewBox="0 0 400.000000 400.000000"
 preserveAspectRatio="xMidYMid meet">
<metadata>
Created by potrace 1.16, written by Peter Selinger 2001-2019
</metadata>
<g transform="translate(0.000000,400.000000) scale(0.100000,-0.100000)"
fill="white" stroke="none">
<path d="M2715 2708 c-11 -6 -23 -15 -26 -20 -5 -8 -28 -22 -106 -63 -55 -29
-194 -185 -248 -278 -73 -128 -76 -131 -69 -77 4 25 13 63 21 85 7 22 16 47
18 55 2 8 11 30 20 47 9 18 16 43 15 55 0 13 0 38 0 57 l0 33 -44 -4 c-62 -7
-85 -25 -160 -125 -74 -100 -248 -362 -273 -410 -9 -18 -29 -37 -45 -44 -17
-7 -25 -15 -18 -19 14 -9 4 -34 -29 -69 -14 -15 -45 -65 -69 -110 -39 -73 -41
-81 -23 -81 10 0 32 11 48 23 15 13 40 27 54 30 14 4 31 19 39 34 7 16 20 43
29 62 20 43 124 148 175 179 21 12 40 21 42 19 4 -3 -129 -418 -144 -452 -41
-89 -68 -199 -55 -230 10 -27 37 -13 47 25 15 50 70 185 82 200 7 8 22 38 33
67 11 28 47 105 79 170 33 65 71 150 86 188 15 39 31 78 36 87 6 10 10 24 10
32 0 7 6 19 14 25 12 10 13 6 5 -26 -15 -68 -11 -151 12 -194 37 -73 121 -88
252 -45 115 38 172 70 204 117 38 57 117 139 108 114 -24 -72 -4 -119 67 -157
36 -19 57 -23 128 -22 72 1 103 7 200 41 225 79 274 99 278 112 3 10 -2 12
-19 9 -244 -54 -436 -88 -489 -88 -110 0 -126 31 -52 104 44 45 192 135 277
170 53 21 89 30 223 52 37 6 40 22 17 78 -15 36 -16 36 -73 35 -31 0 -97 -4
-147 -8 -49 -5 -92 -7 -94 -5 -2 2 25 17 60 33 79 37 208 71 268 71 25 0 63 5
84 11 35 9 37 12 37 49 0 21 -6 45 -13 52 -14 14 -76 16 -96 3 -6 -3 -11 -1
-11 4 0 16 -62 13 -103 -4 -20 -8 -48 -12 -64 -9 -40 8 -148 -44 -194 -93 -58
-61 -67 -117 -25 -152 9 -7 16 -17 16 -22 0 -5 -33 -30 -72 -57 -40 -27 -88
-65 -106 -83 l-33 -34 20 45 c27 58 26 74 -3 93 -48 32 -69 30 -171 -13 -53
-23 -104 -43 -113 -44 -9 -2 -20 -10 -26 -19 -25 -39 63 -68 116 -38 52 30 45
8 -46 -147 -42 -71 -58 -88 -110 -119 -48 -30 -71 -37 -111 -38 l-50 0 -6 43
c-4 32 1 63 23 125 15 45 28 83 28 84 0 1 27 32 60 70 61 70 81 105 34 62 -26
-23 -26 -23 -15 -2 6 13 62 63 124 113 62 50 123 100 135 110 13 11 29 20 36
20 7 0 21 9 31 20 17 19 17 23 3 54 -13 26 -24 34 -55 39 -52 9 -65 8 -88 -5z
m-574 -416 c-5 -16 -13 -37 -19 -48 -6 -10 -15 -37 -21 -59 -7 -27 -20 -46
-40 -58 -43 -25 -55 -21 -32 12 12 16 21 32 21 35 0 15 86 146 96 146 1 0 -1
-13 -5 -28z"/>
<path d="M2043 2544 c-3 -8 -11 -14 -17 -14 -7 0 -21 -19 -33 -42 -12 -24 -61
-86 -109 -137 -49 -52 -81 -92 -71 -88 14 5 13 0 -8 -26 -14 -17 -38 -48 -53
-67 -14 -19 -47 -57 -72 -85 -25 -27 -53 -61 -63 -75 -9 -14 -4 2 13 34 16 32
30 65 30 73 0 13 3 21 33 81 9 19 17 41 17 50 0 9 9 32 20 50 38 62 21 122
-35 122 -21 0 -64 -50 -65 -75 0 -11 -37 -96 -81 -190 -97 -204 -149 -327
-149 -354 0 -14 6 -19 20 -18 11 1 20 5 20 10 0 4 16 5 35 1 22 -4 41 -2 50 6
8 7 21 10 29 7 22 -9 78 39 100 85 12 24 38 60 59 80 40 40 46 51 23 42 -11
-4 -13 0 -9 14 3 11 15 23 26 26 12 3 33 21 46 41 13 19 28 35 33 35 5 0 6 5
3 10 -3 6 0 10 8 10 7 0 28 22 46 49 17 28 44 60 59 73 36 31 182 226 182 242
0 32 -76 58 -87 30z"/>
<path d="M1487 2488 c-51 -14 -124 -105 -295 -370 -90 -140 -136 -201 -157
-211 -20 -10 -24 -16 -13 -16 22 -1 13 -27 -21 -62 -27 -27 -111 -171 -111
-189 0 -18 33 -11 57 12 13 12 38 27 56 33 23 7 35 19 43 43 25 78 111 174
207 231 l38 23 -5 -23 c-3 -13 -32 -106 -65 -207 -34 -101 -61 -189 -61 -196
0 -6 -5 -17 -12 -24 -16 -16 -37 -77 -48 -140 -5 -30 -12 -61 -14 -70 -3 -10
-2 -23 3 -30 15 -24 40 0 55 52 14 46 60 154 85 196 51 88 231 496 231 525 0
5 14 23 32 38 28 24 29 27 11 22 -13 -4 -23 -3 -23 2 2 33 49 192 60 203 29
27 34 145 8 161 -15 10 -11 10 -61 -3z m-127 -305 c-44 -139 -49 -149 -76
-165 -52 -32 -54 -19 -9 52 25 39 45 74 45 79 0 9 39 61 45 61 2 0 0 -12 -5
-27z"/>
<path d="M938 2446 c-167 -100 -288 -235 -288 -320 0 -40 48 -84 113 -104 l58
-18 -37 -55 c-21 -30 -69 -93 -108 -140 -39 -47 -107 -130 -151 -183 -44 -54
-90 -114 -102 -134 -29 -47 -30 -82 -4 -82 27 0 171 98 181 124 4 11 22 31 38
43 17 13 48 49 69 80 53 81 152 181 185 188 29 7 82 61 73 75 -3 5 -1 11 5 15
16 10 12 72 -6 90 -25 24 -88 54 -132 61 -67 11 -70 17 -42 70 34 63 122 158
166 179 47 22 126 16 184 -14 80 -41 95 -2 28 74 -44 50 -105 84 -149 85 -14
0 -50 -15 -81 -34z"/>
</g>
</svg>
