<?xml version="1.0" standalone="no"?>
<!DOCTYPE svg PUBLIC "-//W3C//DTD SVG 20010904//EN"
 "http://www.w3.org/TR/2001/REC-SVG-20010904/DTD/svg10.dtd">
<svg version="1.0" xmlns="http://www.w3.org/2000/svg"
 width="100%" height="100%" viewBox="0 0 1197.000000 600.000000"
 preserveAspectRatio="xMidYMid meet">
<metadata>
Created by potrace 1.16, written by Peter Selinger 2001-2019
</metadata>
<g transform="translate(0.000000,600.000000) scale(0.100000,-0.100000)"
fill="white" stroke="none">
<path d="M8479 5427 c-24 -13 -57 -27 -72 -31 -38 -9 -77 -55 -71 -82 5 -18 0
-23 -33 -28 -56 -11 -132 -49 -183 -93 -25 -22 -64 -45 -87 -53 -24 -7 -43
-16 -43 -20 0 -3 -16 -12 -35 -19 -19 -7 -35 -17 -35 -22 0 -5 -7 -9 -16 -9
-17 0 -514 -497 -514 -514 0 -5 -7 -16 -15 -25 -30 -32 -65 -79 -65 -88 0 -4
-9 -14 -20 -21 -11 -7 -20 -17 -20 -23 0 -6 -13 -28 -29 -48 -26 -33 -39 -56
-73 -121 -7 -14 -18 -29 -25 -33 -7 -4 -13 -13 -13 -18 0 -6 -11 -25 -25 -43
-14 -18 -25 -38 -25 -44 0 -6 -4 -12 -9 -14 -13 -4 -128 -230 -136 -267 -4
-17 -13 -31 -21 -31 -8 0 -14 -5 -14 -10 0 -6 -7 -6 -19 1 -17 12 -18 30 -4
69 4 8 5 21 4 28 -1 8 2 19 7 25 5 7 13 39 17 71 4 33 11 66 15 75 5 9 14 50
20 90 6 41 15 80 19 85 5 6 12 26 16 43 3 18 11 35 16 39 17 10 38 72 32 94
-7 28 33 110 54 110 15 0 42 27 43 43 0 4 -9 7 -20 7 -29 0 -25 9 20 55 39 40
41 44 43 114 1 42 -2 75 -9 79 -6 4 -13 15 -17 25 -3 9 -14 17 -22 17 -14 0
-14 3 2 28 42 62 47 78 29 103 -9 13 -16 31 -16 41 0 10 -7 18 -15 18 -8 0
-15 5 -15 10 0 17 -89 11 -118 -7 -15 -10 -30 -22 -34 -28 -5 -6 -11 -6 -20 3
-17 17 -55 15 -61 -2 -3 -8 -23 -18 -44 -21 -57 -10 -103 -34 -103 -53 0 -10
-18 -36 -40 -57 -22 -21 -40 -43 -40 -47 0 -5 -18 -25 -40 -45 -22 -21 -40
-41 -40 -45 0 -8 -86 -116 -125 -159 -8 -9 -15 -19 -15 -23 0 -5 -17 -29 -38
-55 -21 -25 -42 -54 -45 -63 -4 -10 -11 -18 -17 -18 -5 0 -10 -5 -10 -11 0 -7
-16 -31 -35 -55 -19 -23 -35 -46 -35 -50 0 -4 -11 -22 -25 -40 -14 -18 -25
-37 -25 -43 0 -6 -4 -11 -10 -11 -5 0 -17 -15 -25 -32 -29 -61 -46 -88 -56
-88 -5 0 -9 -5 -9 -12 0 -6 -10 -25 -23 -42 -13 -17 -26 -39 -30 -48 -3 -10
-11 -18 -17 -18 -5 0 -10 -5 -10 -11 0 -6 -10 -25 -23 -42 -12 -18 -27 -39
-32 -49 -25 -41 -73 -113 -102 -153 -18 -24 -33 -48 -33 -54 0 -5 -6 -14 -12
-18 -7 -4 -19 -19 -26 -32 -8 -13 -23 -40 -34 -60 -11 -20 -26 -43 -34 -52 -8
-8 -14 -21 -14 -27 0 -7 -5 -12 -12 -12 -6 0 -9 -3 -5 -6 3 -3 -8 -24 -24 -47
-16 -22 -29 -44 -29 -49 0 -6 -25 -38 -55 -71 -30 -34 -55 -71 -55 -83 0 -11
-9 -29 -20 -39 -11 -10 -20 -26 -20 -35 0 -18 -30 -50 -47 -50 -5 0 -48 -19
-94 -42 l-84 -43 58 -3 c62 -3 72 -16 37 -47 -12 -11 -20 -31 -20 -50 0 -18
-8 -43 -19 -56 -16 -20 -21 -21 -35 -10 -13 11 -18 10 -32 -3 -9 -10 -14 -20
-10 -23 3 -4 -3 -16 -14 -28 -19 -20 -90 -132 -90 -142 0 -2 -5 -9 -10 -16
-21 -25 -57 -83 -79 -129 -12 -27 -26 -48 -30 -48 -4 0 -13 -17 -20 -37 -8
-21 -17 -40 -20 -43 -19 -16 -121 -220 -121 -243 0 -18 5 -19 48 -14 51 6 132
41 132 57 0 16 81 100 96 100 8 0 14 5 14 10 0 13 73 13 86 0 7 -7 16 -4 29
10 10 11 26 20 35 20 21 0 50 31 50 53 0 9 5 17 10 17 6 0 10 6 10 13 0 8 9
22 21 33 15 13 19 27 16 48 -3 21 6 45 35 90 21 34 43 72 50 86 7 14 27 44 45
67 18 23 33 45 33 50 0 4 9 14 20 21 11 7 20 17 20 24 0 6 32 46 70 89 38 42
70 80 70 84 0 9 57 65 66 65 4 0 31 21 61 46 30 26 78 58 106 72 63 30 129 72
140 89 4 7 12 13 18 13 5 0 23 10 39 21 38 28 65 19 55 -18 -4 -16 -10 -30
-14 -33 -5 -3 -10 -25 -13 -50 -3 -25 -12 -61 -21 -80 -9 -19 -21 -54 -27 -77
-6 -23 -15 -45 -19 -48 -5 -3 -12 -23 -16 -45 -4 -22 -10 -40 -15 -40 -4 0
-13 -27 -20 -60 -7 -33 -16 -60 -20 -60 -4 0 -10 -21 -14 -47 -3 -27 -13 -61
-21 -77 -8 -16 -18 -46 -21 -68 -4 -21 -10 -41 -15 -44 -4 -2 -6 -11 -3 -18 3
-8 1 -17 -5 -20 -5 -4 -13 -27 -17 -51 -3 -25 -10 -45 -14 -45 -4 0 -13 -26
-20 -58 -7 -31 -16 -61 -20 -67 -4 -5 -13 -30 -19 -55 -12 -44 -15 -54 -41
-115 -8 -16 -13 -35 -11 -42 1 -6 -3 -14 -9 -18 -5 -3 -10 -14 -10 -23 0 -9
-7 -30 -15 -46 -8 -15 -15 -41 -15 -57 0 -15 -4 -31 -10 -34 -5 -3 -10 -16
-10 -27 0 -31 -33 -97 -48 -98 -13 0 -34 -42 -36 -70 -1 -8 -5 -20 -9 -27 -4
-7 -2 -21 4 -32 11 -16 8 -24 -19 -55 -18 -20 -32 -41 -32 -47 0 -6 -9 -30
-20 -54 -11 -25 -23 -72 -27 -105 -3 -33 -9 -60 -13 -60 -4 0 -10 -41 -14 -92
-4 -50 -10 -96 -14 -102 -3 -6 -6 -21 -7 -33 0 -12 -3 -25 -7 -29 -13 -12 -9
-51 6 -63 8 -7 18 -25 21 -41 9 -39 33 -59 41 -34 3 11 11 30 17 43 l12 24 9
-26 c11 -30 26 -36 26 -11 0 9 9 27 20 41 11 15 22 49 26 84 4 33 10 62 15 64
4 3 11 30 15 61 4 38 12 59 25 67 11 7 19 23 19 40 0 15 9 45 19 65 28 52 76
161 91 202 7 19 19 49 26 67 8 17 14 36 14 42 0 6 19 32 41 56 39 42 41 47 26
63 -14 15 -14 19 -1 37 14 19 15 19 12 -4 -2 -13 3 -26 9 -28 17 -6 33 39 33
93 0 36 6 50 30 74 17 16 30 37 30 47 0 10 76 171 170 358 93 187 172 352 175
367 4 16 10 28 14 28 4 0 14 18 21 40 7 22 16 40 20 40 4 0 13 18 20 40 7 22
17 40 22 40 4 0 8 8 8 17 0 10 11 40 24 68 50 104 66 142 66 158 0 9 4 17 9
17 5 0 15 25 22 55 7 30 16 55 21 55 4 0 8 6 8 14 0 8 5 27 12 43 6 15 10 36
9 46 -1 9 2 17 7 17 6 0 13 18 17 39 7 42 18 57 49 62 24 5 34 29 12 29 -12 0
-16 11 -16 45 0 25 5 45 10 45 6 0 10 7 10 15 0 9 8 19 18 22 9 4 22 12 27 18
6 7 17 15 26 18 13 4 16 1 11 -16 -2 -12 -9 -28 -15 -34 -5 -7 -7 -19 -4 -28
4 -8 2 -17 -3 -20 -5 -3 -12 -31 -16 -63 -4 -31 -11 -60 -17 -64 -15 -9 -15
-367 0 -399 6 -13 17 -46 23 -74 6 -27 15 -52 18 -55 4 -3 18 -27 32 -55 27
-55 97 -135 117 -135 7 0 13 -4 13 -8 0 -5 19 -15 43 -22 23 -8 47 -17 52 -21
31 -23 150 -31 307 -20 89 6 164 15 167 20 3 4 30 14 60 21 30 7 66 19 80 26
14 8 32 14 39 14 7 0 23 6 35 14 12 8 46 17 74 21 29 4 55 10 58 15 2 4 26 13
52 20 27 8 50 16 53 19 3 4 16 12 30 19 14 7 39 21 55 32 17 11 62 36 100 55
42 21 85 52 107 77 111 127 158 184 158 195 0 7 6 16 13 20 13 9 30 34 49 73
7 14 23 39 35 56 13 17 23 34 23 37 0 10 46 57 56 57 13 0 94 83 94 96 0 7 9
15 20 19 20 6 80 72 80 88 0 5 20 32 45 59 25 28 45 54 45 60 0 10 2 13 65 86
25 29 45 59 45 67 0 8 4 15 9 15 4 0 14 20 21 45 7 25 16 48 21 50 4 3 10 23
14 45 4 22 11 42 16 46 5 3 9 25 9 48 0 39 -5 48 -54 95 -30 28 -61 51 -70 51
-8 0 -16 5 -18 10 -2 6 -27 14 -56 19 -29 4 -58 13 -65 20 -14 14 -60 14 -73
1 -6 -6 -39 -15 -74 -21 -35 -5 -76 -19 -91 -29 -15 -11 -32 -20 -37 -20 -5 0
-12 -6 -15 -14 -3 -7 -22 -16 -41 -20 -20 -4 -36 -11 -36 -16 0 -6 -7 -10 -17
-10 -9 0 -39 -11 -67 -24 -104 -50 -143 -66 -159 -66 -9 0 -17 -4 -17 -9 0 -5
-20 -14 -44 -20 -25 -6 -48 -15 -51 -21 -3 -5 -31 -10 -60 -10 -44 0 -56 -4
-65 -20 -6 -11 -18 -20 -26 -20 -13 0 -14 -8 -9 -42 4 -23 11 -49 16 -58 4 -8
10 -23 13 -32 3 -10 20 -19 43 -23 21 -3 46 -10 55 -16 10 -5 41 -9 69 -9 29
0 69 -5 91 -12 38 -11 40 -11 65 20 13 18 33 32 43 32 10 0 20 4 22 9 2 4 34
11 71 13 66 6 67 5 61 -16 -4 -11 -9 -23 -13 -26 -12 -10 -61 -86 -61 -95 0
-15 -104 -219 -120 -235 -3 -3 -12 -18 -20 -35 -8 -16 -19 -33 -23 -36 -9 -6
-26 -35 -49 -79 -7 -14 -18 -29 -25 -33 -7 -4 -13 -13 -13 -18 0 -6 -11 -25
-25 -43 -14 -18 -25 -38 -25 -44 0 -7 -4 -12 -8 -12 -4 0 -14 -17 -21 -37 -8
-20 -17 -41 -22 -47 -5 -6 -20 -26 -35 -43 -14 -18 -32 -33 -40 -33 -8 0 -14
-4 -14 -10 0 -5 -15 -16 -32 -25 -40 -18 -71 -37 -79 -48 -7 -10 -41 -30 -86
-52 -18 -8 -33 -19 -33 -23 0 -4 -17 -14 -37 -21 -21 -7 -51 -18 -68 -26 -102
-45 -126 -49 -245 -46 -106 2 -140 16 -140 56 0 13 -4 27 -10 30 -12 8 -14
255 -1 255 4 0 11 22 14 50 3 27 13 60 22 74 9 13 19 51 22 83 3 32 13 69 22
83 9 14 22 34 29 45 17 29 31 64 28 76 0 3 4 12 11 20 6 8 14 31 18 52 4 20
11 37 15 37 4 0 13 19 18 43 6 24 21 52 32 62 11 10 20 24 20 30 0 7 7 16 16
19 9 4 13 2 8 -5 -4 -7 1 -10 12 -7 10 2 24 13 30 26 6 12 39 51 73 86 34 36
68 80 76 98 8 18 42 62 74 98 38 41 57 68 51 74 -6 6 -20 0 -38 -17 -15 -15
-33 -27 -39 -27 -5 0 -14 -9 -19 -19 -15 -31 -85 -103 -92 -96 -4 4 -1 10 6
12 6 3 12 9 12 15 0 5 9 21 20 35 11 14 22 40 26 59 3 19 12 34 18 34 12 0 96
81 96 92 0 11 44 52 70 66 54 28 70 40 121 90 66 63 184 162 194 162 4 0 31
20 59 45 29 25 56 45 60 45 4 0 20 14 36 30 16 17 32 30 35 30 4 0 28 18 54
40 26 22 51 40 55 40 4 0 34 27 67 60 50 50 64 59 84 54 33 -8 113 34 165 86
42 42 45 50 31 78 -6 9 -25 51 -45 92 -48 104 -69 122 -147 125 -46 2 -66 7
-75 20 -10 13 -21 16 -52 10 -25 -4 -42 -2 -47 4 -11 18 -59 12 -106 -12z
m-1984 -1349 c-4 -13 -13 -33 -21 -45 -8 -12 -14 -39 -14 -60 0 -34 -40 -129
-60 -143 -11 -8 -30 -96 -30 -143 0 -30 -5 -47 -14 -50 -8 -3 -18 -23 -21 -44
-15 -92 -50 -128 -191 -198 -108 -54 -152 -69 -126 -43 7 7 12 19 12 28 1 8
14 31 30 50 17 19 30 40 30 47 0 7 5 13 10 13 6 0 10 5 10 11 0 6 11 25 25 43
14 18 25 39 25 46 0 7 12 29 28 49 35 46 52 79 52 100 0 9 16 32 35 51 19 19
35 40 35 48 0 31 52 122 96 168 25 27 50 59 55 72 4 12 16 22 24 22 12 0 15
-6 10 -22z m1195 -85 c-1 -12 -59 -67 -65 -61 -7 7 43 68 56 68 5 0 9 -3 9 -7z"/>
<path d="M10800 5433 c-19 -2 -39 -9 -44 -14 -6 -5 -18 -9 -27 -9 -10 0 -24
-8 -31 -18 -22 -31 -153 -48 -238 -32 -78 15 -128 6 -206 -35 -26 -14 -52 -25
-59 -25 -7 0 -25 -10 -40 -22 -38 -30 -95 -58 -118 -58 -28 0 -56 -17 -124
-76 -33 -30 -64 -54 -67 -54 -3 0 -32 -26 -63 -57 -61 -62 -113 -130 -113
-150 0 -7 -4 -13 -10 -13 -5 0 -12 -16 -16 -35 -3 -19 -10 -37 -14 -40 -4 -2
-6 -16 -5 -30 2 -14 -1 -27 -6 -31 -12 -7 -12 -51 1 -59 5 -3 7 -12 3 -20 -3
-8 -1 -15 5 -15 5 0 13 -11 16 -25 6 -24 50 -75 65 -75 12 0 51 -45 51 -58 0
-7 5 -12 10 -12 6 0 10 -6 10 -14 0 -16 -98 -106 -116 -106 -6 0 -32 -16 -57
-35 -25 -19 -49 -35 -52 -35 -4 0 -21 -11 -39 -25 -18 -14 -38 -25 -43 -25 -6
0 -13 -7 -17 -15 -3 -8 -11 -15 -17 -15 -6 0 -33 -18 -59 -40 -26 -22 -51 -40
-54 -40 -4 0 -20 -13 -36 -30 -16 -16 -33 -30 -37 -30 -5 0 -65 -57 -134 -127
-121 -124 -239 -267 -239 -291 0 -7 -4 -12 -9 -12 -5 0 -12 -14 -16 -30 -4
-17 -11 -30 -15 -30 -5 0 -15 -27 -22 -60 -6 -33 -16 -60 -20 -60 -4 0 -8 -34
-8 -75 0 -41 4 -75 9 -75 5 0 12 -19 16 -42 6 -35 20 -55 86 -120 72 -71 106
-95 179 -128 14 -7 38 -18 54 -26 16 -8 61 -19 100 -25 39 -6 79 -15 88 -20
24 -12 225 -11 233 1 3 6 25 10 47 10 57 0 222 21 228 30 3 3 38 12 78 19 41
7 86 19 100 27 15 8 38 14 52 14 14 0 37 6 52 14 15 8 42 17 60 21 18 4 42 13
53 21 11 7 37 16 58 19 20 4 37 11 37 15 0 5 15 11 33 15 17 4 41 12 52 19 11
7 39 18 63 26 23 7 42 17 42 22 0 4 7 8 16 8 8 0 35 9 60 20 24 11 58 23 74
27 17 3 30 9 30 13 0 4 13 10 30 13 16 4 49 15 73 26 23 11 56 22 72 26 17 4
39 10 50 15 11 5 41 11 68 15 26 3 47 10 47 16 0 5 5 9 11 9 11 0 91 67 97 81
9 21 -173 11 -203 -11 -5 -4 -44 -13 -85 -20 -41 -6 -82 -15 -90 -20 -9 -4
-49 -13 -90 -20 -41 -7 -79 -16 -85 -20 -5 -4 -37 -11 -70 -15 -33 -4 -64 -10
-70 -15 -5 -4 -55 -13 -110 -20 -55 -7 -104 -17 -110 -21 -5 -4 -54 -13 -107
-20 -54 -7 -98 -15 -98 -19 0 -3 -41 -12 -90 -19 -50 -8 -93 -17 -95 -22 -3
-4 -31 -11 -63 -15 -31 -3 -63 -12 -71 -18 -10 -7 -93 -11 -260 -11 -267 0
-279 2 -358 62 -53 39 -42 90 40 197 20 27 37 54 37 60 0 16 70 82 95 90 11 3
42 28 69 56 27 28 59 53 72 56 13 4 24 9 24 13 0 4 15 15 33 24 17 10 50 28
72 42 22 13 48 27 58 31 9 3 17 10 17 15 0 5 15 16 33 24 17 8 50 26 72 40 22
13 51 30 65 37 14 7 27 16 30 20 11 14 264 138 282 138 10 0 18 4 18 9 0 5 12
12 28 15 26 6 45 14 122 49 19 9 58 21 85 27 28 6 57 15 66 20 9 5 63 14 120
20 57 7 113 16 124 20 11 5 54 12 95 16 41 3 80 10 85 14 6 4 43 12 84 18 41
6 77 15 80 20 3 4 14 12 24 15 16 6 18 14 12 50 -4 23 -11 47 -15 52 -5 6 -11
27 -15 48 -4 20 -11 37 -17 37 -5 0 -8 6 -6 13 1 6 -12 42 -30 79 l-33 66 -77
8 c-81 7 -353 -11 -387 -26 -11 -5 -121 -13 -244 -18 -134 -6 -228 -15 -234
-21 -13 -13 -67 -15 -67 -3 0 22 111 102 142 102 7 0 32 15 56 34 23 19 59 37
80 41 20 4 42 10 47 15 6 4 34 13 63 20 28 6 54 16 57 20 3 5 24 11 48 15 23
4 47 10 52 14 15 11 89 31 114 31 11 0 21 4 21 9 0 4 35 14 78 21 42 6 82 16
87 20 21 16 261 33 388 26 73 -3 127 -2 127 3 0 5 -12 12 -26 15 -25 7 -26 8
-8 21 25 19 34 19 34 -1 0 -13 7 -15 36 -9 20 3 48 14 63 24 14 9 35 22 46 27
16 9 19 19 16 57 -1 29 2 47 8 47 6 0 11 9 11 20 0 11 -7 20 -15 20 -16 0 -21
25 -7 34 10 6 9 36 0 51 -3 6 -9 31 -13 57 -9 57 -25 74 -53 57 -16 -10 -23
-10 -36 0 -11 9 -20 10 -28 4 -23 -18 -99 -23 -105 -7 -3 8 -12 14 -21 14 -15
0 -103 -41 -134 -62 -14 -10 -20 -10 -29 -1 -10 10 -9 17 5 32 12 14 14 21 6
26 -15 9 -162 15 -210 8z"/>
<path d="M6257 4888 c-2 -8 -21 -12 -51 -11 -44 1 -47 0 -61 -33 -11 -27 -22
-36 -58 -46 -34 -9 -48 -19 -59 -42 -104 -211 -107 -216 -119 -216 -5 0 -9 -6
-9 -13 0 -7 -27 -42 -60 -79 -33 -36 -60 -69 -60 -73 0 -3 -31 -37 -70 -76
-38 -38 -70 -73 -70 -77 0 -9 -240 -247 -255 -253 -16 -6 -55 -67 -55 -86 0
-13 8 -9 35 17 33 32 36 33 52 17 16 -16 15 -19 -12 -48 -17 -17 -40 -35 -52
-40 -13 -5 -23 -17 -23 -27 0 -10 -9 -27 -20 -37 -11 -10 -20 -22 -20 -28 0
-5 -25 -33 -55 -62 -30 -29 -55 -57 -55 -63 0 -5 -9 -17 -20 -27 -11 -10 -22
-27 -26 -38 -4 -11 -10 -25 -15 -31 -37 -48 -175 -198 -253 -275 -83 -82 -96
-99 -96 -128 0 -18 -5 -33 -11 -33 -13 0 -59 -46 -59 -59 0 -11 -59 -65 -65
-60 -7 7 26 69 63 120 18 24 32 54 32 69 0 14 9 43 21 64 11 21 18 40 16 43
-3 2 10 19 29 36 30 28 35 40 41 96 6 61 43 141 65 141 12 0 10 44 -4 58 -9 9
-9 12 0 12 6 0 14 16 18 35 3 19 10 35 15 35 5 0 9 6 9 13 0 7 14 26 30 42 17
16 30 37 30 47 0 10 5 18 10 18 6 0 10 11 10 24 0 14 -4 28 -10 31 -12 7 -14
55 -2 55 4 0 14 17 21 38 8 20 17 39 20 42 14 11 61 87 61 98 0 7 4 12 9 12
22 0 40 179 25 238 -4 12 -13 22 -20 22 -8 0 -17 7 -20 15 -4 8 -11 15 -17 15
-5 0 -26 12 -45 27 -28 21 -38 24 -51 15 -30 -22 -44 -25 -63 -13 -22 14 -43
2 -53 -30 -8 -24 -48 -69 -62 -69 -13 0 -53 -44 -53 -58 0 -7 -5 -12 -11 -12
-6 0 -9 -7 -6 -15 4 -8 2 -17 -3 -20 -4 -3 -11 -39 -15 -80 -4 -41 -11 -75
-15 -75 -4 0 -12 -25 -19 -55 -7 -30 -15 -55 -19 -55 -4 0 -12 -10 -18 -23
-101 -196 -142 -279 -153 -315 -8 -23 -17 -42 -21 -42 -4 0 -11 -16 -14 -35
-4 -19 -10 -35 -15 -35 -4 0 -14 -18 -21 -40 -7 -22 -16 -40 -20 -40 -4 0 -13
-18 -20 -40 -7 -22 -17 -40 -22 -40 -4 0 -8 -6 -8 -12 0 -7 -12 -38 -26 -68
-81 -169 -94 -197 -100 -222 -3 -16 -9 -28 -13 -28 -6 0 -31 -52 -36 -75 -4
-23 -30 -75 -36 -75 -4 0 -11 -14 -14 -32 -4 -17 -18 -51 -31 -76 -13 -25 -24
-53 -24 -63 0 -11 -4 -19 -9 -19 -5 0 -13 -15 -16 -32 -7 -33 -14 -50 -53
-124 -12 -23 -24 -61 -28 -83 -4 -23 -11 -44 -15 -47 -12 -7 -11 -94 1 -94 6
0 10 -6 10 -14 0 -15 35 -11 58 7 9 7 16 7 20 1 4 -6 15 -14 26 -17 15 -6 17
-4 12 18 -6 23 -4 25 28 25 21 0 38 6 44 15 7 14 11 13 27 -5 12 -13 31 -20
57 -20 27 0 38 -4 38 -15 0 -8 9 -15 20 -15 11 0 20 5 20 10 0 6 7 10 16 10 9
0 18 9 21 20 3 11 15 22 27 25 51 10 102 11 118 1 18 -11 48 7 48 29 0 7 11
13 25 13 15 0 34 11 50 31 15 17 33 31 41 31 17 0 105 85 97 94 -3 3 2 14 11
25 16 18 16 20 1 28 -15 9 -14 11 7 25 13 8 31 17 40 21 9 3 20 22 24 41 3 20
12 36 18 36 8 0 11 12 8 33 -3 28 2 38 28 60 17 15 37 27 44 27 6 0 29 18 50
39 32 33 38 45 33 69 -5 27 -3 30 54 55 56 25 73 47 48 63 -6 3 -16 1 -22 -5
-6 -6 -24 -11 -40 -11 -22 0 -28 4 -25 18 2 9 13 18 26 20 22 3 30 26 12 37
-5 3 -10 14 -10 24 0 15 10 19 49 23 43 4 55 11 105 61 31 31 56 60 56 63 0 4
11 22 25 40 14 18 25 37 25 43 0 5 6 14 13 18 6 4 17 17 23 28 6 11 27 28 47
38 41 20 48 37 17 37 -11 0 -20 5 -20 10 0 6 17 10 38 10 39 0 62 16 75 53 4
9 11 17 17 17 5 0 10 5 10 11 0 6 11 25 25 43 14 18 25 36 25 40 0 10 64 95
100 133 16 17 30 35 30 40 0 5 31 39 68 76 60 60 72 67 95 62 26 -7 27 -6 27
34 0 37 2 41 25 41 18 0 25 5 25 19 0 10 9 30 20 44 11 14 20 28 20 31 0 3 7
14 16 24 31 35 94 120 94 128 0 4 7 14 15 23 25 26 95 120 95 127 0 3 18 28
40 54 22 26 40 50 40 53 0 9 50 57 58 57 5 0 21 15 38 33 29 31 33 46 21 77
-3 8 -8 27 -11 43 -6 25 -38 67 -52 67 -3 0 -24 16 -47 35 -44 38 -53 41 -60
23z"/>
<path d="M4370 4671 c-8 -4 -25 -13 -38 -20 -12 -6 -38 -9 -60 -5 -30 5 -41 2
-56 -15 -12 -13 -31 -21 -51 -21 -38 0 -85 -34 -85 -61 0 -10 -7 -19 -15 -19
-8 0 -15 -5 -15 -11 0 -6 -34 -47 -75 -92 -41 -45 -75 -85 -75 -89 0 -4 -13
-21 -30 -36 -16 -16 -30 -32 -30 -36 0 -7 -70 -99 -105 -138 -8 -10 -15 -21
-15 -24 0 -3 -16 -25 -35 -48 -19 -24 -35 -47 -35 -51 0 -5 -11 -23 -25 -41
-14 -18 -25 -37 -25 -42 0 -6 -7 -12 -15 -16 -8 -3 -15 -10 -15 -16 0 -6 -11
-26 -25 -44 -14 -18 -25 -38 -25 -43 0 -6 -7 -13 -15 -17 -8 -3 -15 -10 -15
-16 0 -6 -11 -26 -25 -44 -14 -18 -25 -38 -25 -44 0 -7 -4 -12 -10 -12 -5 0
-10 -5 -10 -11 0 -6 -10 -25 -23 -42 -12 -18 -27 -39 -32 -49 -31 -50 -75
-115 -107 -158 -21 -27 -38 -54 -38 -60 0 -5 -4 -10 -10 -10 -5 0 -10 -5 -10
-12 0 -6 -10 -25 -23 -42 -13 -17 -26 -39 -30 -48 -3 -10 -11 -18 -17 -18 -5
0 -10 -5 -10 -11 0 -6 -11 -25 -25 -43 -14 -18 -25 -38 -25 -44 0 -7 -4 -12
-8 -12 -5 0 -14 -16 -22 -35 -8 -19 -17 -35 -22 -35 -4 0 -8 -6 -8 -14 0 -14
-53 -85 -100 -132 -11 -12 -20 -33 -20 -47 0 -16 -8 -30 -19 -37 -11 -5 -23
-24 -26 -42 -9 -40 -22 -58 -43 -58 -9 0 -55 -19 -102 -42 l-85 -43 50 -3 c62
-4 73 -14 46 -41 -12 -12 -21 -34 -21 -49 0 -55 -36 -102 -55 -72 -12 19 -26
10 -42 -27 -8 -21 -28 -54 -44 -74 -16 -20 -29 -40 -29 -44 0 -4 -15 -28 -33
-54 -18 -25 -38 -57 -45 -71 -7 -14 -24 -43 -37 -65 -14 -22 -30 -51 -37 -65
-7 -14 -17 -28 -23 -32 -5 -4 -6 -8 -2 -8 5 0 -5 -19 -22 -42 -16 -24 -33 -55
-37 -70 -3 -16 -9 -28 -13 -28 -4 0 -13 -17 -20 -37 -8 -21 -18 -40 -22 -43
-5 -4 -12 -20 -15 -38 -6 -32 -6 -32 34 -32 23 0 43 4 47 9 3 5 19 12 35 16
18 4 58 35 104 82 l75 76 51 -6 c46 -6 55 -3 95 26 25 18 46 43 50 59 3 14 13
29 21 32 8 3 14 12 14 21 0 8 7 15 15 15 17 0 20 16 5 25 -13 8 -13 55 0 55 5
0 17 15 25 33 29 60 46 87 56 87 5 0 9 5 9 11 0 6 11 25 25 43 14 18 25 36 25
40 0 5 22 36 50 70 27 33 60 74 72 89 46 57 172 187 181 187 6 0 17 7 26 15
36 34 108 81 146 94 22 8 61 31 86 52 26 22 51 39 57 39 6 0 12 4 14 9 2 5 15
13 31 16 24 6 27 4 27 -18 0 -14 -5 -27 -10 -29 -6 -2 -12 -24 -14 -49 -1 -25
-10 -56 -19 -70 -8 -13 -19 -41 -22 -61 -4 -21 -11 -38 -15 -38 -4 0 -13 -25
-20 -55 -7 -30 -17 -55 -21 -55 -4 0 -10 -18 -14 -40 -4 -22 -11 -42 -15 -45
-5 -3 -7 -12 -3 -20 3 -8 1 -15 -5 -15 -5 0 -12 -22 -16 -50 -4 -27 -12 -50
-17 -50 -6 0 -9 -7 -6 -15 4 -8 2 -17 -3 -20 -5 -3 -12 -26 -16 -50 -3 -25
-10 -47 -14 -50 -4 -3 -14 -34 -21 -70 -7 -36 -16 -65 -20 -65 -4 0 -10 -18
-14 -40 -4 -22 -11 -42 -16 -46 -5 -3 -7 -9 -4 -14 3 -4 -2 -21 -10 -36 -8
-16 -15 -37 -15 -46 0 -9 -5 -20 -11 -23 -6 -4 -8 -13 -5 -21 3 -7 1 -16 -4
-19 -4 -3 -11 -23 -15 -45 -4 -22 -10 -40 -15 -40 -4 0 -13 -21 -20 -47 -6
-26 -16 -53 -21 -59 -5 -6 -12 -33 -15 -60 -4 -27 -13 -53 -21 -57 -7 -4 -13
-23 -13 -42 0 -25 -10 -46 -40 -80 -38 -44 -40 -50 -40 -111 0 -45 -4 -64 -13
-64 -6 0 -23 -24 -36 -52 -13 -29 -30 -68 -38 -86 -9 -17 -13 -41 -10 -52 3
-11 2 -22 -3 -25 -4 -3 -11 -42 -15 -87 -3 -46 -10 -92 -14 -103 -5 -11 -14
-53 -20 -93 -11 -72 -4 -112 19 -112 6 0 10 -10 10 -22 0 -34 14 -52 27 -36 6
7 13 22 15 33 5 28 38 33 38 5 0 -12 4 -18 10 -15 13 8 40 72 40 96 0 11 4 19
8 19 5 0 13 33 20 72 6 40 16 74 21 76 6 2 11 19 11 38 0 24 5 34 15 34 9 0
15 9 15 22 0 27 22 88 31 88 4 0 11 15 14 32 4 18 15 49 25 68 32 64 49 105
56 133 10 43 38 92 72 125 35 34 41 52 17 52 -12 0 -14 7 -9 28 8 34 13 42 24
42 5 0 7 -14 3 -32 -4 -22 -3 -29 5 -24 7 4 12 13 12 21 0 7 5 15 12 17 7 3
11 22 10 49 -2 37 3 50 23 69 14 13 25 32 25 42 0 10 5 18 10 18 6 0 10 8 10
17 0 10 24 67 54 128 73 147 116 243 116 255 0 6 4 10 8 10 4 0 14 17 21 38 8
20 17 39 20 42 10 8 101 196 101 209 0 6 4 11 8 11 4 0 14 17 21 38 8 20 17
39 20 42 13 11 49 87 56 118 3 17 10 32 14 32 4 0 14 19 22 43 7 23 23 61 36
84 12 22 19 44 15 48 -4 3 -2 9 3 13 11 7 38 60 41 77 2 16 14 48 29 78 8 15
20 54 27 87 6 33 15 60 19 60 3 0 9 13 12 28 4 17 16 33 31 40 26 12 35 32 15
32 -6 0 -8 17 -5 46 6 53 33 89 84 110 17 8 32 19 32 24 0 6 6 10 13 10 8 0
23 11 36 23 19 21 20 25 6 37 -8 7 -15 8 -15 3 0 -15 -70 -37 -82 -25 -11 11
7 148 22 167 4 6 13 51 20 100 7 50 16 95 20 100 4 6 10 27 14 47 4 20 13 50
21 65 8 15 15 33 15 39 0 6 9 19 21 30 16 15 20 26 15 54 -7 42 27 122 49 114
14 -6 35 24 35 50 0 9 -8 16 -17 17 -11 0 -13 3 -5 6 6 2 12 10 12 17 0 7 11
23 25 36 14 13 25 32 25 42 0 10 5 18 10 18 6 0 10 20 10 44 0 25 -4 48 -10
51 -5 3 -10 15 -10 26 0 10 -9 24 -20 31 -24 15 -26 36 -5 44 37 15 24 154
-15 154 -10 0 -22 5 -25 10 -7 12 -53 12 -75 1z m-525 -981 c-9 -10 -19 -44
-22 -75 -3 -32 -16 -76 -29 -99 -42 -74 -58 -113 -55 -138 1 -9 -3 -19 -9 -23
-5 -3 -10 -23 -10 -43 0 -20 -9 -50 -20 -67 -11 -16 -20 -41 -20 -55 0 -31
-24 -68 -70 -106 -41 -35 -125 -79 -169 -89 -17 -4 -31 -11 -31 -16 0 -5 -7
-9 -16 -9 -24 0 -11 55 21 84 14 13 25 27 25 31 0 4 10 20 21 37 29 41 69 117
69 132 0 6 15 27 34 45 20 20 36 46 39 66 3 20 19 47 37 65 17 16 33 44 37 62
3 18 14 44 25 57 10 13 18 30 18 37 0 7 6 17 13 21 6 4 37 37 67 72 41 48 56
60 58 47 2 -10 -4 -26 -13 -36z"/>
<path d="M2564 4609 c-17 -5 -37 -16 -44 -24 -7 -8 -19 -15 -26 -15 -8 0 -14
-4 -14 -8 0 -4 -17 -14 -37 -21 -21 -8 -40 -17 -43 -20 -9 -11 -86 -61 -93
-61 -10 0 -121 -82 -125 -92 -2 -5 -8 -8 -14 -8 -6 0 -26 -11 -44 -25 -18 -14
-36 -25 -40 -25 -4 0 -14 -7 -23 -15 -41 -38 -149 -125 -156 -125 -17 0 -255
-238 -255 -255 0 -4 -18 -29 -40 -55 -22 -26 -40 -53 -40 -59 0 -6 -4 -11 -9
-11 -8 0 -31 -41 -106 -190 -21 -41 -42 -83 -47 -93 -23 -45 -21 -112 5 -168
13 -30 32 -61 41 -68 9 -7 16 -17 16 -22 0 -9 48 -59 56 -59 3 0 23 -15 45
-33 21 -19 57 -40 79 -47 22 -7 40 -17 40 -22 0 -4 21 -8 46 -8 25 0 60 -6 77
-14 74 -31 90 -36 122 -36 19 0 37 -5 40 -10 10 -15 -57 -147 -82 -163 -7 -4
-13 -13 -13 -19 0 -5 -18 -32 -40 -58 -22 -26 -40 -53 -40 -59 0 -6 -5 -11
-10 -11 -6 0 -15 -10 -19 -22 -9 -21 -91 -123 -141 -174 -11 -12 -20 -24 -20
-28 0 -4 -27 -38 -60 -75 -33 -37 -60 -71 -60 -76 0 -4 -13 -21 -30 -37 -16
-15 -30 -31 -30 -34 0 -3 -27 -36 -60 -73 -33 -37 -60 -71 -60 -75 0 -4 -27
-38 -60 -75 -33 -37 -60 -71 -60 -75 0 -4 -16 -22 -35 -39 -19 -17 -35 -35
-35 -40 0 -5 -25 -37 -55 -72 -30 -34 -55 -67 -55 -72 0 -5 -16 -23 -35 -39
-19 -16 -35 -33 -35 -38 0 -5 -27 -40 -60 -77 -33 -37 -60 -71 -60 -76 0 -5
-13 -20 -30 -33 -16 -14 -29 -29 -30 -33 0 -5 -18 -29 -40 -55 -39 -45 -55
-68 -82 -122 -7 -14 -18 -28 -25 -33 -7 -4 -15 -23 -19 -42 -3 -19 -10 -35
-15 -35 -5 0 -9 -6 -9 -14 0 -8 -4 -16 -9 -18 -12 -4 -17 -100 -7 -116 4 -7
16 -10 27 -7 13 4 19 2 19 -9 0 -8 4 -17 9 -20 9 -6 86 31 176 84 28 17 57 33
65 37 8 4 20 11 25 15 40 33 105 78 112 78 5 0 24 13 43 30 19 16 39 29 43 30
5 0 23 16 40 35 17 19 36 35 42 35 12 0 85 71 85 84 0 4 -9 4 -20 1 -11 -3
-20 -2 -20 3 0 10 33 42 44 42 4 0 66 55 137 122 72 68 135 125 142 127 20 7
37 35 25 42 -11 7 24 76 45 90 5 3 8 10 7 14 -2 4 19 29 45 56 34 35 43 49 31
49 -14 0 -7 12 26 51 23 27 49 61 56 75 8 14 20 28 28 31 8 3 14 13 14 22 0
14 2 14 10 1 8 -12 23 -1 80 60 38 41 69 79 70 84 0 15 187 196 202 196 8 0
19 -5 24 -10 7 -7 18 -2 34 15 27 28 40 32 40 10 0 -8 5 -15 11 -15 21 0 158
143 169 176 7 19 19 38 28 44 14 8 14 11 4 18 -12 8 -11 15 4 43 9 19 28 48
40 65 32 41 33 132 4 189 -23 44 -88 115 -106 115 -7 0 -14 3 -16 8 -5 13 -61
47 -123 76 -33 16 -67 32 -76 36 -9 5 -45 14 -80 21 -35 6 -68 15 -74 19 -5 4
-46 13 -90 20 -90 13 -145 45 -145 83 0 23 33 96 48 106 8 7 35 64 32 70 -1 2
2 7 7 10 11 8 63 88 63 97 0 4 16 26 35 50 19 23 35 45 35 48 0 3 14 19 30 34
17 16 30 34 30 40 0 17 207 222 224 222 8 0 16 3 18 8 11 25 135 90 188 98 22
4 43 11 46 15 7 12 240 12 262 0 9 -5 44 -15 77 -21 33 -7 62 -15 65 -19 7 -9
117 -61 128 -61 6 0 12 -7 16 -15 3 -8 10 -15 17 -15 6 0 22 -9 36 -20 55 -43
125 -13 139 58 5 24 0 45 -21 86 -15 30 -34 57 -41 60 -8 3 -14 13 -14 22 0
20 -224 244 -245 244 -9 0 -18 7 -21 15 -4 8 -12 15 -19 15 -7 0 -23 8 -36 19
-13 10 -39 22 -56 25 -18 4 -33 11 -33 15 0 24 -190 39 -256 20z"/>
</g>
</svg>
