<?xml version="1.0" standalone="no"?>
<!DOCTYPE svg PUBLIC "-//W3C//DTD SVG 20010904//EN"
 "http://www.w3.org/TR/2001/REC-SVG-20010904/DTD/svg10.dtd">
<svg version="1.0" xmlns="http://www.w3.org/2000/svg"
 width="100%" height="100%" viewBox="0 0 1310.000000 600.000000"
 preserveAspectRatio="xMidYMid meet">
<metadata>
Created by potrace 1.16, written by Peter Selinger 2001-2019
</metadata>
<g transform="translate(0.000000,600.000000) scale(0.100000,-0.100000)"
fill="white" stroke="none">
<path d="M1135 5280 c-3 -5 -16 -10 -29 -10 -13 0 -36 -6 -52 -14 -16 -7 -44
-20 -61 -27 -18 -8 -33 -17 -33 -21 0 -5 -7 -8 -15 -8 -16 0 -145 -126 -145
-142 0 -6 -8 -18 -18 -27 -22 -19 -36 -50 -33 -73 1 -9 -3 -19 -9 -23 -5 -3
-10 -19 -10 -35 0 -16 -4 -32 -10 -35 -7 -4 -10 -258 -10 -730 0 -472 3 -726
10 -730 6 -3 10 -19 10 -35 0 -16 4 -31 9 -35 5 -3 12 -19 16 -35 4 -17 11
-30 16 -30 5 0 9 -8 9 -18 0 -10 9 -24 20 -32 11 -8 20 -19 20 -25 0 -13 72
-85 84 -85 4 0 20 -13 35 -29 16 -17 40 -33 55 -37 14 -3 29 -10 32 -15 3 -5
16 -9 30 -9 13 0 24 -4 24 -10 0 -5 20 -10 44 -10 25 0 48 -4 51 -10 4 -6 151
-10 409 -10 299 0 405 -3 414 -12 9 -9 12 -220 12 -888 0 -837 -1 -878 -18
-893 -17 -15 -60 -17 -410 -17 l-392 0 0 263 c0 191 -3 266 -12 275 -9 9 -76
12 -240 12 l-228 0 0 -310 c0 -200 4 -310 10 -310 6 0 10 -11 10 -24 0 -14 5
-28 10 -31 6 -4 10 -12 8 -18 -3 -20 14 -61 33 -78 11 -9 19 -20 19 -25 0 -14
134 -144 148 -144 6 0 12 -4 12 -10 0 -5 6 -10 13 -10 6 0 34 -11 61 -25 27
-14 60 -25 72 -25 13 0 26 -5 29 -10 9 -14 905 -14 905 0 0 6 14 10 30 10 17
0 38 4 48 9 30 16 90 41 98 41 4 0 20 12 35 26 15 15 38 32 51 38 12 6 28 22
34 34 6 13 23 36 38 51 14 15 26 32 26 38 0 6 7 16 15 23 8 7 15 23 15 36 0
13 5 24 10 24 6 0 10 11 10 24 0 14 5 28 10 31 6 3 10 24 10 45 0 21 4 42 10
45 13 8 13 1792 0 1800 -6 3 -10 26 -10 51 0 24 -4 44 -10 44 -5 0 -10 11 -10
24 0 14 -4 28 -10 31 -5 3 -10 17 -10 31 0 13 -4 24 -9 24 -5 0 -13 9 -16 20
-8 26 -175 190 -192 190 -7 0 -13 3 -13 8 0 12 -52 31 -103 38 -26 4 -50 11
-53 15 -3 5 -196 9 -430 9 l-424 0 0 675 0 675 396 0 c329 0 398 -2 410 -14
11 -12 14 -63 14 -275 l0 -261 223 0 c202 0 225 2 240 18 14 15 16 52 16 269
0 152 -4 255 -9 258 -6 3 -10 26 -10 51 0 24 -4 44 -10 44 -5 0 -10 11 -10 24
0 14 -4 28 -10 31 -5 3 -10 17 -10 30 0 12 -7 25 -15 29 -8 3 -15 11 -15 19 0
7 -13 26 -30 42 -16 16 -30 34 -30 40 0 14 -42 55 -56 55 -6 0 -21 11 -34 25
-13 14 -29 25 -37 25 -7 0 -13 4 -13 10 0 5 -18 13 -40 16 -22 4 -43 11 -46
15 -3 5 -16 9 -30 9 -13 0 -24 5 -24 10 0 7 -160 10 -459 10 -296 0 -462 -4
-466 -10z"/>
<path d="M2750 5040 l0 -230 320 0 320 0 0 -2046 c0 -1759 2 -2047 14 -2060
21 -21 431 -21 452 0 12 13 14 301 14 2060 l0 2046 320 0 320 0 0 230 0 230
-880 0 -880 0 0 -230z"/>
<path d="M4777 5263 c-3 -5 -5 -36 -5 -71 0 -60 14 -112 31 -112 4 0 7 -9 7
-20 0 -11 3 -20 8 -20 4 0 12 -12 19 -27 6 -16 20 -47 30 -70 10 -24 21 -43
25 -43 5 0 8 -9 8 -20 0 -11 5 -20 10 -20 6 0 10 -4 10 -10 0 -17 34 -90 42
-90 5 0 8 -9 8 -20 0 -11 3 -20 8 -20 8 0 15 -12 47 -79 11 -22 23 -41 27 -41
5 0 8 -9 8 -20 0 -11 5 -20 10 -20 6 0 10 -5 10 -12 0 -12 50 -120 60 -128 6
-5 22 -39 51 -107 8 -18 17 -33 21 -33 5 0 8 -9 8 -20 0 -11 5 -20 10 -20 6 0
10 -5 10 -12 0 -12 50 -120 60 -128 6 -5 22 -39 51 -107 8 -18 17 -33 21 -33
5 0 8 -9 8 -20 0 -11 5 -20 10 -20 6 0 10 -5 10 -12 0 -11 50 -119 60 -128 14
-13 30 -52 25 -60 -4 -6 -141 -10 -348 -10 -330 0 -343 -1 -355 -20 -9 -15
-12 -342 -12 -1492 0 -1353 1 -1473 17 -1490 15 -17 40 -18 360 -18 285 0 347
2 359 14 12 13 14 220 14 1455 0 954 3 1441 10 1441 6 0 10 -16 10 -35 0 -19
5 -35 11 -35 7 0 9 -12 7 -30 -3 -17 -1 -33 4 -36 4 -3 8 -16 8 -30 0 -13 5
-24 10 -24 6 0 10 -16 10 -35 0 -19 5 -35 10 -35 6 0 10 -11 10 -24 0 -14 5
-28 10 -31 6 -3 10 -21 10 -40 0 -19 4 -36 9 -39 4 -3 6 -16 4 -30 -3 -13 0
-27 6 -30 6 -4 11 -18 11 -32 0 -13 5 -24 10 -24 6 0 10 -15 10 -34 0 -19 5
-38 10 -41 6 -3 10 -19 10 -35 0 -16 4 -31 9 -35 5 -3 13 -30 16 -60 4 -31 11
-58 16 -61 5 -3 9 -21 9 -40 0 -19 5 -34 10 -34 6 0 10 -11 10 -24 0 -14 5
-28 10 -31 6 -3 10 -19 10 -35 0 -16 5 -32 10 -35 6 -4 8 -15 5 -25 -3 -10 -1
-21 5 -25 5 -3 10 -19 10 -35 0 -16 5 -32 10 -35 6 -3 10 -22 10 -41 0 -19 5
-34 10 -34 6 0 10 -11 10 -24 0 -14 5 -28 11 -32 6 -3 9 -17 6 -30 -2 -14 0
-27 4 -30 5 -3 9 -21 9 -40 0 -19 5 -34 10 -34 6 0 10 -11 10 -24 0 -14 5 -28
10 -31 6 -3 10 -22 10 -41 0 -19 5 -34 10 -34 6 0 10 -15 10 -34 0 -19 4 -37
9 -40 5 -3 7 -15 4 -26 -3 -11 0 -20 6 -20 6 0 11 -16 11 -35 0 -19 5 -35 10
-35 6 0 10 -11 10 -24 0 -14 5 -28 10 -31 6 -3 10 -21 10 -40 0 -19 5 -37 11
-41 6 -3 8 -17 5 -29 -3 -13 -2 -27 4 -30 5 -3 10 -17 10 -31 0 -13 5 -24 10
-24 6 0 10 -15 10 -34 0 -19 5 -38 10 -41 6 -3 10 -19 10 -35 0 -16 4 -31 9
-35 5 -3 13 -30 16 -60 4 -31 11 -58 16 -61 5 -3 9 -16 9 -30 0 -13 5 -24 10
-24 6 0 10 -15 10 -34 0 -19 5 -38 10 -41 6 -3 10 -19 10 -35 0 -16 5 -32 10
-35 6 -4 8 -15 5 -25 -3 -10 -1 -21 5 -25 5 -3 10 -19 10 -35 0 -16 5 -32 10
-35 6 -3 10 -22 10 -41 0 -19 5 -34 10 -34 6 0 10 -11 10 -24 0 -14 4 -27 9
-31 5 -3 13 -34 16 -70 4 -36 11 -65 16 -65 5 0 9 -11 9 -24 0 -14 5 -28 10
-31 6 -3 10 -16 10 -29 0 -45 5 -46 367 -46 l343 0 0 34 c0 19 -4 38 -10 41
-5 3 -10 17 -10 31 0 13 -4 24 -9 24 -5 0 -12 29 -16 65 -3 36 -11 67 -16 70
-5 4 -9 22 -9 41 0 19 -4 34 -10 34 -5 0 -10 11 -10 24 0 14 -4 28 -10 31 -5
3 -10 19 -10 35 0 16 -5 32 -10 35 -6 3 -8 18 -6 32 3 13 1 33 -4 44 -6 10
-14 28 -20 39 -5 11 -10 33 -10 50 0 16 -4 30 -10 30 -5 0 -10 15 -10 34 0 19
-4 37 -9 41 -6 3 -13 27 -16 53 -3 26 -10 55 -16 64 -5 10 -9 29 -9 42 0 14
-4 28 -10 31 -5 3 -10 22 -10 41 0 19 -4 34 -10 34 -5 0 -10 11 -10 24 0 14
-4 27 -9 30 -4 3 -6 16 -4 30 3 13 0 27 -6 30 -6 4 -11 23 -11 42 0 19 -4 34
-10 34 -5 0 -10 11 -10 24 0 14 -4 28 -10 31 -5 3 -10 22 -10 41 0 19 -4 34
-9 34 -5 0 -12 29 -16 65 -3 36 -11 67 -16 70 -5 4 -9 17 -9 31 0 13 -4 24
-10 24 -5 0 -10 15 -10 34 0 19 -4 38 -10 41 -5 3 -10 19 -10 35 0 16 -5 32
-10 35 -6 4 -8 15 -5 25 3 10 1 21 -5 25 -5 3 -10 19 -10 35 0 16 -4 32 -10
35 -5 3 -10 22 -10 41 0 19 -4 34 -10 34 -5 0 -10 15 -10 34 0 19 -5 38 -11
41 -6 4 -8 13 -5 21 3 7 1 16 -4 19 -6 4 -10 22 -10 41 0 19 -4 34 -10 34 -5
0 -10 15 -10 34 0 19 -4 38 -10 41 -5 3 -10 17 -10 30 0 13 -4 25 -9 27 -4 1
-12 29 -15 61 -6 48 -5 57 8 57 9 0 16 5 16 10 0 6 14 10 30 10 27 0 67 16 80
31 3 4 16 10 30 14 29 8 200 173 200 192 0 7 4 13 9 13 5 0 12 13 16 30 4 16
11 32 16 35 5 4 9 17 9 31 0 13 5 24 10 24 6 0 10 25 10 55 0 30 5 55 10 55 6
0 10 27 10 60 0 33 -4 60 -10 60 -7 0 -10 216 -10 629 0 409 -4 632 -10 636
-5 3 -10 17 -10 31 0 13 -4 32 -10 42 -5 9 -17 35 -27 57 -9 22 -25 47 -35 56
-10 9 -18 20 -18 25 0 16 -74 91 -98 98 -12 4 -22 12 -22 17 0 5 -6 9 -13 9
-8 0 -22 9 -31 19 -9 10 -37 22 -61 26 -25 3 -47 10 -50 16 -7 11 -1702 13
-1708 2z m1363 -1138 l0 -415 -310 0 -310 0 0 415 0 415 310 0 310 0 0 -415z"/>
<path d="M7152 2983 l3 -2288 349 -3 c249 -2 353 1 362 9 12 10 14 374 14
2290 l0 2279 -365 0 -365 0 2 -2287z"/>
<path d="M8170 5268 c-1 -2 -1 -39 -2 -83 0 -74 6 -113 22 -125 9 -8 60 -116
60 -128 0 -7 5 -12 10 -12 6 0 10 -9 10 -20 0 -11 3 -20 8 -20 6 0 39 -63 47
-90 5 -17 19 -46 25 -50 9 -8 60 -116 60 -128 0 -7 5 -12 10 -12 6 0 10 -9 10
-20 0 -11 3 -20 8 -20 8 0 42 -73 42 -90 0 -6 5 -10 10 -10 6 0 10 -9 10 -19
0 -11 4 -21 8 -23 10 -4 62 -111 62 -126 0 -7 5 -12 10 -12 6 0 10 -9 10 -20
0 -11 3 -20 8 -20 8 0 42 -73 42 -90 0 -6 5 -10 10 -10 6 0 10 -9 10 -19 0
-11 4 -21 8 -23 9 -4 62 -110 62 -126 0 -6 4 -12 8 -14 10 -4 62 -111 62 -126
0 -7 5 -12 10 -12 6 0 10 -9 10 -20 0 -11 3 -20 8 -20 7 0 32 -47 32 -62 0 -4
-155 -9 -345 -10 l-345 -3 0 -1505 0 -1505 805 -3 c535 -1 805 1 805 8 0 5 20
10 45 10 25 0 45 5 45 10 0 6 11 10 24 10 14 0 27 4 31 9 3 5 19 12 36 16 16
4 35 15 42 26 6 10 18 19 25 19 15 0 122 108 122 123 0 5 8 17 18 26 25 22 56
92 53 118 -1 11 3 24 8 28 15 9 15 3761 1 3770 -6 4 -8 15 -5 25 3 10 1 21 -5
25 -5 3 -10 17 -10 31 0 13 -4 24 -10 24 -5 0 -10 6 -10 13 0 8 -9 22 -20 32
-11 10 -20 23 -20 29 0 19 -142 152 -177 167 -18 8 -33 17 -33 21 0 4 -18 11
-40 14 -22 4 -43 11 -46 15 -4 8 -1683 14 -1684 7z m1340 -2268 c0 -847 0
-1543 0 -1547 0 -5 -139 -9 -310 -11 l-310 -2 0 1550 0 1550 310 0 310 0 0
-1540z"/>
<path d="M10532 5170 c1 -56 8 -104 13 -108 13 -9 155 -293 155 -309 0 -6 3
-13 8 -15 10 -4 152 -290 152 -305 0 -7 3 -13 8 -13 4 0 16 -19 27 -41 32 -67
39 -79 47 -79 5 0 8 -9 8 -19 0 -11 4 -21 8 -23 10 -4 62 -111 62 -126 0 -7 5
-12 10 -12 6 0 10 -9 10 -20 0 -11 3 -20 8 -20 8 0 42 -73 42 -90 0 -6 5 -10
10 -10 6 0 10 -9 10 -20 0 -11 3 -20 8 -20 6 0 39 -63 47 -90 5 -17 20 -46 25
-50 7 -6 40 -75 40 -84 0 -3 -157 -6 -350 -6 l-350 0 0 -1498 c0 -1152 3
-1501 12 -1510 9 -9 228 -12 926 -12 778 0 916 2 928 14 12 12 14 74 14 361 0
287 -2 349 -14 361 -12 12 -103 14 -580 14 l-566 0 0 760 0 760 448 0 c422 0
450 1 465 18 15 17 17 56 17 361 0 282 -2 345 -14 357 -12 11 -92 14 -463 16
l-448 3 -3 412 -2 413 577 2 578 3 3 363 2 362 -941 0 -941 0 4 -100z"/>
</g>
</svg>
