<?xml version="1.0" standalone="no"?>
<!DOCTYPE svg PUBLIC "-//W3C//DTD SVG 20010904//EN"
 "http://www.w3.org/TR/2001/REC-SVG-20010904/DTD/svg10.dtd">
<svg version="1.0" xmlns="http://www.w3.org/2000/svg"
 width="100%" height="100%" viewBox="0 0 1347.000000 600.000000"
 preserveAspectRatio="xMidYMid meet">
<metadata>
Created by potrace 1.16, written by Peter Selinger 2001-2019
</metadata>
<g transform="translate(0.000000,600.000000) scale(0.100000,-0.100000)"
fill="white" stroke="none">
<path d="M4175 5367 c-17 -22 -33 -50 -60 -104 -14 -29 -29 -53 -34 -53 -7 0
-22 -36 -20 -48 0 -2 -10 -18 -23 -35 -14 -18 -34 -52 -47 -77 -25 -51 -43
-83 -52 -90 -6 -6 -19 -37 -18 -46 0 -4 -3 -10 -8 -13 -11 -8 -32 -42 -39 -63
-4 -10 -10 -18 -14 -18 -5 0 -11 -13 -15 -29 -3 -16 -13 -35 -21 -42 -8 -6
-14 -18 -14 -25 0 -8 -4 -14 -9 -14 -5 0 -12 -12 -16 -27 -3 -15 -15 -34 -25
-43 -10 -9 -22 -28 -25 -43 -4 -15 -11 -27 -16 -27 -5 0 -9 -5 -9 -12 0 -6 -8
-20 -17 -30 -15 -17 -15 -20 12 -48 16 -17 34 -30 40 -30 6 0 42 32 80 70 38
39 74 70 78 70 5 0 76 63 157 140 81 77 151 140 155 140 4 0 74 63 155 140 81
77 151 140 155 140 4 0 43 34 86 75 43 41 83 75 89 75 18 0 10 21 -19 51 l-29
29 -234 0 c-176 -1 -235 -4 -243 -13z"/>
<path d="M632 4188 c-9 -9 -12 -92 -12 -316 0 -315 2 -332 42 -332 8 0 146
133 307 295 l293 295 279 0 279 0 0 -1602 0 -1603 127 -127 128 -128 -198 0
-197 0 0 -30 0 -30 387 2 387 3 0 25 c0 24 -2 25 -77 28 l-77 3 0 1602 0 1602
-125 125 c-68 68 -123 126 -121 127 2 2 183 4 402 3 l399 0 295 -295 c162
-162 300 -295 306 -295 6 0 18 8 28 18 15 17 16 51 14 328 l-3 309 -1425 3
c-1101 1 -1429 -1 -1438 -10z"/>
<path d="M3822 4188 c-7 -7 -12 -22 -12 -35 0 -22 3 -23 75 -23 l75 0 0 -1602
0 -1603 127 -127 128 -128 -203 0 -203 0 3 -28 3 -27 383 -3 382 -2 0 30 0 30
-70 0 -70 0 0 1606 0 1606 -117 120 c-65 65 -119 122 -121 126 -1 4 83 6 188
4 l190 -3 0 36 0 35 -373 0 c-277 0 -376 -3 -385 -12z"/>
<path d="M5152 4184 c-7 -8 -12 -22 -10 -32 3 -14 17 -18 81 -20 l77 -3 0
-1612 0 -1612 117 -117 118 -118 -198 0 -197 0 0 -25 c0 -17 7 -26 23 -30 45
-12 1447 -1 1455 11 4 6 31 14 61 17 29 4 58 10 65 15 6 5 25 12 41 16 39 9
85 29 85 37 0 4 12 10 27 14 15 3 30 10 33 13 7 10 39 29 75 45 17 8 39 24 49
36 11 11 24 21 30 21 13 0 156 141 156 153 0 5 18 29 39 55 22 26 43 59 46 75
4 15 11 27 15 27 5 0 11 13 15 30 4 16 10 30 15 30 7 0 22 33 24 57 1 6 5 15
9 19 4 4 7 19 7 34 0 14 6 32 13 39 9 9 12 64 12 205 0 191 -1 200 -37 269 -5
10 -6 22 -3 27 3 5 1 11 -5 15 -5 3 -10 17 -10 31 0 13 -4 24 -9 24 -5 0 -12
13 -16 30 -4 16 -10 30 -15 30 -4 0 -11 8 -14 18 -13 34 -37 72 -47 72 -5 0
-9 6 -9 13 0 17 -225 238 -261 258 -36 19 -166 83 -211 103 -20 9 -43 16 -51
16 -9 0 -19 5 -22 10 -3 6 -17 10 -30 10 -29 0 -55 9 -55 20 0 4 16 11 35 14
19 4 35 11 35 15 0 5 12 12 27 16 15 3 39 15 54 26 15 10 30 19 34 19 4 0 24
14 45 30 21 17 42 30 47 30 11 0 163 153 163 164 0 4 15 26 34 49 19 23 37 54
41 70 4 15 11 27 15 27 5 0 12 14 15 32 4 18 11 39 16 48 13 26 22 55 20 67
-1 6 3 14 9 18 5 3 10 26 10 50 0 24 5 47 10 50 6 3 10 44 10 90 0 46 -4 87
-10 90 -5 3 -10 26 -10 50 0 24 -5 47 -10 50 -6 4 -10 12 -9 18 2 13 -7 41
-22 69 -5 10 -9 23 -9 28 0 27 -65 145 -97 177 -13 12 -23 26 -23 31 0 9 -139
145 -176 172 -47 35 -213 120 -233 120 -6 0 -21 5 -34 12 -12 6 -30 15 -39 19
-10 5 -49 12 -88 15 -38 4 -70 11 -70 15 0 5 -285 9 -632 9 -548 -1 -635 -3
-646 -16z m1186 -71 c4 -6 20 -15 35 -18 15 -4 27 -11 27 -15 0 -4 8 -11 18
-14 48 -18 172 -126 172 -152 0 -6 9 -19 20 -29 11 -10 20 -24 20 -31 0 -7 4
-14 8 -16 12 -4 72 -131 72 -151 0 -9 4 -17 9 -17 5 0 12 -24 16 -52 4 -29 13
-56 19 -60 15 -10 15 -439 0 -459 -6 -8 -15 -35 -18 -61 -4 -26 -11 -50 -15
-53 -5 -2 -12 -21 -15 -40 -4 -19 -11 -35 -15 -35 -5 0 -12 -10 -16 -22 -4
-13 -9 -25 -10 -28 -1 -3 -6 -15 -10 -27 -4 -13 -11 -23 -16 -23 -5 0 -9 -6
-9 -13 0 -8 -9 -22 -20 -32 -11 -10 -20 -22 -20 -26 0 -22 -131 -135 -199
-172 l-76 -42 -267 -3 -268 -3 0 676 0 677 -125 127 c-69 70 -123 129 -121
132 2 2 183 2 401 -1 287 -4 398 -8 403 -17z m27 -1663 c3 -5 16 -10 27 -10
31 0 159 -65 187 -94 14 -14 30 -26 36 -26 6 0 22 -11 35 -25 13 -14 20 -25
15 -25 -4 0 11 -21 34 -47 58 -66 59 -68 67 -97 3 -14 9 -26 13 -26 11 0 71
-128 71 -153 0 -9 4 -18 9 -22 6 -3 13 -27 17 -53 4 -26 12 -50 18 -54 16 -10
15 -486 0 -496 -6 -4 -15 -32 -19 -62 -4 -30 -14 -64 -21 -75 -8 -11 -14 -29
-14 -41 0 -12 -4 -24 -8 -26 -5 -1 -23 -33 -41 -70 -18 -38 -36 -68 -41 -68
-4 0 -11 -8 -14 -18 -18 -49 -119 -164 -161 -183 -34 -15 -59 -33 -73 -52 -8
-10 -19 -16 -25 -14 -7 2 -28 -6 -47 -17 -33 -19 -53 -21 -342 -24 l-308 -4 0
896 0 896 289 0 c183 0 292 -4 296 -10z"/>
<path d="M7864 4186 c-3 -8 -4 -23 -2 -33 3 -15 15 -18 81 -21 l77 -3 0 -1612
0 -1612 117 -117 118 -118 -198 0 -197 0 0 -30 0 -30 910 0 910 0 0 325 0 325
-28 0 c-22 0 -78 -51 -322 -295 l-295 -295 -277 0 -278 0 0 840 c0 462 1 840
3 840 2 0 102 -99 223 -220 209 -211 221 -221 254 -218 l35 3 3 488 2 487 -37
0 c-36 0 -49 -11 -253 -215 -118 -118 -218 -215 -222 -215 -5 0 -8 321 -8 713
l0 713 -30 24 c-16 14 -29 29 -30 35 0 5 -39 49 -87 97 -48 48 -85 89 -82 90
2 2 182 1 399 -2 l395 -5 292 -293 c236 -237 296 -293 315 -290 l23 3 3 328 2
327 -905 0 c-779 0 -906 -2 -911 -14z"/>
<path d="M10010 4195 c0 -3 0 -150 0 -327 -1 -277 1 -323 14 -326 9 -2 140
122 311 292 l295 296 280 0 280 0 0 -1604 0 -1605 120 -119 c66 -66 120 -123
120 -126 0 -3 -85 -6 -190 -6 l-190 0 0 -30 0 -30 385 0 385 0 0 30 0 30 -75
0 -75 0 0 1612 0 1611 -119 119 c-65 65 -116 118 -112 118 3 0 182 0 396 0
l390 0 295 -295 c211 -211 301 -295 318 -295 l22 0 0 330 0 330 -1425 0 c-784
0 -1425 -2 -1425 -5z"/>
</g>
</svg>
