

<svg xmlns="http://www.w3.org/2000/svg" viewBox="0 0 500.000000 500.000000" preserveAspectRatio="xMidYMid meet">

<g transform="translate(0.000000,500.000000) scale(0.100000,-0.100000)"
fill="white" >
<path d="M2057 3293 c-1 -1 0 -29 1 -62 l4 -61 29 0 29 0 0 -245 0 -245 -29 0
-29 0 -4 -56 c-1 -31 -1 -58 1 -60 2 -2 60 -4 128 -4 l123 0 0 32 0 31 23 -20
c44 -41 89 -57 162 -57 54 0 80 5 113 22 170 90 152 454 -25 513 -19 6 -66 9
-104 7 l-68 -4 -46 -32 c-25 -18 -45 -27 -44 -20 1 7 1 68 0 135 l-1 122 -131
3 c-72 2 -131 2 -132 1z m418 -350 c26 -25 35 -59 35 -126 0 -106 -49 -166
-116 -141 -44 15 -68 57 -72 127 -3 50 0 72 17 104 11 23 26 43 33 46 29 12
87 6 103 -10z"/>
<path d="M1760 3210 l0 -80 104 0 104 0 -1 80 0 80 -104 0 -103 0 0 -80z"/>
<path d="M470 3140 l0 -130 85 0 85 0 0 65 0 65 45 0 45 0 0 -225 0 -225 -45
0 -45 0 0 -65 0 -65 195 0 196 0 -3 63 -3 62 -42 3 -43 3 0 225 0 224 40 0 40
0 0 -65 0 -65 85 0 85 0 0 130 0 130 -360 0 -360 0 0 -130z"/>
<path d="M1549 3073 c-15 -9 -38 -34 -53 -57 l-26 -40 0 52 0 52 -125 0 -125
0 0 -60 0 -60 30 0 30 0 0 -140 0 -140 -30 0 -30 0 0 -60 0 -60 170 0 170 0 0
60 0 60 -35 0 -35 0 0 78 0 78 31 32 c32 32 51 38 122 33 l37 -2 0 28 c0 15
-3 58 -7 96 l-6 67 -46 0 c-25 0 -58 -8 -72 -17z"/>
<path d="M2894 3067 c-92 -44 -144 -137 -144 -256 2 -154 91 -251 248 -267
115 -12 219 25 263 95 44 69 42 71 -62 71 l-92 0 -23 -25 c-24 -26 -62 -32
-94 -15 -21 11 -44 80 -31 93 4 4 83 7 174 5 l167 -3 0 45 c0 60 -25 155 -51
191 -11 16 -41 41 -67 56 l-46 27 -96 4 -95 3 -51 -24z m160 -98 c21 -10 46
-53 46 -80 0 -5 -34 -9 -76 -9 l-76 0 7 33 c7 33 37 67 61 67 7 0 24 -5 38
-11z"/>
<path d="M3483 3066 c-94 -44 -143 -149 -129 -278 11 -111 57 -178 150 -219
40 -18 70 -23 141 -24 l90 0 58 28 c61 30 99 79 111 145 l6 32 -88 0 -88 0
-11 -30 c-21 -57 -96 -65 -129 -14 -41 62 -35 208 9 239 50 35 127 4 127 -52
l0 -23 85 0 85 0 0 105 0 105 -80 0 -80 0 0 -20 0 -19 -36 24 -37 25 -66 0
c-49 0 -80 -7 -118 -24z"/>
<path d="M4110 3084 c-72 -26 -109 -50 -133 -87 -15 -23 -27 -51 -27 -64 l0
-23 94 0 94 0 11 30 c9 28 43 50 76 50 23 0 55 -34 61 -66 l6 -31 -99 -6
c-127 -9 -166 -20 -214 -64 -104 -94 -60 -241 84 -273 l57 -13 56 12 c34 8 68
24 90 43 l34 30 0 -31 0 -31 120 0 120 0 0 60 0 60 -29 0 -29 0 -4 143 -3 142
-23 37 c-14 22 -41 45 -70 60 l-47 23 -105 2 c-58 1 -112 0 -120 -3z m179
-309 c9 -10 -13 -61 -39 -86 -35 -36 -89 -40 -121 -8 -37 37 2 94 71 102 34 4
81 -1 89 -8z"/>
<path d="M1700 3017 l0 -64 30 5 30 4 0 -141 0 -141 -30 0 -30 0 0 -60 0 -60
160 0 160 0 0 60 0 60 -25 0 -25 0 -1 63 c0 34 -1 123 -2 197 l-2 135 -132 3
-133 3 0 -64z"/>
<path d="M1440 2325 l0 -85 105 0 105 0 0 85 0 85 -105 0 -105 0 0 -85z"/>
<path d="M2257 2403 c-4 -3 -7 -42 -7 -85 l0 -78 105 0 105 0 0 85 0 85 -98 0
c-54 0 -102 -3 -105 -7z"/>
<path d="M863 2386 c-62 -20 -110 -53 -148 -103 -53 -70 -70 -131 -69 -253 l0
-105 23 -58 c58 -148 180 -214 380 -205 174 7 275 79 300 213 l8 45 -102 0
-102 0 -17 -45 c-24 -60 -57 -85 -115 -85 -63 0 -107 29 -134 88 l-22 47 0
100 1 100 24 50 c43 85 118 116 195 79 34 -16 60 -57 71 -113 l7 -31 88 0 89
0 0 138 0 137 -85 -3 -85 -3 0 -25 0 -25 -26 20 c-59 47 -193 64 -281 37z"/>
<path d="M1873 2323 l-103 -35 0 -49 0 -49 -30 0 -30 0 0 -60 0 -60 29 0 28 0
5 -149 5 -149 19 -32 c34 -59 66 -75 157 -78 132 -5 187 37 195 148 l4 60 -55
0 -56 0 -3 -37 -3 -38 -25 0 -25 0 0 135 0 135 63 3 62 3 0 59 0 59 -62 3 -63
3 -5 81 -5 81 -102 -34z"/>
<path d="M3325 2201 c-90 -25 -143 -68 -175 -143 l-22 -52 4 -90 c5 -99 18
-134 67 -183 55 -55 95 -68 211 -68 l105 0 48 24 c47 23 87 70 102 119 l6 22
-99 0 -99 0 -11 -24 c-13 -29 -57 -39 -93 -20 -25 13 -39 39 -39 77 l0 17 175
0 176 0 -7 68 c-8 79 -38 165 -66 192 -55 51 -203 83 -283 61z m125 -133 c11
-12 20 -34 20 -50 l0 -28 -70 0 -70 0 0 28 c0 38 33 72 70 72 17 0 38 -9 50
-22z"/>
<path d="M4075 2201 c-46 -12 -78 -30 -102 -59 l-23 -27 0 38 0 37 -125 0
-125 0 0 -60 0 -60 30 0 30 0 0 -141 0 -141 -30 4 -30 5 0 -64 0 -63 155 0
155 0 0 60 0 60 -20 0 -20 0 0 120 0 120 20 20 c29 29 74 26 99 -6 l21 -27 0
-113 0 -114 -25 0 -25 0 0 -60 0 -60 155 0 155 0 0 60 0 60 -24 0 -24 0 -3
153 -4 152 -20 35 c-12 19 -35 43 -52 53 -36 21 -122 30 -168 18z"/>
<path d="M1380 2130 l0 -60 30 0 30 0 0 -140 0 -140 -30 0 -30 0 0 -60 0 -60
162 2 161 3 0 60 1 60 -27 -3 -27 -3 0 200 0 201 -135 0 -135 0 0 -60z"/>
<path d="M2190 2130 l0 -60 30 0 30 0 0 -141 0 -140 -27 3 -28 3 -3 -63 -3
-63 163 3 163 3 3 57 3 57 -28 3 -28 3 -3 198 -2 197 -135 0 -135 0 0 -60z"/>
<path d="M2580 2105 l0 -85 75 0 75 0 0 30 0 30 58 0 57 0 -137 -136 -138
-136 0 -69 0 -69 255 0 255 0 0 90 0 90 -75 0 -75 0 0 -30 c0 -36 -12 -42 -74
-38 l-47 3 34 35 c19 19 80 80 136 135 l101 99 0 68 0 68 -250 0 -250 0 0 -85z"/>
</g>
</svg>
