

<svg xmlns="http://www.w3.org/2000/svg" viewBox="0 0 600.000000 256.000000" preserveAspectRatio="xMidYMid meet">

<g transform="translate(0.000000,256.000000) scale(0.100000,-0.100000)"
fill="white" >
<path d="M2160 1720 l0 -660 109 0 c78 0 111 -4 115 -12 5 -10 7 -10 12 0 3 6
23 12 45 12 l39 0 0 270 c0 173 4 270 10 270 6 0 10 7 10 15 0 9 11 27 25 40
l24 25 51 0 c53 0 80 -15 80 -44 0 -9 5 -16 10 -16 6 0 10 -100 10 -280 l0
-280 170 0 170 0 0 330 c0 213 -4 330 -10 330 -5 0 -10 18 -10 40 0 22 -4 40
-10 40 -5 0 -10 8 -10 18 0 10 -9 24 -20 32 -11 8 -20 20 -20 28 0 18 -46 62
-65 62 -8 0 -15 5 -15 10 0 6 -9 10 -20 10 -11 0 -20 5 -20 10 0 6 -13 10 -30
10 -16 0 -30 5 -30 10 0 6 -27 10 -60 10 -33 0 -60 -4 -60 -10 0 -5 -13 -10
-30 -10 -16 0 -30 -4 -30 -10 0 -5 -9 -10 -20 -10 -11 0 -20 -4 -20 -10 0 -5
-9 -10 -20 -10 -11 0 -20 -4 -20 -10 0 -5 -9 -10 -20 -10 l-20 0 0 230 0 230
-160 0 -160 0 0 -660z"/>
<path d="M5593 2365 c-7 -8 -13 -21 -13 -30 0 -8 -4 -15 -10 -15 -5 0 -10 -13
-10 -30 0 -16 -4 -30 -10 -30 -5 0 -10 -9 -10 -20 0 -11 -4 -20 -10 -20 -5 0
-10 -13 -10 -30 0 -16 -4 -30 -10 -30 -5 0 -10 -9 -10 -20 0 -11 -4 -20 -10
-20 -5 0 -10 -9 -10 -20 0 -11 -4 -20 -10 -20 -5 0 -10 -13 -10 -30 0 -16 -4
-30 -10 -30 -5 0 -10 -9 -10 -20 0 -11 -4 -20 -10 -20 -5 0 -10 -13 -10 -30 0
-16 -4 -30 -10 -30 -5 0 -10 -9 -10 -20 0 -11 -4 -20 -10 -20 -5 0 -10 -9 -10
-20 0 -11 -4 -20 -10 -20 -5 0 -10 -13 -10 -30 0 -16 -4 -30 -10 -30 -5 0 -10
-9 -10 -20 0 -11 -4 -20 -10 -20 -5 0 -10 -13 -10 -30 0 -16 -4 -30 -10 -30
-5 0 -10 -9 -10 -20 0 -11 -4 -20 -10 -20 -5 0 -10 -13 -10 -30 0 -16 -4 -30
-10 -30 -5 0 -10 -9 -10 -20 l0 -20 186 0 c193 0 214 4 214 44 0 9 5 16 10 16
6 0 10 14 10 30 0 17 5 30 10 30 6 0 10 9 10 20 0 11 5 20 10 20 6 0 10 14 10
30 0 17 5 30 10 30 6 0 10 9 10 20 0 11 5 20 10 20 6 0 10 9 10 20 0 11 5 20
10 20 6 0 10 14 10 30 0 17 5 30 10 30 6 0 10 9 10 20 0 11 5 20 10 20 6 0 10
14 10 30 0 17 5 30 10 30 6 0 10 9 10 20 0 11 5 20 10 20 6 0 10 9 10 20 0 11
5 20 10 20 6 0 10 14 10 30 0 17 5 30 10 30 6 0 10 9 10 20 0 11 5 20 10 20 6
0 10 14 10 30 0 17 5 30 10 30 6 0 10 9 10 20 0 11 5 20 10 20 6 0 10 9 10 20
0 11 5 20 10 20 6 0 10 14 10 30 l0 30 -187 0 c-150 -1 -191 -4 -200 -15z"/>
<path d="M1400 1990 c0 -5 -9 -10 -20 -10 -11 0 -20 -4 -20 -10 0 -5 -13 -10
-28 -10 -16 0 -34 -8 -42 -20 -8 -11 -20 -20 -27 -20 -8 0 -43 -29 -78 -65
-46 -45 -65 -72 -65 -90 0 -14 -4 -25 -10 -25 -5 0 -10 -9 -10 -20 0 -11 -4
-20 -10 -20 -5 0 -10 -13 -10 -30 0 -16 -4 -30 -10 -30 -6 0 -10 -50 -10 -130
0 -80 4 -130 10 -130 6 0 10 -17 10 -38 0 -26 6 -42 20 -52 11 -8 20 -22 20
-32 0 -10 5 -18 10 -18 6 0 10 -7 10 -15 0 -20 105 -125 125 -125 8 0 15 -4
15 -10 0 -5 9 -10 20 -10 11 0 20 -4 20 -10 0 -5 9 -10 20 -10 11 0 20 -4 20
-10 0 -6 26 -10 59 -10 38 0 61 -5 65 -12 l6 -13 6 13 c4 7 27 12 65 12 33 0
59 4 59 10 0 6 9 10 20 10 11 0 20 5 20 10 0 6 9 10 19 10 11 0 21 6 24 13 3
8 11 5 24 -10 12 -13 32 -23 47 -23 14 0 26 -4 26 -10 0 -5 9 -10 20 -10 11 0
20 5 20 10 0 6 23 10 50 10 28 0 50 -4 50 -10 0 -5 18 -10 40 -10 22 0 40 5
40 10 0 6 9 10 20 10 l20 0 0 446 0 445 -14 15 c-11 11 -45 14 -146 14 l-132
0 -31 -32 c-19 -21 -32 -28 -34 -20 -3 6 -12 12 -22 12 -9 0 -23 9 -31 20 -10
14 -26 20 -52 20 -21 0 -38 5 -38 10 0 6 -33 10 -80 10 -47 0 -80 -4 -80 -10z
m200 -300 c0 -5 9 -10 20 -10 11 0 20 -4 20 -10 0 -5 7 -10 15 -10 25 0 65
-46 65 -75 0 -14 5 -25 10 -25 6 0 10 -22 10 -50 0 -27 -4 -50 -10 -50 -5 0
-10 -7 -10 -15 0 -26 -86 -105 -115 -105 -14 0 -25 -4 -25 -10 0 -5 -9 -10
-20 -10 -11 0 -20 5 -20 10 0 6 -13 10 -30 10 -16 0 -30 5 -30 10 0 6 -7 10
-15 10 -20 0 -65 45 -65 65 0 8 -4 15 -10 15 -6 0 -10 30 -10 70 0 40 4 70 10
70 6 0 10 7 10 15 0 9 11 27 25 40 13 14 31 25 40 25 8 0 15 5 15 10 0 6 14
10 30 10 17 0 30 5 30 10 0 6 14 10 30 10 17 0 30 -4 30 -10z"/>
<path d="M3500 1990 c0 -5 -18 -10 -40 -10 -22 0 -40 -4 -40 -10 0 -5 -13 -10
-30 -10 -16 0 -30 -4 -30 -10 0 -5 -7 -10 -16 -10 -9 0 -29 -13 -44 -30 -15
-16 -33 -30 -39 -30 -23 0 -101 -89 -101 -115 0 -14 -4 -25 -10 -25 -5 0 -10
-9 -10 -20 0 -11 -4 -20 -10 -20 -5 0 -10 -13 -10 -30 0 -16 -4 -30 -10 -30
-6 0 -10 -50 -10 -130 0 -80 4 -130 10 -130 6 0 10 -17 10 -38 0 -26 6 -42 20
-52 11 -8 20 -21 20 -30 0 -9 9 -22 20 -30 11 -8 20 -20 20 -28 0 -17 24 -42
40 -42 7 0 25 -13 40 -30 15 -16 35 -30 44 -30 9 0 16 -4 16 -10 0 -5 9 -10
20 -10 11 0 20 -4 20 -10 0 -5 9 -10 20 -10 11 0 20 -4 20 -10 0 -6 60 -10
160 -10 100 0 160 4 160 10 0 6 9 10 20 10 11 0 20 5 20 10 0 6 13 10 28 10
16 0 34 8 42 20 8 11 20 20 27 20 17 0 123 106 123 123 0 7 9 19 20 27 12 8
20 26 20 42 0 15 5 28 10 28 6 0 10 18 10 40 0 22 5 40 10 40 6 0 10 37 10 90
0 53 -4 90 -10 90 -5 0 -10 18 -10 40 0 22 -4 40 -10 40 -5 0 -10 9 -10 20 0
11 -4 20 -10 20 -5 0 -10 9 -10 20 0 11 -4 20 -10 20 -5 0 -10 7 -10 15 0 20
-125 145 -145 145 -8 0 -15 5 -15 10 0 6 -9 10 -20 10 -11 0 -20 5 -20 10 0 6
-13 10 -30 10 -16 0 -30 5 -30 10 0 6 -13 10 -30 10 -16 0 -30 5 -30 10 0 6
-37 10 -90 10 -53 0 -90 -4 -90 -10z m160 -320 c0 -5 7 -10 15 -10 20 0 65
-45 65 -65 0 -8 5 -15 10 -15 6 0 10 -29 10 -68 l0 -68 -20 -14 c-11 -8 -20
-22 -20 -32 0 -11 -7 -18 -20 -18 -11 0 -20 -4 -20 -10 0 -5 -9 -10 -20 -10
-11 0 -20 -4 -20 -10 0 -6 -27 -10 -60 -10 -33 0 -60 4 -60 10 0 6 -7 10 -15
10 -20 0 -65 45 -65 65 0 8 -4 15 -10 15 -5 0 -10 9 -10 20 0 11 -4 20 -10 20
-5 0 -10 14 -10 30 0 17 5 30 10 30 6 0 10 11 10 25 0 16 15 41 43 70 l42 44
78 0 c45 1 77 -3 77 -9z"/>
<path d="M4540 1990 c0 -5 -22 -10 -50 -10 -27 0 -50 -4 -50 -10 0 -5 -9 -10
-20 -10 -11 0 -20 -4 -20 -10 0 -5 -9 -10 -20 -10 -11 0 -20 -4 -20 -10 0 -5
-7 -10 -15 -10 -20 0 -145 -125 -145 -145 0 -8 -4 -15 -10 -15 -5 0 -10 -9
-10 -20 0 -11 -4 -20 -10 -20 -5 0 -10 -9 -10 -20 0 -11 -4 -20 -10 -20 -5 0
-10 -13 -10 -30 0 -16 -4 -30 -10 -30 -6 0 -10 -40 -10 -100 0 -60 4 -100 10
-100 6 0 10 -18 10 -40 0 -22 5 -40 10 -40 6 0 10 -13 10 -28 0 -16 8 -34 20
-42 11 -8 20 -20 20 -27 0 -17 106 -123 123 -123 7 0 19 -9 27 -20 8 -12 26
-20 42 -20 15 0 28 -4 28 -10 0 -5 9 -10 20 -10 11 0 20 -4 20 -10 0 -6 36
-10 89 -10 62 0 91 -4 95 -12 l6 -13 6 13 c4 7 27 12 65 12 33 0 59 4 59 10 0
6 9 10 20 10 11 0 20 5 20 10 0 6 9 10 20 10 11 0 20 5 20 10 0 6 7 10 16 10
9 0 29 14 44 30 15 17 35 30 44 30 9 0 16 7 16 16 0 8 18 33 40 54 26 25 40
47 40 64 0 14 5 26 10 26 6 0 10 14 10 30 0 17 5 30 10 30 6 0 10 50 10 130 0
80 -4 130 -10 130 -5 0 -10 14 -10 30 0 17 -4 30 -10 30 -5 0 -10 9 -10 20 0
11 -4 20 -10 20 -5 0 -10 8 -10 18 0 10 -9 24 -20 32 -11 8 -20 20 -20 28 0
17 -45 62 -62 62 -8 0 -20 9 -28 20 -8 11 -22 20 -32 20 -10 0 -18 5 -18 10 0
6 -9 10 -20 10 -11 0 -20 5 -20 10 0 6 -9 10 -20 10 -11 0 -20 5 -20 10 0 6
-18 10 -40 10 -22 0 -40 5 -40 10 0 6 -33 10 -80 10 -47 0 -80 -4 -80 -10z
m195 -355 c30 -29 45 -53 45 -70 0 -14 5 -25 10 -25 6 0 10 -13 10 -30 0 -16
-4 -30 -10 -30 -5 0 -10 -9 -10 -20 0 -11 -4 -20 -10 -20 -5 0 -10 -7 -10 -15
0 -20 -45 -65 -65 -65 -8 0 -15 -4 -15 -10 0 -6 -30 -10 -70 -10 -40 0 -70 4
-70 10 0 6 -7 10 -16 10 -19 0 -44 24 -44 42 0 8 -9 20 -20 28 l-20 14 0 66 0
66 20 14 c11 8 20 20 20 28 0 7 10 24 23 37 l22 24 83 0 83 1 44 -45z"/>
<path d="M33 1965 c-15 -17 -17 -45 -3 -45 6 0 10 -9 10 -20 0 -11 5 -20 10
-20 6 0 10 -9 10 -20 0 -11 5 -20 10 -20 6 0 10 -13 10 -30 0 -16 5 -30 10
-30 6 0 10 -9 10 -20 0 -11 5 -20 10 -20 6 0 10 -13 10 -30 0 -16 5 -30 10
-30 6 0 10 -9 10 -20 0 -11 5 -20 10 -20 6 0 10 -9 10 -20 0 -11 5 -20 10 -20
6 0 10 -9 10 -20 0 -11 5 -20 10 -20 6 0 10 -13 10 -30 0 -16 5 -30 10 -30 6
0 10 -9 10 -20 0 -11 5 -20 10 -20 6 0 10 -13 10 -30 0 -16 5 -30 10 -30 6 0
10 -9 10 -20 0 -11 5 -20 10 -20 6 0 10 -13 10 -28 0 -16 8 -34 20 -42 12 -8
20 -26 20 -42 0 -15 5 -28 10 -28 6 0 10 -9 10 -20 0 -11 5 -20 10 -20 6 0 10
-13 10 -30 0 -16 5 -30 10 -30 6 0 10 -9 10 -20 0 -11 5 -20 10 -20 6 0 10
-13 10 -30 0 -16 -4 -30 -10 -30 -5 0 -10 -9 -10 -20 0 -11 -4 -20 -10 -20 -5
0 -10 -13 -10 -30 0 -16 -4 -30 -10 -30 -5 0 -10 -9 -10 -20 0 -11 -4 -20 -10
-20 -5 0 -10 -9 -10 -20 0 -11 -4 -20 -10 -20 -5 0 -10 -9 -10 -20 0 -11 -4
-20 -10 -20 -5 0 -10 -18 -10 -40 l0 -40 166 0 c179 0 194 4 194 54 0 14 5 26
10 26 6 0 10 9 10 20 0 11 5 20 10 20 6 0 10 14 10 30 0 17 5 30 10 30 6 0 10
14 10 30 0 17 5 30 10 30 6 0 10 9 10 20 0 11 5 20 10 20 6 0 10 9 10 20 0 11
5 20 10 20 6 0 10 9 10 20 0 11 5 20 10 20 6 0 10 14 10 30 0 17 5 30 10 30 6
0 10 14 10 30 0 17 5 30 10 30 6 0 10 9 10 20 0 11 5 20 10 20 6 0 10 9 10 20
0 11 5 20 10 20 6 0 10 9 10 20 0 11 5 20 10 20 6 0 10 14 10 30 0 17 5 30 10
30 6 0 10 9 10 20 0 11 5 20 10 20 6 0 10 14 10 30 0 17 5 30 10 30 6 0 10 9
10 20 0 11 5 20 10 20 6 0 10 14 10 30 0 17 5 30 10 30 6 0 10 9 10 20 0 11 5
20 10 20 6 0 10 14 10 30 0 17 5 30 10 30 6 0 10 9 10 20 0 11 5 20 10 20 6 0
10 9 10 20 0 11 5 20 10 20 6 0 10 14 10 30 0 17 5 30 10 30 6 0 10 9 10 20 0
11 5 20 10 20 6 0 10 14 10 30 0 17 5 30 10 30 6 0 10 14 10 30 l0 30 -155 0
-156 0 -24 -25 c-14 -13 -25 -36 -25 -50 0 -14 -4 -25 -10 -25 -5 0 -10 -9
-10 -20 0 -11 -4 -20 -10 -20 -5 0 -10 -13 -10 -30 0 -16 -4 -30 -10 -30 -5 0
-10 -9 -10 -20 0 -11 -4 -20 -10 -20 -5 0 -10 -13 -10 -30 0 -16 -4 -30 -10
-30 -5 0 -10 -9 -10 -20 0 -11 -4 -20 -10 -20 -5 0 -10 -13 -10 -30 0 -16 -4
-30 -10 -30 -5 0 -10 -9 -10 -20 0 -11 -4 -20 -10 -20 -5 0 -10 -13 -10 -30 0
-23 -4 -30 -20 -30 -13 0 -20 7 -20 20 0 11 -4 20 -10 20 -5 0 -10 14 -10 30
0 17 -4 30 -10 30 -5 0 -10 9 -10 20 0 11 -4 20 -10 20 -5 0 -10 9 -10 20 0
11 -4 20 -10 20 -5 0 -10 14 -10 30 0 17 -4 30 -10 30 -5 0 -10 9 -10 20 0 11
-4 20 -10 20 -5 0 -10 14 -10 30 0 17 -4 30 -10 30 -5 0 -10 14 -10 30 0 17
-4 30 -10 30 -5 0 -10 11 -10 25 0 14 -11 37 -25 50 l-24 25 -153 0 c-119 -1
-156 -4 -165 -15z"/>
<path d="M5320 1470 c0 -5 -13 -10 -30 -10 -16 0 -30 -4 -30 -10 0 -5 -7 -10
-16 -10 -19 0 -44 -24 -44 -42 0 -8 -9 -20 -20 -28 -11 -8 -20 -22 -20 -32 0
-10 -4 -18 -10 -18 -6 0 -10 -30 -10 -70 0 -40 4 -70 10 -70 6 0 10 -11 10
-25 0 -29 40 -75 65 -75 8 0 15 -4 15 -10 0 -5 9 -10 20 -10 11 0 20 -4 20
-10 0 -6 33 -10 80 -10 47 0 80 4 80 10 0 6 7 10 15 10 20 0 85 65 85 85 0 8
5 15 10 15 6 0 10 18 10 40 0 22 5 40 10 40 6 0 10 9 10 20 0 11 -4 20 -10 20
-5 0 -10 17 -10 38 0 26 -6 42 -20 52 -11 8 -20 22 -20 32 0 11 -7 18 -20 18
-11 0 -20 5 -20 10 0 6 -9 10 -20 10 -11 0 -20 5 -20 10 0 6 -9 10 -20 10 -11
0 -20 5 -20 10 0 6 -18 10 -40 10 -22 0 -40 -4 -40 -10z"/>
<path d="M2360 950 c0 -5 -7 -10 -15 -10 -26 0 -105 -86 -105 -115 0 -14 -4
-25 -10 -25 -5 0 -10 -18 -10 -40 l0 -40 -30 0 -30 0 0 -80 0 -80 30 0 30 0 0
-180 0 -180 100 0 100 0 0 180 0 180 60 0 60 0 0 80 0 80 -46 0 c-27 0 -51 6
-60 15 l-15 15 25 25 c19 19 35 25 71 25 l45 0 0 66 c0 88 -7 94 -114 94 -51
0 -86 -4 -86 -10z"/>
<path d="M3140 730 c0 -5 -9 -10 -20 -10 -11 0 -20 -4 -20 -10 0 -5 -9 -10
-20 -10 -11 0 -20 5 -20 10 0 6 -40 10 -100 10 l-100 0 0 -260 0 -260 86 0
c61 0 90 4 100 14 11 11 14 47 14 156 l0 141 25 24 c13 14 29 25 35 25 6 0 22
-11 35 -25 l25 -24 0 -156 0 -155 100 0 100 0 0 190 c0 120 -4 190 -10 190 -5
0 -10 16 -10 35 0 44 -55 105 -95 105 -14 0 -25 5 -25 10 0 6 -22 10 -50 10
-27 0 -50 -4 -50 -10z"/>
<path d="M3600 730 c0 -5 -11 -10 -25 -10 -29 0 -115 -79 -115 -105 0 -8 -4
-15 -10 -15 -5 0 -10 -13 -10 -30 0 -16 -4 -30 -10 -30 -6 0 -10 -33 -10 -80
0 -47 4 -80 10 -80 6 0 10 -13 10 -30 0 -16 5 -30 10 -30 6 0 10 -7 10 -15 0
-9 20 -36 45 -60 l44 -45 36 0 c19 0 35 -4 35 -10 0 -5 18 -10 40 -10 22 0 40
5 40 10 0 6 18 10 40 10 22 0 40 5 40 10 0 6 9 10 20 10 11 0 20 -4 20 -10 0
-6 37 -10 90 -10 l90 0 0 260 0 260 -90 0 c-53 0 -90 -4 -90 -10 0 -5 -9 -10
-20 -10 -11 0 -20 5 -20 10 0 6 -13 10 -30 10 -16 0 -30 5 -30 10 0 6 -27 10
-60 10 -33 0 -60 -4 -60 -10z m175 -195 c14 -13 25 -31 25 -40 0 -8 5 -15 10
-15 6 0 10 -9 10 -20 0 -11 -4 -20 -10 -20 -5 0 -10 -7 -10 -15 0 -9 -11 -27
-25 -40 -36 -37 -78 -33 -120 10 -46 45 -47 83 -2 130 41 43 86 47 122 10z"/>
<path d="M4360 730 c0 -5 -13 -10 -29 -10 -16 0 -32 -6 -35 -12 -5 -10 -7 -10
-12 0 -4 8 -35 12 -105 12 l-99 0 0 -260 0 -260 86 0 c61 0 90 4 100 14 11 11
14 49 14 170 l0 156 20 0 c11 0 20 5 20 10 0 18 31 10 55 -15 l25 -24 0 -156
0 -155 100 0 100 0 0 190 c0 120 -4 190 -10 190 -5 0 -10 16 -10 35 0 27 -8
44 -35 70 -19 19 -41 35 -50 35 -8 0 -15 5 -15 10 0 6 -27 10 -60 10 -33 0
-60 -4 -60 -10z"/>
<path d="M4860 730 c0 -5 -17 -10 -38 -10 -26 0 -42 -6 -52 -20 -8 -11 -22
-20 -32 -20 -11 0 -18 -7 -18 -20 0 -13 -7 -20 -20 -20 -13 0 -20 -7 -20 -20
0 -11 -4 -20 -10 -20 -5 0 -10 -13 -10 -30 0 -16 -4 -30 -10 -30 -6 0 -10 -33
-10 -80 0 -47 4 -80 10 -80 6 0 10 -13 10 -28 0 -16 8 -34 20 -42 11 -8 20
-20 20 -28 0 -18 25 -42 44 -42 9 0 16 -4 16 -10 0 -5 9 -10 20 -10 11 0 20
-4 20 -10 0 -5 14 -10 30 -10 17 0 30 -4 30 -10 0 -6 27 -10 60 -10 33 0 60 4
60 10 0 6 12 10 26 10 14 0 32 6 40 14 16 17 20 106 4 106 -5 0 -10 9 -10 20
0 11 5 20 10 20 6 0 10 5 10 10 0 6 -13 10 -30 10 -16 0 -30 -4 -30 -10 0 -5
-18 -10 -40 -10 -22 0 -40 5 -40 10 0 6 -7 10 -15 10 -27 0 -65 47 -65 80 0
33 38 80 65 80 8 0 15 5 15 10 0 6 18 10 40 10 22 0 40 -4 40 -10 0 -15 29
-12 46 4 17 18 18 62 2 70 -10 5 -10 7 0 12 16 8 15 52 -2 70 -8 8 -26 14 -40
14 -14 0 -26 5 -26 10 0 6 -27 10 -60 10 -33 0 -60 -4 -60 -10z"/>
<path d="M5280 730 c0 -5 -13 -10 -28 -10 -16 0 -34 -8 -42 -20 -8 -11 -20
-20 -28 -20 -21 0 -62 -47 -62 -72 0 -13 -9 -30 -20 -38 l-20 -14 0 -98 c0
-59 4 -98 10 -98 6 0 10 -9 10 -20 0 -11 5 -20 10 -20 6 0 10 -7 10 -16 0 -18
24 -44 40 -44 7 0 25 -13 40 -30 17 -18 38 -30 54 -30 14 0 26 -4 26 -10 0 -6
33 -10 80 -10 47 0 80 4 80 10 0 6 14 10 30 10 17 0 30 5 30 10 0 6 7 10 15
10 9 0 31 16 50 35 40 40 48 85 15 85 -11 0 -20 5 -20 10 0 6 -13 10 -30 10
-16 0 -30 5 -30 10 0 6 -13 10 -30 10 -16 0 -30 -4 -30 -10 0 -5 -9 -10 -20
-10 -11 0 -20 -4 -20 -10 0 -5 -13 -10 -30 -10 -16 0 -30 5 -30 10 0 6 -7 10
-16 10 -15 0 -44 23 -44 34 0 3 75 6 166 6 130 0 168 3 180 14 16 16 19 86 4
86 -5 0 -10 18 -10 40 0 22 -4 40 -10 40 -5 0 -10 7 -10 15 0 26 -107 125
-135 125 -14 0 -25 5 -25 10 0 6 -33 10 -80 10 -47 0 -80 -4 -80 -10z m135
-175 c14 -13 25 -27 25 -30 0 -3 -36 -5 -80 -5 l-80 0 0 20 c0 13 7 20 20 20
11 0 20 5 20 10 0 21 70 10 95 -15z"/>
<path d="M2600 460 l0 -260 100 0 100 0 0 260 0 260 -100 0 -100 0 0 -260z"/>
</g>
</svg>
